%TF.GenerationSoftware,KiCad,Pcbnew,(5.1.10)-1*%
%TF.CreationDate,2021-09-10T15:59:41-05:00*%
%TF.ProjectId,ForceSensor,466f7263-6553-4656-9e73-6f722e6b6963,rev?*%
%TF.SameCoordinates,Original*%
%TF.FileFunction,Copper,L1,Top*%
%TF.FilePolarity,Positive*%
%FSLAX46Y46*%
G04 Gerber Fmt 4.6, Leading zero omitted, Abs format (unit mm)*
G04 Created by KiCad (PCBNEW (5.1.10)-1) date 2021-09-10 15:59:41*
%MOMM*%
%LPD*%
G01*
G04 APERTURE LIST*
%TA.AperFunction,ComponentPad*%
%ADD10R,1.600000X1.600000*%
%TD*%
%TA.AperFunction,ComponentPad*%
%ADD11C,1.600000*%
%TD*%
%TA.AperFunction,ComponentPad*%
%ADD12R,1.700000X1.700000*%
%TD*%
%TA.AperFunction,ComponentPad*%
%ADD13O,1.700000X1.700000*%
%TD*%
%TA.AperFunction,ComponentPad*%
%ADD14C,1.500000*%
%TD*%
%TA.AperFunction,ComponentPad*%
%ADD15O,1.600000X1.600000*%
%TD*%
%TA.AperFunction,ComponentPad*%
%ADD16R,2.000000X2.000000*%
%TD*%
%TA.AperFunction,ComponentPad*%
%ADD17O,2.000000X2.000000*%
%TD*%
%TA.AperFunction,ViaPad*%
%ADD18C,0.800000*%
%TD*%
%TA.AperFunction,Conductor*%
%ADD19C,0.508000*%
%TD*%
%TA.AperFunction,Conductor*%
%ADD20C,0.635000*%
%TD*%
%TA.AperFunction,NonConductor*%
%ADD21C,0.254000*%
%TD*%
%TA.AperFunction,NonConductor*%
%ADD22C,0.100000*%
%TD*%
G04 APERTURE END LIST*
D10*
%TO.P,C1,1*%
%TO.N,GND*%
X220980000Y-70485000D03*
D11*
%TO.P,C1,2*%
%TO.N,/Left_Data1*%
X218480000Y-70485000D03*
%TD*%
D10*
%TO.P,C2,1*%
%TO.N,GND*%
X226695000Y-70485000D03*
D11*
%TO.P,C2,2*%
%TO.N,/Left_Data2*%
X224195000Y-70485000D03*
%TD*%
%TO.P,C3,2*%
%TO.N,/Left_Data3*%
X229910000Y-70485000D03*
D10*
%TO.P,C3,1*%
%TO.N,GND*%
X232410000Y-70485000D03*
%TD*%
D11*
%TO.P,C4,2*%
%TO.N,/Right_Data1*%
X241300000Y-70485000D03*
D10*
%TO.P,C4,1*%
%TO.N,GND*%
X243800000Y-70485000D03*
%TD*%
%TO.P,C5,1*%
%TO.N,GND*%
X249555000Y-70485000D03*
D11*
%TO.P,C5,2*%
%TO.N,/Right_Data2*%
X247055000Y-70485000D03*
%TD*%
%TO.P,C6,2*%
%TO.N,/Right_Data3*%
X252770000Y-70485000D03*
D10*
%TO.P,C6,1*%
%TO.N,GND*%
X255270000Y-70485000D03*
%TD*%
D12*
%TO.P,J4,1*%
%TO.N,Net-(J4-Pad1)*%
X260985000Y-48641000D03*
D13*
%TO.P,J4,2*%
%TO.N,Net-(J4-Pad2)*%
X260985000Y-51181000D03*
%TO.P,J4,3*%
%TO.N,Net-(J4-Pad3)*%
X260985000Y-53721000D03*
%TO.P,J4,4*%
%TO.N,GND*%
X260985000Y-56261000D03*
%TO.P,J4,5*%
%TO.N,Net-(J4-Pad5)*%
X260985000Y-58801000D03*
%TO.P,J4,6*%
%TO.N,Net-(J4-Pad6)*%
X260985000Y-61341000D03*
%TO.P,J4,7*%
%TO.N,Net-(J4-Pad7)*%
X260985000Y-63881000D03*
%TO.P,J4,8*%
%TO.N,Net-(J4-Pad8)*%
X260985000Y-66421000D03*
%TO.P,J4,9*%
%TO.N,Net-(J4-Pad9)*%
X260985000Y-68961000D03*
%TO.P,J4,10*%
%TO.N,Net-(J4-Pad10)*%
X260985000Y-71501000D03*
%TD*%
%TO.P,J7,1*%
%TO.N,+5V*%
%TA.AperFunction,ComponentPad*%
G36*
G01*
X229985000Y-102370000D02*
X229985000Y-103370000D01*
G75*
G02*
X229735000Y-103620000I-250000J0D01*
G01*
X228735000Y-103620000D01*
G75*
G02*
X228485000Y-103370000I0J250000D01*
G01*
X228485000Y-102370000D01*
G75*
G02*
X228735000Y-102120000I250000J0D01*
G01*
X229735000Y-102120000D01*
G75*
G02*
X229985000Y-102370000I0J-250000D01*
G01*
G37*
%TD.AperFunction*%
D14*
%TO.P,J7,2*%
X226235000Y-102870000D03*
%TO.P,J7,3*%
X223235000Y-102870000D03*
%TO.P,J7,4*%
%TO.N,/Left_Data3*%
X229235000Y-99870000D03*
%TO.P,J7,5*%
%TO.N,/Left_Data2*%
X226235000Y-99870000D03*
%TO.P,J7,6*%
%TO.N,/Left_Data1*%
X223235000Y-99870000D03*
%TD*%
%TO.P,J8,6*%
%TO.N,/Right_Data1*%
X244444000Y-99870000D03*
%TO.P,J8,5*%
%TO.N,/Right_Data2*%
X247444000Y-99870000D03*
%TO.P,J8,4*%
%TO.N,/Right_Data3*%
X250444000Y-99870000D03*
%TO.P,J8,3*%
%TO.N,+5V*%
X244444000Y-102870000D03*
%TO.P,J8,2*%
X247444000Y-102870000D03*
%TO.P,J8,1*%
%TA.AperFunction,ComponentPad*%
G36*
G01*
X251194000Y-102370000D02*
X251194000Y-103370000D01*
G75*
G02*
X250944000Y-103620000I-250000J0D01*
G01*
X249944000Y-103620000D01*
G75*
G02*
X249694000Y-103370000I0J250000D01*
G01*
X249694000Y-102370000D01*
G75*
G02*
X249944000Y-102120000I250000J0D01*
G01*
X250944000Y-102120000D01*
G75*
G02*
X251194000Y-102370000I0J-250000D01*
G01*
G37*
%TD.AperFunction*%
%TD*%
D11*
%TO.P,R1,1*%
%TO.N,GND*%
X243332000Y-57277000D03*
D15*
%TO.P,R1,2*%
%TO.N,Net-(J1-Pad5)*%
X250952000Y-57277000D03*
%TD*%
%TO.P,R2,2*%
%TO.N,/D3*%
X243332000Y-60325000D03*
D11*
%TO.P,R2,1*%
%TO.N,Net-(J1-Pad5)*%
X250952000Y-60325000D03*
%TD*%
%TO.P,R3,1*%
%TO.N,/Left_Data1*%
X223266000Y-96774000D03*
D15*
%TO.P,R3,2*%
%TO.N,GND*%
X223266000Y-89154000D03*
%TD*%
%TO.P,R4,2*%
%TO.N,GND*%
X226314000Y-89154000D03*
D11*
%TO.P,R4,1*%
%TO.N,/Left_Data2*%
X226314000Y-96774000D03*
%TD*%
D15*
%TO.P,R5,2*%
%TO.N,GND*%
X229362000Y-89154000D03*
D11*
%TO.P,R5,1*%
%TO.N,/Left_Data3*%
X229362000Y-96774000D03*
%TD*%
%TO.P,R6,1*%
%TO.N,/Right_Data1*%
X244475000Y-96774000D03*
D15*
%TO.P,R6,2*%
%TO.N,GND*%
X244475000Y-89154000D03*
%TD*%
%TO.P,R7,2*%
%TO.N,GND*%
X247523000Y-89154000D03*
D11*
%TO.P,R7,1*%
%TO.N,/Right_Data2*%
X247523000Y-96774000D03*
%TD*%
%TO.P,R8,1*%
%TO.N,/Right_Data3*%
X250571000Y-96774000D03*
D15*
%TO.P,R8,2*%
%TO.N,GND*%
X250571000Y-89154000D03*
%TD*%
D12*
%TO.P,J1,1*%
%TO.N,Net-(J1-Pad1)*%
X255397000Y-48514000D03*
D13*
%TO.P,J1,2*%
%TO.N,+5V*%
X255397000Y-51054000D03*
%TO.P,J1,3*%
%TO.N,GND*%
X255397000Y-53594000D03*
%TO.P,J1,4*%
%TO.N,/D2*%
X255397000Y-56134000D03*
%TO.P,J1,5*%
%TO.N,Net-(J1-Pad5)*%
X255397000Y-58674000D03*
%TO.P,J1,6*%
%TO.N,Net-(J1-Pad6)*%
X255397000Y-61214000D03*
%TD*%
D12*
%TO.P,J2,1*%
%TO.N,Net-(J2-Pad1)*%
X212725000Y-57785000D03*
D13*
%TO.P,J2,2*%
%TO.N,Net-(J2-Pad2)*%
X212725000Y-60325000D03*
%TO.P,J2,3*%
%TO.N,Net-(J2-Pad3)*%
X212725000Y-62865000D03*
%TO.P,J2,4*%
%TO.N,+3V3*%
X212725000Y-65405000D03*
%TO.P,J2,5*%
%TO.N,+5V*%
X212725000Y-67945000D03*
%TO.P,J2,6*%
%TO.N,GND*%
X212725000Y-70485000D03*
%TO.P,J2,7*%
X212725000Y-73025000D03*
%TO.P,J2,8*%
%TO.N,Net-(J2-Pad8)*%
X212725000Y-75565000D03*
%TD*%
%TO.P,J3,6*%
%TO.N,/Right_Data3*%
X212725000Y-93345000D03*
%TO.P,J3,5*%
%TO.N,/Right_Data2*%
X212725000Y-90805000D03*
%TO.P,J3,4*%
%TO.N,/Right_Data1*%
X212725000Y-88265000D03*
%TO.P,J3,3*%
%TO.N,/Left_Data3*%
X212725000Y-85725000D03*
%TO.P,J3,2*%
%TO.N,/Left_Data2*%
X212725000Y-83185000D03*
D12*
%TO.P,J3,1*%
%TO.N,/Left_Data1*%
X212725000Y-80645000D03*
%TD*%
D13*
%TO.P,J5,8*%
%TO.N,Net-(J5-Pad8)*%
X260985000Y-93345000D03*
%TO.P,J5,7*%
%TO.N,Net-(J5-Pad7)*%
X260985000Y-90805000D03*
%TO.P,J5,6*%
%TO.N,/D2*%
X260985000Y-88265000D03*
%TO.P,J5,5*%
%TO.N,/D3*%
X260985000Y-85725000D03*
%TO.P,J5,4*%
%TO.N,Net-(J5-Pad4)*%
X260985000Y-83185000D03*
%TO.P,J5,3*%
%TO.N,Net-(J5-Pad3)*%
X260985000Y-80645000D03*
%TO.P,J5,2*%
%TO.N,Net-(J5-Pad2)*%
X260985000Y-78105000D03*
D12*
%TO.P,J5,1*%
%TO.N,Net-(J5-Pad1)*%
X260985000Y-75565000D03*
%TD*%
D11*
%TO.P,R9,1*%
%TO.N,+3V3*%
X224536000Y-64516000D03*
D15*
%TO.P,R9,2*%
%TO.N,Net-(D1-Pad1)*%
X232156000Y-64516000D03*
%TD*%
D16*
%TO.P,D1,1*%
%TO.N,Net-(D1-Pad1)*%
X236855000Y-68072000D03*
D17*
%TO.P,D1,2*%
%TO.N,GND*%
X236855000Y-70612000D03*
%TD*%
D18*
%TO.N,/Left_Data1*%
X215900000Y-80645000D03*
%TO.N,/Left_Data2*%
X218440000Y-83185000D03*
%TO.N,/Left_Data3*%
X220853000Y-85852000D03*
%TO.N,/Right_Data1*%
X231775000Y-80010000D03*
%TO.N,/Right_Data2*%
X239331500Y-86296500D03*
%TO.N,/Right_Data3*%
X252770000Y-75398000D03*
%TO.N,+5V*%
X236855000Y-102870000D03*
%TD*%
D19*
%TO.N,/Left_Data1*%
X223266000Y-99839000D02*
X223235000Y-99870000D01*
X223266000Y-96774000D02*
X223266000Y-99839000D01*
X212725000Y-80645000D02*
X216027000Y-80645000D01*
X218480000Y-78192000D02*
X218480000Y-70485000D01*
X216027000Y-80645000D02*
X218480000Y-78192000D01*
%TO.N,/Left_Data2*%
X226314000Y-99791000D02*
X226235000Y-99870000D01*
X226314000Y-96774000D02*
X226314000Y-99791000D01*
X224195000Y-82129000D02*
X224195000Y-70485000D01*
X223139000Y-83185000D02*
X224195000Y-82129000D01*
X218440000Y-83185000D02*
X223139000Y-83185000D01*
X212725000Y-83185000D02*
X218440000Y-83185000D01*
%TO.N,/Left_Data3*%
X229362000Y-99743000D02*
X229235000Y-99870000D01*
X229362000Y-96774000D02*
X229362000Y-99743000D01*
X213927081Y-85725000D02*
X214054081Y-85852000D01*
X212725000Y-85725000D02*
X213927081Y-85725000D01*
X229910000Y-79970000D02*
X229910000Y-70485000D01*
X224028000Y-85852000D02*
X229910000Y-79970000D01*
X220853000Y-85852000D02*
X224028000Y-85852000D01*
X214054081Y-85852000D02*
X220853000Y-85852000D01*
%TO.N,/Right_Data1*%
X244475000Y-99839000D02*
X244444000Y-99870000D01*
X244475000Y-96774000D02*
X244475000Y-99839000D01*
X213574999Y-87415001D02*
X224369999Y-87415001D01*
X212725000Y-88265000D02*
X213574999Y-87415001D01*
X231775000Y-80010000D02*
X241300000Y-70485000D01*
X224369999Y-87415001D02*
X231775000Y-80010000D01*
%TO.N,/Right_Data2*%
X247523000Y-99791000D02*
X247444000Y-99870000D01*
X247523000Y-96774000D02*
X247523000Y-99791000D01*
X212725000Y-90805000D02*
X234823000Y-90805000D01*
X247055000Y-78573000D02*
X247055000Y-70485000D01*
X239331500Y-86296500D02*
X247055000Y-78573000D01*
X234823000Y-90805000D02*
X239331500Y-86296500D01*
%TO.N,/Right_Data3*%
X250571000Y-99743000D02*
X250444000Y-99870000D01*
X250571000Y-96774000D02*
X250571000Y-99743000D01*
X252476000Y-70779000D02*
X252770000Y-70485000D01*
X212725000Y-93345000D02*
X234823000Y-93345000D01*
X252770000Y-75398000D02*
X252770000Y-70485000D01*
X234823000Y-93345000D02*
X252770000Y-75398000D01*
D20*
%TO.N,+5V*%
X223235000Y-102870000D02*
X229235000Y-102870000D01*
X244444000Y-102870000D02*
X250444000Y-102870000D01*
X244444000Y-102870000D02*
X236855000Y-102870000D01*
X229616000Y-51054000D02*
X212725000Y-67945000D01*
X255397000Y-51054000D02*
X229616000Y-51054000D01*
X236855000Y-102870000D02*
X229235000Y-102870000D01*
%TO.N,/D2*%
X255397000Y-56134000D02*
X256794000Y-56134000D01*
X256794000Y-56134000D02*
X257810000Y-57150000D01*
X257810000Y-57150000D02*
X257810000Y-85090000D01*
X257810000Y-85090000D02*
X260985000Y-88265000D01*
%TO.N,Net-(J1-Pad5)*%
X253746000Y-60325000D02*
X255397000Y-58674000D01*
X250952000Y-60325000D02*
X253746000Y-60325000D01*
X254000000Y-57277000D02*
X255397000Y-58674000D01*
X250952000Y-57277000D02*
X254000000Y-57277000D01*
%TD*%
D21*
X262864513Y-43205666D02*
X262865001Y-43210310D01*
X262865000Y-109187725D01*
X262864335Y-109194513D01*
X262859699Y-109195000D01*
X248182525Y-109195000D01*
X248455302Y-109082012D01*
X248804983Y-108848363D01*
X249102363Y-108550983D01*
X249336012Y-108201302D01*
X249496953Y-107812756D01*
X249579000Y-107400279D01*
X249579000Y-106979721D01*
X249496953Y-106567244D01*
X249336012Y-106178698D01*
X249102363Y-105829017D01*
X248804983Y-105531637D01*
X248455302Y-105297988D01*
X248066756Y-105137047D01*
X247654279Y-105055000D01*
X247233721Y-105055000D01*
X246821244Y-105137047D01*
X246432698Y-105297988D01*
X246083017Y-105531637D01*
X245785637Y-105829017D01*
X245551988Y-106178698D01*
X245391047Y-106567244D01*
X245309000Y-106979721D01*
X245309000Y-107400279D01*
X245391047Y-107812756D01*
X245551988Y-108201302D01*
X245785637Y-108550983D01*
X246083017Y-108848363D01*
X246432698Y-109082012D01*
X246705475Y-109195000D01*
X226973525Y-109195000D01*
X227246302Y-109082012D01*
X227595983Y-108848363D01*
X227893363Y-108550983D01*
X228127012Y-108201302D01*
X228287953Y-107812756D01*
X228370000Y-107400279D01*
X228370000Y-106979721D01*
X228287953Y-106567244D01*
X228127012Y-106178698D01*
X227893363Y-105829017D01*
X227595983Y-105531637D01*
X227246302Y-105297988D01*
X226857756Y-105137047D01*
X226445279Y-105055000D01*
X226024721Y-105055000D01*
X225612244Y-105137047D01*
X225223698Y-105297988D01*
X224874017Y-105531637D01*
X224576637Y-105829017D01*
X224342988Y-106178698D01*
X224182047Y-106567244D01*
X224100000Y-106979721D01*
X224100000Y-107400279D01*
X224182047Y-107812756D01*
X224342988Y-108201302D01*
X224576637Y-108550983D01*
X224874017Y-108848363D01*
X225223698Y-109082012D01*
X225496475Y-109195000D01*
X210852275Y-109195000D01*
X210845487Y-109194335D01*
X210845000Y-109189699D01*
X210845000Y-102733589D01*
X221850000Y-102733589D01*
X221850000Y-103006411D01*
X221903225Y-103273989D01*
X222007629Y-103526043D01*
X222159201Y-103752886D01*
X222352114Y-103945799D01*
X222578957Y-104097371D01*
X222831011Y-104201775D01*
X223098589Y-104255000D01*
X223371411Y-104255000D01*
X223638989Y-104201775D01*
X223891043Y-104097371D01*
X224117886Y-103945799D01*
X224241185Y-103822500D01*
X225228815Y-103822500D01*
X225352114Y-103945799D01*
X225578957Y-104097371D01*
X225831011Y-104201775D01*
X226098589Y-104255000D01*
X226371411Y-104255000D01*
X226638989Y-104201775D01*
X226891043Y-104097371D01*
X227117886Y-103945799D01*
X227241185Y-103822500D01*
X227974741Y-103822500D01*
X227996595Y-103863386D01*
X228107038Y-103997962D01*
X228241614Y-104108405D01*
X228395150Y-104190472D01*
X228561746Y-104241008D01*
X228735000Y-104258072D01*
X229735000Y-104258072D01*
X229908254Y-104241008D01*
X230074850Y-104190472D01*
X230228386Y-104108405D01*
X230362962Y-103997962D01*
X230473405Y-103863386D01*
X230495259Y-103822500D01*
X236449953Y-103822500D01*
X236553102Y-103865226D01*
X236753061Y-103905000D01*
X236956939Y-103905000D01*
X237156898Y-103865226D01*
X237260047Y-103822500D01*
X243437815Y-103822500D01*
X243561114Y-103945799D01*
X243787957Y-104097371D01*
X244040011Y-104201775D01*
X244307589Y-104255000D01*
X244580411Y-104255000D01*
X244847989Y-104201775D01*
X245100043Y-104097371D01*
X245326886Y-103945799D01*
X245450185Y-103822500D01*
X246437815Y-103822500D01*
X246561114Y-103945799D01*
X246787957Y-104097371D01*
X247040011Y-104201775D01*
X247307589Y-104255000D01*
X247580411Y-104255000D01*
X247847989Y-104201775D01*
X248100043Y-104097371D01*
X248326886Y-103945799D01*
X248450185Y-103822500D01*
X249183741Y-103822500D01*
X249205595Y-103863386D01*
X249316038Y-103997962D01*
X249450614Y-104108405D01*
X249604150Y-104190472D01*
X249770746Y-104241008D01*
X249944000Y-104258072D01*
X250944000Y-104258072D01*
X251117254Y-104241008D01*
X251283850Y-104190472D01*
X251437386Y-104108405D01*
X251571962Y-103997962D01*
X251682405Y-103863386D01*
X251764472Y-103709850D01*
X251815008Y-103543254D01*
X251832072Y-103370000D01*
X251832072Y-102370000D01*
X251815008Y-102196746D01*
X251764472Y-102030150D01*
X251682405Y-101876614D01*
X251571962Y-101742038D01*
X251437386Y-101631595D01*
X251283850Y-101549528D01*
X251117254Y-101498992D01*
X250944000Y-101481928D01*
X249944000Y-101481928D01*
X249770746Y-101498992D01*
X249604150Y-101549528D01*
X249450614Y-101631595D01*
X249316038Y-101742038D01*
X249205595Y-101876614D01*
X249183741Y-101917500D01*
X248450185Y-101917500D01*
X248326886Y-101794201D01*
X248100043Y-101642629D01*
X247847989Y-101538225D01*
X247580411Y-101485000D01*
X247307589Y-101485000D01*
X247040011Y-101538225D01*
X246787957Y-101642629D01*
X246561114Y-101794201D01*
X246437815Y-101917500D01*
X245450185Y-101917500D01*
X245326886Y-101794201D01*
X245100043Y-101642629D01*
X244847989Y-101538225D01*
X244580411Y-101485000D01*
X244307589Y-101485000D01*
X244040011Y-101538225D01*
X243787957Y-101642629D01*
X243561114Y-101794201D01*
X243437815Y-101917500D01*
X237260047Y-101917500D01*
X237156898Y-101874774D01*
X236956939Y-101835000D01*
X236753061Y-101835000D01*
X236553102Y-101874774D01*
X236449953Y-101917500D01*
X230495259Y-101917500D01*
X230473405Y-101876614D01*
X230362962Y-101742038D01*
X230228386Y-101631595D01*
X230074850Y-101549528D01*
X229908254Y-101498992D01*
X229735000Y-101481928D01*
X228735000Y-101481928D01*
X228561746Y-101498992D01*
X228395150Y-101549528D01*
X228241614Y-101631595D01*
X228107038Y-101742038D01*
X227996595Y-101876614D01*
X227974741Y-101917500D01*
X227241185Y-101917500D01*
X227117886Y-101794201D01*
X226891043Y-101642629D01*
X226638989Y-101538225D01*
X226371411Y-101485000D01*
X226098589Y-101485000D01*
X225831011Y-101538225D01*
X225578957Y-101642629D01*
X225352114Y-101794201D01*
X225228815Y-101917500D01*
X224241185Y-101917500D01*
X224117886Y-101794201D01*
X223891043Y-101642629D01*
X223638989Y-101538225D01*
X223371411Y-101485000D01*
X223098589Y-101485000D01*
X222831011Y-101538225D01*
X222578957Y-101642629D01*
X222352114Y-101794201D01*
X222159201Y-101987114D01*
X222007629Y-102213957D01*
X221903225Y-102466011D01*
X221850000Y-102733589D01*
X210845000Y-102733589D01*
X210845000Y-96632665D01*
X221831000Y-96632665D01*
X221831000Y-96915335D01*
X221886147Y-97192574D01*
X221994320Y-97453727D01*
X222151363Y-97688759D01*
X222351241Y-97888637D01*
X222377000Y-97905849D01*
X222377001Y-98777572D01*
X222352114Y-98794201D01*
X222159201Y-98987114D01*
X222007629Y-99213957D01*
X221903225Y-99466011D01*
X221850000Y-99733589D01*
X221850000Y-100006411D01*
X221903225Y-100273989D01*
X222007629Y-100526043D01*
X222159201Y-100752886D01*
X222352114Y-100945799D01*
X222578957Y-101097371D01*
X222831011Y-101201775D01*
X223098589Y-101255000D01*
X223371411Y-101255000D01*
X223638989Y-101201775D01*
X223891043Y-101097371D01*
X224117886Y-100945799D01*
X224310799Y-100752886D01*
X224462371Y-100526043D01*
X224566775Y-100273989D01*
X224620000Y-100006411D01*
X224620000Y-99733589D01*
X224850000Y-99733589D01*
X224850000Y-100006411D01*
X224903225Y-100273989D01*
X225007629Y-100526043D01*
X225159201Y-100752886D01*
X225352114Y-100945799D01*
X225578957Y-101097371D01*
X225831011Y-101201775D01*
X226098589Y-101255000D01*
X226371411Y-101255000D01*
X226638989Y-101201775D01*
X226891043Y-101097371D01*
X227117886Y-100945799D01*
X227310799Y-100752886D01*
X227462371Y-100526043D01*
X227566775Y-100273989D01*
X227620000Y-100006411D01*
X227620000Y-99733589D01*
X227850000Y-99733589D01*
X227850000Y-100006411D01*
X227903225Y-100273989D01*
X228007629Y-100526043D01*
X228159201Y-100752886D01*
X228352114Y-100945799D01*
X228578957Y-101097371D01*
X228831011Y-101201775D01*
X229098589Y-101255000D01*
X229371411Y-101255000D01*
X229638989Y-101201775D01*
X229891043Y-101097371D01*
X230117886Y-100945799D01*
X230310799Y-100752886D01*
X230462371Y-100526043D01*
X230566775Y-100273989D01*
X230620000Y-100006411D01*
X230620000Y-99733589D01*
X230566775Y-99466011D01*
X230462371Y-99213957D01*
X230310799Y-98987114D01*
X230251000Y-98927315D01*
X230251000Y-97905849D01*
X230276759Y-97888637D01*
X230476637Y-97688759D01*
X230633680Y-97453727D01*
X230741853Y-97192574D01*
X230797000Y-96915335D01*
X230797000Y-96632665D01*
X243040000Y-96632665D01*
X243040000Y-96915335D01*
X243095147Y-97192574D01*
X243203320Y-97453727D01*
X243360363Y-97688759D01*
X243560241Y-97888637D01*
X243586000Y-97905849D01*
X243586001Y-98777572D01*
X243561114Y-98794201D01*
X243368201Y-98987114D01*
X243216629Y-99213957D01*
X243112225Y-99466011D01*
X243059000Y-99733589D01*
X243059000Y-100006411D01*
X243112225Y-100273989D01*
X243216629Y-100526043D01*
X243368201Y-100752886D01*
X243561114Y-100945799D01*
X243787957Y-101097371D01*
X244040011Y-101201775D01*
X244307589Y-101255000D01*
X244580411Y-101255000D01*
X244847989Y-101201775D01*
X245100043Y-101097371D01*
X245326886Y-100945799D01*
X245519799Y-100752886D01*
X245671371Y-100526043D01*
X245775775Y-100273989D01*
X245829000Y-100006411D01*
X245829000Y-99733589D01*
X246059000Y-99733589D01*
X246059000Y-100006411D01*
X246112225Y-100273989D01*
X246216629Y-100526043D01*
X246368201Y-100752886D01*
X246561114Y-100945799D01*
X246787957Y-101097371D01*
X247040011Y-101201775D01*
X247307589Y-101255000D01*
X247580411Y-101255000D01*
X247847989Y-101201775D01*
X248100043Y-101097371D01*
X248326886Y-100945799D01*
X248519799Y-100752886D01*
X248671371Y-100526043D01*
X248775775Y-100273989D01*
X248829000Y-100006411D01*
X248829000Y-99733589D01*
X249059000Y-99733589D01*
X249059000Y-100006411D01*
X249112225Y-100273989D01*
X249216629Y-100526043D01*
X249368201Y-100752886D01*
X249561114Y-100945799D01*
X249787957Y-101097371D01*
X250040011Y-101201775D01*
X250307589Y-101255000D01*
X250580411Y-101255000D01*
X250847989Y-101201775D01*
X251100043Y-101097371D01*
X251326886Y-100945799D01*
X251519799Y-100752886D01*
X251671371Y-100526043D01*
X251775775Y-100273989D01*
X251829000Y-100006411D01*
X251829000Y-99733589D01*
X251775775Y-99466011D01*
X251671371Y-99213957D01*
X251519799Y-98987114D01*
X251460000Y-98927315D01*
X251460000Y-97905849D01*
X251485759Y-97888637D01*
X251685637Y-97688759D01*
X251842680Y-97453727D01*
X251950853Y-97192574D01*
X252006000Y-96915335D01*
X252006000Y-96632665D01*
X251950853Y-96355426D01*
X251842680Y-96094273D01*
X251685637Y-95859241D01*
X251485759Y-95659363D01*
X251250727Y-95502320D01*
X250989574Y-95394147D01*
X250712335Y-95339000D01*
X250429665Y-95339000D01*
X250152426Y-95394147D01*
X249891273Y-95502320D01*
X249656241Y-95659363D01*
X249456363Y-95859241D01*
X249299320Y-96094273D01*
X249191147Y-96355426D01*
X249136000Y-96632665D01*
X249136000Y-96915335D01*
X249191147Y-97192574D01*
X249299320Y-97453727D01*
X249456363Y-97688759D01*
X249656241Y-97888637D01*
X249682000Y-97905849D01*
X249682001Y-98713427D01*
X249561114Y-98794201D01*
X249368201Y-98987114D01*
X249216629Y-99213957D01*
X249112225Y-99466011D01*
X249059000Y-99733589D01*
X248829000Y-99733589D01*
X248775775Y-99466011D01*
X248671371Y-99213957D01*
X248519799Y-98987114D01*
X248412000Y-98879315D01*
X248412000Y-97905849D01*
X248437759Y-97888637D01*
X248637637Y-97688759D01*
X248794680Y-97453727D01*
X248902853Y-97192574D01*
X248958000Y-96915335D01*
X248958000Y-96632665D01*
X248902853Y-96355426D01*
X248794680Y-96094273D01*
X248637637Y-95859241D01*
X248437759Y-95659363D01*
X248202727Y-95502320D01*
X247941574Y-95394147D01*
X247664335Y-95339000D01*
X247381665Y-95339000D01*
X247104426Y-95394147D01*
X246843273Y-95502320D01*
X246608241Y-95659363D01*
X246408363Y-95859241D01*
X246251320Y-96094273D01*
X246143147Y-96355426D01*
X246088000Y-96632665D01*
X246088000Y-96915335D01*
X246143147Y-97192574D01*
X246251320Y-97453727D01*
X246408363Y-97688759D01*
X246608241Y-97888637D01*
X246634000Y-97905849D01*
X246634001Y-98745500D01*
X246561114Y-98794201D01*
X246368201Y-98987114D01*
X246216629Y-99213957D01*
X246112225Y-99466011D01*
X246059000Y-99733589D01*
X245829000Y-99733589D01*
X245775775Y-99466011D01*
X245671371Y-99213957D01*
X245519799Y-98987114D01*
X245364000Y-98831315D01*
X245364000Y-97905849D01*
X245389759Y-97888637D01*
X245589637Y-97688759D01*
X245746680Y-97453727D01*
X245854853Y-97192574D01*
X245910000Y-96915335D01*
X245910000Y-96632665D01*
X245854853Y-96355426D01*
X245746680Y-96094273D01*
X245589637Y-95859241D01*
X245389759Y-95659363D01*
X245154727Y-95502320D01*
X244893574Y-95394147D01*
X244616335Y-95339000D01*
X244333665Y-95339000D01*
X244056426Y-95394147D01*
X243795273Y-95502320D01*
X243560241Y-95659363D01*
X243360363Y-95859241D01*
X243203320Y-96094273D01*
X243095147Y-96355426D01*
X243040000Y-96632665D01*
X230797000Y-96632665D01*
X230741853Y-96355426D01*
X230633680Y-96094273D01*
X230476637Y-95859241D01*
X230276759Y-95659363D01*
X230041727Y-95502320D01*
X229780574Y-95394147D01*
X229503335Y-95339000D01*
X229220665Y-95339000D01*
X228943426Y-95394147D01*
X228682273Y-95502320D01*
X228447241Y-95659363D01*
X228247363Y-95859241D01*
X228090320Y-96094273D01*
X227982147Y-96355426D01*
X227927000Y-96632665D01*
X227927000Y-96915335D01*
X227982147Y-97192574D01*
X228090320Y-97453727D01*
X228247363Y-97688759D01*
X228447241Y-97888637D01*
X228473000Y-97905849D01*
X228473001Y-98713427D01*
X228352114Y-98794201D01*
X228159201Y-98987114D01*
X228007629Y-99213957D01*
X227903225Y-99466011D01*
X227850000Y-99733589D01*
X227620000Y-99733589D01*
X227566775Y-99466011D01*
X227462371Y-99213957D01*
X227310799Y-98987114D01*
X227203000Y-98879315D01*
X227203000Y-97905849D01*
X227228759Y-97888637D01*
X227428637Y-97688759D01*
X227585680Y-97453727D01*
X227693853Y-97192574D01*
X227749000Y-96915335D01*
X227749000Y-96632665D01*
X227693853Y-96355426D01*
X227585680Y-96094273D01*
X227428637Y-95859241D01*
X227228759Y-95659363D01*
X226993727Y-95502320D01*
X226732574Y-95394147D01*
X226455335Y-95339000D01*
X226172665Y-95339000D01*
X225895426Y-95394147D01*
X225634273Y-95502320D01*
X225399241Y-95659363D01*
X225199363Y-95859241D01*
X225042320Y-96094273D01*
X224934147Y-96355426D01*
X224879000Y-96632665D01*
X224879000Y-96915335D01*
X224934147Y-97192574D01*
X225042320Y-97453727D01*
X225199363Y-97688759D01*
X225399241Y-97888637D01*
X225425000Y-97905849D01*
X225425001Y-98745500D01*
X225352114Y-98794201D01*
X225159201Y-98987114D01*
X225007629Y-99213957D01*
X224903225Y-99466011D01*
X224850000Y-99733589D01*
X224620000Y-99733589D01*
X224566775Y-99466011D01*
X224462371Y-99213957D01*
X224310799Y-98987114D01*
X224155000Y-98831315D01*
X224155000Y-97905849D01*
X224180759Y-97888637D01*
X224380637Y-97688759D01*
X224537680Y-97453727D01*
X224645853Y-97192574D01*
X224701000Y-96915335D01*
X224701000Y-96632665D01*
X224645853Y-96355426D01*
X224537680Y-96094273D01*
X224380637Y-95859241D01*
X224180759Y-95659363D01*
X223945727Y-95502320D01*
X223684574Y-95394147D01*
X223407335Y-95339000D01*
X223124665Y-95339000D01*
X222847426Y-95394147D01*
X222586273Y-95502320D01*
X222351241Y-95659363D01*
X222151363Y-95859241D01*
X221994320Y-96094273D01*
X221886147Y-96355426D01*
X221831000Y-96632665D01*
X210845000Y-96632665D01*
X210845000Y-79795000D01*
X211236928Y-79795000D01*
X211236928Y-81495000D01*
X211249188Y-81619482D01*
X211285498Y-81739180D01*
X211344463Y-81849494D01*
X211423815Y-81946185D01*
X211520506Y-82025537D01*
X211630820Y-82084502D01*
X211703380Y-82106513D01*
X211571525Y-82238368D01*
X211409010Y-82481589D01*
X211297068Y-82751842D01*
X211240000Y-83038740D01*
X211240000Y-83331260D01*
X211297068Y-83618158D01*
X211409010Y-83888411D01*
X211571525Y-84131632D01*
X211778368Y-84338475D01*
X211952760Y-84455000D01*
X211778368Y-84571525D01*
X211571525Y-84778368D01*
X211409010Y-85021589D01*
X211297068Y-85291842D01*
X211240000Y-85578740D01*
X211240000Y-85871260D01*
X211297068Y-86158158D01*
X211409010Y-86428411D01*
X211571525Y-86671632D01*
X211778368Y-86878475D01*
X211952760Y-86995000D01*
X211778368Y-87111525D01*
X211571525Y-87318368D01*
X211409010Y-87561589D01*
X211297068Y-87831842D01*
X211240000Y-88118740D01*
X211240000Y-88411260D01*
X211297068Y-88698158D01*
X211409010Y-88968411D01*
X211571525Y-89211632D01*
X211778368Y-89418475D01*
X211952760Y-89535000D01*
X211778368Y-89651525D01*
X211571525Y-89858368D01*
X211409010Y-90101589D01*
X211297068Y-90371842D01*
X211240000Y-90658740D01*
X211240000Y-90951260D01*
X211297068Y-91238158D01*
X211409010Y-91508411D01*
X211571525Y-91751632D01*
X211778368Y-91958475D01*
X211952760Y-92075000D01*
X211778368Y-92191525D01*
X211571525Y-92398368D01*
X211409010Y-92641589D01*
X211297068Y-92911842D01*
X211240000Y-93198740D01*
X211240000Y-93491260D01*
X211297068Y-93778158D01*
X211409010Y-94048411D01*
X211571525Y-94291632D01*
X211778368Y-94498475D01*
X212021589Y-94660990D01*
X212291842Y-94772932D01*
X212578740Y-94830000D01*
X212871260Y-94830000D01*
X213158158Y-94772932D01*
X213428411Y-94660990D01*
X213671632Y-94498475D01*
X213878475Y-94291632D01*
X213916983Y-94234000D01*
X234779340Y-94234000D01*
X234823000Y-94238300D01*
X234866660Y-94234000D01*
X234866667Y-94234000D01*
X234997274Y-94221136D01*
X235164851Y-94170303D01*
X235319291Y-94087753D01*
X235454659Y-93976659D01*
X235482499Y-93942736D01*
X240412570Y-89012665D01*
X243040000Y-89012665D01*
X243040000Y-89295335D01*
X243095147Y-89572574D01*
X243203320Y-89833727D01*
X243360363Y-90068759D01*
X243560241Y-90268637D01*
X243795273Y-90425680D01*
X244056426Y-90533853D01*
X244333665Y-90589000D01*
X244616335Y-90589000D01*
X244893574Y-90533853D01*
X245154727Y-90425680D01*
X245389759Y-90268637D01*
X245589637Y-90068759D01*
X245746680Y-89833727D01*
X245854853Y-89572574D01*
X245910000Y-89295335D01*
X245910000Y-89012665D01*
X246088000Y-89012665D01*
X246088000Y-89295335D01*
X246143147Y-89572574D01*
X246251320Y-89833727D01*
X246408363Y-90068759D01*
X246608241Y-90268637D01*
X246843273Y-90425680D01*
X247104426Y-90533853D01*
X247381665Y-90589000D01*
X247664335Y-90589000D01*
X247941574Y-90533853D01*
X248202727Y-90425680D01*
X248437759Y-90268637D01*
X248637637Y-90068759D01*
X248794680Y-89833727D01*
X248902853Y-89572574D01*
X248958000Y-89295335D01*
X248958000Y-89012665D01*
X249136000Y-89012665D01*
X249136000Y-89295335D01*
X249191147Y-89572574D01*
X249299320Y-89833727D01*
X249456363Y-90068759D01*
X249656241Y-90268637D01*
X249891273Y-90425680D01*
X250152426Y-90533853D01*
X250429665Y-90589000D01*
X250712335Y-90589000D01*
X250989574Y-90533853D01*
X251250727Y-90425680D01*
X251485759Y-90268637D01*
X251685637Y-90068759D01*
X251842680Y-89833727D01*
X251950853Y-89572574D01*
X252006000Y-89295335D01*
X252006000Y-89012665D01*
X251950853Y-88735426D01*
X251842680Y-88474273D01*
X251685637Y-88239241D01*
X251485759Y-88039363D01*
X251250727Y-87882320D01*
X250989574Y-87774147D01*
X250712335Y-87719000D01*
X250429665Y-87719000D01*
X250152426Y-87774147D01*
X249891273Y-87882320D01*
X249656241Y-88039363D01*
X249456363Y-88239241D01*
X249299320Y-88474273D01*
X249191147Y-88735426D01*
X249136000Y-89012665D01*
X248958000Y-89012665D01*
X248902853Y-88735426D01*
X248794680Y-88474273D01*
X248637637Y-88239241D01*
X248437759Y-88039363D01*
X248202727Y-87882320D01*
X247941574Y-87774147D01*
X247664335Y-87719000D01*
X247381665Y-87719000D01*
X247104426Y-87774147D01*
X246843273Y-87882320D01*
X246608241Y-88039363D01*
X246408363Y-88239241D01*
X246251320Y-88474273D01*
X246143147Y-88735426D01*
X246088000Y-89012665D01*
X245910000Y-89012665D01*
X245854853Y-88735426D01*
X245746680Y-88474273D01*
X245589637Y-88239241D01*
X245389759Y-88039363D01*
X245154727Y-87882320D01*
X244893574Y-87774147D01*
X244616335Y-87719000D01*
X244333665Y-87719000D01*
X244056426Y-87774147D01*
X243795273Y-87882320D01*
X243560241Y-88039363D01*
X243360363Y-88239241D01*
X243203320Y-88474273D01*
X243095147Y-88735426D01*
X243040000Y-89012665D01*
X240412570Y-89012665D01*
X253022106Y-76403130D01*
X253071898Y-76393226D01*
X253260256Y-76315205D01*
X253429774Y-76201937D01*
X253573937Y-76057774D01*
X253687205Y-75888256D01*
X253765226Y-75699898D01*
X253805000Y-75499939D01*
X253805000Y-75296061D01*
X253765226Y-75096102D01*
X253687205Y-74907744D01*
X253659000Y-74865532D01*
X253659000Y-71616849D01*
X253684759Y-71599637D01*
X253851339Y-71433057D01*
X253880498Y-71529180D01*
X253939463Y-71639494D01*
X254018815Y-71736185D01*
X254115506Y-71815537D01*
X254225820Y-71874502D01*
X254345518Y-71910812D01*
X254470000Y-71923072D01*
X256070000Y-71923072D01*
X256194482Y-71910812D01*
X256314180Y-71874502D01*
X256424494Y-71815537D01*
X256521185Y-71736185D01*
X256600537Y-71639494D01*
X256659502Y-71529180D01*
X256695812Y-71409482D01*
X256708072Y-71285000D01*
X256708072Y-69685000D01*
X256695812Y-69560518D01*
X256659502Y-69440820D01*
X256600537Y-69330506D01*
X256521185Y-69233815D01*
X256424494Y-69154463D01*
X256314180Y-69095498D01*
X256194482Y-69059188D01*
X256070000Y-69046928D01*
X254470000Y-69046928D01*
X254345518Y-69059188D01*
X254225820Y-69095498D01*
X254115506Y-69154463D01*
X254018815Y-69233815D01*
X253939463Y-69330506D01*
X253880498Y-69440820D01*
X253851339Y-69536943D01*
X253684759Y-69370363D01*
X253449727Y-69213320D01*
X253188574Y-69105147D01*
X252911335Y-69050000D01*
X252628665Y-69050000D01*
X252351426Y-69105147D01*
X252090273Y-69213320D01*
X251855241Y-69370363D01*
X251655363Y-69570241D01*
X251498320Y-69805273D01*
X251390147Y-70066426D01*
X251335000Y-70343665D01*
X251335000Y-70626335D01*
X251390147Y-70903574D01*
X251498320Y-71164727D01*
X251655363Y-71399759D01*
X251855241Y-71599637D01*
X251881001Y-71616849D01*
X251881000Y-74865532D01*
X251852795Y-74907744D01*
X251774774Y-75096102D01*
X251764870Y-75145894D01*
X240330291Y-86580473D01*
X240336630Y-86548605D01*
X247652743Y-79232493D01*
X247686659Y-79204659D01*
X247797753Y-79069291D01*
X247880303Y-78914851D01*
X247918254Y-78789741D01*
X247931136Y-78747276D01*
X247936945Y-78688291D01*
X247944000Y-78616667D01*
X247944000Y-78616661D01*
X247948300Y-78573001D01*
X247944000Y-78529341D01*
X247944000Y-71616849D01*
X247969759Y-71599637D01*
X248136339Y-71433057D01*
X248165498Y-71529180D01*
X248224463Y-71639494D01*
X248303815Y-71736185D01*
X248400506Y-71815537D01*
X248510820Y-71874502D01*
X248630518Y-71910812D01*
X248755000Y-71923072D01*
X250355000Y-71923072D01*
X250479482Y-71910812D01*
X250599180Y-71874502D01*
X250709494Y-71815537D01*
X250806185Y-71736185D01*
X250885537Y-71639494D01*
X250944502Y-71529180D01*
X250980812Y-71409482D01*
X250993072Y-71285000D01*
X250993072Y-69685000D01*
X250980812Y-69560518D01*
X250944502Y-69440820D01*
X250885537Y-69330506D01*
X250806185Y-69233815D01*
X250709494Y-69154463D01*
X250599180Y-69095498D01*
X250479482Y-69059188D01*
X250355000Y-69046928D01*
X248755000Y-69046928D01*
X248630518Y-69059188D01*
X248510820Y-69095498D01*
X248400506Y-69154463D01*
X248303815Y-69233815D01*
X248224463Y-69330506D01*
X248165498Y-69440820D01*
X248136339Y-69536943D01*
X247969759Y-69370363D01*
X247734727Y-69213320D01*
X247473574Y-69105147D01*
X247196335Y-69050000D01*
X246913665Y-69050000D01*
X246636426Y-69105147D01*
X246375273Y-69213320D01*
X246140241Y-69370363D01*
X245940363Y-69570241D01*
X245783320Y-69805273D01*
X245675147Y-70066426D01*
X245620000Y-70343665D01*
X245620000Y-70626335D01*
X245675147Y-70903574D01*
X245783320Y-71164727D01*
X245940363Y-71399759D01*
X246140241Y-71599637D01*
X246166001Y-71616849D01*
X246166000Y-78204764D01*
X239079395Y-85291370D01*
X239029602Y-85301274D01*
X238841244Y-85379295D01*
X238671726Y-85492563D01*
X238527563Y-85636726D01*
X238414295Y-85806244D01*
X238336274Y-85994602D01*
X238326370Y-86044394D01*
X234454765Y-89916000D01*
X230578707Y-89916000D01*
X230633680Y-89833727D01*
X230741853Y-89572574D01*
X230797000Y-89295335D01*
X230797000Y-89012665D01*
X230741853Y-88735426D01*
X230633680Y-88474273D01*
X230476637Y-88239241D01*
X230276759Y-88039363D01*
X230041727Y-87882320D01*
X229780574Y-87774147D01*
X229503335Y-87719000D01*
X229220665Y-87719000D01*
X228943426Y-87774147D01*
X228682273Y-87882320D01*
X228447241Y-88039363D01*
X228247363Y-88239241D01*
X228090320Y-88474273D01*
X227982147Y-88735426D01*
X227927000Y-89012665D01*
X227927000Y-89295335D01*
X227982147Y-89572574D01*
X228090320Y-89833727D01*
X228145293Y-89916000D01*
X227530707Y-89916000D01*
X227585680Y-89833727D01*
X227693853Y-89572574D01*
X227749000Y-89295335D01*
X227749000Y-89012665D01*
X227693853Y-88735426D01*
X227585680Y-88474273D01*
X227428637Y-88239241D01*
X227228759Y-88039363D01*
X226993727Y-87882320D01*
X226732574Y-87774147D01*
X226455335Y-87719000D01*
X226172665Y-87719000D01*
X225895426Y-87774147D01*
X225634273Y-87882320D01*
X225399241Y-88039363D01*
X225199363Y-88239241D01*
X225042320Y-88474273D01*
X224934147Y-88735426D01*
X224879000Y-89012665D01*
X224879000Y-89295335D01*
X224934147Y-89572574D01*
X225042320Y-89833727D01*
X225097293Y-89916000D01*
X224482707Y-89916000D01*
X224537680Y-89833727D01*
X224645853Y-89572574D01*
X224701000Y-89295335D01*
X224701000Y-89012665D01*
X224645853Y-88735426D01*
X224537680Y-88474273D01*
X224423276Y-88303055D01*
X224544273Y-88291137D01*
X224711850Y-88240304D01*
X224866290Y-88157754D01*
X225001658Y-88046660D01*
X225029498Y-88012737D01*
X232027106Y-81015130D01*
X232076898Y-81005226D01*
X232265256Y-80927205D01*
X232434774Y-80813937D01*
X232578937Y-80669774D01*
X232692205Y-80500256D01*
X232770226Y-80311898D01*
X232780130Y-80262105D01*
X241128280Y-71913956D01*
X241158665Y-71920000D01*
X241441335Y-71920000D01*
X241718574Y-71864853D01*
X241979727Y-71756680D01*
X242214759Y-71599637D01*
X242381339Y-71433057D01*
X242410498Y-71529180D01*
X242469463Y-71639494D01*
X242548815Y-71736185D01*
X242645506Y-71815537D01*
X242755820Y-71874502D01*
X242875518Y-71910812D01*
X243000000Y-71923072D01*
X244600000Y-71923072D01*
X244724482Y-71910812D01*
X244844180Y-71874502D01*
X244954494Y-71815537D01*
X245051185Y-71736185D01*
X245130537Y-71639494D01*
X245189502Y-71529180D01*
X245225812Y-71409482D01*
X245238072Y-71285000D01*
X245238072Y-69685000D01*
X245225812Y-69560518D01*
X245189502Y-69440820D01*
X245130537Y-69330506D01*
X245051185Y-69233815D01*
X244954494Y-69154463D01*
X244844180Y-69095498D01*
X244724482Y-69059188D01*
X244600000Y-69046928D01*
X243000000Y-69046928D01*
X242875518Y-69059188D01*
X242755820Y-69095498D01*
X242645506Y-69154463D01*
X242548815Y-69233815D01*
X242469463Y-69330506D01*
X242410498Y-69440820D01*
X242381339Y-69536943D01*
X242214759Y-69370363D01*
X241979727Y-69213320D01*
X241718574Y-69105147D01*
X241441335Y-69050000D01*
X241158665Y-69050000D01*
X240881426Y-69105147D01*
X240620273Y-69213320D01*
X240385241Y-69370363D01*
X240185363Y-69570241D01*
X240028320Y-69805273D01*
X239920147Y-70066426D01*
X239865000Y-70343665D01*
X239865000Y-70626335D01*
X239871044Y-70656720D01*
X231522895Y-79004870D01*
X231473102Y-79014774D01*
X231284744Y-79092795D01*
X231115226Y-79206063D01*
X230971063Y-79350226D01*
X230857795Y-79519744D01*
X230799000Y-79661687D01*
X230799000Y-71616849D01*
X230824759Y-71599637D01*
X230991339Y-71433057D01*
X231020498Y-71529180D01*
X231079463Y-71639494D01*
X231158815Y-71736185D01*
X231255506Y-71815537D01*
X231365820Y-71874502D01*
X231485518Y-71910812D01*
X231610000Y-71923072D01*
X233210000Y-71923072D01*
X233334482Y-71910812D01*
X233454180Y-71874502D01*
X233564494Y-71815537D01*
X233661185Y-71736185D01*
X233740537Y-71639494D01*
X233799502Y-71529180D01*
X233835812Y-71409482D01*
X233848072Y-71285000D01*
X233848072Y-69685000D01*
X233835812Y-69560518D01*
X233799502Y-69440820D01*
X233740537Y-69330506D01*
X233661185Y-69233815D01*
X233564494Y-69154463D01*
X233454180Y-69095498D01*
X233334482Y-69059188D01*
X233210000Y-69046928D01*
X231610000Y-69046928D01*
X231485518Y-69059188D01*
X231365820Y-69095498D01*
X231255506Y-69154463D01*
X231158815Y-69233815D01*
X231079463Y-69330506D01*
X231020498Y-69440820D01*
X230991339Y-69536943D01*
X230824759Y-69370363D01*
X230589727Y-69213320D01*
X230328574Y-69105147D01*
X230051335Y-69050000D01*
X229768665Y-69050000D01*
X229491426Y-69105147D01*
X229230273Y-69213320D01*
X228995241Y-69370363D01*
X228795363Y-69570241D01*
X228638320Y-69805273D01*
X228530147Y-70066426D01*
X228475000Y-70343665D01*
X228475000Y-70626335D01*
X228530147Y-70903574D01*
X228638320Y-71164727D01*
X228795363Y-71399759D01*
X228995241Y-71599637D01*
X229021001Y-71616849D01*
X229021000Y-79601764D01*
X223659765Y-84963000D01*
X221385468Y-84963000D01*
X221343256Y-84934795D01*
X221154898Y-84856774D01*
X220954939Y-84817000D01*
X220751061Y-84817000D01*
X220551102Y-84856774D01*
X220362744Y-84934795D01*
X220320532Y-84963000D01*
X214387363Y-84963000D01*
X214268932Y-84899697D01*
X214101355Y-84848864D01*
X213970748Y-84836000D01*
X213970741Y-84836000D01*
X213927081Y-84831700D01*
X213914911Y-84832899D01*
X213878475Y-84778368D01*
X213671632Y-84571525D01*
X213497240Y-84455000D01*
X213671632Y-84338475D01*
X213878475Y-84131632D01*
X213916983Y-84074000D01*
X217907532Y-84074000D01*
X217949744Y-84102205D01*
X218138102Y-84180226D01*
X218338061Y-84220000D01*
X218541939Y-84220000D01*
X218741898Y-84180226D01*
X218930256Y-84102205D01*
X218972468Y-84074000D01*
X223095340Y-84074000D01*
X223139000Y-84078300D01*
X223182660Y-84074000D01*
X223182667Y-84074000D01*
X223313274Y-84061136D01*
X223480851Y-84010303D01*
X223635291Y-83927753D01*
X223770659Y-83816659D01*
X223798499Y-83782736D01*
X224792743Y-82788493D01*
X224826659Y-82760659D01*
X224937753Y-82625291D01*
X225020303Y-82470851D01*
X225055716Y-82354108D01*
X225071136Y-82303275D01*
X225088301Y-82129000D01*
X225084000Y-82085332D01*
X225084000Y-71616849D01*
X225109759Y-71599637D01*
X225276339Y-71433057D01*
X225305498Y-71529180D01*
X225364463Y-71639494D01*
X225443815Y-71736185D01*
X225540506Y-71815537D01*
X225650820Y-71874502D01*
X225770518Y-71910812D01*
X225895000Y-71923072D01*
X227495000Y-71923072D01*
X227619482Y-71910812D01*
X227739180Y-71874502D01*
X227849494Y-71815537D01*
X227946185Y-71736185D01*
X228025537Y-71639494D01*
X228084502Y-71529180D01*
X228120812Y-71409482D01*
X228133072Y-71285000D01*
X228133072Y-69685000D01*
X228120812Y-69560518D01*
X228084502Y-69440820D01*
X228025537Y-69330506D01*
X227946185Y-69233815D01*
X227849494Y-69154463D01*
X227739180Y-69095498D01*
X227619482Y-69059188D01*
X227495000Y-69046928D01*
X225895000Y-69046928D01*
X225770518Y-69059188D01*
X225650820Y-69095498D01*
X225540506Y-69154463D01*
X225443815Y-69233815D01*
X225364463Y-69330506D01*
X225305498Y-69440820D01*
X225276339Y-69536943D01*
X225109759Y-69370363D01*
X224874727Y-69213320D01*
X224613574Y-69105147D01*
X224336335Y-69050000D01*
X224053665Y-69050000D01*
X223776426Y-69105147D01*
X223515273Y-69213320D01*
X223280241Y-69370363D01*
X223080363Y-69570241D01*
X222923320Y-69805273D01*
X222815147Y-70066426D01*
X222760000Y-70343665D01*
X222760000Y-70626335D01*
X222815147Y-70903574D01*
X222923320Y-71164727D01*
X223080363Y-71399759D01*
X223280241Y-71599637D01*
X223306001Y-71616849D01*
X223306000Y-81760764D01*
X222770765Y-82296000D01*
X218972468Y-82296000D01*
X218930256Y-82267795D01*
X218741898Y-82189774D01*
X218541939Y-82150000D01*
X218338061Y-82150000D01*
X218138102Y-82189774D01*
X217949744Y-82267795D01*
X217907532Y-82296000D01*
X213916983Y-82296000D01*
X213878475Y-82238368D01*
X213746620Y-82106513D01*
X213819180Y-82084502D01*
X213929494Y-82025537D01*
X214026185Y-81946185D01*
X214105537Y-81849494D01*
X214164502Y-81739180D01*
X214200812Y-81619482D01*
X214209231Y-81534000D01*
X215367532Y-81534000D01*
X215409744Y-81562205D01*
X215598102Y-81640226D01*
X215798061Y-81680000D01*
X216001939Y-81680000D01*
X216201898Y-81640226D01*
X216390256Y-81562205D01*
X216559774Y-81448937D01*
X216703937Y-81304774D01*
X216817205Y-81135256D01*
X216833628Y-81095607D01*
X219077743Y-78851493D01*
X219111659Y-78823659D01*
X219222753Y-78688291D01*
X219305303Y-78533851D01*
X219356136Y-78366274D01*
X219369000Y-78235667D01*
X219369000Y-78235660D01*
X219373300Y-78192000D01*
X219369000Y-78148340D01*
X219369000Y-71616849D01*
X219394759Y-71599637D01*
X219561339Y-71433057D01*
X219590498Y-71529180D01*
X219649463Y-71639494D01*
X219728815Y-71736185D01*
X219825506Y-71815537D01*
X219935820Y-71874502D01*
X220055518Y-71910812D01*
X220180000Y-71923072D01*
X221780000Y-71923072D01*
X221904482Y-71910812D01*
X222024180Y-71874502D01*
X222134494Y-71815537D01*
X222231185Y-71736185D01*
X222310537Y-71639494D01*
X222369502Y-71529180D01*
X222405812Y-71409482D01*
X222418072Y-71285000D01*
X222418072Y-69685000D01*
X222405812Y-69560518D01*
X222369502Y-69440820D01*
X222310537Y-69330506D01*
X222231185Y-69233815D01*
X222134494Y-69154463D01*
X222024180Y-69095498D01*
X221904482Y-69059188D01*
X221780000Y-69046928D01*
X220180000Y-69046928D01*
X220055518Y-69059188D01*
X219935820Y-69095498D01*
X219825506Y-69154463D01*
X219728815Y-69233815D01*
X219649463Y-69330506D01*
X219590498Y-69440820D01*
X219561339Y-69536943D01*
X219394759Y-69370363D01*
X219159727Y-69213320D01*
X218898574Y-69105147D01*
X218621335Y-69050000D01*
X218338665Y-69050000D01*
X218061426Y-69105147D01*
X217800273Y-69213320D01*
X217565241Y-69370363D01*
X217365363Y-69570241D01*
X217208320Y-69805273D01*
X217100147Y-70066426D01*
X217045000Y-70343665D01*
X217045000Y-70626335D01*
X217100147Y-70903574D01*
X217208320Y-71164727D01*
X217365363Y-71399759D01*
X217565241Y-71599637D01*
X217591001Y-71616849D01*
X217591000Y-77823764D01*
X215804765Y-79610000D01*
X215798061Y-79610000D01*
X215598102Y-79649774D01*
X215409744Y-79727795D01*
X215367532Y-79756000D01*
X214209231Y-79756000D01*
X214200812Y-79670518D01*
X214164502Y-79550820D01*
X214105537Y-79440506D01*
X214026185Y-79343815D01*
X213929494Y-79264463D01*
X213819180Y-79205498D01*
X213699482Y-79169188D01*
X213575000Y-79156928D01*
X211875000Y-79156928D01*
X211750518Y-79169188D01*
X211630820Y-79205498D01*
X211520506Y-79264463D01*
X211423815Y-79343815D01*
X211344463Y-79440506D01*
X211285498Y-79550820D01*
X211249188Y-79670518D01*
X211236928Y-79795000D01*
X210845000Y-79795000D01*
X210845000Y-56935000D01*
X211236928Y-56935000D01*
X211236928Y-58635000D01*
X211249188Y-58759482D01*
X211285498Y-58879180D01*
X211344463Y-58989494D01*
X211423815Y-59086185D01*
X211520506Y-59165537D01*
X211630820Y-59224502D01*
X211703380Y-59246513D01*
X211571525Y-59378368D01*
X211409010Y-59621589D01*
X211297068Y-59891842D01*
X211240000Y-60178740D01*
X211240000Y-60471260D01*
X211297068Y-60758158D01*
X211409010Y-61028411D01*
X211571525Y-61271632D01*
X211778368Y-61478475D01*
X211952760Y-61595000D01*
X211778368Y-61711525D01*
X211571525Y-61918368D01*
X211409010Y-62161589D01*
X211297068Y-62431842D01*
X211240000Y-62718740D01*
X211240000Y-63011260D01*
X211297068Y-63298158D01*
X211409010Y-63568411D01*
X211571525Y-63811632D01*
X211778368Y-64018475D01*
X211952760Y-64135000D01*
X211778368Y-64251525D01*
X211571525Y-64458368D01*
X211409010Y-64701589D01*
X211297068Y-64971842D01*
X211240000Y-65258740D01*
X211240000Y-65551260D01*
X211297068Y-65838158D01*
X211409010Y-66108411D01*
X211571525Y-66351632D01*
X211778368Y-66558475D01*
X211952760Y-66675000D01*
X211778368Y-66791525D01*
X211571525Y-66998368D01*
X211409010Y-67241589D01*
X211297068Y-67511842D01*
X211240000Y-67798740D01*
X211240000Y-68091260D01*
X211297068Y-68378158D01*
X211409010Y-68648411D01*
X211571525Y-68891632D01*
X211778368Y-69098475D01*
X211952760Y-69215000D01*
X211778368Y-69331525D01*
X211571525Y-69538368D01*
X211409010Y-69781589D01*
X211297068Y-70051842D01*
X211240000Y-70338740D01*
X211240000Y-70631260D01*
X211297068Y-70918158D01*
X211409010Y-71188411D01*
X211571525Y-71431632D01*
X211778368Y-71638475D01*
X211952760Y-71755000D01*
X211778368Y-71871525D01*
X211571525Y-72078368D01*
X211409010Y-72321589D01*
X211297068Y-72591842D01*
X211240000Y-72878740D01*
X211240000Y-73171260D01*
X211297068Y-73458158D01*
X211409010Y-73728411D01*
X211571525Y-73971632D01*
X211778368Y-74178475D01*
X211952760Y-74295000D01*
X211778368Y-74411525D01*
X211571525Y-74618368D01*
X211409010Y-74861589D01*
X211297068Y-75131842D01*
X211240000Y-75418740D01*
X211240000Y-75711260D01*
X211297068Y-75998158D01*
X211409010Y-76268411D01*
X211571525Y-76511632D01*
X211778368Y-76718475D01*
X212021589Y-76880990D01*
X212291842Y-76992932D01*
X212578740Y-77050000D01*
X212871260Y-77050000D01*
X213158158Y-76992932D01*
X213428411Y-76880990D01*
X213671632Y-76718475D01*
X213878475Y-76511632D01*
X214040990Y-76268411D01*
X214152932Y-75998158D01*
X214210000Y-75711260D01*
X214210000Y-75418740D01*
X214152932Y-75131842D01*
X214040990Y-74861589D01*
X213878475Y-74618368D01*
X213671632Y-74411525D01*
X213497240Y-74295000D01*
X213671632Y-74178475D01*
X213878475Y-73971632D01*
X214040990Y-73728411D01*
X214152932Y-73458158D01*
X214210000Y-73171260D01*
X214210000Y-72878740D01*
X214152932Y-72591842D01*
X214040990Y-72321589D01*
X213878475Y-72078368D01*
X213671632Y-71871525D01*
X213497240Y-71755000D01*
X213671632Y-71638475D01*
X213878475Y-71431632D01*
X214040990Y-71188411D01*
X214152932Y-70918158D01*
X214210000Y-70631260D01*
X214210000Y-70338740D01*
X214152932Y-70051842D01*
X214040990Y-69781589D01*
X213878475Y-69538368D01*
X213671632Y-69331525D01*
X213497240Y-69215000D01*
X213671632Y-69098475D01*
X213878475Y-68891632D01*
X214040990Y-68648411D01*
X214152932Y-68378158D01*
X214210000Y-68091260D01*
X214210000Y-67807038D01*
X214945038Y-67072000D01*
X235216928Y-67072000D01*
X235216928Y-69072000D01*
X235229188Y-69196482D01*
X235265498Y-69316180D01*
X235324463Y-69426494D01*
X235403815Y-69523185D01*
X235500506Y-69602537D01*
X235546630Y-69627191D01*
X235406082Y-69837537D01*
X235282832Y-70135088D01*
X235220000Y-70450967D01*
X235220000Y-70773033D01*
X235282832Y-71088912D01*
X235406082Y-71386463D01*
X235585013Y-71654252D01*
X235812748Y-71881987D01*
X236080537Y-72060918D01*
X236378088Y-72184168D01*
X236693967Y-72247000D01*
X237016033Y-72247000D01*
X237331912Y-72184168D01*
X237629463Y-72060918D01*
X237897252Y-71881987D01*
X238124987Y-71654252D01*
X238303918Y-71386463D01*
X238427168Y-71088912D01*
X238490000Y-70773033D01*
X238490000Y-70450967D01*
X238427168Y-70135088D01*
X238303918Y-69837537D01*
X238163370Y-69627191D01*
X238209494Y-69602537D01*
X238306185Y-69523185D01*
X238385537Y-69426494D01*
X238444502Y-69316180D01*
X238480812Y-69196482D01*
X238493072Y-69072000D01*
X238493072Y-67072000D01*
X238480812Y-66947518D01*
X238444502Y-66827820D01*
X238385537Y-66717506D01*
X238306185Y-66620815D01*
X238209494Y-66541463D01*
X238099180Y-66482498D01*
X237979482Y-66446188D01*
X237855000Y-66433928D01*
X235855000Y-66433928D01*
X235730518Y-66446188D01*
X235610820Y-66482498D01*
X235500506Y-66541463D01*
X235403815Y-66620815D01*
X235324463Y-66717506D01*
X235265498Y-66827820D01*
X235229188Y-66947518D01*
X235216928Y-67072000D01*
X214945038Y-67072000D01*
X217642373Y-64374665D01*
X223101000Y-64374665D01*
X223101000Y-64657335D01*
X223156147Y-64934574D01*
X223264320Y-65195727D01*
X223421363Y-65430759D01*
X223621241Y-65630637D01*
X223856273Y-65787680D01*
X224117426Y-65895853D01*
X224394665Y-65951000D01*
X224677335Y-65951000D01*
X224954574Y-65895853D01*
X225215727Y-65787680D01*
X225450759Y-65630637D01*
X225650637Y-65430759D01*
X225807680Y-65195727D01*
X225915853Y-64934574D01*
X225971000Y-64657335D01*
X225971000Y-64374665D01*
X230721000Y-64374665D01*
X230721000Y-64657335D01*
X230776147Y-64934574D01*
X230884320Y-65195727D01*
X231041363Y-65430759D01*
X231241241Y-65630637D01*
X231476273Y-65787680D01*
X231737426Y-65895853D01*
X232014665Y-65951000D01*
X232297335Y-65951000D01*
X232574574Y-65895853D01*
X232835727Y-65787680D01*
X233070759Y-65630637D01*
X233270637Y-65430759D01*
X233427680Y-65195727D01*
X233535853Y-64934574D01*
X233591000Y-64657335D01*
X233591000Y-64374665D01*
X233535853Y-64097426D01*
X233427680Y-63836273D01*
X233270637Y-63601241D01*
X233070759Y-63401363D01*
X232835727Y-63244320D01*
X232574574Y-63136147D01*
X232297335Y-63081000D01*
X232014665Y-63081000D01*
X231737426Y-63136147D01*
X231476273Y-63244320D01*
X231241241Y-63401363D01*
X231041363Y-63601241D01*
X230884320Y-63836273D01*
X230776147Y-64097426D01*
X230721000Y-64374665D01*
X225971000Y-64374665D01*
X225915853Y-64097426D01*
X225807680Y-63836273D01*
X225650637Y-63601241D01*
X225450759Y-63401363D01*
X225215727Y-63244320D01*
X224954574Y-63136147D01*
X224677335Y-63081000D01*
X224394665Y-63081000D01*
X224117426Y-63136147D01*
X223856273Y-63244320D01*
X223621241Y-63401363D01*
X223421363Y-63601241D01*
X223264320Y-63836273D01*
X223156147Y-64097426D01*
X223101000Y-64374665D01*
X217642373Y-64374665D01*
X221833373Y-60183665D01*
X241897000Y-60183665D01*
X241897000Y-60466335D01*
X241952147Y-60743574D01*
X242060320Y-61004727D01*
X242217363Y-61239759D01*
X242417241Y-61439637D01*
X242652273Y-61596680D01*
X242913426Y-61704853D01*
X243190665Y-61760000D01*
X243473335Y-61760000D01*
X243750574Y-61704853D01*
X244011727Y-61596680D01*
X244246759Y-61439637D01*
X244446637Y-61239759D01*
X244603680Y-61004727D01*
X244711853Y-60743574D01*
X244767000Y-60466335D01*
X244767000Y-60183665D01*
X244711853Y-59906426D01*
X244603680Y-59645273D01*
X244446637Y-59410241D01*
X244246759Y-59210363D01*
X244011727Y-59053320D01*
X243750574Y-58945147D01*
X243473335Y-58890000D01*
X243190665Y-58890000D01*
X242913426Y-58945147D01*
X242652273Y-59053320D01*
X242417241Y-59210363D01*
X242217363Y-59410241D01*
X242060320Y-59645273D01*
X241952147Y-59906426D01*
X241897000Y-60183665D01*
X221833373Y-60183665D01*
X224881373Y-57135665D01*
X241897000Y-57135665D01*
X241897000Y-57418335D01*
X241952147Y-57695574D01*
X242060320Y-57956727D01*
X242217363Y-58191759D01*
X242417241Y-58391637D01*
X242652273Y-58548680D01*
X242913426Y-58656853D01*
X243190665Y-58712000D01*
X243473335Y-58712000D01*
X243750574Y-58656853D01*
X244011727Y-58548680D01*
X244246759Y-58391637D01*
X244446637Y-58191759D01*
X244603680Y-57956727D01*
X244711853Y-57695574D01*
X244767000Y-57418335D01*
X244767000Y-57135665D01*
X244711853Y-56858426D01*
X244603680Y-56597273D01*
X244446637Y-56362241D01*
X244246759Y-56162363D01*
X244011727Y-56005320D01*
X243750574Y-55897147D01*
X243473335Y-55842000D01*
X243190665Y-55842000D01*
X242913426Y-55897147D01*
X242652273Y-56005320D01*
X242417241Y-56162363D01*
X242217363Y-56362241D01*
X242060320Y-56597273D01*
X241952147Y-56858426D01*
X241897000Y-57135665D01*
X224881373Y-57135665D01*
X230010539Y-52006500D01*
X254249393Y-52006500D01*
X254450368Y-52207475D01*
X254624760Y-52324000D01*
X254450368Y-52440525D01*
X254243525Y-52647368D01*
X254081010Y-52890589D01*
X253969068Y-53160842D01*
X253912000Y-53447740D01*
X253912000Y-53740260D01*
X253969068Y-54027158D01*
X254081010Y-54297411D01*
X254243525Y-54540632D01*
X254450368Y-54747475D01*
X254624760Y-54864000D01*
X254450368Y-54980525D01*
X254243525Y-55187368D01*
X254081010Y-55430589D01*
X253969068Y-55700842D01*
X253912000Y-55987740D01*
X253912000Y-56280260D01*
X253920800Y-56324500D01*
X252028896Y-56324500D01*
X251866759Y-56162363D01*
X251631727Y-56005320D01*
X251370574Y-55897147D01*
X251093335Y-55842000D01*
X250810665Y-55842000D01*
X250533426Y-55897147D01*
X250272273Y-56005320D01*
X250037241Y-56162363D01*
X249837363Y-56362241D01*
X249680320Y-56597273D01*
X249572147Y-56858426D01*
X249517000Y-57135665D01*
X249517000Y-57418335D01*
X249572147Y-57695574D01*
X249680320Y-57956727D01*
X249837363Y-58191759D01*
X250037241Y-58391637D01*
X250272273Y-58548680D01*
X250533426Y-58656853D01*
X250810665Y-58712000D01*
X251093335Y-58712000D01*
X251370574Y-58656853D01*
X251631727Y-58548680D01*
X251866759Y-58391637D01*
X252028896Y-58229500D01*
X253605462Y-58229500D01*
X253912000Y-58536038D01*
X253912000Y-58811962D01*
X253351462Y-59372500D01*
X252028896Y-59372500D01*
X251866759Y-59210363D01*
X251631727Y-59053320D01*
X251370574Y-58945147D01*
X251093335Y-58890000D01*
X250810665Y-58890000D01*
X250533426Y-58945147D01*
X250272273Y-59053320D01*
X250037241Y-59210363D01*
X249837363Y-59410241D01*
X249680320Y-59645273D01*
X249572147Y-59906426D01*
X249517000Y-60183665D01*
X249517000Y-60466335D01*
X249572147Y-60743574D01*
X249680320Y-61004727D01*
X249837363Y-61239759D01*
X250037241Y-61439637D01*
X250272273Y-61596680D01*
X250533426Y-61704853D01*
X250810665Y-61760000D01*
X251093335Y-61760000D01*
X251370574Y-61704853D01*
X251631727Y-61596680D01*
X251866759Y-61439637D01*
X252028896Y-61277500D01*
X253699215Y-61277500D01*
X253746000Y-61282108D01*
X253792785Y-61277500D01*
X253912000Y-61265758D01*
X253912000Y-61360260D01*
X253969068Y-61647158D01*
X254081010Y-61917411D01*
X254243525Y-62160632D01*
X254450368Y-62367475D01*
X254693589Y-62529990D01*
X254963842Y-62641932D01*
X255250740Y-62699000D01*
X255543260Y-62699000D01*
X255830158Y-62641932D01*
X256100411Y-62529990D01*
X256343632Y-62367475D01*
X256550475Y-62160632D01*
X256712990Y-61917411D01*
X256824932Y-61647158D01*
X256857500Y-61483428D01*
X256857501Y-85043205D01*
X256852892Y-85090000D01*
X256871283Y-85276722D01*
X256925749Y-85456269D01*
X256991211Y-85578740D01*
X257014195Y-85621741D01*
X257133223Y-85766778D01*
X257169564Y-85796602D01*
X259500000Y-88127039D01*
X259500000Y-88411260D01*
X259557068Y-88698158D01*
X259669010Y-88968411D01*
X259831525Y-89211632D01*
X260038368Y-89418475D01*
X260212760Y-89535000D01*
X260038368Y-89651525D01*
X259831525Y-89858368D01*
X259669010Y-90101589D01*
X259557068Y-90371842D01*
X259500000Y-90658740D01*
X259500000Y-90951260D01*
X259557068Y-91238158D01*
X259669010Y-91508411D01*
X259831525Y-91751632D01*
X260038368Y-91958475D01*
X260212760Y-92075000D01*
X260038368Y-92191525D01*
X259831525Y-92398368D01*
X259669010Y-92641589D01*
X259557068Y-92911842D01*
X259500000Y-93198740D01*
X259500000Y-93491260D01*
X259557068Y-93778158D01*
X259669010Y-94048411D01*
X259831525Y-94291632D01*
X260038368Y-94498475D01*
X260281589Y-94660990D01*
X260551842Y-94772932D01*
X260838740Y-94830000D01*
X261131260Y-94830000D01*
X261418158Y-94772932D01*
X261688411Y-94660990D01*
X261931632Y-94498475D01*
X262138475Y-94291632D01*
X262300990Y-94048411D01*
X262412932Y-93778158D01*
X262470000Y-93491260D01*
X262470000Y-93198740D01*
X262412932Y-92911842D01*
X262300990Y-92641589D01*
X262138475Y-92398368D01*
X261931632Y-92191525D01*
X261757240Y-92075000D01*
X261931632Y-91958475D01*
X262138475Y-91751632D01*
X262300990Y-91508411D01*
X262412932Y-91238158D01*
X262470000Y-90951260D01*
X262470000Y-90658740D01*
X262412932Y-90371842D01*
X262300990Y-90101589D01*
X262138475Y-89858368D01*
X261931632Y-89651525D01*
X261757240Y-89535000D01*
X261931632Y-89418475D01*
X262138475Y-89211632D01*
X262300990Y-88968411D01*
X262412932Y-88698158D01*
X262470000Y-88411260D01*
X262470000Y-88118740D01*
X262412932Y-87831842D01*
X262300990Y-87561589D01*
X262138475Y-87318368D01*
X261931632Y-87111525D01*
X261757240Y-86995000D01*
X261931632Y-86878475D01*
X262138475Y-86671632D01*
X262300990Y-86428411D01*
X262412932Y-86158158D01*
X262470000Y-85871260D01*
X262470000Y-85578740D01*
X262412932Y-85291842D01*
X262300990Y-85021589D01*
X262138475Y-84778368D01*
X261931632Y-84571525D01*
X261757240Y-84455000D01*
X261931632Y-84338475D01*
X262138475Y-84131632D01*
X262300990Y-83888411D01*
X262412932Y-83618158D01*
X262470000Y-83331260D01*
X262470000Y-83038740D01*
X262412932Y-82751842D01*
X262300990Y-82481589D01*
X262138475Y-82238368D01*
X261931632Y-82031525D01*
X261757240Y-81915000D01*
X261931632Y-81798475D01*
X262138475Y-81591632D01*
X262300990Y-81348411D01*
X262412932Y-81078158D01*
X262470000Y-80791260D01*
X262470000Y-80498740D01*
X262412932Y-80211842D01*
X262300990Y-79941589D01*
X262138475Y-79698368D01*
X261931632Y-79491525D01*
X261757240Y-79375000D01*
X261931632Y-79258475D01*
X262138475Y-79051632D01*
X262300990Y-78808411D01*
X262412932Y-78538158D01*
X262470000Y-78251260D01*
X262470000Y-77958740D01*
X262412932Y-77671842D01*
X262300990Y-77401589D01*
X262138475Y-77158368D01*
X262006620Y-77026513D01*
X262079180Y-77004502D01*
X262189494Y-76945537D01*
X262286185Y-76866185D01*
X262365537Y-76769494D01*
X262424502Y-76659180D01*
X262460812Y-76539482D01*
X262473072Y-76415000D01*
X262473072Y-74715000D01*
X262460812Y-74590518D01*
X262424502Y-74470820D01*
X262365537Y-74360506D01*
X262286185Y-74263815D01*
X262189494Y-74184463D01*
X262079180Y-74125498D01*
X261959482Y-74089188D01*
X261835000Y-74076928D01*
X260135000Y-74076928D01*
X260010518Y-74089188D01*
X259890820Y-74125498D01*
X259780506Y-74184463D01*
X259683815Y-74263815D01*
X259604463Y-74360506D01*
X259545498Y-74470820D01*
X259509188Y-74590518D01*
X259496928Y-74715000D01*
X259496928Y-76415000D01*
X259509188Y-76539482D01*
X259545498Y-76659180D01*
X259604463Y-76769494D01*
X259683815Y-76866185D01*
X259780506Y-76945537D01*
X259890820Y-77004502D01*
X259963380Y-77026513D01*
X259831525Y-77158368D01*
X259669010Y-77401589D01*
X259557068Y-77671842D01*
X259500000Y-77958740D01*
X259500000Y-78251260D01*
X259557068Y-78538158D01*
X259669010Y-78808411D01*
X259831525Y-79051632D01*
X260038368Y-79258475D01*
X260212760Y-79375000D01*
X260038368Y-79491525D01*
X259831525Y-79698368D01*
X259669010Y-79941589D01*
X259557068Y-80211842D01*
X259500000Y-80498740D01*
X259500000Y-80791260D01*
X259557068Y-81078158D01*
X259669010Y-81348411D01*
X259831525Y-81591632D01*
X260038368Y-81798475D01*
X260212760Y-81915000D01*
X260038368Y-82031525D01*
X259831525Y-82238368D01*
X259669010Y-82481589D01*
X259557068Y-82751842D01*
X259500000Y-83038740D01*
X259500000Y-83331260D01*
X259557068Y-83618158D01*
X259669010Y-83888411D01*
X259831525Y-84131632D01*
X260038368Y-84338475D01*
X260212760Y-84455000D01*
X260038368Y-84571525D01*
X259831525Y-84778368D01*
X259669010Y-85021589D01*
X259557068Y-85291842D01*
X259524186Y-85457148D01*
X258762500Y-84695462D01*
X258762500Y-57196785D01*
X258767108Y-57150000D01*
X258748717Y-56963277D01*
X258740139Y-56935000D01*
X258694252Y-56783731D01*
X258605806Y-56618259D01*
X258486778Y-56473222D01*
X258450436Y-56443397D01*
X257500607Y-55493569D01*
X257470778Y-55457222D01*
X257325741Y-55338194D01*
X257160269Y-55249748D01*
X256980723Y-55195283D01*
X256840785Y-55181500D01*
X256794000Y-55176892D01*
X256747215Y-55181500D01*
X256544607Y-55181500D01*
X256343632Y-54980525D01*
X256169240Y-54864000D01*
X256343632Y-54747475D01*
X256550475Y-54540632D01*
X256712990Y-54297411D01*
X256824932Y-54027158D01*
X256882000Y-53740260D01*
X256882000Y-53447740D01*
X256824932Y-53160842D01*
X256712990Y-52890589D01*
X256550475Y-52647368D01*
X256343632Y-52440525D01*
X256169240Y-52324000D01*
X256343632Y-52207475D01*
X256550475Y-52000632D01*
X256712990Y-51757411D01*
X256824932Y-51487158D01*
X256882000Y-51200260D01*
X256882000Y-50907740D01*
X256824932Y-50620842D01*
X256712990Y-50350589D01*
X256550475Y-50107368D01*
X256418620Y-49975513D01*
X256491180Y-49953502D01*
X256601494Y-49894537D01*
X256698185Y-49815185D01*
X256777537Y-49718494D01*
X256836502Y-49608180D01*
X256872812Y-49488482D01*
X256885072Y-49364000D01*
X256885072Y-47791000D01*
X259496928Y-47791000D01*
X259496928Y-49491000D01*
X259509188Y-49615482D01*
X259545498Y-49735180D01*
X259604463Y-49845494D01*
X259683815Y-49942185D01*
X259780506Y-50021537D01*
X259890820Y-50080502D01*
X259963380Y-50102513D01*
X259831525Y-50234368D01*
X259669010Y-50477589D01*
X259557068Y-50747842D01*
X259500000Y-51034740D01*
X259500000Y-51327260D01*
X259557068Y-51614158D01*
X259669010Y-51884411D01*
X259831525Y-52127632D01*
X260038368Y-52334475D01*
X260212760Y-52451000D01*
X260038368Y-52567525D01*
X259831525Y-52774368D01*
X259669010Y-53017589D01*
X259557068Y-53287842D01*
X259500000Y-53574740D01*
X259500000Y-53867260D01*
X259557068Y-54154158D01*
X259669010Y-54424411D01*
X259831525Y-54667632D01*
X260038368Y-54874475D01*
X260212760Y-54991000D01*
X260038368Y-55107525D01*
X259831525Y-55314368D01*
X259669010Y-55557589D01*
X259557068Y-55827842D01*
X259500000Y-56114740D01*
X259500000Y-56407260D01*
X259557068Y-56694158D01*
X259669010Y-56964411D01*
X259831525Y-57207632D01*
X260038368Y-57414475D01*
X260212760Y-57531000D01*
X260038368Y-57647525D01*
X259831525Y-57854368D01*
X259669010Y-58097589D01*
X259557068Y-58367842D01*
X259500000Y-58654740D01*
X259500000Y-58947260D01*
X259557068Y-59234158D01*
X259669010Y-59504411D01*
X259831525Y-59747632D01*
X260038368Y-59954475D01*
X260212760Y-60071000D01*
X260038368Y-60187525D01*
X259831525Y-60394368D01*
X259669010Y-60637589D01*
X259557068Y-60907842D01*
X259500000Y-61194740D01*
X259500000Y-61487260D01*
X259557068Y-61774158D01*
X259669010Y-62044411D01*
X259831525Y-62287632D01*
X260038368Y-62494475D01*
X260212760Y-62611000D01*
X260038368Y-62727525D01*
X259831525Y-62934368D01*
X259669010Y-63177589D01*
X259557068Y-63447842D01*
X259500000Y-63734740D01*
X259500000Y-64027260D01*
X259557068Y-64314158D01*
X259669010Y-64584411D01*
X259831525Y-64827632D01*
X260038368Y-65034475D01*
X260212760Y-65151000D01*
X260038368Y-65267525D01*
X259831525Y-65474368D01*
X259669010Y-65717589D01*
X259557068Y-65987842D01*
X259500000Y-66274740D01*
X259500000Y-66567260D01*
X259557068Y-66854158D01*
X259669010Y-67124411D01*
X259831525Y-67367632D01*
X260038368Y-67574475D01*
X260212760Y-67691000D01*
X260038368Y-67807525D01*
X259831525Y-68014368D01*
X259669010Y-68257589D01*
X259557068Y-68527842D01*
X259500000Y-68814740D01*
X259500000Y-69107260D01*
X259557068Y-69394158D01*
X259669010Y-69664411D01*
X259831525Y-69907632D01*
X260038368Y-70114475D01*
X260212760Y-70231000D01*
X260038368Y-70347525D01*
X259831525Y-70554368D01*
X259669010Y-70797589D01*
X259557068Y-71067842D01*
X259500000Y-71354740D01*
X259500000Y-71647260D01*
X259557068Y-71934158D01*
X259669010Y-72204411D01*
X259831525Y-72447632D01*
X260038368Y-72654475D01*
X260281589Y-72816990D01*
X260551842Y-72928932D01*
X260838740Y-72986000D01*
X261131260Y-72986000D01*
X261418158Y-72928932D01*
X261688411Y-72816990D01*
X261931632Y-72654475D01*
X262138475Y-72447632D01*
X262300990Y-72204411D01*
X262412932Y-71934158D01*
X262470000Y-71647260D01*
X262470000Y-71354740D01*
X262412932Y-71067842D01*
X262300990Y-70797589D01*
X262138475Y-70554368D01*
X261931632Y-70347525D01*
X261757240Y-70231000D01*
X261931632Y-70114475D01*
X262138475Y-69907632D01*
X262300990Y-69664411D01*
X262412932Y-69394158D01*
X262470000Y-69107260D01*
X262470000Y-68814740D01*
X262412932Y-68527842D01*
X262300990Y-68257589D01*
X262138475Y-68014368D01*
X261931632Y-67807525D01*
X261757240Y-67691000D01*
X261931632Y-67574475D01*
X262138475Y-67367632D01*
X262300990Y-67124411D01*
X262412932Y-66854158D01*
X262470000Y-66567260D01*
X262470000Y-66274740D01*
X262412932Y-65987842D01*
X262300990Y-65717589D01*
X262138475Y-65474368D01*
X261931632Y-65267525D01*
X261757240Y-65151000D01*
X261931632Y-65034475D01*
X262138475Y-64827632D01*
X262300990Y-64584411D01*
X262412932Y-64314158D01*
X262470000Y-64027260D01*
X262470000Y-63734740D01*
X262412932Y-63447842D01*
X262300990Y-63177589D01*
X262138475Y-62934368D01*
X261931632Y-62727525D01*
X261757240Y-62611000D01*
X261931632Y-62494475D01*
X262138475Y-62287632D01*
X262300990Y-62044411D01*
X262412932Y-61774158D01*
X262470000Y-61487260D01*
X262470000Y-61194740D01*
X262412932Y-60907842D01*
X262300990Y-60637589D01*
X262138475Y-60394368D01*
X261931632Y-60187525D01*
X261757240Y-60071000D01*
X261931632Y-59954475D01*
X262138475Y-59747632D01*
X262300990Y-59504411D01*
X262412932Y-59234158D01*
X262470000Y-58947260D01*
X262470000Y-58654740D01*
X262412932Y-58367842D01*
X262300990Y-58097589D01*
X262138475Y-57854368D01*
X261931632Y-57647525D01*
X261757240Y-57531000D01*
X261931632Y-57414475D01*
X262138475Y-57207632D01*
X262300990Y-56964411D01*
X262412932Y-56694158D01*
X262470000Y-56407260D01*
X262470000Y-56114740D01*
X262412932Y-55827842D01*
X262300990Y-55557589D01*
X262138475Y-55314368D01*
X261931632Y-55107525D01*
X261757240Y-54991000D01*
X261931632Y-54874475D01*
X262138475Y-54667632D01*
X262300990Y-54424411D01*
X262412932Y-54154158D01*
X262470000Y-53867260D01*
X262470000Y-53574740D01*
X262412932Y-53287842D01*
X262300990Y-53017589D01*
X262138475Y-52774368D01*
X261931632Y-52567525D01*
X261757240Y-52451000D01*
X261931632Y-52334475D01*
X262138475Y-52127632D01*
X262300990Y-51884411D01*
X262412932Y-51614158D01*
X262470000Y-51327260D01*
X262470000Y-51034740D01*
X262412932Y-50747842D01*
X262300990Y-50477589D01*
X262138475Y-50234368D01*
X262006620Y-50102513D01*
X262079180Y-50080502D01*
X262189494Y-50021537D01*
X262286185Y-49942185D01*
X262365537Y-49845494D01*
X262424502Y-49735180D01*
X262460812Y-49615482D01*
X262473072Y-49491000D01*
X262473072Y-47791000D01*
X262460812Y-47666518D01*
X262424502Y-47546820D01*
X262365537Y-47436506D01*
X262286185Y-47339815D01*
X262189494Y-47260463D01*
X262079180Y-47201498D01*
X261959482Y-47165188D01*
X261835000Y-47152928D01*
X260135000Y-47152928D01*
X260010518Y-47165188D01*
X259890820Y-47201498D01*
X259780506Y-47260463D01*
X259683815Y-47339815D01*
X259604463Y-47436506D01*
X259545498Y-47546820D01*
X259509188Y-47666518D01*
X259496928Y-47791000D01*
X256885072Y-47791000D01*
X256885072Y-47664000D01*
X256872812Y-47539518D01*
X256836502Y-47419820D01*
X256777537Y-47309506D01*
X256698185Y-47212815D01*
X256601494Y-47133463D01*
X256491180Y-47074498D01*
X256371482Y-47038188D01*
X256247000Y-47025928D01*
X254547000Y-47025928D01*
X254422518Y-47038188D01*
X254302820Y-47074498D01*
X254192506Y-47133463D01*
X254095815Y-47212815D01*
X254016463Y-47309506D01*
X253957498Y-47419820D01*
X253921188Y-47539518D01*
X253908928Y-47664000D01*
X253908928Y-49364000D01*
X253921188Y-49488482D01*
X253957498Y-49608180D01*
X254016463Y-49718494D01*
X254095815Y-49815185D01*
X254192506Y-49894537D01*
X254302820Y-49953502D01*
X254375380Y-49975513D01*
X254249393Y-50101500D01*
X229662784Y-50101500D01*
X229615999Y-50096892D01*
X229429277Y-50115283D01*
X229249731Y-50169748D01*
X229084259Y-50258194D01*
X228939222Y-50377222D01*
X228909397Y-50413564D01*
X214185814Y-65137148D01*
X214152932Y-64971842D01*
X214040990Y-64701589D01*
X213878475Y-64458368D01*
X213671632Y-64251525D01*
X213497240Y-64135000D01*
X213671632Y-64018475D01*
X213878475Y-63811632D01*
X214040990Y-63568411D01*
X214152932Y-63298158D01*
X214210000Y-63011260D01*
X214210000Y-62718740D01*
X214152932Y-62431842D01*
X214040990Y-62161589D01*
X213878475Y-61918368D01*
X213671632Y-61711525D01*
X213497240Y-61595000D01*
X213671632Y-61478475D01*
X213878475Y-61271632D01*
X214040990Y-61028411D01*
X214152932Y-60758158D01*
X214210000Y-60471260D01*
X214210000Y-60178740D01*
X214152932Y-59891842D01*
X214040990Y-59621589D01*
X213878475Y-59378368D01*
X213746620Y-59246513D01*
X213819180Y-59224502D01*
X213929494Y-59165537D01*
X214026185Y-59086185D01*
X214105537Y-58989494D01*
X214164502Y-58879180D01*
X214200812Y-58759482D01*
X214213072Y-58635000D01*
X214213072Y-56935000D01*
X214200812Y-56810518D01*
X214164502Y-56690820D01*
X214105537Y-56580506D01*
X214026185Y-56483815D01*
X213929494Y-56404463D01*
X213819180Y-56345498D01*
X213699482Y-56309188D01*
X213575000Y-56296928D01*
X211875000Y-56296928D01*
X211750518Y-56309188D01*
X211630820Y-56345498D01*
X211520506Y-56404463D01*
X211423815Y-56483815D01*
X211344463Y-56580506D01*
X211285498Y-56690820D01*
X211249188Y-56810518D01*
X211236928Y-56935000D01*
X210845000Y-56935000D01*
X210845000Y-43212275D01*
X210845666Y-43205487D01*
X210850301Y-43205000D01*
X262857725Y-43205000D01*
X262864513Y-43205666D01*
%TA.AperFunction,NonConductor*%
D22*
G36*
X262864513Y-43205666D02*
G01*
X262865001Y-43210310D01*
X262865000Y-109187725D01*
X262864335Y-109194513D01*
X262859699Y-109195000D01*
X248182525Y-109195000D01*
X248455302Y-109082012D01*
X248804983Y-108848363D01*
X249102363Y-108550983D01*
X249336012Y-108201302D01*
X249496953Y-107812756D01*
X249579000Y-107400279D01*
X249579000Y-106979721D01*
X249496953Y-106567244D01*
X249336012Y-106178698D01*
X249102363Y-105829017D01*
X248804983Y-105531637D01*
X248455302Y-105297988D01*
X248066756Y-105137047D01*
X247654279Y-105055000D01*
X247233721Y-105055000D01*
X246821244Y-105137047D01*
X246432698Y-105297988D01*
X246083017Y-105531637D01*
X245785637Y-105829017D01*
X245551988Y-106178698D01*
X245391047Y-106567244D01*
X245309000Y-106979721D01*
X245309000Y-107400279D01*
X245391047Y-107812756D01*
X245551988Y-108201302D01*
X245785637Y-108550983D01*
X246083017Y-108848363D01*
X246432698Y-109082012D01*
X246705475Y-109195000D01*
X226973525Y-109195000D01*
X227246302Y-109082012D01*
X227595983Y-108848363D01*
X227893363Y-108550983D01*
X228127012Y-108201302D01*
X228287953Y-107812756D01*
X228370000Y-107400279D01*
X228370000Y-106979721D01*
X228287953Y-106567244D01*
X228127012Y-106178698D01*
X227893363Y-105829017D01*
X227595983Y-105531637D01*
X227246302Y-105297988D01*
X226857756Y-105137047D01*
X226445279Y-105055000D01*
X226024721Y-105055000D01*
X225612244Y-105137047D01*
X225223698Y-105297988D01*
X224874017Y-105531637D01*
X224576637Y-105829017D01*
X224342988Y-106178698D01*
X224182047Y-106567244D01*
X224100000Y-106979721D01*
X224100000Y-107400279D01*
X224182047Y-107812756D01*
X224342988Y-108201302D01*
X224576637Y-108550983D01*
X224874017Y-108848363D01*
X225223698Y-109082012D01*
X225496475Y-109195000D01*
X210852275Y-109195000D01*
X210845487Y-109194335D01*
X210845000Y-109189699D01*
X210845000Y-102733589D01*
X221850000Y-102733589D01*
X221850000Y-103006411D01*
X221903225Y-103273989D01*
X222007629Y-103526043D01*
X222159201Y-103752886D01*
X222352114Y-103945799D01*
X222578957Y-104097371D01*
X222831011Y-104201775D01*
X223098589Y-104255000D01*
X223371411Y-104255000D01*
X223638989Y-104201775D01*
X223891043Y-104097371D01*
X224117886Y-103945799D01*
X224241185Y-103822500D01*
X225228815Y-103822500D01*
X225352114Y-103945799D01*
X225578957Y-104097371D01*
X225831011Y-104201775D01*
X226098589Y-104255000D01*
X226371411Y-104255000D01*
X226638989Y-104201775D01*
X226891043Y-104097371D01*
X227117886Y-103945799D01*
X227241185Y-103822500D01*
X227974741Y-103822500D01*
X227996595Y-103863386D01*
X228107038Y-103997962D01*
X228241614Y-104108405D01*
X228395150Y-104190472D01*
X228561746Y-104241008D01*
X228735000Y-104258072D01*
X229735000Y-104258072D01*
X229908254Y-104241008D01*
X230074850Y-104190472D01*
X230228386Y-104108405D01*
X230362962Y-103997962D01*
X230473405Y-103863386D01*
X230495259Y-103822500D01*
X236449953Y-103822500D01*
X236553102Y-103865226D01*
X236753061Y-103905000D01*
X236956939Y-103905000D01*
X237156898Y-103865226D01*
X237260047Y-103822500D01*
X243437815Y-103822500D01*
X243561114Y-103945799D01*
X243787957Y-104097371D01*
X244040011Y-104201775D01*
X244307589Y-104255000D01*
X244580411Y-104255000D01*
X244847989Y-104201775D01*
X245100043Y-104097371D01*
X245326886Y-103945799D01*
X245450185Y-103822500D01*
X246437815Y-103822500D01*
X246561114Y-103945799D01*
X246787957Y-104097371D01*
X247040011Y-104201775D01*
X247307589Y-104255000D01*
X247580411Y-104255000D01*
X247847989Y-104201775D01*
X248100043Y-104097371D01*
X248326886Y-103945799D01*
X248450185Y-103822500D01*
X249183741Y-103822500D01*
X249205595Y-103863386D01*
X249316038Y-103997962D01*
X249450614Y-104108405D01*
X249604150Y-104190472D01*
X249770746Y-104241008D01*
X249944000Y-104258072D01*
X250944000Y-104258072D01*
X251117254Y-104241008D01*
X251283850Y-104190472D01*
X251437386Y-104108405D01*
X251571962Y-103997962D01*
X251682405Y-103863386D01*
X251764472Y-103709850D01*
X251815008Y-103543254D01*
X251832072Y-103370000D01*
X251832072Y-102370000D01*
X251815008Y-102196746D01*
X251764472Y-102030150D01*
X251682405Y-101876614D01*
X251571962Y-101742038D01*
X251437386Y-101631595D01*
X251283850Y-101549528D01*
X251117254Y-101498992D01*
X250944000Y-101481928D01*
X249944000Y-101481928D01*
X249770746Y-101498992D01*
X249604150Y-101549528D01*
X249450614Y-101631595D01*
X249316038Y-101742038D01*
X249205595Y-101876614D01*
X249183741Y-101917500D01*
X248450185Y-101917500D01*
X248326886Y-101794201D01*
X248100043Y-101642629D01*
X247847989Y-101538225D01*
X247580411Y-101485000D01*
X247307589Y-101485000D01*
X247040011Y-101538225D01*
X246787957Y-101642629D01*
X246561114Y-101794201D01*
X246437815Y-101917500D01*
X245450185Y-101917500D01*
X245326886Y-101794201D01*
X245100043Y-101642629D01*
X244847989Y-101538225D01*
X244580411Y-101485000D01*
X244307589Y-101485000D01*
X244040011Y-101538225D01*
X243787957Y-101642629D01*
X243561114Y-101794201D01*
X243437815Y-101917500D01*
X237260047Y-101917500D01*
X237156898Y-101874774D01*
X236956939Y-101835000D01*
X236753061Y-101835000D01*
X236553102Y-101874774D01*
X236449953Y-101917500D01*
X230495259Y-101917500D01*
X230473405Y-101876614D01*
X230362962Y-101742038D01*
X230228386Y-101631595D01*
X230074850Y-101549528D01*
X229908254Y-101498992D01*
X229735000Y-101481928D01*
X228735000Y-101481928D01*
X228561746Y-101498992D01*
X228395150Y-101549528D01*
X228241614Y-101631595D01*
X228107038Y-101742038D01*
X227996595Y-101876614D01*
X227974741Y-101917500D01*
X227241185Y-101917500D01*
X227117886Y-101794201D01*
X226891043Y-101642629D01*
X226638989Y-101538225D01*
X226371411Y-101485000D01*
X226098589Y-101485000D01*
X225831011Y-101538225D01*
X225578957Y-101642629D01*
X225352114Y-101794201D01*
X225228815Y-101917500D01*
X224241185Y-101917500D01*
X224117886Y-101794201D01*
X223891043Y-101642629D01*
X223638989Y-101538225D01*
X223371411Y-101485000D01*
X223098589Y-101485000D01*
X222831011Y-101538225D01*
X222578957Y-101642629D01*
X222352114Y-101794201D01*
X222159201Y-101987114D01*
X222007629Y-102213957D01*
X221903225Y-102466011D01*
X221850000Y-102733589D01*
X210845000Y-102733589D01*
X210845000Y-96632665D01*
X221831000Y-96632665D01*
X221831000Y-96915335D01*
X221886147Y-97192574D01*
X221994320Y-97453727D01*
X222151363Y-97688759D01*
X222351241Y-97888637D01*
X222377000Y-97905849D01*
X222377001Y-98777572D01*
X222352114Y-98794201D01*
X222159201Y-98987114D01*
X222007629Y-99213957D01*
X221903225Y-99466011D01*
X221850000Y-99733589D01*
X221850000Y-100006411D01*
X221903225Y-100273989D01*
X222007629Y-100526043D01*
X222159201Y-100752886D01*
X222352114Y-100945799D01*
X222578957Y-101097371D01*
X222831011Y-101201775D01*
X223098589Y-101255000D01*
X223371411Y-101255000D01*
X223638989Y-101201775D01*
X223891043Y-101097371D01*
X224117886Y-100945799D01*
X224310799Y-100752886D01*
X224462371Y-100526043D01*
X224566775Y-100273989D01*
X224620000Y-100006411D01*
X224620000Y-99733589D01*
X224850000Y-99733589D01*
X224850000Y-100006411D01*
X224903225Y-100273989D01*
X225007629Y-100526043D01*
X225159201Y-100752886D01*
X225352114Y-100945799D01*
X225578957Y-101097371D01*
X225831011Y-101201775D01*
X226098589Y-101255000D01*
X226371411Y-101255000D01*
X226638989Y-101201775D01*
X226891043Y-101097371D01*
X227117886Y-100945799D01*
X227310799Y-100752886D01*
X227462371Y-100526043D01*
X227566775Y-100273989D01*
X227620000Y-100006411D01*
X227620000Y-99733589D01*
X227850000Y-99733589D01*
X227850000Y-100006411D01*
X227903225Y-100273989D01*
X228007629Y-100526043D01*
X228159201Y-100752886D01*
X228352114Y-100945799D01*
X228578957Y-101097371D01*
X228831011Y-101201775D01*
X229098589Y-101255000D01*
X229371411Y-101255000D01*
X229638989Y-101201775D01*
X229891043Y-101097371D01*
X230117886Y-100945799D01*
X230310799Y-100752886D01*
X230462371Y-100526043D01*
X230566775Y-100273989D01*
X230620000Y-100006411D01*
X230620000Y-99733589D01*
X230566775Y-99466011D01*
X230462371Y-99213957D01*
X230310799Y-98987114D01*
X230251000Y-98927315D01*
X230251000Y-97905849D01*
X230276759Y-97888637D01*
X230476637Y-97688759D01*
X230633680Y-97453727D01*
X230741853Y-97192574D01*
X230797000Y-96915335D01*
X230797000Y-96632665D01*
X243040000Y-96632665D01*
X243040000Y-96915335D01*
X243095147Y-97192574D01*
X243203320Y-97453727D01*
X243360363Y-97688759D01*
X243560241Y-97888637D01*
X243586000Y-97905849D01*
X243586001Y-98777572D01*
X243561114Y-98794201D01*
X243368201Y-98987114D01*
X243216629Y-99213957D01*
X243112225Y-99466011D01*
X243059000Y-99733589D01*
X243059000Y-100006411D01*
X243112225Y-100273989D01*
X243216629Y-100526043D01*
X243368201Y-100752886D01*
X243561114Y-100945799D01*
X243787957Y-101097371D01*
X244040011Y-101201775D01*
X244307589Y-101255000D01*
X244580411Y-101255000D01*
X244847989Y-101201775D01*
X245100043Y-101097371D01*
X245326886Y-100945799D01*
X245519799Y-100752886D01*
X245671371Y-100526043D01*
X245775775Y-100273989D01*
X245829000Y-100006411D01*
X245829000Y-99733589D01*
X246059000Y-99733589D01*
X246059000Y-100006411D01*
X246112225Y-100273989D01*
X246216629Y-100526043D01*
X246368201Y-100752886D01*
X246561114Y-100945799D01*
X246787957Y-101097371D01*
X247040011Y-101201775D01*
X247307589Y-101255000D01*
X247580411Y-101255000D01*
X247847989Y-101201775D01*
X248100043Y-101097371D01*
X248326886Y-100945799D01*
X248519799Y-100752886D01*
X248671371Y-100526043D01*
X248775775Y-100273989D01*
X248829000Y-100006411D01*
X248829000Y-99733589D01*
X249059000Y-99733589D01*
X249059000Y-100006411D01*
X249112225Y-100273989D01*
X249216629Y-100526043D01*
X249368201Y-100752886D01*
X249561114Y-100945799D01*
X249787957Y-101097371D01*
X250040011Y-101201775D01*
X250307589Y-101255000D01*
X250580411Y-101255000D01*
X250847989Y-101201775D01*
X251100043Y-101097371D01*
X251326886Y-100945799D01*
X251519799Y-100752886D01*
X251671371Y-100526043D01*
X251775775Y-100273989D01*
X251829000Y-100006411D01*
X251829000Y-99733589D01*
X251775775Y-99466011D01*
X251671371Y-99213957D01*
X251519799Y-98987114D01*
X251460000Y-98927315D01*
X251460000Y-97905849D01*
X251485759Y-97888637D01*
X251685637Y-97688759D01*
X251842680Y-97453727D01*
X251950853Y-97192574D01*
X252006000Y-96915335D01*
X252006000Y-96632665D01*
X251950853Y-96355426D01*
X251842680Y-96094273D01*
X251685637Y-95859241D01*
X251485759Y-95659363D01*
X251250727Y-95502320D01*
X250989574Y-95394147D01*
X250712335Y-95339000D01*
X250429665Y-95339000D01*
X250152426Y-95394147D01*
X249891273Y-95502320D01*
X249656241Y-95659363D01*
X249456363Y-95859241D01*
X249299320Y-96094273D01*
X249191147Y-96355426D01*
X249136000Y-96632665D01*
X249136000Y-96915335D01*
X249191147Y-97192574D01*
X249299320Y-97453727D01*
X249456363Y-97688759D01*
X249656241Y-97888637D01*
X249682000Y-97905849D01*
X249682001Y-98713427D01*
X249561114Y-98794201D01*
X249368201Y-98987114D01*
X249216629Y-99213957D01*
X249112225Y-99466011D01*
X249059000Y-99733589D01*
X248829000Y-99733589D01*
X248775775Y-99466011D01*
X248671371Y-99213957D01*
X248519799Y-98987114D01*
X248412000Y-98879315D01*
X248412000Y-97905849D01*
X248437759Y-97888637D01*
X248637637Y-97688759D01*
X248794680Y-97453727D01*
X248902853Y-97192574D01*
X248958000Y-96915335D01*
X248958000Y-96632665D01*
X248902853Y-96355426D01*
X248794680Y-96094273D01*
X248637637Y-95859241D01*
X248437759Y-95659363D01*
X248202727Y-95502320D01*
X247941574Y-95394147D01*
X247664335Y-95339000D01*
X247381665Y-95339000D01*
X247104426Y-95394147D01*
X246843273Y-95502320D01*
X246608241Y-95659363D01*
X246408363Y-95859241D01*
X246251320Y-96094273D01*
X246143147Y-96355426D01*
X246088000Y-96632665D01*
X246088000Y-96915335D01*
X246143147Y-97192574D01*
X246251320Y-97453727D01*
X246408363Y-97688759D01*
X246608241Y-97888637D01*
X246634000Y-97905849D01*
X246634001Y-98745500D01*
X246561114Y-98794201D01*
X246368201Y-98987114D01*
X246216629Y-99213957D01*
X246112225Y-99466011D01*
X246059000Y-99733589D01*
X245829000Y-99733589D01*
X245775775Y-99466011D01*
X245671371Y-99213957D01*
X245519799Y-98987114D01*
X245364000Y-98831315D01*
X245364000Y-97905849D01*
X245389759Y-97888637D01*
X245589637Y-97688759D01*
X245746680Y-97453727D01*
X245854853Y-97192574D01*
X245910000Y-96915335D01*
X245910000Y-96632665D01*
X245854853Y-96355426D01*
X245746680Y-96094273D01*
X245589637Y-95859241D01*
X245389759Y-95659363D01*
X245154727Y-95502320D01*
X244893574Y-95394147D01*
X244616335Y-95339000D01*
X244333665Y-95339000D01*
X244056426Y-95394147D01*
X243795273Y-95502320D01*
X243560241Y-95659363D01*
X243360363Y-95859241D01*
X243203320Y-96094273D01*
X243095147Y-96355426D01*
X243040000Y-96632665D01*
X230797000Y-96632665D01*
X230741853Y-96355426D01*
X230633680Y-96094273D01*
X230476637Y-95859241D01*
X230276759Y-95659363D01*
X230041727Y-95502320D01*
X229780574Y-95394147D01*
X229503335Y-95339000D01*
X229220665Y-95339000D01*
X228943426Y-95394147D01*
X228682273Y-95502320D01*
X228447241Y-95659363D01*
X228247363Y-95859241D01*
X228090320Y-96094273D01*
X227982147Y-96355426D01*
X227927000Y-96632665D01*
X227927000Y-96915335D01*
X227982147Y-97192574D01*
X228090320Y-97453727D01*
X228247363Y-97688759D01*
X228447241Y-97888637D01*
X228473000Y-97905849D01*
X228473001Y-98713427D01*
X228352114Y-98794201D01*
X228159201Y-98987114D01*
X228007629Y-99213957D01*
X227903225Y-99466011D01*
X227850000Y-99733589D01*
X227620000Y-99733589D01*
X227566775Y-99466011D01*
X227462371Y-99213957D01*
X227310799Y-98987114D01*
X227203000Y-98879315D01*
X227203000Y-97905849D01*
X227228759Y-97888637D01*
X227428637Y-97688759D01*
X227585680Y-97453727D01*
X227693853Y-97192574D01*
X227749000Y-96915335D01*
X227749000Y-96632665D01*
X227693853Y-96355426D01*
X227585680Y-96094273D01*
X227428637Y-95859241D01*
X227228759Y-95659363D01*
X226993727Y-95502320D01*
X226732574Y-95394147D01*
X226455335Y-95339000D01*
X226172665Y-95339000D01*
X225895426Y-95394147D01*
X225634273Y-95502320D01*
X225399241Y-95659363D01*
X225199363Y-95859241D01*
X225042320Y-96094273D01*
X224934147Y-96355426D01*
X224879000Y-96632665D01*
X224879000Y-96915335D01*
X224934147Y-97192574D01*
X225042320Y-97453727D01*
X225199363Y-97688759D01*
X225399241Y-97888637D01*
X225425000Y-97905849D01*
X225425001Y-98745500D01*
X225352114Y-98794201D01*
X225159201Y-98987114D01*
X225007629Y-99213957D01*
X224903225Y-99466011D01*
X224850000Y-99733589D01*
X224620000Y-99733589D01*
X224566775Y-99466011D01*
X224462371Y-99213957D01*
X224310799Y-98987114D01*
X224155000Y-98831315D01*
X224155000Y-97905849D01*
X224180759Y-97888637D01*
X224380637Y-97688759D01*
X224537680Y-97453727D01*
X224645853Y-97192574D01*
X224701000Y-96915335D01*
X224701000Y-96632665D01*
X224645853Y-96355426D01*
X224537680Y-96094273D01*
X224380637Y-95859241D01*
X224180759Y-95659363D01*
X223945727Y-95502320D01*
X223684574Y-95394147D01*
X223407335Y-95339000D01*
X223124665Y-95339000D01*
X222847426Y-95394147D01*
X222586273Y-95502320D01*
X222351241Y-95659363D01*
X222151363Y-95859241D01*
X221994320Y-96094273D01*
X221886147Y-96355426D01*
X221831000Y-96632665D01*
X210845000Y-96632665D01*
X210845000Y-79795000D01*
X211236928Y-79795000D01*
X211236928Y-81495000D01*
X211249188Y-81619482D01*
X211285498Y-81739180D01*
X211344463Y-81849494D01*
X211423815Y-81946185D01*
X211520506Y-82025537D01*
X211630820Y-82084502D01*
X211703380Y-82106513D01*
X211571525Y-82238368D01*
X211409010Y-82481589D01*
X211297068Y-82751842D01*
X211240000Y-83038740D01*
X211240000Y-83331260D01*
X211297068Y-83618158D01*
X211409010Y-83888411D01*
X211571525Y-84131632D01*
X211778368Y-84338475D01*
X211952760Y-84455000D01*
X211778368Y-84571525D01*
X211571525Y-84778368D01*
X211409010Y-85021589D01*
X211297068Y-85291842D01*
X211240000Y-85578740D01*
X211240000Y-85871260D01*
X211297068Y-86158158D01*
X211409010Y-86428411D01*
X211571525Y-86671632D01*
X211778368Y-86878475D01*
X211952760Y-86995000D01*
X211778368Y-87111525D01*
X211571525Y-87318368D01*
X211409010Y-87561589D01*
X211297068Y-87831842D01*
X211240000Y-88118740D01*
X211240000Y-88411260D01*
X211297068Y-88698158D01*
X211409010Y-88968411D01*
X211571525Y-89211632D01*
X211778368Y-89418475D01*
X211952760Y-89535000D01*
X211778368Y-89651525D01*
X211571525Y-89858368D01*
X211409010Y-90101589D01*
X211297068Y-90371842D01*
X211240000Y-90658740D01*
X211240000Y-90951260D01*
X211297068Y-91238158D01*
X211409010Y-91508411D01*
X211571525Y-91751632D01*
X211778368Y-91958475D01*
X211952760Y-92075000D01*
X211778368Y-92191525D01*
X211571525Y-92398368D01*
X211409010Y-92641589D01*
X211297068Y-92911842D01*
X211240000Y-93198740D01*
X211240000Y-93491260D01*
X211297068Y-93778158D01*
X211409010Y-94048411D01*
X211571525Y-94291632D01*
X211778368Y-94498475D01*
X212021589Y-94660990D01*
X212291842Y-94772932D01*
X212578740Y-94830000D01*
X212871260Y-94830000D01*
X213158158Y-94772932D01*
X213428411Y-94660990D01*
X213671632Y-94498475D01*
X213878475Y-94291632D01*
X213916983Y-94234000D01*
X234779340Y-94234000D01*
X234823000Y-94238300D01*
X234866660Y-94234000D01*
X234866667Y-94234000D01*
X234997274Y-94221136D01*
X235164851Y-94170303D01*
X235319291Y-94087753D01*
X235454659Y-93976659D01*
X235482499Y-93942736D01*
X240412570Y-89012665D01*
X243040000Y-89012665D01*
X243040000Y-89295335D01*
X243095147Y-89572574D01*
X243203320Y-89833727D01*
X243360363Y-90068759D01*
X243560241Y-90268637D01*
X243795273Y-90425680D01*
X244056426Y-90533853D01*
X244333665Y-90589000D01*
X244616335Y-90589000D01*
X244893574Y-90533853D01*
X245154727Y-90425680D01*
X245389759Y-90268637D01*
X245589637Y-90068759D01*
X245746680Y-89833727D01*
X245854853Y-89572574D01*
X245910000Y-89295335D01*
X245910000Y-89012665D01*
X246088000Y-89012665D01*
X246088000Y-89295335D01*
X246143147Y-89572574D01*
X246251320Y-89833727D01*
X246408363Y-90068759D01*
X246608241Y-90268637D01*
X246843273Y-90425680D01*
X247104426Y-90533853D01*
X247381665Y-90589000D01*
X247664335Y-90589000D01*
X247941574Y-90533853D01*
X248202727Y-90425680D01*
X248437759Y-90268637D01*
X248637637Y-90068759D01*
X248794680Y-89833727D01*
X248902853Y-89572574D01*
X248958000Y-89295335D01*
X248958000Y-89012665D01*
X249136000Y-89012665D01*
X249136000Y-89295335D01*
X249191147Y-89572574D01*
X249299320Y-89833727D01*
X249456363Y-90068759D01*
X249656241Y-90268637D01*
X249891273Y-90425680D01*
X250152426Y-90533853D01*
X250429665Y-90589000D01*
X250712335Y-90589000D01*
X250989574Y-90533853D01*
X251250727Y-90425680D01*
X251485759Y-90268637D01*
X251685637Y-90068759D01*
X251842680Y-89833727D01*
X251950853Y-89572574D01*
X252006000Y-89295335D01*
X252006000Y-89012665D01*
X251950853Y-88735426D01*
X251842680Y-88474273D01*
X251685637Y-88239241D01*
X251485759Y-88039363D01*
X251250727Y-87882320D01*
X250989574Y-87774147D01*
X250712335Y-87719000D01*
X250429665Y-87719000D01*
X250152426Y-87774147D01*
X249891273Y-87882320D01*
X249656241Y-88039363D01*
X249456363Y-88239241D01*
X249299320Y-88474273D01*
X249191147Y-88735426D01*
X249136000Y-89012665D01*
X248958000Y-89012665D01*
X248902853Y-88735426D01*
X248794680Y-88474273D01*
X248637637Y-88239241D01*
X248437759Y-88039363D01*
X248202727Y-87882320D01*
X247941574Y-87774147D01*
X247664335Y-87719000D01*
X247381665Y-87719000D01*
X247104426Y-87774147D01*
X246843273Y-87882320D01*
X246608241Y-88039363D01*
X246408363Y-88239241D01*
X246251320Y-88474273D01*
X246143147Y-88735426D01*
X246088000Y-89012665D01*
X245910000Y-89012665D01*
X245854853Y-88735426D01*
X245746680Y-88474273D01*
X245589637Y-88239241D01*
X245389759Y-88039363D01*
X245154727Y-87882320D01*
X244893574Y-87774147D01*
X244616335Y-87719000D01*
X244333665Y-87719000D01*
X244056426Y-87774147D01*
X243795273Y-87882320D01*
X243560241Y-88039363D01*
X243360363Y-88239241D01*
X243203320Y-88474273D01*
X243095147Y-88735426D01*
X243040000Y-89012665D01*
X240412570Y-89012665D01*
X253022106Y-76403130D01*
X253071898Y-76393226D01*
X253260256Y-76315205D01*
X253429774Y-76201937D01*
X253573937Y-76057774D01*
X253687205Y-75888256D01*
X253765226Y-75699898D01*
X253805000Y-75499939D01*
X253805000Y-75296061D01*
X253765226Y-75096102D01*
X253687205Y-74907744D01*
X253659000Y-74865532D01*
X253659000Y-71616849D01*
X253684759Y-71599637D01*
X253851339Y-71433057D01*
X253880498Y-71529180D01*
X253939463Y-71639494D01*
X254018815Y-71736185D01*
X254115506Y-71815537D01*
X254225820Y-71874502D01*
X254345518Y-71910812D01*
X254470000Y-71923072D01*
X256070000Y-71923072D01*
X256194482Y-71910812D01*
X256314180Y-71874502D01*
X256424494Y-71815537D01*
X256521185Y-71736185D01*
X256600537Y-71639494D01*
X256659502Y-71529180D01*
X256695812Y-71409482D01*
X256708072Y-71285000D01*
X256708072Y-69685000D01*
X256695812Y-69560518D01*
X256659502Y-69440820D01*
X256600537Y-69330506D01*
X256521185Y-69233815D01*
X256424494Y-69154463D01*
X256314180Y-69095498D01*
X256194482Y-69059188D01*
X256070000Y-69046928D01*
X254470000Y-69046928D01*
X254345518Y-69059188D01*
X254225820Y-69095498D01*
X254115506Y-69154463D01*
X254018815Y-69233815D01*
X253939463Y-69330506D01*
X253880498Y-69440820D01*
X253851339Y-69536943D01*
X253684759Y-69370363D01*
X253449727Y-69213320D01*
X253188574Y-69105147D01*
X252911335Y-69050000D01*
X252628665Y-69050000D01*
X252351426Y-69105147D01*
X252090273Y-69213320D01*
X251855241Y-69370363D01*
X251655363Y-69570241D01*
X251498320Y-69805273D01*
X251390147Y-70066426D01*
X251335000Y-70343665D01*
X251335000Y-70626335D01*
X251390147Y-70903574D01*
X251498320Y-71164727D01*
X251655363Y-71399759D01*
X251855241Y-71599637D01*
X251881001Y-71616849D01*
X251881000Y-74865532D01*
X251852795Y-74907744D01*
X251774774Y-75096102D01*
X251764870Y-75145894D01*
X240330291Y-86580473D01*
X240336630Y-86548605D01*
X247652743Y-79232493D01*
X247686659Y-79204659D01*
X247797753Y-79069291D01*
X247880303Y-78914851D01*
X247918254Y-78789741D01*
X247931136Y-78747276D01*
X247936945Y-78688291D01*
X247944000Y-78616667D01*
X247944000Y-78616661D01*
X247948300Y-78573001D01*
X247944000Y-78529341D01*
X247944000Y-71616849D01*
X247969759Y-71599637D01*
X248136339Y-71433057D01*
X248165498Y-71529180D01*
X248224463Y-71639494D01*
X248303815Y-71736185D01*
X248400506Y-71815537D01*
X248510820Y-71874502D01*
X248630518Y-71910812D01*
X248755000Y-71923072D01*
X250355000Y-71923072D01*
X250479482Y-71910812D01*
X250599180Y-71874502D01*
X250709494Y-71815537D01*
X250806185Y-71736185D01*
X250885537Y-71639494D01*
X250944502Y-71529180D01*
X250980812Y-71409482D01*
X250993072Y-71285000D01*
X250993072Y-69685000D01*
X250980812Y-69560518D01*
X250944502Y-69440820D01*
X250885537Y-69330506D01*
X250806185Y-69233815D01*
X250709494Y-69154463D01*
X250599180Y-69095498D01*
X250479482Y-69059188D01*
X250355000Y-69046928D01*
X248755000Y-69046928D01*
X248630518Y-69059188D01*
X248510820Y-69095498D01*
X248400506Y-69154463D01*
X248303815Y-69233815D01*
X248224463Y-69330506D01*
X248165498Y-69440820D01*
X248136339Y-69536943D01*
X247969759Y-69370363D01*
X247734727Y-69213320D01*
X247473574Y-69105147D01*
X247196335Y-69050000D01*
X246913665Y-69050000D01*
X246636426Y-69105147D01*
X246375273Y-69213320D01*
X246140241Y-69370363D01*
X245940363Y-69570241D01*
X245783320Y-69805273D01*
X245675147Y-70066426D01*
X245620000Y-70343665D01*
X245620000Y-70626335D01*
X245675147Y-70903574D01*
X245783320Y-71164727D01*
X245940363Y-71399759D01*
X246140241Y-71599637D01*
X246166001Y-71616849D01*
X246166000Y-78204764D01*
X239079395Y-85291370D01*
X239029602Y-85301274D01*
X238841244Y-85379295D01*
X238671726Y-85492563D01*
X238527563Y-85636726D01*
X238414295Y-85806244D01*
X238336274Y-85994602D01*
X238326370Y-86044394D01*
X234454765Y-89916000D01*
X230578707Y-89916000D01*
X230633680Y-89833727D01*
X230741853Y-89572574D01*
X230797000Y-89295335D01*
X230797000Y-89012665D01*
X230741853Y-88735426D01*
X230633680Y-88474273D01*
X230476637Y-88239241D01*
X230276759Y-88039363D01*
X230041727Y-87882320D01*
X229780574Y-87774147D01*
X229503335Y-87719000D01*
X229220665Y-87719000D01*
X228943426Y-87774147D01*
X228682273Y-87882320D01*
X228447241Y-88039363D01*
X228247363Y-88239241D01*
X228090320Y-88474273D01*
X227982147Y-88735426D01*
X227927000Y-89012665D01*
X227927000Y-89295335D01*
X227982147Y-89572574D01*
X228090320Y-89833727D01*
X228145293Y-89916000D01*
X227530707Y-89916000D01*
X227585680Y-89833727D01*
X227693853Y-89572574D01*
X227749000Y-89295335D01*
X227749000Y-89012665D01*
X227693853Y-88735426D01*
X227585680Y-88474273D01*
X227428637Y-88239241D01*
X227228759Y-88039363D01*
X226993727Y-87882320D01*
X226732574Y-87774147D01*
X226455335Y-87719000D01*
X226172665Y-87719000D01*
X225895426Y-87774147D01*
X225634273Y-87882320D01*
X225399241Y-88039363D01*
X225199363Y-88239241D01*
X225042320Y-88474273D01*
X224934147Y-88735426D01*
X224879000Y-89012665D01*
X224879000Y-89295335D01*
X224934147Y-89572574D01*
X225042320Y-89833727D01*
X225097293Y-89916000D01*
X224482707Y-89916000D01*
X224537680Y-89833727D01*
X224645853Y-89572574D01*
X224701000Y-89295335D01*
X224701000Y-89012665D01*
X224645853Y-88735426D01*
X224537680Y-88474273D01*
X224423276Y-88303055D01*
X224544273Y-88291137D01*
X224711850Y-88240304D01*
X224866290Y-88157754D01*
X225001658Y-88046660D01*
X225029498Y-88012737D01*
X232027106Y-81015130D01*
X232076898Y-81005226D01*
X232265256Y-80927205D01*
X232434774Y-80813937D01*
X232578937Y-80669774D01*
X232692205Y-80500256D01*
X232770226Y-80311898D01*
X232780130Y-80262105D01*
X241128280Y-71913956D01*
X241158665Y-71920000D01*
X241441335Y-71920000D01*
X241718574Y-71864853D01*
X241979727Y-71756680D01*
X242214759Y-71599637D01*
X242381339Y-71433057D01*
X242410498Y-71529180D01*
X242469463Y-71639494D01*
X242548815Y-71736185D01*
X242645506Y-71815537D01*
X242755820Y-71874502D01*
X242875518Y-71910812D01*
X243000000Y-71923072D01*
X244600000Y-71923072D01*
X244724482Y-71910812D01*
X244844180Y-71874502D01*
X244954494Y-71815537D01*
X245051185Y-71736185D01*
X245130537Y-71639494D01*
X245189502Y-71529180D01*
X245225812Y-71409482D01*
X245238072Y-71285000D01*
X245238072Y-69685000D01*
X245225812Y-69560518D01*
X245189502Y-69440820D01*
X245130537Y-69330506D01*
X245051185Y-69233815D01*
X244954494Y-69154463D01*
X244844180Y-69095498D01*
X244724482Y-69059188D01*
X244600000Y-69046928D01*
X243000000Y-69046928D01*
X242875518Y-69059188D01*
X242755820Y-69095498D01*
X242645506Y-69154463D01*
X242548815Y-69233815D01*
X242469463Y-69330506D01*
X242410498Y-69440820D01*
X242381339Y-69536943D01*
X242214759Y-69370363D01*
X241979727Y-69213320D01*
X241718574Y-69105147D01*
X241441335Y-69050000D01*
X241158665Y-69050000D01*
X240881426Y-69105147D01*
X240620273Y-69213320D01*
X240385241Y-69370363D01*
X240185363Y-69570241D01*
X240028320Y-69805273D01*
X239920147Y-70066426D01*
X239865000Y-70343665D01*
X239865000Y-70626335D01*
X239871044Y-70656720D01*
X231522895Y-79004870D01*
X231473102Y-79014774D01*
X231284744Y-79092795D01*
X231115226Y-79206063D01*
X230971063Y-79350226D01*
X230857795Y-79519744D01*
X230799000Y-79661687D01*
X230799000Y-71616849D01*
X230824759Y-71599637D01*
X230991339Y-71433057D01*
X231020498Y-71529180D01*
X231079463Y-71639494D01*
X231158815Y-71736185D01*
X231255506Y-71815537D01*
X231365820Y-71874502D01*
X231485518Y-71910812D01*
X231610000Y-71923072D01*
X233210000Y-71923072D01*
X233334482Y-71910812D01*
X233454180Y-71874502D01*
X233564494Y-71815537D01*
X233661185Y-71736185D01*
X233740537Y-71639494D01*
X233799502Y-71529180D01*
X233835812Y-71409482D01*
X233848072Y-71285000D01*
X233848072Y-69685000D01*
X233835812Y-69560518D01*
X233799502Y-69440820D01*
X233740537Y-69330506D01*
X233661185Y-69233815D01*
X233564494Y-69154463D01*
X233454180Y-69095498D01*
X233334482Y-69059188D01*
X233210000Y-69046928D01*
X231610000Y-69046928D01*
X231485518Y-69059188D01*
X231365820Y-69095498D01*
X231255506Y-69154463D01*
X231158815Y-69233815D01*
X231079463Y-69330506D01*
X231020498Y-69440820D01*
X230991339Y-69536943D01*
X230824759Y-69370363D01*
X230589727Y-69213320D01*
X230328574Y-69105147D01*
X230051335Y-69050000D01*
X229768665Y-69050000D01*
X229491426Y-69105147D01*
X229230273Y-69213320D01*
X228995241Y-69370363D01*
X228795363Y-69570241D01*
X228638320Y-69805273D01*
X228530147Y-70066426D01*
X228475000Y-70343665D01*
X228475000Y-70626335D01*
X228530147Y-70903574D01*
X228638320Y-71164727D01*
X228795363Y-71399759D01*
X228995241Y-71599637D01*
X229021001Y-71616849D01*
X229021000Y-79601764D01*
X223659765Y-84963000D01*
X221385468Y-84963000D01*
X221343256Y-84934795D01*
X221154898Y-84856774D01*
X220954939Y-84817000D01*
X220751061Y-84817000D01*
X220551102Y-84856774D01*
X220362744Y-84934795D01*
X220320532Y-84963000D01*
X214387363Y-84963000D01*
X214268932Y-84899697D01*
X214101355Y-84848864D01*
X213970748Y-84836000D01*
X213970741Y-84836000D01*
X213927081Y-84831700D01*
X213914911Y-84832899D01*
X213878475Y-84778368D01*
X213671632Y-84571525D01*
X213497240Y-84455000D01*
X213671632Y-84338475D01*
X213878475Y-84131632D01*
X213916983Y-84074000D01*
X217907532Y-84074000D01*
X217949744Y-84102205D01*
X218138102Y-84180226D01*
X218338061Y-84220000D01*
X218541939Y-84220000D01*
X218741898Y-84180226D01*
X218930256Y-84102205D01*
X218972468Y-84074000D01*
X223095340Y-84074000D01*
X223139000Y-84078300D01*
X223182660Y-84074000D01*
X223182667Y-84074000D01*
X223313274Y-84061136D01*
X223480851Y-84010303D01*
X223635291Y-83927753D01*
X223770659Y-83816659D01*
X223798499Y-83782736D01*
X224792743Y-82788493D01*
X224826659Y-82760659D01*
X224937753Y-82625291D01*
X225020303Y-82470851D01*
X225055716Y-82354108D01*
X225071136Y-82303275D01*
X225088301Y-82129000D01*
X225084000Y-82085332D01*
X225084000Y-71616849D01*
X225109759Y-71599637D01*
X225276339Y-71433057D01*
X225305498Y-71529180D01*
X225364463Y-71639494D01*
X225443815Y-71736185D01*
X225540506Y-71815537D01*
X225650820Y-71874502D01*
X225770518Y-71910812D01*
X225895000Y-71923072D01*
X227495000Y-71923072D01*
X227619482Y-71910812D01*
X227739180Y-71874502D01*
X227849494Y-71815537D01*
X227946185Y-71736185D01*
X228025537Y-71639494D01*
X228084502Y-71529180D01*
X228120812Y-71409482D01*
X228133072Y-71285000D01*
X228133072Y-69685000D01*
X228120812Y-69560518D01*
X228084502Y-69440820D01*
X228025537Y-69330506D01*
X227946185Y-69233815D01*
X227849494Y-69154463D01*
X227739180Y-69095498D01*
X227619482Y-69059188D01*
X227495000Y-69046928D01*
X225895000Y-69046928D01*
X225770518Y-69059188D01*
X225650820Y-69095498D01*
X225540506Y-69154463D01*
X225443815Y-69233815D01*
X225364463Y-69330506D01*
X225305498Y-69440820D01*
X225276339Y-69536943D01*
X225109759Y-69370363D01*
X224874727Y-69213320D01*
X224613574Y-69105147D01*
X224336335Y-69050000D01*
X224053665Y-69050000D01*
X223776426Y-69105147D01*
X223515273Y-69213320D01*
X223280241Y-69370363D01*
X223080363Y-69570241D01*
X222923320Y-69805273D01*
X222815147Y-70066426D01*
X222760000Y-70343665D01*
X222760000Y-70626335D01*
X222815147Y-70903574D01*
X222923320Y-71164727D01*
X223080363Y-71399759D01*
X223280241Y-71599637D01*
X223306001Y-71616849D01*
X223306000Y-81760764D01*
X222770765Y-82296000D01*
X218972468Y-82296000D01*
X218930256Y-82267795D01*
X218741898Y-82189774D01*
X218541939Y-82150000D01*
X218338061Y-82150000D01*
X218138102Y-82189774D01*
X217949744Y-82267795D01*
X217907532Y-82296000D01*
X213916983Y-82296000D01*
X213878475Y-82238368D01*
X213746620Y-82106513D01*
X213819180Y-82084502D01*
X213929494Y-82025537D01*
X214026185Y-81946185D01*
X214105537Y-81849494D01*
X214164502Y-81739180D01*
X214200812Y-81619482D01*
X214209231Y-81534000D01*
X215367532Y-81534000D01*
X215409744Y-81562205D01*
X215598102Y-81640226D01*
X215798061Y-81680000D01*
X216001939Y-81680000D01*
X216201898Y-81640226D01*
X216390256Y-81562205D01*
X216559774Y-81448937D01*
X216703937Y-81304774D01*
X216817205Y-81135256D01*
X216833628Y-81095607D01*
X219077743Y-78851493D01*
X219111659Y-78823659D01*
X219222753Y-78688291D01*
X219305303Y-78533851D01*
X219356136Y-78366274D01*
X219369000Y-78235667D01*
X219369000Y-78235660D01*
X219373300Y-78192000D01*
X219369000Y-78148340D01*
X219369000Y-71616849D01*
X219394759Y-71599637D01*
X219561339Y-71433057D01*
X219590498Y-71529180D01*
X219649463Y-71639494D01*
X219728815Y-71736185D01*
X219825506Y-71815537D01*
X219935820Y-71874502D01*
X220055518Y-71910812D01*
X220180000Y-71923072D01*
X221780000Y-71923072D01*
X221904482Y-71910812D01*
X222024180Y-71874502D01*
X222134494Y-71815537D01*
X222231185Y-71736185D01*
X222310537Y-71639494D01*
X222369502Y-71529180D01*
X222405812Y-71409482D01*
X222418072Y-71285000D01*
X222418072Y-69685000D01*
X222405812Y-69560518D01*
X222369502Y-69440820D01*
X222310537Y-69330506D01*
X222231185Y-69233815D01*
X222134494Y-69154463D01*
X222024180Y-69095498D01*
X221904482Y-69059188D01*
X221780000Y-69046928D01*
X220180000Y-69046928D01*
X220055518Y-69059188D01*
X219935820Y-69095498D01*
X219825506Y-69154463D01*
X219728815Y-69233815D01*
X219649463Y-69330506D01*
X219590498Y-69440820D01*
X219561339Y-69536943D01*
X219394759Y-69370363D01*
X219159727Y-69213320D01*
X218898574Y-69105147D01*
X218621335Y-69050000D01*
X218338665Y-69050000D01*
X218061426Y-69105147D01*
X217800273Y-69213320D01*
X217565241Y-69370363D01*
X217365363Y-69570241D01*
X217208320Y-69805273D01*
X217100147Y-70066426D01*
X217045000Y-70343665D01*
X217045000Y-70626335D01*
X217100147Y-70903574D01*
X217208320Y-71164727D01*
X217365363Y-71399759D01*
X217565241Y-71599637D01*
X217591001Y-71616849D01*
X217591000Y-77823764D01*
X215804765Y-79610000D01*
X215798061Y-79610000D01*
X215598102Y-79649774D01*
X215409744Y-79727795D01*
X215367532Y-79756000D01*
X214209231Y-79756000D01*
X214200812Y-79670518D01*
X214164502Y-79550820D01*
X214105537Y-79440506D01*
X214026185Y-79343815D01*
X213929494Y-79264463D01*
X213819180Y-79205498D01*
X213699482Y-79169188D01*
X213575000Y-79156928D01*
X211875000Y-79156928D01*
X211750518Y-79169188D01*
X211630820Y-79205498D01*
X211520506Y-79264463D01*
X211423815Y-79343815D01*
X211344463Y-79440506D01*
X211285498Y-79550820D01*
X211249188Y-79670518D01*
X211236928Y-79795000D01*
X210845000Y-79795000D01*
X210845000Y-56935000D01*
X211236928Y-56935000D01*
X211236928Y-58635000D01*
X211249188Y-58759482D01*
X211285498Y-58879180D01*
X211344463Y-58989494D01*
X211423815Y-59086185D01*
X211520506Y-59165537D01*
X211630820Y-59224502D01*
X211703380Y-59246513D01*
X211571525Y-59378368D01*
X211409010Y-59621589D01*
X211297068Y-59891842D01*
X211240000Y-60178740D01*
X211240000Y-60471260D01*
X211297068Y-60758158D01*
X211409010Y-61028411D01*
X211571525Y-61271632D01*
X211778368Y-61478475D01*
X211952760Y-61595000D01*
X211778368Y-61711525D01*
X211571525Y-61918368D01*
X211409010Y-62161589D01*
X211297068Y-62431842D01*
X211240000Y-62718740D01*
X211240000Y-63011260D01*
X211297068Y-63298158D01*
X211409010Y-63568411D01*
X211571525Y-63811632D01*
X211778368Y-64018475D01*
X211952760Y-64135000D01*
X211778368Y-64251525D01*
X211571525Y-64458368D01*
X211409010Y-64701589D01*
X211297068Y-64971842D01*
X211240000Y-65258740D01*
X211240000Y-65551260D01*
X211297068Y-65838158D01*
X211409010Y-66108411D01*
X211571525Y-66351632D01*
X211778368Y-66558475D01*
X211952760Y-66675000D01*
X211778368Y-66791525D01*
X211571525Y-66998368D01*
X211409010Y-67241589D01*
X211297068Y-67511842D01*
X211240000Y-67798740D01*
X211240000Y-68091260D01*
X211297068Y-68378158D01*
X211409010Y-68648411D01*
X211571525Y-68891632D01*
X211778368Y-69098475D01*
X211952760Y-69215000D01*
X211778368Y-69331525D01*
X211571525Y-69538368D01*
X211409010Y-69781589D01*
X211297068Y-70051842D01*
X211240000Y-70338740D01*
X211240000Y-70631260D01*
X211297068Y-70918158D01*
X211409010Y-71188411D01*
X211571525Y-71431632D01*
X211778368Y-71638475D01*
X211952760Y-71755000D01*
X211778368Y-71871525D01*
X211571525Y-72078368D01*
X211409010Y-72321589D01*
X211297068Y-72591842D01*
X211240000Y-72878740D01*
X211240000Y-73171260D01*
X211297068Y-73458158D01*
X211409010Y-73728411D01*
X211571525Y-73971632D01*
X211778368Y-74178475D01*
X211952760Y-74295000D01*
X211778368Y-74411525D01*
X211571525Y-74618368D01*
X211409010Y-74861589D01*
X211297068Y-75131842D01*
X211240000Y-75418740D01*
X211240000Y-75711260D01*
X211297068Y-75998158D01*
X211409010Y-76268411D01*
X211571525Y-76511632D01*
X211778368Y-76718475D01*
X212021589Y-76880990D01*
X212291842Y-76992932D01*
X212578740Y-77050000D01*
X212871260Y-77050000D01*
X213158158Y-76992932D01*
X213428411Y-76880990D01*
X213671632Y-76718475D01*
X213878475Y-76511632D01*
X214040990Y-76268411D01*
X214152932Y-75998158D01*
X214210000Y-75711260D01*
X214210000Y-75418740D01*
X214152932Y-75131842D01*
X214040990Y-74861589D01*
X213878475Y-74618368D01*
X213671632Y-74411525D01*
X213497240Y-74295000D01*
X213671632Y-74178475D01*
X213878475Y-73971632D01*
X214040990Y-73728411D01*
X214152932Y-73458158D01*
X214210000Y-73171260D01*
X214210000Y-72878740D01*
X214152932Y-72591842D01*
X214040990Y-72321589D01*
X213878475Y-72078368D01*
X213671632Y-71871525D01*
X213497240Y-71755000D01*
X213671632Y-71638475D01*
X213878475Y-71431632D01*
X214040990Y-71188411D01*
X214152932Y-70918158D01*
X214210000Y-70631260D01*
X214210000Y-70338740D01*
X214152932Y-70051842D01*
X214040990Y-69781589D01*
X213878475Y-69538368D01*
X213671632Y-69331525D01*
X213497240Y-69215000D01*
X213671632Y-69098475D01*
X213878475Y-68891632D01*
X214040990Y-68648411D01*
X214152932Y-68378158D01*
X214210000Y-68091260D01*
X214210000Y-67807038D01*
X214945038Y-67072000D01*
X235216928Y-67072000D01*
X235216928Y-69072000D01*
X235229188Y-69196482D01*
X235265498Y-69316180D01*
X235324463Y-69426494D01*
X235403815Y-69523185D01*
X235500506Y-69602537D01*
X235546630Y-69627191D01*
X235406082Y-69837537D01*
X235282832Y-70135088D01*
X235220000Y-70450967D01*
X235220000Y-70773033D01*
X235282832Y-71088912D01*
X235406082Y-71386463D01*
X235585013Y-71654252D01*
X235812748Y-71881987D01*
X236080537Y-72060918D01*
X236378088Y-72184168D01*
X236693967Y-72247000D01*
X237016033Y-72247000D01*
X237331912Y-72184168D01*
X237629463Y-72060918D01*
X237897252Y-71881987D01*
X238124987Y-71654252D01*
X238303918Y-71386463D01*
X238427168Y-71088912D01*
X238490000Y-70773033D01*
X238490000Y-70450967D01*
X238427168Y-70135088D01*
X238303918Y-69837537D01*
X238163370Y-69627191D01*
X238209494Y-69602537D01*
X238306185Y-69523185D01*
X238385537Y-69426494D01*
X238444502Y-69316180D01*
X238480812Y-69196482D01*
X238493072Y-69072000D01*
X238493072Y-67072000D01*
X238480812Y-66947518D01*
X238444502Y-66827820D01*
X238385537Y-66717506D01*
X238306185Y-66620815D01*
X238209494Y-66541463D01*
X238099180Y-66482498D01*
X237979482Y-66446188D01*
X237855000Y-66433928D01*
X235855000Y-66433928D01*
X235730518Y-66446188D01*
X235610820Y-66482498D01*
X235500506Y-66541463D01*
X235403815Y-66620815D01*
X235324463Y-66717506D01*
X235265498Y-66827820D01*
X235229188Y-66947518D01*
X235216928Y-67072000D01*
X214945038Y-67072000D01*
X217642373Y-64374665D01*
X223101000Y-64374665D01*
X223101000Y-64657335D01*
X223156147Y-64934574D01*
X223264320Y-65195727D01*
X223421363Y-65430759D01*
X223621241Y-65630637D01*
X223856273Y-65787680D01*
X224117426Y-65895853D01*
X224394665Y-65951000D01*
X224677335Y-65951000D01*
X224954574Y-65895853D01*
X225215727Y-65787680D01*
X225450759Y-65630637D01*
X225650637Y-65430759D01*
X225807680Y-65195727D01*
X225915853Y-64934574D01*
X225971000Y-64657335D01*
X225971000Y-64374665D01*
X230721000Y-64374665D01*
X230721000Y-64657335D01*
X230776147Y-64934574D01*
X230884320Y-65195727D01*
X231041363Y-65430759D01*
X231241241Y-65630637D01*
X231476273Y-65787680D01*
X231737426Y-65895853D01*
X232014665Y-65951000D01*
X232297335Y-65951000D01*
X232574574Y-65895853D01*
X232835727Y-65787680D01*
X233070759Y-65630637D01*
X233270637Y-65430759D01*
X233427680Y-65195727D01*
X233535853Y-64934574D01*
X233591000Y-64657335D01*
X233591000Y-64374665D01*
X233535853Y-64097426D01*
X233427680Y-63836273D01*
X233270637Y-63601241D01*
X233070759Y-63401363D01*
X232835727Y-63244320D01*
X232574574Y-63136147D01*
X232297335Y-63081000D01*
X232014665Y-63081000D01*
X231737426Y-63136147D01*
X231476273Y-63244320D01*
X231241241Y-63401363D01*
X231041363Y-63601241D01*
X230884320Y-63836273D01*
X230776147Y-64097426D01*
X230721000Y-64374665D01*
X225971000Y-64374665D01*
X225915853Y-64097426D01*
X225807680Y-63836273D01*
X225650637Y-63601241D01*
X225450759Y-63401363D01*
X225215727Y-63244320D01*
X224954574Y-63136147D01*
X224677335Y-63081000D01*
X224394665Y-63081000D01*
X224117426Y-63136147D01*
X223856273Y-63244320D01*
X223621241Y-63401363D01*
X223421363Y-63601241D01*
X223264320Y-63836273D01*
X223156147Y-64097426D01*
X223101000Y-64374665D01*
X217642373Y-64374665D01*
X221833373Y-60183665D01*
X241897000Y-60183665D01*
X241897000Y-60466335D01*
X241952147Y-60743574D01*
X242060320Y-61004727D01*
X242217363Y-61239759D01*
X242417241Y-61439637D01*
X242652273Y-61596680D01*
X242913426Y-61704853D01*
X243190665Y-61760000D01*
X243473335Y-61760000D01*
X243750574Y-61704853D01*
X244011727Y-61596680D01*
X244246759Y-61439637D01*
X244446637Y-61239759D01*
X244603680Y-61004727D01*
X244711853Y-60743574D01*
X244767000Y-60466335D01*
X244767000Y-60183665D01*
X244711853Y-59906426D01*
X244603680Y-59645273D01*
X244446637Y-59410241D01*
X244246759Y-59210363D01*
X244011727Y-59053320D01*
X243750574Y-58945147D01*
X243473335Y-58890000D01*
X243190665Y-58890000D01*
X242913426Y-58945147D01*
X242652273Y-59053320D01*
X242417241Y-59210363D01*
X242217363Y-59410241D01*
X242060320Y-59645273D01*
X241952147Y-59906426D01*
X241897000Y-60183665D01*
X221833373Y-60183665D01*
X224881373Y-57135665D01*
X241897000Y-57135665D01*
X241897000Y-57418335D01*
X241952147Y-57695574D01*
X242060320Y-57956727D01*
X242217363Y-58191759D01*
X242417241Y-58391637D01*
X242652273Y-58548680D01*
X242913426Y-58656853D01*
X243190665Y-58712000D01*
X243473335Y-58712000D01*
X243750574Y-58656853D01*
X244011727Y-58548680D01*
X244246759Y-58391637D01*
X244446637Y-58191759D01*
X244603680Y-57956727D01*
X244711853Y-57695574D01*
X244767000Y-57418335D01*
X244767000Y-57135665D01*
X244711853Y-56858426D01*
X244603680Y-56597273D01*
X244446637Y-56362241D01*
X244246759Y-56162363D01*
X244011727Y-56005320D01*
X243750574Y-55897147D01*
X243473335Y-55842000D01*
X243190665Y-55842000D01*
X242913426Y-55897147D01*
X242652273Y-56005320D01*
X242417241Y-56162363D01*
X242217363Y-56362241D01*
X242060320Y-56597273D01*
X241952147Y-56858426D01*
X241897000Y-57135665D01*
X224881373Y-57135665D01*
X230010539Y-52006500D01*
X254249393Y-52006500D01*
X254450368Y-52207475D01*
X254624760Y-52324000D01*
X254450368Y-52440525D01*
X254243525Y-52647368D01*
X254081010Y-52890589D01*
X253969068Y-53160842D01*
X253912000Y-53447740D01*
X253912000Y-53740260D01*
X253969068Y-54027158D01*
X254081010Y-54297411D01*
X254243525Y-54540632D01*
X254450368Y-54747475D01*
X254624760Y-54864000D01*
X254450368Y-54980525D01*
X254243525Y-55187368D01*
X254081010Y-55430589D01*
X253969068Y-55700842D01*
X253912000Y-55987740D01*
X253912000Y-56280260D01*
X253920800Y-56324500D01*
X252028896Y-56324500D01*
X251866759Y-56162363D01*
X251631727Y-56005320D01*
X251370574Y-55897147D01*
X251093335Y-55842000D01*
X250810665Y-55842000D01*
X250533426Y-55897147D01*
X250272273Y-56005320D01*
X250037241Y-56162363D01*
X249837363Y-56362241D01*
X249680320Y-56597273D01*
X249572147Y-56858426D01*
X249517000Y-57135665D01*
X249517000Y-57418335D01*
X249572147Y-57695574D01*
X249680320Y-57956727D01*
X249837363Y-58191759D01*
X250037241Y-58391637D01*
X250272273Y-58548680D01*
X250533426Y-58656853D01*
X250810665Y-58712000D01*
X251093335Y-58712000D01*
X251370574Y-58656853D01*
X251631727Y-58548680D01*
X251866759Y-58391637D01*
X252028896Y-58229500D01*
X253605462Y-58229500D01*
X253912000Y-58536038D01*
X253912000Y-58811962D01*
X253351462Y-59372500D01*
X252028896Y-59372500D01*
X251866759Y-59210363D01*
X251631727Y-59053320D01*
X251370574Y-58945147D01*
X251093335Y-58890000D01*
X250810665Y-58890000D01*
X250533426Y-58945147D01*
X250272273Y-59053320D01*
X250037241Y-59210363D01*
X249837363Y-59410241D01*
X249680320Y-59645273D01*
X249572147Y-59906426D01*
X249517000Y-60183665D01*
X249517000Y-60466335D01*
X249572147Y-60743574D01*
X249680320Y-61004727D01*
X249837363Y-61239759D01*
X250037241Y-61439637D01*
X250272273Y-61596680D01*
X250533426Y-61704853D01*
X250810665Y-61760000D01*
X251093335Y-61760000D01*
X251370574Y-61704853D01*
X251631727Y-61596680D01*
X251866759Y-61439637D01*
X252028896Y-61277500D01*
X253699215Y-61277500D01*
X253746000Y-61282108D01*
X253792785Y-61277500D01*
X253912000Y-61265758D01*
X253912000Y-61360260D01*
X253969068Y-61647158D01*
X254081010Y-61917411D01*
X254243525Y-62160632D01*
X254450368Y-62367475D01*
X254693589Y-62529990D01*
X254963842Y-62641932D01*
X255250740Y-62699000D01*
X255543260Y-62699000D01*
X255830158Y-62641932D01*
X256100411Y-62529990D01*
X256343632Y-62367475D01*
X256550475Y-62160632D01*
X256712990Y-61917411D01*
X256824932Y-61647158D01*
X256857500Y-61483428D01*
X256857501Y-85043205D01*
X256852892Y-85090000D01*
X256871283Y-85276722D01*
X256925749Y-85456269D01*
X256991211Y-85578740D01*
X257014195Y-85621741D01*
X257133223Y-85766778D01*
X257169564Y-85796602D01*
X259500000Y-88127039D01*
X259500000Y-88411260D01*
X259557068Y-88698158D01*
X259669010Y-88968411D01*
X259831525Y-89211632D01*
X260038368Y-89418475D01*
X260212760Y-89535000D01*
X260038368Y-89651525D01*
X259831525Y-89858368D01*
X259669010Y-90101589D01*
X259557068Y-90371842D01*
X259500000Y-90658740D01*
X259500000Y-90951260D01*
X259557068Y-91238158D01*
X259669010Y-91508411D01*
X259831525Y-91751632D01*
X260038368Y-91958475D01*
X260212760Y-92075000D01*
X260038368Y-92191525D01*
X259831525Y-92398368D01*
X259669010Y-92641589D01*
X259557068Y-92911842D01*
X259500000Y-93198740D01*
X259500000Y-93491260D01*
X259557068Y-93778158D01*
X259669010Y-94048411D01*
X259831525Y-94291632D01*
X260038368Y-94498475D01*
X260281589Y-94660990D01*
X260551842Y-94772932D01*
X260838740Y-94830000D01*
X261131260Y-94830000D01*
X261418158Y-94772932D01*
X261688411Y-94660990D01*
X261931632Y-94498475D01*
X262138475Y-94291632D01*
X262300990Y-94048411D01*
X262412932Y-93778158D01*
X262470000Y-93491260D01*
X262470000Y-93198740D01*
X262412932Y-92911842D01*
X262300990Y-92641589D01*
X262138475Y-92398368D01*
X261931632Y-92191525D01*
X261757240Y-92075000D01*
X261931632Y-91958475D01*
X262138475Y-91751632D01*
X262300990Y-91508411D01*
X262412932Y-91238158D01*
X262470000Y-90951260D01*
X262470000Y-90658740D01*
X262412932Y-90371842D01*
X262300990Y-90101589D01*
X262138475Y-89858368D01*
X261931632Y-89651525D01*
X261757240Y-89535000D01*
X261931632Y-89418475D01*
X262138475Y-89211632D01*
X262300990Y-88968411D01*
X262412932Y-88698158D01*
X262470000Y-88411260D01*
X262470000Y-88118740D01*
X262412932Y-87831842D01*
X262300990Y-87561589D01*
X262138475Y-87318368D01*
X261931632Y-87111525D01*
X261757240Y-86995000D01*
X261931632Y-86878475D01*
X262138475Y-86671632D01*
X262300990Y-86428411D01*
X262412932Y-86158158D01*
X262470000Y-85871260D01*
X262470000Y-85578740D01*
X262412932Y-85291842D01*
X262300990Y-85021589D01*
X262138475Y-84778368D01*
X261931632Y-84571525D01*
X261757240Y-84455000D01*
X261931632Y-84338475D01*
X262138475Y-84131632D01*
X262300990Y-83888411D01*
X262412932Y-83618158D01*
X262470000Y-83331260D01*
X262470000Y-83038740D01*
X262412932Y-82751842D01*
X262300990Y-82481589D01*
X262138475Y-82238368D01*
X261931632Y-82031525D01*
X261757240Y-81915000D01*
X261931632Y-81798475D01*
X262138475Y-81591632D01*
X262300990Y-81348411D01*
X262412932Y-81078158D01*
X262470000Y-80791260D01*
X262470000Y-80498740D01*
X262412932Y-80211842D01*
X262300990Y-79941589D01*
X262138475Y-79698368D01*
X261931632Y-79491525D01*
X261757240Y-79375000D01*
X261931632Y-79258475D01*
X262138475Y-79051632D01*
X262300990Y-78808411D01*
X262412932Y-78538158D01*
X262470000Y-78251260D01*
X262470000Y-77958740D01*
X262412932Y-77671842D01*
X262300990Y-77401589D01*
X262138475Y-77158368D01*
X262006620Y-77026513D01*
X262079180Y-77004502D01*
X262189494Y-76945537D01*
X262286185Y-76866185D01*
X262365537Y-76769494D01*
X262424502Y-76659180D01*
X262460812Y-76539482D01*
X262473072Y-76415000D01*
X262473072Y-74715000D01*
X262460812Y-74590518D01*
X262424502Y-74470820D01*
X262365537Y-74360506D01*
X262286185Y-74263815D01*
X262189494Y-74184463D01*
X262079180Y-74125498D01*
X261959482Y-74089188D01*
X261835000Y-74076928D01*
X260135000Y-74076928D01*
X260010518Y-74089188D01*
X259890820Y-74125498D01*
X259780506Y-74184463D01*
X259683815Y-74263815D01*
X259604463Y-74360506D01*
X259545498Y-74470820D01*
X259509188Y-74590518D01*
X259496928Y-74715000D01*
X259496928Y-76415000D01*
X259509188Y-76539482D01*
X259545498Y-76659180D01*
X259604463Y-76769494D01*
X259683815Y-76866185D01*
X259780506Y-76945537D01*
X259890820Y-77004502D01*
X259963380Y-77026513D01*
X259831525Y-77158368D01*
X259669010Y-77401589D01*
X259557068Y-77671842D01*
X259500000Y-77958740D01*
X259500000Y-78251260D01*
X259557068Y-78538158D01*
X259669010Y-78808411D01*
X259831525Y-79051632D01*
X260038368Y-79258475D01*
X260212760Y-79375000D01*
X260038368Y-79491525D01*
X259831525Y-79698368D01*
X259669010Y-79941589D01*
X259557068Y-80211842D01*
X259500000Y-80498740D01*
X259500000Y-80791260D01*
X259557068Y-81078158D01*
X259669010Y-81348411D01*
X259831525Y-81591632D01*
X260038368Y-81798475D01*
X260212760Y-81915000D01*
X260038368Y-82031525D01*
X259831525Y-82238368D01*
X259669010Y-82481589D01*
X259557068Y-82751842D01*
X259500000Y-83038740D01*
X259500000Y-83331260D01*
X259557068Y-83618158D01*
X259669010Y-83888411D01*
X259831525Y-84131632D01*
X260038368Y-84338475D01*
X260212760Y-84455000D01*
X260038368Y-84571525D01*
X259831525Y-84778368D01*
X259669010Y-85021589D01*
X259557068Y-85291842D01*
X259524186Y-85457148D01*
X258762500Y-84695462D01*
X258762500Y-57196785D01*
X258767108Y-57150000D01*
X258748717Y-56963277D01*
X258740139Y-56935000D01*
X258694252Y-56783731D01*
X258605806Y-56618259D01*
X258486778Y-56473222D01*
X258450436Y-56443397D01*
X257500607Y-55493569D01*
X257470778Y-55457222D01*
X257325741Y-55338194D01*
X257160269Y-55249748D01*
X256980723Y-55195283D01*
X256840785Y-55181500D01*
X256794000Y-55176892D01*
X256747215Y-55181500D01*
X256544607Y-55181500D01*
X256343632Y-54980525D01*
X256169240Y-54864000D01*
X256343632Y-54747475D01*
X256550475Y-54540632D01*
X256712990Y-54297411D01*
X256824932Y-54027158D01*
X256882000Y-53740260D01*
X256882000Y-53447740D01*
X256824932Y-53160842D01*
X256712990Y-52890589D01*
X256550475Y-52647368D01*
X256343632Y-52440525D01*
X256169240Y-52324000D01*
X256343632Y-52207475D01*
X256550475Y-52000632D01*
X256712990Y-51757411D01*
X256824932Y-51487158D01*
X256882000Y-51200260D01*
X256882000Y-50907740D01*
X256824932Y-50620842D01*
X256712990Y-50350589D01*
X256550475Y-50107368D01*
X256418620Y-49975513D01*
X256491180Y-49953502D01*
X256601494Y-49894537D01*
X256698185Y-49815185D01*
X256777537Y-49718494D01*
X256836502Y-49608180D01*
X256872812Y-49488482D01*
X256885072Y-49364000D01*
X256885072Y-47791000D01*
X259496928Y-47791000D01*
X259496928Y-49491000D01*
X259509188Y-49615482D01*
X259545498Y-49735180D01*
X259604463Y-49845494D01*
X259683815Y-49942185D01*
X259780506Y-50021537D01*
X259890820Y-50080502D01*
X259963380Y-50102513D01*
X259831525Y-50234368D01*
X259669010Y-50477589D01*
X259557068Y-50747842D01*
X259500000Y-51034740D01*
X259500000Y-51327260D01*
X259557068Y-51614158D01*
X259669010Y-51884411D01*
X259831525Y-52127632D01*
X260038368Y-52334475D01*
X260212760Y-52451000D01*
X260038368Y-52567525D01*
X259831525Y-52774368D01*
X259669010Y-53017589D01*
X259557068Y-53287842D01*
X259500000Y-53574740D01*
X259500000Y-53867260D01*
X259557068Y-54154158D01*
X259669010Y-54424411D01*
X259831525Y-54667632D01*
X260038368Y-54874475D01*
X260212760Y-54991000D01*
X260038368Y-55107525D01*
X259831525Y-55314368D01*
X259669010Y-55557589D01*
X259557068Y-55827842D01*
X259500000Y-56114740D01*
X259500000Y-56407260D01*
X259557068Y-56694158D01*
X259669010Y-56964411D01*
X259831525Y-57207632D01*
X260038368Y-57414475D01*
X260212760Y-57531000D01*
X260038368Y-57647525D01*
X259831525Y-57854368D01*
X259669010Y-58097589D01*
X259557068Y-58367842D01*
X259500000Y-58654740D01*
X259500000Y-58947260D01*
X259557068Y-59234158D01*
X259669010Y-59504411D01*
X259831525Y-59747632D01*
X260038368Y-59954475D01*
X260212760Y-60071000D01*
X260038368Y-60187525D01*
X259831525Y-60394368D01*
X259669010Y-60637589D01*
X259557068Y-60907842D01*
X259500000Y-61194740D01*
X259500000Y-61487260D01*
X259557068Y-61774158D01*
X259669010Y-62044411D01*
X259831525Y-62287632D01*
X260038368Y-62494475D01*
X260212760Y-62611000D01*
X260038368Y-62727525D01*
X259831525Y-62934368D01*
X259669010Y-63177589D01*
X259557068Y-63447842D01*
X259500000Y-63734740D01*
X259500000Y-64027260D01*
X259557068Y-64314158D01*
X259669010Y-64584411D01*
X259831525Y-64827632D01*
X260038368Y-65034475D01*
X260212760Y-65151000D01*
X260038368Y-65267525D01*
X259831525Y-65474368D01*
X259669010Y-65717589D01*
X259557068Y-65987842D01*
X259500000Y-66274740D01*
X259500000Y-66567260D01*
X259557068Y-66854158D01*
X259669010Y-67124411D01*
X259831525Y-67367632D01*
X260038368Y-67574475D01*
X260212760Y-67691000D01*
X260038368Y-67807525D01*
X259831525Y-68014368D01*
X259669010Y-68257589D01*
X259557068Y-68527842D01*
X259500000Y-68814740D01*
X259500000Y-69107260D01*
X259557068Y-69394158D01*
X259669010Y-69664411D01*
X259831525Y-69907632D01*
X260038368Y-70114475D01*
X260212760Y-70231000D01*
X260038368Y-70347525D01*
X259831525Y-70554368D01*
X259669010Y-70797589D01*
X259557068Y-71067842D01*
X259500000Y-71354740D01*
X259500000Y-71647260D01*
X259557068Y-71934158D01*
X259669010Y-72204411D01*
X259831525Y-72447632D01*
X260038368Y-72654475D01*
X260281589Y-72816990D01*
X260551842Y-72928932D01*
X260838740Y-72986000D01*
X261131260Y-72986000D01*
X261418158Y-72928932D01*
X261688411Y-72816990D01*
X261931632Y-72654475D01*
X262138475Y-72447632D01*
X262300990Y-72204411D01*
X262412932Y-71934158D01*
X262470000Y-71647260D01*
X262470000Y-71354740D01*
X262412932Y-71067842D01*
X262300990Y-70797589D01*
X262138475Y-70554368D01*
X261931632Y-70347525D01*
X261757240Y-70231000D01*
X261931632Y-70114475D01*
X262138475Y-69907632D01*
X262300990Y-69664411D01*
X262412932Y-69394158D01*
X262470000Y-69107260D01*
X262470000Y-68814740D01*
X262412932Y-68527842D01*
X262300990Y-68257589D01*
X262138475Y-68014368D01*
X261931632Y-67807525D01*
X261757240Y-67691000D01*
X261931632Y-67574475D01*
X262138475Y-67367632D01*
X262300990Y-67124411D01*
X262412932Y-66854158D01*
X262470000Y-66567260D01*
X262470000Y-66274740D01*
X262412932Y-65987842D01*
X262300990Y-65717589D01*
X262138475Y-65474368D01*
X261931632Y-65267525D01*
X261757240Y-65151000D01*
X261931632Y-65034475D01*
X262138475Y-64827632D01*
X262300990Y-64584411D01*
X262412932Y-64314158D01*
X262470000Y-64027260D01*
X262470000Y-63734740D01*
X262412932Y-63447842D01*
X262300990Y-63177589D01*
X262138475Y-62934368D01*
X261931632Y-62727525D01*
X261757240Y-62611000D01*
X261931632Y-62494475D01*
X262138475Y-62287632D01*
X262300990Y-62044411D01*
X262412932Y-61774158D01*
X262470000Y-61487260D01*
X262470000Y-61194740D01*
X262412932Y-60907842D01*
X262300990Y-60637589D01*
X262138475Y-60394368D01*
X261931632Y-60187525D01*
X261757240Y-60071000D01*
X261931632Y-59954475D01*
X262138475Y-59747632D01*
X262300990Y-59504411D01*
X262412932Y-59234158D01*
X262470000Y-58947260D01*
X262470000Y-58654740D01*
X262412932Y-58367842D01*
X262300990Y-58097589D01*
X262138475Y-57854368D01*
X261931632Y-57647525D01*
X261757240Y-57531000D01*
X261931632Y-57414475D01*
X262138475Y-57207632D01*
X262300990Y-56964411D01*
X262412932Y-56694158D01*
X262470000Y-56407260D01*
X262470000Y-56114740D01*
X262412932Y-55827842D01*
X262300990Y-55557589D01*
X262138475Y-55314368D01*
X261931632Y-55107525D01*
X261757240Y-54991000D01*
X261931632Y-54874475D01*
X262138475Y-54667632D01*
X262300990Y-54424411D01*
X262412932Y-54154158D01*
X262470000Y-53867260D01*
X262470000Y-53574740D01*
X262412932Y-53287842D01*
X262300990Y-53017589D01*
X262138475Y-52774368D01*
X261931632Y-52567525D01*
X261757240Y-52451000D01*
X261931632Y-52334475D01*
X262138475Y-52127632D01*
X262300990Y-51884411D01*
X262412932Y-51614158D01*
X262470000Y-51327260D01*
X262470000Y-51034740D01*
X262412932Y-50747842D01*
X262300990Y-50477589D01*
X262138475Y-50234368D01*
X262006620Y-50102513D01*
X262079180Y-50080502D01*
X262189494Y-50021537D01*
X262286185Y-49942185D01*
X262365537Y-49845494D01*
X262424502Y-49735180D01*
X262460812Y-49615482D01*
X262473072Y-49491000D01*
X262473072Y-47791000D01*
X262460812Y-47666518D01*
X262424502Y-47546820D01*
X262365537Y-47436506D01*
X262286185Y-47339815D01*
X262189494Y-47260463D01*
X262079180Y-47201498D01*
X261959482Y-47165188D01*
X261835000Y-47152928D01*
X260135000Y-47152928D01*
X260010518Y-47165188D01*
X259890820Y-47201498D01*
X259780506Y-47260463D01*
X259683815Y-47339815D01*
X259604463Y-47436506D01*
X259545498Y-47546820D01*
X259509188Y-47666518D01*
X259496928Y-47791000D01*
X256885072Y-47791000D01*
X256885072Y-47664000D01*
X256872812Y-47539518D01*
X256836502Y-47419820D01*
X256777537Y-47309506D01*
X256698185Y-47212815D01*
X256601494Y-47133463D01*
X256491180Y-47074498D01*
X256371482Y-47038188D01*
X256247000Y-47025928D01*
X254547000Y-47025928D01*
X254422518Y-47038188D01*
X254302820Y-47074498D01*
X254192506Y-47133463D01*
X254095815Y-47212815D01*
X254016463Y-47309506D01*
X253957498Y-47419820D01*
X253921188Y-47539518D01*
X253908928Y-47664000D01*
X253908928Y-49364000D01*
X253921188Y-49488482D01*
X253957498Y-49608180D01*
X254016463Y-49718494D01*
X254095815Y-49815185D01*
X254192506Y-49894537D01*
X254302820Y-49953502D01*
X254375380Y-49975513D01*
X254249393Y-50101500D01*
X229662784Y-50101500D01*
X229615999Y-50096892D01*
X229429277Y-50115283D01*
X229249731Y-50169748D01*
X229084259Y-50258194D01*
X228939222Y-50377222D01*
X228909397Y-50413564D01*
X214185814Y-65137148D01*
X214152932Y-64971842D01*
X214040990Y-64701589D01*
X213878475Y-64458368D01*
X213671632Y-64251525D01*
X213497240Y-64135000D01*
X213671632Y-64018475D01*
X213878475Y-63811632D01*
X214040990Y-63568411D01*
X214152932Y-63298158D01*
X214210000Y-63011260D01*
X214210000Y-62718740D01*
X214152932Y-62431842D01*
X214040990Y-62161589D01*
X213878475Y-61918368D01*
X213671632Y-61711525D01*
X213497240Y-61595000D01*
X213671632Y-61478475D01*
X213878475Y-61271632D01*
X214040990Y-61028411D01*
X214152932Y-60758158D01*
X214210000Y-60471260D01*
X214210000Y-60178740D01*
X214152932Y-59891842D01*
X214040990Y-59621589D01*
X213878475Y-59378368D01*
X213746620Y-59246513D01*
X213819180Y-59224502D01*
X213929494Y-59165537D01*
X214026185Y-59086185D01*
X214105537Y-58989494D01*
X214164502Y-58879180D01*
X214200812Y-58759482D01*
X214213072Y-58635000D01*
X214213072Y-56935000D01*
X214200812Y-56810518D01*
X214164502Y-56690820D01*
X214105537Y-56580506D01*
X214026185Y-56483815D01*
X213929494Y-56404463D01*
X213819180Y-56345498D01*
X213699482Y-56309188D01*
X213575000Y-56296928D01*
X211875000Y-56296928D01*
X211750518Y-56309188D01*
X211630820Y-56345498D01*
X211520506Y-56404463D01*
X211423815Y-56483815D01*
X211344463Y-56580506D01*
X211285498Y-56690820D01*
X211249188Y-56810518D01*
X211236928Y-56935000D01*
X210845000Y-56935000D01*
X210845000Y-43212275D01*
X210845666Y-43205487D01*
X210850301Y-43205000D01*
X262857725Y-43205000D01*
X262864513Y-43205666D01*
G37*
%TD.AperFunction*%
D21*
X256857500Y-60944572D02*
X256824932Y-60780842D01*
X256712990Y-60510589D01*
X256550475Y-60267368D01*
X256343632Y-60060525D01*
X256169240Y-59944000D01*
X256343632Y-59827475D01*
X256550475Y-59620632D01*
X256712990Y-59377411D01*
X256824932Y-59107158D01*
X256857500Y-58943429D01*
X256857500Y-60944572D01*
%TA.AperFunction,NonConductor*%
D22*
G36*
X256857500Y-60944572D02*
G01*
X256824932Y-60780842D01*
X256712990Y-60510589D01*
X256550475Y-60267368D01*
X256343632Y-60060525D01*
X256169240Y-59944000D01*
X256343632Y-59827475D01*
X256550475Y-59620632D01*
X256712990Y-59377411D01*
X256824932Y-59107158D01*
X256857500Y-58943429D01*
X256857500Y-60944572D01*
G37*
%TD.AperFunction*%
D21*
X256857500Y-57544539D02*
X256857500Y-58404571D01*
X256824932Y-58240842D01*
X256712990Y-57970589D01*
X256550475Y-57727368D01*
X256343632Y-57520525D01*
X256169240Y-57404000D01*
X256343632Y-57287475D01*
X256472034Y-57159073D01*
X256857500Y-57544539D01*
%TA.AperFunction,NonConductor*%
D22*
G36*
X256857500Y-57544539D02*
G01*
X256857500Y-58404571D01*
X256824932Y-58240842D01*
X256712990Y-57970589D01*
X256550475Y-57727368D01*
X256343632Y-57520525D01*
X256169240Y-57404000D01*
X256343632Y-57287475D01*
X256472034Y-57159073D01*
X256857500Y-57544539D01*
G37*
%TD.AperFunction*%
D21*
X234454765Y-92456000D02*
X213916983Y-92456000D01*
X213878475Y-92398368D01*
X213671632Y-92191525D01*
X213497240Y-92075000D01*
X213671632Y-91958475D01*
X213878475Y-91751632D01*
X213916983Y-91694000D01*
X234779340Y-91694000D01*
X234823000Y-91698300D01*
X234866660Y-91694000D01*
X234866667Y-91694000D01*
X234997274Y-91681136D01*
X235164851Y-91630303D01*
X235319291Y-91547753D01*
X235454659Y-91436659D01*
X235482499Y-91402736D01*
X239583606Y-87301630D01*
X239615473Y-87295291D01*
X234454765Y-92456000D01*
%TA.AperFunction,NonConductor*%
D22*
G36*
X234454765Y-92456000D02*
G01*
X213916983Y-92456000D01*
X213878475Y-92398368D01*
X213671632Y-92191525D01*
X213497240Y-92075000D01*
X213671632Y-91958475D01*
X213878475Y-91751632D01*
X213916983Y-91694000D01*
X234779340Y-91694000D01*
X234823000Y-91698300D01*
X234866660Y-91694000D01*
X234866667Y-91694000D01*
X234997274Y-91681136D01*
X235164851Y-91630303D01*
X235319291Y-91547753D01*
X235454659Y-91436659D01*
X235482499Y-91402736D01*
X239583606Y-87301630D01*
X239615473Y-87295291D01*
X234454765Y-92456000D01*
G37*
%TD.AperFunction*%
D21*
X221994320Y-88474273D02*
X221886147Y-88735426D01*
X221831000Y-89012665D01*
X221831000Y-89295335D01*
X221886147Y-89572574D01*
X221994320Y-89833727D01*
X222049293Y-89916000D01*
X213916983Y-89916000D01*
X213878475Y-89858368D01*
X213671632Y-89651525D01*
X213497240Y-89535000D01*
X213671632Y-89418475D01*
X213878475Y-89211632D01*
X214040990Y-88968411D01*
X214152932Y-88698158D01*
X214210000Y-88411260D01*
X214210000Y-88304001D01*
X222108092Y-88304001D01*
X221994320Y-88474273D01*
%TA.AperFunction,NonConductor*%
D22*
G36*
X221994320Y-88474273D02*
G01*
X221886147Y-88735426D01*
X221831000Y-89012665D01*
X221831000Y-89295335D01*
X221886147Y-89572574D01*
X221994320Y-89833727D01*
X222049293Y-89916000D01*
X213916983Y-89916000D01*
X213878475Y-89858368D01*
X213671632Y-89651525D01*
X213497240Y-89535000D01*
X213671632Y-89418475D01*
X213878475Y-89211632D01*
X214040990Y-88968411D01*
X214152932Y-88698158D01*
X214210000Y-88411260D01*
X214210000Y-88304001D01*
X222108092Y-88304001D01*
X221994320Y-88474273D01*
G37*
%TD.AperFunction*%
M02*
