%TF.GenerationSoftware,KiCad,Pcbnew,(5.1.10)-1*%
%TF.CreationDate,2021-09-10T15:59:41-05:00*%
%TF.ProjectId,ForceSensor,466f7263-6553-4656-9e73-6f722e6b6963,rev?*%
%TF.SameCoordinates,Original*%
%TF.FileFunction,Legend,Bot*%
%TF.FilePolarity,Positive*%
%FSLAX46Y46*%
G04 Gerber Fmt 4.6, Leading zero omitted, Abs format (unit mm)*
G04 Created by KiCad (PCBNEW (5.1.10)-1) date 2021-09-10 15:59:41*
%MOMM*%
%LPD*%
G01*
G04 APERTURE LIST*
%ADD10C,0.120000*%
%ADD11C,0.150000*%
G04 APERTURE END LIST*
D10*
%TO.C,J4*%
X262315000Y-47311000D02*
X260985000Y-47311000D01*
X262315000Y-48641000D02*
X262315000Y-47311000D01*
X262315000Y-49911000D02*
X259655000Y-49911000D01*
X259655000Y-49911000D02*
X259655000Y-72831000D01*
X262315000Y-49911000D02*
X262315000Y-72831000D01*
X262315000Y-72831000D02*
X259655000Y-72831000D01*
%TO.C,J2*%
X214055000Y-56455000D02*
X212725000Y-56455000D01*
X214055000Y-57785000D02*
X214055000Y-56455000D01*
X214055000Y-59055000D02*
X211395000Y-59055000D01*
X211395000Y-59055000D02*
X211395000Y-76895000D01*
X214055000Y-59055000D02*
X214055000Y-76895000D01*
X214055000Y-76895000D02*
X211395000Y-76895000D01*
%TO.C,J3*%
X214055000Y-94675000D02*
X211395000Y-94675000D01*
X214055000Y-81915000D02*
X214055000Y-94675000D01*
X211395000Y-81915000D02*
X211395000Y-94675000D01*
X214055000Y-81915000D02*
X211395000Y-81915000D01*
X214055000Y-80645000D02*
X214055000Y-79315000D01*
X214055000Y-79315000D02*
X212725000Y-79315000D01*
%TO.C,J5*%
X262315000Y-94675000D02*
X259655000Y-94675000D01*
X262315000Y-76835000D02*
X262315000Y-94675000D01*
X259655000Y-76835000D02*
X259655000Y-94675000D01*
X262315000Y-76835000D02*
X259655000Y-76835000D01*
X262315000Y-75565000D02*
X262315000Y-74235000D01*
X262315000Y-74235000D02*
X260985000Y-74235000D01*
%TO.C,J4*%
D11*
X261318333Y-45763380D02*
X261318333Y-46477666D01*
X261365952Y-46620523D01*
X261461190Y-46715761D01*
X261604047Y-46763380D01*
X261699285Y-46763380D01*
X260413571Y-46096714D02*
X260413571Y-46763380D01*
X260651666Y-45715761D02*
X260889761Y-46430047D01*
X260270714Y-46430047D01*
%TO.C,J2*%
X213058333Y-54907380D02*
X213058333Y-55621666D01*
X213105952Y-55764523D01*
X213201190Y-55859761D01*
X213344047Y-55907380D01*
X213439285Y-55907380D01*
X212629761Y-55002619D02*
X212582142Y-54955000D01*
X212486904Y-54907380D01*
X212248809Y-54907380D01*
X212153571Y-54955000D01*
X212105952Y-55002619D01*
X212058333Y-55097857D01*
X212058333Y-55193095D01*
X212105952Y-55335952D01*
X212677380Y-55907380D01*
X212058333Y-55907380D01*
%TO.C,J3*%
X213058333Y-77767380D02*
X213058333Y-78481666D01*
X213105952Y-78624523D01*
X213201190Y-78719761D01*
X213344047Y-78767380D01*
X213439285Y-78767380D01*
X212677380Y-77767380D02*
X212058333Y-77767380D01*
X212391666Y-78148333D01*
X212248809Y-78148333D01*
X212153571Y-78195952D01*
X212105952Y-78243571D01*
X212058333Y-78338809D01*
X212058333Y-78576904D01*
X212105952Y-78672142D01*
X212153571Y-78719761D01*
X212248809Y-78767380D01*
X212534523Y-78767380D01*
X212629761Y-78719761D01*
X212677380Y-78672142D01*
%TO.C,J5*%
X261318333Y-72687380D02*
X261318333Y-73401666D01*
X261365952Y-73544523D01*
X261461190Y-73639761D01*
X261604047Y-73687380D01*
X261699285Y-73687380D01*
X260365952Y-72687380D02*
X260842142Y-72687380D01*
X260889761Y-73163571D01*
X260842142Y-73115952D01*
X260746904Y-73068333D01*
X260508809Y-73068333D01*
X260413571Y-73115952D01*
X260365952Y-73163571D01*
X260318333Y-73258809D01*
X260318333Y-73496904D01*
X260365952Y-73592142D01*
X260413571Y-73639761D01*
X260508809Y-73687380D01*
X260746904Y-73687380D01*
X260842142Y-73639761D01*
X260889761Y-73592142D01*
%TD*%
M02*
