%TF.GenerationSoftware,KiCad,Pcbnew,(5.1.10)-1*%
%TF.CreationDate,2021-09-10T15:59:41-05:00*%
%TF.ProjectId,ForceSensor,466f7263-6553-4656-9e73-6f722e6b6963,rev?*%
%TF.SameCoordinates,Original*%
%TF.FileFunction,Copper,L2,Bot*%
%TF.FilePolarity,Positive*%
%FSLAX46Y46*%
G04 Gerber Fmt 4.6, Leading zero omitted, Abs format (unit mm)*
G04 Created by KiCad (PCBNEW (5.1.10)-1) date 2021-09-10 15:59:41*
%MOMM*%
%LPD*%
G01*
G04 APERTURE LIST*
%TA.AperFunction,ComponentPad*%
%ADD10R,1.600000X1.600000*%
%TD*%
%TA.AperFunction,ComponentPad*%
%ADD11C,1.600000*%
%TD*%
%TA.AperFunction,ComponentPad*%
%ADD12R,1.700000X1.700000*%
%TD*%
%TA.AperFunction,ComponentPad*%
%ADD13O,1.700000X1.700000*%
%TD*%
%TA.AperFunction,ComponentPad*%
%ADD14C,1.500000*%
%TD*%
%TA.AperFunction,ComponentPad*%
%ADD15O,1.600000X1.600000*%
%TD*%
%TA.AperFunction,ComponentPad*%
%ADD16R,2.000000X2.000000*%
%TD*%
%TA.AperFunction,ComponentPad*%
%ADD17O,2.000000X2.000000*%
%TD*%
%TA.AperFunction,ViaPad*%
%ADD18C,0.800000*%
%TD*%
%TA.AperFunction,Conductor*%
%ADD19C,0.508000*%
%TD*%
%TA.AperFunction,Conductor*%
%ADD20C,0.635000*%
%TD*%
%TA.AperFunction,Conductor*%
%ADD21C,0.254000*%
%TD*%
%TA.AperFunction,Conductor*%
%ADD22C,0.100000*%
%TD*%
G04 APERTURE END LIST*
D10*
%TO.P,C1,1*%
%TO.N,GND*%
X220980000Y-70485000D03*
D11*
%TO.P,C1,2*%
%TO.N,/Left_Data1*%
X218480000Y-70485000D03*
%TD*%
D10*
%TO.P,C2,1*%
%TO.N,GND*%
X226695000Y-70485000D03*
D11*
%TO.P,C2,2*%
%TO.N,/Left_Data2*%
X224195000Y-70485000D03*
%TD*%
%TO.P,C3,2*%
%TO.N,/Left_Data3*%
X229910000Y-70485000D03*
D10*
%TO.P,C3,1*%
%TO.N,GND*%
X232410000Y-70485000D03*
%TD*%
D11*
%TO.P,C4,2*%
%TO.N,/Right_Data1*%
X241300000Y-70485000D03*
D10*
%TO.P,C4,1*%
%TO.N,GND*%
X243800000Y-70485000D03*
%TD*%
%TO.P,C5,1*%
%TO.N,GND*%
X249555000Y-70485000D03*
D11*
%TO.P,C5,2*%
%TO.N,/Right_Data2*%
X247055000Y-70485000D03*
%TD*%
%TO.P,C6,2*%
%TO.N,/Right_Data3*%
X252770000Y-70485000D03*
D10*
%TO.P,C6,1*%
%TO.N,GND*%
X255270000Y-70485000D03*
%TD*%
D12*
%TO.P,J4,1*%
%TO.N,Net-(J4-Pad1)*%
X260985000Y-48641000D03*
D13*
%TO.P,J4,2*%
%TO.N,Net-(J4-Pad2)*%
X260985000Y-51181000D03*
%TO.P,J4,3*%
%TO.N,Net-(J4-Pad3)*%
X260985000Y-53721000D03*
%TO.P,J4,4*%
%TO.N,GND*%
X260985000Y-56261000D03*
%TO.P,J4,5*%
%TO.N,Net-(J4-Pad5)*%
X260985000Y-58801000D03*
%TO.P,J4,6*%
%TO.N,Net-(J4-Pad6)*%
X260985000Y-61341000D03*
%TO.P,J4,7*%
%TO.N,Net-(J4-Pad7)*%
X260985000Y-63881000D03*
%TO.P,J4,8*%
%TO.N,Net-(J4-Pad8)*%
X260985000Y-66421000D03*
%TO.P,J4,9*%
%TO.N,Net-(J4-Pad9)*%
X260985000Y-68961000D03*
%TO.P,J4,10*%
%TO.N,Net-(J4-Pad10)*%
X260985000Y-71501000D03*
%TD*%
%TO.P,J7,1*%
%TO.N,+5V*%
%TA.AperFunction,ComponentPad*%
G36*
G01*
X229985000Y-102370000D02*
X229985000Y-103370000D01*
G75*
G02*
X229735000Y-103620000I-250000J0D01*
G01*
X228735000Y-103620000D01*
G75*
G02*
X228485000Y-103370000I0J250000D01*
G01*
X228485000Y-102370000D01*
G75*
G02*
X228735000Y-102120000I250000J0D01*
G01*
X229735000Y-102120000D01*
G75*
G02*
X229985000Y-102370000I0J-250000D01*
G01*
G37*
%TD.AperFunction*%
D14*
%TO.P,J7,2*%
X226235000Y-102870000D03*
%TO.P,J7,3*%
X223235000Y-102870000D03*
%TO.P,J7,4*%
%TO.N,/Left_Data3*%
X229235000Y-99870000D03*
%TO.P,J7,5*%
%TO.N,/Left_Data2*%
X226235000Y-99870000D03*
%TO.P,J7,6*%
%TO.N,/Left_Data1*%
X223235000Y-99870000D03*
%TD*%
%TO.P,J8,6*%
%TO.N,/Right_Data1*%
X244444000Y-99870000D03*
%TO.P,J8,5*%
%TO.N,/Right_Data2*%
X247444000Y-99870000D03*
%TO.P,J8,4*%
%TO.N,/Right_Data3*%
X250444000Y-99870000D03*
%TO.P,J8,3*%
%TO.N,+5V*%
X244444000Y-102870000D03*
%TO.P,J8,2*%
X247444000Y-102870000D03*
%TO.P,J8,1*%
%TA.AperFunction,ComponentPad*%
G36*
G01*
X251194000Y-102370000D02*
X251194000Y-103370000D01*
G75*
G02*
X250944000Y-103620000I-250000J0D01*
G01*
X249944000Y-103620000D01*
G75*
G02*
X249694000Y-103370000I0J250000D01*
G01*
X249694000Y-102370000D01*
G75*
G02*
X249944000Y-102120000I250000J0D01*
G01*
X250944000Y-102120000D01*
G75*
G02*
X251194000Y-102370000I0J-250000D01*
G01*
G37*
%TD.AperFunction*%
%TD*%
D11*
%TO.P,R1,1*%
%TO.N,GND*%
X243332000Y-57277000D03*
D15*
%TO.P,R1,2*%
%TO.N,Net-(J1-Pad5)*%
X250952000Y-57277000D03*
%TD*%
%TO.P,R2,2*%
%TO.N,/D3*%
X243332000Y-60325000D03*
D11*
%TO.P,R2,1*%
%TO.N,Net-(J1-Pad5)*%
X250952000Y-60325000D03*
%TD*%
%TO.P,R3,1*%
%TO.N,/Left_Data1*%
X223266000Y-96774000D03*
D15*
%TO.P,R3,2*%
%TO.N,GND*%
X223266000Y-89154000D03*
%TD*%
%TO.P,R4,2*%
%TO.N,GND*%
X226314000Y-89154000D03*
D11*
%TO.P,R4,1*%
%TO.N,/Left_Data2*%
X226314000Y-96774000D03*
%TD*%
D15*
%TO.P,R5,2*%
%TO.N,GND*%
X229362000Y-89154000D03*
D11*
%TO.P,R5,1*%
%TO.N,/Left_Data3*%
X229362000Y-96774000D03*
%TD*%
%TO.P,R6,1*%
%TO.N,/Right_Data1*%
X244475000Y-96774000D03*
D15*
%TO.P,R6,2*%
%TO.N,GND*%
X244475000Y-89154000D03*
%TD*%
%TO.P,R7,2*%
%TO.N,GND*%
X247523000Y-89154000D03*
D11*
%TO.P,R7,1*%
%TO.N,/Right_Data2*%
X247523000Y-96774000D03*
%TD*%
%TO.P,R8,1*%
%TO.N,/Right_Data3*%
X250571000Y-96774000D03*
D15*
%TO.P,R8,2*%
%TO.N,GND*%
X250571000Y-89154000D03*
%TD*%
D12*
%TO.P,J1,1*%
%TO.N,Net-(J1-Pad1)*%
X255397000Y-48514000D03*
D13*
%TO.P,J1,2*%
%TO.N,+5V*%
X255397000Y-51054000D03*
%TO.P,J1,3*%
%TO.N,GND*%
X255397000Y-53594000D03*
%TO.P,J1,4*%
%TO.N,/D2*%
X255397000Y-56134000D03*
%TO.P,J1,5*%
%TO.N,Net-(J1-Pad5)*%
X255397000Y-58674000D03*
%TO.P,J1,6*%
%TO.N,Net-(J1-Pad6)*%
X255397000Y-61214000D03*
%TD*%
D12*
%TO.P,J2,1*%
%TO.N,Net-(J2-Pad1)*%
X212725000Y-57785000D03*
D13*
%TO.P,J2,2*%
%TO.N,Net-(J2-Pad2)*%
X212725000Y-60325000D03*
%TO.P,J2,3*%
%TO.N,Net-(J2-Pad3)*%
X212725000Y-62865000D03*
%TO.P,J2,4*%
%TO.N,+3V3*%
X212725000Y-65405000D03*
%TO.P,J2,5*%
%TO.N,+5V*%
X212725000Y-67945000D03*
%TO.P,J2,6*%
%TO.N,GND*%
X212725000Y-70485000D03*
%TO.P,J2,7*%
X212725000Y-73025000D03*
%TO.P,J2,8*%
%TO.N,Net-(J2-Pad8)*%
X212725000Y-75565000D03*
%TD*%
%TO.P,J3,6*%
%TO.N,/Right_Data3*%
X212725000Y-93345000D03*
%TO.P,J3,5*%
%TO.N,/Right_Data2*%
X212725000Y-90805000D03*
%TO.P,J3,4*%
%TO.N,/Right_Data1*%
X212725000Y-88265000D03*
%TO.P,J3,3*%
%TO.N,/Left_Data3*%
X212725000Y-85725000D03*
%TO.P,J3,2*%
%TO.N,/Left_Data2*%
X212725000Y-83185000D03*
D12*
%TO.P,J3,1*%
%TO.N,/Left_Data1*%
X212725000Y-80645000D03*
%TD*%
D13*
%TO.P,J5,8*%
%TO.N,Net-(J5-Pad8)*%
X260985000Y-93345000D03*
%TO.P,J5,7*%
%TO.N,Net-(J5-Pad7)*%
X260985000Y-90805000D03*
%TO.P,J5,6*%
%TO.N,/D2*%
X260985000Y-88265000D03*
%TO.P,J5,5*%
%TO.N,/D3*%
X260985000Y-85725000D03*
%TO.P,J5,4*%
%TO.N,Net-(J5-Pad4)*%
X260985000Y-83185000D03*
%TO.P,J5,3*%
%TO.N,Net-(J5-Pad3)*%
X260985000Y-80645000D03*
%TO.P,J5,2*%
%TO.N,Net-(J5-Pad2)*%
X260985000Y-78105000D03*
D12*
%TO.P,J5,1*%
%TO.N,Net-(J5-Pad1)*%
X260985000Y-75565000D03*
%TD*%
D11*
%TO.P,R9,1*%
%TO.N,+3V3*%
X224536000Y-64516000D03*
D15*
%TO.P,R9,2*%
%TO.N,Net-(D1-Pad1)*%
X232156000Y-64516000D03*
%TD*%
D16*
%TO.P,D1,1*%
%TO.N,Net-(D1-Pad1)*%
X236855000Y-68072000D03*
D17*
%TO.P,D1,2*%
%TO.N,GND*%
X236855000Y-70612000D03*
%TD*%
D18*
%TO.N,/Left_Data1*%
X215900000Y-80645000D03*
%TO.N,/Left_Data2*%
X218440000Y-83185000D03*
%TO.N,/Left_Data3*%
X220853000Y-85852000D03*
%TO.N,/Right_Data1*%
X231775000Y-80010000D03*
%TO.N,/Right_Data2*%
X239331500Y-86296500D03*
%TO.N,/Right_Data3*%
X252770000Y-75398000D03*
%TO.N,+5V*%
X236855000Y-102870000D03*
%TD*%
D19*
%TO.N,/Left_Data1*%
X223266000Y-96774000D02*
X215900000Y-89408000D01*
X215900000Y-89408000D02*
X215900000Y-80645000D01*
%TO.N,/Left_Data2*%
X218440000Y-88900000D02*
X218440000Y-83185000D01*
X226314000Y-96774000D02*
X218440000Y-88900000D01*
%TO.N,/Left_Data3*%
X229362000Y-96774000D02*
X228219000Y-96774000D01*
X220853000Y-89408000D02*
X220853000Y-85852000D01*
X228219000Y-96774000D02*
X220853000Y-89408000D01*
%TO.N,/Right_Data1*%
X244475000Y-96774000D02*
X244475000Y-93980000D01*
X231775000Y-81280000D02*
X231775000Y-80010000D01*
X244475000Y-93980000D02*
X231775000Y-81280000D01*
%TO.N,/Right_Data2*%
X247523000Y-94488000D02*
X239331500Y-86296500D01*
X247523000Y-96774000D02*
X247523000Y-94488000D01*
%TO.N,/Right_Data3*%
X252770000Y-94575000D02*
X252770000Y-75398000D01*
X250571000Y-96774000D02*
X252770000Y-94575000D01*
%TO.N,+3V3*%
X223647000Y-65405000D02*
X224536000Y-64516000D01*
X212725000Y-65405000D02*
X223647000Y-65405000D01*
D20*
%TO.N,+5V*%
X212852000Y-67945000D02*
X212725000Y-67945000D01*
X212725000Y-67945000D02*
X216408000Y-71628000D01*
X216408000Y-72390000D02*
X236855000Y-92837000D01*
X216408000Y-71628000D02*
X216408000Y-72390000D01*
X236855000Y-102870000D02*
X236855000Y-92837000D01*
%TO.N,/D3*%
X259080000Y-83820000D02*
X260985000Y-85725000D01*
X246507000Y-63500000D02*
X257810000Y-63500000D01*
X259080000Y-64770000D02*
X259080000Y-83820000D01*
X257810000Y-63500000D02*
X259080000Y-64770000D01*
X243332000Y-60325000D02*
X246507000Y-63500000D01*
D19*
%TO.N,Net-(D1-Pad1)*%
X233299000Y-64516000D02*
X236855000Y-68072000D01*
X232156000Y-64516000D02*
X233299000Y-64516000D01*
%TD*%
D21*
%TO.N,GND*%
X262864513Y-43205666D02*
X262865001Y-43210310D01*
X262865000Y-109187725D01*
X262864335Y-109194513D01*
X262859699Y-109195000D01*
X248182525Y-109195000D01*
X248455302Y-109082012D01*
X248804983Y-108848363D01*
X249102363Y-108550983D01*
X249336012Y-108201302D01*
X249496953Y-107812756D01*
X249579000Y-107400279D01*
X249579000Y-106979721D01*
X249496953Y-106567244D01*
X249336012Y-106178698D01*
X249102363Y-105829017D01*
X248804983Y-105531637D01*
X248455302Y-105297988D01*
X248066756Y-105137047D01*
X247654279Y-105055000D01*
X247233721Y-105055000D01*
X246821244Y-105137047D01*
X246432698Y-105297988D01*
X246083017Y-105531637D01*
X245785637Y-105829017D01*
X245551988Y-106178698D01*
X245391047Y-106567244D01*
X245309000Y-106979721D01*
X245309000Y-107400279D01*
X245391047Y-107812756D01*
X245551988Y-108201302D01*
X245785637Y-108550983D01*
X246083017Y-108848363D01*
X246432698Y-109082012D01*
X246705475Y-109195000D01*
X226973525Y-109195000D01*
X227246302Y-109082012D01*
X227595983Y-108848363D01*
X227893363Y-108550983D01*
X228127012Y-108201302D01*
X228287953Y-107812756D01*
X228370000Y-107400279D01*
X228370000Y-106979721D01*
X228287953Y-106567244D01*
X228127012Y-106178698D01*
X227893363Y-105829017D01*
X227595983Y-105531637D01*
X227246302Y-105297988D01*
X226857756Y-105137047D01*
X226445279Y-105055000D01*
X226024721Y-105055000D01*
X225612244Y-105137047D01*
X225223698Y-105297988D01*
X224874017Y-105531637D01*
X224576637Y-105829017D01*
X224342988Y-106178698D01*
X224182047Y-106567244D01*
X224100000Y-106979721D01*
X224100000Y-107400279D01*
X224182047Y-107812756D01*
X224342988Y-108201302D01*
X224576637Y-108550983D01*
X224874017Y-108848363D01*
X225223698Y-109082012D01*
X225496475Y-109195000D01*
X210852275Y-109195000D01*
X210845487Y-109194335D01*
X210845000Y-109189699D01*
X210845000Y-102733589D01*
X221850000Y-102733589D01*
X221850000Y-103006411D01*
X221903225Y-103273989D01*
X222007629Y-103526043D01*
X222159201Y-103752886D01*
X222352114Y-103945799D01*
X222578957Y-104097371D01*
X222831011Y-104201775D01*
X223098589Y-104255000D01*
X223371411Y-104255000D01*
X223638989Y-104201775D01*
X223891043Y-104097371D01*
X224117886Y-103945799D01*
X224310799Y-103752886D01*
X224462371Y-103526043D01*
X224566775Y-103273989D01*
X224620000Y-103006411D01*
X224620000Y-102733589D01*
X224850000Y-102733589D01*
X224850000Y-103006411D01*
X224903225Y-103273989D01*
X225007629Y-103526043D01*
X225159201Y-103752886D01*
X225352114Y-103945799D01*
X225578957Y-104097371D01*
X225831011Y-104201775D01*
X226098589Y-104255000D01*
X226371411Y-104255000D01*
X226638989Y-104201775D01*
X226891043Y-104097371D01*
X227117886Y-103945799D01*
X227310799Y-103752886D01*
X227462371Y-103526043D01*
X227566775Y-103273989D01*
X227620000Y-103006411D01*
X227620000Y-102733589D01*
X227566775Y-102466011D01*
X227527007Y-102370000D01*
X227846928Y-102370000D01*
X227846928Y-103370000D01*
X227863992Y-103543254D01*
X227914528Y-103709850D01*
X227996595Y-103863386D01*
X228107038Y-103997962D01*
X228241614Y-104108405D01*
X228395150Y-104190472D01*
X228561746Y-104241008D01*
X228735000Y-104258072D01*
X229735000Y-104258072D01*
X229908254Y-104241008D01*
X230074850Y-104190472D01*
X230228386Y-104108405D01*
X230362962Y-103997962D01*
X230473405Y-103863386D01*
X230555472Y-103709850D01*
X230606008Y-103543254D01*
X230623072Y-103370000D01*
X230623072Y-102370000D01*
X230606008Y-102196746D01*
X230555472Y-102030150D01*
X230473405Y-101876614D01*
X230362962Y-101742038D01*
X230228386Y-101631595D01*
X230074850Y-101549528D01*
X229908254Y-101498992D01*
X229735000Y-101481928D01*
X228735000Y-101481928D01*
X228561746Y-101498992D01*
X228395150Y-101549528D01*
X228241614Y-101631595D01*
X228107038Y-101742038D01*
X227996595Y-101876614D01*
X227914528Y-102030150D01*
X227863992Y-102196746D01*
X227846928Y-102370000D01*
X227527007Y-102370000D01*
X227462371Y-102213957D01*
X227310799Y-101987114D01*
X227117886Y-101794201D01*
X226891043Y-101642629D01*
X226638989Y-101538225D01*
X226371411Y-101485000D01*
X226098589Y-101485000D01*
X225831011Y-101538225D01*
X225578957Y-101642629D01*
X225352114Y-101794201D01*
X225159201Y-101987114D01*
X225007629Y-102213957D01*
X224903225Y-102466011D01*
X224850000Y-102733589D01*
X224620000Y-102733589D01*
X224566775Y-102466011D01*
X224462371Y-102213957D01*
X224310799Y-101987114D01*
X224117886Y-101794201D01*
X223891043Y-101642629D01*
X223638989Y-101538225D01*
X223371411Y-101485000D01*
X223098589Y-101485000D01*
X222831011Y-101538225D01*
X222578957Y-101642629D01*
X222352114Y-101794201D01*
X222159201Y-101987114D01*
X222007629Y-102213957D01*
X221903225Y-102466011D01*
X221850000Y-102733589D01*
X210845000Y-102733589D01*
X210845000Y-99733589D01*
X221850000Y-99733589D01*
X221850000Y-100006411D01*
X221903225Y-100273989D01*
X222007629Y-100526043D01*
X222159201Y-100752886D01*
X222352114Y-100945799D01*
X222578957Y-101097371D01*
X222831011Y-101201775D01*
X223098589Y-101255000D01*
X223371411Y-101255000D01*
X223638989Y-101201775D01*
X223891043Y-101097371D01*
X224117886Y-100945799D01*
X224310799Y-100752886D01*
X224462371Y-100526043D01*
X224566775Y-100273989D01*
X224620000Y-100006411D01*
X224620000Y-99733589D01*
X224850000Y-99733589D01*
X224850000Y-100006411D01*
X224903225Y-100273989D01*
X225007629Y-100526043D01*
X225159201Y-100752886D01*
X225352114Y-100945799D01*
X225578957Y-101097371D01*
X225831011Y-101201775D01*
X226098589Y-101255000D01*
X226371411Y-101255000D01*
X226638989Y-101201775D01*
X226891043Y-101097371D01*
X227117886Y-100945799D01*
X227310799Y-100752886D01*
X227462371Y-100526043D01*
X227566775Y-100273989D01*
X227620000Y-100006411D01*
X227620000Y-99733589D01*
X227850000Y-99733589D01*
X227850000Y-100006411D01*
X227903225Y-100273989D01*
X228007629Y-100526043D01*
X228159201Y-100752886D01*
X228352114Y-100945799D01*
X228578957Y-101097371D01*
X228831011Y-101201775D01*
X229098589Y-101255000D01*
X229371411Y-101255000D01*
X229638989Y-101201775D01*
X229891043Y-101097371D01*
X230117886Y-100945799D01*
X230310799Y-100752886D01*
X230462371Y-100526043D01*
X230566775Y-100273989D01*
X230620000Y-100006411D01*
X230620000Y-99733589D01*
X230566775Y-99466011D01*
X230462371Y-99213957D01*
X230310799Y-98987114D01*
X230117886Y-98794201D01*
X229891043Y-98642629D01*
X229638989Y-98538225D01*
X229371411Y-98485000D01*
X229098589Y-98485000D01*
X228831011Y-98538225D01*
X228578957Y-98642629D01*
X228352114Y-98794201D01*
X228159201Y-98987114D01*
X228007629Y-99213957D01*
X227903225Y-99466011D01*
X227850000Y-99733589D01*
X227620000Y-99733589D01*
X227566775Y-99466011D01*
X227462371Y-99213957D01*
X227310799Y-98987114D01*
X227117886Y-98794201D01*
X226891043Y-98642629D01*
X226638989Y-98538225D01*
X226371411Y-98485000D01*
X226098589Y-98485000D01*
X225831011Y-98538225D01*
X225578957Y-98642629D01*
X225352114Y-98794201D01*
X225159201Y-98987114D01*
X225007629Y-99213957D01*
X224903225Y-99466011D01*
X224850000Y-99733589D01*
X224620000Y-99733589D01*
X224566775Y-99466011D01*
X224462371Y-99213957D01*
X224310799Y-98987114D01*
X224117886Y-98794201D01*
X223891043Y-98642629D01*
X223638989Y-98538225D01*
X223371411Y-98485000D01*
X223098589Y-98485000D01*
X222831011Y-98538225D01*
X222578957Y-98642629D01*
X222352114Y-98794201D01*
X222159201Y-98987114D01*
X222007629Y-99213957D01*
X221903225Y-99466011D01*
X221850000Y-99733589D01*
X210845000Y-99733589D01*
X210845000Y-79795000D01*
X211236928Y-79795000D01*
X211236928Y-81495000D01*
X211249188Y-81619482D01*
X211285498Y-81739180D01*
X211344463Y-81849494D01*
X211423815Y-81946185D01*
X211520506Y-82025537D01*
X211630820Y-82084502D01*
X211703380Y-82106513D01*
X211571525Y-82238368D01*
X211409010Y-82481589D01*
X211297068Y-82751842D01*
X211240000Y-83038740D01*
X211240000Y-83331260D01*
X211297068Y-83618158D01*
X211409010Y-83888411D01*
X211571525Y-84131632D01*
X211778368Y-84338475D01*
X211952760Y-84455000D01*
X211778368Y-84571525D01*
X211571525Y-84778368D01*
X211409010Y-85021589D01*
X211297068Y-85291842D01*
X211240000Y-85578740D01*
X211240000Y-85871260D01*
X211297068Y-86158158D01*
X211409010Y-86428411D01*
X211571525Y-86671632D01*
X211778368Y-86878475D01*
X211952760Y-86995000D01*
X211778368Y-87111525D01*
X211571525Y-87318368D01*
X211409010Y-87561589D01*
X211297068Y-87831842D01*
X211240000Y-88118740D01*
X211240000Y-88411260D01*
X211297068Y-88698158D01*
X211409010Y-88968411D01*
X211571525Y-89211632D01*
X211778368Y-89418475D01*
X211952760Y-89535000D01*
X211778368Y-89651525D01*
X211571525Y-89858368D01*
X211409010Y-90101589D01*
X211297068Y-90371842D01*
X211240000Y-90658740D01*
X211240000Y-90951260D01*
X211297068Y-91238158D01*
X211409010Y-91508411D01*
X211571525Y-91751632D01*
X211778368Y-91958475D01*
X211952760Y-92075000D01*
X211778368Y-92191525D01*
X211571525Y-92398368D01*
X211409010Y-92641589D01*
X211297068Y-92911842D01*
X211240000Y-93198740D01*
X211240000Y-93491260D01*
X211297068Y-93778158D01*
X211409010Y-94048411D01*
X211571525Y-94291632D01*
X211778368Y-94498475D01*
X212021589Y-94660990D01*
X212291842Y-94772932D01*
X212578740Y-94830000D01*
X212871260Y-94830000D01*
X213158158Y-94772932D01*
X213428411Y-94660990D01*
X213671632Y-94498475D01*
X213878475Y-94291632D01*
X214040990Y-94048411D01*
X214152932Y-93778158D01*
X214210000Y-93491260D01*
X214210000Y-93198740D01*
X214152932Y-92911842D01*
X214040990Y-92641589D01*
X213878475Y-92398368D01*
X213671632Y-92191525D01*
X213497240Y-92075000D01*
X213671632Y-91958475D01*
X213878475Y-91751632D01*
X214040990Y-91508411D01*
X214152932Y-91238158D01*
X214210000Y-90951260D01*
X214210000Y-90658740D01*
X214152932Y-90371842D01*
X214040990Y-90101589D01*
X213878475Y-89858368D01*
X213671632Y-89651525D01*
X213497240Y-89535000D01*
X213671632Y-89418475D01*
X213878475Y-89211632D01*
X214040990Y-88968411D01*
X214152932Y-88698158D01*
X214210000Y-88411260D01*
X214210000Y-88118740D01*
X214152932Y-87831842D01*
X214040990Y-87561589D01*
X213878475Y-87318368D01*
X213671632Y-87111525D01*
X213497240Y-86995000D01*
X213671632Y-86878475D01*
X213878475Y-86671632D01*
X214040990Y-86428411D01*
X214152932Y-86158158D01*
X214210000Y-85871260D01*
X214210000Y-85578740D01*
X214152932Y-85291842D01*
X214040990Y-85021589D01*
X213878475Y-84778368D01*
X213671632Y-84571525D01*
X213497240Y-84455000D01*
X213671632Y-84338475D01*
X213878475Y-84131632D01*
X214040990Y-83888411D01*
X214152932Y-83618158D01*
X214210000Y-83331260D01*
X214210000Y-83038740D01*
X214152932Y-82751842D01*
X214040990Y-82481589D01*
X213878475Y-82238368D01*
X213746620Y-82106513D01*
X213819180Y-82084502D01*
X213929494Y-82025537D01*
X214026185Y-81946185D01*
X214105537Y-81849494D01*
X214164502Y-81739180D01*
X214200812Y-81619482D01*
X214213072Y-81495000D01*
X214213072Y-80543061D01*
X214865000Y-80543061D01*
X214865000Y-80746939D01*
X214904774Y-80946898D01*
X214982795Y-81135256D01*
X215011001Y-81177469D01*
X215011000Y-89364340D01*
X215006700Y-89408000D01*
X215011000Y-89451660D01*
X215011000Y-89451666D01*
X215023864Y-89582273D01*
X215074697Y-89749850D01*
X215157247Y-89904290D01*
X215268341Y-90039659D01*
X215302264Y-90067499D01*
X221837044Y-96602280D01*
X221831000Y-96632665D01*
X221831000Y-96915335D01*
X221886147Y-97192574D01*
X221994320Y-97453727D01*
X222151363Y-97688759D01*
X222351241Y-97888637D01*
X222586273Y-98045680D01*
X222847426Y-98153853D01*
X223124665Y-98209000D01*
X223407335Y-98209000D01*
X223684574Y-98153853D01*
X223945727Y-98045680D01*
X224180759Y-97888637D01*
X224380637Y-97688759D01*
X224537680Y-97453727D01*
X224645853Y-97192574D01*
X224701000Y-96915335D01*
X224701000Y-96632665D01*
X224647756Y-96364992D01*
X224885044Y-96602280D01*
X224879000Y-96632665D01*
X224879000Y-96915335D01*
X224934147Y-97192574D01*
X225042320Y-97453727D01*
X225199363Y-97688759D01*
X225399241Y-97888637D01*
X225634273Y-98045680D01*
X225895426Y-98153853D01*
X226172665Y-98209000D01*
X226455335Y-98209000D01*
X226732574Y-98153853D01*
X226993727Y-98045680D01*
X227228759Y-97888637D01*
X227428637Y-97688759D01*
X227585680Y-97453727D01*
X227600961Y-97416836D01*
X227722709Y-97516753D01*
X227877149Y-97599303D01*
X227943058Y-97619296D01*
X228044724Y-97650136D01*
X228077924Y-97653406D01*
X228175333Y-97663000D01*
X228175339Y-97663000D01*
X228218999Y-97667300D01*
X228232159Y-97666004D01*
X228247363Y-97688759D01*
X228447241Y-97888637D01*
X228682273Y-98045680D01*
X228943426Y-98153853D01*
X229220665Y-98209000D01*
X229503335Y-98209000D01*
X229780574Y-98153853D01*
X230041727Y-98045680D01*
X230276759Y-97888637D01*
X230476637Y-97688759D01*
X230633680Y-97453727D01*
X230741853Y-97192574D01*
X230797000Y-96915335D01*
X230797000Y-96632665D01*
X230741853Y-96355426D01*
X230633680Y-96094273D01*
X230476637Y-95859241D01*
X230276759Y-95659363D01*
X230041727Y-95502320D01*
X229780574Y-95394147D01*
X229503335Y-95339000D01*
X229220665Y-95339000D01*
X228943426Y-95394147D01*
X228682273Y-95502320D01*
X228447241Y-95659363D01*
X228404420Y-95702184D01*
X223291236Y-90589000D01*
X223393002Y-90589000D01*
X223393002Y-90423916D01*
X223615039Y-90545904D01*
X223749087Y-90505246D01*
X224003420Y-90385037D01*
X224229414Y-90217519D01*
X224418385Y-90009131D01*
X224563070Y-89767881D01*
X224657909Y-89503040D01*
X224922091Y-89503040D01*
X225016930Y-89767881D01*
X225161615Y-90009131D01*
X225350586Y-90217519D01*
X225576580Y-90385037D01*
X225830913Y-90505246D01*
X225964961Y-90545904D01*
X226187000Y-90423915D01*
X226187000Y-89281000D01*
X226441000Y-89281000D01*
X226441000Y-90423915D01*
X226663039Y-90545904D01*
X226797087Y-90505246D01*
X227051420Y-90385037D01*
X227277414Y-90217519D01*
X227466385Y-90009131D01*
X227611070Y-89767881D01*
X227705909Y-89503040D01*
X227970091Y-89503040D01*
X228064930Y-89767881D01*
X228209615Y-90009131D01*
X228398586Y-90217519D01*
X228624580Y-90385037D01*
X228878913Y-90505246D01*
X229012961Y-90545904D01*
X229235000Y-90423915D01*
X229235000Y-89281000D01*
X229489000Y-89281000D01*
X229489000Y-90423915D01*
X229711039Y-90545904D01*
X229845087Y-90505246D01*
X230099420Y-90385037D01*
X230325414Y-90217519D01*
X230514385Y-90009131D01*
X230659070Y-89767881D01*
X230753909Y-89503040D01*
X230632624Y-89281000D01*
X229489000Y-89281000D01*
X229235000Y-89281000D01*
X228091376Y-89281000D01*
X227970091Y-89503040D01*
X227705909Y-89503040D01*
X227584624Y-89281000D01*
X226441000Y-89281000D01*
X226187000Y-89281000D01*
X225043376Y-89281000D01*
X224922091Y-89503040D01*
X224657909Y-89503040D01*
X224536624Y-89281000D01*
X223393000Y-89281000D01*
X223393000Y-89301000D01*
X223139000Y-89301000D01*
X223139000Y-89281000D01*
X223119000Y-89281000D01*
X223119000Y-89027000D01*
X223139000Y-89027000D01*
X223139000Y-87884085D01*
X223393000Y-87884085D01*
X223393000Y-89027000D01*
X224536624Y-89027000D01*
X224657909Y-88804960D01*
X224922091Y-88804960D01*
X225043376Y-89027000D01*
X226187000Y-89027000D01*
X226187000Y-87884085D01*
X226441000Y-87884085D01*
X226441000Y-89027000D01*
X227584624Y-89027000D01*
X227705909Y-88804960D01*
X227970091Y-88804960D01*
X228091376Y-89027000D01*
X229235000Y-89027000D01*
X229235000Y-87884085D01*
X229489000Y-87884085D01*
X229489000Y-89027000D01*
X230632624Y-89027000D01*
X230753909Y-88804960D01*
X230659070Y-88540119D01*
X230514385Y-88298869D01*
X230325414Y-88090481D01*
X230099420Y-87922963D01*
X229845087Y-87802754D01*
X229711039Y-87762096D01*
X229489000Y-87884085D01*
X229235000Y-87884085D01*
X229012961Y-87762096D01*
X228878913Y-87802754D01*
X228624580Y-87922963D01*
X228398586Y-88090481D01*
X228209615Y-88298869D01*
X228064930Y-88540119D01*
X227970091Y-88804960D01*
X227705909Y-88804960D01*
X227611070Y-88540119D01*
X227466385Y-88298869D01*
X227277414Y-88090481D01*
X227051420Y-87922963D01*
X226797087Y-87802754D01*
X226663039Y-87762096D01*
X226441000Y-87884085D01*
X226187000Y-87884085D01*
X225964961Y-87762096D01*
X225830913Y-87802754D01*
X225576580Y-87922963D01*
X225350586Y-88090481D01*
X225161615Y-88298869D01*
X225016930Y-88540119D01*
X224922091Y-88804960D01*
X224657909Y-88804960D01*
X224563070Y-88540119D01*
X224418385Y-88298869D01*
X224229414Y-88090481D01*
X224003420Y-87922963D01*
X223749087Y-87802754D01*
X223615039Y-87762096D01*
X223393000Y-87884085D01*
X223139000Y-87884085D01*
X222916961Y-87762096D01*
X222782913Y-87802754D01*
X222528580Y-87922963D01*
X222302586Y-88090481D01*
X222113615Y-88298869D01*
X221968930Y-88540119D01*
X221874091Y-88804960D01*
X221995375Y-89026998D01*
X221831000Y-89026998D01*
X221831000Y-89128765D01*
X221742000Y-89039765D01*
X221742000Y-86384468D01*
X221770205Y-86342256D01*
X221848226Y-86153898D01*
X221888000Y-85953939D01*
X221888000Y-85750061D01*
X221848226Y-85550102D01*
X221770205Y-85361744D01*
X221656937Y-85192226D01*
X221512774Y-85048063D01*
X221343256Y-84934795D01*
X221154898Y-84856774D01*
X220954939Y-84817000D01*
X220751061Y-84817000D01*
X220551102Y-84856774D01*
X220362744Y-84934795D01*
X220193226Y-85048063D01*
X220049063Y-85192226D01*
X219935795Y-85361744D01*
X219857774Y-85550102D01*
X219818000Y-85750061D01*
X219818000Y-85953939D01*
X219857774Y-86153898D01*
X219935795Y-86342256D01*
X219964001Y-86384469D01*
X219964000Y-89166765D01*
X219329000Y-88531765D01*
X219329000Y-83717468D01*
X219357205Y-83675256D01*
X219435226Y-83486898D01*
X219475000Y-83286939D01*
X219475000Y-83083061D01*
X219435226Y-82883102D01*
X219357205Y-82694744D01*
X219243937Y-82525226D01*
X219099774Y-82381063D01*
X218930256Y-82267795D01*
X218741898Y-82189774D01*
X218541939Y-82150000D01*
X218338061Y-82150000D01*
X218138102Y-82189774D01*
X217949744Y-82267795D01*
X217780226Y-82381063D01*
X217636063Y-82525226D01*
X217522795Y-82694744D01*
X217444774Y-82883102D01*
X217405000Y-83083061D01*
X217405000Y-83286939D01*
X217444774Y-83486898D01*
X217522795Y-83675256D01*
X217551001Y-83717469D01*
X217551000Y-88856340D01*
X217546700Y-88900000D01*
X217551000Y-88943660D01*
X217551000Y-88943666D01*
X217563864Y-89074273D01*
X217614697Y-89241850D01*
X217697247Y-89396290D01*
X217808341Y-89531659D01*
X217842264Y-89559499D01*
X223675009Y-95392244D01*
X223407335Y-95339000D01*
X223124665Y-95339000D01*
X223094280Y-95345044D01*
X216789000Y-89039765D01*
X216789000Y-81177468D01*
X216817205Y-81135256D01*
X216895226Y-80946898D01*
X216935000Y-80746939D01*
X216935000Y-80543061D01*
X216895226Y-80343102D01*
X216817205Y-80154744D01*
X216703937Y-79985226D01*
X216559774Y-79841063D01*
X216390256Y-79727795D01*
X216201898Y-79649774D01*
X216001939Y-79610000D01*
X215798061Y-79610000D01*
X215598102Y-79649774D01*
X215409744Y-79727795D01*
X215240226Y-79841063D01*
X215096063Y-79985226D01*
X214982795Y-80154744D01*
X214904774Y-80343102D01*
X214865000Y-80543061D01*
X214213072Y-80543061D01*
X214213072Y-79795000D01*
X214200812Y-79670518D01*
X214164502Y-79550820D01*
X214105537Y-79440506D01*
X214026185Y-79343815D01*
X213929494Y-79264463D01*
X213819180Y-79205498D01*
X213699482Y-79169188D01*
X213575000Y-79156928D01*
X211875000Y-79156928D01*
X211750518Y-79169188D01*
X211630820Y-79205498D01*
X211520506Y-79264463D01*
X211423815Y-79343815D01*
X211344463Y-79440506D01*
X211285498Y-79550820D01*
X211249188Y-79670518D01*
X211236928Y-79795000D01*
X210845000Y-79795000D01*
X210845000Y-75418740D01*
X211240000Y-75418740D01*
X211240000Y-75711260D01*
X211297068Y-75998158D01*
X211409010Y-76268411D01*
X211571525Y-76511632D01*
X211778368Y-76718475D01*
X212021589Y-76880990D01*
X212291842Y-76992932D01*
X212578740Y-77050000D01*
X212871260Y-77050000D01*
X213158158Y-76992932D01*
X213428411Y-76880990D01*
X213671632Y-76718475D01*
X213878475Y-76511632D01*
X214040990Y-76268411D01*
X214152932Y-75998158D01*
X214210000Y-75711260D01*
X214210000Y-75418740D01*
X214152932Y-75131842D01*
X214040990Y-74861589D01*
X213878475Y-74618368D01*
X213671632Y-74411525D01*
X213489466Y-74289805D01*
X213606355Y-74220178D01*
X213822588Y-74025269D01*
X213996641Y-73791920D01*
X214121825Y-73529099D01*
X214166476Y-73381890D01*
X214045155Y-73152000D01*
X212852000Y-73152000D01*
X212852000Y-73172000D01*
X212598000Y-73172000D01*
X212598000Y-73152000D01*
X211404845Y-73152000D01*
X211283524Y-73381890D01*
X211328175Y-73529099D01*
X211453359Y-73791920D01*
X211627412Y-74025269D01*
X211843645Y-74220178D01*
X211960534Y-74289805D01*
X211778368Y-74411525D01*
X211571525Y-74618368D01*
X211409010Y-74861589D01*
X211297068Y-75131842D01*
X211240000Y-75418740D01*
X210845000Y-75418740D01*
X210845000Y-70841890D01*
X211283524Y-70841890D01*
X211328175Y-70989099D01*
X211453359Y-71251920D01*
X211627412Y-71485269D01*
X211843645Y-71680178D01*
X211969255Y-71755000D01*
X211843645Y-71829822D01*
X211627412Y-72024731D01*
X211453359Y-72258080D01*
X211328175Y-72520901D01*
X211283524Y-72668110D01*
X211404845Y-72898000D01*
X212598000Y-72898000D01*
X212598000Y-70612000D01*
X211404845Y-70612000D01*
X211283524Y-70841890D01*
X210845000Y-70841890D01*
X210845000Y-56935000D01*
X211236928Y-56935000D01*
X211236928Y-58635000D01*
X211249188Y-58759482D01*
X211285498Y-58879180D01*
X211344463Y-58989494D01*
X211423815Y-59086185D01*
X211520506Y-59165537D01*
X211630820Y-59224502D01*
X211703380Y-59246513D01*
X211571525Y-59378368D01*
X211409010Y-59621589D01*
X211297068Y-59891842D01*
X211240000Y-60178740D01*
X211240000Y-60471260D01*
X211297068Y-60758158D01*
X211409010Y-61028411D01*
X211571525Y-61271632D01*
X211778368Y-61478475D01*
X211952760Y-61595000D01*
X211778368Y-61711525D01*
X211571525Y-61918368D01*
X211409010Y-62161589D01*
X211297068Y-62431842D01*
X211240000Y-62718740D01*
X211240000Y-63011260D01*
X211297068Y-63298158D01*
X211409010Y-63568411D01*
X211571525Y-63811632D01*
X211778368Y-64018475D01*
X211952760Y-64135000D01*
X211778368Y-64251525D01*
X211571525Y-64458368D01*
X211409010Y-64701589D01*
X211297068Y-64971842D01*
X211240000Y-65258740D01*
X211240000Y-65551260D01*
X211297068Y-65838158D01*
X211409010Y-66108411D01*
X211571525Y-66351632D01*
X211778368Y-66558475D01*
X211952760Y-66675000D01*
X211778368Y-66791525D01*
X211571525Y-66998368D01*
X211409010Y-67241589D01*
X211297068Y-67511842D01*
X211240000Y-67798740D01*
X211240000Y-68091260D01*
X211297068Y-68378158D01*
X211409010Y-68648411D01*
X211571525Y-68891632D01*
X211778368Y-69098475D01*
X211960534Y-69220195D01*
X211843645Y-69289822D01*
X211627412Y-69484731D01*
X211453359Y-69718080D01*
X211328175Y-69980901D01*
X211283524Y-70128110D01*
X211404845Y-70358000D01*
X212598000Y-70358000D01*
X212598000Y-70338000D01*
X212852000Y-70338000D01*
X212852000Y-70358000D01*
X212872000Y-70358000D01*
X212872000Y-70612000D01*
X212852000Y-70612000D01*
X212852000Y-72898000D01*
X214045155Y-72898000D01*
X214166476Y-72668110D01*
X214121825Y-72520901D01*
X213996641Y-72258080D01*
X213822588Y-72024731D01*
X213606355Y-71829822D01*
X213480745Y-71755000D01*
X213606355Y-71680178D01*
X213822588Y-71485269D01*
X213996641Y-71251920D01*
X214121825Y-70989099D01*
X214166476Y-70841890D01*
X214045371Y-70612409D01*
X215455500Y-72022538D01*
X215455500Y-72343215D01*
X215450892Y-72390000D01*
X215455500Y-72436784D01*
X215455500Y-72436785D01*
X215469283Y-72576723D01*
X215523749Y-72756269D01*
X215612195Y-72921741D01*
X215731223Y-73066778D01*
X215767564Y-73096602D01*
X235902501Y-93231540D01*
X235902500Y-102464953D01*
X235859774Y-102568102D01*
X235820000Y-102768061D01*
X235820000Y-102971939D01*
X235859774Y-103171898D01*
X235937795Y-103360256D01*
X236051063Y-103529774D01*
X236195226Y-103673937D01*
X236364744Y-103787205D01*
X236553102Y-103865226D01*
X236753061Y-103905000D01*
X236956939Y-103905000D01*
X237156898Y-103865226D01*
X237345256Y-103787205D01*
X237514774Y-103673937D01*
X237658937Y-103529774D01*
X237772205Y-103360256D01*
X237850226Y-103171898D01*
X237890000Y-102971939D01*
X237890000Y-102768061D01*
X237883144Y-102733589D01*
X243059000Y-102733589D01*
X243059000Y-103006411D01*
X243112225Y-103273989D01*
X243216629Y-103526043D01*
X243368201Y-103752886D01*
X243561114Y-103945799D01*
X243787957Y-104097371D01*
X244040011Y-104201775D01*
X244307589Y-104255000D01*
X244580411Y-104255000D01*
X244847989Y-104201775D01*
X245100043Y-104097371D01*
X245326886Y-103945799D01*
X245519799Y-103752886D01*
X245671371Y-103526043D01*
X245775775Y-103273989D01*
X245829000Y-103006411D01*
X245829000Y-102733589D01*
X246059000Y-102733589D01*
X246059000Y-103006411D01*
X246112225Y-103273989D01*
X246216629Y-103526043D01*
X246368201Y-103752886D01*
X246561114Y-103945799D01*
X246787957Y-104097371D01*
X247040011Y-104201775D01*
X247307589Y-104255000D01*
X247580411Y-104255000D01*
X247847989Y-104201775D01*
X248100043Y-104097371D01*
X248326886Y-103945799D01*
X248519799Y-103752886D01*
X248671371Y-103526043D01*
X248775775Y-103273989D01*
X248829000Y-103006411D01*
X248829000Y-102733589D01*
X248775775Y-102466011D01*
X248736007Y-102370000D01*
X249055928Y-102370000D01*
X249055928Y-103370000D01*
X249072992Y-103543254D01*
X249123528Y-103709850D01*
X249205595Y-103863386D01*
X249316038Y-103997962D01*
X249450614Y-104108405D01*
X249604150Y-104190472D01*
X249770746Y-104241008D01*
X249944000Y-104258072D01*
X250944000Y-104258072D01*
X251117254Y-104241008D01*
X251283850Y-104190472D01*
X251437386Y-104108405D01*
X251571962Y-103997962D01*
X251682405Y-103863386D01*
X251764472Y-103709850D01*
X251815008Y-103543254D01*
X251832072Y-103370000D01*
X251832072Y-102370000D01*
X251815008Y-102196746D01*
X251764472Y-102030150D01*
X251682405Y-101876614D01*
X251571962Y-101742038D01*
X251437386Y-101631595D01*
X251283850Y-101549528D01*
X251117254Y-101498992D01*
X250944000Y-101481928D01*
X249944000Y-101481928D01*
X249770746Y-101498992D01*
X249604150Y-101549528D01*
X249450614Y-101631595D01*
X249316038Y-101742038D01*
X249205595Y-101876614D01*
X249123528Y-102030150D01*
X249072992Y-102196746D01*
X249055928Y-102370000D01*
X248736007Y-102370000D01*
X248671371Y-102213957D01*
X248519799Y-101987114D01*
X248326886Y-101794201D01*
X248100043Y-101642629D01*
X247847989Y-101538225D01*
X247580411Y-101485000D01*
X247307589Y-101485000D01*
X247040011Y-101538225D01*
X246787957Y-101642629D01*
X246561114Y-101794201D01*
X246368201Y-101987114D01*
X246216629Y-102213957D01*
X246112225Y-102466011D01*
X246059000Y-102733589D01*
X245829000Y-102733589D01*
X245775775Y-102466011D01*
X245671371Y-102213957D01*
X245519799Y-101987114D01*
X245326886Y-101794201D01*
X245100043Y-101642629D01*
X244847989Y-101538225D01*
X244580411Y-101485000D01*
X244307589Y-101485000D01*
X244040011Y-101538225D01*
X243787957Y-101642629D01*
X243561114Y-101794201D01*
X243368201Y-101987114D01*
X243216629Y-102213957D01*
X243112225Y-102466011D01*
X243059000Y-102733589D01*
X237883144Y-102733589D01*
X237850226Y-102568102D01*
X237807500Y-102464953D01*
X237807500Y-99733589D01*
X243059000Y-99733589D01*
X243059000Y-100006411D01*
X243112225Y-100273989D01*
X243216629Y-100526043D01*
X243368201Y-100752886D01*
X243561114Y-100945799D01*
X243787957Y-101097371D01*
X244040011Y-101201775D01*
X244307589Y-101255000D01*
X244580411Y-101255000D01*
X244847989Y-101201775D01*
X245100043Y-101097371D01*
X245326886Y-100945799D01*
X245519799Y-100752886D01*
X245671371Y-100526043D01*
X245775775Y-100273989D01*
X245829000Y-100006411D01*
X245829000Y-99733589D01*
X246059000Y-99733589D01*
X246059000Y-100006411D01*
X246112225Y-100273989D01*
X246216629Y-100526043D01*
X246368201Y-100752886D01*
X246561114Y-100945799D01*
X246787957Y-101097371D01*
X247040011Y-101201775D01*
X247307589Y-101255000D01*
X247580411Y-101255000D01*
X247847989Y-101201775D01*
X248100043Y-101097371D01*
X248326886Y-100945799D01*
X248519799Y-100752886D01*
X248671371Y-100526043D01*
X248775775Y-100273989D01*
X248829000Y-100006411D01*
X248829000Y-99733589D01*
X249059000Y-99733589D01*
X249059000Y-100006411D01*
X249112225Y-100273989D01*
X249216629Y-100526043D01*
X249368201Y-100752886D01*
X249561114Y-100945799D01*
X249787957Y-101097371D01*
X250040011Y-101201775D01*
X250307589Y-101255000D01*
X250580411Y-101255000D01*
X250847989Y-101201775D01*
X251100043Y-101097371D01*
X251326886Y-100945799D01*
X251519799Y-100752886D01*
X251671371Y-100526043D01*
X251775775Y-100273989D01*
X251829000Y-100006411D01*
X251829000Y-99733589D01*
X251775775Y-99466011D01*
X251671371Y-99213957D01*
X251519799Y-98987114D01*
X251326886Y-98794201D01*
X251100043Y-98642629D01*
X250847989Y-98538225D01*
X250580411Y-98485000D01*
X250307589Y-98485000D01*
X250040011Y-98538225D01*
X249787957Y-98642629D01*
X249561114Y-98794201D01*
X249368201Y-98987114D01*
X249216629Y-99213957D01*
X249112225Y-99466011D01*
X249059000Y-99733589D01*
X248829000Y-99733589D01*
X248775775Y-99466011D01*
X248671371Y-99213957D01*
X248519799Y-98987114D01*
X248326886Y-98794201D01*
X248100043Y-98642629D01*
X247847989Y-98538225D01*
X247580411Y-98485000D01*
X247307589Y-98485000D01*
X247040011Y-98538225D01*
X246787957Y-98642629D01*
X246561114Y-98794201D01*
X246368201Y-98987114D01*
X246216629Y-99213957D01*
X246112225Y-99466011D01*
X246059000Y-99733589D01*
X245829000Y-99733589D01*
X245775775Y-99466011D01*
X245671371Y-99213957D01*
X245519799Y-98987114D01*
X245326886Y-98794201D01*
X245100043Y-98642629D01*
X244847989Y-98538225D01*
X244580411Y-98485000D01*
X244307589Y-98485000D01*
X244040011Y-98538225D01*
X243787957Y-98642629D01*
X243561114Y-98794201D01*
X243368201Y-98987114D01*
X243216629Y-99213957D01*
X243112225Y-99466011D01*
X243059000Y-99733589D01*
X237807500Y-99733589D01*
X237807500Y-92883785D01*
X237812108Y-92837000D01*
X237793717Y-92650278D01*
X237791082Y-92641589D01*
X237739252Y-92470731D01*
X237739252Y-92470730D01*
X237695029Y-92387995D01*
X237650806Y-92305259D01*
X237531778Y-92160222D01*
X237495436Y-92130397D01*
X225273100Y-79908061D01*
X230740000Y-79908061D01*
X230740000Y-80111939D01*
X230779774Y-80311898D01*
X230857795Y-80500256D01*
X230886001Y-80542469D01*
X230886000Y-81236339D01*
X230881700Y-81280000D01*
X230886000Y-81323660D01*
X230886000Y-81323666D01*
X230898864Y-81454273D01*
X230949697Y-81621850D01*
X231032247Y-81776290D01*
X231143341Y-81911659D01*
X231177264Y-81939499D01*
X243586001Y-94348236D01*
X243586000Y-95642151D01*
X243560241Y-95659363D01*
X243360363Y-95859241D01*
X243203320Y-96094273D01*
X243095147Y-96355426D01*
X243040000Y-96632665D01*
X243040000Y-96915335D01*
X243095147Y-97192574D01*
X243203320Y-97453727D01*
X243360363Y-97688759D01*
X243560241Y-97888637D01*
X243795273Y-98045680D01*
X244056426Y-98153853D01*
X244333665Y-98209000D01*
X244616335Y-98209000D01*
X244893574Y-98153853D01*
X245154727Y-98045680D01*
X245389759Y-97888637D01*
X245589637Y-97688759D01*
X245746680Y-97453727D01*
X245854853Y-97192574D01*
X245910000Y-96915335D01*
X245910000Y-96632665D01*
X245854853Y-96355426D01*
X245746680Y-96094273D01*
X245589637Y-95859241D01*
X245389759Y-95659363D01*
X245364000Y-95642151D01*
X245364000Y-94023659D01*
X245368300Y-93979999D01*
X245364000Y-93936339D01*
X245364000Y-93936333D01*
X245351136Y-93805726D01*
X245351136Y-93805724D01*
X245300302Y-93638147D01*
X245277078Y-93594699D01*
X245217753Y-93483709D01*
X245106659Y-93348341D01*
X245072736Y-93320501D01*
X239047526Y-87295291D01*
X239079395Y-87301630D01*
X246634001Y-94856236D01*
X246634000Y-95642151D01*
X246608241Y-95659363D01*
X246408363Y-95859241D01*
X246251320Y-96094273D01*
X246143147Y-96355426D01*
X246088000Y-96632665D01*
X246088000Y-96915335D01*
X246143147Y-97192574D01*
X246251320Y-97453727D01*
X246408363Y-97688759D01*
X246608241Y-97888637D01*
X246843273Y-98045680D01*
X247104426Y-98153853D01*
X247381665Y-98209000D01*
X247664335Y-98209000D01*
X247941574Y-98153853D01*
X248202727Y-98045680D01*
X248437759Y-97888637D01*
X248637637Y-97688759D01*
X248794680Y-97453727D01*
X248902853Y-97192574D01*
X248958000Y-96915335D01*
X248958000Y-96632665D01*
X249136000Y-96632665D01*
X249136000Y-96915335D01*
X249191147Y-97192574D01*
X249299320Y-97453727D01*
X249456363Y-97688759D01*
X249656241Y-97888637D01*
X249891273Y-98045680D01*
X250152426Y-98153853D01*
X250429665Y-98209000D01*
X250712335Y-98209000D01*
X250989574Y-98153853D01*
X251250727Y-98045680D01*
X251485759Y-97888637D01*
X251685637Y-97688759D01*
X251842680Y-97453727D01*
X251950853Y-97192574D01*
X252006000Y-96915335D01*
X252006000Y-96632665D01*
X251999956Y-96602279D01*
X253367743Y-95234493D01*
X253401659Y-95206659D01*
X253512753Y-95071291D01*
X253595303Y-94916851D01*
X253646136Y-94749274D01*
X253659000Y-94618667D01*
X253659000Y-94618660D01*
X253663300Y-94575000D01*
X253659000Y-94531340D01*
X253659000Y-75930468D01*
X253687205Y-75888256D01*
X253765226Y-75699898D01*
X253805000Y-75499939D01*
X253805000Y-75296061D01*
X253765226Y-75096102D01*
X253687205Y-74907744D01*
X253573937Y-74738226D01*
X253429774Y-74594063D01*
X253260256Y-74480795D01*
X253071898Y-74402774D01*
X252871939Y-74363000D01*
X252668061Y-74363000D01*
X252468102Y-74402774D01*
X252279744Y-74480795D01*
X252110226Y-74594063D01*
X251966063Y-74738226D01*
X251852795Y-74907744D01*
X251774774Y-75096102D01*
X251735000Y-75296061D01*
X251735000Y-75499939D01*
X251774774Y-75699898D01*
X251852795Y-75888256D01*
X251881001Y-75930469D01*
X251881000Y-88576227D01*
X251868070Y-88540119D01*
X251723385Y-88298869D01*
X251534414Y-88090481D01*
X251308420Y-87922963D01*
X251054087Y-87802754D01*
X250920039Y-87762096D01*
X250698000Y-87884085D01*
X250698000Y-89027000D01*
X250718000Y-89027000D01*
X250718000Y-89281000D01*
X250698000Y-89281000D01*
X250698000Y-90423915D01*
X250920039Y-90545904D01*
X251054087Y-90505246D01*
X251308420Y-90385037D01*
X251534414Y-90217519D01*
X251723385Y-90009131D01*
X251868070Y-89767881D01*
X251881000Y-89731773D01*
X251881000Y-94206764D01*
X250742721Y-95345044D01*
X250712335Y-95339000D01*
X250429665Y-95339000D01*
X250152426Y-95394147D01*
X249891273Y-95502320D01*
X249656241Y-95659363D01*
X249456363Y-95859241D01*
X249299320Y-96094273D01*
X249191147Y-96355426D01*
X249136000Y-96632665D01*
X248958000Y-96632665D01*
X248902853Y-96355426D01*
X248794680Y-96094273D01*
X248637637Y-95859241D01*
X248437759Y-95659363D01*
X248412000Y-95642151D01*
X248412000Y-94531659D01*
X248416300Y-94487999D01*
X248412000Y-94444339D01*
X248412000Y-94444333D01*
X248402406Y-94346924D01*
X248399136Y-94313724D01*
X248368296Y-94212058D01*
X248348303Y-94146149D01*
X248265753Y-93991709D01*
X248154659Y-93856341D01*
X248120736Y-93828501D01*
X244834858Y-90542623D01*
X244958087Y-90505246D01*
X245212420Y-90385037D01*
X245438414Y-90217519D01*
X245627385Y-90009131D01*
X245772070Y-89767881D01*
X245866909Y-89503040D01*
X246131091Y-89503040D01*
X246225930Y-89767881D01*
X246370615Y-90009131D01*
X246559586Y-90217519D01*
X246785580Y-90385037D01*
X247039913Y-90505246D01*
X247173961Y-90545904D01*
X247396000Y-90423915D01*
X247396000Y-89281000D01*
X247650000Y-89281000D01*
X247650000Y-90423915D01*
X247872039Y-90545904D01*
X248006087Y-90505246D01*
X248260420Y-90385037D01*
X248486414Y-90217519D01*
X248675385Y-90009131D01*
X248820070Y-89767881D01*
X248914909Y-89503040D01*
X249179091Y-89503040D01*
X249273930Y-89767881D01*
X249418615Y-90009131D01*
X249607586Y-90217519D01*
X249833580Y-90385037D01*
X250087913Y-90505246D01*
X250221961Y-90545904D01*
X250444000Y-90423915D01*
X250444000Y-89281000D01*
X249300376Y-89281000D01*
X249179091Y-89503040D01*
X248914909Y-89503040D01*
X248793624Y-89281000D01*
X247650000Y-89281000D01*
X247396000Y-89281000D01*
X246252376Y-89281000D01*
X246131091Y-89503040D01*
X245866909Y-89503040D01*
X245745624Y-89281000D01*
X244602000Y-89281000D01*
X244602000Y-89301000D01*
X244348000Y-89301000D01*
X244348000Y-89281000D01*
X244328000Y-89281000D01*
X244328000Y-89027000D01*
X244348000Y-89027000D01*
X244348000Y-87884085D01*
X244602000Y-87884085D01*
X244602000Y-89027000D01*
X245745624Y-89027000D01*
X245866909Y-88804960D01*
X246131091Y-88804960D01*
X246252376Y-89027000D01*
X247396000Y-89027000D01*
X247396000Y-87884085D01*
X247650000Y-87884085D01*
X247650000Y-89027000D01*
X248793624Y-89027000D01*
X248914909Y-88804960D01*
X249179091Y-88804960D01*
X249300376Y-89027000D01*
X250444000Y-89027000D01*
X250444000Y-87884085D01*
X250221961Y-87762096D01*
X250087913Y-87802754D01*
X249833580Y-87922963D01*
X249607586Y-88090481D01*
X249418615Y-88298869D01*
X249273930Y-88540119D01*
X249179091Y-88804960D01*
X248914909Y-88804960D01*
X248820070Y-88540119D01*
X248675385Y-88298869D01*
X248486414Y-88090481D01*
X248260420Y-87922963D01*
X248006087Y-87802754D01*
X247872039Y-87762096D01*
X247650000Y-87884085D01*
X247396000Y-87884085D01*
X247173961Y-87762096D01*
X247039913Y-87802754D01*
X246785580Y-87922963D01*
X246559586Y-88090481D01*
X246370615Y-88298869D01*
X246225930Y-88540119D01*
X246131091Y-88804960D01*
X245866909Y-88804960D01*
X245772070Y-88540119D01*
X245627385Y-88298869D01*
X245438414Y-88090481D01*
X245212420Y-87922963D01*
X244958087Y-87802754D01*
X244824039Y-87762096D01*
X244602000Y-87884085D01*
X244348000Y-87884085D01*
X244125961Y-87762096D01*
X243991913Y-87802754D01*
X243737580Y-87922963D01*
X243511586Y-88090481D01*
X243322615Y-88298869D01*
X243177930Y-88540119D01*
X243086810Y-88794575D01*
X240336630Y-86044395D01*
X240326726Y-85994602D01*
X240248705Y-85806244D01*
X240135437Y-85636726D01*
X239991274Y-85492563D01*
X239821756Y-85379295D01*
X239633398Y-85301274D01*
X239433439Y-85261500D01*
X239229561Y-85261500D01*
X239029602Y-85301274D01*
X238841244Y-85379295D01*
X238671726Y-85492563D01*
X238527563Y-85636726D01*
X238414295Y-85806244D01*
X238336274Y-85994602D01*
X238296500Y-86194561D01*
X238296500Y-86398439D01*
X238332709Y-86580474D01*
X232664000Y-80911765D01*
X232664000Y-80542468D01*
X232692205Y-80500256D01*
X232770226Y-80311898D01*
X232810000Y-80111939D01*
X232810000Y-79908061D01*
X232770226Y-79708102D01*
X232692205Y-79519744D01*
X232578937Y-79350226D01*
X232434774Y-79206063D01*
X232265256Y-79092795D01*
X232076898Y-79014774D01*
X231876939Y-78975000D01*
X231673061Y-78975000D01*
X231473102Y-79014774D01*
X231284744Y-79092795D01*
X231115226Y-79206063D01*
X230971063Y-79350226D01*
X230857795Y-79519744D01*
X230779774Y-79708102D01*
X230740000Y-79908061D01*
X225273100Y-79908061D01*
X217360500Y-71995462D01*
X217360500Y-71674785D01*
X217365108Y-71628000D01*
X217351050Y-71485269D01*
X217346717Y-71441277D01*
X217308147Y-71314129D01*
X217365363Y-71399759D01*
X217565241Y-71599637D01*
X217800273Y-71756680D01*
X218061426Y-71864853D01*
X218338665Y-71920000D01*
X218621335Y-71920000D01*
X218898574Y-71864853D01*
X219159727Y-71756680D01*
X219394759Y-71599637D01*
X219561339Y-71433057D01*
X219590498Y-71529180D01*
X219649463Y-71639494D01*
X219728815Y-71736185D01*
X219825506Y-71815537D01*
X219935820Y-71874502D01*
X220055518Y-71910812D01*
X220180000Y-71923072D01*
X220694250Y-71920000D01*
X220853000Y-71761250D01*
X220853000Y-70612000D01*
X221107000Y-70612000D01*
X221107000Y-71761250D01*
X221265750Y-71920000D01*
X221780000Y-71923072D01*
X221904482Y-71910812D01*
X222024180Y-71874502D01*
X222134494Y-71815537D01*
X222231185Y-71736185D01*
X222310537Y-71639494D01*
X222369502Y-71529180D01*
X222405812Y-71409482D01*
X222418072Y-71285000D01*
X222415000Y-70770750D01*
X222256250Y-70612000D01*
X221107000Y-70612000D01*
X220853000Y-70612000D01*
X220833000Y-70612000D01*
X220833000Y-70358000D01*
X220853000Y-70358000D01*
X220853000Y-69208750D01*
X221107000Y-69208750D01*
X221107000Y-70358000D01*
X222256250Y-70358000D01*
X222270585Y-70343665D01*
X222760000Y-70343665D01*
X222760000Y-70626335D01*
X222815147Y-70903574D01*
X222923320Y-71164727D01*
X223080363Y-71399759D01*
X223280241Y-71599637D01*
X223515273Y-71756680D01*
X223776426Y-71864853D01*
X224053665Y-71920000D01*
X224336335Y-71920000D01*
X224613574Y-71864853D01*
X224874727Y-71756680D01*
X225109759Y-71599637D01*
X225276339Y-71433057D01*
X225305498Y-71529180D01*
X225364463Y-71639494D01*
X225443815Y-71736185D01*
X225540506Y-71815537D01*
X225650820Y-71874502D01*
X225770518Y-71910812D01*
X225895000Y-71923072D01*
X226409250Y-71920000D01*
X226568000Y-71761250D01*
X226568000Y-70612000D01*
X226822000Y-70612000D01*
X226822000Y-71761250D01*
X226980750Y-71920000D01*
X227495000Y-71923072D01*
X227619482Y-71910812D01*
X227739180Y-71874502D01*
X227849494Y-71815537D01*
X227946185Y-71736185D01*
X228025537Y-71639494D01*
X228084502Y-71529180D01*
X228120812Y-71409482D01*
X228133072Y-71285000D01*
X228130000Y-70770750D01*
X227971250Y-70612000D01*
X226822000Y-70612000D01*
X226568000Y-70612000D01*
X226548000Y-70612000D01*
X226548000Y-70358000D01*
X226568000Y-70358000D01*
X226568000Y-69208750D01*
X226822000Y-69208750D01*
X226822000Y-70358000D01*
X227971250Y-70358000D01*
X227985585Y-70343665D01*
X228475000Y-70343665D01*
X228475000Y-70626335D01*
X228530147Y-70903574D01*
X228638320Y-71164727D01*
X228795363Y-71399759D01*
X228995241Y-71599637D01*
X229230273Y-71756680D01*
X229491426Y-71864853D01*
X229768665Y-71920000D01*
X230051335Y-71920000D01*
X230328574Y-71864853D01*
X230589727Y-71756680D01*
X230824759Y-71599637D01*
X230991339Y-71433057D01*
X231020498Y-71529180D01*
X231079463Y-71639494D01*
X231158815Y-71736185D01*
X231255506Y-71815537D01*
X231365820Y-71874502D01*
X231485518Y-71910812D01*
X231610000Y-71923072D01*
X232124250Y-71920000D01*
X232283000Y-71761250D01*
X232283000Y-70612000D01*
X232537000Y-70612000D01*
X232537000Y-71761250D01*
X232695750Y-71920000D01*
X233210000Y-71923072D01*
X233334482Y-71910812D01*
X233454180Y-71874502D01*
X233564494Y-71815537D01*
X233661185Y-71736185D01*
X233740537Y-71639494D01*
X233799502Y-71529180D01*
X233835812Y-71409482D01*
X233848072Y-71285000D01*
X233846325Y-70992435D01*
X235264871Y-70992435D01*
X235369644Y-71295344D01*
X235531499Y-71571992D01*
X235744215Y-71811748D01*
X235999618Y-72005399D01*
X236287893Y-72145502D01*
X236474566Y-72202124D01*
X236728000Y-72082777D01*
X236728000Y-70739000D01*
X236982000Y-70739000D01*
X236982000Y-72082777D01*
X237235434Y-72202124D01*
X237422107Y-72145502D01*
X237710382Y-72005399D01*
X237965785Y-71811748D01*
X238178501Y-71571992D01*
X238340356Y-71295344D01*
X238445129Y-70992435D01*
X238326315Y-70739000D01*
X236982000Y-70739000D01*
X236728000Y-70739000D01*
X235383685Y-70739000D01*
X235264871Y-70992435D01*
X233846325Y-70992435D01*
X233845000Y-70770750D01*
X233686250Y-70612000D01*
X232537000Y-70612000D01*
X232283000Y-70612000D01*
X232263000Y-70612000D01*
X232263000Y-70358000D01*
X232283000Y-70358000D01*
X232283000Y-69208750D01*
X232537000Y-69208750D01*
X232537000Y-70358000D01*
X233686250Y-70358000D01*
X233845000Y-70199250D01*
X233848072Y-69685000D01*
X233835812Y-69560518D01*
X233799502Y-69440820D01*
X233740537Y-69330506D01*
X233661185Y-69233815D01*
X233564494Y-69154463D01*
X233454180Y-69095498D01*
X233334482Y-69059188D01*
X233210000Y-69046928D01*
X232695750Y-69050000D01*
X232537000Y-69208750D01*
X232283000Y-69208750D01*
X232124250Y-69050000D01*
X231610000Y-69046928D01*
X231485518Y-69059188D01*
X231365820Y-69095498D01*
X231255506Y-69154463D01*
X231158815Y-69233815D01*
X231079463Y-69330506D01*
X231020498Y-69440820D01*
X230991339Y-69536943D01*
X230824759Y-69370363D01*
X230589727Y-69213320D01*
X230328574Y-69105147D01*
X230051335Y-69050000D01*
X229768665Y-69050000D01*
X229491426Y-69105147D01*
X229230273Y-69213320D01*
X228995241Y-69370363D01*
X228795363Y-69570241D01*
X228638320Y-69805273D01*
X228530147Y-70066426D01*
X228475000Y-70343665D01*
X227985585Y-70343665D01*
X228130000Y-70199250D01*
X228133072Y-69685000D01*
X228120812Y-69560518D01*
X228084502Y-69440820D01*
X228025537Y-69330506D01*
X227946185Y-69233815D01*
X227849494Y-69154463D01*
X227739180Y-69095498D01*
X227619482Y-69059188D01*
X227495000Y-69046928D01*
X226980750Y-69050000D01*
X226822000Y-69208750D01*
X226568000Y-69208750D01*
X226409250Y-69050000D01*
X225895000Y-69046928D01*
X225770518Y-69059188D01*
X225650820Y-69095498D01*
X225540506Y-69154463D01*
X225443815Y-69233815D01*
X225364463Y-69330506D01*
X225305498Y-69440820D01*
X225276339Y-69536943D01*
X225109759Y-69370363D01*
X224874727Y-69213320D01*
X224613574Y-69105147D01*
X224336335Y-69050000D01*
X224053665Y-69050000D01*
X223776426Y-69105147D01*
X223515273Y-69213320D01*
X223280241Y-69370363D01*
X223080363Y-69570241D01*
X222923320Y-69805273D01*
X222815147Y-70066426D01*
X222760000Y-70343665D01*
X222270585Y-70343665D01*
X222415000Y-70199250D01*
X222418072Y-69685000D01*
X222405812Y-69560518D01*
X222369502Y-69440820D01*
X222310537Y-69330506D01*
X222231185Y-69233815D01*
X222134494Y-69154463D01*
X222024180Y-69095498D01*
X221904482Y-69059188D01*
X221780000Y-69046928D01*
X221265750Y-69050000D01*
X221107000Y-69208750D01*
X220853000Y-69208750D01*
X220694250Y-69050000D01*
X220180000Y-69046928D01*
X220055518Y-69059188D01*
X219935820Y-69095498D01*
X219825506Y-69154463D01*
X219728815Y-69233815D01*
X219649463Y-69330506D01*
X219590498Y-69440820D01*
X219561339Y-69536943D01*
X219394759Y-69370363D01*
X219159727Y-69213320D01*
X218898574Y-69105147D01*
X218621335Y-69050000D01*
X218338665Y-69050000D01*
X218061426Y-69105147D01*
X217800273Y-69213320D01*
X217565241Y-69370363D01*
X217365363Y-69570241D01*
X217208320Y-69805273D01*
X217100147Y-70066426D01*
X217045000Y-70343665D01*
X217045000Y-70626335D01*
X217100147Y-70903574D01*
X217155658Y-71037591D01*
X217084778Y-70951222D01*
X217048431Y-70921393D01*
X214210000Y-68082962D01*
X214210000Y-67798740D01*
X214152932Y-67511842D01*
X214040990Y-67241589D01*
X213878475Y-66998368D01*
X213671632Y-66791525D01*
X213497240Y-66675000D01*
X213671632Y-66558475D01*
X213878475Y-66351632D01*
X213916983Y-66294000D01*
X223603340Y-66294000D01*
X223647000Y-66298300D01*
X223690660Y-66294000D01*
X223690667Y-66294000D01*
X223821274Y-66281136D01*
X223988851Y-66230303D01*
X224143291Y-66147753D01*
X224278659Y-66036659D01*
X224306499Y-66002737D01*
X224364279Y-65944956D01*
X224394665Y-65951000D01*
X224677335Y-65951000D01*
X224954574Y-65895853D01*
X225215727Y-65787680D01*
X225450759Y-65630637D01*
X225650637Y-65430759D01*
X225807680Y-65195727D01*
X225915853Y-64934574D01*
X225971000Y-64657335D01*
X225971000Y-64374665D01*
X230721000Y-64374665D01*
X230721000Y-64657335D01*
X230776147Y-64934574D01*
X230884320Y-65195727D01*
X231041363Y-65430759D01*
X231241241Y-65630637D01*
X231476273Y-65787680D01*
X231737426Y-65895853D01*
X232014665Y-65951000D01*
X232297335Y-65951000D01*
X232574574Y-65895853D01*
X232835727Y-65787680D01*
X233070759Y-65630637D01*
X233113581Y-65587816D01*
X235216928Y-67691163D01*
X235216928Y-69072000D01*
X235229188Y-69196482D01*
X235265498Y-69316180D01*
X235324463Y-69426494D01*
X235403815Y-69523185D01*
X235500506Y-69602537D01*
X235551302Y-69629688D01*
X235531499Y-69652008D01*
X235369644Y-69928656D01*
X235264871Y-70231565D01*
X235383685Y-70485000D01*
X236728000Y-70485000D01*
X236728000Y-70465000D01*
X236982000Y-70465000D01*
X236982000Y-70485000D01*
X238326315Y-70485000D01*
X238392574Y-70343665D01*
X239865000Y-70343665D01*
X239865000Y-70626335D01*
X239920147Y-70903574D01*
X240028320Y-71164727D01*
X240185363Y-71399759D01*
X240385241Y-71599637D01*
X240620273Y-71756680D01*
X240881426Y-71864853D01*
X241158665Y-71920000D01*
X241441335Y-71920000D01*
X241718574Y-71864853D01*
X241979727Y-71756680D01*
X242214759Y-71599637D01*
X242381339Y-71433057D01*
X242410498Y-71529180D01*
X242469463Y-71639494D01*
X242548815Y-71736185D01*
X242645506Y-71815537D01*
X242755820Y-71874502D01*
X242875518Y-71910812D01*
X243000000Y-71923072D01*
X243514250Y-71920000D01*
X243673000Y-71761250D01*
X243673000Y-70612000D01*
X243927000Y-70612000D01*
X243927000Y-71761250D01*
X244085750Y-71920000D01*
X244600000Y-71923072D01*
X244724482Y-71910812D01*
X244844180Y-71874502D01*
X244954494Y-71815537D01*
X245051185Y-71736185D01*
X245130537Y-71639494D01*
X245189502Y-71529180D01*
X245225812Y-71409482D01*
X245238072Y-71285000D01*
X245235000Y-70770750D01*
X245076250Y-70612000D01*
X243927000Y-70612000D01*
X243673000Y-70612000D01*
X243653000Y-70612000D01*
X243653000Y-70358000D01*
X243673000Y-70358000D01*
X243673000Y-69208750D01*
X243927000Y-69208750D01*
X243927000Y-70358000D01*
X245076250Y-70358000D01*
X245090585Y-70343665D01*
X245620000Y-70343665D01*
X245620000Y-70626335D01*
X245675147Y-70903574D01*
X245783320Y-71164727D01*
X245940363Y-71399759D01*
X246140241Y-71599637D01*
X246375273Y-71756680D01*
X246636426Y-71864853D01*
X246913665Y-71920000D01*
X247196335Y-71920000D01*
X247473574Y-71864853D01*
X247734727Y-71756680D01*
X247969759Y-71599637D01*
X248136339Y-71433057D01*
X248165498Y-71529180D01*
X248224463Y-71639494D01*
X248303815Y-71736185D01*
X248400506Y-71815537D01*
X248510820Y-71874502D01*
X248630518Y-71910812D01*
X248755000Y-71923072D01*
X249269250Y-71920000D01*
X249428000Y-71761250D01*
X249428000Y-70612000D01*
X249682000Y-70612000D01*
X249682000Y-71761250D01*
X249840750Y-71920000D01*
X250355000Y-71923072D01*
X250479482Y-71910812D01*
X250599180Y-71874502D01*
X250709494Y-71815537D01*
X250806185Y-71736185D01*
X250885537Y-71639494D01*
X250944502Y-71529180D01*
X250980812Y-71409482D01*
X250993072Y-71285000D01*
X250990000Y-70770750D01*
X250831250Y-70612000D01*
X249682000Y-70612000D01*
X249428000Y-70612000D01*
X249408000Y-70612000D01*
X249408000Y-70358000D01*
X249428000Y-70358000D01*
X249428000Y-69208750D01*
X249682000Y-69208750D01*
X249682000Y-70358000D01*
X250831250Y-70358000D01*
X250845585Y-70343665D01*
X251335000Y-70343665D01*
X251335000Y-70626335D01*
X251390147Y-70903574D01*
X251498320Y-71164727D01*
X251655363Y-71399759D01*
X251855241Y-71599637D01*
X252090273Y-71756680D01*
X252351426Y-71864853D01*
X252628665Y-71920000D01*
X252911335Y-71920000D01*
X253188574Y-71864853D01*
X253449727Y-71756680D01*
X253684759Y-71599637D01*
X253851339Y-71433057D01*
X253880498Y-71529180D01*
X253939463Y-71639494D01*
X254018815Y-71736185D01*
X254115506Y-71815537D01*
X254225820Y-71874502D01*
X254345518Y-71910812D01*
X254470000Y-71923072D01*
X254984250Y-71920000D01*
X255143000Y-71761250D01*
X255143000Y-70612000D01*
X255397000Y-70612000D01*
X255397000Y-71761250D01*
X255555750Y-71920000D01*
X256070000Y-71923072D01*
X256194482Y-71910812D01*
X256314180Y-71874502D01*
X256424494Y-71815537D01*
X256521185Y-71736185D01*
X256600537Y-71639494D01*
X256659502Y-71529180D01*
X256695812Y-71409482D01*
X256708072Y-71285000D01*
X256705000Y-70770750D01*
X256546250Y-70612000D01*
X255397000Y-70612000D01*
X255143000Y-70612000D01*
X255123000Y-70612000D01*
X255123000Y-70358000D01*
X255143000Y-70358000D01*
X255143000Y-69208750D01*
X255397000Y-69208750D01*
X255397000Y-70358000D01*
X256546250Y-70358000D01*
X256705000Y-70199250D01*
X256708072Y-69685000D01*
X256695812Y-69560518D01*
X256659502Y-69440820D01*
X256600537Y-69330506D01*
X256521185Y-69233815D01*
X256424494Y-69154463D01*
X256314180Y-69095498D01*
X256194482Y-69059188D01*
X256070000Y-69046928D01*
X255555750Y-69050000D01*
X255397000Y-69208750D01*
X255143000Y-69208750D01*
X254984250Y-69050000D01*
X254470000Y-69046928D01*
X254345518Y-69059188D01*
X254225820Y-69095498D01*
X254115506Y-69154463D01*
X254018815Y-69233815D01*
X253939463Y-69330506D01*
X253880498Y-69440820D01*
X253851339Y-69536943D01*
X253684759Y-69370363D01*
X253449727Y-69213320D01*
X253188574Y-69105147D01*
X252911335Y-69050000D01*
X252628665Y-69050000D01*
X252351426Y-69105147D01*
X252090273Y-69213320D01*
X251855241Y-69370363D01*
X251655363Y-69570241D01*
X251498320Y-69805273D01*
X251390147Y-70066426D01*
X251335000Y-70343665D01*
X250845585Y-70343665D01*
X250990000Y-70199250D01*
X250993072Y-69685000D01*
X250980812Y-69560518D01*
X250944502Y-69440820D01*
X250885537Y-69330506D01*
X250806185Y-69233815D01*
X250709494Y-69154463D01*
X250599180Y-69095498D01*
X250479482Y-69059188D01*
X250355000Y-69046928D01*
X249840750Y-69050000D01*
X249682000Y-69208750D01*
X249428000Y-69208750D01*
X249269250Y-69050000D01*
X248755000Y-69046928D01*
X248630518Y-69059188D01*
X248510820Y-69095498D01*
X248400506Y-69154463D01*
X248303815Y-69233815D01*
X248224463Y-69330506D01*
X248165498Y-69440820D01*
X248136339Y-69536943D01*
X247969759Y-69370363D01*
X247734727Y-69213320D01*
X247473574Y-69105147D01*
X247196335Y-69050000D01*
X246913665Y-69050000D01*
X246636426Y-69105147D01*
X246375273Y-69213320D01*
X246140241Y-69370363D01*
X245940363Y-69570241D01*
X245783320Y-69805273D01*
X245675147Y-70066426D01*
X245620000Y-70343665D01*
X245090585Y-70343665D01*
X245235000Y-70199250D01*
X245238072Y-69685000D01*
X245225812Y-69560518D01*
X245189502Y-69440820D01*
X245130537Y-69330506D01*
X245051185Y-69233815D01*
X244954494Y-69154463D01*
X244844180Y-69095498D01*
X244724482Y-69059188D01*
X244600000Y-69046928D01*
X244085750Y-69050000D01*
X243927000Y-69208750D01*
X243673000Y-69208750D01*
X243514250Y-69050000D01*
X243000000Y-69046928D01*
X242875518Y-69059188D01*
X242755820Y-69095498D01*
X242645506Y-69154463D01*
X242548815Y-69233815D01*
X242469463Y-69330506D01*
X242410498Y-69440820D01*
X242381339Y-69536943D01*
X242214759Y-69370363D01*
X241979727Y-69213320D01*
X241718574Y-69105147D01*
X241441335Y-69050000D01*
X241158665Y-69050000D01*
X240881426Y-69105147D01*
X240620273Y-69213320D01*
X240385241Y-69370363D01*
X240185363Y-69570241D01*
X240028320Y-69805273D01*
X239920147Y-70066426D01*
X239865000Y-70343665D01*
X238392574Y-70343665D01*
X238445129Y-70231565D01*
X238340356Y-69928656D01*
X238178501Y-69652008D01*
X238158698Y-69629688D01*
X238209494Y-69602537D01*
X238306185Y-69523185D01*
X238385537Y-69426494D01*
X238444502Y-69316180D01*
X238480812Y-69196482D01*
X238493072Y-69072000D01*
X238493072Y-67072000D01*
X238480812Y-66947518D01*
X238444502Y-66827820D01*
X238385537Y-66717506D01*
X238306185Y-66620815D01*
X238209494Y-66541463D01*
X238099180Y-66482498D01*
X237979482Y-66446188D01*
X237855000Y-66433928D01*
X236474163Y-66433928D01*
X233958499Y-63918264D01*
X233930659Y-63884341D01*
X233795291Y-63773247D01*
X233640851Y-63690697D01*
X233473274Y-63639864D01*
X233342667Y-63627000D01*
X233342660Y-63627000D01*
X233299000Y-63622700D01*
X233285841Y-63623996D01*
X233270637Y-63601241D01*
X233070759Y-63401363D01*
X232835727Y-63244320D01*
X232574574Y-63136147D01*
X232297335Y-63081000D01*
X232014665Y-63081000D01*
X231737426Y-63136147D01*
X231476273Y-63244320D01*
X231241241Y-63401363D01*
X231041363Y-63601241D01*
X230884320Y-63836273D01*
X230776147Y-64097426D01*
X230721000Y-64374665D01*
X225971000Y-64374665D01*
X225915853Y-64097426D01*
X225807680Y-63836273D01*
X225650637Y-63601241D01*
X225450759Y-63401363D01*
X225215727Y-63244320D01*
X224954574Y-63136147D01*
X224677335Y-63081000D01*
X224394665Y-63081000D01*
X224117426Y-63136147D01*
X223856273Y-63244320D01*
X223621241Y-63401363D01*
X223421363Y-63601241D01*
X223264320Y-63836273D01*
X223156147Y-64097426D01*
X223101000Y-64374665D01*
X223101000Y-64516000D01*
X213916983Y-64516000D01*
X213878475Y-64458368D01*
X213671632Y-64251525D01*
X213497240Y-64135000D01*
X213671632Y-64018475D01*
X213878475Y-63811632D01*
X214040990Y-63568411D01*
X214152932Y-63298158D01*
X214210000Y-63011260D01*
X214210000Y-62718740D01*
X214152932Y-62431842D01*
X214040990Y-62161589D01*
X213878475Y-61918368D01*
X213671632Y-61711525D01*
X213497240Y-61595000D01*
X213671632Y-61478475D01*
X213878475Y-61271632D01*
X214040990Y-61028411D01*
X214152932Y-60758158D01*
X214210000Y-60471260D01*
X214210000Y-60183665D01*
X241897000Y-60183665D01*
X241897000Y-60466335D01*
X241952147Y-60743574D01*
X242060320Y-61004727D01*
X242217363Y-61239759D01*
X242417241Y-61439637D01*
X242652273Y-61596680D01*
X242913426Y-61704853D01*
X243190665Y-61760000D01*
X243419962Y-61760000D01*
X245800397Y-64140436D01*
X245830222Y-64176778D01*
X245975259Y-64295806D01*
X246140731Y-64384252D01*
X246320277Y-64438717D01*
X246506999Y-64457108D01*
X246553784Y-64452500D01*
X257415462Y-64452500D01*
X258127500Y-65164539D01*
X258127501Y-83773205D01*
X258122892Y-83820000D01*
X258141283Y-84006722D01*
X258195749Y-84186269D01*
X258224469Y-84240000D01*
X258284195Y-84351741D01*
X258403223Y-84496778D01*
X258439564Y-84526602D01*
X259500000Y-85587039D01*
X259500000Y-85871260D01*
X259557068Y-86158158D01*
X259669010Y-86428411D01*
X259831525Y-86671632D01*
X260038368Y-86878475D01*
X260212760Y-86995000D01*
X260038368Y-87111525D01*
X259831525Y-87318368D01*
X259669010Y-87561589D01*
X259557068Y-87831842D01*
X259500000Y-88118740D01*
X259500000Y-88411260D01*
X259557068Y-88698158D01*
X259669010Y-88968411D01*
X259831525Y-89211632D01*
X260038368Y-89418475D01*
X260212760Y-89535000D01*
X260038368Y-89651525D01*
X259831525Y-89858368D01*
X259669010Y-90101589D01*
X259557068Y-90371842D01*
X259500000Y-90658740D01*
X259500000Y-90951260D01*
X259557068Y-91238158D01*
X259669010Y-91508411D01*
X259831525Y-91751632D01*
X260038368Y-91958475D01*
X260212760Y-92075000D01*
X260038368Y-92191525D01*
X259831525Y-92398368D01*
X259669010Y-92641589D01*
X259557068Y-92911842D01*
X259500000Y-93198740D01*
X259500000Y-93491260D01*
X259557068Y-93778158D01*
X259669010Y-94048411D01*
X259831525Y-94291632D01*
X260038368Y-94498475D01*
X260281589Y-94660990D01*
X260551842Y-94772932D01*
X260838740Y-94830000D01*
X261131260Y-94830000D01*
X261418158Y-94772932D01*
X261688411Y-94660990D01*
X261931632Y-94498475D01*
X262138475Y-94291632D01*
X262300990Y-94048411D01*
X262412932Y-93778158D01*
X262470000Y-93491260D01*
X262470000Y-93198740D01*
X262412932Y-92911842D01*
X262300990Y-92641589D01*
X262138475Y-92398368D01*
X261931632Y-92191525D01*
X261757240Y-92075000D01*
X261931632Y-91958475D01*
X262138475Y-91751632D01*
X262300990Y-91508411D01*
X262412932Y-91238158D01*
X262470000Y-90951260D01*
X262470000Y-90658740D01*
X262412932Y-90371842D01*
X262300990Y-90101589D01*
X262138475Y-89858368D01*
X261931632Y-89651525D01*
X261757240Y-89535000D01*
X261931632Y-89418475D01*
X262138475Y-89211632D01*
X262300990Y-88968411D01*
X262412932Y-88698158D01*
X262470000Y-88411260D01*
X262470000Y-88118740D01*
X262412932Y-87831842D01*
X262300990Y-87561589D01*
X262138475Y-87318368D01*
X261931632Y-87111525D01*
X261757240Y-86995000D01*
X261931632Y-86878475D01*
X262138475Y-86671632D01*
X262300990Y-86428411D01*
X262412932Y-86158158D01*
X262470000Y-85871260D01*
X262470000Y-85578740D01*
X262412932Y-85291842D01*
X262300990Y-85021589D01*
X262138475Y-84778368D01*
X261931632Y-84571525D01*
X261757240Y-84455000D01*
X261931632Y-84338475D01*
X262138475Y-84131632D01*
X262300990Y-83888411D01*
X262412932Y-83618158D01*
X262470000Y-83331260D01*
X262470000Y-83038740D01*
X262412932Y-82751842D01*
X262300990Y-82481589D01*
X262138475Y-82238368D01*
X261931632Y-82031525D01*
X261757240Y-81915000D01*
X261931632Y-81798475D01*
X262138475Y-81591632D01*
X262300990Y-81348411D01*
X262412932Y-81078158D01*
X262470000Y-80791260D01*
X262470000Y-80498740D01*
X262412932Y-80211842D01*
X262300990Y-79941589D01*
X262138475Y-79698368D01*
X261931632Y-79491525D01*
X261757240Y-79375000D01*
X261931632Y-79258475D01*
X262138475Y-79051632D01*
X262300990Y-78808411D01*
X262412932Y-78538158D01*
X262470000Y-78251260D01*
X262470000Y-77958740D01*
X262412932Y-77671842D01*
X262300990Y-77401589D01*
X262138475Y-77158368D01*
X262006620Y-77026513D01*
X262079180Y-77004502D01*
X262189494Y-76945537D01*
X262286185Y-76866185D01*
X262365537Y-76769494D01*
X262424502Y-76659180D01*
X262460812Y-76539482D01*
X262473072Y-76415000D01*
X262473072Y-74715000D01*
X262460812Y-74590518D01*
X262424502Y-74470820D01*
X262365537Y-74360506D01*
X262286185Y-74263815D01*
X262189494Y-74184463D01*
X262079180Y-74125498D01*
X261959482Y-74089188D01*
X261835000Y-74076928D01*
X260135000Y-74076928D01*
X260032500Y-74087023D01*
X260032500Y-72648607D01*
X260038368Y-72654475D01*
X260281589Y-72816990D01*
X260551842Y-72928932D01*
X260838740Y-72986000D01*
X261131260Y-72986000D01*
X261418158Y-72928932D01*
X261688411Y-72816990D01*
X261931632Y-72654475D01*
X262138475Y-72447632D01*
X262300990Y-72204411D01*
X262412932Y-71934158D01*
X262470000Y-71647260D01*
X262470000Y-71354740D01*
X262412932Y-71067842D01*
X262300990Y-70797589D01*
X262138475Y-70554368D01*
X261931632Y-70347525D01*
X261757240Y-70231000D01*
X261931632Y-70114475D01*
X262138475Y-69907632D01*
X262300990Y-69664411D01*
X262412932Y-69394158D01*
X262470000Y-69107260D01*
X262470000Y-68814740D01*
X262412932Y-68527842D01*
X262300990Y-68257589D01*
X262138475Y-68014368D01*
X261931632Y-67807525D01*
X261757240Y-67691000D01*
X261931632Y-67574475D01*
X262138475Y-67367632D01*
X262300990Y-67124411D01*
X262412932Y-66854158D01*
X262470000Y-66567260D01*
X262470000Y-66274740D01*
X262412932Y-65987842D01*
X262300990Y-65717589D01*
X262138475Y-65474368D01*
X261931632Y-65267525D01*
X261757240Y-65151000D01*
X261931632Y-65034475D01*
X262138475Y-64827632D01*
X262300990Y-64584411D01*
X262412932Y-64314158D01*
X262470000Y-64027260D01*
X262470000Y-63734740D01*
X262412932Y-63447842D01*
X262300990Y-63177589D01*
X262138475Y-62934368D01*
X261931632Y-62727525D01*
X261757240Y-62611000D01*
X261931632Y-62494475D01*
X262138475Y-62287632D01*
X262300990Y-62044411D01*
X262412932Y-61774158D01*
X262470000Y-61487260D01*
X262470000Y-61194740D01*
X262412932Y-60907842D01*
X262300990Y-60637589D01*
X262138475Y-60394368D01*
X261931632Y-60187525D01*
X261757240Y-60071000D01*
X261931632Y-59954475D01*
X262138475Y-59747632D01*
X262300990Y-59504411D01*
X262412932Y-59234158D01*
X262470000Y-58947260D01*
X262470000Y-58654740D01*
X262412932Y-58367842D01*
X262300990Y-58097589D01*
X262138475Y-57854368D01*
X261931632Y-57647525D01*
X261749466Y-57525805D01*
X261866355Y-57456178D01*
X262082588Y-57261269D01*
X262256641Y-57027920D01*
X262381825Y-56765099D01*
X262426476Y-56617890D01*
X262305155Y-56388000D01*
X261112000Y-56388000D01*
X261112000Y-56408000D01*
X260858000Y-56408000D01*
X260858000Y-56388000D01*
X259664845Y-56388000D01*
X259543524Y-56617890D01*
X259588175Y-56765099D01*
X259713359Y-57027920D01*
X259887412Y-57261269D01*
X260103645Y-57456178D01*
X260220534Y-57525805D01*
X260038368Y-57647525D01*
X259831525Y-57854368D01*
X259669010Y-58097589D01*
X259557068Y-58367842D01*
X259500000Y-58654740D01*
X259500000Y-58947260D01*
X259557068Y-59234158D01*
X259669010Y-59504411D01*
X259831525Y-59747632D01*
X260038368Y-59954475D01*
X260212760Y-60071000D01*
X260038368Y-60187525D01*
X259831525Y-60394368D01*
X259669010Y-60637589D01*
X259557068Y-60907842D01*
X259500000Y-61194740D01*
X259500000Y-61487260D01*
X259557068Y-61774158D01*
X259669010Y-62044411D01*
X259831525Y-62287632D01*
X260038368Y-62494475D01*
X260212760Y-62611000D01*
X260038368Y-62727525D01*
X259831525Y-62934368D01*
X259669010Y-63177589D01*
X259557068Y-63447842D01*
X259500000Y-63734740D01*
X259500000Y-63842961D01*
X258516607Y-62859569D01*
X258486778Y-62823222D01*
X258341741Y-62704194D01*
X258176269Y-62615748D01*
X257996723Y-62561283D01*
X257856785Y-62547500D01*
X257810000Y-62542892D01*
X257763215Y-62547500D01*
X256058138Y-62547500D01*
X256100411Y-62529990D01*
X256343632Y-62367475D01*
X256550475Y-62160632D01*
X256712990Y-61917411D01*
X256824932Y-61647158D01*
X256882000Y-61360260D01*
X256882000Y-61067740D01*
X256824932Y-60780842D01*
X256712990Y-60510589D01*
X256550475Y-60267368D01*
X256343632Y-60060525D01*
X256169240Y-59944000D01*
X256343632Y-59827475D01*
X256550475Y-59620632D01*
X256712990Y-59377411D01*
X256824932Y-59107158D01*
X256882000Y-58820260D01*
X256882000Y-58527740D01*
X256824932Y-58240842D01*
X256712990Y-57970589D01*
X256550475Y-57727368D01*
X256343632Y-57520525D01*
X256169240Y-57404000D01*
X256343632Y-57287475D01*
X256550475Y-57080632D01*
X256712990Y-56837411D01*
X256824932Y-56567158D01*
X256882000Y-56280260D01*
X256882000Y-55987740D01*
X256824932Y-55700842D01*
X256712990Y-55430589D01*
X256550475Y-55187368D01*
X256343632Y-54980525D01*
X256161466Y-54858805D01*
X256278355Y-54789178D01*
X256494588Y-54594269D01*
X256668641Y-54360920D01*
X256793825Y-54098099D01*
X256838476Y-53950890D01*
X256717155Y-53721000D01*
X255524000Y-53721000D01*
X255524000Y-53741000D01*
X255270000Y-53741000D01*
X255270000Y-53721000D01*
X254076845Y-53721000D01*
X253955524Y-53950890D01*
X254000175Y-54098099D01*
X254125359Y-54360920D01*
X254299412Y-54594269D01*
X254515645Y-54789178D01*
X254632534Y-54858805D01*
X254450368Y-54980525D01*
X254243525Y-55187368D01*
X254081010Y-55430589D01*
X253969068Y-55700842D01*
X253912000Y-55987740D01*
X253912000Y-56280260D01*
X253969068Y-56567158D01*
X254081010Y-56837411D01*
X254243525Y-57080632D01*
X254450368Y-57287475D01*
X254624760Y-57404000D01*
X254450368Y-57520525D01*
X254243525Y-57727368D01*
X254081010Y-57970589D01*
X253969068Y-58240842D01*
X253912000Y-58527740D01*
X253912000Y-58820260D01*
X253969068Y-59107158D01*
X254081010Y-59377411D01*
X254243525Y-59620632D01*
X254450368Y-59827475D01*
X254624760Y-59944000D01*
X254450368Y-60060525D01*
X254243525Y-60267368D01*
X254081010Y-60510589D01*
X253969068Y-60780842D01*
X253912000Y-61067740D01*
X253912000Y-61360260D01*
X253969068Y-61647158D01*
X254081010Y-61917411D01*
X254243525Y-62160632D01*
X254450368Y-62367475D01*
X254693589Y-62529990D01*
X254735862Y-62547500D01*
X246901539Y-62547500D01*
X244767000Y-60412962D01*
X244767000Y-60183665D01*
X249517000Y-60183665D01*
X249517000Y-60466335D01*
X249572147Y-60743574D01*
X249680320Y-61004727D01*
X249837363Y-61239759D01*
X250037241Y-61439637D01*
X250272273Y-61596680D01*
X250533426Y-61704853D01*
X250810665Y-61760000D01*
X251093335Y-61760000D01*
X251370574Y-61704853D01*
X251631727Y-61596680D01*
X251866759Y-61439637D01*
X252066637Y-61239759D01*
X252223680Y-61004727D01*
X252331853Y-60743574D01*
X252387000Y-60466335D01*
X252387000Y-60183665D01*
X252331853Y-59906426D01*
X252223680Y-59645273D01*
X252066637Y-59410241D01*
X251866759Y-59210363D01*
X251631727Y-59053320D01*
X251370574Y-58945147D01*
X251093335Y-58890000D01*
X250810665Y-58890000D01*
X250533426Y-58945147D01*
X250272273Y-59053320D01*
X250037241Y-59210363D01*
X249837363Y-59410241D01*
X249680320Y-59645273D01*
X249572147Y-59906426D01*
X249517000Y-60183665D01*
X244767000Y-60183665D01*
X244711853Y-59906426D01*
X244603680Y-59645273D01*
X244446637Y-59410241D01*
X244246759Y-59210363D01*
X244011727Y-59053320D01*
X243750574Y-58945147D01*
X243473335Y-58890000D01*
X243190665Y-58890000D01*
X242913426Y-58945147D01*
X242652273Y-59053320D01*
X242417241Y-59210363D01*
X242217363Y-59410241D01*
X242060320Y-59645273D01*
X241952147Y-59906426D01*
X241897000Y-60183665D01*
X214210000Y-60183665D01*
X214210000Y-60178740D01*
X214152932Y-59891842D01*
X214040990Y-59621589D01*
X213878475Y-59378368D01*
X213746620Y-59246513D01*
X213819180Y-59224502D01*
X213929494Y-59165537D01*
X214026185Y-59086185D01*
X214105537Y-58989494D01*
X214164502Y-58879180D01*
X214200812Y-58759482D01*
X214213072Y-58635000D01*
X214213072Y-58269702D01*
X242518903Y-58269702D01*
X242590486Y-58513671D01*
X242845996Y-58634571D01*
X243120184Y-58703300D01*
X243402512Y-58717217D01*
X243682130Y-58675787D01*
X243948292Y-58580603D01*
X244073514Y-58513671D01*
X244145097Y-58269702D01*
X243332000Y-57456605D01*
X242518903Y-58269702D01*
X214213072Y-58269702D01*
X214213072Y-57347512D01*
X241891783Y-57347512D01*
X241933213Y-57627130D01*
X242028397Y-57893292D01*
X242095329Y-58018514D01*
X242339298Y-58090097D01*
X243152395Y-57277000D01*
X243511605Y-57277000D01*
X244324702Y-58090097D01*
X244568671Y-58018514D01*
X244689571Y-57763004D01*
X244758300Y-57488816D01*
X244772217Y-57206488D01*
X244761724Y-57135665D01*
X249517000Y-57135665D01*
X249517000Y-57418335D01*
X249572147Y-57695574D01*
X249680320Y-57956727D01*
X249837363Y-58191759D01*
X250037241Y-58391637D01*
X250272273Y-58548680D01*
X250533426Y-58656853D01*
X250810665Y-58712000D01*
X251093335Y-58712000D01*
X251370574Y-58656853D01*
X251631727Y-58548680D01*
X251866759Y-58391637D01*
X252066637Y-58191759D01*
X252223680Y-57956727D01*
X252331853Y-57695574D01*
X252387000Y-57418335D01*
X252387000Y-57135665D01*
X252331853Y-56858426D01*
X252223680Y-56597273D01*
X252066637Y-56362241D01*
X251866759Y-56162363D01*
X251631727Y-56005320D01*
X251370574Y-55897147D01*
X251093335Y-55842000D01*
X250810665Y-55842000D01*
X250533426Y-55897147D01*
X250272273Y-56005320D01*
X250037241Y-56162363D01*
X249837363Y-56362241D01*
X249680320Y-56597273D01*
X249572147Y-56858426D01*
X249517000Y-57135665D01*
X244761724Y-57135665D01*
X244730787Y-56926870D01*
X244635603Y-56660708D01*
X244568671Y-56535486D01*
X244324702Y-56463903D01*
X243511605Y-57277000D01*
X243152395Y-57277000D01*
X242339298Y-56463903D01*
X242095329Y-56535486D01*
X241974429Y-56790996D01*
X241905700Y-57065184D01*
X241891783Y-57347512D01*
X214213072Y-57347512D01*
X214213072Y-56935000D01*
X214200812Y-56810518D01*
X214164502Y-56690820D01*
X214105537Y-56580506D01*
X214026185Y-56483815D01*
X213929494Y-56404463D01*
X213819180Y-56345498D01*
X213699482Y-56309188D01*
X213575000Y-56296928D01*
X211875000Y-56296928D01*
X211750518Y-56309188D01*
X211630820Y-56345498D01*
X211520506Y-56404463D01*
X211423815Y-56483815D01*
X211344463Y-56580506D01*
X211285498Y-56690820D01*
X211249188Y-56810518D01*
X211236928Y-56935000D01*
X210845000Y-56935000D01*
X210845000Y-56284298D01*
X242518903Y-56284298D01*
X243332000Y-57097395D01*
X244145097Y-56284298D01*
X244073514Y-56040329D01*
X243818004Y-55919429D01*
X243543816Y-55850700D01*
X243261488Y-55836783D01*
X242981870Y-55878213D01*
X242715708Y-55973397D01*
X242590486Y-56040329D01*
X242518903Y-56284298D01*
X210845000Y-56284298D01*
X210845000Y-47664000D01*
X253908928Y-47664000D01*
X253908928Y-49364000D01*
X253921188Y-49488482D01*
X253957498Y-49608180D01*
X254016463Y-49718494D01*
X254095815Y-49815185D01*
X254192506Y-49894537D01*
X254302820Y-49953502D01*
X254375380Y-49975513D01*
X254243525Y-50107368D01*
X254081010Y-50350589D01*
X253969068Y-50620842D01*
X253912000Y-50907740D01*
X253912000Y-51200260D01*
X253969068Y-51487158D01*
X254081010Y-51757411D01*
X254243525Y-52000632D01*
X254450368Y-52207475D01*
X254632534Y-52329195D01*
X254515645Y-52398822D01*
X254299412Y-52593731D01*
X254125359Y-52827080D01*
X254000175Y-53089901D01*
X253955524Y-53237110D01*
X254076845Y-53467000D01*
X255270000Y-53467000D01*
X255270000Y-53447000D01*
X255524000Y-53447000D01*
X255524000Y-53467000D01*
X256717155Y-53467000D01*
X256838476Y-53237110D01*
X256793825Y-53089901D01*
X256668641Y-52827080D01*
X256494588Y-52593731D01*
X256278355Y-52398822D01*
X256161466Y-52329195D01*
X256343632Y-52207475D01*
X256550475Y-52000632D01*
X256712990Y-51757411D01*
X256824932Y-51487158D01*
X256882000Y-51200260D01*
X256882000Y-50907740D01*
X256824932Y-50620842D01*
X256712990Y-50350589D01*
X256550475Y-50107368D01*
X256418620Y-49975513D01*
X256491180Y-49953502D01*
X256601494Y-49894537D01*
X256698185Y-49815185D01*
X256777537Y-49718494D01*
X256836502Y-49608180D01*
X256872812Y-49488482D01*
X256885072Y-49364000D01*
X256885072Y-47791000D01*
X259496928Y-47791000D01*
X259496928Y-49491000D01*
X259509188Y-49615482D01*
X259545498Y-49735180D01*
X259604463Y-49845494D01*
X259683815Y-49942185D01*
X259780506Y-50021537D01*
X259890820Y-50080502D01*
X259963380Y-50102513D01*
X259831525Y-50234368D01*
X259669010Y-50477589D01*
X259557068Y-50747842D01*
X259500000Y-51034740D01*
X259500000Y-51327260D01*
X259557068Y-51614158D01*
X259669010Y-51884411D01*
X259831525Y-52127632D01*
X260038368Y-52334475D01*
X260212760Y-52451000D01*
X260038368Y-52567525D01*
X259831525Y-52774368D01*
X259669010Y-53017589D01*
X259557068Y-53287842D01*
X259500000Y-53574740D01*
X259500000Y-53867260D01*
X259557068Y-54154158D01*
X259669010Y-54424411D01*
X259831525Y-54667632D01*
X260038368Y-54874475D01*
X260220534Y-54996195D01*
X260103645Y-55065822D01*
X259887412Y-55260731D01*
X259713359Y-55494080D01*
X259588175Y-55756901D01*
X259543524Y-55904110D01*
X259664845Y-56134000D01*
X260858000Y-56134000D01*
X260858000Y-56114000D01*
X261112000Y-56114000D01*
X261112000Y-56134000D01*
X262305155Y-56134000D01*
X262426476Y-55904110D01*
X262381825Y-55756901D01*
X262256641Y-55494080D01*
X262082588Y-55260731D01*
X261866355Y-55065822D01*
X261749466Y-54996195D01*
X261931632Y-54874475D01*
X262138475Y-54667632D01*
X262300990Y-54424411D01*
X262412932Y-54154158D01*
X262470000Y-53867260D01*
X262470000Y-53574740D01*
X262412932Y-53287842D01*
X262300990Y-53017589D01*
X262138475Y-52774368D01*
X261931632Y-52567525D01*
X261757240Y-52451000D01*
X261931632Y-52334475D01*
X262138475Y-52127632D01*
X262300990Y-51884411D01*
X262412932Y-51614158D01*
X262470000Y-51327260D01*
X262470000Y-51034740D01*
X262412932Y-50747842D01*
X262300990Y-50477589D01*
X262138475Y-50234368D01*
X262006620Y-50102513D01*
X262079180Y-50080502D01*
X262189494Y-50021537D01*
X262286185Y-49942185D01*
X262365537Y-49845494D01*
X262424502Y-49735180D01*
X262460812Y-49615482D01*
X262473072Y-49491000D01*
X262473072Y-47791000D01*
X262460812Y-47666518D01*
X262424502Y-47546820D01*
X262365537Y-47436506D01*
X262286185Y-47339815D01*
X262189494Y-47260463D01*
X262079180Y-47201498D01*
X261959482Y-47165188D01*
X261835000Y-47152928D01*
X260135000Y-47152928D01*
X260010518Y-47165188D01*
X259890820Y-47201498D01*
X259780506Y-47260463D01*
X259683815Y-47339815D01*
X259604463Y-47436506D01*
X259545498Y-47546820D01*
X259509188Y-47666518D01*
X259496928Y-47791000D01*
X256885072Y-47791000D01*
X256885072Y-47664000D01*
X256872812Y-47539518D01*
X256836502Y-47419820D01*
X256777537Y-47309506D01*
X256698185Y-47212815D01*
X256601494Y-47133463D01*
X256491180Y-47074498D01*
X256371482Y-47038188D01*
X256247000Y-47025928D01*
X254547000Y-47025928D01*
X254422518Y-47038188D01*
X254302820Y-47074498D01*
X254192506Y-47133463D01*
X254095815Y-47212815D01*
X254016463Y-47309506D01*
X253957498Y-47419820D01*
X253921188Y-47539518D01*
X253908928Y-47664000D01*
X210845000Y-47664000D01*
X210845000Y-43212275D01*
X210845666Y-43205487D01*
X210850301Y-43205000D01*
X262857725Y-43205000D01*
X262864513Y-43205666D01*
%TA.AperFunction,Conductor*%
D22*
G36*
X262864513Y-43205666D02*
G01*
X262865001Y-43210310D01*
X262865000Y-109187725D01*
X262864335Y-109194513D01*
X262859699Y-109195000D01*
X248182525Y-109195000D01*
X248455302Y-109082012D01*
X248804983Y-108848363D01*
X249102363Y-108550983D01*
X249336012Y-108201302D01*
X249496953Y-107812756D01*
X249579000Y-107400279D01*
X249579000Y-106979721D01*
X249496953Y-106567244D01*
X249336012Y-106178698D01*
X249102363Y-105829017D01*
X248804983Y-105531637D01*
X248455302Y-105297988D01*
X248066756Y-105137047D01*
X247654279Y-105055000D01*
X247233721Y-105055000D01*
X246821244Y-105137047D01*
X246432698Y-105297988D01*
X246083017Y-105531637D01*
X245785637Y-105829017D01*
X245551988Y-106178698D01*
X245391047Y-106567244D01*
X245309000Y-106979721D01*
X245309000Y-107400279D01*
X245391047Y-107812756D01*
X245551988Y-108201302D01*
X245785637Y-108550983D01*
X246083017Y-108848363D01*
X246432698Y-109082012D01*
X246705475Y-109195000D01*
X226973525Y-109195000D01*
X227246302Y-109082012D01*
X227595983Y-108848363D01*
X227893363Y-108550983D01*
X228127012Y-108201302D01*
X228287953Y-107812756D01*
X228370000Y-107400279D01*
X228370000Y-106979721D01*
X228287953Y-106567244D01*
X228127012Y-106178698D01*
X227893363Y-105829017D01*
X227595983Y-105531637D01*
X227246302Y-105297988D01*
X226857756Y-105137047D01*
X226445279Y-105055000D01*
X226024721Y-105055000D01*
X225612244Y-105137047D01*
X225223698Y-105297988D01*
X224874017Y-105531637D01*
X224576637Y-105829017D01*
X224342988Y-106178698D01*
X224182047Y-106567244D01*
X224100000Y-106979721D01*
X224100000Y-107400279D01*
X224182047Y-107812756D01*
X224342988Y-108201302D01*
X224576637Y-108550983D01*
X224874017Y-108848363D01*
X225223698Y-109082012D01*
X225496475Y-109195000D01*
X210852275Y-109195000D01*
X210845487Y-109194335D01*
X210845000Y-109189699D01*
X210845000Y-102733589D01*
X221850000Y-102733589D01*
X221850000Y-103006411D01*
X221903225Y-103273989D01*
X222007629Y-103526043D01*
X222159201Y-103752886D01*
X222352114Y-103945799D01*
X222578957Y-104097371D01*
X222831011Y-104201775D01*
X223098589Y-104255000D01*
X223371411Y-104255000D01*
X223638989Y-104201775D01*
X223891043Y-104097371D01*
X224117886Y-103945799D01*
X224310799Y-103752886D01*
X224462371Y-103526043D01*
X224566775Y-103273989D01*
X224620000Y-103006411D01*
X224620000Y-102733589D01*
X224850000Y-102733589D01*
X224850000Y-103006411D01*
X224903225Y-103273989D01*
X225007629Y-103526043D01*
X225159201Y-103752886D01*
X225352114Y-103945799D01*
X225578957Y-104097371D01*
X225831011Y-104201775D01*
X226098589Y-104255000D01*
X226371411Y-104255000D01*
X226638989Y-104201775D01*
X226891043Y-104097371D01*
X227117886Y-103945799D01*
X227310799Y-103752886D01*
X227462371Y-103526043D01*
X227566775Y-103273989D01*
X227620000Y-103006411D01*
X227620000Y-102733589D01*
X227566775Y-102466011D01*
X227527007Y-102370000D01*
X227846928Y-102370000D01*
X227846928Y-103370000D01*
X227863992Y-103543254D01*
X227914528Y-103709850D01*
X227996595Y-103863386D01*
X228107038Y-103997962D01*
X228241614Y-104108405D01*
X228395150Y-104190472D01*
X228561746Y-104241008D01*
X228735000Y-104258072D01*
X229735000Y-104258072D01*
X229908254Y-104241008D01*
X230074850Y-104190472D01*
X230228386Y-104108405D01*
X230362962Y-103997962D01*
X230473405Y-103863386D01*
X230555472Y-103709850D01*
X230606008Y-103543254D01*
X230623072Y-103370000D01*
X230623072Y-102370000D01*
X230606008Y-102196746D01*
X230555472Y-102030150D01*
X230473405Y-101876614D01*
X230362962Y-101742038D01*
X230228386Y-101631595D01*
X230074850Y-101549528D01*
X229908254Y-101498992D01*
X229735000Y-101481928D01*
X228735000Y-101481928D01*
X228561746Y-101498992D01*
X228395150Y-101549528D01*
X228241614Y-101631595D01*
X228107038Y-101742038D01*
X227996595Y-101876614D01*
X227914528Y-102030150D01*
X227863992Y-102196746D01*
X227846928Y-102370000D01*
X227527007Y-102370000D01*
X227462371Y-102213957D01*
X227310799Y-101987114D01*
X227117886Y-101794201D01*
X226891043Y-101642629D01*
X226638989Y-101538225D01*
X226371411Y-101485000D01*
X226098589Y-101485000D01*
X225831011Y-101538225D01*
X225578957Y-101642629D01*
X225352114Y-101794201D01*
X225159201Y-101987114D01*
X225007629Y-102213957D01*
X224903225Y-102466011D01*
X224850000Y-102733589D01*
X224620000Y-102733589D01*
X224566775Y-102466011D01*
X224462371Y-102213957D01*
X224310799Y-101987114D01*
X224117886Y-101794201D01*
X223891043Y-101642629D01*
X223638989Y-101538225D01*
X223371411Y-101485000D01*
X223098589Y-101485000D01*
X222831011Y-101538225D01*
X222578957Y-101642629D01*
X222352114Y-101794201D01*
X222159201Y-101987114D01*
X222007629Y-102213957D01*
X221903225Y-102466011D01*
X221850000Y-102733589D01*
X210845000Y-102733589D01*
X210845000Y-99733589D01*
X221850000Y-99733589D01*
X221850000Y-100006411D01*
X221903225Y-100273989D01*
X222007629Y-100526043D01*
X222159201Y-100752886D01*
X222352114Y-100945799D01*
X222578957Y-101097371D01*
X222831011Y-101201775D01*
X223098589Y-101255000D01*
X223371411Y-101255000D01*
X223638989Y-101201775D01*
X223891043Y-101097371D01*
X224117886Y-100945799D01*
X224310799Y-100752886D01*
X224462371Y-100526043D01*
X224566775Y-100273989D01*
X224620000Y-100006411D01*
X224620000Y-99733589D01*
X224850000Y-99733589D01*
X224850000Y-100006411D01*
X224903225Y-100273989D01*
X225007629Y-100526043D01*
X225159201Y-100752886D01*
X225352114Y-100945799D01*
X225578957Y-101097371D01*
X225831011Y-101201775D01*
X226098589Y-101255000D01*
X226371411Y-101255000D01*
X226638989Y-101201775D01*
X226891043Y-101097371D01*
X227117886Y-100945799D01*
X227310799Y-100752886D01*
X227462371Y-100526043D01*
X227566775Y-100273989D01*
X227620000Y-100006411D01*
X227620000Y-99733589D01*
X227850000Y-99733589D01*
X227850000Y-100006411D01*
X227903225Y-100273989D01*
X228007629Y-100526043D01*
X228159201Y-100752886D01*
X228352114Y-100945799D01*
X228578957Y-101097371D01*
X228831011Y-101201775D01*
X229098589Y-101255000D01*
X229371411Y-101255000D01*
X229638989Y-101201775D01*
X229891043Y-101097371D01*
X230117886Y-100945799D01*
X230310799Y-100752886D01*
X230462371Y-100526043D01*
X230566775Y-100273989D01*
X230620000Y-100006411D01*
X230620000Y-99733589D01*
X230566775Y-99466011D01*
X230462371Y-99213957D01*
X230310799Y-98987114D01*
X230117886Y-98794201D01*
X229891043Y-98642629D01*
X229638989Y-98538225D01*
X229371411Y-98485000D01*
X229098589Y-98485000D01*
X228831011Y-98538225D01*
X228578957Y-98642629D01*
X228352114Y-98794201D01*
X228159201Y-98987114D01*
X228007629Y-99213957D01*
X227903225Y-99466011D01*
X227850000Y-99733589D01*
X227620000Y-99733589D01*
X227566775Y-99466011D01*
X227462371Y-99213957D01*
X227310799Y-98987114D01*
X227117886Y-98794201D01*
X226891043Y-98642629D01*
X226638989Y-98538225D01*
X226371411Y-98485000D01*
X226098589Y-98485000D01*
X225831011Y-98538225D01*
X225578957Y-98642629D01*
X225352114Y-98794201D01*
X225159201Y-98987114D01*
X225007629Y-99213957D01*
X224903225Y-99466011D01*
X224850000Y-99733589D01*
X224620000Y-99733589D01*
X224566775Y-99466011D01*
X224462371Y-99213957D01*
X224310799Y-98987114D01*
X224117886Y-98794201D01*
X223891043Y-98642629D01*
X223638989Y-98538225D01*
X223371411Y-98485000D01*
X223098589Y-98485000D01*
X222831011Y-98538225D01*
X222578957Y-98642629D01*
X222352114Y-98794201D01*
X222159201Y-98987114D01*
X222007629Y-99213957D01*
X221903225Y-99466011D01*
X221850000Y-99733589D01*
X210845000Y-99733589D01*
X210845000Y-79795000D01*
X211236928Y-79795000D01*
X211236928Y-81495000D01*
X211249188Y-81619482D01*
X211285498Y-81739180D01*
X211344463Y-81849494D01*
X211423815Y-81946185D01*
X211520506Y-82025537D01*
X211630820Y-82084502D01*
X211703380Y-82106513D01*
X211571525Y-82238368D01*
X211409010Y-82481589D01*
X211297068Y-82751842D01*
X211240000Y-83038740D01*
X211240000Y-83331260D01*
X211297068Y-83618158D01*
X211409010Y-83888411D01*
X211571525Y-84131632D01*
X211778368Y-84338475D01*
X211952760Y-84455000D01*
X211778368Y-84571525D01*
X211571525Y-84778368D01*
X211409010Y-85021589D01*
X211297068Y-85291842D01*
X211240000Y-85578740D01*
X211240000Y-85871260D01*
X211297068Y-86158158D01*
X211409010Y-86428411D01*
X211571525Y-86671632D01*
X211778368Y-86878475D01*
X211952760Y-86995000D01*
X211778368Y-87111525D01*
X211571525Y-87318368D01*
X211409010Y-87561589D01*
X211297068Y-87831842D01*
X211240000Y-88118740D01*
X211240000Y-88411260D01*
X211297068Y-88698158D01*
X211409010Y-88968411D01*
X211571525Y-89211632D01*
X211778368Y-89418475D01*
X211952760Y-89535000D01*
X211778368Y-89651525D01*
X211571525Y-89858368D01*
X211409010Y-90101589D01*
X211297068Y-90371842D01*
X211240000Y-90658740D01*
X211240000Y-90951260D01*
X211297068Y-91238158D01*
X211409010Y-91508411D01*
X211571525Y-91751632D01*
X211778368Y-91958475D01*
X211952760Y-92075000D01*
X211778368Y-92191525D01*
X211571525Y-92398368D01*
X211409010Y-92641589D01*
X211297068Y-92911842D01*
X211240000Y-93198740D01*
X211240000Y-93491260D01*
X211297068Y-93778158D01*
X211409010Y-94048411D01*
X211571525Y-94291632D01*
X211778368Y-94498475D01*
X212021589Y-94660990D01*
X212291842Y-94772932D01*
X212578740Y-94830000D01*
X212871260Y-94830000D01*
X213158158Y-94772932D01*
X213428411Y-94660990D01*
X213671632Y-94498475D01*
X213878475Y-94291632D01*
X214040990Y-94048411D01*
X214152932Y-93778158D01*
X214210000Y-93491260D01*
X214210000Y-93198740D01*
X214152932Y-92911842D01*
X214040990Y-92641589D01*
X213878475Y-92398368D01*
X213671632Y-92191525D01*
X213497240Y-92075000D01*
X213671632Y-91958475D01*
X213878475Y-91751632D01*
X214040990Y-91508411D01*
X214152932Y-91238158D01*
X214210000Y-90951260D01*
X214210000Y-90658740D01*
X214152932Y-90371842D01*
X214040990Y-90101589D01*
X213878475Y-89858368D01*
X213671632Y-89651525D01*
X213497240Y-89535000D01*
X213671632Y-89418475D01*
X213878475Y-89211632D01*
X214040990Y-88968411D01*
X214152932Y-88698158D01*
X214210000Y-88411260D01*
X214210000Y-88118740D01*
X214152932Y-87831842D01*
X214040990Y-87561589D01*
X213878475Y-87318368D01*
X213671632Y-87111525D01*
X213497240Y-86995000D01*
X213671632Y-86878475D01*
X213878475Y-86671632D01*
X214040990Y-86428411D01*
X214152932Y-86158158D01*
X214210000Y-85871260D01*
X214210000Y-85578740D01*
X214152932Y-85291842D01*
X214040990Y-85021589D01*
X213878475Y-84778368D01*
X213671632Y-84571525D01*
X213497240Y-84455000D01*
X213671632Y-84338475D01*
X213878475Y-84131632D01*
X214040990Y-83888411D01*
X214152932Y-83618158D01*
X214210000Y-83331260D01*
X214210000Y-83038740D01*
X214152932Y-82751842D01*
X214040990Y-82481589D01*
X213878475Y-82238368D01*
X213746620Y-82106513D01*
X213819180Y-82084502D01*
X213929494Y-82025537D01*
X214026185Y-81946185D01*
X214105537Y-81849494D01*
X214164502Y-81739180D01*
X214200812Y-81619482D01*
X214213072Y-81495000D01*
X214213072Y-80543061D01*
X214865000Y-80543061D01*
X214865000Y-80746939D01*
X214904774Y-80946898D01*
X214982795Y-81135256D01*
X215011001Y-81177469D01*
X215011000Y-89364340D01*
X215006700Y-89408000D01*
X215011000Y-89451660D01*
X215011000Y-89451666D01*
X215023864Y-89582273D01*
X215074697Y-89749850D01*
X215157247Y-89904290D01*
X215268341Y-90039659D01*
X215302264Y-90067499D01*
X221837044Y-96602280D01*
X221831000Y-96632665D01*
X221831000Y-96915335D01*
X221886147Y-97192574D01*
X221994320Y-97453727D01*
X222151363Y-97688759D01*
X222351241Y-97888637D01*
X222586273Y-98045680D01*
X222847426Y-98153853D01*
X223124665Y-98209000D01*
X223407335Y-98209000D01*
X223684574Y-98153853D01*
X223945727Y-98045680D01*
X224180759Y-97888637D01*
X224380637Y-97688759D01*
X224537680Y-97453727D01*
X224645853Y-97192574D01*
X224701000Y-96915335D01*
X224701000Y-96632665D01*
X224647756Y-96364992D01*
X224885044Y-96602280D01*
X224879000Y-96632665D01*
X224879000Y-96915335D01*
X224934147Y-97192574D01*
X225042320Y-97453727D01*
X225199363Y-97688759D01*
X225399241Y-97888637D01*
X225634273Y-98045680D01*
X225895426Y-98153853D01*
X226172665Y-98209000D01*
X226455335Y-98209000D01*
X226732574Y-98153853D01*
X226993727Y-98045680D01*
X227228759Y-97888637D01*
X227428637Y-97688759D01*
X227585680Y-97453727D01*
X227600961Y-97416836D01*
X227722709Y-97516753D01*
X227877149Y-97599303D01*
X227943058Y-97619296D01*
X228044724Y-97650136D01*
X228077924Y-97653406D01*
X228175333Y-97663000D01*
X228175339Y-97663000D01*
X228218999Y-97667300D01*
X228232159Y-97666004D01*
X228247363Y-97688759D01*
X228447241Y-97888637D01*
X228682273Y-98045680D01*
X228943426Y-98153853D01*
X229220665Y-98209000D01*
X229503335Y-98209000D01*
X229780574Y-98153853D01*
X230041727Y-98045680D01*
X230276759Y-97888637D01*
X230476637Y-97688759D01*
X230633680Y-97453727D01*
X230741853Y-97192574D01*
X230797000Y-96915335D01*
X230797000Y-96632665D01*
X230741853Y-96355426D01*
X230633680Y-96094273D01*
X230476637Y-95859241D01*
X230276759Y-95659363D01*
X230041727Y-95502320D01*
X229780574Y-95394147D01*
X229503335Y-95339000D01*
X229220665Y-95339000D01*
X228943426Y-95394147D01*
X228682273Y-95502320D01*
X228447241Y-95659363D01*
X228404420Y-95702184D01*
X223291236Y-90589000D01*
X223393002Y-90589000D01*
X223393002Y-90423916D01*
X223615039Y-90545904D01*
X223749087Y-90505246D01*
X224003420Y-90385037D01*
X224229414Y-90217519D01*
X224418385Y-90009131D01*
X224563070Y-89767881D01*
X224657909Y-89503040D01*
X224922091Y-89503040D01*
X225016930Y-89767881D01*
X225161615Y-90009131D01*
X225350586Y-90217519D01*
X225576580Y-90385037D01*
X225830913Y-90505246D01*
X225964961Y-90545904D01*
X226187000Y-90423915D01*
X226187000Y-89281000D01*
X226441000Y-89281000D01*
X226441000Y-90423915D01*
X226663039Y-90545904D01*
X226797087Y-90505246D01*
X227051420Y-90385037D01*
X227277414Y-90217519D01*
X227466385Y-90009131D01*
X227611070Y-89767881D01*
X227705909Y-89503040D01*
X227970091Y-89503040D01*
X228064930Y-89767881D01*
X228209615Y-90009131D01*
X228398586Y-90217519D01*
X228624580Y-90385037D01*
X228878913Y-90505246D01*
X229012961Y-90545904D01*
X229235000Y-90423915D01*
X229235000Y-89281000D01*
X229489000Y-89281000D01*
X229489000Y-90423915D01*
X229711039Y-90545904D01*
X229845087Y-90505246D01*
X230099420Y-90385037D01*
X230325414Y-90217519D01*
X230514385Y-90009131D01*
X230659070Y-89767881D01*
X230753909Y-89503040D01*
X230632624Y-89281000D01*
X229489000Y-89281000D01*
X229235000Y-89281000D01*
X228091376Y-89281000D01*
X227970091Y-89503040D01*
X227705909Y-89503040D01*
X227584624Y-89281000D01*
X226441000Y-89281000D01*
X226187000Y-89281000D01*
X225043376Y-89281000D01*
X224922091Y-89503040D01*
X224657909Y-89503040D01*
X224536624Y-89281000D01*
X223393000Y-89281000D01*
X223393000Y-89301000D01*
X223139000Y-89301000D01*
X223139000Y-89281000D01*
X223119000Y-89281000D01*
X223119000Y-89027000D01*
X223139000Y-89027000D01*
X223139000Y-87884085D01*
X223393000Y-87884085D01*
X223393000Y-89027000D01*
X224536624Y-89027000D01*
X224657909Y-88804960D01*
X224922091Y-88804960D01*
X225043376Y-89027000D01*
X226187000Y-89027000D01*
X226187000Y-87884085D01*
X226441000Y-87884085D01*
X226441000Y-89027000D01*
X227584624Y-89027000D01*
X227705909Y-88804960D01*
X227970091Y-88804960D01*
X228091376Y-89027000D01*
X229235000Y-89027000D01*
X229235000Y-87884085D01*
X229489000Y-87884085D01*
X229489000Y-89027000D01*
X230632624Y-89027000D01*
X230753909Y-88804960D01*
X230659070Y-88540119D01*
X230514385Y-88298869D01*
X230325414Y-88090481D01*
X230099420Y-87922963D01*
X229845087Y-87802754D01*
X229711039Y-87762096D01*
X229489000Y-87884085D01*
X229235000Y-87884085D01*
X229012961Y-87762096D01*
X228878913Y-87802754D01*
X228624580Y-87922963D01*
X228398586Y-88090481D01*
X228209615Y-88298869D01*
X228064930Y-88540119D01*
X227970091Y-88804960D01*
X227705909Y-88804960D01*
X227611070Y-88540119D01*
X227466385Y-88298869D01*
X227277414Y-88090481D01*
X227051420Y-87922963D01*
X226797087Y-87802754D01*
X226663039Y-87762096D01*
X226441000Y-87884085D01*
X226187000Y-87884085D01*
X225964961Y-87762096D01*
X225830913Y-87802754D01*
X225576580Y-87922963D01*
X225350586Y-88090481D01*
X225161615Y-88298869D01*
X225016930Y-88540119D01*
X224922091Y-88804960D01*
X224657909Y-88804960D01*
X224563070Y-88540119D01*
X224418385Y-88298869D01*
X224229414Y-88090481D01*
X224003420Y-87922963D01*
X223749087Y-87802754D01*
X223615039Y-87762096D01*
X223393000Y-87884085D01*
X223139000Y-87884085D01*
X222916961Y-87762096D01*
X222782913Y-87802754D01*
X222528580Y-87922963D01*
X222302586Y-88090481D01*
X222113615Y-88298869D01*
X221968930Y-88540119D01*
X221874091Y-88804960D01*
X221995375Y-89026998D01*
X221831000Y-89026998D01*
X221831000Y-89128765D01*
X221742000Y-89039765D01*
X221742000Y-86384468D01*
X221770205Y-86342256D01*
X221848226Y-86153898D01*
X221888000Y-85953939D01*
X221888000Y-85750061D01*
X221848226Y-85550102D01*
X221770205Y-85361744D01*
X221656937Y-85192226D01*
X221512774Y-85048063D01*
X221343256Y-84934795D01*
X221154898Y-84856774D01*
X220954939Y-84817000D01*
X220751061Y-84817000D01*
X220551102Y-84856774D01*
X220362744Y-84934795D01*
X220193226Y-85048063D01*
X220049063Y-85192226D01*
X219935795Y-85361744D01*
X219857774Y-85550102D01*
X219818000Y-85750061D01*
X219818000Y-85953939D01*
X219857774Y-86153898D01*
X219935795Y-86342256D01*
X219964001Y-86384469D01*
X219964000Y-89166765D01*
X219329000Y-88531765D01*
X219329000Y-83717468D01*
X219357205Y-83675256D01*
X219435226Y-83486898D01*
X219475000Y-83286939D01*
X219475000Y-83083061D01*
X219435226Y-82883102D01*
X219357205Y-82694744D01*
X219243937Y-82525226D01*
X219099774Y-82381063D01*
X218930256Y-82267795D01*
X218741898Y-82189774D01*
X218541939Y-82150000D01*
X218338061Y-82150000D01*
X218138102Y-82189774D01*
X217949744Y-82267795D01*
X217780226Y-82381063D01*
X217636063Y-82525226D01*
X217522795Y-82694744D01*
X217444774Y-82883102D01*
X217405000Y-83083061D01*
X217405000Y-83286939D01*
X217444774Y-83486898D01*
X217522795Y-83675256D01*
X217551001Y-83717469D01*
X217551000Y-88856340D01*
X217546700Y-88900000D01*
X217551000Y-88943660D01*
X217551000Y-88943666D01*
X217563864Y-89074273D01*
X217614697Y-89241850D01*
X217697247Y-89396290D01*
X217808341Y-89531659D01*
X217842264Y-89559499D01*
X223675009Y-95392244D01*
X223407335Y-95339000D01*
X223124665Y-95339000D01*
X223094280Y-95345044D01*
X216789000Y-89039765D01*
X216789000Y-81177468D01*
X216817205Y-81135256D01*
X216895226Y-80946898D01*
X216935000Y-80746939D01*
X216935000Y-80543061D01*
X216895226Y-80343102D01*
X216817205Y-80154744D01*
X216703937Y-79985226D01*
X216559774Y-79841063D01*
X216390256Y-79727795D01*
X216201898Y-79649774D01*
X216001939Y-79610000D01*
X215798061Y-79610000D01*
X215598102Y-79649774D01*
X215409744Y-79727795D01*
X215240226Y-79841063D01*
X215096063Y-79985226D01*
X214982795Y-80154744D01*
X214904774Y-80343102D01*
X214865000Y-80543061D01*
X214213072Y-80543061D01*
X214213072Y-79795000D01*
X214200812Y-79670518D01*
X214164502Y-79550820D01*
X214105537Y-79440506D01*
X214026185Y-79343815D01*
X213929494Y-79264463D01*
X213819180Y-79205498D01*
X213699482Y-79169188D01*
X213575000Y-79156928D01*
X211875000Y-79156928D01*
X211750518Y-79169188D01*
X211630820Y-79205498D01*
X211520506Y-79264463D01*
X211423815Y-79343815D01*
X211344463Y-79440506D01*
X211285498Y-79550820D01*
X211249188Y-79670518D01*
X211236928Y-79795000D01*
X210845000Y-79795000D01*
X210845000Y-75418740D01*
X211240000Y-75418740D01*
X211240000Y-75711260D01*
X211297068Y-75998158D01*
X211409010Y-76268411D01*
X211571525Y-76511632D01*
X211778368Y-76718475D01*
X212021589Y-76880990D01*
X212291842Y-76992932D01*
X212578740Y-77050000D01*
X212871260Y-77050000D01*
X213158158Y-76992932D01*
X213428411Y-76880990D01*
X213671632Y-76718475D01*
X213878475Y-76511632D01*
X214040990Y-76268411D01*
X214152932Y-75998158D01*
X214210000Y-75711260D01*
X214210000Y-75418740D01*
X214152932Y-75131842D01*
X214040990Y-74861589D01*
X213878475Y-74618368D01*
X213671632Y-74411525D01*
X213489466Y-74289805D01*
X213606355Y-74220178D01*
X213822588Y-74025269D01*
X213996641Y-73791920D01*
X214121825Y-73529099D01*
X214166476Y-73381890D01*
X214045155Y-73152000D01*
X212852000Y-73152000D01*
X212852000Y-73172000D01*
X212598000Y-73172000D01*
X212598000Y-73152000D01*
X211404845Y-73152000D01*
X211283524Y-73381890D01*
X211328175Y-73529099D01*
X211453359Y-73791920D01*
X211627412Y-74025269D01*
X211843645Y-74220178D01*
X211960534Y-74289805D01*
X211778368Y-74411525D01*
X211571525Y-74618368D01*
X211409010Y-74861589D01*
X211297068Y-75131842D01*
X211240000Y-75418740D01*
X210845000Y-75418740D01*
X210845000Y-70841890D01*
X211283524Y-70841890D01*
X211328175Y-70989099D01*
X211453359Y-71251920D01*
X211627412Y-71485269D01*
X211843645Y-71680178D01*
X211969255Y-71755000D01*
X211843645Y-71829822D01*
X211627412Y-72024731D01*
X211453359Y-72258080D01*
X211328175Y-72520901D01*
X211283524Y-72668110D01*
X211404845Y-72898000D01*
X212598000Y-72898000D01*
X212598000Y-70612000D01*
X211404845Y-70612000D01*
X211283524Y-70841890D01*
X210845000Y-70841890D01*
X210845000Y-56935000D01*
X211236928Y-56935000D01*
X211236928Y-58635000D01*
X211249188Y-58759482D01*
X211285498Y-58879180D01*
X211344463Y-58989494D01*
X211423815Y-59086185D01*
X211520506Y-59165537D01*
X211630820Y-59224502D01*
X211703380Y-59246513D01*
X211571525Y-59378368D01*
X211409010Y-59621589D01*
X211297068Y-59891842D01*
X211240000Y-60178740D01*
X211240000Y-60471260D01*
X211297068Y-60758158D01*
X211409010Y-61028411D01*
X211571525Y-61271632D01*
X211778368Y-61478475D01*
X211952760Y-61595000D01*
X211778368Y-61711525D01*
X211571525Y-61918368D01*
X211409010Y-62161589D01*
X211297068Y-62431842D01*
X211240000Y-62718740D01*
X211240000Y-63011260D01*
X211297068Y-63298158D01*
X211409010Y-63568411D01*
X211571525Y-63811632D01*
X211778368Y-64018475D01*
X211952760Y-64135000D01*
X211778368Y-64251525D01*
X211571525Y-64458368D01*
X211409010Y-64701589D01*
X211297068Y-64971842D01*
X211240000Y-65258740D01*
X211240000Y-65551260D01*
X211297068Y-65838158D01*
X211409010Y-66108411D01*
X211571525Y-66351632D01*
X211778368Y-66558475D01*
X211952760Y-66675000D01*
X211778368Y-66791525D01*
X211571525Y-66998368D01*
X211409010Y-67241589D01*
X211297068Y-67511842D01*
X211240000Y-67798740D01*
X211240000Y-68091260D01*
X211297068Y-68378158D01*
X211409010Y-68648411D01*
X211571525Y-68891632D01*
X211778368Y-69098475D01*
X211960534Y-69220195D01*
X211843645Y-69289822D01*
X211627412Y-69484731D01*
X211453359Y-69718080D01*
X211328175Y-69980901D01*
X211283524Y-70128110D01*
X211404845Y-70358000D01*
X212598000Y-70358000D01*
X212598000Y-70338000D01*
X212852000Y-70338000D01*
X212852000Y-70358000D01*
X212872000Y-70358000D01*
X212872000Y-70612000D01*
X212852000Y-70612000D01*
X212852000Y-72898000D01*
X214045155Y-72898000D01*
X214166476Y-72668110D01*
X214121825Y-72520901D01*
X213996641Y-72258080D01*
X213822588Y-72024731D01*
X213606355Y-71829822D01*
X213480745Y-71755000D01*
X213606355Y-71680178D01*
X213822588Y-71485269D01*
X213996641Y-71251920D01*
X214121825Y-70989099D01*
X214166476Y-70841890D01*
X214045371Y-70612409D01*
X215455500Y-72022538D01*
X215455500Y-72343215D01*
X215450892Y-72390000D01*
X215455500Y-72436784D01*
X215455500Y-72436785D01*
X215469283Y-72576723D01*
X215523749Y-72756269D01*
X215612195Y-72921741D01*
X215731223Y-73066778D01*
X215767564Y-73096602D01*
X235902501Y-93231540D01*
X235902500Y-102464953D01*
X235859774Y-102568102D01*
X235820000Y-102768061D01*
X235820000Y-102971939D01*
X235859774Y-103171898D01*
X235937795Y-103360256D01*
X236051063Y-103529774D01*
X236195226Y-103673937D01*
X236364744Y-103787205D01*
X236553102Y-103865226D01*
X236753061Y-103905000D01*
X236956939Y-103905000D01*
X237156898Y-103865226D01*
X237345256Y-103787205D01*
X237514774Y-103673937D01*
X237658937Y-103529774D01*
X237772205Y-103360256D01*
X237850226Y-103171898D01*
X237890000Y-102971939D01*
X237890000Y-102768061D01*
X237883144Y-102733589D01*
X243059000Y-102733589D01*
X243059000Y-103006411D01*
X243112225Y-103273989D01*
X243216629Y-103526043D01*
X243368201Y-103752886D01*
X243561114Y-103945799D01*
X243787957Y-104097371D01*
X244040011Y-104201775D01*
X244307589Y-104255000D01*
X244580411Y-104255000D01*
X244847989Y-104201775D01*
X245100043Y-104097371D01*
X245326886Y-103945799D01*
X245519799Y-103752886D01*
X245671371Y-103526043D01*
X245775775Y-103273989D01*
X245829000Y-103006411D01*
X245829000Y-102733589D01*
X246059000Y-102733589D01*
X246059000Y-103006411D01*
X246112225Y-103273989D01*
X246216629Y-103526043D01*
X246368201Y-103752886D01*
X246561114Y-103945799D01*
X246787957Y-104097371D01*
X247040011Y-104201775D01*
X247307589Y-104255000D01*
X247580411Y-104255000D01*
X247847989Y-104201775D01*
X248100043Y-104097371D01*
X248326886Y-103945799D01*
X248519799Y-103752886D01*
X248671371Y-103526043D01*
X248775775Y-103273989D01*
X248829000Y-103006411D01*
X248829000Y-102733589D01*
X248775775Y-102466011D01*
X248736007Y-102370000D01*
X249055928Y-102370000D01*
X249055928Y-103370000D01*
X249072992Y-103543254D01*
X249123528Y-103709850D01*
X249205595Y-103863386D01*
X249316038Y-103997962D01*
X249450614Y-104108405D01*
X249604150Y-104190472D01*
X249770746Y-104241008D01*
X249944000Y-104258072D01*
X250944000Y-104258072D01*
X251117254Y-104241008D01*
X251283850Y-104190472D01*
X251437386Y-104108405D01*
X251571962Y-103997962D01*
X251682405Y-103863386D01*
X251764472Y-103709850D01*
X251815008Y-103543254D01*
X251832072Y-103370000D01*
X251832072Y-102370000D01*
X251815008Y-102196746D01*
X251764472Y-102030150D01*
X251682405Y-101876614D01*
X251571962Y-101742038D01*
X251437386Y-101631595D01*
X251283850Y-101549528D01*
X251117254Y-101498992D01*
X250944000Y-101481928D01*
X249944000Y-101481928D01*
X249770746Y-101498992D01*
X249604150Y-101549528D01*
X249450614Y-101631595D01*
X249316038Y-101742038D01*
X249205595Y-101876614D01*
X249123528Y-102030150D01*
X249072992Y-102196746D01*
X249055928Y-102370000D01*
X248736007Y-102370000D01*
X248671371Y-102213957D01*
X248519799Y-101987114D01*
X248326886Y-101794201D01*
X248100043Y-101642629D01*
X247847989Y-101538225D01*
X247580411Y-101485000D01*
X247307589Y-101485000D01*
X247040011Y-101538225D01*
X246787957Y-101642629D01*
X246561114Y-101794201D01*
X246368201Y-101987114D01*
X246216629Y-102213957D01*
X246112225Y-102466011D01*
X246059000Y-102733589D01*
X245829000Y-102733589D01*
X245775775Y-102466011D01*
X245671371Y-102213957D01*
X245519799Y-101987114D01*
X245326886Y-101794201D01*
X245100043Y-101642629D01*
X244847989Y-101538225D01*
X244580411Y-101485000D01*
X244307589Y-101485000D01*
X244040011Y-101538225D01*
X243787957Y-101642629D01*
X243561114Y-101794201D01*
X243368201Y-101987114D01*
X243216629Y-102213957D01*
X243112225Y-102466011D01*
X243059000Y-102733589D01*
X237883144Y-102733589D01*
X237850226Y-102568102D01*
X237807500Y-102464953D01*
X237807500Y-99733589D01*
X243059000Y-99733589D01*
X243059000Y-100006411D01*
X243112225Y-100273989D01*
X243216629Y-100526043D01*
X243368201Y-100752886D01*
X243561114Y-100945799D01*
X243787957Y-101097371D01*
X244040011Y-101201775D01*
X244307589Y-101255000D01*
X244580411Y-101255000D01*
X244847989Y-101201775D01*
X245100043Y-101097371D01*
X245326886Y-100945799D01*
X245519799Y-100752886D01*
X245671371Y-100526043D01*
X245775775Y-100273989D01*
X245829000Y-100006411D01*
X245829000Y-99733589D01*
X246059000Y-99733589D01*
X246059000Y-100006411D01*
X246112225Y-100273989D01*
X246216629Y-100526043D01*
X246368201Y-100752886D01*
X246561114Y-100945799D01*
X246787957Y-101097371D01*
X247040011Y-101201775D01*
X247307589Y-101255000D01*
X247580411Y-101255000D01*
X247847989Y-101201775D01*
X248100043Y-101097371D01*
X248326886Y-100945799D01*
X248519799Y-100752886D01*
X248671371Y-100526043D01*
X248775775Y-100273989D01*
X248829000Y-100006411D01*
X248829000Y-99733589D01*
X249059000Y-99733589D01*
X249059000Y-100006411D01*
X249112225Y-100273989D01*
X249216629Y-100526043D01*
X249368201Y-100752886D01*
X249561114Y-100945799D01*
X249787957Y-101097371D01*
X250040011Y-101201775D01*
X250307589Y-101255000D01*
X250580411Y-101255000D01*
X250847989Y-101201775D01*
X251100043Y-101097371D01*
X251326886Y-100945799D01*
X251519799Y-100752886D01*
X251671371Y-100526043D01*
X251775775Y-100273989D01*
X251829000Y-100006411D01*
X251829000Y-99733589D01*
X251775775Y-99466011D01*
X251671371Y-99213957D01*
X251519799Y-98987114D01*
X251326886Y-98794201D01*
X251100043Y-98642629D01*
X250847989Y-98538225D01*
X250580411Y-98485000D01*
X250307589Y-98485000D01*
X250040011Y-98538225D01*
X249787957Y-98642629D01*
X249561114Y-98794201D01*
X249368201Y-98987114D01*
X249216629Y-99213957D01*
X249112225Y-99466011D01*
X249059000Y-99733589D01*
X248829000Y-99733589D01*
X248775775Y-99466011D01*
X248671371Y-99213957D01*
X248519799Y-98987114D01*
X248326886Y-98794201D01*
X248100043Y-98642629D01*
X247847989Y-98538225D01*
X247580411Y-98485000D01*
X247307589Y-98485000D01*
X247040011Y-98538225D01*
X246787957Y-98642629D01*
X246561114Y-98794201D01*
X246368201Y-98987114D01*
X246216629Y-99213957D01*
X246112225Y-99466011D01*
X246059000Y-99733589D01*
X245829000Y-99733589D01*
X245775775Y-99466011D01*
X245671371Y-99213957D01*
X245519799Y-98987114D01*
X245326886Y-98794201D01*
X245100043Y-98642629D01*
X244847989Y-98538225D01*
X244580411Y-98485000D01*
X244307589Y-98485000D01*
X244040011Y-98538225D01*
X243787957Y-98642629D01*
X243561114Y-98794201D01*
X243368201Y-98987114D01*
X243216629Y-99213957D01*
X243112225Y-99466011D01*
X243059000Y-99733589D01*
X237807500Y-99733589D01*
X237807500Y-92883785D01*
X237812108Y-92837000D01*
X237793717Y-92650278D01*
X237791082Y-92641589D01*
X237739252Y-92470731D01*
X237739252Y-92470730D01*
X237695029Y-92387995D01*
X237650806Y-92305259D01*
X237531778Y-92160222D01*
X237495436Y-92130397D01*
X225273100Y-79908061D01*
X230740000Y-79908061D01*
X230740000Y-80111939D01*
X230779774Y-80311898D01*
X230857795Y-80500256D01*
X230886001Y-80542469D01*
X230886000Y-81236339D01*
X230881700Y-81280000D01*
X230886000Y-81323660D01*
X230886000Y-81323666D01*
X230898864Y-81454273D01*
X230949697Y-81621850D01*
X231032247Y-81776290D01*
X231143341Y-81911659D01*
X231177264Y-81939499D01*
X243586001Y-94348236D01*
X243586000Y-95642151D01*
X243560241Y-95659363D01*
X243360363Y-95859241D01*
X243203320Y-96094273D01*
X243095147Y-96355426D01*
X243040000Y-96632665D01*
X243040000Y-96915335D01*
X243095147Y-97192574D01*
X243203320Y-97453727D01*
X243360363Y-97688759D01*
X243560241Y-97888637D01*
X243795273Y-98045680D01*
X244056426Y-98153853D01*
X244333665Y-98209000D01*
X244616335Y-98209000D01*
X244893574Y-98153853D01*
X245154727Y-98045680D01*
X245389759Y-97888637D01*
X245589637Y-97688759D01*
X245746680Y-97453727D01*
X245854853Y-97192574D01*
X245910000Y-96915335D01*
X245910000Y-96632665D01*
X245854853Y-96355426D01*
X245746680Y-96094273D01*
X245589637Y-95859241D01*
X245389759Y-95659363D01*
X245364000Y-95642151D01*
X245364000Y-94023659D01*
X245368300Y-93979999D01*
X245364000Y-93936339D01*
X245364000Y-93936333D01*
X245351136Y-93805726D01*
X245351136Y-93805724D01*
X245300302Y-93638147D01*
X245277078Y-93594699D01*
X245217753Y-93483709D01*
X245106659Y-93348341D01*
X245072736Y-93320501D01*
X239047526Y-87295291D01*
X239079395Y-87301630D01*
X246634001Y-94856236D01*
X246634000Y-95642151D01*
X246608241Y-95659363D01*
X246408363Y-95859241D01*
X246251320Y-96094273D01*
X246143147Y-96355426D01*
X246088000Y-96632665D01*
X246088000Y-96915335D01*
X246143147Y-97192574D01*
X246251320Y-97453727D01*
X246408363Y-97688759D01*
X246608241Y-97888637D01*
X246843273Y-98045680D01*
X247104426Y-98153853D01*
X247381665Y-98209000D01*
X247664335Y-98209000D01*
X247941574Y-98153853D01*
X248202727Y-98045680D01*
X248437759Y-97888637D01*
X248637637Y-97688759D01*
X248794680Y-97453727D01*
X248902853Y-97192574D01*
X248958000Y-96915335D01*
X248958000Y-96632665D01*
X249136000Y-96632665D01*
X249136000Y-96915335D01*
X249191147Y-97192574D01*
X249299320Y-97453727D01*
X249456363Y-97688759D01*
X249656241Y-97888637D01*
X249891273Y-98045680D01*
X250152426Y-98153853D01*
X250429665Y-98209000D01*
X250712335Y-98209000D01*
X250989574Y-98153853D01*
X251250727Y-98045680D01*
X251485759Y-97888637D01*
X251685637Y-97688759D01*
X251842680Y-97453727D01*
X251950853Y-97192574D01*
X252006000Y-96915335D01*
X252006000Y-96632665D01*
X251999956Y-96602279D01*
X253367743Y-95234493D01*
X253401659Y-95206659D01*
X253512753Y-95071291D01*
X253595303Y-94916851D01*
X253646136Y-94749274D01*
X253659000Y-94618667D01*
X253659000Y-94618660D01*
X253663300Y-94575000D01*
X253659000Y-94531340D01*
X253659000Y-75930468D01*
X253687205Y-75888256D01*
X253765226Y-75699898D01*
X253805000Y-75499939D01*
X253805000Y-75296061D01*
X253765226Y-75096102D01*
X253687205Y-74907744D01*
X253573937Y-74738226D01*
X253429774Y-74594063D01*
X253260256Y-74480795D01*
X253071898Y-74402774D01*
X252871939Y-74363000D01*
X252668061Y-74363000D01*
X252468102Y-74402774D01*
X252279744Y-74480795D01*
X252110226Y-74594063D01*
X251966063Y-74738226D01*
X251852795Y-74907744D01*
X251774774Y-75096102D01*
X251735000Y-75296061D01*
X251735000Y-75499939D01*
X251774774Y-75699898D01*
X251852795Y-75888256D01*
X251881001Y-75930469D01*
X251881000Y-88576227D01*
X251868070Y-88540119D01*
X251723385Y-88298869D01*
X251534414Y-88090481D01*
X251308420Y-87922963D01*
X251054087Y-87802754D01*
X250920039Y-87762096D01*
X250698000Y-87884085D01*
X250698000Y-89027000D01*
X250718000Y-89027000D01*
X250718000Y-89281000D01*
X250698000Y-89281000D01*
X250698000Y-90423915D01*
X250920039Y-90545904D01*
X251054087Y-90505246D01*
X251308420Y-90385037D01*
X251534414Y-90217519D01*
X251723385Y-90009131D01*
X251868070Y-89767881D01*
X251881000Y-89731773D01*
X251881000Y-94206764D01*
X250742721Y-95345044D01*
X250712335Y-95339000D01*
X250429665Y-95339000D01*
X250152426Y-95394147D01*
X249891273Y-95502320D01*
X249656241Y-95659363D01*
X249456363Y-95859241D01*
X249299320Y-96094273D01*
X249191147Y-96355426D01*
X249136000Y-96632665D01*
X248958000Y-96632665D01*
X248902853Y-96355426D01*
X248794680Y-96094273D01*
X248637637Y-95859241D01*
X248437759Y-95659363D01*
X248412000Y-95642151D01*
X248412000Y-94531659D01*
X248416300Y-94487999D01*
X248412000Y-94444339D01*
X248412000Y-94444333D01*
X248402406Y-94346924D01*
X248399136Y-94313724D01*
X248368296Y-94212058D01*
X248348303Y-94146149D01*
X248265753Y-93991709D01*
X248154659Y-93856341D01*
X248120736Y-93828501D01*
X244834858Y-90542623D01*
X244958087Y-90505246D01*
X245212420Y-90385037D01*
X245438414Y-90217519D01*
X245627385Y-90009131D01*
X245772070Y-89767881D01*
X245866909Y-89503040D01*
X246131091Y-89503040D01*
X246225930Y-89767881D01*
X246370615Y-90009131D01*
X246559586Y-90217519D01*
X246785580Y-90385037D01*
X247039913Y-90505246D01*
X247173961Y-90545904D01*
X247396000Y-90423915D01*
X247396000Y-89281000D01*
X247650000Y-89281000D01*
X247650000Y-90423915D01*
X247872039Y-90545904D01*
X248006087Y-90505246D01*
X248260420Y-90385037D01*
X248486414Y-90217519D01*
X248675385Y-90009131D01*
X248820070Y-89767881D01*
X248914909Y-89503040D01*
X249179091Y-89503040D01*
X249273930Y-89767881D01*
X249418615Y-90009131D01*
X249607586Y-90217519D01*
X249833580Y-90385037D01*
X250087913Y-90505246D01*
X250221961Y-90545904D01*
X250444000Y-90423915D01*
X250444000Y-89281000D01*
X249300376Y-89281000D01*
X249179091Y-89503040D01*
X248914909Y-89503040D01*
X248793624Y-89281000D01*
X247650000Y-89281000D01*
X247396000Y-89281000D01*
X246252376Y-89281000D01*
X246131091Y-89503040D01*
X245866909Y-89503040D01*
X245745624Y-89281000D01*
X244602000Y-89281000D01*
X244602000Y-89301000D01*
X244348000Y-89301000D01*
X244348000Y-89281000D01*
X244328000Y-89281000D01*
X244328000Y-89027000D01*
X244348000Y-89027000D01*
X244348000Y-87884085D01*
X244602000Y-87884085D01*
X244602000Y-89027000D01*
X245745624Y-89027000D01*
X245866909Y-88804960D01*
X246131091Y-88804960D01*
X246252376Y-89027000D01*
X247396000Y-89027000D01*
X247396000Y-87884085D01*
X247650000Y-87884085D01*
X247650000Y-89027000D01*
X248793624Y-89027000D01*
X248914909Y-88804960D01*
X249179091Y-88804960D01*
X249300376Y-89027000D01*
X250444000Y-89027000D01*
X250444000Y-87884085D01*
X250221961Y-87762096D01*
X250087913Y-87802754D01*
X249833580Y-87922963D01*
X249607586Y-88090481D01*
X249418615Y-88298869D01*
X249273930Y-88540119D01*
X249179091Y-88804960D01*
X248914909Y-88804960D01*
X248820070Y-88540119D01*
X248675385Y-88298869D01*
X248486414Y-88090481D01*
X248260420Y-87922963D01*
X248006087Y-87802754D01*
X247872039Y-87762096D01*
X247650000Y-87884085D01*
X247396000Y-87884085D01*
X247173961Y-87762096D01*
X247039913Y-87802754D01*
X246785580Y-87922963D01*
X246559586Y-88090481D01*
X246370615Y-88298869D01*
X246225930Y-88540119D01*
X246131091Y-88804960D01*
X245866909Y-88804960D01*
X245772070Y-88540119D01*
X245627385Y-88298869D01*
X245438414Y-88090481D01*
X245212420Y-87922963D01*
X244958087Y-87802754D01*
X244824039Y-87762096D01*
X244602000Y-87884085D01*
X244348000Y-87884085D01*
X244125961Y-87762096D01*
X243991913Y-87802754D01*
X243737580Y-87922963D01*
X243511586Y-88090481D01*
X243322615Y-88298869D01*
X243177930Y-88540119D01*
X243086810Y-88794575D01*
X240336630Y-86044395D01*
X240326726Y-85994602D01*
X240248705Y-85806244D01*
X240135437Y-85636726D01*
X239991274Y-85492563D01*
X239821756Y-85379295D01*
X239633398Y-85301274D01*
X239433439Y-85261500D01*
X239229561Y-85261500D01*
X239029602Y-85301274D01*
X238841244Y-85379295D01*
X238671726Y-85492563D01*
X238527563Y-85636726D01*
X238414295Y-85806244D01*
X238336274Y-85994602D01*
X238296500Y-86194561D01*
X238296500Y-86398439D01*
X238332709Y-86580474D01*
X232664000Y-80911765D01*
X232664000Y-80542468D01*
X232692205Y-80500256D01*
X232770226Y-80311898D01*
X232810000Y-80111939D01*
X232810000Y-79908061D01*
X232770226Y-79708102D01*
X232692205Y-79519744D01*
X232578937Y-79350226D01*
X232434774Y-79206063D01*
X232265256Y-79092795D01*
X232076898Y-79014774D01*
X231876939Y-78975000D01*
X231673061Y-78975000D01*
X231473102Y-79014774D01*
X231284744Y-79092795D01*
X231115226Y-79206063D01*
X230971063Y-79350226D01*
X230857795Y-79519744D01*
X230779774Y-79708102D01*
X230740000Y-79908061D01*
X225273100Y-79908061D01*
X217360500Y-71995462D01*
X217360500Y-71674785D01*
X217365108Y-71628000D01*
X217351050Y-71485269D01*
X217346717Y-71441277D01*
X217308147Y-71314129D01*
X217365363Y-71399759D01*
X217565241Y-71599637D01*
X217800273Y-71756680D01*
X218061426Y-71864853D01*
X218338665Y-71920000D01*
X218621335Y-71920000D01*
X218898574Y-71864853D01*
X219159727Y-71756680D01*
X219394759Y-71599637D01*
X219561339Y-71433057D01*
X219590498Y-71529180D01*
X219649463Y-71639494D01*
X219728815Y-71736185D01*
X219825506Y-71815537D01*
X219935820Y-71874502D01*
X220055518Y-71910812D01*
X220180000Y-71923072D01*
X220694250Y-71920000D01*
X220853000Y-71761250D01*
X220853000Y-70612000D01*
X221107000Y-70612000D01*
X221107000Y-71761250D01*
X221265750Y-71920000D01*
X221780000Y-71923072D01*
X221904482Y-71910812D01*
X222024180Y-71874502D01*
X222134494Y-71815537D01*
X222231185Y-71736185D01*
X222310537Y-71639494D01*
X222369502Y-71529180D01*
X222405812Y-71409482D01*
X222418072Y-71285000D01*
X222415000Y-70770750D01*
X222256250Y-70612000D01*
X221107000Y-70612000D01*
X220853000Y-70612000D01*
X220833000Y-70612000D01*
X220833000Y-70358000D01*
X220853000Y-70358000D01*
X220853000Y-69208750D01*
X221107000Y-69208750D01*
X221107000Y-70358000D01*
X222256250Y-70358000D01*
X222270585Y-70343665D01*
X222760000Y-70343665D01*
X222760000Y-70626335D01*
X222815147Y-70903574D01*
X222923320Y-71164727D01*
X223080363Y-71399759D01*
X223280241Y-71599637D01*
X223515273Y-71756680D01*
X223776426Y-71864853D01*
X224053665Y-71920000D01*
X224336335Y-71920000D01*
X224613574Y-71864853D01*
X224874727Y-71756680D01*
X225109759Y-71599637D01*
X225276339Y-71433057D01*
X225305498Y-71529180D01*
X225364463Y-71639494D01*
X225443815Y-71736185D01*
X225540506Y-71815537D01*
X225650820Y-71874502D01*
X225770518Y-71910812D01*
X225895000Y-71923072D01*
X226409250Y-71920000D01*
X226568000Y-71761250D01*
X226568000Y-70612000D01*
X226822000Y-70612000D01*
X226822000Y-71761250D01*
X226980750Y-71920000D01*
X227495000Y-71923072D01*
X227619482Y-71910812D01*
X227739180Y-71874502D01*
X227849494Y-71815537D01*
X227946185Y-71736185D01*
X228025537Y-71639494D01*
X228084502Y-71529180D01*
X228120812Y-71409482D01*
X228133072Y-71285000D01*
X228130000Y-70770750D01*
X227971250Y-70612000D01*
X226822000Y-70612000D01*
X226568000Y-70612000D01*
X226548000Y-70612000D01*
X226548000Y-70358000D01*
X226568000Y-70358000D01*
X226568000Y-69208750D01*
X226822000Y-69208750D01*
X226822000Y-70358000D01*
X227971250Y-70358000D01*
X227985585Y-70343665D01*
X228475000Y-70343665D01*
X228475000Y-70626335D01*
X228530147Y-70903574D01*
X228638320Y-71164727D01*
X228795363Y-71399759D01*
X228995241Y-71599637D01*
X229230273Y-71756680D01*
X229491426Y-71864853D01*
X229768665Y-71920000D01*
X230051335Y-71920000D01*
X230328574Y-71864853D01*
X230589727Y-71756680D01*
X230824759Y-71599637D01*
X230991339Y-71433057D01*
X231020498Y-71529180D01*
X231079463Y-71639494D01*
X231158815Y-71736185D01*
X231255506Y-71815537D01*
X231365820Y-71874502D01*
X231485518Y-71910812D01*
X231610000Y-71923072D01*
X232124250Y-71920000D01*
X232283000Y-71761250D01*
X232283000Y-70612000D01*
X232537000Y-70612000D01*
X232537000Y-71761250D01*
X232695750Y-71920000D01*
X233210000Y-71923072D01*
X233334482Y-71910812D01*
X233454180Y-71874502D01*
X233564494Y-71815537D01*
X233661185Y-71736185D01*
X233740537Y-71639494D01*
X233799502Y-71529180D01*
X233835812Y-71409482D01*
X233848072Y-71285000D01*
X233846325Y-70992435D01*
X235264871Y-70992435D01*
X235369644Y-71295344D01*
X235531499Y-71571992D01*
X235744215Y-71811748D01*
X235999618Y-72005399D01*
X236287893Y-72145502D01*
X236474566Y-72202124D01*
X236728000Y-72082777D01*
X236728000Y-70739000D01*
X236982000Y-70739000D01*
X236982000Y-72082777D01*
X237235434Y-72202124D01*
X237422107Y-72145502D01*
X237710382Y-72005399D01*
X237965785Y-71811748D01*
X238178501Y-71571992D01*
X238340356Y-71295344D01*
X238445129Y-70992435D01*
X238326315Y-70739000D01*
X236982000Y-70739000D01*
X236728000Y-70739000D01*
X235383685Y-70739000D01*
X235264871Y-70992435D01*
X233846325Y-70992435D01*
X233845000Y-70770750D01*
X233686250Y-70612000D01*
X232537000Y-70612000D01*
X232283000Y-70612000D01*
X232263000Y-70612000D01*
X232263000Y-70358000D01*
X232283000Y-70358000D01*
X232283000Y-69208750D01*
X232537000Y-69208750D01*
X232537000Y-70358000D01*
X233686250Y-70358000D01*
X233845000Y-70199250D01*
X233848072Y-69685000D01*
X233835812Y-69560518D01*
X233799502Y-69440820D01*
X233740537Y-69330506D01*
X233661185Y-69233815D01*
X233564494Y-69154463D01*
X233454180Y-69095498D01*
X233334482Y-69059188D01*
X233210000Y-69046928D01*
X232695750Y-69050000D01*
X232537000Y-69208750D01*
X232283000Y-69208750D01*
X232124250Y-69050000D01*
X231610000Y-69046928D01*
X231485518Y-69059188D01*
X231365820Y-69095498D01*
X231255506Y-69154463D01*
X231158815Y-69233815D01*
X231079463Y-69330506D01*
X231020498Y-69440820D01*
X230991339Y-69536943D01*
X230824759Y-69370363D01*
X230589727Y-69213320D01*
X230328574Y-69105147D01*
X230051335Y-69050000D01*
X229768665Y-69050000D01*
X229491426Y-69105147D01*
X229230273Y-69213320D01*
X228995241Y-69370363D01*
X228795363Y-69570241D01*
X228638320Y-69805273D01*
X228530147Y-70066426D01*
X228475000Y-70343665D01*
X227985585Y-70343665D01*
X228130000Y-70199250D01*
X228133072Y-69685000D01*
X228120812Y-69560518D01*
X228084502Y-69440820D01*
X228025537Y-69330506D01*
X227946185Y-69233815D01*
X227849494Y-69154463D01*
X227739180Y-69095498D01*
X227619482Y-69059188D01*
X227495000Y-69046928D01*
X226980750Y-69050000D01*
X226822000Y-69208750D01*
X226568000Y-69208750D01*
X226409250Y-69050000D01*
X225895000Y-69046928D01*
X225770518Y-69059188D01*
X225650820Y-69095498D01*
X225540506Y-69154463D01*
X225443815Y-69233815D01*
X225364463Y-69330506D01*
X225305498Y-69440820D01*
X225276339Y-69536943D01*
X225109759Y-69370363D01*
X224874727Y-69213320D01*
X224613574Y-69105147D01*
X224336335Y-69050000D01*
X224053665Y-69050000D01*
X223776426Y-69105147D01*
X223515273Y-69213320D01*
X223280241Y-69370363D01*
X223080363Y-69570241D01*
X222923320Y-69805273D01*
X222815147Y-70066426D01*
X222760000Y-70343665D01*
X222270585Y-70343665D01*
X222415000Y-70199250D01*
X222418072Y-69685000D01*
X222405812Y-69560518D01*
X222369502Y-69440820D01*
X222310537Y-69330506D01*
X222231185Y-69233815D01*
X222134494Y-69154463D01*
X222024180Y-69095498D01*
X221904482Y-69059188D01*
X221780000Y-69046928D01*
X221265750Y-69050000D01*
X221107000Y-69208750D01*
X220853000Y-69208750D01*
X220694250Y-69050000D01*
X220180000Y-69046928D01*
X220055518Y-69059188D01*
X219935820Y-69095498D01*
X219825506Y-69154463D01*
X219728815Y-69233815D01*
X219649463Y-69330506D01*
X219590498Y-69440820D01*
X219561339Y-69536943D01*
X219394759Y-69370363D01*
X219159727Y-69213320D01*
X218898574Y-69105147D01*
X218621335Y-69050000D01*
X218338665Y-69050000D01*
X218061426Y-69105147D01*
X217800273Y-69213320D01*
X217565241Y-69370363D01*
X217365363Y-69570241D01*
X217208320Y-69805273D01*
X217100147Y-70066426D01*
X217045000Y-70343665D01*
X217045000Y-70626335D01*
X217100147Y-70903574D01*
X217155658Y-71037591D01*
X217084778Y-70951222D01*
X217048431Y-70921393D01*
X214210000Y-68082962D01*
X214210000Y-67798740D01*
X214152932Y-67511842D01*
X214040990Y-67241589D01*
X213878475Y-66998368D01*
X213671632Y-66791525D01*
X213497240Y-66675000D01*
X213671632Y-66558475D01*
X213878475Y-66351632D01*
X213916983Y-66294000D01*
X223603340Y-66294000D01*
X223647000Y-66298300D01*
X223690660Y-66294000D01*
X223690667Y-66294000D01*
X223821274Y-66281136D01*
X223988851Y-66230303D01*
X224143291Y-66147753D01*
X224278659Y-66036659D01*
X224306499Y-66002737D01*
X224364279Y-65944956D01*
X224394665Y-65951000D01*
X224677335Y-65951000D01*
X224954574Y-65895853D01*
X225215727Y-65787680D01*
X225450759Y-65630637D01*
X225650637Y-65430759D01*
X225807680Y-65195727D01*
X225915853Y-64934574D01*
X225971000Y-64657335D01*
X225971000Y-64374665D01*
X230721000Y-64374665D01*
X230721000Y-64657335D01*
X230776147Y-64934574D01*
X230884320Y-65195727D01*
X231041363Y-65430759D01*
X231241241Y-65630637D01*
X231476273Y-65787680D01*
X231737426Y-65895853D01*
X232014665Y-65951000D01*
X232297335Y-65951000D01*
X232574574Y-65895853D01*
X232835727Y-65787680D01*
X233070759Y-65630637D01*
X233113581Y-65587816D01*
X235216928Y-67691163D01*
X235216928Y-69072000D01*
X235229188Y-69196482D01*
X235265498Y-69316180D01*
X235324463Y-69426494D01*
X235403815Y-69523185D01*
X235500506Y-69602537D01*
X235551302Y-69629688D01*
X235531499Y-69652008D01*
X235369644Y-69928656D01*
X235264871Y-70231565D01*
X235383685Y-70485000D01*
X236728000Y-70485000D01*
X236728000Y-70465000D01*
X236982000Y-70465000D01*
X236982000Y-70485000D01*
X238326315Y-70485000D01*
X238392574Y-70343665D01*
X239865000Y-70343665D01*
X239865000Y-70626335D01*
X239920147Y-70903574D01*
X240028320Y-71164727D01*
X240185363Y-71399759D01*
X240385241Y-71599637D01*
X240620273Y-71756680D01*
X240881426Y-71864853D01*
X241158665Y-71920000D01*
X241441335Y-71920000D01*
X241718574Y-71864853D01*
X241979727Y-71756680D01*
X242214759Y-71599637D01*
X242381339Y-71433057D01*
X242410498Y-71529180D01*
X242469463Y-71639494D01*
X242548815Y-71736185D01*
X242645506Y-71815537D01*
X242755820Y-71874502D01*
X242875518Y-71910812D01*
X243000000Y-71923072D01*
X243514250Y-71920000D01*
X243673000Y-71761250D01*
X243673000Y-70612000D01*
X243927000Y-70612000D01*
X243927000Y-71761250D01*
X244085750Y-71920000D01*
X244600000Y-71923072D01*
X244724482Y-71910812D01*
X244844180Y-71874502D01*
X244954494Y-71815537D01*
X245051185Y-71736185D01*
X245130537Y-71639494D01*
X245189502Y-71529180D01*
X245225812Y-71409482D01*
X245238072Y-71285000D01*
X245235000Y-70770750D01*
X245076250Y-70612000D01*
X243927000Y-70612000D01*
X243673000Y-70612000D01*
X243653000Y-70612000D01*
X243653000Y-70358000D01*
X243673000Y-70358000D01*
X243673000Y-69208750D01*
X243927000Y-69208750D01*
X243927000Y-70358000D01*
X245076250Y-70358000D01*
X245090585Y-70343665D01*
X245620000Y-70343665D01*
X245620000Y-70626335D01*
X245675147Y-70903574D01*
X245783320Y-71164727D01*
X245940363Y-71399759D01*
X246140241Y-71599637D01*
X246375273Y-71756680D01*
X246636426Y-71864853D01*
X246913665Y-71920000D01*
X247196335Y-71920000D01*
X247473574Y-71864853D01*
X247734727Y-71756680D01*
X247969759Y-71599637D01*
X248136339Y-71433057D01*
X248165498Y-71529180D01*
X248224463Y-71639494D01*
X248303815Y-71736185D01*
X248400506Y-71815537D01*
X248510820Y-71874502D01*
X248630518Y-71910812D01*
X248755000Y-71923072D01*
X249269250Y-71920000D01*
X249428000Y-71761250D01*
X249428000Y-70612000D01*
X249682000Y-70612000D01*
X249682000Y-71761250D01*
X249840750Y-71920000D01*
X250355000Y-71923072D01*
X250479482Y-71910812D01*
X250599180Y-71874502D01*
X250709494Y-71815537D01*
X250806185Y-71736185D01*
X250885537Y-71639494D01*
X250944502Y-71529180D01*
X250980812Y-71409482D01*
X250993072Y-71285000D01*
X250990000Y-70770750D01*
X250831250Y-70612000D01*
X249682000Y-70612000D01*
X249428000Y-70612000D01*
X249408000Y-70612000D01*
X249408000Y-70358000D01*
X249428000Y-70358000D01*
X249428000Y-69208750D01*
X249682000Y-69208750D01*
X249682000Y-70358000D01*
X250831250Y-70358000D01*
X250845585Y-70343665D01*
X251335000Y-70343665D01*
X251335000Y-70626335D01*
X251390147Y-70903574D01*
X251498320Y-71164727D01*
X251655363Y-71399759D01*
X251855241Y-71599637D01*
X252090273Y-71756680D01*
X252351426Y-71864853D01*
X252628665Y-71920000D01*
X252911335Y-71920000D01*
X253188574Y-71864853D01*
X253449727Y-71756680D01*
X253684759Y-71599637D01*
X253851339Y-71433057D01*
X253880498Y-71529180D01*
X253939463Y-71639494D01*
X254018815Y-71736185D01*
X254115506Y-71815537D01*
X254225820Y-71874502D01*
X254345518Y-71910812D01*
X254470000Y-71923072D01*
X254984250Y-71920000D01*
X255143000Y-71761250D01*
X255143000Y-70612000D01*
X255397000Y-70612000D01*
X255397000Y-71761250D01*
X255555750Y-71920000D01*
X256070000Y-71923072D01*
X256194482Y-71910812D01*
X256314180Y-71874502D01*
X256424494Y-71815537D01*
X256521185Y-71736185D01*
X256600537Y-71639494D01*
X256659502Y-71529180D01*
X256695812Y-71409482D01*
X256708072Y-71285000D01*
X256705000Y-70770750D01*
X256546250Y-70612000D01*
X255397000Y-70612000D01*
X255143000Y-70612000D01*
X255123000Y-70612000D01*
X255123000Y-70358000D01*
X255143000Y-70358000D01*
X255143000Y-69208750D01*
X255397000Y-69208750D01*
X255397000Y-70358000D01*
X256546250Y-70358000D01*
X256705000Y-70199250D01*
X256708072Y-69685000D01*
X256695812Y-69560518D01*
X256659502Y-69440820D01*
X256600537Y-69330506D01*
X256521185Y-69233815D01*
X256424494Y-69154463D01*
X256314180Y-69095498D01*
X256194482Y-69059188D01*
X256070000Y-69046928D01*
X255555750Y-69050000D01*
X255397000Y-69208750D01*
X255143000Y-69208750D01*
X254984250Y-69050000D01*
X254470000Y-69046928D01*
X254345518Y-69059188D01*
X254225820Y-69095498D01*
X254115506Y-69154463D01*
X254018815Y-69233815D01*
X253939463Y-69330506D01*
X253880498Y-69440820D01*
X253851339Y-69536943D01*
X253684759Y-69370363D01*
X253449727Y-69213320D01*
X253188574Y-69105147D01*
X252911335Y-69050000D01*
X252628665Y-69050000D01*
X252351426Y-69105147D01*
X252090273Y-69213320D01*
X251855241Y-69370363D01*
X251655363Y-69570241D01*
X251498320Y-69805273D01*
X251390147Y-70066426D01*
X251335000Y-70343665D01*
X250845585Y-70343665D01*
X250990000Y-70199250D01*
X250993072Y-69685000D01*
X250980812Y-69560518D01*
X250944502Y-69440820D01*
X250885537Y-69330506D01*
X250806185Y-69233815D01*
X250709494Y-69154463D01*
X250599180Y-69095498D01*
X250479482Y-69059188D01*
X250355000Y-69046928D01*
X249840750Y-69050000D01*
X249682000Y-69208750D01*
X249428000Y-69208750D01*
X249269250Y-69050000D01*
X248755000Y-69046928D01*
X248630518Y-69059188D01*
X248510820Y-69095498D01*
X248400506Y-69154463D01*
X248303815Y-69233815D01*
X248224463Y-69330506D01*
X248165498Y-69440820D01*
X248136339Y-69536943D01*
X247969759Y-69370363D01*
X247734727Y-69213320D01*
X247473574Y-69105147D01*
X247196335Y-69050000D01*
X246913665Y-69050000D01*
X246636426Y-69105147D01*
X246375273Y-69213320D01*
X246140241Y-69370363D01*
X245940363Y-69570241D01*
X245783320Y-69805273D01*
X245675147Y-70066426D01*
X245620000Y-70343665D01*
X245090585Y-70343665D01*
X245235000Y-70199250D01*
X245238072Y-69685000D01*
X245225812Y-69560518D01*
X245189502Y-69440820D01*
X245130537Y-69330506D01*
X245051185Y-69233815D01*
X244954494Y-69154463D01*
X244844180Y-69095498D01*
X244724482Y-69059188D01*
X244600000Y-69046928D01*
X244085750Y-69050000D01*
X243927000Y-69208750D01*
X243673000Y-69208750D01*
X243514250Y-69050000D01*
X243000000Y-69046928D01*
X242875518Y-69059188D01*
X242755820Y-69095498D01*
X242645506Y-69154463D01*
X242548815Y-69233815D01*
X242469463Y-69330506D01*
X242410498Y-69440820D01*
X242381339Y-69536943D01*
X242214759Y-69370363D01*
X241979727Y-69213320D01*
X241718574Y-69105147D01*
X241441335Y-69050000D01*
X241158665Y-69050000D01*
X240881426Y-69105147D01*
X240620273Y-69213320D01*
X240385241Y-69370363D01*
X240185363Y-69570241D01*
X240028320Y-69805273D01*
X239920147Y-70066426D01*
X239865000Y-70343665D01*
X238392574Y-70343665D01*
X238445129Y-70231565D01*
X238340356Y-69928656D01*
X238178501Y-69652008D01*
X238158698Y-69629688D01*
X238209494Y-69602537D01*
X238306185Y-69523185D01*
X238385537Y-69426494D01*
X238444502Y-69316180D01*
X238480812Y-69196482D01*
X238493072Y-69072000D01*
X238493072Y-67072000D01*
X238480812Y-66947518D01*
X238444502Y-66827820D01*
X238385537Y-66717506D01*
X238306185Y-66620815D01*
X238209494Y-66541463D01*
X238099180Y-66482498D01*
X237979482Y-66446188D01*
X237855000Y-66433928D01*
X236474163Y-66433928D01*
X233958499Y-63918264D01*
X233930659Y-63884341D01*
X233795291Y-63773247D01*
X233640851Y-63690697D01*
X233473274Y-63639864D01*
X233342667Y-63627000D01*
X233342660Y-63627000D01*
X233299000Y-63622700D01*
X233285841Y-63623996D01*
X233270637Y-63601241D01*
X233070759Y-63401363D01*
X232835727Y-63244320D01*
X232574574Y-63136147D01*
X232297335Y-63081000D01*
X232014665Y-63081000D01*
X231737426Y-63136147D01*
X231476273Y-63244320D01*
X231241241Y-63401363D01*
X231041363Y-63601241D01*
X230884320Y-63836273D01*
X230776147Y-64097426D01*
X230721000Y-64374665D01*
X225971000Y-64374665D01*
X225915853Y-64097426D01*
X225807680Y-63836273D01*
X225650637Y-63601241D01*
X225450759Y-63401363D01*
X225215727Y-63244320D01*
X224954574Y-63136147D01*
X224677335Y-63081000D01*
X224394665Y-63081000D01*
X224117426Y-63136147D01*
X223856273Y-63244320D01*
X223621241Y-63401363D01*
X223421363Y-63601241D01*
X223264320Y-63836273D01*
X223156147Y-64097426D01*
X223101000Y-64374665D01*
X223101000Y-64516000D01*
X213916983Y-64516000D01*
X213878475Y-64458368D01*
X213671632Y-64251525D01*
X213497240Y-64135000D01*
X213671632Y-64018475D01*
X213878475Y-63811632D01*
X214040990Y-63568411D01*
X214152932Y-63298158D01*
X214210000Y-63011260D01*
X214210000Y-62718740D01*
X214152932Y-62431842D01*
X214040990Y-62161589D01*
X213878475Y-61918368D01*
X213671632Y-61711525D01*
X213497240Y-61595000D01*
X213671632Y-61478475D01*
X213878475Y-61271632D01*
X214040990Y-61028411D01*
X214152932Y-60758158D01*
X214210000Y-60471260D01*
X214210000Y-60183665D01*
X241897000Y-60183665D01*
X241897000Y-60466335D01*
X241952147Y-60743574D01*
X242060320Y-61004727D01*
X242217363Y-61239759D01*
X242417241Y-61439637D01*
X242652273Y-61596680D01*
X242913426Y-61704853D01*
X243190665Y-61760000D01*
X243419962Y-61760000D01*
X245800397Y-64140436D01*
X245830222Y-64176778D01*
X245975259Y-64295806D01*
X246140731Y-64384252D01*
X246320277Y-64438717D01*
X246506999Y-64457108D01*
X246553784Y-64452500D01*
X257415462Y-64452500D01*
X258127500Y-65164539D01*
X258127501Y-83773205D01*
X258122892Y-83820000D01*
X258141283Y-84006722D01*
X258195749Y-84186269D01*
X258224469Y-84240000D01*
X258284195Y-84351741D01*
X258403223Y-84496778D01*
X258439564Y-84526602D01*
X259500000Y-85587039D01*
X259500000Y-85871260D01*
X259557068Y-86158158D01*
X259669010Y-86428411D01*
X259831525Y-86671632D01*
X260038368Y-86878475D01*
X260212760Y-86995000D01*
X260038368Y-87111525D01*
X259831525Y-87318368D01*
X259669010Y-87561589D01*
X259557068Y-87831842D01*
X259500000Y-88118740D01*
X259500000Y-88411260D01*
X259557068Y-88698158D01*
X259669010Y-88968411D01*
X259831525Y-89211632D01*
X260038368Y-89418475D01*
X260212760Y-89535000D01*
X260038368Y-89651525D01*
X259831525Y-89858368D01*
X259669010Y-90101589D01*
X259557068Y-90371842D01*
X259500000Y-90658740D01*
X259500000Y-90951260D01*
X259557068Y-91238158D01*
X259669010Y-91508411D01*
X259831525Y-91751632D01*
X260038368Y-91958475D01*
X260212760Y-92075000D01*
X260038368Y-92191525D01*
X259831525Y-92398368D01*
X259669010Y-92641589D01*
X259557068Y-92911842D01*
X259500000Y-93198740D01*
X259500000Y-93491260D01*
X259557068Y-93778158D01*
X259669010Y-94048411D01*
X259831525Y-94291632D01*
X260038368Y-94498475D01*
X260281589Y-94660990D01*
X260551842Y-94772932D01*
X260838740Y-94830000D01*
X261131260Y-94830000D01*
X261418158Y-94772932D01*
X261688411Y-94660990D01*
X261931632Y-94498475D01*
X262138475Y-94291632D01*
X262300990Y-94048411D01*
X262412932Y-93778158D01*
X262470000Y-93491260D01*
X262470000Y-93198740D01*
X262412932Y-92911842D01*
X262300990Y-92641589D01*
X262138475Y-92398368D01*
X261931632Y-92191525D01*
X261757240Y-92075000D01*
X261931632Y-91958475D01*
X262138475Y-91751632D01*
X262300990Y-91508411D01*
X262412932Y-91238158D01*
X262470000Y-90951260D01*
X262470000Y-90658740D01*
X262412932Y-90371842D01*
X262300990Y-90101589D01*
X262138475Y-89858368D01*
X261931632Y-89651525D01*
X261757240Y-89535000D01*
X261931632Y-89418475D01*
X262138475Y-89211632D01*
X262300990Y-88968411D01*
X262412932Y-88698158D01*
X262470000Y-88411260D01*
X262470000Y-88118740D01*
X262412932Y-87831842D01*
X262300990Y-87561589D01*
X262138475Y-87318368D01*
X261931632Y-87111525D01*
X261757240Y-86995000D01*
X261931632Y-86878475D01*
X262138475Y-86671632D01*
X262300990Y-86428411D01*
X262412932Y-86158158D01*
X262470000Y-85871260D01*
X262470000Y-85578740D01*
X262412932Y-85291842D01*
X262300990Y-85021589D01*
X262138475Y-84778368D01*
X261931632Y-84571525D01*
X261757240Y-84455000D01*
X261931632Y-84338475D01*
X262138475Y-84131632D01*
X262300990Y-83888411D01*
X262412932Y-83618158D01*
X262470000Y-83331260D01*
X262470000Y-83038740D01*
X262412932Y-82751842D01*
X262300990Y-82481589D01*
X262138475Y-82238368D01*
X261931632Y-82031525D01*
X261757240Y-81915000D01*
X261931632Y-81798475D01*
X262138475Y-81591632D01*
X262300990Y-81348411D01*
X262412932Y-81078158D01*
X262470000Y-80791260D01*
X262470000Y-80498740D01*
X262412932Y-80211842D01*
X262300990Y-79941589D01*
X262138475Y-79698368D01*
X261931632Y-79491525D01*
X261757240Y-79375000D01*
X261931632Y-79258475D01*
X262138475Y-79051632D01*
X262300990Y-78808411D01*
X262412932Y-78538158D01*
X262470000Y-78251260D01*
X262470000Y-77958740D01*
X262412932Y-77671842D01*
X262300990Y-77401589D01*
X262138475Y-77158368D01*
X262006620Y-77026513D01*
X262079180Y-77004502D01*
X262189494Y-76945537D01*
X262286185Y-76866185D01*
X262365537Y-76769494D01*
X262424502Y-76659180D01*
X262460812Y-76539482D01*
X262473072Y-76415000D01*
X262473072Y-74715000D01*
X262460812Y-74590518D01*
X262424502Y-74470820D01*
X262365537Y-74360506D01*
X262286185Y-74263815D01*
X262189494Y-74184463D01*
X262079180Y-74125498D01*
X261959482Y-74089188D01*
X261835000Y-74076928D01*
X260135000Y-74076928D01*
X260032500Y-74087023D01*
X260032500Y-72648607D01*
X260038368Y-72654475D01*
X260281589Y-72816990D01*
X260551842Y-72928932D01*
X260838740Y-72986000D01*
X261131260Y-72986000D01*
X261418158Y-72928932D01*
X261688411Y-72816990D01*
X261931632Y-72654475D01*
X262138475Y-72447632D01*
X262300990Y-72204411D01*
X262412932Y-71934158D01*
X262470000Y-71647260D01*
X262470000Y-71354740D01*
X262412932Y-71067842D01*
X262300990Y-70797589D01*
X262138475Y-70554368D01*
X261931632Y-70347525D01*
X261757240Y-70231000D01*
X261931632Y-70114475D01*
X262138475Y-69907632D01*
X262300990Y-69664411D01*
X262412932Y-69394158D01*
X262470000Y-69107260D01*
X262470000Y-68814740D01*
X262412932Y-68527842D01*
X262300990Y-68257589D01*
X262138475Y-68014368D01*
X261931632Y-67807525D01*
X261757240Y-67691000D01*
X261931632Y-67574475D01*
X262138475Y-67367632D01*
X262300990Y-67124411D01*
X262412932Y-66854158D01*
X262470000Y-66567260D01*
X262470000Y-66274740D01*
X262412932Y-65987842D01*
X262300990Y-65717589D01*
X262138475Y-65474368D01*
X261931632Y-65267525D01*
X261757240Y-65151000D01*
X261931632Y-65034475D01*
X262138475Y-64827632D01*
X262300990Y-64584411D01*
X262412932Y-64314158D01*
X262470000Y-64027260D01*
X262470000Y-63734740D01*
X262412932Y-63447842D01*
X262300990Y-63177589D01*
X262138475Y-62934368D01*
X261931632Y-62727525D01*
X261757240Y-62611000D01*
X261931632Y-62494475D01*
X262138475Y-62287632D01*
X262300990Y-62044411D01*
X262412932Y-61774158D01*
X262470000Y-61487260D01*
X262470000Y-61194740D01*
X262412932Y-60907842D01*
X262300990Y-60637589D01*
X262138475Y-60394368D01*
X261931632Y-60187525D01*
X261757240Y-60071000D01*
X261931632Y-59954475D01*
X262138475Y-59747632D01*
X262300990Y-59504411D01*
X262412932Y-59234158D01*
X262470000Y-58947260D01*
X262470000Y-58654740D01*
X262412932Y-58367842D01*
X262300990Y-58097589D01*
X262138475Y-57854368D01*
X261931632Y-57647525D01*
X261749466Y-57525805D01*
X261866355Y-57456178D01*
X262082588Y-57261269D01*
X262256641Y-57027920D01*
X262381825Y-56765099D01*
X262426476Y-56617890D01*
X262305155Y-56388000D01*
X261112000Y-56388000D01*
X261112000Y-56408000D01*
X260858000Y-56408000D01*
X260858000Y-56388000D01*
X259664845Y-56388000D01*
X259543524Y-56617890D01*
X259588175Y-56765099D01*
X259713359Y-57027920D01*
X259887412Y-57261269D01*
X260103645Y-57456178D01*
X260220534Y-57525805D01*
X260038368Y-57647525D01*
X259831525Y-57854368D01*
X259669010Y-58097589D01*
X259557068Y-58367842D01*
X259500000Y-58654740D01*
X259500000Y-58947260D01*
X259557068Y-59234158D01*
X259669010Y-59504411D01*
X259831525Y-59747632D01*
X260038368Y-59954475D01*
X260212760Y-60071000D01*
X260038368Y-60187525D01*
X259831525Y-60394368D01*
X259669010Y-60637589D01*
X259557068Y-60907842D01*
X259500000Y-61194740D01*
X259500000Y-61487260D01*
X259557068Y-61774158D01*
X259669010Y-62044411D01*
X259831525Y-62287632D01*
X260038368Y-62494475D01*
X260212760Y-62611000D01*
X260038368Y-62727525D01*
X259831525Y-62934368D01*
X259669010Y-63177589D01*
X259557068Y-63447842D01*
X259500000Y-63734740D01*
X259500000Y-63842961D01*
X258516607Y-62859569D01*
X258486778Y-62823222D01*
X258341741Y-62704194D01*
X258176269Y-62615748D01*
X257996723Y-62561283D01*
X257856785Y-62547500D01*
X257810000Y-62542892D01*
X257763215Y-62547500D01*
X256058138Y-62547500D01*
X256100411Y-62529990D01*
X256343632Y-62367475D01*
X256550475Y-62160632D01*
X256712990Y-61917411D01*
X256824932Y-61647158D01*
X256882000Y-61360260D01*
X256882000Y-61067740D01*
X256824932Y-60780842D01*
X256712990Y-60510589D01*
X256550475Y-60267368D01*
X256343632Y-60060525D01*
X256169240Y-59944000D01*
X256343632Y-59827475D01*
X256550475Y-59620632D01*
X256712990Y-59377411D01*
X256824932Y-59107158D01*
X256882000Y-58820260D01*
X256882000Y-58527740D01*
X256824932Y-58240842D01*
X256712990Y-57970589D01*
X256550475Y-57727368D01*
X256343632Y-57520525D01*
X256169240Y-57404000D01*
X256343632Y-57287475D01*
X256550475Y-57080632D01*
X256712990Y-56837411D01*
X256824932Y-56567158D01*
X256882000Y-56280260D01*
X256882000Y-55987740D01*
X256824932Y-55700842D01*
X256712990Y-55430589D01*
X256550475Y-55187368D01*
X256343632Y-54980525D01*
X256161466Y-54858805D01*
X256278355Y-54789178D01*
X256494588Y-54594269D01*
X256668641Y-54360920D01*
X256793825Y-54098099D01*
X256838476Y-53950890D01*
X256717155Y-53721000D01*
X255524000Y-53721000D01*
X255524000Y-53741000D01*
X255270000Y-53741000D01*
X255270000Y-53721000D01*
X254076845Y-53721000D01*
X253955524Y-53950890D01*
X254000175Y-54098099D01*
X254125359Y-54360920D01*
X254299412Y-54594269D01*
X254515645Y-54789178D01*
X254632534Y-54858805D01*
X254450368Y-54980525D01*
X254243525Y-55187368D01*
X254081010Y-55430589D01*
X253969068Y-55700842D01*
X253912000Y-55987740D01*
X253912000Y-56280260D01*
X253969068Y-56567158D01*
X254081010Y-56837411D01*
X254243525Y-57080632D01*
X254450368Y-57287475D01*
X254624760Y-57404000D01*
X254450368Y-57520525D01*
X254243525Y-57727368D01*
X254081010Y-57970589D01*
X253969068Y-58240842D01*
X253912000Y-58527740D01*
X253912000Y-58820260D01*
X253969068Y-59107158D01*
X254081010Y-59377411D01*
X254243525Y-59620632D01*
X254450368Y-59827475D01*
X254624760Y-59944000D01*
X254450368Y-60060525D01*
X254243525Y-60267368D01*
X254081010Y-60510589D01*
X253969068Y-60780842D01*
X253912000Y-61067740D01*
X253912000Y-61360260D01*
X253969068Y-61647158D01*
X254081010Y-61917411D01*
X254243525Y-62160632D01*
X254450368Y-62367475D01*
X254693589Y-62529990D01*
X254735862Y-62547500D01*
X246901539Y-62547500D01*
X244767000Y-60412962D01*
X244767000Y-60183665D01*
X249517000Y-60183665D01*
X249517000Y-60466335D01*
X249572147Y-60743574D01*
X249680320Y-61004727D01*
X249837363Y-61239759D01*
X250037241Y-61439637D01*
X250272273Y-61596680D01*
X250533426Y-61704853D01*
X250810665Y-61760000D01*
X251093335Y-61760000D01*
X251370574Y-61704853D01*
X251631727Y-61596680D01*
X251866759Y-61439637D01*
X252066637Y-61239759D01*
X252223680Y-61004727D01*
X252331853Y-60743574D01*
X252387000Y-60466335D01*
X252387000Y-60183665D01*
X252331853Y-59906426D01*
X252223680Y-59645273D01*
X252066637Y-59410241D01*
X251866759Y-59210363D01*
X251631727Y-59053320D01*
X251370574Y-58945147D01*
X251093335Y-58890000D01*
X250810665Y-58890000D01*
X250533426Y-58945147D01*
X250272273Y-59053320D01*
X250037241Y-59210363D01*
X249837363Y-59410241D01*
X249680320Y-59645273D01*
X249572147Y-59906426D01*
X249517000Y-60183665D01*
X244767000Y-60183665D01*
X244711853Y-59906426D01*
X244603680Y-59645273D01*
X244446637Y-59410241D01*
X244246759Y-59210363D01*
X244011727Y-59053320D01*
X243750574Y-58945147D01*
X243473335Y-58890000D01*
X243190665Y-58890000D01*
X242913426Y-58945147D01*
X242652273Y-59053320D01*
X242417241Y-59210363D01*
X242217363Y-59410241D01*
X242060320Y-59645273D01*
X241952147Y-59906426D01*
X241897000Y-60183665D01*
X214210000Y-60183665D01*
X214210000Y-60178740D01*
X214152932Y-59891842D01*
X214040990Y-59621589D01*
X213878475Y-59378368D01*
X213746620Y-59246513D01*
X213819180Y-59224502D01*
X213929494Y-59165537D01*
X214026185Y-59086185D01*
X214105537Y-58989494D01*
X214164502Y-58879180D01*
X214200812Y-58759482D01*
X214213072Y-58635000D01*
X214213072Y-58269702D01*
X242518903Y-58269702D01*
X242590486Y-58513671D01*
X242845996Y-58634571D01*
X243120184Y-58703300D01*
X243402512Y-58717217D01*
X243682130Y-58675787D01*
X243948292Y-58580603D01*
X244073514Y-58513671D01*
X244145097Y-58269702D01*
X243332000Y-57456605D01*
X242518903Y-58269702D01*
X214213072Y-58269702D01*
X214213072Y-57347512D01*
X241891783Y-57347512D01*
X241933213Y-57627130D01*
X242028397Y-57893292D01*
X242095329Y-58018514D01*
X242339298Y-58090097D01*
X243152395Y-57277000D01*
X243511605Y-57277000D01*
X244324702Y-58090097D01*
X244568671Y-58018514D01*
X244689571Y-57763004D01*
X244758300Y-57488816D01*
X244772217Y-57206488D01*
X244761724Y-57135665D01*
X249517000Y-57135665D01*
X249517000Y-57418335D01*
X249572147Y-57695574D01*
X249680320Y-57956727D01*
X249837363Y-58191759D01*
X250037241Y-58391637D01*
X250272273Y-58548680D01*
X250533426Y-58656853D01*
X250810665Y-58712000D01*
X251093335Y-58712000D01*
X251370574Y-58656853D01*
X251631727Y-58548680D01*
X251866759Y-58391637D01*
X252066637Y-58191759D01*
X252223680Y-57956727D01*
X252331853Y-57695574D01*
X252387000Y-57418335D01*
X252387000Y-57135665D01*
X252331853Y-56858426D01*
X252223680Y-56597273D01*
X252066637Y-56362241D01*
X251866759Y-56162363D01*
X251631727Y-56005320D01*
X251370574Y-55897147D01*
X251093335Y-55842000D01*
X250810665Y-55842000D01*
X250533426Y-55897147D01*
X250272273Y-56005320D01*
X250037241Y-56162363D01*
X249837363Y-56362241D01*
X249680320Y-56597273D01*
X249572147Y-56858426D01*
X249517000Y-57135665D01*
X244761724Y-57135665D01*
X244730787Y-56926870D01*
X244635603Y-56660708D01*
X244568671Y-56535486D01*
X244324702Y-56463903D01*
X243511605Y-57277000D01*
X243152395Y-57277000D01*
X242339298Y-56463903D01*
X242095329Y-56535486D01*
X241974429Y-56790996D01*
X241905700Y-57065184D01*
X241891783Y-57347512D01*
X214213072Y-57347512D01*
X214213072Y-56935000D01*
X214200812Y-56810518D01*
X214164502Y-56690820D01*
X214105537Y-56580506D01*
X214026185Y-56483815D01*
X213929494Y-56404463D01*
X213819180Y-56345498D01*
X213699482Y-56309188D01*
X213575000Y-56296928D01*
X211875000Y-56296928D01*
X211750518Y-56309188D01*
X211630820Y-56345498D01*
X211520506Y-56404463D01*
X211423815Y-56483815D01*
X211344463Y-56580506D01*
X211285498Y-56690820D01*
X211249188Y-56810518D01*
X211236928Y-56935000D01*
X210845000Y-56935000D01*
X210845000Y-56284298D01*
X242518903Y-56284298D01*
X243332000Y-57097395D01*
X244145097Y-56284298D01*
X244073514Y-56040329D01*
X243818004Y-55919429D01*
X243543816Y-55850700D01*
X243261488Y-55836783D01*
X242981870Y-55878213D01*
X242715708Y-55973397D01*
X242590486Y-56040329D01*
X242518903Y-56284298D01*
X210845000Y-56284298D01*
X210845000Y-47664000D01*
X253908928Y-47664000D01*
X253908928Y-49364000D01*
X253921188Y-49488482D01*
X253957498Y-49608180D01*
X254016463Y-49718494D01*
X254095815Y-49815185D01*
X254192506Y-49894537D01*
X254302820Y-49953502D01*
X254375380Y-49975513D01*
X254243525Y-50107368D01*
X254081010Y-50350589D01*
X253969068Y-50620842D01*
X253912000Y-50907740D01*
X253912000Y-51200260D01*
X253969068Y-51487158D01*
X254081010Y-51757411D01*
X254243525Y-52000632D01*
X254450368Y-52207475D01*
X254632534Y-52329195D01*
X254515645Y-52398822D01*
X254299412Y-52593731D01*
X254125359Y-52827080D01*
X254000175Y-53089901D01*
X253955524Y-53237110D01*
X254076845Y-53467000D01*
X255270000Y-53467000D01*
X255270000Y-53447000D01*
X255524000Y-53447000D01*
X255524000Y-53467000D01*
X256717155Y-53467000D01*
X256838476Y-53237110D01*
X256793825Y-53089901D01*
X256668641Y-52827080D01*
X256494588Y-52593731D01*
X256278355Y-52398822D01*
X256161466Y-52329195D01*
X256343632Y-52207475D01*
X256550475Y-52000632D01*
X256712990Y-51757411D01*
X256824932Y-51487158D01*
X256882000Y-51200260D01*
X256882000Y-50907740D01*
X256824932Y-50620842D01*
X256712990Y-50350589D01*
X256550475Y-50107368D01*
X256418620Y-49975513D01*
X256491180Y-49953502D01*
X256601494Y-49894537D01*
X256698185Y-49815185D01*
X256777537Y-49718494D01*
X256836502Y-49608180D01*
X256872812Y-49488482D01*
X256885072Y-49364000D01*
X256885072Y-47791000D01*
X259496928Y-47791000D01*
X259496928Y-49491000D01*
X259509188Y-49615482D01*
X259545498Y-49735180D01*
X259604463Y-49845494D01*
X259683815Y-49942185D01*
X259780506Y-50021537D01*
X259890820Y-50080502D01*
X259963380Y-50102513D01*
X259831525Y-50234368D01*
X259669010Y-50477589D01*
X259557068Y-50747842D01*
X259500000Y-51034740D01*
X259500000Y-51327260D01*
X259557068Y-51614158D01*
X259669010Y-51884411D01*
X259831525Y-52127632D01*
X260038368Y-52334475D01*
X260212760Y-52451000D01*
X260038368Y-52567525D01*
X259831525Y-52774368D01*
X259669010Y-53017589D01*
X259557068Y-53287842D01*
X259500000Y-53574740D01*
X259500000Y-53867260D01*
X259557068Y-54154158D01*
X259669010Y-54424411D01*
X259831525Y-54667632D01*
X260038368Y-54874475D01*
X260220534Y-54996195D01*
X260103645Y-55065822D01*
X259887412Y-55260731D01*
X259713359Y-55494080D01*
X259588175Y-55756901D01*
X259543524Y-55904110D01*
X259664845Y-56134000D01*
X260858000Y-56134000D01*
X260858000Y-56114000D01*
X261112000Y-56114000D01*
X261112000Y-56134000D01*
X262305155Y-56134000D01*
X262426476Y-55904110D01*
X262381825Y-55756901D01*
X262256641Y-55494080D01*
X262082588Y-55260731D01*
X261866355Y-55065822D01*
X261749466Y-54996195D01*
X261931632Y-54874475D01*
X262138475Y-54667632D01*
X262300990Y-54424411D01*
X262412932Y-54154158D01*
X262470000Y-53867260D01*
X262470000Y-53574740D01*
X262412932Y-53287842D01*
X262300990Y-53017589D01*
X262138475Y-52774368D01*
X261931632Y-52567525D01*
X261757240Y-52451000D01*
X261931632Y-52334475D01*
X262138475Y-52127632D01*
X262300990Y-51884411D01*
X262412932Y-51614158D01*
X262470000Y-51327260D01*
X262470000Y-51034740D01*
X262412932Y-50747842D01*
X262300990Y-50477589D01*
X262138475Y-50234368D01*
X262006620Y-50102513D01*
X262079180Y-50080502D01*
X262189494Y-50021537D01*
X262286185Y-49942185D01*
X262365537Y-49845494D01*
X262424502Y-49735180D01*
X262460812Y-49615482D01*
X262473072Y-49491000D01*
X262473072Y-47791000D01*
X262460812Y-47666518D01*
X262424502Y-47546820D01*
X262365537Y-47436506D01*
X262286185Y-47339815D01*
X262189494Y-47260463D01*
X262079180Y-47201498D01*
X261959482Y-47165188D01*
X261835000Y-47152928D01*
X260135000Y-47152928D01*
X260010518Y-47165188D01*
X259890820Y-47201498D01*
X259780506Y-47260463D01*
X259683815Y-47339815D01*
X259604463Y-47436506D01*
X259545498Y-47546820D01*
X259509188Y-47666518D01*
X259496928Y-47791000D01*
X256885072Y-47791000D01*
X256885072Y-47664000D01*
X256872812Y-47539518D01*
X256836502Y-47419820D01*
X256777537Y-47309506D01*
X256698185Y-47212815D01*
X256601494Y-47133463D01*
X256491180Y-47074498D01*
X256371482Y-47038188D01*
X256247000Y-47025928D01*
X254547000Y-47025928D01*
X254422518Y-47038188D01*
X254302820Y-47074498D01*
X254192506Y-47133463D01*
X254095815Y-47212815D01*
X254016463Y-47309506D01*
X253957498Y-47419820D01*
X253921188Y-47539518D01*
X253908928Y-47664000D01*
X210845000Y-47664000D01*
X210845000Y-43212275D01*
X210845666Y-43205487D01*
X210850301Y-43205000D01*
X262857725Y-43205000D01*
X262864513Y-43205666D01*
G37*
%TD.AperFunction*%
%TD*%
M02*
