M48
; DRILL file {KiCad (5.1.10)-1} date 09/10/21 15:59:32
; FORMAT={-:-/ absolute / inch / decimal}
; #@! TF.CreationDate,2021-09-10T15:59:32-05:00
; #@! TF.GenerationSoftware,Kicad,Pcbnew,(5.1.10)-1
FMAT,2
INCH
T1C0.0157
T2C0.0315
T3C0.0394
T4C0.0402
T5C0.1181
%
G90
G05
T1
X8.5Y-3.175
X8.6Y-3.275
X8.695Y-3.38
X9.125Y-3.15
X9.325Y-4.05
X9.4225Y-3.3975
X9.9516Y-2.9684
T2
X8.6016Y-2.775
X8.7Y-2.775
X8.79Y-3.51
X8.79Y-3.81
X8.8266Y-2.775
X8.84Y-2.54
X8.91Y-3.51
X8.91Y-3.81
X8.925Y-2.775
X9.03Y-3.51
X9.03Y-3.81
X9.0516Y-2.775
X9.14Y-2.54
X9.15Y-2.775
X9.5Y-2.775
X9.58Y-2.255
X9.58Y-2.375
X9.5984Y-2.775
X9.625Y-3.51
X9.625Y-3.81
X9.7266Y-2.775
X9.745Y-3.51
X9.745Y-3.81
X9.825Y-2.775
X9.865Y-3.51
X9.865Y-3.81
X9.88Y-2.255
X9.88Y-2.375
X9.9516Y-2.775
X10.05Y-2.775
T3
X8.375Y-2.275
X8.375Y-2.375
X8.375Y-2.475
X8.375Y-2.575
X8.375Y-2.675
X8.375Y-2.775
X8.375Y-2.875
X8.375Y-2.975
X8.375Y-3.175
X8.375Y-3.275
X8.375Y-3.375
X8.375Y-3.475
X8.375Y-3.575
X8.375Y-3.675
X9.325Y-2.68
X9.325Y-2.78
X10.055Y-1.91
X10.055Y-2.01
X10.055Y-2.11
X10.055Y-2.21
X10.055Y-2.31
X10.055Y-2.41
X10.275Y-1.915
X10.275Y-2.015
X10.275Y-2.115
X10.275Y-2.215
X10.275Y-2.315
X10.275Y-2.415
X10.275Y-2.515
X10.275Y-2.615
X10.275Y-2.715
X10.275Y-2.815
X10.275Y-2.975
X10.275Y-3.075
X10.275Y-3.175
X10.275Y-3.275
X10.275Y-3.375
X10.275Y-3.475
X10.275Y-3.575
X10.275Y-3.675
T4
X8.7888Y-3.9319
X8.7888Y-4.05
X8.9069Y-3.9319
X8.9069Y-4.05
X9.025Y-3.9319
X9.025Y-4.05
X9.6238Y-3.9319
X9.6238Y-4.05
X9.7419Y-3.9319
X9.7419Y-4.05
X9.86Y-3.9319
X9.86Y-4.05
T5
X8.9069Y-4.2201
X9.7419Y-4.2201
T0
M30
