%TF.GenerationSoftware,KiCad,Pcbnew,(5.1.9)-1*%
%TF.CreationDate,2022-01-30T23:42:20-06:00*%
%TF.ProjectId,V2_load_cell,56325f6c-6f61-4645-9f63-656c6c2e6b69,rev?*%
%TF.SameCoordinates,Original*%
%TF.FileFunction,Soldermask,Bot*%
%TF.FilePolarity,Negative*%
%FSLAX46Y46*%
G04 Gerber Fmt 4.6, Leading zero omitted, Abs format (unit mm)*
G04 Created by KiCad (PCBNEW (5.1.9)-1) date 2022-01-30 23:42:20*
%MOMM*%
%LPD*%
G01*
G04 APERTURE LIST*
%ADD10O,1.700000X1.700000*%
%ADD11R,1.700000X1.700000*%
%ADD12O,1.600000X1.600000*%
%ADD13R,1.600000X1.600000*%
%ADD14O,1.200000X1.750000*%
%ADD15C,3.200000*%
%ADD16C,1.600000*%
G04 APERTURE END LIST*
D10*
%TO.C,SW1*%
X107315000Y-46990000D03*
D11*
X107315000Y-44450000D03*
%TD*%
D10*
%TO.C,D1*%
X107315000Y-60325000D03*
D11*
X107315000Y-57785000D03*
%TD*%
D12*
%TO.C,A1*%
X76835000Y-80010000D03*
X61595000Y-80010000D03*
X76835000Y-44450000D03*
X61595000Y-77470000D03*
X76835000Y-46990000D03*
X61595000Y-74930000D03*
X76835000Y-49530000D03*
X61595000Y-72390000D03*
X76835000Y-52070000D03*
X61595000Y-69850000D03*
X76835000Y-54610000D03*
X61595000Y-67310000D03*
X76835000Y-57150000D03*
X61595000Y-64770000D03*
X76835000Y-59690000D03*
X61595000Y-62230000D03*
X76835000Y-62230000D03*
X61595000Y-59690000D03*
X76835000Y-64770000D03*
X61595000Y-57150000D03*
X76835000Y-67310000D03*
X61595000Y-54610000D03*
X76835000Y-69850000D03*
X61595000Y-52070000D03*
X76835000Y-72390000D03*
X61595000Y-49530000D03*
X76835000Y-74930000D03*
X61595000Y-46990000D03*
X76835000Y-77470000D03*
D13*
X61595000Y-44450000D03*
%TD*%
%TO.C,J9*%
G36*
G01*
X106715000Y-120005001D02*
X106715000Y-118754999D01*
G75*
G02*
X106964999Y-118505000I249999J0D01*
G01*
X107665001Y-118505000D01*
G75*
G02*
X107915000Y-118754999I0J-249999D01*
G01*
X107915000Y-120005001D01*
G75*
G02*
X107665001Y-120255000I-249999J0D01*
G01*
X106964999Y-120255000D01*
G75*
G02*
X106715000Y-120005001I0J249999D01*
G01*
G37*
D14*
X109315000Y-119380000D03*
X111315000Y-119380000D03*
%TD*%
D15*
%TO.C,H4*%
X120650000Y-120650000D03*
%TD*%
%TO.C,H3*%
X20320000Y-120650000D03*
%TD*%
%TO.C,H2*%
X118745000Y-19050000D03*
%TD*%
%TO.C,H1*%
X19050000Y-19050000D03*
%TD*%
D14*
%TO.C,J8*%
X33210000Y-119380000D03*
X31210000Y-119380000D03*
G36*
G01*
X28610000Y-120005001D02*
X28610000Y-118754999D01*
G75*
G02*
X28859999Y-118505000I249999J0D01*
G01*
X29560001Y-118505000D01*
G75*
G02*
X29810000Y-118754999I0J-249999D01*
G01*
X29810000Y-120005001D01*
G75*
G02*
X29560001Y-120255000I-249999J0D01*
G01*
X28859999Y-120255000D01*
G75*
G02*
X28610000Y-120005001I0J249999D01*
G01*
G37*
%TD*%
D11*
%TO.C,J16*%
X50165000Y-86360000D03*
D10*
X47625000Y-86360000D03*
X45085000Y-86360000D03*
X42545000Y-86360000D03*
X40005000Y-86360000D03*
X37465000Y-86360000D03*
%TD*%
D16*
%TO.C,R12*%
X113030000Y-113665000D03*
D12*
X113030000Y-106045000D03*
%TD*%
D16*
%TO.C,R11*%
X113030000Y-86995000D03*
D12*
X113030000Y-94615000D03*
%TD*%
D16*
%TO.C,R10*%
X118745000Y-106045000D03*
D12*
X118745000Y-113665000D03*
%TD*%
D16*
%TO.C,R9*%
X118745000Y-86995000D03*
D12*
X118745000Y-94615000D03*
%TD*%
D11*
%TO.C,J1*%
X67945000Y-31750000D03*
D10*
X70485000Y-31750000D03*
%TD*%
%TO.C,J2*%
X104775000Y-94615000D03*
X104775000Y-92075000D03*
X104775000Y-89535000D03*
X104775000Y-86995000D03*
X104775000Y-84455000D03*
D11*
X104775000Y-81915000D03*
%TD*%
%TO.C,J3*%
X104775000Y-100965000D03*
D10*
X104775000Y-103505000D03*
X104775000Y-106045000D03*
X104775000Y-108585000D03*
X104775000Y-111125000D03*
X104775000Y-113665000D03*
%TD*%
D14*
%TO.C,J6*%
X31940000Y-20955000D03*
X29940000Y-20955000D03*
G36*
G01*
X27340000Y-21580001D02*
X27340000Y-20329999D01*
G75*
G02*
X27589999Y-20080000I249999J0D01*
G01*
X28290001Y-20080000D01*
G75*
G02*
X28540000Y-20329999I0J-249999D01*
G01*
X28540000Y-21580001D01*
G75*
G02*
X28290001Y-21830000I-249999J0D01*
G01*
X27589999Y-21830000D01*
G75*
G02*
X27340000Y-21580001I0J249999D01*
G01*
G37*
%TD*%
%TO.C,J7*%
G36*
G01*
X105445000Y-21580001D02*
X105445000Y-20329999D01*
G75*
G02*
X105694999Y-20080000I249999J0D01*
G01*
X106395001Y-20080000D01*
G75*
G02*
X106645000Y-20329999I0J-249999D01*
G01*
X106645000Y-21580001D01*
G75*
G02*
X106395001Y-21830000I-249999J0D01*
G01*
X105694999Y-21830000D01*
G75*
G02*
X105445000Y-21580001I0J249999D01*
G01*
G37*
X108045000Y-20955000D03*
X110045000Y-20955000D03*
%TD*%
D10*
%TO.C,J10*%
X18415000Y-43815000D03*
X20955000Y-43815000D03*
X23495000Y-43815000D03*
X26035000Y-43815000D03*
X28575000Y-43815000D03*
D11*
X31115000Y-43815000D03*
%TD*%
D10*
%TO.C,J11*%
X28575000Y-69215000D03*
X26035000Y-69215000D03*
X23495000Y-69215000D03*
D11*
X20955000Y-69215000D03*
%TD*%
%TO.C,J12*%
X51435000Y-43815000D03*
D10*
X48895000Y-43815000D03*
X46355000Y-43815000D03*
X43815000Y-43815000D03*
X41275000Y-43815000D03*
X38735000Y-43815000D03*
%TD*%
D11*
%TO.C,J13*%
X41275000Y-69215000D03*
D10*
X43815000Y-69215000D03*
X46355000Y-69215000D03*
X48895000Y-69215000D03*
%TD*%
%TO.C,J14*%
X18415000Y-86360000D03*
X20955000Y-86360000D03*
X23495000Y-86360000D03*
X26035000Y-86360000D03*
X28575000Y-86360000D03*
D11*
X31115000Y-86360000D03*
%TD*%
%TO.C,J15*%
X20955000Y-111760000D03*
D10*
X23495000Y-111760000D03*
X26035000Y-111760000D03*
X28575000Y-111760000D03*
%TD*%
%TO.C,J17*%
X47625000Y-111760000D03*
X45085000Y-111760000D03*
X42545000Y-111760000D03*
D11*
X40005000Y-111760000D03*
%TD*%
D16*
%TO.C,R1*%
X25400000Y-31115000D03*
D12*
X25400000Y-38735000D03*
%TD*%
%TO.C,R2*%
X31115000Y-38735000D03*
D16*
X31115000Y-31115000D03*
%TD*%
%TO.C,R3*%
X45720000Y-31115000D03*
D12*
X45720000Y-38735000D03*
%TD*%
%TO.C,R4*%
X51435000Y-38735000D03*
D16*
X51435000Y-31115000D03*
%TD*%
D12*
%TO.C,R5*%
X25400000Y-81280000D03*
D16*
X25400000Y-73660000D03*
%TD*%
%TO.C,R6*%
X31115000Y-73660000D03*
D12*
X31115000Y-81280000D03*
%TD*%
%TO.C,R7*%
X44450000Y-81280000D03*
D16*
X44450000Y-73660000D03*
%TD*%
%TO.C,R8*%
X50165000Y-73660000D03*
D12*
X50165000Y-81280000D03*
%TD*%
M02*
