%FSLAX45Y45*%
G04 Gerber Fmt 4.5, Leading zero omitted, Abs format (unit mm)*
G04 Created by KiCad (PCBNEW (5.1.9)-1) date 2022-03-02 13:12:03*
%MOMM*%
%LPD*%
G01*
G04 APERTURE LIST*
%TA.AperFunction,Profile*%
%ADD10C,0.050000*%
%TD*%
%ADD11C,0.200000*%
%ADD12C,0.300000*%
G04 APERTURE END LIST*
D10*
X12636500Y-1206500D02*
X1206500Y-1206500D01*
X12636500Y-12636500D02*
X12636500Y-1206500D01*
X1206500Y-1206500D02*
X1206500Y-12636500D01*
X12636500Y-12636500D02*
X1206500Y-12636500D01*
D11*
X2874000Y-1804000D02*
X2949000Y-1879000D01*
X2949000Y-1804000D02*
X2874000Y-1879000D01*
X3074000Y-1804000D02*
X3149000Y-1879000D01*
X3149000Y-1804000D02*
X3074000Y-1879000D01*
X3274000Y-1804000D02*
X3349000Y-1879000D01*
X3349000Y-1804000D02*
X3274000Y-1879000D01*
X4779000Y-12154500D02*
X4854000Y-12229500D01*
X4854000Y-12154500D02*
X4779000Y-12229500D01*
X4979000Y-12154500D02*
X5054000Y-12229500D01*
X5054000Y-12154500D02*
X4979000Y-12229500D01*
X5179000Y-12154500D02*
X5254000Y-12229500D01*
X5254000Y-12154500D02*
X5179000Y-12229500D01*
X8589000Y-12154500D02*
X8664000Y-12229500D01*
X8664000Y-12154500D02*
X8589000Y-12229500D01*
X8789000Y-12154500D02*
X8864000Y-12229500D01*
X8864000Y-12154500D02*
X8789000Y-12229500D01*
X8989000Y-12154500D02*
X9064000Y-12229500D01*
X9064000Y-12154500D02*
X8989000Y-12229500D01*
X10484500Y-1804000D02*
X10559500Y-1879000D01*
X10559500Y-1804000D02*
X10484500Y-1879000D01*
X10684500Y-1804000D02*
X10759500Y-1879000D01*
X10759500Y-1804000D02*
X10684500Y-1879000D01*
X10884500Y-1804000D02*
X10959500Y-1879000D01*
X10959500Y-1804000D02*
X10884500Y-1879000D01*
X1881500Y-3048000D02*
G75*
G03*
X1881500Y-3048000I-40000J0D01*
G01*
X1881500Y-3492500D02*
G75*
G03*
X1881500Y-3492500I-40000J0D01*
G01*
X1881500Y-7429500D02*
G75*
G03*
X1881500Y-7429500I-40000J0D01*
G01*
X1881500Y-7874000D02*
G75*
G03*
X1881500Y-7874000I-40000J0D01*
G01*
X2643500Y-3048000D02*
G75*
G03*
X2643500Y-3048000I-40000J0D01*
G01*
X2643500Y-3492500D02*
G75*
G03*
X2643500Y-3492500I-40000J0D01*
G01*
X2643500Y-7429500D02*
G75*
G03*
X2643500Y-7429500I-40000J0D01*
G01*
X2643500Y-7874000D02*
G75*
G03*
X2643500Y-7874000I-40000J0D01*
G01*
X3786500Y-7429500D02*
G75*
G03*
X3786500Y-7429500I-40000J0D01*
G01*
X3786500Y-7874000D02*
G75*
G03*
X3786500Y-7874000I-40000J0D01*
G01*
X3913500Y-3048000D02*
G75*
G03*
X3913500Y-3048000I-40000J0D01*
G01*
X3913500Y-3492500D02*
G75*
G03*
X3913500Y-3492500I-40000J0D01*
G01*
X4548500Y-7429500D02*
G75*
G03*
X4548500Y-7429500I-40000J0D01*
G01*
X4548500Y-7874000D02*
G75*
G03*
X4548500Y-7874000I-40000J0D01*
G01*
X4675500Y-3048000D02*
G75*
G03*
X4675500Y-3048000I-40000J0D01*
G01*
X4675500Y-3492500D02*
G75*
G03*
X4675500Y-3492500I-40000J0D01*
G01*
X11343000Y-8699500D02*
G75*
G03*
X11343000Y-8699500I-40000J0D01*
G01*
X11343000Y-9461500D02*
G75*
G03*
X11343000Y-9461500I-40000J0D01*
G01*
X11343000Y-10604500D02*
G75*
G03*
X11343000Y-10604500I-40000J0D01*
G01*
X11343000Y-11366500D02*
G75*
G03*
X11343000Y-11366500I-40000J0D01*
G01*
X11914500Y-8699500D02*
G75*
G03*
X11914500Y-8699500I-40000J0D01*
G01*
X11914500Y-9461500D02*
G75*
G03*
X11914500Y-9461500I-40000J0D01*
G01*
X11914500Y-10604500D02*
G75*
G03*
X11914500Y-10604500I-40000J0D01*
G01*
X11914500Y-11366500D02*
G75*
G03*
X11914500Y-11366500I-40000J0D01*
G01*
X1841500Y-4077500D02*
X1841500Y-4177500D01*
X1791500Y-4127500D02*
X1891500Y-4127500D01*
X1841500Y-8586000D02*
X1841500Y-8686000D01*
X1791500Y-8636000D02*
X1891500Y-8636000D01*
X2095500Y-4077500D02*
X2095500Y-4177500D01*
X2045500Y-4127500D02*
X2145500Y-4127500D01*
X2095500Y-6617500D02*
X2095500Y-6717500D01*
X2045500Y-6667500D02*
X2145500Y-6667500D01*
X2095500Y-8586000D02*
X2095500Y-8686000D01*
X2045500Y-8636000D02*
X2145500Y-8636000D01*
X2095500Y-11126000D02*
X2095500Y-11226000D01*
X2045500Y-11176000D02*
X2145500Y-11176000D01*
X2349500Y-4077500D02*
X2349500Y-4177500D01*
X2299500Y-4127500D02*
X2399500Y-4127500D01*
X2349500Y-6617500D02*
X2349500Y-6717500D01*
X2299500Y-6667500D02*
X2399500Y-6667500D01*
X2349500Y-8586000D02*
X2349500Y-8686000D01*
X2299500Y-8636000D02*
X2399500Y-8636000D01*
X2349500Y-11126000D02*
X2349500Y-11226000D01*
X2299500Y-11176000D02*
X2399500Y-11176000D01*
X2603500Y-4077500D02*
X2603500Y-4177500D01*
X2553500Y-4127500D02*
X2653500Y-4127500D01*
X2603500Y-6617500D02*
X2603500Y-6717500D01*
X2553500Y-6667500D02*
X2653500Y-6667500D01*
X2603500Y-8586000D02*
X2603500Y-8686000D01*
X2553500Y-8636000D02*
X2653500Y-8636000D01*
X2603500Y-11126000D02*
X2603500Y-11226000D01*
X2553500Y-11176000D02*
X2653500Y-11176000D01*
X2857500Y-4077500D02*
X2857500Y-4177500D01*
X2807500Y-4127500D02*
X2907500Y-4127500D01*
X2857500Y-6617500D02*
X2857500Y-6717500D01*
X2807500Y-6667500D02*
X2907500Y-6667500D01*
X2857500Y-8586000D02*
X2857500Y-8686000D01*
X2807500Y-8636000D02*
X2907500Y-8636000D01*
X2857500Y-11126000D02*
X2857500Y-11226000D01*
X2807500Y-11176000D02*
X2907500Y-11176000D01*
X3111500Y-4077500D02*
X3111500Y-4177500D01*
X3061500Y-4127500D02*
X3161500Y-4127500D01*
X3111500Y-8586000D02*
X3111500Y-8686000D01*
X3061500Y-8636000D02*
X3161500Y-8636000D01*
X3746500Y-8586000D02*
X3746500Y-8686000D01*
X3696500Y-8636000D02*
X3796500Y-8636000D01*
X3873500Y-4077500D02*
X3873500Y-4177500D01*
X3823500Y-4127500D02*
X3923500Y-4127500D01*
X4000500Y-8586000D02*
X4000500Y-8686000D01*
X3950500Y-8636000D02*
X4050500Y-8636000D01*
X4000500Y-11126000D02*
X4000500Y-11226000D01*
X3950500Y-11176000D02*
X4050500Y-11176000D01*
X4127500Y-4077500D02*
X4127500Y-4177500D01*
X4077500Y-4127500D02*
X4177500Y-4127500D01*
X4127500Y-6617500D02*
X4127500Y-6717500D01*
X4077500Y-6667500D02*
X4177500Y-6667500D01*
X4254500Y-8586000D02*
X4254500Y-8686000D01*
X4204500Y-8636000D02*
X4304500Y-8636000D01*
X4254500Y-11126000D02*
X4254500Y-11226000D01*
X4204500Y-11176000D02*
X4304500Y-11176000D01*
X4381500Y-4077500D02*
X4381500Y-4177500D01*
X4331500Y-4127500D02*
X4431500Y-4127500D01*
X4381500Y-6617500D02*
X4381500Y-6717500D01*
X4331500Y-6667500D02*
X4431500Y-6667500D01*
X4508500Y-8586000D02*
X4508500Y-8686000D01*
X4458500Y-8636000D02*
X4558500Y-8636000D01*
X4508500Y-11126000D02*
X4508500Y-11226000D01*
X4458500Y-11176000D02*
X4558500Y-11176000D01*
X4635500Y-4077500D02*
X4635500Y-4177500D01*
X4585500Y-4127500D02*
X4685500Y-4127500D01*
X4635500Y-6617500D02*
X4635500Y-6717500D01*
X4585500Y-6667500D02*
X4685500Y-6667500D01*
X4762500Y-8586000D02*
X4762500Y-8686000D01*
X4712500Y-8636000D02*
X4812500Y-8636000D01*
X4762500Y-11126000D02*
X4762500Y-11226000D01*
X4712500Y-11176000D02*
X4812500Y-11176000D01*
X4889500Y-4077500D02*
X4889500Y-4177500D01*
X4839500Y-4127500D02*
X4939500Y-4127500D01*
X4889500Y-6617500D02*
X4889500Y-6717500D01*
X4839500Y-6667500D02*
X4939500Y-6667500D01*
X5016500Y-8586000D02*
X5016500Y-8686000D01*
X4966500Y-8636000D02*
X5066500Y-8636000D01*
X5143500Y-4077500D02*
X5143500Y-4177500D01*
X5093500Y-4127500D02*
X5193500Y-4127500D01*
X7493000Y-3125000D02*
X7493000Y-3225000D01*
X7443000Y-3175000D02*
X7543000Y-3175000D01*
X7493000Y-3379000D02*
X7493000Y-3479000D01*
X7443000Y-3429000D02*
X7543000Y-3429000D01*
X7493000Y-3633000D02*
X7493000Y-3733000D01*
X7443000Y-3683000D02*
X7543000Y-3683000D01*
X7493000Y-3887000D02*
X7493000Y-3987000D01*
X7443000Y-3937000D02*
X7543000Y-3937000D01*
X7493000Y-4141000D02*
X7493000Y-4241000D01*
X7443000Y-4191000D02*
X7543000Y-4191000D01*
X7493000Y-4395000D02*
X7493000Y-4495000D01*
X7443000Y-4445000D02*
X7543000Y-4445000D01*
X7493000Y-4649000D02*
X7493000Y-4749000D01*
X7443000Y-4699000D02*
X7543000Y-4699000D01*
X7493000Y-4903000D02*
X7493000Y-5003000D01*
X7443000Y-4953000D02*
X7543000Y-4953000D01*
X7493000Y-5157000D02*
X7493000Y-5257000D01*
X7443000Y-5207000D02*
X7543000Y-5207000D01*
X7493000Y-5411000D02*
X7493000Y-5511000D01*
X7443000Y-5461000D02*
X7543000Y-5461000D01*
X7493000Y-5665000D02*
X7493000Y-5765000D01*
X7443000Y-5715000D02*
X7543000Y-5715000D01*
X7493000Y-5919000D02*
X7493000Y-6019000D01*
X7443000Y-5969000D02*
X7543000Y-5969000D01*
X7493000Y-6173000D02*
X7493000Y-6273000D01*
X7443000Y-6223000D02*
X7543000Y-6223000D01*
X7493000Y-6427000D02*
X7493000Y-6527000D01*
X7443000Y-6477000D02*
X7543000Y-6477000D01*
X7493000Y-6681000D02*
X7493000Y-6781000D01*
X7443000Y-6731000D02*
X7543000Y-6731000D01*
X8128000Y-1855000D02*
X8128000Y-1955000D01*
X8078000Y-1905000D02*
X8178000Y-1905000D01*
X8382000Y-1855000D02*
X8382000Y-1955000D01*
X8332000Y-1905000D02*
X8432000Y-1905000D01*
X9017000Y-3125000D02*
X9017000Y-3225000D01*
X8967000Y-3175000D02*
X9067000Y-3175000D01*
X9017000Y-3379000D02*
X9017000Y-3479000D01*
X8967000Y-3429000D02*
X9067000Y-3429000D01*
X9017000Y-3633000D02*
X9017000Y-3733000D01*
X8967000Y-3683000D02*
X9067000Y-3683000D01*
X9017000Y-3887000D02*
X9017000Y-3987000D01*
X8967000Y-3937000D02*
X9067000Y-3937000D01*
X9017000Y-4141000D02*
X9017000Y-4241000D01*
X8967000Y-4191000D02*
X9067000Y-4191000D01*
X9017000Y-4395000D02*
X9017000Y-4495000D01*
X8967000Y-4445000D02*
X9067000Y-4445000D01*
X9017000Y-4649000D02*
X9017000Y-4749000D01*
X8967000Y-4699000D02*
X9067000Y-4699000D01*
X9017000Y-4903000D02*
X9017000Y-5003000D01*
X8967000Y-4953000D02*
X9067000Y-4953000D01*
X9017000Y-5157000D02*
X9017000Y-5257000D01*
X8967000Y-5207000D02*
X9067000Y-5207000D01*
X9017000Y-5411000D02*
X9017000Y-5511000D01*
X8967000Y-5461000D02*
X9067000Y-5461000D01*
X9017000Y-5665000D02*
X9017000Y-5765000D01*
X8967000Y-5715000D02*
X9067000Y-5715000D01*
X9017000Y-5919000D02*
X9017000Y-6019000D01*
X8967000Y-5969000D02*
X9067000Y-5969000D01*
X9017000Y-6173000D02*
X9017000Y-6273000D01*
X8967000Y-6223000D02*
X9067000Y-6223000D01*
X9017000Y-6427000D02*
X9017000Y-6527000D01*
X8967000Y-6477000D02*
X9067000Y-6477000D01*
X9017000Y-6681000D02*
X9017000Y-6781000D01*
X8967000Y-6731000D02*
X9067000Y-6731000D01*
X10477500Y-8141500D02*
X10477500Y-8241500D01*
X10427500Y-8191500D02*
X10527500Y-8191500D01*
X10477500Y-8395500D02*
X10477500Y-8495500D01*
X10427500Y-8445500D02*
X10527500Y-8445500D01*
X10477500Y-8649500D02*
X10477500Y-8749500D01*
X10427500Y-8699500D02*
X10527500Y-8699500D01*
X10477500Y-8903500D02*
X10477500Y-9003500D01*
X10427500Y-8953500D02*
X10527500Y-8953500D01*
X10477500Y-9157500D02*
X10477500Y-9257500D01*
X10427500Y-9207500D02*
X10527500Y-9207500D01*
X10477500Y-9411500D02*
X10477500Y-9511500D01*
X10427500Y-9461500D02*
X10527500Y-9461500D01*
X10477500Y-10046500D02*
X10477500Y-10146500D01*
X10427500Y-10096500D02*
X10527500Y-10096500D01*
X10477500Y-10300500D02*
X10477500Y-10400500D01*
X10427500Y-10350500D02*
X10527500Y-10350500D01*
X10477500Y-10554500D02*
X10477500Y-10654500D01*
X10427500Y-10604500D02*
X10527500Y-10604500D01*
X10477500Y-10808500D02*
X10477500Y-10908500D01*
X10427500Y-10858500D02*
X10527500Y-10858500D01*
X10477500Y-11062500D02*
X10477500Y-11162500D01*
X10427500Y-11112500D02*
X10527500Y-11112500D01*
X10477500Y-11316500D02*
X10477500Y-11416500D01*
X10427500Y-11366500D02*
X10527500Y-11366500D01*
X10731500Y-4395000D02*
X10731500Y-4495000D01*
X10681500Y-4445000D02*
X10781500Y-4445000D01*
X10731500Y-4649000D02*
X10731500Y-4749000D01*
X10681500Y-4699000D02*
X10781500Y-4699000D01*
X10731500Y-5728500D02*
X10731500Y-5828500D01*
X10681500Y-5778500D02*
X10781500Y-5778500D01*
X10731500Y-5982500D02*
X10731500Y-6082500D01*
X10681500Y-6032500D02*
X10781500Y-6032500D01*
D12*
X1490428Y-13104714D02*
X1490428Y-12804714D01*
X1561857Y-12804714D01*
X1604714Y-12819000D01*
X1633286Y-12847571D01*
X1647571Y-12876143D01*
X1661857Y-12933286D01*
X1661857Y-12976143D01*
X1647571Y-13033286D01*
X1633286Y-13061857D01*
X1604714Y-13090429D01*
X1561857Y-13104714D01*
X1490428Y-13104714D01*
X1790428Y-13104714D02*
X1790428Y-12904714D01*
X1790428Y-12961857D02*
X1804714Y-12933286D01*
X1819000Y-12919000D01*
X1847571Y-12904714D01*
X1876143Y-12904714D01*
X1976143Y-13104714D02*
X1976143Y-12904714D01*
X1976143Y-12804714D02*
X1961857Y-12819000D01*
X1976143Y-12833286D01*
X1990428Y-12819000D01*
X1976143Y-12804714D01*
X1976143Y-12833286D01*
X2161857Y-13104714D02*
X2133286Y-13090429D01*
X2119000Y-13061857D01*
X2119000Y-12804714D01*
X2319000Y-13104714D02*
X2290428Y-13090429D01*
X2276143Y-13061857D01*
X2276143Y-12804714D01*
X2661857Y-13104714D02*
X2661857Y-12804714D01*
X2761857Y-13019000D01*
X2861857Y-12804714D01*
X2861857Y-13104714D01*
X3133286Y-13104714D02*
X3133286Y-12947571D01*
X3119000Y-12919000D01*
X3090428Y-12904714D01*
X3033286Y-12904714D01*
X3004714Y-12919000D01*
X3133286Y-13090429D02*
X3104714Y-13104714D01*
X3033286Y-13104714D01*
X3004714Y-13090429D01*
X2990428Y-13061857D01*
X2990428Y-13033286D01*
X3004714Y-13004714D01*
X3033286Y-12990429D01*
X3104714Y-12990429D01*
X3133286Y-12976143D01*
X3276143Y-12904714D02*
X3276143Y-13204714D01*
X3276143Y-12919000D02*
X3304714Y-12904714D01*
X3361857Y-12904714D01*
X3390428Y-12919000D01*
X3404714Y-12933286D01*
X3419000Y-12961857D01*
X3419000Y-13047571D01*
X3404714Y-13076143D01*
X3390428Y-13090429D01*
X3361857Y-13104714D01*
X3304714Y-13104714D01*
X3276143Y-13090429D01*
X3547571Y-13076143D02*
X3561857Y-13090429D01*
X3547571Y-13104714D01*
X3533286Y-13090429D01*
X3547571Y-13076143D01*
X3547571Y-13104714D01*
X3547571Y-12919000D02*
X3561857Y-12933286D01*
X3547571Y-12947571D01*
X3533286Y-12933286D01*
X3547571Y-12919000D01*
X3547571Y-12947571D01*
X1129000Y-13561500D02*
X1204000Y-13636500D01*
X1204000Y-13561500D02*
X1129000Y-13636500D01*
X1547571Y-13434714D02*
X1576143Y-13434714D01*
X1604714Y-13449000D01*
X1619000Y-13463286D01*
X1633286Y-13491857D01*
X1647571Y-13549000D01*
X1647571Y-13620429D01*
X1633286Y-13677571D01*
X1619000Y-13706143D01*
X1604714Y-13720429D01*
X1576143Y-13734714D01*
X1547571Y-13734714D01*
X1519000Y-13720429D01*
X1504714Y-13706143D01*
X1490428Y-13677571D01*
X1476143Y-13620429D01*
X1476143Y-13549000D01*
X1490428Y-13491857D01*
X1504714Y-13463286D01*
X1519000Y-13449000D01*
X1547571Y-13434714D01*
X1776143Y-13706143D02*
X1790428Y-13720429D01*
X1776143Y-13734714D01*
X1761857Y-13720429D01*
X1776143Y-13706143D01*
X1776143Y-13734714D01*
X1890428Y-13434714D02*
X2090428Y-13434714D01*
X1961857Y-13734714D01*
X2347571Y-13434714D02*
X2204714Y-13434714D01*
X2190428Y-13577571D01*
X2204714Y-13563286D01*
X2233286Y-13549000D01*
X2304714Y-13549000D01*
X2333286Y-13563286D01*
X2347571Y-13577571D01*
X2361857Y-13606143D01*
X2361857Y-13677571D01*
X2347571Y-13706143D01*
X2333286Y-13720429D01*
X2304714Y-13734714D01*
X2233286Y-13734714D01*
X2204714Y-13720429D01*
X2190428Y-13706143D01*
X2490428Y-13734714D02*
X2490428Y-13534714D01*
X2490428Y-13563286D02*
X2504714Y-13549000D01*
X2533286Y-13534714D01*
X2576143Y-13534714D01*
X2604714Y-13549000D01*
X2619000Y-13577571D01*
X2619000Y-13734714D01*
X2619000Y-13577571D02*
X2633286Y-13549000D01*
X2661857Y-13534714D01*
X2704714Y-13534714D01*
X2733286Y-13549000D01*
X2747571Y-13577571D01*
X2747571Y-13734714D01*
X2890428Y-13734714D02*
X2890428Y-13534714D01*
X2890428Y-13563286D02*
X2904714Y-13549000D01*
X2933286Y-13534714D01*
X2976143Y-13534714D01*
X3004714Y-13549000D01*
X3019000Y-13577571D01*
X3019000Y-13734714D01*
X3019000Y-13577571D02*
X3033286Y-13549000D01*
X3061857Y-13534714D01*
X3104714Y-13534714D01*
X3133286Y-13549000D01*
X3147571Y-13577571D01*
X3147571Y-13734714D01*
X3733286Y-13420429D02*
X3476143Y-13806143D01*
X4119000Y-13434714D02*
X4147571Y-13434714D01*
X4176143Y-13449000D01*
X4190428Y-13463286D01*
X4204714Y-13491857D01*
X4219000Y-13549000D01*
X4219000Y-13620429D01*
X4204714Y-13677571D01*
X4190428Y-13706143D01*
X4176143Y-13720429D01*
X4147571Y-13734714D01*
X4119000Y-13734714D01*
X4090428Y-13720429D01*
X4076143Y-13706143D01*
X4061857Y-13677571D01*
X4047571Y-13620429D01*
X4047571Y-13549000D01*
X4061857Y-13491857D01*
X4076143Y-13463286D01*
X4090428Y-13449000D01*
X4119000Y-13434714D01*
X4347571Y-13706143D02*
X4361857Y-13720429D01*
X4347571Y-13734714D01*
X4333286Y-13720429D01*
X4347571Y-13706143D01*
X4347571Y-13734714D01*
X4547571Y-13434714D02*
X4576143Y-13434714D01*
X4604714Y-13449000D01*
X4619000Y-13463286D01*
X4633286Y-13491857D01*
X4647571Y-13549000D01*
X4647571Y-13620429D01*
X4633286Y-13677571D01*
X4619000Y-13706143D01*
X4604714Y-13720429D01*
X4576143Y-13734714D01*
X4547571Y-13734714D01*
X4519000Y-13720429D01*
X4504714Y-13706143D01*
X4490428Y-13677571D01*
X4476143Y-13620429D01*
X4476143Y-13549000D01*
X4490428Y-13491857D01*
X4504714Y-13463286D01*
X4519000Y-13449000D01*
X4547571Y-13434714D01*
X4747571Y-13434714D02*
X4933286Y-13434714D01*
X4833286Y-13549000D01*
X4876143Y-13549000D01*
X4904714Y-13563286D01*
X4919000Y-13577571D01*
X4933286Y-13606143D01*
X4933286Y-13677571D01*
X4919000Y-13706143D01*
X4904714Y-13720429D01*
X4876143Y-13734714D01*
X4790428Y-13734714D01*
X4761857Y-13720429D01*
X4747571Y-13706143D01*
X5119000Y-13434714D02*
X5147571Y-13434714D01*
X5176143Y-13449000D01*
X5190428Y-13463286D01*
X5204714Y-13491857D01*
X5219000Y-13549000D01*
X5219000Y-13620429D01*
X5204714Y-13677571D01*
X5190428Y-13706143D01*
X5176143Y-13720429D01*
X5147571Y-13734714D01*
X5119000Y-13734714D01*
X5090428Y-13720429D01*
X5076143Y-13706143D01*
X5061857Y-13677571D01*
X5047571Y-13620429D01*
X5047571Y-13549000D01*
X5061857Y-13491857D01*
X5076143Y-13463286D01*
X5090428Y-13449000D01*
X5119000Y-13434714D01*
X5333286Y-13434714D02*
X5333286Y-13491857D01*
X5447571Y-13434714D02*
X5447571Y-13491857D01*
X5890428Y-13849000D02*
X5876143Y-13834714D01*
X5847571Y-13791857D01*
X5833286Y-13763286D01*
X5819000Y-13720429D01*
X5804714Y-13649000D01*
X5804714Y-13591857D01*
X5819000Y-13520429D01*
X5833286Y-13477571D01*
X5847571Y-13449000D01*
X5876143Y-13406143D01*
X5890428Y-13391857D01*
X6161857Y-13734714D02*
X5990428Y-13734714D01*
X6076143Y-13734714D02*
X6076143Y-13434714D01*
X6047571Y-13477571D01*
X6019000Y-13506143D01*
X5990428Y-13520429D01*
X6276143Y-13463286D02*
X6290428Y-13449000D01*
X6319000Y-13434714D01*
X6390428Y-13434714D01*
X6419000Y-13449000D01*
X6433286Y-13463286D01*
X6447571Y-13491857D01*
X6447571Y-13520429D01*
X6433286Y-13563286D01*
X6261857Y-13734714D01*
X6447571Y-13734714D01*
X6804714Y-13734714D02*
X6804714Y-13434714D01*
X6933286Y-13734714D02*
X6933286Y-13577571D01*
X6919000Y-13549000D01*
X6890428Y-13534714D01*
X6847571Y-13534714D01*
X6819000Y-13549000D01*
X6804714Y-13563286D01*
X7119000Y-13734714D02*
X7090428Y-13720429D01*
X7076143Y-13706143D01*
X7061857Y-13677571D01*
X7061857Y-13591857D01*
X7076143Y-13563286D01*
X7090428Y-13549000D01*
X7119000Y-13534714D01*
X7161857Y-13534714D01*
X7190428Y-13549000D01*
X7204714Y-13563286D01*
X7219000Y-13591857D01*
X7219000Y-13677571D01*
X7204714Y-13706143D01*
X7190428Y-13720429D01*
X7161857Y-13734714D01*
X7119000Y-13734714D01*
X7390428Y-13734714D02*
X7361857Y-13720429D01*
X7347571Y-13691857D01*
X7347571Y-13434714D01*
X7619000Y-13720429D02*
X7590428Y-13734714D01*
X7533286Y-13734714D01*
X7504714Y-13720429D01*
X7490428Y-13691857D01*
X7490428Y-13577571D01*
X7504714Y-13549000D01*
X7533286Y-13534714D01*
X7590428Y-13534714D01*
X7619000Y-13549000D01*
X7633286Y-13577571D01*
X7633286Y-13606143D01*
X7490428Y-13634714D01*
X7747571Y-13720429D02*
X7776143Y-13734714D01*
X7833286Y-13734714D01*
X7861857Y-13720429D01*
X7876143Y-13691857D01*
X7876143Y-13677571D01*
X7861857Y-13649000D01*
X7833286Y-13634714D01*
X7790428Y-13634714D01*
X7761857Y-13620429D01*
X7747571Y-13591857D01*
X7747571Y-13577571D01*
X7761857Y-13549000D01*
X7790428Y-13534714D01*
X7833286Y-13534714D01*
X7861857Y-13549000D01*
X7976143Y-13849000D02*
X7990428Y-13834714D01*
X8019000Y-13791857D01*
X8033286Y-13763286D01*
X8047571Y-13720429D01*
X8061857Y-13649000D01*
X8061857Y-13591857D01*
X8047571Y-13520429D01*
X8033286Y-13477571D01*
X8019000Y-13449000D01*
X7990428Y-13406143D01*
X7976143Y-13391857D01*
X1204000Y-13995000D02*
G75*
G03*
X1204000Y-13995000I-40000J0D01*
G01*
X1547571Y-13830714D02*
X1576143Y-13830714D01*
X1604714Y-13845000D01*
X1619000Y-13859286D01*
X1633286Y-13887857D01*
X1647571Y-13945000D01*
X1647571Y-14016429D01*
X1633286Y-14073571D01*
X1619000Y-14102143D01*
X1604714Y-14116429D01*
X1576143Y-14130714D01*
X1547571Y-14130714D01*
X1519000Y-14116429D01*
X1504714Y-14102143D01*
X1490428Y-14073571D01*
X1476143Y-14016429D01*
X1476143Y-13945000D01*
X1490428Y-13887857D01*
X1504714Y-13859286D01*
X1519000Y-13845000D01*
X1547571Y-13830714D01*
X1776143Y-14102143D02*
X1790428Y-14116429D01*
X1776143Y-14130714D01*
X1761857Y-14116429D01*
X1776143Y-14102143D01*
X1776143Y-14130714D01*
X1961857Y-13959286D02*
X1933286Y-13945000D01*
X1919000Y-13930714D01*
X1904714Y-13902143D01*
X1904714Y-13887857D01*
X1919000Y-13859286D01*
X1933286Y-13845000D01*
X1961857Y-13830714D01*
X2019000Y-13830714D01*
X2047571Y-13845000D01*
X2061857Y-13859286D01*
X2076143Y-13887857D01*
X2076143Y-13902143D01*
X2061857Y-13930714D01*
X2047571Y-13945000D01*
X2019000Y-13959286D01*
X1961857Y-13959286D01*
X1933286Y-13973571D01*
X1919000Y-13987857D01*
X1904714Y-14016429D01*
X1904714Y-14073571D01*
X1919000Y-14102143D01*
X1933286Y-14116429D01*
X1961857Y-14130714D01*
X2019000Y-14130714D01*
X2047571Y-14116429D01*
X2061857Y-14102143D01*
X2076143Y-14073571D01*
X2076143Y-14016429D01*
X2061857Y-13987857D01*
X2047571Y-13973571D01*
X2019000Y-13959286D01*
X2261857Y-13830714D02*
X2290428Y-13830714D01*
X2319000Y-13845000D01*
X2333286Y-13859286D01*
X2347571Y-13887857D01*
X2361857Y-13945000D01*
X2361857Y-14016429D01*
X2347571Y-14073571D01*
X2333286Y-14102143D01*
X2319000Y-14116429D01*
X2290428Y-14130714D01*
X2261857Y-14130714D01*
X2233286Y-14116429D01*
X2219000Y-14102143D01*
X2204714Y-14073571D01*
X2190428Y-14016429D01*
X2190428Y-13945000D01*
X2204714Y-13887857D01*
X2219000Y-13859286D01*
X2233286Y-13845000D01*
X2261857Y-13830714D01*
X2490428Y-14130714D02*
X2490428Y-13930714D01*
X2490428Y-13959286D02*
X2504714Y-13945000D01*
X2533286Y-13930714D01*
X2576143Y-13930714D01*
X2604714Y-13945000D01*
X2619000Y-13973571D01*
X2619000Y-14130714D01*
X2619000Y-13973571D02*
X2633286Y-13945000D01*
X2661857Y-13930714D01*
X2704714Y-13930714D01*
X2733286Y-13945000D01*
X2747571Y-13973571D01*
X2747571Y-14130714D01*
X2890428Y-14130714D02*
X2890428Y-13930714D01*
X2890428Y-13959286D02*
X2904714Y-13945000D01*
X2933286Y-13930714D01*
X2976143Y-13930714D01*
X3004714Y-13945000D01*
X3019000Y-13973571D01*
X3019000Y-14130714D01*
X3019000Y-13973571D02*
X3033286Y-13945000D01*
X3061857Y-13930714D01*
X3104714Y-13930714D01*
X3133286Y-13945000D01*
X3147571Y-13973571D01*
X3147571Y-14130714D01*
X3733286Y-13816429D02*
X3476143Y-14202143D01*
X4119000Y-13830714D02*
X4147571Y-13830714D01*
X4176143Y-13845000D01*
X4190428Y-13859286D01*
X4204714Y-13887857D01*
X4219000Y-13945000D01*
X4219000Y-14016429D01*
X4204714Y-14073571D01*
X4190428Y-14102143D01*
X4176143Y-14116429D01*
X4147571Y-14130714D01*
X4119000Y-14130714D01*
X4090428Y-14116429D01*
X4076143Y-14102143D01*
X4061857Y-14073571D01*
X4047571Y-14016429D01*
X4047571Y-13945000D01*
X4061857Y-13887857D01*
X4076143Y-13859286D01*
X4090428Y-13845000D01*
X4119000Y-13830714D01*
X4347571Y-14102143D02*
X4361857Y-14116429D01*
X4347571Y-14130714D01*
X4333286Y-14116429D01*
X4347571Y-14102143D01*
X4347571Y-14130714D01*
X4547571Y-13830714D02*
X4576143Y-13830714D01*
X4604714Y-13845000D01*
X4619000Y-13859286D01*
X4633286Y-13887857D01*
X4647571Y-13945000D01*
X4647571Y-14016429D01*
X4633286Y-14073571D01*
X4619000Y-14102143D01*
X4604714Y-14116429D01*
X4576143Y-14130714D01*
X4547571Y-14130714D01*
X4519000Y-14116429D01*
X4504714Y-14102143D01*
X4490428Y-14073571D01*
X4476143Y-14016429D01*
X4476143Y-13945000D01*
X4490428Y-13887857D01*
X4504714Y-13859286D01*
X4519000Y-13845000D01*
X4547571Y-13830714D01*
X4747571Y-13830714D02*
X4933286Y-13830714D01*
X4833286Y-13945000D01*
X4876143Y-13945000D01*
X4904714Y-13959286D01*
X4919000Y-13973571D01*
X4933286Y-14002143D01*
X4933286Y-14073571D01*
X4919000Y-14102143D01*
X4904714Y-14116429D01*
X4876143Y-14130714D01*
X4790428Y-14130714D01*
X4761857Y-14116429D01*
X4747571Y-14102143D01*
X5219000Y-14130714D02*
X5047571Y-14130714D01*
X5133286Y-14130714D02*
X5133286Y-13830714D01*
X5104714Y-13873571D01*
X5076143Y-13902143D01*
X5047571Y-13916429D01*
X5333286Y-13830714D02*
X5333286Y-13887857D01*
X5447571Y-13830714D02*
X5447571Y-13887857D01*
X5890428Y-14245000D02*
X5876143Y-14230714D01*
X5847571Y-14187857D01*
X5833286Y-14159286D01*
X5819000Y-14116429D01*
X5804714Y-14045000D01*
X5804714Y-13987857D01*
X5819000Y-13916429D01*
X5833286Y-13873571D01*
X5847571Y-13845000D01*
X5876143Y-13802143D01*
X5890428Y-13787857D01*
X5990428Y-13859286D02*
X6004714Y-13845000D01*
X6033286Y-13830714D01*
X6104714Y-13830714D01*
X6133286Y-13845000D01*
X6147571Y-13859286D01*
X6161857Y-13887857D01*
X6161857Y-13916429D01*
X6147571Y-13959286D01*
X5976143Y-14130714D01*
X6161857Y-14130714D01*
X6419000Y-13930714D02*
X6419000Y-14130714D01*
X6347571Y-13816429D02*
X6276143Y-14030714D01*
X6461857Y-14030714D01*
X6804714Y-14130714D02*
X6804714Y-13830714D01*
X6933286Y-14130714D02*
X6933286Y-13973571D01*
X6919000Y-13945000D01*
X6890428Y-13930714D01*
X6847571Y-13930714D01*
X6819000Y-13945000D01*
X6804714Y-13959286D01*
X7119000Y-14130714D02*
X7090428Y-14116429D01*
X7076143Y-14102143D01*
X7061857Y-14073571D01*
X7061857Y-13987857D01*
X7076143Y-13959286D01*
X7090428Y-13945000D01*
X7119000Y-13930714D01*
X7161857Y-13930714D01*
X7190428Y-13945000D01*
X7204714Y-13959286D01*
X7219000Y-13987857D01*
X7219000Y-14073571D01*
X7204714Y-14102143D01*
X7190428Y-14116429D01*
X7161857Y-14130714D01*
X7119000Y-14130714D01*
X7390428Y-14130714D02*
X7361857Y-14116429D01*
X7347571Y-14087857D01*
X7347571Y-13830714D01*
X7619000Y-14116429D02*
X7590428Y-14130714D01*
X7533286Y-14130714D01*
X7504714Y-14116429D01*
X7490428Y-14087857D01*
X7490428Y-13973571D01*
X7504714Y-13945000D01*
X7533286Y-13930714D01*
X7590428Y-13930714D01*
X7619000Y-13945000D01*
X7633286Y-13973571D01*
X7633286Y-14002143D01*
X7490428Y-14030714D01*
X7747571Y-14116429D02*
X7776143Y-14130714D01*
X7833286Y-14130714D01*
X7861857Y-14116429D01*
X7876143Y-14087857D01*
X7876143Y-14073571D01*
X7861857Y-14045000D01*
X7833286Y-14030714D01*
X7790428Y-14030714D01*
X7761857Y-14016429D01*
X7747571Y-13987857D01*
X7747571Y-13973571D01*
X7761857Y-13945000D01*
X7790428Y-13930714D01*
X7833286Y-13930714D01*
X7861857Y-13945000D01*
X7976143Y-14245000D02*
X7990428Y-14230714D01*
X8019000Y-14187857D01*
X8033286Y-14159286D01*
X8047571Y-14116429D01*
X8061857Y-14045000D01*
X8061857Y-13987857D01*
X8047571Y-13916429D01*
X8033286Y-13873571D01*
X8019000Y-13845000D01*
X7990428Y-13802143D01*
X7976143Y-13787857D01*
X1154000Y-14341000D02*
X1154000Y-14441000D01*
X1104000Y-14391000D02*
X1204000Y-14391000D01*
X1647571Y-14526714D02*
X1476143Y-14526714D01*
X1561857Y-14526714D02*
X1561857Y-14226714D01*
X1533286Y-14269571D01*
X1504714Y-14298143D01*
X1476143Y-14312429D01*
X1776143Y-14498143D02*
X1790428Y-14512429D01*
X1776143Y-14526714D01*
X1761857Y-14512429D01*
X1776143Y-14498143D01*
X1776143Y-14526714D01*
X1976143Y-14226714D02*
X2004714Y-14226714D01*
X2033286Y-14241000D01*
X2047571Y-14255286D01*
X2061857Y-14283857D01*
X2076143Y-14341000D01*
X2076143Y-14412429D01*
X2061857Y-14469571D01*
X2047571Y-14498143D01*
X2033286Y-14512429D01*
X2004714Y-14526714D01*
X1976143Y-14526714D01*
X1947571Y-14512429D01*
X1933286Y-14498143D01*
X1919000Y-14469571D01*
X1904714Y-14412429D01*
X1904714Y-14341000D01*
X1919000Y-14283857D01*
X1933286Y-14255286D01*
X1947571Y-14241000D01*
X1976143Y-14226714D01*
X2261857Y-14226714D02*
X2290428Y-14226714D01*
X2319000Y-14241000D01*
X2333286Y-14255286D01*
X2347571Y-14283857D01*
X2361857Y-14341000D01*
X2361857Y-14412429D01*
X2347571Y-14469571D01*
X2333286Y-14498143D01*
X2319000Y-14512429D01*
X2290428Y-14526714D01*
X2261857Y-14526714D01*
X2233286Y-14512429D01*
X2219000Y-14498143D01*
X2204714Y-14469571D01*
X2190428Y-14412429D01*
X2190428Y-14341000D01*
X2204714Y-14283857D01*
X2219000Y-14255286D01*
X2233286Y-14241000D01*
X2261857Y-14226714D01*
X2490428Y-14526714D02*
X2490428Y-14326714D01*
X2490428Y-14355286D02*
X2504714Y-14341000D01*
X2533286Y-14326714D01*
X2576143Y-14326714D01*
X2604714Y-14341000D01*
X2619000Y-14369571D01*
X2619000Y-14526714D01*
X2619000Y-14369571D02*
X2633286Y-14341000D01*
X2661857Y-14326714D01*
X2704714Y-14326714D01*
X2733286Y-14341000D01*
X2747571Y-14369571D01*
X2747571Y-14526714D01*
X2890428Y-14526714D02*
X2890428Y-14326714D01*
X2890428Y-14355286D02*
X2904714Y-14341000D01*
X2933286Y-14326714D01*
X2976143Y-14326714D01*
X3004714Y-14341000D01*
X3019000Y-14369571D01*
X3019000Y-14526714D01*
X3019000Y-14369571D02*
X3033286Y-14341000D01*
X3061857Y-14326714D01*
X3104714Y-14326714D01*
X3133286Y-14341000D01*
X3147571Y-14369571D01*
X3147571Y-14526714D01*
X3733286Y-14212429D02*
X3476143Y-14598143D01*
X4119000Y-14226714D02*
X4147571Y-14226714D01*
X4176143Y-14241000D01*
X4190428Y-14255286D01*
X4204714Y-14283857D01*
X4219000Y-14341000D01*
X4219000Y-14412429D01*
X4204714Y-14469571D01*
X4190428Y-14498143D01*
X4176143Y-14512429D01*
X4147571Y-14526714D01*
X4119000Y-14526714D01*
X4090428Y-14512429D01*
X4076143Y-14498143D01*
X4061857Y-14469571D01*
X4047571Y-14412429D01*
X4047571Y-14341000D01*
X4061857Y-14283857D01*
X4076143Y-14255286D01*
X4090428Y-14241000D01*
X4119000Y-14226714D01*
X4347571Y-14498143D02*
X4361857Y-14512429D01*
X4347571Y-14526714D01*
X4333286Y-14512429D01*
X4347571Y-14498143D01*
X4347571Y-14526714D01*
X4547571Y-14226714D02*
X4576143Y-14226714D01*
X4604714Y-14241000D01*
X4619000Y-14255286D01*
X4633286Y-14283857D01*
X4647571Y-14341000D01*
X4647571Y-14412429D01*
X4633286Y-14469571D01*
X4619000Y-14498143D01*
X4604714Y-14512429D01*
X4576143Y-14526714D01*
X4547571Y-14526714D01*
X4519000Y-14512429D01*
X4504714Y-14498143D01*
X4490428Y-14469571D01*
X4476143Y-14412429D01*
X4476143Y-14341000D01*
X4490428Y-14283857D01*
X4504714Y-14255286D01*
X4519000Y-14241000D01*
X4547571Y-14226714D01*
X4747571Y-14226714D02*
X4933286Y-14226714D01*
X4833286Y-14341000D01*
X4876143Y-14341000D01*
X4904714Y-14355286D01*
X4919000Y-14369571D01*
X4933286Y-14398143D01*
X4933286Y-14469571D01*
X4919000Y-14498143D01*
X4904714Y-14512429D01*
X4876143Y-14526714D01*
X4790428Y-14526714D01*
X4761857Y-14512429D01*
X4747571Y-14498143D01*
X5076143Y-14526714D02*
X5133286Y-14526714D01*
X5161857Y-14512429D01*
X5176143Y-14498143D01*
X5204714Y-14455286D01*
X5219000Y-14398143D01*
X5219000Y-14283857D01*
X5204714Y-14255286D01*
X5190428Y-14241000D01*
X5161857Y-14226714D01*
X5104714Y-14226714D01*
X5076143Y-14241000D01*
X5061857Y-14255286D01*
X5047571Y-14283857D01*
X5047571Y-14355286D01*
X5061857Y-14383857D01*
X5076143Y-14398143D01*
X5104714Y-14412429D01*
X5161857Y-14412429D01*
X5190428Y-14398143D01*
X5204714Y-14383857D01*
X5219000Y-14355286D01*
X5333286Y-14226714D02*
X5333286Y-14283857D01*
X5447571Y-14226714D02*
X5447571Y-14283857D01*
X5890428Y-14641000D02*
X5876143Y-14626714D01*
X5847571Y-14583857D01*
X5833286Y-14555286D01*
X5819000Y-14512429D01*
X5804714Y-14441000D01*
X5804714Y-14383857D01*
X5819000Y-14312429D01*
X5833286Y-14269571D01*
X5847571Y-14241000D01*
X5876143Y-14198143D01*
X5890428Y-14183857D01*
X6047571Y-14355286D02*
X6019000Y-14341000D01*
X6004714Y-14326714D01*
X5990428Y-14298143D01*
X5990428Y-14283857D01*
X6004714Y-14255286D01*
X6019000Y-14241000D01*
X6047571Y-14226714D01*
X6104714Y-14226714D01*
X6133286Y-14241000D01*
X6147571Y-14255286D01*
X6161857Y-14283857D01*
X6161857Y-14298143D01*
X6147571Y-14326714D01*
X6133286Y-14341000D01*
X6104714Y-14355286D01*
X6047571Y-14355286D01*
X6019000Y-14369571D01*
X6004714Y-14383857D01*
X5990428Y-14412429D01*
X5990428Y-14469571D01*
X6004714Y-14498143D01*
X6019000Y-14512429D01*
X6047571Y-14526714D01*
X6104714Y-14526714D01*
X6133286Y-14512429D01*
X6147571Y-14498143D01*
X6161857Y-14469571D01*
X6161857Y-14412429D01*
X6147571Y-14383857D01*
X6133286Y-14369571D01*
X6104714Y-14355286D01*
X6333286Y-14355286D02*
X6304714Y-14341000D01*
X6290428Y-14326714D01*
X6276143Y-14298143D01*
X6276143Y-14283857D01*
X6290428Y-14255286D01*
X6304714Y-14241000D01*
X6333286Y-14226714D01*
X6390428Y-14226714D01*
X6419000Y-14241000D01*
X6433286Y-14255286D01*
X6447571Y-14283857D01*
X6447571Y-14298143D01*
X6433286Y-14326714D01*
X6419000Y-14341000D01*
X6390428Y-14355286D01*
X6333286Y-14355286D01*
X6304714Y-14369571D01*
X6290428Y-14383857D01*
X6276143Y-14412429D01*
X6276143Y-14469571D01*
X6290428Y-14498143D01*
X6304714Y-14512429D01*
X6333286Y-14526714D01*
X6390428Y-14526714D01*
X6419000Y-14512429D01*
X6433286Y-14498143D01*
X6447571Y-14469571D01*
X6447571Y-14412429D01*
X6433286Y-14383857D01*
X6419000Y-14369571D01*
X6390428Y-14355286D01*
X6804714Y-14526714D02*
X6804714Y-14226714D01*
X6933286Y-14526714D02*
X6933286Y-14369571D01*
X6919000Y-14341000D01*
X6890428Y-14326714D01*
X6847571Y-14326714D01*
X6819000Y-14341000D01*
X6804714Y-14355286D01*
X7119000Y-14526714D02*
X7090428Y-14512429D01*
X7076143Y-14498143D01*
X7061857Y-14469571D01*
X7061857Y-14383857D01*
X7076143Y-14355286D01*
X7090428Y-14341000D01*
X7119000Y-14326714D01*
X7161857Y-14326714D01*
X7190428Y-14341000D01*
X7204714Y-14355286D01*
X7219000Y-14383857D01*
X7219000Y-14469571D01*
X7204714Y-14498143D01*
X7190428Y-14512429D01*
X7161857Y-14526714D01*
X7119000Y-14526714D01*
X7390428Y-14526714D02*
X7361857Y-14512429D01*
X7347571Y-14483857D01*
X7347571Y-14226714D01*
X7619000Y-14512429D02*
X7590428Y-14526714D01*
X7533286Y-14526714D01*
X7504714Y-14512429D01*
X7490428Y-14483857D01*
X7490428Y-14369571D01*
X7504714Y-14341000D01*
X7533286Y-14326714D01*
X7590428Y-14326714D01*
X7619000Y-14341000D01*
X7633286Y-14369571D01*
X7633286Y-14398143D01*
X7490428Y-14426714D01*
X7747571Y-14512429D02*
X7776143Y-14526714D01*
X7833286Y-14526714D01*
X7861857Y-14512429D01*
X7876143Y-14483857D01*
X7876143Y-14469571D01*
X7861857Y-14441000D01*
X7833286Y-14426714D01*
X7790428Y-14426714D01*
X7761857Y-14412429D01*
X7747571Y-14383857D01*
X7747571Y-14369571D01*
X7761857Y-14341000D01*
X7790428Y-14326714D01*
X7833286Y-14326714D01*
X7861857Y-14341000D01*
X7976143Y-14641000D02*
X7990428Y-14626714D01*
X8019000Y-14583857D01*
X8033286Y-14555286D01*
X8047571Y-14512429D01*
X8061857Y-14441000D01*
X8061857Y-14383857D01*
X8047571Y-14312429D01*
X8033286Y-14269571D01*
X8019000Y-14241000D01*
X7990428Y-14198143D01*
X7976143Y-14183857D01*
M02*
