M48
; DRILL file {KiCad (5.1.9)-1} date 02/22/22 20:54:17
; FORMAT={-:-/ absolute / metric / decimal}
; #@! TF.CreationDate,2022-02-22T20:54:17-06:00
; #@! TF.GenerationSoftware,Kicad,Pcbnew,(5.1.9)-1
FMAT,2
METRIC
T1C0.750
T2C0.800
T3C1.000
T4C3.200
%
G90
G05
T1
X29.115Y-18.415
X31.115Y-18.415
X33.115Y-18.415
X48.165Y-121.92
X50.165Y-121.92
X52.165Y-121.92
X86.265Y-121.92
X88.265Y-121.92
X90.265Y-121.92
X105.315Y-18.415
X107.315Y-18.415
X109.315Y-18.415
T2
X18.415Y-30.48
X18.415Y-34.925
X18.415Y-74.295
X18.415Y-78.74
X26.035Y-30.48
X26.035Y-34.925
X26.035Y-74.295
X26.035Y-78.74
X37.465Y-74.295
X37.465Y-78.74
X38.735Y-30.48
X38.735Y-34.925
X45.085Y-74.295
X45.085Y-78.74
X46.355Y-30.48
X46.355Y-34.925
X113.03Y-86.995
X113.03Y-94.615
X113.03Y-106.045
X113.03Y-113.665
X118.745Y-86.995
X118.745Y-94.615
X118.745Y-106.045
X118.745Y-113.665
T3
X18.415Y-41.275
X18.415Y-86.36
X20.955Y-41.275
X20.955Y-66.675
X20.955Y-86.36
X20.955Y-111.76
X23.495Y-41.275
X23.495Y-66.675
X23.495Y-86.36
X23.495Y-111.76
X26.035Y-41.275
X26.035Y-66.675
X26.035Y-86.36
X26.035Y-111.76
X28.575Y-41.275
X28.575Y-66.675
X28.575Y-86.36
X28.575Y-111.76
X31.115Y-41.275
X31.115Y-86.36
X37.465Y-86.36
X38.735Y-41.275
X40.005Y-86.36
X40.005Y-111.76
X41.275Y-41.275
X41.275Y-66.675
X42.545Y-86.36
X42.545Y-111.76
X43.815Y-41.275
X43.815Y-66.675
X45.085Y-86.36
X45.085Y-111.76
X46.355Y-41.275
X46.355Y-66.675
X47.625Y-86.36
X47.625Y-111.76
X48.895Y-41.275
X48.895Y-66.675
X50.165Y-86.36
X51.435Y-41.275
X74.93Y-31.75
X74.93Y-34.29
X74.93Y-36.83
X74.93Y-39.37
X74.93Y-41.91
X74.93Y-44.45
X74.93Y-46.99
X74.93Y-49.53
X74.93Y-52.07
X74.93Y-54.61
X74.93Y-57.15
X74.93Y-59.69
X74.93Y-62.23
X74.93Y-64.77
X74.93Y-67.31
X81.28Y-19.05
X83.82Y-19.05
X90.17Y-31.75
X90.17Y-34.29
X90.17Y-36.83
X90.17Y-39.37
X90.17Y-41.91
X90.17Y-44.45
X90.17Y-46.99
X90.17Y-49.53
X90.17Y-52.07
X90.17Y-54.61
X90.17Y-57.15
X90.17Y-59.69
X90.17Y-62.23
X90.17Y-64.77
X90.17Y-67.31
X104.775Y-81.915
X104.775Y-84.455
X104.775Y-86.995
X104.775Y-89.535
X104.775Y-92.075
X104.775Y-94.615
X104.775Y-100.965
X104.775Y-103.505
X104.775Y-106.045
X104.775Y-108.585
X104.775Y-111.125
X104.775Y-113.665
X107.315Y-44.45
X107.315Y-46.99
X107.315Y-57.785
X107.315Y-60.325
T4
X19.05Y-19.05
X20.32Y-120.65
X120.65Y-19.05
X120.65Y-120.65
T0
M30
