G04 #@! TF.GenerationSoftware,KiCad,Pcbnew,(5.1.9)-1*
G04 #@! TF.CreationDate,2022-02-19T11:53:10-06:00*
G04 #@! TF.ProjectId,V2_load_cell,56325f6c-6f61-4645-9f63-656c6c2e6b69,rev?*
G04 #@! TF.SameCoordinates,Original*
G04 #@! TF.FileFunction,Legend,Top*
G04 #@! TF.FilePolarity,Positive*
%FSLAX46Y46*%
G04 Gerber Fmt 4.6, Leading zero omitted, Abs format (unit mm)*
G04 Created by KiCad (PCBNEW (5.1.9)-1) date 2022-02-19 11:53:10*
%MOMM*%
%LPD*%
G01*
G04 APERTURE LIST*
%ADD10C,0.127000*%
%ADD11C,0.120000*%
%ADD12C,0.203200*%
%ADD13C,0.150000*%
%ADD14O,1.200000X1.750000*%
%ADD15O,1.700000X1.700000*%
%ADD16R,1.700000X1.700000*%
%ADD17O,1.600000X1.600000*%
%ADD18R,1.600000X1.600000*%
%ADD19C,3.200000*%
%ADD20C,1.600000*%
G04 APERTURE END LIST*
D10*
X70636190Y-49787023D02*
X70726904Y-49817261D01*
X70878095Y-49817261D01*
X70938571Y-49787023D01*
X70968809Y-49756785D01*
X70999047Y-49696309D01*
X70999047Y-49635833D01*
X70968809Y-49575357D01*
X70938571Y-49545119D01*
X70878095Y-49514880D01*
X70757142Y-49484642D01*
X70696666Y-49454404D01*
X70666428Y-49424166D01*
X70636190Y-49363690D01*
X70636190Y-49303214D01*
X70666428Y-49242738D01*
X70696666Y-49212500D01*
X70757142Y-49182261D01*
X70908333Y-49182261D01*
X70999047Y-49212500D01*
X71634047Y-49756785D02*
X71603809Y-49787023D01*
X71513095Y-49817261D01*
X71452619Y-49817261D01*
X71361904Y-49787023D01*
X71301428Y-49726547D01*
X71271190Y-49666071D01*
X71240952Y-49545119D01*
X71240952Y-49454404D01*
X71271190Y-49333452D01*
X71301428Y-49272976D01*
X71361904Y-49212500D01*
X71452619Y-49182261D01*
X71513095Y-49182261D01*
X71603809Y-49212500D01*
X71634047Y-49242738D01*
X71906190Y-49817261D02*
X71906190Y-49182261D01*
X72269047Y-49817261D02*
X71996904Y-49454404D01*
X72269047Y-49182261D02*
X71906190Y-49545119D01*
X72873809Y-49817261D02*
X72510952Y-49817261D01*
X72692380Y-49817261D02*
X72692380Y-49182261D01*
X72631904Y-49272976D01*
X72571428Y-49333452D01*
X72510952Y-49363690D01*
D11*
X94615000Y-115252500D02*
X94615000Y-99377500D01*
X94615000Y-99377500D02*
X56515000Y-99377500D01*
X56515000Y-115252500D02*
X94615000Y-115252500D01*
X56515000Y-99377500D02*
X56515000Y-115252500D01*
X56515000Y-96202500D02*
X94615000Y-96202500D01*
X56515000Y-80327500D02*
X56515000Y-96202500D01*
X94615000Y-80327500D02*
X56515000Y-80327500D01*
X94615000Y-96202500D02*
X94615000Y-80327500D01*
D12*
X37784556Y-14201019D02*
X37445889Y-13717209D01*
X37203984Y-14201019D02*
X37203984Y-13185019D01*
X37591032Y-13185019D01*
X37687794Y-13233400D01*
X37736175Y-13281780D01*
X37784556Y-13378542D01*
X37784556Y-13523685D01*
X37736175Y-13620447D01*
X37687794Y-13668828D01*
X37591032Y-13717209D01*
X37203984Y-13717209D01*
X38607032Y-14152638D02*
X38510270Y-14201019D01*
X38316746Y-14201019D01*
X38219984Y-14152638D01*
X38171603Y-14055876D01*
X38171603Y-13668828D01*
X38219984Y-13572066D01*
X38316746Y-13523685D01*
X38510270Y-13523685D01*
X38607032Y-13572066D01*
X38655413Y-13668828D01*
X38655413Y-13765590D01*
X38171603Y-13862352D01*
X38994080Y-13523685D02*
X39187603Y-14201019D01*
X39381127Y-13717209D01*
X39574651Y-14201019D01*
X39768175Y-13523685D01*
X40155222Y-14201019D02*
X40155222Y-13523685D01*
X40155222Y-13185019D02*
X40106841Y-13233400D01*
X40155222Y-13281780D01*
X40203603Y-13233400D01*
X40155222Y-13185019D01*
X40155222Y-13281780D01*
X40639032Y-14201019D02*
X40639032Y-13523685D01*
X40639032Y-13717209D02*
X40687413Y-13620447D01*
X40735794Y-13572066D01*
X40832556Y-13523685D01*
X40929318Y-13523685D01*
X41655032Y-14152638D02*
X41558270Y-14201019D01*
X41364746Y-14201019D01*
X41267984Y-14152638D01*
X41219603Y-14055876D01*
X41219603Y-13668828D01*
X41267984Y-13572066D01*
X41364746Y-13523685D01*
X41558270Y-13523685D01*
X41655032Y-13572066D01*
X41703413Y-13668828D01*
X41703413Y-13765590D01*
X41219603Y-13862352D01*
X43493508Y-14201019D02*
X43154841Y-13717209D01*
X42912937Y-14201019D02*
X42912937Y-13185019D01*
X43299984Y-13185019D01*
X43396746Y-13233400D01*
X43445127Y-13281780D01*
X43493508Y-13378542D01*
X43493508Y-13523685D01*
X43445127Y-13620447D01*
X43396746Y-13668828D01*
X43299984Y-13717209D01*
X42912937Y-13717209D01*
X44074080Y-14201019D02*
X43977318Y-14152638D01*
X43928937Y-14104257D01*
X43880556Y-14007495D01*
X43880556Y-13717209D01*
X43928937Y-13620447D01*
X43977318Y-13572066D01*
X44074080Y-13523685D01*
X44219222Y-13523685D01*
X44315984Y-13572066D01*
X44364365Y-13620447D01*
X44412746Y-13717209D01*
X44412746Y-14007495D01*
X44364365Y-14104257D01*
X44315984Y-14152638D01*
X44219222Y-14201019D01*
X44074080Y-14201019D01*
X44848175Y-14201019D02*
X44848175Y-13185019D01*
X44848175Y-13572066D02*
X44944937Y-13523685D01*
X45138460Y-13523685D01*
X45235222Y-13572066D01*
X45283603Y-13620447D01*
X45331984Y-13717209D01*
X45331984Y-14007495D01*
X45283603Y-14104257D01*
X45235222Y-14152638D01*
X45138460Y-14201019D01*
X44944937Y-14201019D01*
X44848175Y-14152638D01*
X45912556Y-14201019D02*
X45815794Y-14152638D01*
X45767413Y-14104257D01*
X45719032Y-14007495D01*
X45719032Y-13717209D01*
X45767413Y-13620447D01*
X45815794Y-13572066D01*
X45912556Y-13523685D01*
X46057699Y-13523685D01*
X46154460Y-13572066D01*
X46202841Y-13620447D01*
X46251222Y-13717209D01*
X46251222Y-14007495D01*
X46202841Y-14104257D01*
X46154460Y-14152638D01*
X46057699Y-14201019D01*
X45912556Y-14201019D01*
X46541508Y-13523685D02*
X46928556Y-13523685D01*
X46686651Y-13185019D02*
X46686651Y-14055876D01*
X46735032Y-14152638D01*
X46831794Y-14201019D01*
X46928556Y-14201019D01*
X47267222Y-14201019D02*
X47267222Y-13523685D01*
X47267222Y-13185019D02*
X47218841Y-13233400D01*
X47267222Y-13281780D01*
X47315603Y-13233400D01*
X47267222Y-13185019D01*
X47267222Y-13281780D01*
X48186460Y-14152638D02*
X48089699Y-14201019D01*
X47896175Y-14201019D01*
X47799413Y-14152638D01*
X47751032Y-14104257D01*
X47702651Y-14007495D01*
X47702651Y-13717209D01*
X47751032Y-13620447D01*
X47799413Y-13572066D01*
X47896175Y-13523685D01*
X48089699Y-13523685D01*
X48186460Y-13572066D01*
X48573508Y-14152638D02*
X48670270Y-14201019D01*
X48863794Y-14201019D01*
X48960556Y-14152638D01*
X49008937Y-14055876D01*
X49008937Y-14007495D01*
X48960556Y-13910733D01*
X48863794Y-13862352D01*
X48718651Y-13862352D01*
X48621889Y-13813971D01*
X48573508Y-13717209D01*
X48573508Y-13668828D01*
X48621889Y-13572066D01*
X48718651Y-13523685D01*
X48863794Y-13523685D01*
X48960556Y-13572066D01*
X50702270Y-14201019D02*
X50218460Y-14201019D01*
X50218460Y-13185019D01*
X51476365Y-14201019D02*
X51476365Y-13668828D01*
X51427984Y-13572066D01*
X51331222Y-13523685D01*
X51137699Y-13523685D01*
X51040937Y-13572066D01*
X51476365Y-14152638D02*
X51379603Y-14201019D01*
X51137699Y-14201019D01*
X51040937Y-14152638D01*
X50992556Y-14055876D01*
X50992556Y-13959114D01*
X51040937Y-13862352D01*
X51137699Y-13813971D01*
X51379603Y-13813971D01*
X51476365Y-13765590D01*
X51960175Y-14201019D02*
X51960175Y-13185019D01*
X51960175Y-13572066D02*
X52056937Y-13523685D01*
X52250460Y-13523685D01*
X52347222Y-13572066D01*
X52395603Y-13620447D01*
X52443984Y-13717209D01*
X52443984Y-14007495D01*
X52395603Y-14104257D01*
X52347222Y-14152638D01*
X52250460Y-14201019D01*
X52056937Y-14201019D01*
X51960175Y-14152638D01*
X53024556Y-14201019D02*
X52927794Y-14152638D01*
X52879413Y-14104257D01*
X52831032Y-14007495D01*
X52831032Y-13717209D01*
X52879413Y-13620447D01*
X52927794Y-13572066D01*
X53024556Y-13523685D01*
X53169699Y-13523685D01*
X53266460Y-13572066D01*
X53314841Y-13620447D01*
X53363222Y-13717209D01*
X53363222Y-14007495D01*
X53314841Y-14104257D01*
X53266460Y-14152638D01*
X53169699Y-14201019D01*
X53024556Y-14201019D01*
X53798651Y-14201019D02*
X53798651Y-13523685D01*
X53798651Y-13717209D02*
X53847032Y-13620447D01*
X53895413Y-13572066D01*
X53992175Y-13523685D01*
X54088937Y-13523685D01*
X54863032Y-14201019D02*
X54863032Y-13668828D01*
X54814651Y-13572066D01*
X54717889Y-13523685D01*
X54524365Y-13523685D01*
X54427603Y-13572066D01*
X54863032Y-14152638D02*
X54766270Y-14201019D01*
X54524365Y-14201019D01*
X54427603Y-14152638D01*
X54379222Y-14055876D01*
X54379222Y-13959114D01*
X54427603Y-13862352D01*
X54524365Y-13813971D01*
X54766270Y-13813971D01*
X54863032Y-13765590D01*
X55201699Y-13523685D02*
X55588746Y-13523685D01*
X55346841Y-13185019D02*
X55346841Y-14055876D01*
X55395222Y-14152638D01*
X55491984Y-14201019D01*
X55588746Y-14201019D01*
X56072556Y-14201019D02*
X55975794Y-14152638D01*
X55927413Y-14104257D01*
X55879032Y-14007495D01*
X55879032Y-13717209D01*
X55927413Y-13620447D01*
X55975794Y-13572066D01*
X56072556Y-13523685D01*
X56217699Y-13523685D01*
X56314460Y-13572066D01*
X56362841Y-13620447D01*
X56411222Y-13717209D01*
X56411222Y-14007495D01*
X56362841Y-14104257D01*
X56314460Y-14152638D01*
X56217699Y-14201019D01*
X56072556Y-14201019D01*
X56846651Y-14201019D02*
X56846651Y-13523685D01*
X56846651Y-13717209D02*
X56895032Y-13620447D01*
X56943413Y-13572066D01*
X57040175Y-13523685D01*
X57136937Y-13523685D01*
X57378841Y-13523685D02*
X57620746Y-14201019D01*
X57862651Y-13523685D02*
X57620746Y-14201019D01*
X57523984Y-14442923D01*
X57475603Y-14491304D01*
X57378841Y-14539685D01*
X37155603Y-15879838D02*
X37300746Y-15928219D01*
X37542651Y-15928219D01*
X37639413Y-15879838D01*
X37687794Y-15831457D01*
X37736175Y-15734695D01*
X37736175Y-15637933D01*
X37687794Y-15541171D01*
X37639413Y-15492790D01*
X37542651Y-15444409D01*
X37349127Y-15396028D01*
X37252365Y-15347647D01*
X37203984Y-15299266D01*
X37155603Y-15202504D01*
X37155603Y-15105742D01*
X37203984Y-15008980D01*
X37252365Y-14960600D01*
X37349127Y-14912219D01*
X37591032Y-14912219D01*
X37736175Y-14960600D01*
X38171603Y-15250885D02*
X38171603Y-16266885D01*
X38171603Y-15299266D02*
X38268365Y-15250885D01*
X38461889Y-15250885D01*
X38558651Y-15299266D01*
X38607032Y-15347647D01*
X38655413Y-15444409D01*
X38655413Y-15734695D01*
X38607032Y-15831457D01*
X38558651Y-15879838D01*
X38461889Y-15928219D01*
X38268365Y-15928219D01*
X38171603Y-15879838D01*
X39090841Y-15928219D02*
X39090841Y-15250885D01*
X39090841Y-15444409D02*
X39139222Y-15347647D01*
X39187603Y-15299266D01*
X39284365Y-15250885D01*
X39381127Y-15250885D01*
X39719794Y-15928219D02*
X39719794Y-15250885D01*
X39719794Y-14912219D02*
X39671413Y-14960600D01*
X39719794Y-15008980D01*
X39768175Y-14960600D01*
X39719794Y-14912219D01*
X39719794Y-15008980D01*
X40203603Y-15250885D02*
X40203603Y-15928219D01*
X40203603Y-15347647D02*
X40251984Y-15299266D01*
X40348746Y-15250885D01*
X40493889Y-15250885D01*
X40590651Y-15299266D01*
X40639032Y-15396028D01*
X40639032Y-15928219D01*
X41558270Y-15250885D02*
X41558270Y-16073361D01*
X41509889Y-16170123D01*
X41461508Y-16218504D01*
X41364746Y-16266885D01*
X41219603Y-16266885D01*
X41122841Y-16218504D01*
X41558270Y-15879838D02*
X41461508Y-15928219D01*
X41267984Y-15928219D01*
X41171222Y-15879838D01*
X41122841Y-15831457D01*
X41074460Y-15734695D01*
X41074460Y-15444409D01*
X41122841Y-15347647D01*
X41171222Y-15299266D01*
X41267984Y-15250885D01*
X41461508Y-15250885D01*
X41558270Y-15299266D01*
X42767794Y-15008980D02*
X42816175Y-14960600D01*
X42912937Y-14912219D01*
X43154841Y-14912219D01*
X43251603Y-14960600D01*
X43299984Y-15008980D01*
X43348365Y-15105742D01*
X43348365Y-15202504D01*
X43299984Y-15347647D01*
X42719413Y-15928219D01*
X43348365Y-15928219D01*
X43977318Y-14912219D02*
X44074080Y-14912219D01*
X44170841Y-14960600D01*
X44219222Y-15008980D01*
X44267603Y-15105742D01*
X44315984Y-15299266D01*
X44315984Y-15541171D01*
X44267603Y-15734695D01*
X44219222Y-15831457D01*
X44170841Y-15879838D01*
X44074080Y-15928219D01*
X43977318Y-15928219D01*
X43880556Y-15879838D01*
X43832175Y-15831457D01*
X43783794Y-15734695D01*
X43735413Y-15541171D01*
X43735413Y-15299266D01*
X43783794Y-15105742D01*
X43832175Y-15008980D01*
X43880556Y-14960600D01*
X43977318Y-14912219D01*
X44703032Y-15008980D02*
X44751413Y-14960600D01*
X44848175Y-14912219D01*
X45090080Y-14912219D01*
X45186841Y-14960600D01*
X45235222Y-15008980D01*
X45283603Y-15105742D01*
X45283603Y-15202504D01*
X45235222Y-15347647D01*
X44654651Y-15928219D01*
X45283603Y-15928219D01*
X45670651Y-15008980D02*
X45719032Y-14960600D01*
X45815794Y-14912219D01*
X46057699Y-14912219D01*
X46154460Y-14960600D01*
X46202841Y-15008980D01*
X46251222Y-15105742D01*
X46251222Y-15202504D01*
X46202841Y-15347647D01*
X45622270Y-15928219D01*
X46251222Y-15928219D01*
D10*
X104140000Y-49182261D02*
X104351666Y-49817261D01*
X104563333Y-49182261D01*
X104775000Y-49817261D02*
X104775000Y-49182261D01*
X105077380Y-49817261D02*
X105077380Y-49182261D01*
X105440238Y-49817261D01*
X105440238Y-49182261D01*
X105924047Y-50059166D02*
X105893809Y-50028928D01*
X105833333Y-49938214D01*
X105803095Y-49877738D01*
X105772857Y-49787023D01*
X105742619Y-49635833D01*
X105742619Y-49514880D01*
X105772857Y-49363690D01*
X105803095Y-49272976D01*
X105833333Y-49212500D01*
X105893809Y-49121785D01*
X105924047Y-49091547D01*
X106135714Y-49635833D02*
X106438095Y-49635833D01*
X106075238Y-49817261D02*
X106286904Y-49182261D01*
X106498571Y-49817261D01*
X107073095Y-49817261D02*
X106861428Y-49514880D01*
X106710238Y-49817261D02*
X106710238Y-49182261D01*
X106952142Y-49182261D01*
X107012619Y-49212500D01*
X107042857Y-49242738D01*
X107073095Y-49303214D01*
X107073095Y-49393928D01*
X107042857Y-49454404D01*
X107012619Y-49484642D01*
X106952142Y-49514880D01*
X106710238Y-49514880D01*
X107345238Y-49817261D02*
X107345238Y-49182261D01*
X107496428Y-49182261D01*
X107587142Y-49212500D01*
X107647619Y-49272976D01*
X107677857Y-49333452D01*
X107708095Y-49454404D01*
X107708095Y-49545119D01*
X107677857Y-49666071D01*
X107647619Y-49726547D01*
X107587142Y-49787023D01*
X107496428Y-49817261D01*
X107345238Y-49817261D01*
X107980238Y-49182261D02*
X107980238Y-49696309D01*
X108010476Y-49756785D01*
X108040714Y-49787023D01*
X108101190Y-49817261D01*
X108222142Y-49817261D01*
X108282619Y-49787023D01*
X108312857Y-49756785D01*
X108343095Y-49696309D01*
X108343095Y-49182261D01*
X108645476Y-49817261D02*
X108645476Y-49182261D01*
X108947857Y-49817261D02*
X108947857Y-49182261D01*
X109310714Y-49817261D01*
X109310714Y-49182261D01*
X109734047Y-49182261D02*
X109855000Y-49182261D01*
X109915476Y-49212500D01*
X109975952Y-49272976D01*
X110006190Y-49393928D01*
X110006190Y-49605595D01*
X109975952Y-49726547D01*
X109915476Y-49787023D01*
X109855000Y-49817261D01*
X109734047Y-49817261D01*
X109673571Y-49787023D01*
X109613095Y-49726547D01*
X109582857Y-49605595D01*
X109582857Y-49393928D01*
X109613095Y-49272976D01*
X109673571Y-49212500D01*
X109734047Y-49182261D01*
X110217857Y-50059166D02*
X110248095Y-50028928D01*
X110308571Y-49938214D01*
X110338809Y-49877738D01*
X110369047Y-49787023D01*
X110399285Y-49635833D01*
X110399285Y-49514880D01*
X110369047Y-49363690D01*
X110338809Y-49272976D01*
X110308571Y-49212500D01*
X110248095Y-49121785D01*
X110217857Y-49091547D01*
X106846309Y-41864642D02*
X106937023Y-41894880D01*
X106967261Y-41925119D01*
X106997500Y-41985595D01*
X106997500Y-42076309D01*
X106967261Y-42136785D01*
X106937023Y-42167023D01*
X106876547Y-42197261D01*
X106634642Y-42197261D01*
X106634642Y-41562261D01*
X106846309Y-41562261D01*
X106906785Y-41592500D01*
X106937023Y-41622738D01*
X106967261Y-41683214D01*
X106967261Y-41743690D01*
X106937023Y-41804166D01*
X106906785Y-41834404D01*
X106846309Y-41864642D01*
X106634642Y-41864642D01*
X107239404Y-42015833D02*
X107541785Y-42015833D01*
X107178928Y-42197261D02*
X107390595Y-41562261D01*
X107602261Y-42197261D01*
X107723214Y-41562261D02*
X108086071Y-41562261D01*
X107904642Y-42197261D02*
X107904642Y-41562261D01*
X109371190Y-57467500D02*
X109310714Y-57437261D01*
X109220000Y-57437261D01*
X109129285Y-57467500D01*
X109068809Y-57527976D01*
X109038571Y-57588452D01*
X109008333Y-57709404D01*
X109008333Y-57800119D01*
X109038571Y-57921071D01*
X109068809Y-57981547D01*
X109129285Y-58042023D01*
X109220000Y-58072261D01*
X109280476Y-58072261D01*
X109371190Y-58042023D01*
X109401428Y-58011785D01*
X109401428Y-57800119D01*
X109280476Y-57800119D01*
X109673571Y-58072261D02*
X109673571Y-57437261D01*
X110036428Y-58072261D01*
X110036428Y-57437261D01*
X110338809Y-58072261D02*
X110338809Y-57437261D01*
X110490000Y-57437261D01*
X110580714Y-57467500D01*
X110641190Y-57527976D01*
X110671428Y-57588452D01*
X110701666Y-57709404D01*
X110701666Y-57800119D01*
X110671428Y-57921071D01*
X110641190Y-57981547D01*
X110580714Y-58042023D01*
X110490000Y-58072261D01*
X110338809Y-58072261D01*
X109431666Y-60582023D02*
X109522380Y-60612261D01*
X109673571Y-60612261D01*
X109734047Y-60582023D01*
X109764285Y-60551785D01*
X109794523Y-60491309D01*
X109794523Y-60430833D01*
X109764285Y-60370357D01*
X109734047Y-60340119D01*
X109673571Y-60309880D01*
X109552619Y-60279642D01*
X109492142Y-60249404D01*
X109461904Y-60219166D01*
X109431666Y-60158690D01*
X109431666Y-60098214D01*
X109461904Y-60037738D01*
X109492142Y-60007500D01*
X109552619Y-59977261D01*
X109703809Y-59977261D01*
X109794523Y-60007500D01*
X109975952Y-59977261D02*
X110338809Y-59977261D01*
X110157380Y-60612261D02*
X110157380Y-59977261D01*
X92921666Y-49787023D02*
X93012380Y-49817261D01*
X93163571Y-49817261D01*
X93224047Y-49787023D01*
X93254285Y-49756785D01*
X93284523Y-49696309D01*
X93284523Y-49635833D01*
X93254285Y-49575357D01*
X93224047Y-49545119D01*
X93163571Y-49514880D01*
X93042619Y-49484642D01*
X92982142Y-49454404D01*
X92951904Y-49424166D01*
X92921666Y-49363690D01*
X92921666Y-49303214D01*
X92951904Y-49242738D01*
X92982142Y-49212500D01*
X93042619Y-49182261D01*
X93193809Y-49182261D01*
X93284523Y-49212500D01*
X93465952Y-49182261D02*
X93828809Y-49182261D01*
X93647380Y-49817261D02*
X93647380Y-49182261D01*
X115086190Y-113347500D02*
X115025714Y-113317261D01*
X114935000Y-113317261D01*
X114844285Y-113347500D01*
X114783809Y-113407976D01*
X114753571Y-113468452D01*
X114723333Y-113589404D01*
X114723333Y-113680119D01*
X114753571Y-113801071D01*
X114783809Y-113861547D01*
X114844285Y-113922023D01*
X114935000Y-113952261D01*
X114995476Y-113952261D01*
X115086190Y-113922023D01*
X115116428Y-113891785D01*
X115116428Y-113680119D01*
X114995476Y-113680119D01*
X115388571Y-113952261D02*
X115388571Y-113317261D01*
X115751428Y-113952261D01*
X115751428Y-113317261D01*
X116053809Y-113952261D02*
X116053809Y-113317261D01*
X116205000Y-113317261D01*
X116295714Y-113347500D01*
X116356190Y-113407976D01*
X116386428Y-113468452D01*
X116416666Y-113589404D01*
X116416666Y-113680119D01*
X116386428Y-113801071D01*
X116356190Y-113861547D01*
X116295714Y-113922023D01*
X116205000Y-113952261D01*
X116053809Y-113952261D01*
X120831428Y-113770833D02*
X121133809Y-113770833D01*
X120770952Y-113952261D02*
X120982619Y-113317261D01*
X121194285Y-113952261D01*
X121345476Y-113317261D02*
X121738571Y-113317261D01*
X121526904Y-113559166D01*
X121617619Y-113559166D01*
X121678095Y-113589404D01*
X121708333Y-113619642D01*
X121738571Y-113680119D01*
X121738571Y-113831309D01*
X121708333Y-113891785D01*
X121678095Y-113922023D01*
X121617619Y-113952261D01*
X121436190Y-113952261D01*
X121375714Y-113922023D01*
X121345476Y-113891785D01*
X120876785Y-106332261D02*
X120665119Y-106029880D01*
X120513928Y-106332261D02*
X120513928Y-105697261D01*
X120755833Y-105697261D01*
X120816309Y-105727500D01*
X120846547Y-105757738D01*
X120876785Y-105818214D01*
X120876785Y-105908928D01*
X120846547Y-105969404D01*
X120816309Y-105999642D01*
X120755833Y-106029880D01*
X120513928Y-106029880D01*
X121088452Y-105697261D02*
X121511785Y-106332261D01*
X121511785Y-105697261D02*
X121088452Y-106332261D01*
X122086309Y-106332261D02*
X121723452Y-106332261D01*
X121904880Y-106332261D02*
X121904880Y-105697261D01*
X121844404Y-105787976D01*
X121783928Y-105848452D01*
X121723452Y-105878690D01*
X115161785Y-106332261D02*
X114950119Y-106029880D01*
X114798928Y-106332261D02*
X114798928Y-105697261D01*
X115040833Y-105697261D01*
X115101309Y-105727500D01*
X115131547Y-105757738D01*
X115161785Y-105818214D01*
X115161785Y-105908928D01*
X115131547Y-105969404D01*
X115101309Y-105999642D01*
X115040833Y-106029880D01*
X114798928Y-106029880D01*
X115373452Y-105697261D02*
X115796785Y-106332261D01*
X115796785Y-105697261D02*
X115373452Y-106332261D01*
X116371309Y-106332261D02*
X116008452Y-106332261D01*
X116189880Y-106332261D02*
X116189880Y-105697261D01*
X116129404Y-105787976D01*
X116068928Y-105848452D01*
X116008452Y-105878690D01*
X115086190Y-94297500D02*
X115025714Y-94267261D01*
X114935000Y-94267261D01*
X114844285Y-94297500D01*
X114783809Y-94357976D01*
X114753571Y-94418452D01*
X114723333Y-94539404D01*
X114723333Y-94630119D01*
X114753571Y-94751071D01*
X114783809Y-94811547D01*
X114844285Y-94872023D01*
X114935000Y-94902261D01*
X114995476Y-94902261D01*
X115086190Y-94872023D01*
X115116428Y-94841785D01*
X115116428Y-94630119D01*
X114995476Y-94630119D01*
X115388571Y-94902261D02*
X115388571Y-94267261D01*
X115751428Y-94902261D01*
X115751428Y-94267261D01*
X116053809Y-94902261D02*
X116053809Y-94267261D01*
X116205000Y-94267261D01*
X116295714Y-94297500D01*
X116356190Y-94357976D01*
X116386428Y-94418452D01*
X116416666Y-94539404D01*
X116416666Y-94630119D01*
X116386428Y-94751071D01*
X116356190Y-94811547D01*
X116295714Y-94872023D01*
X116205000Y-94902261D01*
X116053809Y-94902261D01*
X120831428Y-94720833D02*
X121133809Y-94720833D01*
X120770952Y-94902261D02*
X120982619Y-94267261D01*
X121194285Y-94902261D01*
X121738571Y-94902261D02*
X121375714Y-94902261D01*
X121557142Y-94902261D02*
X121557142Y-94267261D01*
X121496666Y-94357976D01*
X121436190Y-94418452D01*
X121375714Y-94448690D01*
X120876785Y-87282261D02*
X120665119Y-86979880D01*
X120513928Y-87282261D02*
X120513928Y-86647261D01*
X120755833Y-86647261D01*
X120816309Y-86677500D01*
X120846547Y-86707738D01*
X120876785Y-86768214D01*
X120876785Y-86858928D01*
X120846547Y-86919404D01*
X120816309Y-86949642D01*
X120755833Y-86979880D01*
X120513928Y-86979880D01*
X121088452Y-86647261D02*
X121511785Y-87282261D01*
X121511785Y-86647261D02*
X121088452Y-87282261D01*
X121874642Y-86647261D02*
X121935119Y-86647261D01*
X121995595Y-86677500D01*
X122025833Y-86707738D01*
X122056071Y-86768214D01*
X122086309Y-86889166D01*
X122086309Y-87040357D01*
X122056071Y-87161309D01*
X122025833Y-87221785D01*
X121995595Y-87252023D01*
X121935119Y-87282261D01*
X121874642Y-87282261D01*
X121814166Y-87252023D01*
X121783928Y-87221785D01*
X121753690Y-87161309D01*
X121723452Y-87040357D01*
X121723452Y-86889166D01*
X121753690Y-86768214D01*
X121783928Y-86707738D01*
X121814166Y-86677500D01*
X121874642Y-86647261D01*
X115161785Y-87282261D02*
X114950119Y-86979880D01*
X114798928Y-87282261D02*
X114798928Y-86647261D01*
X115040833Y-86647261D01*
X115101309Y-86677500D01*
X115131547Y-86707738D01*
X115161785Y-86768214D01*
X115161785Y-86858928D01*
X115131547Y-86919404D01*
X115101309Y-86949642D01*
X115040833Y-86979880D01*
X114798928Y-86979880D01*
X115373452Y-86647261D02*
X115796785Y-87282261D01*
X115796785Y-86647261D02*
X115373452Y-87282261D01*
X116159642Y-86647261D02*
X116220119Y-86647261D01*
X116280595Y-86677500D01*
X116310833Y-86707738D01*
X116341071Y-86768214D01*
X116371309Y-86889166D01*
X116371309Y-87040357D01*
X116341071Y-87161309D01*
X116310833Y-87221785D01*
X116280595Y-87252023D01*
X116220119Y-87282261D01*
X116159642Y-87282261D01*
X116099166Y-87252023D01*
X116068928Y-87221785D01*
X116038690Y-87161309D01*
X116008452Y-87040357D01*
X116008452Y-86889166D01*
X116038690Y-86768214D01*
X116068928Y-86707738D01*
X116099166Y-86677500D01*
X116159642Y-86647261D01*
X106468333Y-110777261D02*
X106680000Y-111412261D01*
X106891666Y-110777261D01*
X107466190Y-111351785D02*
X107435952Y-111382023D01*
X107345238Y-111412261D01*
X107284761Y-111412261D01*
X107194047Y-111382023D01*
X107133571Y-111321547D01*
X107103333Y-111261071D01*
X107073095Y-111140119D01*
X107073095Y-111049404D01*
X107103333Y-110928452D01*
X107133571Y-110867976D01*
X107194047Y-110807500D01*
X107284761Y-110777261D01*
X107345238Y-110777261D01*
X107435952Y-110807500D01*
X107466190Y-110837738D01*
X108101190Y-111351785D02*
X108070952Y-111382023D01*
X107980238Y-111412261D01*
X107919761Y-111412261D01*
X107829047Y-111382023D01*
X107768571Y-111321547D01*
X107738333Y-111261071D01*
X107708095Y-111140119D01*
X107708095Y-111049404D01*
X107738333Y-110928452D01*
X107768571Y-110867976D01*
X107829047Y-110807500D01*
X107919761Y-110777261D01*
X107980238Y-110777261D01*
X108070952Y-110807500D01*
X108101190Y-110837738D01*
X106831190Y-108267500D02*
X106770714Y-108237261D01*
X106680000Y-108237261D01*
X106589285Y-108267500D01*
X106528809Y-108327976D01*
X106498571Y-108388452D01*
X106468333Y-108509404D01*
X106468333Y-108600119D01*
X106498571Y-108721071D01*
X106528809Y-108781547D01*
X106589285Y-108842023D01*
X106680000Y-108872261D01*
X106740476Y-108872261D01*
X106831190Y-108842023D01*
X106861428Y-108811785D01*
X106861428Y-108600119D01*
X106740476Y-108600119D01*
X107133571Y-108872261D02*
X107133571Y-108237261D01*
X107496428Y-108872261D01*
X107496428Y-108237261D01*
X107798809Y-108872261D02*
X107798809Y-108237261D01*
X107950000Y-108237261D01*
X108040714Y-108267500D01*
X108101190Y-108327976D01*
X108131428Y-108388452D01*
X108161666Y-108509404D01*
X108161666Y-108600119D01*
X108131428Y-108721071D01*
X108101190Y-108781547D01*
X108040714Y-108842023D01*
X107950000Y-108872261D01*
X107798809Y-108872261D01*
X106800952Y-105697261D02*
X107163809Y-105697261D01*
X106982380Y-106332261D02*
X106982380Y-105697261D01*
X107315000Y-105697261D02*
X107738333Y-106332261D01*
X107738333Y-105697261D02*
X107315000Y-106332261D01*
X108312857Y-106332261D02*
X107950000Y-106332261D01*
X108131428Y-106332261D02*
X108131428Y-105697261D01*
X108070952Y-105787976D01*
X108010476Y-105848452D01*
X107950000Y-105878690D01*
X108766428Y-106574166D02*
X108736190Y-106543928D01*
X108675714Y-106453214D01*
X108645476Y-106392738D01*
X108615238Y-106302023D01*
X108585000Y-106150833D01*
X108585000Y-106029880D01*
X108615238Y-105878690D01*
X108645476Y-105787976D01*
X108675714Y-105727500D01*
X108736190Y-105636785D01*
X108766428Y-105606547D01*
X108978095Y-106150833D02*
X109280476Y-106150833D01*
X108917619Y-106332261D02*
X109129285Y-105697261D01*
X109340952Y-106332261D01*
X109522380Y-105757738D02*
X109552619Y-105727500D01*
X109613095Y-105697261D01*
X109764285Y-105697261D01*
X109824761Y-105727500D01*
X109855000Y-105757738D01*
X109885238Y-105818214D01*
X109885238Y-105878690D01*
X109855000Y-105969404D01*
X109492142Y-106332261D01*
X109885238Y-106332261D01*
X110096904Y-106574166D02*
X110127142Y-106543928D01*
X110187619Y-106453214D01*
X110217857Y-106392738D01*
X110248095Y-106302023D01*
X110278333Y-106150833D01*
X110278333Y-106029880D01*
X110248095Y-105878690D01*
X110217857Y-105787976D01*
X110187619Y-105727500D01*
X110127142Y-105636785D01*
X110096904Y-105606547D01*
X106906785Y-104427261D02*
X106695119Y-104124880D01*
X106543928Y-104427261D02*
X106543928Y-103792261D01*
X106785833Y-103792261D01*
X106846309Y-103822500D01*
X106876547Y-103852738D01*
X106906785Y-103913214D01*
X106906785Y-104003928D01*
X106876547Y-104064404D01*
X106846309Y-104094642D01*
X106785833Y-104124880D01*
X106543928Y-104124880D01*
X107118452Y-103792261D02*
X107541785Y-104427261D01*
X107541785Y-103792261D02*
X107118452Y-104427261D01*
X108116309Y-104427261D02*
X107753452Y-104427261D01*
X107934880Y-104427261D02*
X107934880Y-103792261D01*
X107874404Y-103882976D01*
X107813928Y-103943452D01*
X107753452Y-103973690D01*
X106468333Y-91727261D02*
X106680000Y-92362261D01*
X106891666Y-91727261D01*
X107466190Y-92301785D02*
X107435952Y-92332023D01*
X107345238Y-92362261D01*
X107284761Y-92362261D01*
X107194047Y-92332023D01*
X107133571Y-92271547D01*
X107103333Y-92211071D01*
X107073095Y-92090119D01*
X107073095Y-91999404D01*
X107103333Y-91878452D01*
X107133571Y-91817976D01*
X107194047Y-91757500D01*
X107284761Y-91727261D01*
X107345238Y-91727261D01*
X107435952Y-91757500D01*
X107466190Y-91787738D01*
X108101190Y-92301785D02*
X108070952Y-92332023D01*
X107980238Y-92362261D01*
X107919761Y-92362261D01*
X107829047Y-92332023D01*
X107768571Y-92271547D01*
X107738333Y-92211071D01*
X107708095Y-92090119D01*
X107708095Y-91999404D01*
X107738333Y-91878452D01*
X107768571Y-91817976D01*
X107829047Y-91757500D01*
X107919761Y-91727261D01*
X107980238Y-91727261D01*
X108070952Y-91757500D01*
X108101190Y-91787738D01*
X106831190Y-89217500D02*
X106770714Y-89187261D01*
X106680000Y-89187261D01*
X106589285Y-89217500D01*
X106528809Y-89277976D01*
X106498571Y-89338452D01*
X106468333Y-89459404D01*
X106468333Y-89550119D01*
X106498571Y-89671071D01*
X106528809Y-89731547D01*
X106589285Y-89792023D01*
X106680000Y-89822261D01*
X106740476Y-89822261D01*
X106831190Y-89792023D01*
X106861428Y-89761785D01*
X106861428Y-89550119D01*
X106740476Y-89550119D01*
X107133571Y-89822261D02*
X107133571Y-89187261D01*
X107496428Y-89822261D01*
X107496428Y-89187261D01*
X107798809Y-89822261D02*
X107798809Y-89187261D01*
X107950000Y-89187261D01*
X108040714Y-89217500D01*
X108101190Y-89277976D01*
X108131428Y-89338452D01*
X108161666Y-89459404D01*
X108161666Y-89550119D01*
X108131428Y-89671071D01*
X108101190Y-89731547D01*
X108040714Y-89792023D01*
X107950000Y-89822261D01*
X107798809Y-89822261D01*
X106800952Y-86647261D02*
X107163809Y-86647261D01*
X106982380Y-87282261D02*
X106982380Y-86647261D01*
X107315000Y-86647261D02*
X107738333Y-87282261D01*
X107738333Y-86647261D02*
X107315000Y-87282261D01*
X108101190Y-86647261D02*
X108161666Y-86647261D01*
X108222142Y-86677500D01*
X108252380Y-86707738D01*
X108282619Y-86768214D01*
X108312857Y-86889166D01*
X108312857Y-87040357D01*
X108282619Y-87161309D01*
X108252380Y-87221785D01*
X108222142Y-87252023D01*
X108161666Y-87282261D01*
X108101190Y-87282261D01*
X108040714Y-87252023D01*
X108010476Y-87221785D01*
X107980238Y-87161309D01*
X107950000Y-87040357D01*
X107950000Y-86889166D01*
X107980238Y-86768214D01*
X108010476Y-86707738D01*
X108040714Y-86677500D01*
X108101190Y-86647261D01*
X108766428Y-87524166D02*
X108736190Y-87493928D01*
X108675714Y-87403214D01*
X108645476Y-87342738D01*
X108615238Y-87252023D01*
X108585000Y-87100833D01*
X108585000Y-86979880D01*
X108615238Y-86828690D01*
X108645476Y-86737976D01*
X108675714Y-86677500D01*
X108736190Y-86586785D01*
X108766428Y-86556547D01*
X108978095Y-87100833D02*
X109280476Y-87100833D01*
X108917619Y-87282261D02*
X109129285Y-86647261D01*
X109340952Y-87282261D01*
X109673571Y-86647261D02*
X109734047Y-86647261D01*
X109794523Y-86677500D01*
X109824761Y-86707738D01*
X109855000Y-86768214D01*
X109885238Y-86889166D01*
X109885238Y-87040357D01*
X109855000Y-87161309D01*
X109824761Y-87221785D01*
X109794523Y-87252023D01*
X109734047Y-87282261D01*
X109673571Y-87282261D01*
X109613095Y-87252023D01*
X109582857Y-87221785D01*
X109552619Y-87161309D01*
X109522380Y-87040357D01*
X109522380Y-86889166D01*
X109552619Y-86768214D01*
X109582857Y-86707738D01*
X109613095Y-86677500D01*
X109673571Y-86647261D01*
X110096904Y-87524166D02*
X110127142Y-87493928D01*
X110187619Y-87403214D01*
X110217857Y-87342738D01*
X110248095Y-87252023D01*
X110278333Y-87100833D01*
X110278333Y-86979880D01*
X110248095Y-86828690D01*
X110217857Y-86737976D01*
X110187619Y-86677500D01*
X110127142Y-86586785D01*
X110096904Y-86556547D01*
X106906785Y-84742261D02*
X106695119Y-84439880D01*
X106543928Y-84742261D02*
X106543928Y-84107261D01*
X106785833Y-84107261D01*
X106846309Y-84137500D01*
X106876547Y-84167738D01*
X106906785Y-84228214D01*
X106906785Y-84318928D01*
X106876547Y-84379404D01*
X106846309Y-84409642D01*
X106785833Y-84439880D01*
X106543928Y-84439880D01*
X107118452Y-84107261D02*
X107541785Y-84742261D01*
X107541785Y-84107261D02*
X107118452Y-84742261D01*
X107904642Y-84107261D02*
X107965119Y-84107261D01*
X108025595Y-84137500D01*
X108055833Y-84167738D01*
X108086071Y-84228214D01*
X108116309Y-84349166D01*
X108116309Y-84500357D01*
X108086071Y-84621309D01*
X108055833Y-84681785D01*
X108025595Y-84712023D01*
X107965119Y-84742261D01*
X107904642Y-84742261D01*
X107844166Y-84712023D01*
X107813928Y-84681785D01*
X107783690Y-84621309D01*
X107753452Y-84500357D01*
X107753452Y-84349166D01*
X107783690Y-84228214D01*
X107813928Y-84167738D01*
X107844166Y-84137500D01*
X107904642Y-84107261D01*
X92891428Y-54715833D02*
X93193809Y-54715833D01*
X92830952Y-54897261D02*
X93042619Y-54262261D01*
X93254285Y-54897261D01*
X93435714Y-54322738D02*
X93465952Y-54292500D01*
X93526428Y-54262261D01*
X93677619Y-54262261D01*
X93738095Y-54292500D01*
X93768333Y-54322738D01*
X93798571Y-54383214D01*
X93798571Y-54443690D01*
X93768333Y-54534404D01*
X93405476Y-54897261D01*
X93798571Y-54897261D01*
X94252142Y-55139166D02*
X94221904Y-55108928D01*
X94161428Y-55018214D01*
X94131190Y-54957738D01*
X94100952Y-54867023D01*
X94070714Y-54715833D01*
X94070714Y-54594880D01*
X94100952Y-54443690D01*
X94131190Y-54352976D01*
X94161428Y-54292500D01*
X94221904Y-54201785D01*
X94252142Y-54171547D01*
X94403333Y-54262261D02*
X94766190Y-54262261D01*
X94584761Y-54897261D02*
X94584761Y-54262261D01*
X94917380Y-54262261D02*
X95340714Y-54897261D01*
X95340714Y-54262261D02*
X94917380Y-54897261D01*
X95915238Y-54897261D02*
X95552380Y-54897261D01*
X95733809Y-54897261D02*
X95733809Y-54262261D01*
X95673333Y-54352976D01*
X95612857Y-54413452D01*
X95552380Y-54443690D01*
X96126904Y-55139166D02*
X96157142Y-55108928D01*
X96217619Y-55018214D01*
X96247857Y-54957738D01*
X96278095Y-54867023D01*
X96308333Y-54715833D01*
X96308333Y-54594880D01*
X96278095Y-54443690D01*
X96247857Y-54352976D01*
X96217619Y-54292500D01*
X96157142Y-54201785D01*
X96126904Y-54171547D01*
X92891428Y-59795833D02*
X93193809Y-59795833D01*
X92830952Y-59977261D02*
X93042619Y-59342261D01*
X93254285Y-59977261D01*
X93586904Y-59342261D02*
X93647380Y-59342261D01*
X93707857Y-59372500D01*
X93738095Y-59402738D01*
X93768333Y-59463214D01*
X93798571Y-59584166D01*
X93798571Y-59735357D01*
X93768333Y-59856309D01*
X93738095Y-59916785D01*
X93707857Y-59947023D01*
X93647380Y-59977261D01*
X93586904Y-59977261D01*
X93526428Y-59947023D01*
X93496190Y-59916785D01*
X93465952Y-59856309D01*
X93435714Y-59735357D01*
X93435714Y-59584166D01*
X93465952Y-59463214D01*
X93496190Y-59402738D01*
X93526428Y-59372500D01*
X93586904Y-59342261D01*
X94252142Y-60219166D02*
X94221904Y-60188928D01*
X94161428Y-60098214D01*
X94131190Y-60037738D01*
X94100952Y-59947023D01*
X94070714Y-59795833D01*
X94070714Y-59674880D01*
X94100952Y-59523690D01*
X94131190Y-59432976D01*
X94161428Y-59372500D01*
X94221904Y-59281785D01*
X94252142Y-59251547D01*
X94403333Y-59342261D02*
X94766190Y-59342261D01*
X94584761Y-59977261D02*
X94584761Y-59342261D01*
X94917380Y-59342261D02*
X95340714Y-59977261D01*
X95340714Y-59342261D02*
X94917380Y-59977261D01*
X95703571Y-59342261D02*
X95764047Y-59342261D01*
X95824523Y-59372500D01*
X95854761Y-59402738D01*
X95885000Y-59463214D01*
X95915238Y-59584166D01*
X95915238Y-59735357D01*
X95885000Y-59856309D01*
X95854761Y-59916785D01*
X95824523Y-59947023D01*
X95764047Y-59977261D01*
X95703571Y-59977261D01*
X95643095Y-59947023D01*
X95612857Y-59916785D01*
X95582619Y-59856309D01*
X95552380Y-59735357D01*
X95552380Y-59584166D01*
X95582619Y-59463214D01*
X95612857Y-59402738D01*
X95643095Y-59372500D01*
X95703571Y-59342261D01*
X96126904Y-60219166D02*
X96157142Y-60188928D01*
X96217619Y-60098214D01*
X96247857Y-60037738D01*
X96278095Y-59947023D01*
X96308333Y-59795833D01*
X96308333Y-59674880D01*
X96278095Y-59523690D01*
X96247857Y-59432976D01*
X96217619Y-59372500D01*
X96157142Y-59281785D01*
X96126904Y-59251547D01*
X92891428Y-57255833D02*
X93193809Y-57255833D01*
X92830952Y-57437261D02*
X93042619Y-56802261D01*
X93254285Y-57437261D01*
X93798571Y-57437261D02*
X93435714Y-57437261D01*
X93617142Y-57437261D02*
X93617142Y-56802261D01*
X93556666Y-56892976D01*
X93496190Y-56953452D01*
X93435714Y-56983690D01*
X92891428Y-52175833D02*
X93193809Y-52175833D01*
X92830952Y-52357261D02*
X93042619Y-51722261D01*
X93254285Y-52357261D01*
X93405476Y-51722261D02*
X93798571Y-51722261D01*
X93586904Y-51964166D01*
X93677619Y-51964166D01*
X93738095Y-51994404D01*
X93768333Y-52024642D01*
X93798571Y-52085119D01*
X93798571Y-52236309D01*
X93768333Y-52296785D01*
X93738095Y-52327023D01*
X93677619Y-52357261D01*
X93496190Y-52357261D01*
X93435714Y-52327023D01*
X93405476Y-52296785D01*
X92498333Y-39022261D02*
X92710000Y-39657261D01*
X92921666Y-39022261D01*
X93496190Y-39596785D02*
X93465952Y-39627023D01*
X93375238Y-39657261D01*
X93314761Y-39657261D01*
X93224047Y-39627023D01*
X93163571Y-39566547D01*
X93133333Y-39506071D01*
X93103095Y-39385119D01*
X93103095Y-39294404D01*
X93133333Y-39173452D01*
X93163571Y-39112976D01*
X93224047Y-39052500D01*
X93314761Y-39022261D01*
X93375238Y-39022261D01*
X93465952Y-39052500D01*
X93496190Y-39082738D01*
X94131190Y-39596785D02*
X94100952Y-39627023D01*
X94010238Y-39657261D01*
X93949761Y-39657261D01*
X93859047Y-39627023D01*
X93798571Y-39566547D01*
X93768333Y-39506071D01*
X93738095Y-39385119D01*
X93738095Y-39294404D01*
X93768333Y-39173452D01*
X93798571Y-39112976D01*
X93859047Y-39052500D01*
X93949761Y-39022261D01*
X94010238Y-39022261D01*
X94100952Y-39052500D01*
X94131190Y-39082738D01*
X92649523Y-31402261D02*
X92861190Y-32037261D01*
X93072857Y-31402261D01*
X93284523Y-32037261D02*
X93284523Y-31402261D01*
X93586904Y-32037261D02*
X93586904Y-31402261D01*
X93949761Y-32037261D01*
X93949761Y-31402261D01*
X92861190Y-33972500D02*
X92800714Y-33942261D01*
X92710000Y-33942261D01*
X92619285Y-33972500D01*
X92558809Y-34032976D01*
X92528571Y-34093452D01*
X92498333Y-34214404D01*
X92498333Y-34305119D01*
X92528571Y-34426071D01*
X92558809Y-34486547D01*
X92619285Y-34547023D01*
X92710000Y-34577261D01*
X92770476Y-34577261D01*
X92861190Y-34547023D01*
X92891428Y-34516785D01*
X92891428Y-34305119D01*
X92770476Y-34305119D01*
X93163571Y-34577261D02*
X93163571Y-33942261D01*
X93526428Y-34577261D01*
X93526428Y-33942261D01*
X93828809Y-34577261D02*
X93828809Y-33942261D01*
X93980000Y-33942261D01*
X94070714Y-33972500D01*
X94131190Y-34032976D01*
X94161428Y-34093452D01*
X94191666Y-34214404D01*
X94191666Y-34305119D01*
X94161428Y-34426071D01*
X94131190Y-34486547D01*
X94070714Y-34547023D01*
X93980000Y-34577261D01*
X93828809Y-34577261D01*
X71044404Y-57437261D02*
X71044404Y-56802261D01*
X71195595Y-56802261D01*
X71286309Y-56832500D01*
X71346785Y-56892976D01*
X71377023Y-56953452D01*
X71407261Y-57074404D01*
X71407261Y-57165119D01*
X71377023Y-57286071D01*
X71346785Y-57346547D01*
X71286309Y-57407023D01*
X71195595Y-57437261D01*
X71044404Y-57437261D01*
X71588690Y-56802261D02*
X71951547Y-56802261D01*
X71770119Y-57437261D02*
X71770119Y-56802261D01*
X72102738Y-56802261D02*
X72495833Y-56802261D01*
X72284166Y-57044166D01*
X72374880Y-57044166D01*
X72435357Y-57074404D01*
X72465595Y-57104642D01*
X72495833Y-57165119D01*
X72495833Y-57316309D01*
X72465595Y-57376785D01*
X72435357Y-57407023D01*
X72374880Y-57437261D01*
X72193452Y-57437261D01*
X72132976Y-57407023D01*
X72102738Y-57376785D01*
X70636190Y-59947023D02*
X70726904Y-59977261D01*
X70878095Y-59977261D01*
X70938571Y-59947023D01*
X70968809Y-59916785D01*
X70999047Y-59856309D01*
X70999047Y-59795833D01*
X70968809Y-59735357D01*
X70938571Y-59705119D01*
X70878095Y-59674880D01*
X70757142Y-59644642D01*
X70696666Y-59614404D01*
X70666428Y-59584166D01*
X70636190Y-59523690D01*
X70636190Y-59463214D01*
X70666428Y-59402738D01*
X70696666Y-59372500D01*
X70757142Y-59342261D01*
X70908333Y-59342261D01*
X70999047Y-59372500D01*
X71634047Y-59916785D02*
X71603809Y-59947023D01*
X71513095Y-59977261D01*
X71452619Y-59977261D01*
X71361904Y-59947023D01*
X71301428Y-59886547D01*
X71271190Y-59826071D01*
X71240952Y-59705119D01*
X71240952Y-59614404D01*
X71271190Y-59493452D01*
X71301428Y-59432976D01*
X71361904Y-59372500D01*
X71452619Y-59342261D01*
X71513095Y-59342261D01*
X71603809Y-59372500D01*
X71634047Y-59402738D01*
X71906190Y-59977261D02*
X71906190Y-59342261D01*
X72269047Y-59977261D02*
X71996904Y-59614404D01*
X72269047Y-59342261D02*
X71906190Y-59705119D01*
X72480714Y-59342261D02*
X72873809Y-59342261D01*
X72662142Y-59584166D01*
X72752857Y-59584166D01*
X72813333Y-59614404D01*
X72843571Y-59644642D01*
X72873809Y-59705119D01*
X72873809Y-59856309D01*
X72843571Y-59916785D01*
X72813333Y-59947023D01*
X72752857Y-59977261D01*
X72571428Y-59977261D01*
X72510952Y-59947023D01*
X72480714Y-59916785D01*
X71044404Y-52357261D02*
X71044404Y-51722261D01*
X71195595Y-51722261D01*
X71286309Y-51752500D01*
X71346785Y-51812976D01*
X71377023Y-51873452D01*
X71407261Y-51994404D01*
X71407261Y-52085119D01*
X71377023Y-52206071D01*
X71346785Y-52266547D01*
X71286309Y-52327023D01*
X71195595Y-52357261D01*
X71044404Y-52357261D01*
X71588690Y-51722261D02*
X71951547Y-51722261D01*
X71770119Y-52357261D02*
X71770119Y-51722261D01*
X72132976Y-51782738D02*
X72163214Y-51752500D01*
X72223690Y-51722261D01*
X72374880Y-51722261D01*
X72435357Y-51752500D01*
X72465595Y-51782738D01*
X72495833Y-51843214D01*
X72495833Y-51903690D01*
X72465595Y-51994404D01*
X72102738Y-52357261D01*
X72495833Y-52357261D01*
X70636190Y-54867023D02*
X70726904Y-54897261D01*
X70878095Y-54897261D01*
X70938571Y-54867023D01*
X70968809Y-54836785D01*
X70999047Y-54776309D01*
X70999047Y-54715833D01*
X70968809Y-54655357D01*
X70938571Y-54625119D01*
X70878095Y-54594880D01*
X70757142Y-54564642D01*
X70696666Y-54534404D01*
X70666428Y-54504166D01*
X70636190Y-54443690D01*
X70636190Y-54383214D01*
X70666428Y-54322738D01*
X70696666Y-54292500D01*
X70757142Y-54262261D01*
X70908333Y-54262261D01*
X70999047Y-54292500D01*
X71634047Y-54836785D02*
X71603809Y-54867023D01*
X71513095Y-54897261D01*
X71452619Y-54897261D01*
X71361904Y-54867023D01*
X71301428Y-54806547D01*
X71271190Y-54746071D01*
X71240952Y-54625119D01*
X71240952Y-54534404D01*
X71271190Y-54413452D01*
X71301428Y-54352976D01*
X71361904Y-54292500D01*
X71452619Y-54262261D01*
X71513095Y-54262261D01*
X71603809Y-54292500D01*
X71634047Y-54322738D01*
X71906190Y-54897261D02*
X71906190Y-54262261D01*
X72269047Y-54897261D02*
X71996904Y-54534404D01*
X72269047Y-54262261D02*
X71906190Y-54625119D01*
X72510952Y-54322738D02*
X72541190Y-54292500D01*
X72601666Y-54262261D01*
X72752857Y-54262261D01*
X72813333Y-54292500D01*
X72843571Y-54322738D01*
X72873809Y-54383214D01*
X72873809Y-54443690D01*
X72843571Y-54534404D01*
X72480714Y-54897261D01*
X72873809Y-54897261D01*
X71044404Y-47277261D02*
X71044404Y-46642261D01*
X71195595Y-46642261D01*
X71286309Y-46672500D01*
X71346785Y-46732976D01*
X71377023Y-46793452D01*
X71407261Y-46914404D01*
X71407261Y-47005119D01*
X71377023Y-47126071D01*
X71346785Y-47186547D01*
X71286309Y-47247023D01*
X71195595Y-47277261D01*
X71044404Y-47277261D01*
X71588690Y-46642261D02*
X71951547Y-46642261D01*
X71770119Y-47277261D02*
X71770119Y-46642261D01*
X72495833Y-47277261D02*
X72132976Y-47277261D01*
X72314404Y-47277261D02*
X72314404Y-46642261D01*
X72253928Y-46732976D01*
X72193452Y-46793452D01*
X72132976Y-46823690D01*
X70636190Y-44707023D02*
X70726904Y-44737261D01*
X70878095Y-44737261D01*
X70938571Y-44707023D01*
X70968809Y-44676785D01*
X70999047Y-44616309D01*
X70999047Y-44555833D01*
X70968809Y-44495357D01*
X70938571Y-44465119D01*
X70878095Y-44434880D01*
X70757142Y-44404642D01*
X70696666Y-44374404D01*
X70666428Y-44344166D01*
X70636190Y-44283690D01*
X70636190Y-44223214D01*
X70666428Y-44162738D01*
X70696666Y-44132500D01*
X70757142Y-44102261D01*
X70908333Y-44102261D01*
X70999047Y-44132500D01*
X71634047Y-44676785D02*
X71603809Y-44707023D01*
X71513095Y-44737261D01*
X71452619Y-44737261D01*
X71361904Y-44707023D01*
X71301428Y-44646547D01*
X71271190Y-44586071D01*
X71240952Y-44465119D01*
X71240952Y-44374404D01*
X71271190Y-44253452D01*
X71301428Y-44192976D01*
X71361904Y-44132500D01*
X71452619Y-44102261D01*
X71513095Y-44102261D01*
X71603809Y-44132500D01*
X71634047Y-44162738D01*
X71906190Y-44737261D02*
X71906190Y-44102261D01*
X72269047Y-44737261D02*
X71996904Y-44374404D01*
X72269047Y-44102261D02*
X71906190Y-44465119D01*
X72662142Y-44102261D02*
X72722619Y-44102261D01*
X72783095Y-44132500D01*
X72813333Y-44162738D01*
X72843571Y-44223214D01*
X72873809Y-44344166D01*
X72873809Y-44495357D01*
X72843571Y-44616309D01*
X72813333Y-44676785D01*
X72783095Y-44707023D01*
X72722619Y-44737261D01*
X72662142Y-44737261D01*
X72601666Y-44707023D01*
X72571428Y-44676785D01*
X72541190Y-44616309D01*
X72510952Y-44495357D01*
X72510952Y-44344166D01*
X72541190Y-44223214D01*
X72571428Y-44162738D01*
X72601666Y-44132500D01*
X72662142Y-44102261D01*
X71044404Y-42197261D02*
X71044404Y-41562261D01*
X71195595Y-41562261D01*
X71286309Y-41592500D01*
X71346785Y-41652976D01*
X71377023Y-41713452D01*
X71407261Y-41834404D01*
X71407261Y-41925119D01*
X71377023Y-42046071D01*
X71346785Y-42106547D01*
X71286309Y-42167023D01*
X71195595Y-42197261D01*
X71044404Y-42197261D01*
X71588690Y-41562261D02*
X71951547Y-41562261D01*
X71770119Y-42197261D02*
X71770119Y-41562261D01*
X72284166Y-41562261D02*
X72344642Y-41562261D01*
X72405119Y-41592500D01*
X72435357Y-41622738D01*
X72465595Y-41683214D01*
X72495833Y-41804166D01*
X72495833Y-41955357D01*
X72465595Y-42076309D01*
X72435357Y-42136785D01*
X72405119Y-42167023D01*
X72344642Y-42197261D01*
X72284166Y-42197261D01*
X72223690Y-42167023D01*
X72193452Y-42136785D01*
X72163214Y-42076309D01*
X72132976Y-41955357D01*
X72132976Y-41804166D01*
X72163214Y-41683214D01*
X72193452Y-41622738D01*
X72223690Y-41592500D01*
X72284166Y-41562261D01*
X71271190Y-39052500D02*
X71210714Y-39022261D01*
X71120000Y-39022261D01*
X71029285Y-39052500D01*
X70968809Y-39112976D01*
X70938571Y-39173452D01*
X70908333Y-39294404D01*
X70908333Y-39385119D01*
X70938571Y-39506071D01*
X70968809Y-39566547D01*
X71029285Y-39627023D01*
X71120000Y-39657261D01*
X71180476Y-39657261D01*
X71271190Y-39627023D01*
X71301428Y-39596785D01*
X71301428Y-39385119D01*
X71180476Y-39385119D01*
X71573571Y-39657261D02*
X71573571Y-39022261D01*
X71936428Y-39657261D01*
X71936428Y-39022261D01*
X72238809Y-39657261D02*
X72238809Y-39022261D01*
X72390000Y-39022261D01*
X72480714Y-39052500D01*
X72541190Y-39112976D01*
X72571428Y-39173452D01*
X72601666Y-39294404D01*
X72601666Y-39385119D01*
X72571428Y-39506071D01*
X72541190Y-39566547D01*
X72480714Y-39627023D01*
X72390000Y-39657261D01*
X72238809Y-39657261D01*
X83336190Y-21272500D02*
X83275714Y-21242261D01*
X83185000Y-21242261D01*
X83094285Y-21272500D01*
X83033809Y-21332976D01*
X83003571Y-21393452D01*
X82973333Y-21514404D01*
X82973333Y-21605119D01*
X83003571Y-21726071D01*
X83033809Y-21786547D01*
X83094285Y-21847023D01*
X83185000Y-21877261D01*
X83245476Y-21877261D01*
X83336190Y-21847023D01*
X83366428Y-21816785D01*
X83366428Y-21605119D01*
X83245476Y-21605119D01*
X83638571Y-21877261D02*
X83638571Y-21242261D01*
X84001428Y-21877261D01*
X84001428Y-21242261D01*
X84303809Y-21877261D02*
X84303809Y-21242261D01*
X84455000Y-21242261D01*
X84545714Y-21272500D01*
X84606190Y-21332976D01*
X84636428Y-21393452D01*
X84666666Y-21514404D01*
X84666666Y-21605119D01*
X84636428Y-21726071D01*
X84606190Y-21786547D01*
X84545714Y-21847023D01*
X84455000Y-21877261D01*
X84303809Y-21877261D01*
X80811309Y-21544642D02*
X80902023Y-21574880D01*
X80932261Y-21605119D01*
X80962500Y-21665595D01*
X80962500Y-21756309D01*
X80932261Y-21816785D01*
X80902023Y-21847023D01*
X80841547Y-21877261D01*
X80599642Y-21877261D01*
X80599642Y-21242261D01*
X80811309Y-21242261D01*
X80871785Y-21272500D01*
X80902023Y-21302738D01*
X80932261Y-21363214D01*
X80932261Y-21423690D01*
X80902023Y-21484166D01*
X80871785Y-21514404D01*
X80811309Y-21544642D01*
X80599642Y-21544642D01*
X81204404Y-21695833D02*
X81506785Y-21695833D01*
X81143928Y-21877261D02*
X81355595Y-21242261D01*
X81567261Y-21877261D01*
X81688214Y-21242261D02*
X82051071Y-21242261D01*
X81869642Y-21877261D02*
X81869642Y-21242261D01*
X44253452Y-80599642D02*
X44465119Y-80599642D01*
X44555833Y-80932261D02*
X44253452Y-80932261D01*
X44253452Y-80297261D01*
X44555833Y-80297261D01*
X44827976Y-80690357D02*
X45311785Y-80690357D01*
X45553690Y-80297261D02*
X45946785Y-80297261D01*
X45735119Y-80539166D01*
X45825833Y-80539166D01*
X45886309Y-80569404D01*
X45916547Y-80599642D01*
X45946785Y-80660119D01*
X45946785Y-80811309D01*
X45916547Y-80871785D01*
X45886309Y-80902023D01*
X45825833Y-80932261D01*
X45644404Y-80932261D01*
X45583928Y-80902023D01*
X45553690Y-80871785D01*
X36920714Y-76305833D02*
X37223095Y-76305833D01*
X36860238Y-76487261D02*
X37071904Y-75852261D01*
X37283571Y-76487261D01*
X37495238Y-76245357D02*
X37979047Y-76245357D01*
X36920714Y-80750833D02*
X37223095Y-80750833D01*
X36860238Y-80932261D02*
X37071904Y-80297261D01*
X37283571Y-80932261D01*
X37495238Y-80690357D02*
X37979047Y-80690357D01*
X44253452Y-76154642D02*
X44465119Y-76154642D01*
X44555833Y-76487261D02*
X44253452Y-76487261D01*
X44253452Y-75852261D01*
X44555833Y-75852261D01*
X44827976Y-76245357D02*
X45311785Y-76245357D01*
X45069880Y-76487261D02*
X45069880Y-76003452D01*
X45553690Y-75852261D02*
X45946785Y-75852261D01*
X45735119Y-76094166D01*
X45825833Y-76094166D01*
X45886309Y-76124404D01*
X45916547Y-76154642D01*
X45946785Y-76215119D01*
X45946785Y-76366309D01*
X45916547Y-76426785D01*
X45886309Y-76457023D01*
X45825833Y-76487261D01*
X45644404Y-76487261D01*
X45583928Y-76457023D01*
X45553690Y-76426785D01*
X17870714Y-80750833D02*
X18173095Y-80750833D01*
X17810238Y-80932261D02*
X18021904Y-80297261D01*
X18233571Y-80932261D01*
X18445238Y-80690357D02*
X18929047Y-80690357D01*
X25203452Y-76154642D02*
X25415119Y-76154642D01*
X25505833Y-76487261D02*
X25203452Y-76487261D01*
X25203452Y-75852261D01*
X25505833Y-75852261D01*
X25777976Y-76245357D02*
X26261785Y-76245357D01*
X26019880Y-76487261D02*
X26019880Y-76003452D01*
X26533928Y-75912738D02*
X26564166Y-75882500D01*
X26624642Y-75852261D01*
X26775833Y-75852261D01*
X26836309Y-75882500D01*
X26866547Y-75912738D01*
X26896785Y-75973214D01*
X26896785Y-76033690D01*
X26866547Y-76124404D01*
X26503690Y-76487261D01*
X26896785Y-76487261D01*
X17870714Y-76305833D02*
X18173095Y-76305833D01*
X17810238Y-76487261D02*
X18021904Y-75852261D01*
X18233571Y-76487261D01*
X18445238Y-76245357D02*
X18929047Y-76245357D01*
X25203452Y-80599642D02*
X25415119Y-80599642D01*
X25505833Y-80932261D02*
X25203452Y-80932261D01*
X25203452Y-80297261D01*
X25505833Y-80297261D01*
X25777976Y-80690357D02*
X26261785Y-80690357D01*
X26533928Y-80357738D02*
X26564166Y-80327500D01*
X26624642Y-80297261D01*
X26775833Y-80297261D01*
X26836309Y-80327500D01*
X26866547Y-80357738D01*
X26896785Y-80418214D01*
X26896785Y-80478690D01*
X26866547Y-80569404D01*
X26503690Y-80932261D01*
X26896785Y-80932261D01*
X38190714Y-32490833D02*
X38493095Y-32490833D01*
X38130238Y-32672261D02*
X38341904Y-32037261D01*
X38553571Y-32672261D01*
X38765238Y-32430357D02*
X39249047Y-32430357D01*
X45523452Y-32339642D02*
X45735119Y-32339642D01*
X45825833Y-32672261D02*
X45523452Y-32672261D01*
X45523452Y-32037261D01*
X45825833Y-32037261D01*
X46097976Y-32430357D02*
X46581785Y-32430357D01*
X46339880Y-32672261D02*
X46339880Y-32188452D01*
X47216785Y-32672261D02*
X46853928Y-32672261D01*
X47035357Y-32672261D02*
X47035357Y-32037261D01*
X46974880Y-32127976D01*
X46914404Y-32188452D01*
X46853928Y-32218690D01*
X38190714Y-36935833D02*
X38493095Y-36935833D01*
X38130238Y-37117261D02*
X38341904Y-36482261D01*
X38553571Y-37117261D01*
X38765238Y-36875357D02*
X39249047Y-36875357D01*
X45523452Y-36784642D02*
X45735119Y-36784642D01*
X45825833Y-37117261D02*
X45523452Y-37117261D01*
X45523452Y-36482261D01*
X45825833Y-36482261D01*
X46097976Y-36875357D02*
X46581785Y-36875357D01*
X47216785Y-37117261D02*
X46853928Y-37117261D01*
X47035357Y-37117261D02*
X47035357Y-36482261D01*
X46974880Y-36572976D01*
X46914404Y-36633452D01*
X46853928Y-36663690D01*
X17870714Y-32490833D02*
X18173095Y-32490833D01*
X17810238Y-32672261D02*
X18021904Y-32037261D01*
X18233571Y-32672261D01*
X18445238Y-32430357D02*
X18929047Y-32430357D01*
X25203452Y-32339642D02*
X25415119Y-32339642D01*
X25505833Y-32672261D02*
X25203452Y-32672261D01*
X25203452Y-32037261D01*
X25505833Y-32037261D01*
X25777976Y-32430357D02*
X26261785Y-32430357D01*
X26019880Y-32672261D02*
X26019880Y-32188452D01*
X26685119Y-32037261D02*
X26745595Y-32037261D01*
X26806071Y-32067500D01*
X26836309Y-32097738D01*
X26866547Y-32158214D01*
X26896785Y-32279166D01*
X26896785Y-32430357D01*
X26866547Y-32551309D01*
X26836309Y-32611785D01*
X26806071Y-32642023D01*
X26745595Y-32672261D01*
X26685119Y-32672261D01*
X26624642Y-32642023D01*
X26594404Y-32611785D01*
X26564166Y-32551309D01*
X26533928Y-32430357D01*
X26533928Y-32279166D01*
X26564166Y-32158214D01*
X26594404Y-32097738D01*
X26624642Y-32067500D01*
X26685119Y-32037261D01*
X17870714Y-36935833D02*
X18173095Y-36935833D01*
X17810238Y-37117261D02*
X18021904Y-36482261D01*
X18233571Y-37117261D01*
X18445238Y-36875357D02*
X18929047Y-36875357D01*
X25203452Y-36784642D02*
X25415119Y-36784642D01*
X25505833Y-37117261D02*
X25203452Y-37117261D01*
X25203452Y-36482261D01*
X25505833Y-36482261D01*
X25777976Y-36875357D02*
X26261785Y-36875357D01*
X26685119Y-36482261D02*
X26745595Y-36482261D01*
X26806071Y-36512500D01*
X26836309Y-36542738D01*
X26866547Y-36603214D01*
X26896785Y-36724166D01*
X26896785Y-36875357D01*
X26866547Y-36996309D01*
X26836309Y-37056785D01*
X26806071Y-37087023D01*
X26745595Y-37117261D01*
X26685119Y-37117261D01*
X26624642Y-37087023D01*
X26594404Y-37056785D01*
X26564166Y-36996309D01*
X26533928Y-36875357D01*
X26533928Y-36724166D01*
X26564166Y-36603214D01*
X26594404Y-36542738D01*
X26624642Y-36512500D01*
X26685119Y-36482261D01*
X39521190Y-108902500D02*
X39460714Y-108872261D01*
X39370000Y-108872261D01*
X39279285Y-108902500D01*
X39218809Y-108962976D01*
X39188571Y-109023452D01*
X39158333Y-109144404D01*
X39158333Y-109235119D01*
X39188571Y-109356071D01*
X39218809Y-109416547D01*
X39279285Y-109477023D01*
X39370000Y-109507261D01*
X39430476Y-109507261D01*
X39521190Y-109477023D01*
X39551428Y-109446785D01*
X39551428Y-109235119D01*
X39430476Y-109235119D01*
X39823571Y-109507261D02*
X39823571Y-108872261D01*
X40186428Y-109507261D01*
X40186428Y-108872261D01*
X40488809Y-109507261D02*
X40488809Y-108872261D01*
X40640000Y-108872261D01*
X40730714Y-108902500D01*
X40791190Y-108962976D01*
X40821428Y-109023452D01*
X40851666Y-109144404D01*
X40851666Y-109235119D01*
X40821428Y-109356071D01*
X40791190Y-109416547D01*
X40730714Y-109477023D01*
X40640000Y-109507261D01*
X40488809Y-109507261D01*
X46778333Y-108872261D02*
X46990000Y-109507261D01*
X47201666Y-108872261D01*
X47776190Y-109446785D02*
X47745952Y-109477023D01*
X47655238Y-109507261D01*
X47594761Y-109507261D01*
X47504047Y-109477023D01*
X47443571Y-109416547D01*
X47413333Y-109356071D01*
X47383095Y-109235119D01*
X47383095Y-109144404D01*
X47413333Y-109023452D01*
X47443571Y-108962976D01*
X47504047Y-108902500D01*
X47594761Y-108872261D01*
X47655238Y-108872261D01*
X47745952Y-108902500D01*
X47776190Y-108932738D01*
X48411190Y-109446785D02*
X48380952Y-109477023D01*
X48290238Y-109507261D01*
X48229761Y-109507261D01*
X48139047Y-109477023D01*
X48078571Y-109416547D01*
X48048333Y-109356071D01*
X48018095Y-109235119D01*
X48018095Y-109144404D01*
X48048333Y-109023452D01*
X48078571Y-108962976D01*
X48139047Y-108902500D01*
X48229761Y-108872261D01*
X48290238Y-108872261D01*
X48380952Y-108902500D01*
X48411190Y-108932738D01*
X43966190Y-109477023D02*
X44056904Y-109507261D01*
X44208095Y-109507261D01*
X44268571Y-109477023D01*
X44298809Y-109446785D01*
X44329047Y-109386309D01*
X44329047Y-109325833D01*
X44298809Y-109265357D01*
X44268571Y-109235119D01*
X44208095Y-109204880D01*
X44087142Y-109174642D01*
X44026666Y-109144404D01*
X43996428Y-109114166D01*
X43966190Y-109053690D01*
X43966190Y-108993214D01*
X43996428Y-108932738D01*
X44026666Y-108902500D01*
X44087142Y-108872261D01*
X44238333Y-108872261D01*
X44329047Y-108902500D01*
X44964047Y-109446785D02*
X44933809Y-109477023D01*
X44843095Y-109507261D01*
X44782619Y-109507261D01*
X44691904Y-109477023D01*
X44631428Y-109416547D01*
X44601190Y-109356071D01*
X44570952Y-109235119D01*
X44570952Y-109144404D01*
X44601190Y-109023452D01*
X44631428Y-108962976D01*
X44691904Y-108902500D01*
X44782619Y-108872261D01*
X44843095Y-108872261D01*
X44933809Y-108902500D01*
X44964047Y-108932738D01*
X45236190Y-109507261D02*
X45236190Y-108872261D01*
X45599047Y-109507261D02*
X45326904Y-109144404D01*
X45599047Y-108872261D02*
X45236190Y-109235119D01*
X45810714Y-108872261D02*
X46203809Y-108872261D01*
X45992142Y-109114166D01*
X46082857Y-109114166D01*
X46143333Y-109144404D01*
X46173571Y-109174642D01*
X46203809Y-109235119D01*
X46203809Y-109386309D01*
X46173571Y-109446785D01*
X46143333Y-109477023D01*
X46082857Y-109507261D01*
X45901428Y-109507261D01*
X45840952Y-109477023D01*
X45810714Y-109446785D01*
X41834404Y-109507261D02*
X41834404Y-108872261D01*
X41985595Y-108872261D01*
X42076309Y-108902500D01*
X42136785Y-108962976D01*
X42167023Y-109023452D01*
X42197261Y-109144404D01*
X42197261Y-109235119D01*
X42167023Y-109356071D01*
X42136785Y-109416547D01*
X42076309Y-109477023D01*
X41985595Y-109507261D01*
X41834404Y-109507261D01*
X42378690Y-108872261D02*
X42741547Y-108872261D01*
X42560119Y-109507261D02*
X42560119Y-108872261D01*
X42892738Y-108872261D02*
X43285833Y-108872261D01*
X43074166Y-109114166D01*
X43164880Y-109114166D01*
X43225357Y-109144404D01*
X43255595Y-109174642D01*
X43285833Y-109235119D01*
X43285833Y-109386309D01*
X43255595Y-109446785D01*
X43225357Y-109477023D01*
X43164880Y-109507261D01*
X42983452Y-109507261D01*
X42922976Y-109477023D01*
X42892738Y-109446785D01*
X20471190Y-108902500D02*
X20410714Y-108872261D01*
X20320000Y-108872261D01*
X20229285Y-108902500D01*
X20168809Y-108962976D01*
X20138571Y-109023452D01*
X20108333Y-109144404D01*
X20108333Y-109235119D01*
X20138571Y-109356071D01*
X20168809Y-109416547D01*
X20229285Y-109477023D01*
X20320000Y-109507261D01*
X20380476Y-109507261D01*
X20471190Y-109477023D01*
X20501428Y-109446785D01*
X20501428Y-109235119D01*
X20380476Y-109235119D01*
X20773571Y-109507261D02*
X20773571Y-108872261D01*
X21136428Y-109507261D01*
X21136428Y-108872261D01*
X21438809Y-109507261D02*
X21438809Y-108872261D01*
X21590000Y-108872261D01*
X21680714Y-108902500D01*
X21741190Y-108962976D01*
X21771428Y-109023452D01*
X21801666Y-109144404D01*
X21801666Y-109235119D01*
X21771428Y-109356071D01*
X21741190Y-109416547D01*
X21680714Y-109477023D01*
X21590000Y-109507261D01*
X21438809Y-109507261D01*
X27728333Y-108872261D02*
X27940000Y-109507261D01*
X28151666Y-108872261D01*
X28726190Y-109446785D02*
X28695952Y-109477023D01*
X28605238Y-109507261D01*
X28544761Y-109507261D01*
X28454047Y-109477023D01*
X28393571Y-109416547D01*
X28363333Y-109356071D01*
X28333095Y-109235119D01*
X28333095Y-109144404D01*
X28363333Y-109023452D01*
X28393571Y-108962976D01*
X28454047Y-108902500D01*
X28544761Y-108872261D01*
X28605238Y-108872261D01*
X28695952Y-108902500D01*
X28726190Y-108932738D01*
X29361190Y-109446785D02*
X29330952Y-109477023D01*
X29240238Y-109507261D01*
X29179761Y-109507261D01*
X29089047Y-109477023D01*
X29028571Y-109416547D01*
X28998333Y-109356071D01*
X28968095Y-109235119D01*
X28968095Y-109144404D01*
X28998333Y-109023452D01*
X29028571Y-108962976D01*
X29089047Y-108902500D01*
X29179761Y-108872261D01*
X29240238Y-108872261D01*
X29330952Y-108902500D01*
X29361190Y-108932738D01*
X24916190Y-109477023D02*
X25006904Y-109507261D01*
X25158095Y-109507261D01*
X25218571Y-109477023D01*
X25248809Y-109446785D01*
X25279047Y-109386309D01*
X25279047Y-109325833D01*
X25248809Y-109265357D01*
X25218571Y-109235119D01*
X25158095Y-109204880D01*
X25037142Y-109174642D01*
X24976666Y-109144404D01*
X24946428Y-109114166D01*
X24916190Y-109053690D01*
X24916190Y-108993214D01*
X24946428Y-108932738D01*
X24976666Y-108902500D01*
X25037142Y-108872261D01*
X25188333Y-108872261D01*
X25279047Y-108902500D01*
X25914047Y-109446785D02*
X25883809Y-109477023D01*
X25793095Y-109507261D01*
X25732619Y-109507261D01*
X25641904Y-109477023D01*
X25581428Y-109416547D01*
X25551190Y-109356071D01*
X25520952Y-109235119D01*
X25520952Y-109144404D01*
X25551190Y-109023452D01*
X25581428Y-108962976D01*
X25641904Y-108902500D01*
X25732619Y-108872261D01*
X25793095Y-108872261D01*
X25883809Y-108902500D01*
X25914047Y-108932738D01*
X26186190Y-109507261D02*
X26186190Y-108872261D01*
X26549047Y-109507261D02*
X26276904Y-109144404D01*
X26549047Y-108872261D02*
X26186190Y-109235119D01*
X26790952Y-108932738D02*
X26821190Y-108902500D01*
X26881666Y-108872261D01*
X27032857Y-108872261D01*
X27093333Y-108902500D01*
X27123571Y-108932738D01*
X27153809Y-108993214D01*
X27153809Y-109053690D01*
X27123571Y-109144404D01*
X26760714Y-109507261D01*
X27153809Y-109507261D01*
X22784404Y-109507261D02*
X22784404Y-108872261D01*
X22935595Y-108872261D01*
X23026309Y-108902500D01*
X23086785Y-108962976D01*
X23117023Y-109023452D01*
X23147261Y-109144404D01*
X23147261Y-109235119D01*
X23117023Y-109356071D01*
X23086785Y-109416547D01*
X23026309Y-109477023D01*
X22935595Y-109507261D01*
X22784404Y-109507261D01*
X23328690Y-108872261D02*
X23691547Y-108872261D01*
X23510119Y-109507261D02*
X23510119Y-108872261D01*
X23872976Y-108932738D02*
X23903214Y-108902500D01*
X23963690Y-108872261D01*
X24114880Y-108872261D01*
X24175357Y-108902500D01*
X24205595Y-108932738D01*
X24235833Y-108993214D01*
X24235833Y-109053690D01*
X24205595Y-109144404D01*
X23842738Y-109507261D01*
X24235833Y-109507261D01*
X40791190Y-63817500D02*
X40730714Y-63787261D01*
X40640000Y-63787261D01*
X40549285Y-63817500D01*
X40488809Y-63877976D01*
X40458571Y-63938452D01*
X40428333Y-64059404D01*
X40428333Y-64150119D01*
X40458571Y-64271071D01*
X40488809Y-64331547D01*
X40549285Y-64392023D01*
X40640000Y-64422261D01*
X40700476Y-64422261D01*
X40791190Y-64392023D01*
X40821428Y-64361785D01*
X40821428Y-64150119D01*
X40700476Y-64150119D01*
X41093571Y-64422261D02*
X41093571Y-63787261D01*
X41456428Y-64422261D01*
X41456428Y-63787261D01*
X41758809Y-64422261D02*
X41758809Y-63787261D01*
X41910000Y-63787261D01*
X42000714Y-63817500D01*
X42061190Y-63877976D01*
X42091428Y-63938452D01*
X42121666Y-64059404D01*
X42121666Y-64150119D01*
X42091428Y-64271071D01*
X42061190Y-64331547D01*
X42000714Y-64392023D01*
X41910000Y-64422261D01*
X41758809Y-64422261D01*
X48048333Y-63787261D02*
X48260000Y-64422261D01*
X48471666Y-63787261D01*
X49046190Y-64361785D02*
X49015952Y-64392023D01*
X48925238Y-64422261D01*
X48864761Y-64422261D01*
X48774047Y-64392023D01*
X48713571Y-64331547D01*
X48683333Y-64271071D01*
X48653095Y-64150119D01*
X48653095Y-64059404D01*
X48683333Y-63938452D01*
X48713571Y-63877976D01*
X48774047Y-63817500D01*
X48864761Y-63787261D01*
X48925238Y-63787261D01*
X49015952Y-63817500D01*
X49046190Y-63847738D01*
X49681190Y-64361785D02*
X49650952Y-64392023D01*
X49560238Y-64422261D01*
X49499761Y-64422261D01*
X49409047Y-64392023D01*
X49348571Y-64331547D01*
X49318333Y-64271071D01*
X49288095Y-64150119D01*
X49288095Y-64059404D01*
X49318333Y-63938452D01*
X49348571Y-63877976D01*
X49409047Y-63817500D01*
X49499761Y-63787261D01*
X49560238Y-63787261D01*
X49650952Y-63817500D01*
X49681190Y-63847738D01*
X45236190Y-64392023D02*
X45326904Y-64422261D01*
X45478095Y-64422261D01*
X45538571Y-64392023D01*
X45568809Y-64361785D01*
X45599047Y-64301309D01*
X45599047Y-64240833D01*
X45568809Y-64180357D01*
X45538571Y-64150119D01*
X45478095Y-64119880D01*
X45357142Y-64089642D01*
X45296666Y-64059404D01*
X45266428Y-64029166D01*
X45236190Y-63968690D01*
X45236190Y-63908214D01*
X45266428Y-63847738D01*
X45296666Y-63817500D01*
X45357142Y-63787261D01*
X45508333Y-63787261D01*
X45599047Y-63817500D01*
X46234047Y-64361785D02*
X46203809Y-64392023D01*
X46113095Y-64422261D01*
X46052619Y-64422261D01*
X45961904Y-64392023D01*
X45901428Y-64331547D01*
X45871190Y-64271071D01*
X45840952Y-64150119D01*
X45840952Y-64059404D01*
X45871190Y-63938452D01*
X45901428Y-63877976D01*
X45961904Y-63817500D01*
X46052619Y-63787261D01*
X46113095Y-63787261D01*
X46203809Y-63817500D01*
X46234047Y-63847738D01*
X46506190Y-64422261D02*
X46506190Y-63787261D01*
X46869047Y-64422261D02*
X46596904Y-64059404D01*
X46869047Y-63787261D02*
X46506190Y-64150119D01*
X47473809Y-64422261D02*
X47110952Y-64422261D01*
X47292380Y-64422261D02*
X47292380Y-63787261D01*
X47231904Y-63877976D01*
X47171428Y-63938452D01*
X47110952Y-63968690D01*
X43104404Y-64422261D02*
X43104404Y-63787261D01*
X43255595Y-63787261D01*
X43346309Y-63817500D01*
X43406785Y-63877976D01*
X43437023Y-63938452D01*
X43467261Y-64059404D01*
X43467261Y-64150119D01*
X43437023Y-64271071D01*
X43406785Y-64331547D01*
X43346309Y-64392023D01*
X43255595Y-64422261D01*
X43104404Y-64422261D01*
X43648690Y-63787261D02*
X44011547Y-63787261D01*
X43830119Y-64422261D02*
X43830119Y-63787261D01*
X44555833Y-64422261D02*
X44192976Y-64422261D01*
X44374404Y-64422261D02*
X44374404Y-63787261D01*
X44313928Y-63877976D01*
X44253452Y-63938452D01*
X44192976Y-63968690D01*
X27728333Y-63787261D02*
X27940000Y-64422261D01*
X28151666Y-63787261D01*
X28726190Y-64361785D02*
X28695952Y-64392023D01*
X28605238Y-64422261D01*
X28544761Y-64422261D01*
X28454047Y-64392023D01*
X28393571Y-64331547D01*
X28363333Y-64271071D01*
X28333095Y-64150119D01*
X28333095Y-64059404D01*
X28363333Y-63938452D01*
X28393571Y-63877976D01*
X28454047Y-63817500D01*
X28544761Y-63787261D01*
X28605238Y-63787261D01*
X28695952Y-63817500D01*
X28726190Y-63847738D01*
X29361190Y-64361785D02*
X29330952Y-64392023D01*
X29240238Y-64422261D01*
X29179761Y-64422261D01*
X29089047Y-64392023D01*
X29028571Y-64331547D01*
X28998333Y-64271071D01*
X28968095Y-64150119D01*
X28968095Y-64059404D01*
X28998333Y-63938452D01*
X29028571Y-63877976D01*
X29089047Y-63817500D01*
X29179761Y-63787261D01*
X29240238Y-63787261D01*
X29330952Y-63817500D01*
X29361190Y-63847738D01*
X24916190Y-64392023D02*
X25006904Y-64422261D01*
X25158095Y-64422261D01*
X25218571Y-64392023D01*
X25248809Y-64361785D01*
X25279047Y-64301309D01*
X25279047Y-64240833D01*
X25248809Y-64180357D01*
X25218571Y-64150119D01*
X25158095Y-64119880D01*
X25037142Y-64089642D01*
X24976666Y-64059404D01*
X24946428Y-64029166D01*
X24916190Y-63968690D01*
X24916190Y-63908214D01*
X24946428Y-63847738D01*
X24976666Y-63817500D01*
X25037142Y-63787261D01*
X25188333Y-63787261D01*
X25279047Y-63817500D01*
X25914047Y-64361785D02*
X25883809Y-64392023D01*
X25793095Y-64422261D01*
X25732619Y-64422261D01*
X25641904Y-64392023D01*
X25581428Y-64331547D01*
X25551190Y-64271071D01*
X25520952Y-64150119D01*
X25520952Y-64059404D01*
X25551190Y-63938452D01*
X25581428Y-63877976D01*
X25641904Y-63817500D01*
X25732619Y-63787261D01*
X25793095Y-63787261D01*
X25883809Y-63817500D01*
X25914047Y-63847738D01*
X26186190Y-64422261D02*
X26186190Y-63787261D01*
X26549047Y-64422261D02*
X26276904Y-64059404D01*
X26549047Y-63787261D02*
X26186190Y-64150119D01*
X26942142Y-63787261D02*
X27002619Y-63787261D01*
X27063095Y-63817500D01*
X27093333Y-63847738D01*
X27123571Y-63908214D01*
X27153809Y-64029166D01*
X27153809Y-64180357D01*
X27123571Y-64301309D01*
X27093333Y-64361785D01*
X27063095Y-64392023D01*
X27002619Y-64422261D01*
X26942142Y-64422261D01*
X26881666Y-64392023D01*
X26851428Y-64361785D01*
X26821190Y-64301309D01*
X26790952Y-64180357D01*
X26790952Y-64029166D01*
X26821190Y-63908214D01*
X26851428Y-63847738D01*
X26881666Y-63817500D01*
X26942142Y-63787261D01*
X20471190Y-63817500D02*
X20410714Y-63787261D01*
X20320000Y-63787261D01*
X20229285Y-63817500D01*
X20168809Y-63877976D01*
X20138571Y-63938452D01*
X20108333Y-64059404D01*
X20108333Y-64150119D01*
X20138571Y-64271071D01*
X20168809Y-64331547D01*
X20229285Y-64392023D01*
X20320000Y-64422261D01*
X20380476Y-64422261D01*
X20471190Y-64392023D01*
X20501428Y-64361785D01*
X20501428Y-64150119D01*
X20380476Y-64150119D01*
X20773571Y-64422261D02*
X20773571Y-63787261D01*
X21136428Y-64422261D01*
X21136428Y-63787261D01*
X21438809Y-64422261D02*
X21438809Y-63787261D01*
X21590000Y-63787261D01*
X21680714Y-63817500D01*
X21741190Y-63877976D01*
X21771428Y-63938452D01*
X21801666Y-64059404D01*
X21801666Y-64150119D01*
X21771428Y-64271071D01*
X21741190Y-64331547D01*
X21680714Y-64392023D01*
X21590000Y-64422261D01*
X21438809Y-64422261D01*
X22784404Y-64422261D02*
X22784404Y-63787261D01*
X22935595Y-63787261D01*
X23026309Y-63817500D01*
X23086785Y-63877976D01*
X23117023Y-63938452D01*
X23147261Y-64059404D01*
X23147261Y-64150119D01*
X23117023Y-64271071D01*
X23086785Y-64331547D01*
X23026309Y-64392023D01*
X22935595Y-64422261D01*
X22784404Y-64422261D01*
X23328690Y-63787261D02*
X23691547Y-63787261D01*
X23510119Y-64422261D02*
X23510119Y-63787261D01*
X24024166Y-63787261D02*
X24084642Y-63787261D01*
X24145119Y-63817500D01*
X24175357Y-63847738D01*
X24205595Y-63908214D01*
X24235833Y-64029166D01*
X24235833Y-64180357D01*
X24205595Y-64301309D01*
X24175357Y-64361785D01*
X24145119Y-64392023D01*
X24084642Y-64422261D01*
X24024166Y-64422261D01*
X23963690Y-64392023D01*
X23933452Y-64361785D01*
X23903214Y-64301309D01*
X23872976Y-64180357D01*
X23872976Y-64029166D01*
X23903214Y-63908214D01*
X23933452Y-63847738D01*
X23963690Y-63817500D01*
X24024166Y-63787261D01*
X44540714Y-89005833D02*
X44843095Y-89005833D01*
X44480238Y-89187261D02*
X44691904Y-88552261D01*
X44903571Y-89187261D01*
X45115238Y-88945357D02*
X45599047Y-88945357D01*
X46793452Y-88854642D02*
X47005119Y-88854642D01*
X47095833Y-89187261D02*
X46793452Y-89187261D01*
X46793452Y-88552261D01*
X47095833Y-88552261D01*
X47367976Y-88945357D02*
X47851785Y-88945357D01*
X48093690Y-88552261D02*
X48486785Y-88552261D01*
X48275119Y-88794166D01*
X48365833Y-88794166D01*
X48426309Y-88824404D01*
X48456547Y-88854642D01*
X48486785Y-88915119D01*
X48486785Y-89066309D01*
X48456547Y-89126785D01*
X48426309Y-89157023D01*
X48365833Y-89187261D01*
X48184404Y-89187261D01*
X48123928Y-89157023D01*
X48093690Y-89126785D01*
X49333452Y-88854642D02*
X49545119Y-88854642D01*
X49635833Y-89187261D02*
X49333452Y-89187261D01*
X49333452Y-88552261D01*
X49635833Y-88552261D01*
X49907976Y-88945357D02*
X50391785Y-88945357D01*
X50149880Y-89187261D02*
X50149880Y-88703452D01*
X50633690Y-88552261D02*
X51026785Y-88552261D01*
X50815119Y-88794166D01*
X50905833Y-88794166D01*
X50966309Y-88824404D01*
X50996547Y-88854642D01*
X51026785Y-88915119D01*
X51026785Y-89066309D01*
X50996547Y-89126785D01*
X50966309Y-89157023D01*
X50905833Y-89187261D01*
X50724404Y-89187261D01*
X50663928Y-89157023D01*
X50633690Y-89126785D01*
X41698333Y-89005833D02*
X42000714Y-89005833D01*
X41637857Y-89187261D02*
X41849523Y-88552261D01*
X42061190Y-89187261D01*
X42272857Y-88945357D02*
X42756666Y-88945357D01*
X42514761Y-89187261D02*
X42514761Y-88703452D01*
X42998571Y-88552261D02*
X43391666Y-88552261D01*
X43180000Y-88794166D01*
X43270714Y-88794166D01*
X43331190Y-88824404D01*
X43361428Y-88854642D01*
X43391666Y-88915119D01*
X43391666Y-89066309D01*
X43361428Y-89126785D01*
X43331190Y-89157023D01*
X43270714Y-89187261D01*
X43089285Y-89187261D01*
X43028809Y-89157023D01*
X42998571Y-89126785D01*
X25490714Y-89005833D02*
X25793095Y-89005833D01*
X25430238Y-89187261D02*
X25641904Y-88552261D01*
X25853571Y-89187261D01*
X26065238Y-88945357D02*
X26549047Y-88945357D01*
X27743452Y-88854642D02*
X27955119Y-88854642D01*
X28045833Y-89187261D02*
X27743452Y-89187261D01*
X27743452Y-88552261D01*
X28045833Y-88552261D01*
X28317976Y-88945357D02*
X28801785Y-88945357D01*
X29073928Y-88612738D02*
X29104166Y-88582500D01*
X29164642Y-88552261D01*
X29315833Y-88552261D01*
X29376309Y-88582500D01*
X29406547Y-88612738D01*
X29436785Y-88673214D01*
X29436785Y-88733690D01*
X29406547Y-88824404D01*
X29043690Y-89187261D01*
X29436785Y-89187261D01*
X30283452Y-88854642D02*
X30495119Y-88854642D01*
X30585833Y-89187261D02*
X30283452Y-89187261D01*
X30283452Y-88552261D01*
X30585833Y-88552261D01*
X30857976Y-88945357D02*
X31341785Y-88945357D01*
X31099880Y-89187261D02*
X31099880Y-88703452D01*
X31613928Y-88612738D02*
X31644166Y-88582500D01*
X31704642Y-88552261D01*
X31855833Y-88552261D01*
X31916309Y-88582500D01*
X31946547Y-88612738D01*
X31976785Y-88673214D01*
X31976785Y-88733690D01*
X31946547Y-88824404D01*
X31583690Y-89187261D01*
X31976785Y-89187261D01*
X22648333Y-89005833D02*
X22950714Y-89005833D01*
X22587857Y-89187261D02*
X22799523Y-88552261D01*
X23011190Y-89187261D01*
X23222857Y-88945357D02*
X23706666Y-88945357D01*
X23464761Y-89187261D02*
X23464761Y-88703452D01*
X23978809Y-88612738D02*
X24009047Y-88582500D01*
X24069523Y-88552261D01*
X24220714Y-88552261D01*
X24281190Y-88582500D01*
X24311428Y-88612738D01*
X24341666Y-88673214D01*
X24341666Y-88733690D01*
X24311428Y-88824404D01*
X23948571Y-89187261D01*
X24341666Y-89187261D01*
X45810714Y-43920833D02*
X46113095Y-43920833D01*
X45750238Y-44102261D02*
X45961904Y-43467261D01*
X46173571Y-44102261D01*
X46385238Y-43860357D02*
X46869047Y-43860357D01*
X48063452Y-43769642D02*
X48275119Y-43769642D01*
X48365833Y-44102261D02*
X48063452Y-44102261D01*
X48063452Y-43467261D01*
X48365833Y-43467261D01*
X48637976Y-43860357D02*
X49121785Y-43860357D01*
X49756785Y-44102261D02*
X49393928Y-44102261D01*
X49575357Y-44102261D02*
X49575357Y-43467261D01*
X49514880Y-43557976D01*
X49454404Y-43618452D01*
X49393928Y-43648690D01*
X50603452Y-43769642D02*
X50815119Y-43769642D01*
X50905833Y-44102261D02*
X50603452Y-44102261D01*
X50603452Y-43467261D01*
X50905833Y-43467261D01*
X51177976Y-43860357D02*
X51661785Y-43860357D01*
X51419880Y-44102261D02*
X51419880Y-43618452D01*
X52296785Y-44102261D02*
X51933928Y-44102261D01*
X52115357Y-44102261D02*
X52115357Y-43467261D01*
X52054880Y-43557976D01*
X51994404Y-43618452D01*
X51933928Y-43648690D01*
X42968333Y-43920833D02*
X43270714Y-43920833D01*
X42907857Y-44102261D02*
X43119523Y-43467261D01*
X43331190Y-44102261D01*
X43542857Y-43860357D02*
X44026666Y-43860357D01*
X43784761Y-44102261D02*
X43784761Y-43618452D01*
X44661666Y-44102261D02*
X44298809Y-44102261D01*
X44480238Y-44102261D02*
X44480238Y-43467261D01*
X44419761Y-43557976D01*
X44359285Y-43618452D01*
X44298809Y-43648690D01*
X30283452Y-43769642D02*
X30495119Y-43769642D01*
X30585833Y-44102261D02*
X30283452Y-44102261D01*
X30283452Y-43467261D01*
X30585833Y-43467261D01*
X30857976Y-43860357D02*
X31341785Y-43860357D01*
X31099880Y-44102261D02*
X31099880Y-43618452D01*
X31765119Y-43467261D02*
X31825595Y-43467261D01*
X31886071Y-43497500D01*
X31916309Y-43527738D01*
X31946547Y-43588214D01*
X31976785Y-43709166D01*
X31976785Y-43860357D01*
X31946547Y-43981309D01*
X31916309Y-44041785D01*
X31886071Y-44072023D01*
X31825595Y-44102261D01*
X31765119Y-44102261D01*
X31704642Y-44072023D01*
X31674404Y-44041785D01*
X31644166Y-43981309D01*
X31613928Y-43860357D01*
X31613928Y-43709166D01*
X31644166Y-43588214D01*
X31674404Y-43527738D01*
X31704642Y-43497500D01*
X31765119Y-43467261D01*
X22648333Y-43920833D02*
X22950714Y-43920833D01*
X22587857Y-44102261D02*
X22799523Y-43467261D01*
X23011190Y-44102261D01*
X23222857Y-43860357D02*
X23706666Y-43860357D01*
X23464761Y-44102261D02*
X23464761Y-43618452D01*
X24130000Y-43467261D02*
X24190476Y-43467261D01*
X24250952Y-43497500D01*
X24281190Y-43527738D01*
X24311428Y-43588214D01*
X24341666Y-43709166D01*
X24341666Y-43860357D01*
X24311428Y-43981309D01*
X24281190Y-44041785D01*
X24250952Y-44072023D01*
X24190476Y-44102261D01*
X24130000Y-44102261D01*
X24069523Y-44072023D01*
X24039285Y-44041785D01*
X24009047Y-43981309D01*
X23978809Y-43860357D01*
X23978809Y-43709166D01*
X24009047Y-43588214D01*
X24039285Y-43527738D01*
X24069523Y-43497500D01*
X24130000Y-43467261D01*
X25490714Y-43920833D02*
X25793095Y-43920833D01*
X25430238Y-44102261D02*
X25641904Y-43467261D01*
X25853571Y-44102261D01*
X26065238Y-43860357D02*
X26549047Y-43860357D01*
X27743452Y-43769642D02*
X27955119Y-43769642D01*
X28045833Y-44102261D02*
X27743452Y-44102261D01*
X27743452Y-43467261D01*
X28045833Y-43467261D01*
X28317976Y-43860357D02*
X28801785Y-43860357D01*
X29225119Y-43467261D02*
X29285595Y-43467261D01*
X29346071Y-43497500D01*
X29376309Y-43527738D01*
X29406547Y-43588214D01*
X29436785Y-43709166D01*
X29436785Y-43860357D01*
X29406547Y-43981309D01*
X29376309Y-44041785D01*
X29346071Y-44072023D01*
X29285595Y-44102261D01*
X29225119Y-44102261D01*
X29164642Y-44072023D01*
X29134404Y-44041785D01*
X29104166Y-43981309D01*
X29073928Y-43860357D01*
X29073928Y-43709166D01*
X29104166Y-43588214D01*
X29134404Y-43527738D01*
X29164642Y-43497500D01*
X29225119Y-43467261D01*
X30283452Y-123779642D02*
X30495119Y-123779642D01*
X30585833Y-124112261D02*
X30283452Y-124112261D01*
X30283452Y-123477261D01*
X30585833Y-123477261D01*
X30857976Y-123870357D02*
X31341785Y-123870357D01*
X31613928Y-123537738D02*
X31644166Y-123507500D01*
X31704642Y-123477261D01*
X31855833Y-123477261D01*
X31916309Y-123507500D01*
X31946547Y-123537738D01*
X31976785Y-123598214D01*
X31976785Y-123658690D01*
X31946547Y-123749404D01*
X31583690Y-124112261D01*
X31976785Y-124112261D01*
X28363333Y-123295833D02*
X28665714Y-123295833D01*
X28302857Y-123477261D02*
X28514523Y-122842261D01*
X28726190Y-123477261D01*
X28937857Y-123235357D02*
X29421666Y-123235357D01*
X29179761Y-123477261D02*
X29179761Y-122993452D01*
X29693809Y-122902738D02*
X29724047Y-122872500D01*
X29784523Y-122842261D01*
X29935714Y-122842261D01*
X29996190Y-122872500D01*
X30026428Y-122902738D01*
X30056666Y-122963214D01*
X30056666Y-123023690D01*
X30026428Y-123114404D01*
X29663571Y-123477261D01*
X30056666Y-123477261D01*
X32188452Y-123144642D02*
X32400119Y-123144642D01*
X32490833Y-123477261D02*
X32188452Y-123477261D01*
X32188452Y-122842261D01*
X32490833Y-122842261D01*
X32762976Y-123235357D02*
X33246785Y-123235357D01*
X33004880Y-123477261D02*
X33004880Y-122993452D01*
X33518928Y-122902738D02*
X33549166Y-122872500D01*
X33609642Y-122842261D01*
X33760833Y-122842261D01*
X33821309Y-122872500D01*
X33851547Y-122902738D01*
X33881785Y-122963214D01*
X33881785Y-123023690D01*
X33851547Y-123114404D01*
X33488690Y-123477261D01*
X33881785Y-123477261D01*
X107118452Y-118064642D02*
X107330119Y-118064642D01*
X107420833Y-118397261D02*
X107118452Y-118397261D01*
X107118452Y-117762261D01*
X107420833Y-117762261D01*
X107692976Y-118155357D02*
X108176785Y-118155357D01*
X108418690Y-117762261D02*
X108811785Y-117762261D01*
X108600119Y-118004166D01*
X108690833Y-118004166D01*
X108751309Y-118034404D01*
X108781547Y-118064642D01*
X108811785Y-118125119D01*
X108811785Y-118276309D01*
X108781547Y-118336785D01*
X108751309Y-118367023D01*
X108690833Y-118397261D01*
X108509404Y-118397261D01*
X108448928Y-118367023D01*
X108418690Y-118336785D01*
X105198333Y-117580833D02*
X105500714Y-117580833D01*
X105137857Y-117762261D02*
X105349523Y-117127261D01*
X105561190Y-117762261D01*
X105772857Y-117520357D02*
X106256666Y-117520357D01*
X106014761Y-117762261D02*
X106014761Y-117278452D01*
X106498571Y-117127261D02*
X106891666Y-117127261D01*
X106680000Y-117369166D01*
X106770714Y-117369166D01*
X106831190Y-117399404D01*
X106861428Y-117429642D01*
X106891666Y-117490119D01*
X106891666Y-117641309D01*
X106861428Y-117701785D01*
X106831190Y-117732023D01*
X106770714Y-117762261D01*
X106589285Y-117762261D01*
X106528809Y-117732023D01*
X106498571Y-117701785D01*
X109023452Y-117429642D02*
X109235119Y-117429642D01*
X109325833Y-117762261D02*
X109023452Y-117762261D01*
X109023452Y-117127261D01*
X109325833Y-117127261D01*
X109597976Y-117520357D02*
X110081785Y-117520357D01*
X109839880Y-117762261D02*
X109839880Y-117278452D01*
X110323690Y-117127261D02*
X110716785Y-117127261D01*
X110505119Y-117369166D01*
X110595833Y-117369166D01*
X110656309Y-117399404D01*
X110686547Y-117429642D01*
X110716785Y-117490119D01*
X110716785Y-117641309D01*
X110686547Y-117701785D01*
X110656309Y-117732023D01*
X110595833Y-117762261D01*
X110414404Y-117762261D01*
X110353928Y-117732023D01*
X110323690Y-117701785D01*
X107118452Y-22179642D02*
X107330119Y-22179642D01*
X107420833Y-22512261D02*
X107118452Y-22512261D01*
X107118452Y-21877261D01*
X107420833Y-21877261D01*
X107692976Y-22270357D02*
X108176785Y-22270357D01*
X108811785Y-22512261D02*
X108448928Y-22512261D01*
X108630357Y-22512261D02*
X108630357Y-21877261D01*
X108569880Y-21967976D01*
X108509404Y-22028452D01*
X108448928Y-22058690D01*
X109008333Y-21695833D02*
X109310714Y-21695833D01*
X108947857Y-21877261D02*
X109159523Y-21242261D01*
X109371190Y-21877261D01*
X109582857Y-21635357D02*
X110066666Y-21635357D01*
X109824761Y-21877261D02*
X109824761Y-21393452D01*
X110701666Y-21877261D02*
X110338809Y-21877261D01*
X110520238Y-21877261D02*
X110520238Y-21242261D01*
X110459761Y-21332976D01*
X110399285Y-21393452D01*
X110338809Y-21423690D01*
X105213452Y-21544642D02*
X105425119Y-21544642D01*
X105515833Y-21877261D02*
X105213452Y-21877261D01*
X105213452Y-21242261D01*
X105515833Y-21242261D01*
X105787976Y-21635357D02*
X106271785Y-21635357D01*
X106029880Y-21877261D02*
X106029880Y-21393452D01*
X106906785Y-21877261D02*
X106543928Y-21877261D01*
X106725357Y-21877261D02*
X106725357Y-21242261D01*
X106664880Y-21332976D01*
X106604404Y-21393452D01*
X106543928Y-21423690D01*
X29013452Y-21544642D02*
X29225119Y-21544642D01*
X29315833Y-21877261D02*
X29013452Y-21877261D01*
X29013452Y-21242261D01*
X29315833Y-21242261D01*
X29587976Y-21635357D02*
X30071785Y-21635357D01*
X29829880Y-21877261D02*
X29829880Y-21393452D01*
X30495119Y-21242261D02*
X30555595Y-21242261D01*
X30616071Y-21272500D01*
X30646309Y-21302738D01*
X30676547Y-21363214D01*
X30706785Y-21484166D01*
X30706785Y-21635357D01*
X30676547Y-21756309D01*
X30646309Y-21816785D01*
X30616071Y-21847023D01*
X30555595Y-21877261D01*
X30495119Y-21877261D01*
X30434642Y-21847023D01*
X30404404Y-21816785D01*
X30374166Y-21756309D01*
X30343928Y-21635357D01*
X30343928Y-21484166D01*
X30374166Y-21363214D01*
X30404404Y-21302738D01*
X30434642Y-21272500D01*
X30495119Y-21242261D01*
X30918452Y-22179642D02*
X31130119Y-22179642D01*
X31220833Y-22512261D02*
X30918452Y-22512261D01*
X30918452Y-21877261D01*
X31220833Y-21877261D01*
X31492976Y-22270357D02*
X31976785Y-22270357D01*
X32400119Y-21877261D02*
X32460595Y-21877261D01*
X32521071Y-21907500D01*
X32551309Y-21937738D01*
X32581547Y-21998214D01*
X32611785Y-22119166D01*
X32611785Y-22270357D01*
X32581547Y-22391309D01*
X32551309Y-22451785D01*
X32521071Y-22482023D01*
X32460595Y-22512261D01*
X32400119Y-22512261D01*
X32339642Y-22482023D01*
X32309404Y-22451785D01*
X32279166Y-22391309D01*
X32248928Y-22270357D01*
X32248928Y-22119166D01*
X32279166Y-21998214D01*
X32309404Y-21937738D01*
X32339642Y-21907500D01*
X32400119Y-21877261D01*
X32808333Y-21695833D02*
X33110714Y-21695833D01*
X32747857Y-21877261D02*
X32959523Y-21242261D01*
X33171190Y-21877261D01*
X33382857Y-21635357D02*
X33866666Y-21635357D01*
X33624761Y-21877261D02*
X33624761Y-21393452D01*
X34290000Y-21242261D02*
X34350476Y-21242261D01*
X34410952Y-21272500D01*
X34441190Y-21302738D01*
X34471428Y-21363214D01*
X34501666Y-21484166D01*
X34501666Y-21635357D01*
X34471428Y-21756309D01*
X34441190Y-21816785D01*
X34410952Y-21847023D01*
X34350476Y-21877261D01*
X34290000Y-21877261D01*
X34229523Y-21847023D01*
X34199285Y-21816785D01*
X34169047Y-21756309D01*
X34138809Y-21635357D01*
X34138809Y-21484166D01*
X34169047Y-21363214D01*
X34199285Y-21302738D01*
X34229523Y-21272500D01*
X34290000Y-21242261D01*
D11*
X110715000Y-19545000D02*
X110995000Y-19545000D01*
X110995000Y-19545000D02*
X110995000Y-21145000D01*
X110995000Y-21145000D02*
X111915000Y-21145000D01*
X111915000Y-21145000D02*
X111915000Y-13325000D01*
X111915000Y-13325000D02*
X103795000Y-13325000D01*
X103795000Y-13325000D02*
X103795000Y-21145000D01*
X103795000Y-21145000D02*
X104715000Y-21145000D01*
X104715000Y-21145000D02*
X104715000Y-19545000D01*
X104715000Y-19545000D02*
X104995000Y-19545000D01*
X109355000Y-13325000D02*
X109355000Y-17685000D01*
X109355000Y-17685000D02*
X106355000Y-17685000D01*
X106355000Y-17685000D02*
X106355000Y-13325000D01*
X111915000Y-19545000D02*
X110995000Y-19545000D01*
X103795000Y-19545000D02*
X104715000Y-19545000D01*
X111155000Y-17185000D02*
X111155000Y-15585000D01*
X111155000Y-15585000D02*
X110155000Y-15585000D01*
X110155000Y-15585000D02*
X110155000Y-17185000D01*
X110155000Y-17185000D02*
X111155000Y-17185000D01*
X104555000Y-17185000D02*
X104555000Y-15585000D01*
X104555000Y-15585000D02*
X105555000Y-15585000D01*
X105555000Y-15585000D02*
X105555000Y-17185000D01*
X105555000Y-17185000D02*
X104555000Y-17185000D01*
X110155000Y-15585000D02*
X110155000Y-13325000D01*
X110655000Y-15585000D02*
X110655000Y-13325000D01*
X110715000Y-19545000D02*
X110715000Y-20760000D01*
X34705000Y-19545000D02*
X34985000Y-19545000D01*
X34985000Y-19545000D02*
X34985000Y-21145000D01*
X34985000Y-21145000D02*
X35905000Y-21145000D01*
X35905000Y-21145000D02*
X35905000Y-13325000D01*
X35905000Y-13325000D02*
X27785000Y-13325000D01*
X27785000Y-13325000D02*
X27785000Y-21145000D01*
X27785000Y-21145000D02*
X28705000Y-21145000D01*
X28705000Y-21145000D02*
X28705000Y-19545000D01*
X28705000Y-19545000D02*
X28985000Y-19545000D01*
X33345000Y-13325000D02*
X33345000Y-17685000D01*
X33345000Y-17685000D02*
X30345000Y-17685000D01*
X30345000Y-17685000D02*
X30345000Y-13325000D01*
X35905000Y-19545000D02*
X34985000Y-19545000D01*
X27785000Y-19545000D02*
X28705000Y-19545000D01*
X35145000Y-17185000D02*
X35145000Y-15585000D01*
X35145000Y-15585000D02*
X34145000Y-15585000D01*
X34145000Y-15585000D02*
X34145000Y-17185000D01*
X34145000Y-17185000D02*
X35145000Y-17185000D01*
X28545000Y-17185000D02*
X28545000Y-15585000D01*
X28545000Y-15585000D02*
X29545000Y-15585000D01*
X29545000Y-15585000D02*
X29545000Y-17185000D01*
X29545000Y-17185000D02*
X28545000Y-17185000D01*
X34145000Y-15585000D02*
X34145000Y-13325000D01*
X34645000Y-15585000D02*
X34645000Y-13325000D01*
X34705000Y-19545000D02*
X34705000Y-20760000D01*
X104995000Y-119520000D02*
X104995000Y-118305000D01*
X105055000Y-123480000D02*
X105055000Y-125740000D01*
X105555000Y-123480000D02*
X105555000Y-125740000D01*
X110155000Y-121880000D02*
X111155000Y-121880000D01*
X110155000Y-123480000D02*
X110155000Y-121880000D01*
X111155000Y-123480000D02*
X110155000Y-123480000D01*
X111155000Y-121880000D02*
X111155000Y-123480000D01*
X105555000Y-121880000D02*
X104555000Y-121880000D01*
X105555000Y-123480000D02*
X105555000Y-121880000D01*
X104555000Y-123480000D02*
X105555000Y-123480000D01*
X104555000Y-121880000D02*
X104555000Y-123480000D01*
X111915000Y-119520000D02*
X110995000Y-119520000D01*
X103795000Y-119520000D02*
X104715000Y-119520000D01*
X109355000Y-121380000D02*
X109355000Y-125740000D01*
X106355000Y-121380000D02*
X109355000Y-121380000D01*
X106355000Y-125740000D02*
X106355000Y-121380000D01*
X110995000Y-119520000D02*
X110715000Y-119520000D01*
X110995000Y-117920000D02*
X110995000Y-119520000D01*
X111915000Y-117920000D02*
X110995000Y-117920000D01*
X111915000Y-125740000D02*
X111915000Y-117920000D01*
X103795000Y-125740000D02*
X111915000Y-125740000D01*
X103795000Y-117920000D02*
X103795000Y-125740000D01*
X104715000Y-117920000D02*
X103795000Y-117920000D01*
X104715000Y-119520000D02*
X104715000Y-117920000D01*
X104995000Y-119520000D02*
X104715000Y-119520000D01*
X28985000Y-119520000D02*
X28705000Y-119520000D01*
X28705000Y-119520000D02*
X28705000Y-117920000D01*
X28705000Y-117920000D02*
X27785000Y-117920000D01*
X27785000Y-117920000D02*
X27785000Y-125740000D01*
X27785000Y-125740000D02*
X35905000Y-125740000D01*
X35905000Y-125740000D02*
X35905000Y-117920000D01*
X35905000Y-117920000D02*
X34985000Y-117920000D01*
X34985000Y-117920000D02*
X34985000Y-119520000D01*
X34985000Y-119520000D02*
X34705000Y-119520000D01*
X30345000Y-125740000D02*
X30345000Y-121380000D01*
X30345000Y-121380000D02*
X33345000Y-121380000D01*
X33345000Y-121380000D02*
X33345000Y-125740000D01*
X27785000Y-119520000D02*
X28705000Y-119520000D01*
X35905000Y-119520000D02*
X34985000Y-119520000D01*
X28545000Y-121880000D02*
X28545000Y-123480000D01*
X28545000Y-123480000D02*
X29545000Y-123480000D01*
X29545000Y-123480000D02*
X29545000Y-121880000D01*
X29545000Y-121880000D02*
X28545000Y-121880000D01*
X35145000Y-121880000D02*
X35145000Y-123480000D01*
X35145000Y-123480000D02*
X34145000Y-123480000D01*
X34145000Y-123480000D02*
X34145000Y-121880000D01*
X34145000Y-121880000D02*
X35145000Y-121880000D01*
X29545000Y-123480000D02*
X29545000Y-125740000D01*
X29045000Y-123480000D02*
X29045000Y-125740000D01*
X28985000Y-119520000D02*
X28985000Y-118305000D01*
X105985000Y-45720000D02*
X108645000Y-45720000D01*
X105985000Y-45720000D02*
X105985000Y-48320000D01*
X105985000Y-48320000D02*
X108645000Y-48320000D01*
X108645000Y-45720000D02*
X108645000Y-48320000D01*
X108645000Y-43120000D02*
X108645000Y-44450000D01*
X107315000Y-43120000D02*
X108645000Y-43120000D01*
X105985000Y-59055000D02*
X108645000Y-59055000D01*
X105985000Y-59055000D02*
X105985000Y-61655000D01*
X105985000Y-61655000D02*
X108645000Y-61655000D01*
X108645000Y-59055000D02*
X108645000Y-61655000D01*
X108645000Y-56455000D02*
X108645000Y-57785000D01*
X107315000Y-56455000D02*
X108645000Y-56455000D01*
X76200000Y-33020000D02*
X76200000Y-30480000D01*
X76200000Y-30480000D02*
X73530000Y-30480000D01*
X73530000Y-33020000D02*
X73530000Y-71250000D01*
X73530000Y-27810000D02*
X73530000Y-30480000D01*
X88900000Y-30480000D02*
X91570000Y-30480000D01*
X88900000Y-30480000D02*
X88900000Y-68580000D01*
X88900000Y-68580000D02*
X91570000Y-68580000D01*
X76200000Y-33020000D02*
X73530000Y-33020000D01*
X76200000Y-33020000D02*
X76200000Y-68580000D01*
X76200000Y-68580000D02*
X73530000Y-68580000D01*
X73530000Y-71250000D02*
X91570000Y-71250000D01*
X91570000Y-71250000D02*
X91570000Y-27810000D01*
X91570000Y-27810000D02*
X73530000Y-27810000D01*
X51495000Y-85030000D02*
X51495000Y-86360000D01*
X50165000Y-85030000D02*
X51495000Y-85030000D01*
X48895000Y-85030000D02*
X48895000Y-87690000D01*
X48895000Y-87690000D02*
X36135000Y-87690000D01*
X48895000Y-85030000D02*
X36135000Y-85030000D01*
X36135000Y-85030000D02*
X36135000Y-87690000D01*
X114400000Y-106585000D02*
X114070000Y-106585000D01*
X114400000Y-113125000D02*
X114400000Y-106585000D01*
X114070000Y-113125000D02*
X114400000Y-113125000D01*
X111660000Y-106585000D02*
X111990000Y-106585000D01*
X111660000Y-113125000D02*
X111660000Y-106585000D01*
X111990000Y-113125000D02*
X111660000Y-113125000D01*
X111660000Y-94075000D02*
X111990000Y-94075000D01*
X111660000Y-87535000D02*
X111660000Y-94075000D01*
X111990000Y-87535000D02*
X111660000Y-87535000D01*
X114400000Y-94075000D02*
X114070000Y-94075000D01*
X114400000Y-87535000D02*
X114400000Y-94075000D01*
X114070000Y-87535000D02*
X114400000Y-87535000D01*
X117375000Y-113125000D02*
X117705000Y-113125000D01*
X117375000Y-106585000D02*
X117375000Y-113125000D01*
X117705000Y-106585000D02*
X117375000Y-106585000D01*
X120115000Y-113125000D02*
X119785000Y-113125000D01*
X120115000Y-106585000D02*
X120115000Y-113125000D01*
X119785000Y-106585000D02*
X120115000Y-106585000D01*
X117375000Y-94075000D02*
X117705000Y-94075000D01*
X117375000Y-87535000D02*
X117375000Y-94075000D01*
X117705000Y-87535000D02*
X117375000Y-87535000D01*
X120115000Y-94075000D02*
X119785000Y-94075000D01*
X120115000Y-87535000D02*
X120115000Y-94075000D01*
X119785000Y-87535000D02*
X120115000Y-87535000D01*
X79950000Y-19050000D02*
X79950000Y-17720000D01*
X79950000Y-17720000D02*
X81280000Y-17720000D01*
X82550000Y-17720000D02*
X85150000Y-17720000D01*
X85150000Y-20380000D02*
X85150000Y-17720000D01*
X82550000Y-20380000D02*
X85150000Y-20380000D01*
X82550000Y-20380000D02*
X82550000Y-17720000D01*
X94685000Y-80705000D02*
X103315000Y-80705000D01*
X94685000Y-80823095D02*
X103315000Y-80823095D01*
X94685000Y-80941190D02*
X103315000Y-80941190D01*
X94685000Y-81059285D02*
X103315000Y-81059285D01*
X94685000Y-81177380D02*
X103315000Y-81177380D01*
X94685000Y-81295475D02*
X103315000Y-81295475D01*
X94685000Y-81413570D02*
X103315000Y-81413570D01*
X94685000Y-81531665D02*
X103315000Y-81531665D01*
X94685000Y-81649760D02*
X103315000Y-81649760D01*
X94685000Y-81767855D02*
X103315000Y-81767855D01*
X94685000Y-81885950D02*
X103315000Y-81885950D01*
X94685000Y-82004045D02*
X103315000Y-82004045D01*
X94685000Y-82122140D02*
X103315000Y-82122140D01*
X94685000Y-82240235D02*
X103315000Y-82240235D01*
X94685000Y-82358330D02*
X103315000Y-82358330D01*
X94685000Y-82476425D02*
X103315000Y-82476425D01*
X94685000Y-82594520D02*
X103315000Y-82594520D01*
X94685000Y-82712615D02*
X103315000Y-82712615D01*
X94685000Y-82830710D02*
X103315000Y-82830710D01*
X94685000Y-82948805D02*
X103315000Y-82948805D01*
X94685000Y-83066900D02*
X103315000Y-83066900D01*
X103315000Y-81555000D02*
X103665000Y-81555000D01*
X103315000Y-82275000D02*
X103665000Y-82275000D01*
X103315000Y-84095000D02*
X103725000Y-84095000D01*
X103315000Y-84815000D02*
X103725000Y-84815000D01*
X103315000Y-86635000D02*
X103725000Y-86635000D01*
X103315000Y-87355000D02*
X103725000Y-87355000D01*
X103315000Y-89175000D02*
X103725000Y-89175000D01*
X103315000Y-89895000D02*
X103725000Y-89895000D01*
X103315000Y-91715000D02*
X103725000Y-91715000D01*
X103315000Y-92435000D02*
X103725000Y-92435000D01*
X103315000Y-94255000D02*
X103725000Y-94255000D01*
X103315000Y-94975000D02*
X103725000Y-94975000D01*
X94685000Y-83185000D02*
X103315000Y-83185000D01*
X94685000Y-85725000D02*
X103315000Y-85725000D01*
X94685000Y-88265000D02*
X103315000Y-88265000D01*
X94685000Y-90805000D02*
X103315000Y-90805000D01*
X94685000Y-93345000D02*
X103315000Y-93345000D01*
X94685000Y-80585000D02*
X103315000Y-80585000D01*
X103315000Y-80585000D02*
X103315000Y-95945000D01*
X94685000Y-95945000D02*
X103315000Y-95945000D01*
X94685000Y-80585000D02*
X94685000Y-95945000D01*
X105885000Y-80585000D02*
X105885000Y-81915000D01*
X104775000Y-80585000D02*
X105885000Y-80585000D01*
X104775000Y-99635000D02*
X105885000Y-99635000D01*
X105885000Y-99635000D02*
X105885000Y-100965000D01*
X94685000Y-99635000D02*
X94685000Y-114995000D01*
X94685000Y-114995000D02*
X103315000Y-114995000D01*
X103315000Y-99635000D02*
X103315000Y-114995000D01*
X94685000Y-99635000D02*
X103315000Y-99635000D01*
X94685000Y-112395000D02*
X103315000Y-112395000D01*
X94685000Y-109855000D02*
X103315000Y-109855000D01*
X94685000Y-107315000D02*
X103315000Y-107315000D01*
X94685000Y-104775000D02*
X103315000Y-104775000D01*
X94685000Y-102235000D02*
X103315000Y-102235000D01*
X103315000Y-114025000D02*
X103725000Y-114025000D01*
X103315000Y-113305000D02*
X103725000Y-113305000D01*
X103315000Y-111485000D02*
X103725000Y-111485000D01*
X103315000Y-110765000D02*
X103725000Y-110765000D01*
X103315000Y-108945000D02*
X103725000Y-108945000D01*
X103315000Y-108225000D02*
X103725000Y-108225000D01*
X103315000Y-106405000D02*
X103725000Y-106405000D01*
X103315000Y-105685000D02*
X103725000Y-105685000D01*
X103315000Y-103865000D02*
X103725000Y-103865000D01*
X103315000Y-103145000D02*
X103725000Y-103145000D01*
X103315000Y-101325000D02*
X103665000Y-101325000D01*
X103315000Y-100605000D02*
X103665000Y-100605000D01*
X94685000Y-102116900D02*
X103315000Y-102116900D01*
X94685000Y-101998805D02*
X103315000Y-101998805D01*
X94685000Y-101880710D02*
X103315000Y-101880710D01*
X94685000Y-101762615D02*
X103315000Y-101762615D01*
X94685000Y-101644520D02*
X103315000Y-101644520D01*
X94685000Y-101526425D02*
X103315000Y-101526425D01*
X94685000Y-101408330D02*
X103315000Y-101408330D01*
X94685000Y-101290235D02*
X103315000Y-101290235D01*
X94685000Y-101172140D02*
X103315000Y-101172140D01*
X94685000Y-101054045D02*
X103315000Y-101054045D01*
X94685000Y-100935950D02*
X103315000Y-100935950D01*
X94685000Y-100817855D02*
X103315000Y-100817855D01*
X94685000Y-100699760D02*
X103315000Y-100699760D01*
X94685000Y-100581665D02*
X103315000Y-100581665D01*
X94685000Y-100463570D02*
X103315000Y-100463570D01*
X94685000Y-100345475D02*
X103315000Y-100345475D01*
X94685000Y-100227380D02*
X103315000Y-100227380D01*
X94685000Y-100109285D02*
X103315000Y-100109285D01*
X94685000Y-99991190D02*
X103315000Y-99991190D01*
X94685000Y-99873095D02*
X103315000Y-99873095D01*
X94685000Y-99755000D02*
X103315000Y-99755000D01*
X17085000Y-39945000D02*
X17085000Y-42605000D01*
X29845000Y-39945000D02*
X17085000Y-39945000D01*
X29845000Y-42605000D02*
X17085000Y-42605000D01*
X29845000Y-39945000D02*
X29845000Y-42605000D01*
X31115000Y-39945000D02*
X32445000Y-39945000D01*
X32445000Y-39945000D02*
X32445000Y-41275000D01*
X29905000Y-68005000D02*
X29905000Y-65345000D01*
X22225000Y-68005000D02*
X29905000Y-68005000D01*
X22225000Y-65345000D02*
X29905000Y-65345000D01*
X22225000Y-68005000D02*
X22225000Y-65345000D01*
X20955000Y-68005000D02*
X19625000Y-68005000D01*
X19625000Y-68005000D02*
X19625000Y-66675000D01*
X52765000Y-39945000D02*
X52765000Y-41275000D01*
X51435000Y-39945000D02*
X52765000Y-39945000D01*
X50165000Y-39945000D02*
X50165000Y-42605000D01*
X50165000Y-42605000D02*
X37405000Y-42605000D01*
X50165000Y-39945000D02*
X37405000Y-39945000D01*
X37405000Y-39945000D02*
X37405000Y-42605000D01*
X39945000Y-68005000D02*
X39945000Y-66675000D01*
X41275000Y-68005000D02*
X39945000Y-68005000D01*
X42545000Y-68005000D02*
X42545000Y-65345000D01*
X42545000Y-65345000D02*
X50225000Y-65345000D01*
X42545000Y-68005000D02*
X50225000Y-68005000D01*
X50225000Y-68005000D02*
X50225000Y-65345000D01*
X17085000Y-85030000D02*
X17085000Y-87690000D01*
X29845000Y-85030000D02*
X17085000Y-85030000D01*
X29845000Y-87690000D02*
X17085000Y-87690000D01*
X29845000Y-85030000D02*
X29845000Y-87690000D01*
X31115000Y-85030000D02*
X32445000Y-85030000D01*
X32445000Y-85030000D02*
X32445000Y-86360000D01*
X19625000Y-113090000D02*
X19625000Y-111760000D01*
X20955000Y-113090000D02*
X19625000Y-113090000D01*
X22225000Y-113090000D02*
X22225000Y-110430000D01*
X22225000Y-110430000D02*
X29905000Y-110430000D01*
X22225000Y-113090000D02*
X29905000Y-113090000D01*
X29905000Y-113090000D02*
X29905000Y-110430000D01*
X48955000Y-113090000D02*
X48955000Y-110430000D01*
X41275000Y-113090000D02*
X48955000Y-113090000D01*
X41275000Y-110430000D02*
X48955000Y-110430000D01*
X41275000Y-113090000D02*
X41275000Y-110430000D01*
X40005000Y-113090000D02*
X38675000Y-113090000D01*
X38675000Y-113090000D02*
X38675000Y-111760000D01*
X25495000Y-36295000D02*
X25495000Y-35965000D01*
X18955000Y-36295000D02*
X25495000Y-36295000D01*
X18955000Y-35965000D02*
X18955000Y-36295000D01*
X25495000Y-33555000D02*
X25495000Y-33885000D01*
X18955000Y-33555000D02*
X25495000Y-33555000D01*
X18955000Y-33885000D02*
X18955000Y-33555000D01*
X18955000Y-29440000D02*
X18955000Y-29110000D01*
X18955000Y-29110000D02*
X25495000Y-29110000D01*
X25495000Y-29110000D02*
X25495000Y-29440000D01*
X18955000Y-31520000D02*
X18955000Y-31850000D01*
X18955000Y-31850000D02*
X25495000Y-31850000D01*
X25495000Y-31850000D02*
X25495000Y-31520000D01*
X39275000Y-33885000D02*
X39275000Y-33555000D01*
X39275000Y-33555000D02*
X45815000Y-33555000D01*
X45815000Y-33555000D02*
X45815000Y-33885000D01*
X39275000Y-35965000D02*
X39275000Y-36295000D01*
X39275000Y-36295000D02*
X45815000Y-36295000D01*
X45815000Y-36295000D02*
X45815000Y-35965000D01*
X45815000Y-31850000D02*
X45815000Y-31520000D01*
X39275000Y-31850000D02*
X45815000Y-31850000D01*
X39275000Y-31520000D02*
X39275000Y-31850000D01*
X45815000Y-29110000D02*
X45815000Y-29440000D01*
X39275000Y-29110000D02*
X45815000Y-29110000D01*
X39275000Y-29440000D02*
X39275000Y-29110000D01*
X25495000Y-80110000D02*
X25495000Y-79780000D01*
X18955000Y-80110000D02*
X25495000Y-80110000D01*
X18955000Y-79780000D02*
X18955000Y-80110000D01*
X25495000Y-77370000D02*
X25495000Y-77700000D01*
X18955000Y-77370000D02*
X25495000Y-77370000D01*
X18955000Y-77700000D02*
X18955000Y-77370000D01*
X18955000Y-73255000D02*
X18955000Y-72925000D01*
X18955000Y-72925000D02*
X25495000Y-72925000D01*
X25495000Y-72925000D02*
X25495000Y-73255000D01*
X18955000Y-75335000D02*
X18955000Y-75665000D01*
X18955000Y-75665000D02*
X25495000Y-75665000D01*
X25495000Y-75665000D02*
X25495000Y-75335000D01*
X38005000Y-77700000D02*
X38005000Y-77370000D01*
X38005000Y-77370000D02*
X44545000Y-77370000D01*
X44545000Y-77370000D02*
X44545000Y-77700000D01*
X38005000Y-79780000D02*
X38005000Y-80110000D01*
X38005000Y-80110000D02*
X44545000Y-80110000D01*
X44545000Y-80110000D02*
X44545000Y-79780000D01*
X44545000Y-75665000D02*
X44545000Y-75335000D01*
X38005000Y-75665000D02*
X44545000Y-75665000D01*
X38005000Y-75335000D02*
X38005000Y-75665000D01*
X44545000Y-72925000D02*
X44545000Y-73255000D01*
X38005000Y-72925000D02*
X44545000Y-72925000D01*
X38005000Y-73255000D02*
X38005000Y-72925000D01*
D13*
X107616666Y-12152380D02*
X107616666Y-12866666D01*
X107569047Y-13009523D01*
X107473809Y-13104761D01*
X107330952Y-13152380D01*
X107235714Y-13152380D01*
X107997619Y-12152380D02*
X108664285Y-12152380D01*
X108235714Y-13152380D01*
X31606666Y-11517380D02*
X31606666Y-12231666D01*
X31559047Y-12374523D01*
X31463809Y-12469761D01*
X31320952Y-12517380D01*
X31225714Y-12517380D01*
X32511428Y-11517380D02*
X32320952Y-11517380D01*
X32225714Y-11565000D01*
X32178095Y-11612619D01*
X32082857Y-11755476D01*
X32035238Y-11945952D01*
X32035238Y-12326904D01*
X32082857Y-12422142D01*
X32130476Y-12469761D01*
X32225714Y-12517380D01*
X32416190Y-12517380D01*
X32511428Y-12469761D01*
X32559047Y-12422142D01*
X32606666Y-12326904D01*
X32606666Y-12088809D01*
X32559047Y-11993571D01*
X32511428Y-11945952D01*
X32416190Y-11898333D01*
X32225714Y-11898333D01*
X32130476Y-11945952D01*
X32082857Y-11993571D01*
X32035238Y-12088809D01*
X107521666Y-120737380D02*
X107521666Y-121451666D01*
X107474047Y-121594523D01*
X107378809Y-121689761D01*
X107235952Y-121737380D01*
X107140714Y-121737380D01*
X108045476Y-121737380D02*
X108235952Y-121737380D01*
X108331190Y-121689761D01*
X108378809Y-121642142D01*
X108474047Y-121499285D01*
X108521666Y-121308809D01*
X108521666Y-120927857D01*
X108474047Y-120832619D01*
X108426428Y-120785000D01*
X108331190Y-120737380D01*
X108140714Y-120737380D01*
X108045476Y-120785000D01*
X107997857Y-120832619D01*
X107950238Y-120927857D01*
X107950238Y-121165952D01*
X107997857Y-121261190D01*
X108045476Y-121308809D01*
X108140714Y-121356428D01*
X108331190Y-121356428D01*
X108426428Y-121308809D01*
X108474047Y-121261190D01*
X108521666Y-121165952D01*
X31511666Y-116282380D02*
X31511666Y-116996666D01*
X31464047Y-117139523D01*
X31368809Y-117234761D01*
X31225952Y-117282380D01*
X31130714Y-117282380D01*
X32130714Y-116710952D02*
X32035476Y-116663333D01*
X31987857Y-116615714D01*
X31940238Y-116520476D01*
X31940238Y-116472857D01*
X31987857Y-116377619D01*
X32035476Y-116330000D01*
X32130714Y-116282380D01*
X32321190Y-116282380D01*
X32416428Y-116330000D01*
X32464047Y-116377619D01*
X32511666Y-116472857D01*
X32511666Y-116520476D01*
X32464047Y-116615714D01*
X32416428Y-116663333D01*
X32321190Y-116710952D01*
X32130714Y-116710952D01*
X32035476Y-116758571D01*
X31987857Y-116806190D01*
X31940238Y-116901428D01*
X31940238Y-117091904D01*
X31987857Y-117187142D01*
X32035476Y-117234761D01*
X32130714Y-117282380D01*
X32321190Y-117282380D01*
X32416428Y-117234761D01*
X32464047Y-117187142D01*
X32511666Y-117091904D01*
X32511666Y-116901428D01*
X32464047Y-116806190D01*
X32416428Y-116758571D01*
X32321190Y-116710952D01*
X105981666Y-51204761D02*
X106124523Y-51252380D01*
X106362619Y-51252380D01*
X106457857Y-51204761D01*
X106505476Y-51157142D01*
X106553095Y-51061904D01*
X106553095Y-50966666D01*
X106505476Y-50871428D01*
X106457857Y-50823809D01*
X106362619Y-50776190D01*
X106172142Y-50728571D01*
X106076904Y-50680952D01*
X106029285Y-50633333D01*
X105981666Y-50538095D01*
X105981666Y-50442857D01*
X106029285Y-50347619D01*
X106076904Y-50300000D01*
X106172142Y-50252380D01*
X106410238Y-50252380D01*
X106553095Y-50300000D01*
X106886428Y-50252380D02*
X107124523Y-51252380D01*
X107315000Y-50538095D01*
X107505476Y-51252380D01*
X107743571Y-50252380D01*
X108648333Y-51252380D02*
X108076904Y-51252380D01*
X108362619Y-51252380D02*
X108362619Y-50252380D01*
X108267380Y-50395238D01*
X108172142Y-50490476D01*
X108076904Y-50538095D01*
X106576904Y-55467380D02*
X106576904Y-54467380D01*
X106815000Y-54467380D01*
X106957857Y-54515000D01*
X107053095Y-54610238D01*
X107100714Y-54705476D01*
X107148333Y-54895952D01*
X107148333Y-55038809D01*
X107100714Y-55229285D01*
X107053095Y-55324523D01*
X106957857Y-55419761D01*
X106815000Y-55467380D01*
X106576904Y-55467380D01*
X108100714Y-55467380D02*
X107529285Y-55467380D01*
X107815000Y-55467380D02*
X107815000Y-54467380D01*
X107719761Y-54610238D01*
X107624523Y-54705476D01*
X107529285Y-54753095D01*
X81835714Y-26836666D02*
X82311904Y-26836666D01*
X81740476Y-27122380D02*
X82073809Y-26122380D01*
X82407142Y-27122380D01*
X83264285Y-27122380D02*
X82692857Y-27122380D01*
X82978571Y-27122380D02*
X82978571Y-26122380D01*
X82883333Y-26265238D01*
X82788095Y-26360476D01*
X82692857Y-26408095D01*
X119888095Y-118172380D02*
X119888095Y-117172380D01*
X119888095Y-117648571D02*
X120459523Y-117648571D01*
X120459523Y-118172380D02*
X120459523Y-117172380D01*
X121364285Y-117505714D02*
X121364285Y-118172380D01*
X121126190Y-117124761D02*
X120888095Y-117839047D01*
X121507142Y-117839047D01*
X19558095Y-118172380D02*
X19558095Y-117172380D01*
X19558095Y-117648571D02*
X20129523Y-117648571D01*
X20129523Y-118172380D02*
X20129523Y-117172380D01*
X20510476Y-117172380D02*
X21129523Y-117172380D01*
X20796190Y-117553333D01*
X20939047Y-117553333D01*
X21034285Y-117600952D01*
X21081904Y-117648571D01*
X21129523Y-117743809D01*
X21129523Y-117981904D01*
X21081904Y-118077142D01*
X21034285Y-118124761D01*
X20939047Y-118172380D01*
X20653333Y-118172380D01*
X20558095Y-118124761D01*
X20510476Y-118077142D01*
X119888095Y-16572380D02*
X119888095Y-15572380D01*
X119888095Y-16048571D02*
X120459523Y-16048571D01*
X120459523Y-16572380D02*
X120459523Y-15572380D01*
X120888095Y-15667619D02*
X120935714Y-15620000D01*
X121030952Y-15572380D01*
X121269047Y-15572380D01*
X121364285Y-15620000D01*
X121411904Y-15667619D01*
X121459523Y-15762857D01*
X121459523Y-15858095D01*
X121411904Y-16000952D01*
X120840476Y-16572380D01*
X121459523Y-16572380D01*
X18288095Y-16572380D02*
X18288095Y-15572380D01*
X18288095Y-16048571D02*
X18859523Y-16048571D01*
X18859523Y-16572380D02*
X18859523Y-15572380D01*
X19859523Y-16572380D02*
X19288095Y-16572380D01*
X19573809Y-16572380D02*
X19573809Y-15572380D01*
X19478571Y-15715238D01*
X19383333Y-15810476D01*
X19288095Y-15858095D01*
X43005476Y-89622380D02*
X43005476Y-90336666D01*
X42957857Y-90479523D01*
X42862619Y-90574761D01*
X42719761Y-90622380D01*
X42624523Y-90622380D01*
X44005476Y-90622380D02*
X43434047Y-90622380D01*
X43719761Y-90622380D02*
X43719761Y-89622380D01*
X43624523Y-89765238D01*
X43529285Y-89860476D01*
X43434047Y-89908095D01*
X44862619Y-89622380D02*
X44672142Y-89622380D01*
X44576904Y-89670000D01*
X44529285Y-89717619D01*
X44434047Y-89860476D01*
X44386428Y-90050952D01*
X44386428Y-90431904D01*
X44434047Y-90527142D01*
X44481666Y-90574761D01*
X44576904Y-90622380D01*
X44767380Y-90622380D01*
X44862619Y-90574761D01*
X44910238Y-90527142D01*
X44957857Y-90431904D01*
X44957857Y-90193809D01*
X44910238Y-90098571D01*
X44862619Y-90050952D01*
X44767380Y-90003333D01*
X44576904Y-90003333D01*
X44481666Y-90050952D01*
X44434047Y-90098571D01*
X44386428Y-90193809D01*
X112387142Y-116022380D02*
X112053809Y-115546190D01*
X111815714Y-116022380D02*
X111815714Y-115022380D01*
X112196666Y-115022380D01*
X112291904Y-115070000D01*
X112339523Y-115117619D01*
X112387142Y-115212857D01*
X112387142Y-115355714D01*
X112339523Y-115450952D01*
X112291904Y-115498571D01*
X112196666Y-115546190D01*
X111815714Y-115546190D01*
X113339523Y-116022380D02*
X112768095Y-116022380D01*
X113053809Y-116022380D02*
X113053809Y-115022380D01*
X112958571Y-115165238D01*
X112863333Y-115260476D01*
X112768095Y-115308095D01*
X113720476Y-115117619D02*
X113768095Y-115070000D01*
X113863333Y-115022380D01*
X114101428Y-115022380D01*
X114196666Y-115070000D01*
X114244285Y-115117619D01*
X114291904Y-115212857D01*
X114291904Y-115308095D01*
X114244285Y-115450952D01*
X113672857Y-116022380D01*
X114291904Y-116022380D01*
X112387142Y-96972380D02*
X112053809Y-96496190D01*
X111815714Y-96972380D02*
X111815714Y-95972380D01*
X112196666Y-95972380D01*
X112291904Y-96020000D01*
X112339523Y-96067619D01*
X112387142Y-96162857D01*
X112387142Y-96305714D01*
X112339523Y-96400952D01*
X112291904Y-96448571D01*
X112196666Y-96496190D01*
X111815714Y-96496190D01*
X113339523Y-96972380D02*
X112768095Y-96972380D01*
X113053809Y-96972380D02*
X113053809Y-95972380D01*
X112958571Y-96115238D01*
X112863333Y-96210476D01*
X112768095Y-96258095D01*
X114291904Y-96972380D02*
X113720476Y-96972380D01*
X114006190Y-96972380D02*
X114006190Y-95972380D01*
X113910952Y-96115238D01*
X113815714Y-96210476D01*
X113720476Y-96258095D01*
X118102142Y-116022380D02*
X117768809Y-115546190D01*
X117530714Y-116022380D02*
X117530714Y-115022380D01*
X117911666Y-115022380D01*
X118006904Y-115070000D01*
X118054523Y-115117619D01*
X118102142Y-115212857D01*
X118102142Y-115355714D01*
X118054523Y-115450952D01*
X118006904Y-115498571D01*
X117911666Y-115546190D01*
X117530714Y-115546190D01*
X119054523Y-116022380D02*
X118483095Y-116022380D01*
X118768809Y-116022380D02*
X118768809Y-115022380D01*
X118673571Y-115165238D01*
X118578333Y-115260476D01*
X118483095Y-115308095D01*
X119673571Y-115022380D02*
X119768809Y-115022380D01*
X119864047Y-115070000D01*
X119911666Y-115117619D01*
X119959285Y-115212857D01*
X120006904Y-115403333D01*
X120006904Y-115641428D01*
X119959285Y-115831904D01*
X119911666Y-115927142D01*
X119864047Y-115974761D01*
X119768809Y-116022380D01*
X119673571Y-116022380D01*
X119578333Y-115974761D01*
X119530714Y-115927142D01*
X119483095Y-115831904D01*
X119435476Y-115641428D01*
X119435476Y-115403333D01*
X119483095Y-115212857D01*
X119530714Y-115117619D01*
X119578333Y-115070000D01*
X119673571Y-115022380D01*
X118578333Y-96972380D02*
X118245000Y-96496190D01*
X118006904Y-96972380D02*
X118006904Y-95972380D01*
X118387857Y-95972380D01*
X118483095Y-96020000D01*
X118530714Y-96067619D01*
X118578333Y-96162857D01*
X118578333Y-96305714D01*
X118530714Y-96400952D01*
X118483095Y-96448571D01*
X118387857Y-96496190D01*
X118006904Y-96496190D01*
X119054523Y-96972380D02*
X119245000Y-96972380D01*
X119340238Y-96924761D01*
X119387857Y-96877142D01*
X119483095Y-96734285D01*
X119530714Y-96543809D01*
X119530714Y-96162857D01*
X119483095Y-96067619D01*
X119435476Y-96020000D01*
X119340238Y-95972380D01*
X119149761Y-95972380D01*
X119054523Y-96020000D01*
X119006904Y-96067619D01*
X118959285Y-96162857D01*
X118959285Y-96400952D01*
X119006904Y-96496190D01*
X119054523Y-96543809D01*
X119149761Y-96591428D01*
X119340238Y-96591428D01*
X119435476Y-96543809D01*
X119483095Y-96496190D01*
X119530714Y-96400952D01*
X82216666Y-22312380D02*
X82216666Y-23026666D01*
X82169047Y-23169523D01*
X82073809Y-23264761D01*
X81930952Y-23312380D01*
X81835714Y-23312380D01*
X83216666Y-23312380D02*
X82645238Y-23312380D01*
X82930952Y-23312380D02*
X82930952Y-22312380D01*
X82835714Y-22455238D01*
X82740476Y-22550476D01*
X82645238Y-22598095D01*
X100061666Y-78597380D02*
X100061666Y-79311666D01*
X100014047Y-79454523D01*
X99918809Y-79549761D01*
X99775952Y-79597380D01*
X99680714Y-79597380D01*
X100490238Y-78692619D02*
X100537857Y-78645000D01*
X100633095Y-78597380D01*
X100871190Y-78597380D01*
X100966428Y-78645000D01*
X101014047Y-78692619D01*
X101061666Y-78787857D01*
X101061666Y-78883095D01*
X101014047Y-79025952D01*
X100442619Y-79597380D01*
X101061666Y-79597380D01*
X100061666Y-97647380D02*
X100061666Y-98361666D01*
X100014047Y-98504523D01*
X99918809Y-98599761D01*
X99775952Y-98647380D01*
X99680714Y-98647380D01*
X100442619Y-97647380D02*
X101061666Y-97647380D01*
X100728333Y-98028333D01*
X100871190Y-98028333D01*
X100966428Y-98075952D01*
X101014047Y-98123571D01*
X101061666Y-98218809D01*
X101061666Y-98456904D01*
X101014047Y-98552142D01*
X100966428Y-98599761D01*
X100871190Y-98647380D01*
X100585476Y-98647380D01*
X100490238Y-98599761D01*
X100442619Y-98552142D01*
X23955476Y-44537380D02*
X23955476Y-45251666D01*
X23907857Y-45394523D01*
X23812619Y-45489761D01*
X23669761Y-45537380D01*
X23574523Y-45537380D01*
X24955476Y-45537380D02*
X24384047Y-45537380D01*
X24669761Y-45537380D02*
X24669761Y-44537380D01*
X24574523Y-44680238D01*
X24479285Y-44775476D01*
X24384047Y-44823095D01*
X25574523Y-44537380D02*
X25669761Y-44537380D01*
X25765000Y-44585000D01*
X25812619Y-44632619D01*
X25860238Y-44727857D01*
X25907857Y-44918333D01*
X25907857Y-45156428D01*
X25860238Y-45346904D01*
X25812619Y-45442142D01*
X25765000Y-45489761D01*
X25669761Y-45537380D01*
X25574523Y-45537380D01*
X25479285Y-45489761D01*
X25431666Y-45442142D01*
X25384047Y-45346904D01*
X25336428Y-45156428D01*
X25336428Y-44918333D01*
X25384047Y-44727857D01*
X25431666Y-44632619D01*
X25479285Y-44585000D01*
X25574523Y-44537380D01*
X23955476Y-68667380D02*
X23955476Y-69381666D01*
X23907857Y-69524523D01*
X23812619Y-69619761D01*
X23669761Y-69667380D01*
X23574523Y-69667380D01*
X24955476Y-69667380D02*
X24384047Y-69667380D01*
X24669761Y-69667380D02*
X24669761Y-68667380D01*
X24574523Y-68810238D01*
X24479285Y-68905476D01*
X24384047Y-68953095D01*
X25907857Y-69667380D02*
X25336428Y-69667380D01*
X25622142Y-69667380D02*
X25622142Y-68667380D01*
X25526904Y-68810238D01*
X25431666Y-68905476D01*
X25336428Y-68953095D01*
X44275476Y-44537380D02*
X44275476Y-45251666D01*
X44227857Y-45394523D01*
X44132619Y-45489761D01*
X43989761Y-45537380D01*
X43894523Y-45537380D01*
X45275476Y-45537380D02*
X44704047Y-45537380D01*
X44989761Y-45537380D02*
X44989761Y-44537380D01*
X44894523Y-44680238D01*
X44799285Y-44775476D01*
X44704047Y-44823095D01*
X45656428Y-44632619D02*
X45704047Y-44585000D01*
X45799285Y-44537380D01*
X46037380Y-44537380D01*
X46132619Y-44585000D01*
X46180238Y-44632619D01*
X46227857Y-44727857D01*
X46227857Y-44823095D01*
X46180238Y-44965952D01*
X45608809Y-45537380D01*
X46227857Y-45537380D01*
X44275476Y-68667380D02*
X44275476Y-69381666D01*
X44227857Y-69524523D01*
X44132619Y-69619761D01*
X43989761Y-69667380D01*
X43894523Y-69667380D01*
X45275476Y-69667380D02*
X44704047Y-69667380D01*
X44989761Y-69667380D02*
X44989761Y-68667380D01*
X44894523Y-68810238D01*
X44799285Y-68905476D01*
X44704047Y-68953095D01*
X45608809Y-68667380D02*
X46227857Y-68667380D01*
X45894523Y-69048333D01*
X46037380Y-69048333D01*
X46132619Y-69095952D01*
X46180238Y-69143571D01*
X46227857Y-69238809D01*
X46227857Y-69476904D01*
X46180238Y-69572142D01*
X46132619Y-69619761D01*
X46037380Y-69667380D01*
X45751666Y-69667380D01*
X45656428Y-69619761D01*
X45608809Y-69572142D01*
X23955476Y-89622380D02*
X23955476Y-90336666D01*
X23907857Y-90479523D01*
X23812619Y-90574761D01*
X23669761Y-90622380D01*
X23574523Y-90622380D01*
X24955476Y-90622380D02*
X24384047Y-90622380D01*
X24669761Y-90622380D02*
X24669761Y-89622380D01*
X24574523Y-89765238D01*
X24479285Y-89860476D01*
X24384047Y-89908095D01*
X25812619Y-89955714D02*
X25812619Y-90622380D01*
X25574523Y-89574761D02*
X25336428Y-90289047D01*
X25955476Y-90289047D01*
X23955476Y-113752380D02*
X23955476Y-114466666D01*
X23907857Y-114609523D01*
X23812619Y-114704761D01*
X23669761Y-114752380D01*
X23574523Y-114752380D01*
X24955476Y-114752380D02*
X24384047Y-114752380D01*
X24669761Y-114752380D02*
X24669761Y-113752380D01*
X24574523Y-113895238D01*
X24479285Y-113990476D01*
X24384047Y-114038095D01*
X25860238Y-113752380D02*
X25384047Y-113752380D01*
X25336428Y-114228571D01*
X25384047Y-114180952D01*
X25479285Y-114133333D01*
X25717380Y-114133333D01*
X25812619Y-114180952D01*
X25860238Y-114228571D01*
X25907857Y-114323809D01*
X25907857Y-114561904D01*
X25860238Y-114657142D01*
X25812619Y-114704761D01*
X25717380Y-114752380D01*
X25479285Y-114752380D01*
X25384047Y-114704761D01*
X25336428Y-114657142D01*
X43005476Y-113752380D02*
X43005476Y-114466666D01*
X42957857Y-114609523D01*
X42862619Y-114704761D01*
X42719761Y-114752380D01*
X42624523Y-114752380D01*
X44005476Y-114752380D02*
X43434047Y-114752380D01*
X43719761Y-114752380D02*
X43719761Y-113752380D01*
X43624523Y-113895238D01*
X43529285Y-113990476D01*
X43434047Y-114038095D01*
X44338809Y-113752380D02*
X45005476Y-113752380D01*
X44576904Y-114752380D01*
X29043333Y-35377380D02*
X28710000Y-34901190D01*
X28471904Y-35377380D02*
X28471904Y-34377380D01*
X28852857Y-34377380D01*
X28948095Y-34425000D01*
X28995714Y-34472619D01*
X29043333Y-34567857D01*
X29043333Y-34710714D01*
X28995714Y-34805952D01*
X28948095Y-34853571D01*
X28852857Y-34901190D01*
X28471904Y-34901190D01*
X29995714Y-35377380D02*
X29424285Y-35377380D01*
X29710000Y-35377380D02*
X29710000Y-34377380D01*
X29614761Y-34520238D01*
X29519523Y-34615476D01*
X29424285Y-34663095D01*
X29043333Y-30932380D02*
X28710000Y-30456190D01*
X28471904Y-30932380D02*
X28471904Y-29932380D01*
X28852857Y-29932380D01*
X28948095Y-29980000D01*
X28995714Y-30027619D01*
X29043333Y-30122857D01*
X29043333Y-30265714D01*
X28995714Y-30360952D01*
X28948095Y-30408571D01*
X28852857Y-30456190D01*
X28471904Y-30456190D01*
X29424285Y-30027619D02*
X29471904Y-29980000D01*
X29567142Y-29932380D01*
X29805238Y-29932380D01*
X29900476Y-29980000D01*
X29948095Y-30027619D01*
X29995714Y-30122857D01*
X29995714Y-30218095D01*
X29948095Y-30360952D01*
X29376666Y-30932380D01*
X29995714Y-30932380D01*
X49363333Y-35377380D02*
X49030000Y-34901190D01*
X48791904Y-35377380D02*
X48791904Y-34377380D01*
X49172857Y-34377380D01*
X49268095Y-34425000D01*
X49315714Y-34472619D01*
X49363333Y-34567857D01*
X49363333Y-34710714D01*
X49315714Y-34805952D01*
X49268095Y-34853571D01*
X49172857Y-34901190D01*
X48791904Y-34901190D01*
X49696666Y-34377380D02*
X50315714Y-34377380D01*
X49982380Y-34758333D01*
X50125238Y-34758333D01*
X50220476Y-34805952D01*
X50268095Y-34853571D01*
X50315714Y-34948809D01*
X50315714Y-35186904D01*
X50268095Y-35282142D01*
X50220476Y-35329761D01*
X50125238Y-35377380D01*
X49839523Y-35377380D01*
X49744285Y-35329761D01*
X49696666Y-35282142D01*
X49363333Y-30932380D02*
X49030000Y-30456190D01*
X48791904Y-30932380D02*
X48791904Y-29932380D01*
X49172857Y-29932380D01*
X49268095Y-29980000D01*
X49315714Y-30027619D01*
X49363333Y-30122857D01*
X49363333Y-30265714D01*
X49315714Y-30360952D01*
X49268095Y-30408571D01*
X49172857Y-30456190D01*
X48791904Y-30456190D01*
X50220476Y-30265714D02*
X50220476Y-30932380D01*
X49982380Y-29884761D02*
X49744285Y-30599047D01*
X50363333Y-30599047D01*
X29043333Y-79192380D02*
X28710000Y-78716190D01*
X28471904Y-79192380D02*
X28471904Y-78192380D01*
X28852857Y-78192380D01*
X28948095Y-78240000D01*
X28995714Y-78287619D01*
X29043333Y-78382857D01*
X29043333Y-78525714D01*
X28995714Y-78620952D01*
X28948095Y-78668571D01*
X28852857Y-78716190D01*
X28471904Y-78716190D01*
X29948095Y-78192380D02*
X29471904Y-78192380D01*
X29424285Y-78668571D01*
X29471904Y-78620952D01*
X29567142Y-78573333D01*
X29805238Y-78573333D01*
X29900476Y-78620952D01*
X29948095Y-78668571D01*
X29995714Y-78763809D01*
X29995714Y-79001904D01*
X29948095Y-79097142D01*
X29900476Y-79144761D01*
X29805238Y-79192380D01*
X29567142Y-79192380D01*
X29471904Y-79144761D01*
X29424285Y-79097142D01*
X29043333Y-74747380D02*
X28710000Y-74271190D01*
X28471904Y-74747380D02*
X28471904Y-73747380D01*
X28852857Y-73747380D01*
X28948095Y-73795000D01*
X28995714Y-73842619D01*
X29043333Y-73937857D01*
X29043333Y-74080714D01*
X28995714Y-74175952D01*
X28948095Y-74223571D01*
X28852857Y-74271190D01*
X28471904Y-74271190D01*
X29900476Y-73747380D02*
X29710000Y-73747380D01*
X29614761Y-73795000D01*
X29567142Y-73842619D01*
X29471904Y-73985476D01*
X29424285Y-74175952D01*
X29424285Y-74556904D01*
X29471904Y-74652142D01*
X29519523Y-74699761D01*
X29614761Y-74747380D01*
X29805238Y-74747380D01*
X29900476Y-74699761D01*
X29948095Y-74652142D01*
X29995714Y-74556904D01*
X29995714Y-74318809D01*
X29948095Y-74223571D01*
X29900476Y-74175952D01*
X29805238Y-74128333D01*
X29614761Y-74128333D01*
X29519523Y-74175952D01*
X29471904Y-74223571D01*
X29424285Y-74318809D01*
X48093333Y-79192380D02*
X47760000Y-78716190D01*
X47521904Y-79192380D02*
X47521904Y-78192380D01*
X47902857Y-78192380D01*
X47998095Y-78240000D01*
X48045714Y-78287619D01*
X48093333Y-78382857D01*
X48093333Y-78525714D01*
X48045714Y-78620952D01*
X47998095Y-78668571D01*
X47902857Y-78716190D01*
X47521904Y-78716190D01*
X48426666Y-78192380D02*
X49093333Y-78192380D01*
X48664761Y-79192380D01*
X48093333Y-74747380D02*
X47760000Y-74271190D01*
X47521904Y-74747380D02*
X47521904Y-73747380D01*
X47902857Y-73747380D01*
X47998095Y-73795000D01*
X48045714Y-73842619D01*
X48093333Y-73937857D01*
X48093333Y-74080714D01*
X48045714Y-74175952D01*
X47998095Y-74223571D01*
X47902857Y-74271190D01*
X47521904Y-74271190D01*
X48664761Y-74175952D02*
X48569523Y-74128333D01*
X48521904Y-74080714D01*
X48474285Y-73985476D01*
X48474285Y-73937857D01*
X48521904Y-73842619D01*
X48569523Y-73795000D01*
X48664761Y-73747380D01*
X48855238Y-73747380D01*
X48950476Y-73795000D01*
X48998095Y-73842619D01*
X49045714Y-73937857D01*
X49045714Y-73985476D01*
X48998095Y-74080714D01*
X48950476Y-74128333D01*
X48855238Y-74175952D01*
X48664761Y-74175952D01*
X48569523Y-74223571D01*
X48521904Y-74271190D01*
X48474285Y-74366428D01*
X48474285Y-74556904D01*
X48521904Y-74652142D01*
X48569523Y-74699761D01*
X48664761Y-74747380D01*
X48855238Y-74747380D01*
X48950476Y-74699761D01*
X48998095Y-74652142D01*
X49045714Y-74556904D01*
X49045714Y-74366428D01*
X48998095Y-74271190D01*
X48950476Y-74223571D01*
X48855238Y-74175952D01*
%LPC*%
D14*
X105855000Y-19685000D03*
X107855000Y-19685000D03*
G36*
G01*
X110455000Y-19059999D02*
X110455000Y-20310001D01*
G75*
G02*
X110205001Y-20560000I-249999J0D01*
G01*
X109504999Y-20560000D01*
G75*
G02*
X109255000Y-20310001I0J249999D01*
G01*
X109255000Y-19059999D01*
G75*
G02*
X109504999Y-18810000I249999J0D01*
G01*
X110205001Y-18810000D01*
G75*
G02*
X110455000Y-19059999I0J-249999D01*
G01*
G37*
X29845000Y-19685000D03*
X31845000Y-19685000D03*
G36*
G01*
X34445000Y-19059999D02*
X34445000Y-20310001D01*
G75*
G02*
X34195001Y-20560000I-249999J0D01*
G01*
X33494999Y-20560000D01*
G75*
G02*
X33245000Y-20310001I0J249999D01*
G01*
X33245000Y-19059999D01*
G75*
G02*
X33494999Y-18810000I249999J0D01*
G01*
X34195001Y-18810000D01*
G75*
G02*
X34445000Y-19059999I0J-249999D01*
G01*
G37*
G36*
G01*
X105255000Y-120005001D02*
X105255000Y-118754999D01*
G75*
G02*
X105504999Y-118505000I249999J0D01*
G01*
X106205001Y-118505000D01*
G75*
G02*
X106455000Y-118754999I0J-249999D01*
G01*
X106455000Y-120005001D01*
G75*
G02*
X106205001Y-120255000I-249999J0D01*
G01*
X105504999Y-120255000D01*
G75*
G02*
X105255000Y-120005001I0J249999D01*
G01*
G37*
X107855000Y-119380000D03*
X109855000Y-119380000D03*
X33845000Y-119380000D03*
X31845000Y-119380000D03*
G36*
G01*
X29245000Y-120005001D02*
X29245000Y-118754999D01*
G75*
G02*
X29494999Y-118505000I249999J0D01*
G01*
X30195001Y-118505000D01*
G75*
G02*
X30445000Y-118754999I0J-249999D01*
G01*
X30445000Y-120005001D01*
G75*
G02*
X30195001Y-120255000I-249999J0D01*
G01*
X29494999Y-120255000D01*
G75*
G02*
X29245000Y-120005001I0J249999D01*
G01*
G37*
D15*
X107315000Y-46990000D03*
D16*
X107315000Y-44450000D03*
D15*
X107315000Y-60325000D03*
D16*
X107315000Y-57785000D03*
D17*
X90170000Y-67310000D03*
X74930000Y-67310000D03*
X90170000Y-31750000D03*
X74930000Y-64770000D03*
X90170000Y-34290000D03*
X74930000Y-62230000D03*
X90170000Y-36830000D03*
X74930000Y-59690000D03*
X90170000Y-39370000D03*
X74930000Y-57150000D03*
X90170000Y-41910000D03*
X74930000Y-54610000D03*
X90170000Y-44450000D03*
X74930000Y-52070000D03*
X90170000Y-46990000D03*
X74930000Y-49530000D03*
X90170000Y-49530000D03*
X74930000Y-46990000D03*
X90170000Y-52070000D03*
X74930000Y-44450000D03*
X90170000Y-54610000D03*
X74930000Y-41910000D03*
X90170000Y-57150000D03*
X74930000Y-39370000D03*
X90170000Y-59690000D03*
X74930000Y-36830000D03*
X90170000Y-62230000D03*
X74930000Y-34290000D03*
X90170000Y-64770000D03*
D18*
X74930000Y-31750000D03*
D19*
X120650000Y-120650000D03*
X20320000Y-120650000D03*
X120650000Y-19050000D03*
X19050000Y-19050000D03*
D16*
X50165000Y-86360000D03*
D15*
X47625000Y-86360000D03*
X45085000Y-86360000D03*
X42545000Y-86360000D03*
X40005000Y-86360000D03*
X37465000Y-86360000D03*
D20*
X113030000Y-113665000D03*
D17*
X113030000Y-106045000D03*
D20*
X113030000Y-86995000D03*
D17*
X113030000Y-94615000D03*
D20*
X118745000Y-106045000D03*
D17*
X118745000Y-113665000D03*
D20*
X118745000Y-86995000D03*
D17*
X118745000Y-94615000D03*
D16*
X81280000Y-19050000D03*
D15*
X83820000Y-19050000D03*
X104775000Y-94615000D03*
X104775000Y-92075000D03*
X104775000Y-89535000D03*
X104775000Y-86995000D03*
X104775000Y-84455000D03*
D16*
X104775000Y-81915000D03*
X104775000Y-100965000D03*
D15*
X104775000Y-103505000D03*
X104775000Y-106045000D03*
X104775000Y-108585000D03*
X104775000Y-111125000D03*
X104775000Y-113665000D03*
X18415000Y-41275000D03*
X20955000Y-41275000D03*
X23495000Y-41275000D03*
X26035000Y-41275000D03*
X28575000Y-41275000D03*
D16*
X31115000Y-41275000D03*
D15*
X28575000Y-66675000D03*
X26035000Y-66675000D03*
X23495000Y-66675000D03*
D16*
X20955000Y-66675000D03*
X51435000Y-41275000D03*
D15*
X48895000Y-41275000D03*
X46355000Y-41275000D03*
X43815000Y-41275000D03*
X41275000Y-41275000D03*
X38735000Y-41275000D03*
D16*
X41275000Y-66675000D03*
D15*
X43815000Y-66675000D03*
X46355000Y-66675000D03*
X48895000Y-66675000D03*
X18415000Y-86360000D03*
X20955000Y-86360000D03*
X23495000Y-86360000D03*
X26035000Y-86360000D03*
X28575000Y-86360000D03*
D16*
X31115000Y-86360000D03*
X20955000Y-111760000D03*
D15*
X23495000Y-111760000D03*
X26035000Y-111760000D03*
X28575000Y-111760000D03*
X47625000Y-111760000D03*
X45085000Y-111760000D03*
X42545000Y-111760000D03*
D16*
X40005000Y-111760000D03*
D20*
X18415000Y-34925000D03*
D17*
X26035000Y-34925000D03*
X26035000Y-30480000D03*
D20*
X18415000Y-30480000D03*
D17*
X46355000Y-34925000D03*
D20*
X38735000Y-34925000D03*
X38735000Y-30480000D03*
D17*
X46355000Y-30480000D03*
D20*
X18415000Y-78740000D03*
D17*
X26035000Y-78740000D03*
X26035000Y-74295000D03*
D20*
X18415000Y-74295000D03*
D17*
X45085000Y-78740000D03*
D20*
X37465000Y-78740000D03*
X37465000Y-74295000D03*
D17*
X45085000Y-74295000D03*
M02*
