G04 #@! TF.GenerationSoftware,KiCad,Pcbnew,(5.1.9)-1*
G04 #@! TF.CreationDate,2022-02-22T20:54:14-06:00*
G04 #@! TF.ProjectId,V2_load_cell,56325f6c-6f61-4645-9f63-656c6c2e6b69,rev?*
G04 #@! TF.SameCoordinates,Original*
G04 #@! TF.FileFunction,Legend,Top*
G04 #@! TF.FilePolarity,Positive*
%FSLAX46Y46*%
G04 Gerber Fmt 4.6, Leading zero omitted, Abs format (unit mm)*
G04 Created by KiCad (PCBNEW (5.1.9)-1) date 2022-02-22 20:54:14*
%MOMM*%
%LPD*%
G01*
G04 APERTURE LIST*
%ADD10C,0.127000*%
%ADD11C,0.120000*%
%ADD12C,0.203200*%
%ADD13C,0.150000*%
%ADD14O,1.200000X1.750000*%
%ADD15O,1.700000X1.700000*%
%ADD16R,1.700000X1.700000*%
%ADD17O,1.600000X1.600000*%
%ADD18R,1.600000X1.600000*%
%ADD19C,3.200000*%
%ADD20C,1.600000*%
G04 APERTURE END LIST*
D10*
X44374404Y-109507261D02*
X44374404Y-108872261D01*
X44525595Y-108872261D01*
X44616309Y-108902500D01*
X44676785Y-108962976D01*
X44707023Y-109023452D01*
X44737261Y-109144404D01*
X44737261Y-109235119D01*
X44707023Y-109356071D01*
X44676785Y-109416547D01*
X44616309Y-109477023D01*
X44525595Y-109507261D01*
X44374404Y-109507261D01*
X44918690Y-108872261D02*
X45281547Y-108872261D01*
X45100119Y-109507261D02*
X45100119Y-108872261D01*
X45432738Y-108872261D02*
X45825833Y-108872261D01*
X45614166Y-109114166D01*
X45704880Y-109114166D01*
X45765357Y-109144404D01*
X45795595Y-109174642D01*
X45825833Y-109235119D01*
X45825833Y-109386309D01*
X45795595Y-109446785D01*
X45765357Y-109477023D01*
X45704880Y-109507261D01*
X45523452Y-109507261D01*
X45462976Y-109477023D01*
X45432738Y-109446785D01*
X39158333Y-108872261D02*
X39370000Y-109507261D01*
X39581666Y-108872261D01*
X40156190Y-109446785D02*
X40125952Y-109477023D01*
X40035238Y-109507261D01*
X39974761Y-109507261D01*
X39884047Y-109477023D01*
X39823571Y-109416547D01*
X39793333Y-109356071D01*
X39763095Y-109235119D01*
X39763095Y-109144404D01*
X39793333Y-109023452D01*
X39823571Y-108962976D01*
X39884047Y-108902500D01*
X39974761Y-108872261D01*
X40035238Y-108872261D01*
X40125952Y-108902500D01*
X40156190Y-108932738D01*
X40791190Y-109446785D02*
X40760952Y-109477023D01*
X40670238Y-109507261D01*
X40609761Y-109507261D01*
X40519047Y-109477023D01*
X40458571Y-109416547D01*
X40428333Y-109356071D01*
X40398095Y-109235119D01*
X40398095Y-109144404D01*
X40428333Y-109023452D01*
X40458571Y-108962976D01*
X40519047Y-108902500D01*
X40609761Y-108872261D01*
X40670238Y-108872261D01*
X40760952Y-108902500D01*
X40791190Y-108932738D01*
X47141190Y-108902500D02*
X47080714Y-108872261D01*
X46990000Y-108872261D01*
X46899285Y-108902500D01*
X46838809Y-108962976D01*
X46808571Y-109023452D01*
X46778333Y-109144404D01*
X46778333Y-109235119D01*
X46808571Y-109356071D01*
X46838809Y-109416547D01*
X46899285Y-109477023D01*
X46990000Y-109507261D01*
X47050476Y-109507261D01*
X47141190Y-109477023D01*
X47171428Y-109446785D01*
X47171428Y-109235119D01*
X47050476Y-109235119D01*
X47443571Y-109507261D02*
X47443571Y-108872261D01*
X47806428Y-109507261D01*
X47806428Y-108872261D01*
X48108809Y-109507261D02*
X48108809Y-108872261D01*
X48260000Y-108872261D01*
X48350714Y-108902500D01*
X48411190Y-108962976D01*
X48441428Y-109023452D01*
X48471666Y-109144404D01*
X48471666Y-109235119D01*
X48441428Y-109356071D01*
X48411190Y-109416547D01*
X48350714Y-109477023D01*
X48260000Y-109507261D01*
X48108809Y-109507261D01*
X41426190Y-109477023D02*
X41516904Y-109507261D01*
X41668095Y-109507261D01*
X41728571Y-109477023D01*
X41758809Y-109446785D01*
X41789047Y-109386309D01*
X41789047Y-109325833D01*
X41758809Y-109265357D01*
X41728571Y-109235119D01*
X41668095Y-109204880D01*
X41547142Y-109174642D01*
X41486666Y-109144404D01*
X41456428Y-109114166D01*
X41426190Y-109053690D01*
X41426190Y-108993214D01*
X41456428Y-108932738D01*
X41486666Y-108902500D01*
X41547142Y-108872261D01*
X41698333Y-108872261D01*
X41789047Y-108902500D01*
X42424047Y-109446785D02*
X42393809Y-109477023D01*
X42303095Y-109507261D01*
X42242619Y-109507261D01*
X42151904Y-109477023D01*
X42091428Y-109416547D01*
X42061190Y-109356071D01*
X42030952Y-109235119D01*
X42030952Y-109144404D01*
X42061190Y-109023452D01*
X42091428Y-108962976D01*
X42151904Y-108902500D01*
X42242619Y-108872261D01*
X42303095Y-108872261D01*
X42393809Y-108902500D01*
X42424047Y-108932738D01*
X42696190Y-109507261D02*
X42696190Y-108872261D01*
X43059047Y-109507261D02*
X42786904Y-109144404D01*
X43059047Y-108872261D02*
X42696190Y-109235119D01*
X43270714Y-108872261D02*
X43663809Y-108872261D01*
X43452142Y-109114166D01*
X43542857Y-109114166D01*
X43603333Y-109144404D01*
X43633571Y-109174642D01*
X43663809Y-109235119D01*
X43663809Y-109386309D01*
X43633571Y-109446785D01*
X43603333Y-109477023D01*
X43542857Y-109507261D01*
X43361428Y-109507261D01*
X43300952Y-109477023D01*
X43270714Y-109446785D01*
X25324404Y-109507261D02*
X25324404Y-108872261D01*
X25475595Y-108872261D01*
X25566309Y-108902500D01*
X25626785Y-108962976D01*
X25657023Y-109023452D01*
X25687261Y-109144404D01*
X25687261Y-109235119D01*
X25657023Y-109356071D01*
X25626785Y-109416547D01*
X25566309Y-109477023D01*
X25475595Y-109507261D01*
X25324404Y-109507261D01*
X25868690Y-108872261D02*
X26231547Y-108872261D01*
X26050119Y-109507261D02*
X26050119Y-108872261D01*
X26412976Y-108932738D02*
X26443214Y-108902500D01*
X26503690Y-108872261D01*
X26654880Y-108872261D01*
X26715357Y-108902500D01*
X26745595Y-108932738D01*
X26775833Y-108993214D01*
X26775833Y-109053690D01*
X26745595Y-109144404D01*
X26382738Y-109507261D01*
X26775833Y-109507261D01*
X20108333Y-108872261D02*
X20320000Y-109507261D01*
X20531666Y-108872261D01*
X21106190Y-109446785D02*
X21075952Y-109477023D01*
X20985238Y-109507261D01*
X20924761Y-109507261D01*
X20834047Y-109477023D01*
X20773571Y-109416547D01*
X20743333Y-109356071D01*
X20713095Y-109235119D01*
X20713095Y-109144404D01*
X20743333Y-109023452D01*
X20773571Y-108962976D01*
X20834047Y-108902500D01*
X20924761Y-108872261D01*
X20985238Y-108872261D01*
X21075952Y-108902500D01*
X21106190Y-108932738D01*
X21741190Y-109446785D02*
X21710952Y-109477023D01*
X21620238Y-109507261D01*
X21559761Y-109507261D01*
X21469047Y-109477023D01*
X21408571Y-109416547D01*
X21378333Y-109356071D01*
X21348095Y-109235119D01*
X21348095Y-109144404D01*
X21378333Y-109023452D01*
X21408571Y-108962976D01*
X21469047Y-108902500D01*
X21559761Y-108872261D01*
X21620238Y-108872261D01*
X21710952Y-108902500D01*
X21741190Y-108932738D01*
X28091190Y-108902500D02*
X28030714Y-108872261D01*
X27940000Y-108872261D01*
X27849285Y-108902500D01*
X27788809Y-108962976D01*
X27758571Y-109023452D01*
X27728333Y-109144404D01*
X27728333Y-109235119D01*
X27758571Y-109356071D01*
X27788809Y-109416547D01*
X27849285Y-109477023D01*
X27940000Y-109507261D01*
X28000476Y-109507261D01*
X28091190Y-109477023D01*
X28121428Y-109446785D01*
X28121428Y-109235119D01*
X28000476Y-109235119D01*
X28393571Y-109507261D02*
X28393571Y-108872261D01*
X28756428Y-109507261D01*
X28756428Y-108872261D01*
X29058809Y-109507261D02*
X29058809Y-108872261D01*
X29210000Y-108872261D01*
X29300714Y-108902500D01*
X29361190Y-108962976D01*
X29391428Y-109023452D01*
X29421666Y-109144404D01*
X29421666Y-109235119D01*
X29391428Y-109356071D01*
X29361190Y-109416547D01*
X29300714Y-109477023D01*
X29210000Y-109507261D01*
X29058809Y-109507261D01*
X22376190Y-109477023D02*
X22466904Y-109507261D01*
X22618095Y-109507261D01*
X22678571Y-109477023D01*
X22708809Y-109446785D01*
X22739047Y-109386309D01*
X22739047Y-109325833D01*
X22708809Y-109265357D01*
X22678571Y-109235119D01*
X22618095Y-109204880D01*
X22497142Y-109174642D01*
X22436666Y-109144404D01*
X22406428Y-109114166D01*
X22376190Y-109053690D01*
X22376190Y-108993214D01*
X22406428Y-108932738D01*
X22436666Y-108902500D01*
X22497142Y-108872261D01*
X22648333Y-108872261D01*
X22739047Y-108902500D01*
X23374047Y-109446785D02*
X23343809Y-109477023D01*
X23253095Y-109507261D01*
X23192619Y-109507261D01*
X23101904Y-109477023D01*
X23041428Y-109416547D01*
X23011190Y-109356071D01*
X22980952Y-109235119D01*
X22980952Y-109144404D01*
X23011190Y-109023452D01*
X23041428Y-108962976D01*
X23101904Y-108902500D01*
X23192619Y-108872261D01*
X23253095Y-108872261D01*
X23343809Y-108902500D01*
X23374047Y-108932738D01*
X23646190Y-109507261D02*
X23646190Y-108872261D01*
X24009047Y-109507261D02*
X23736904Y-109144404D01*
X24009047Y-108872261D02*
X23646190Y-109235119D01*
X24250952Y-108932738D02*
X24281190Y-108902500D01*
X24341666Y-108872261D01*
X24492857Y-108872261D01*
X24553333Y-108902500D01*
X24583571Y-108932738D01*
X24613809Y-108993214D01*
X24613809Y-109053690D01*
X24583571Y-109144404D01*
X24220714Y-109507261D01*
X24613809Y-109507261D01*
X45644404Y-64422261D02*
X45644404Y-63787261D01*
X45795595Y-63787261D01*
X45886309Y-63817500D01*
X45946785Y-63877976D01*
X45977023Y-63938452D01*
X46007261Y-64059404D01*
X46007261Y-64150119D01*
X45977023Y-64271071D01*
X45946785Y-64331547D01*
X45886309Y-64392023D01*
X45795595Y-64422261D01*
X45644404Y-64422261D01*
X46188690Y-63787261D02*
X46551547Y-63787261D01*
X46370119Y-64422261D02*
X46370119Y-63787261D01*
X47095833Y-64422261D02*
X46732976Y-64422261D01*
X46914404Y-64422261D02*
X46914404Y-63787261D01*
X46853928Y-63877976D01*
X46793452Y-63938452D01*
X46732976Y-63968690D01*
X40428333Y-63787261D02*
X40640000Y-64422261D01*
X40851666Y-63787261D01*
X41426190Y-64361785D02*
X41395952Y-64392023D01*
X41305238Y-64422261D01*
X41244761Y-64422261D01*
X41154047Y-64392023D01*
X41093571Y-64331547D01*
X41063333Y-64271071D01*
X41033095Y-64150119D01*
X41033095Y-64059404D01*
X41063333Y-63938452D01*
X41093571Y-63877976D01*
X41154047Y-63817500D01*
X41244761Y-63787261D01*
X41305238Y-63787261D01*
X41395952Y-63817500D01*
X41426190Y-63847738D01*
X42061190Y-64361785D02*
X42030952Y-64392023D01*
X41940238Y-64422261D01*
X41879761Y-64422261D01*
X41789047Y-64392023D01*
X41728571Y-64331547D01*
X41698333Y-64271071D01*
X41668095Y-64150119D01*
X41668095Y-64059404D01*
X41698333Y-63938452D01*
X41728571Y-63877976D01*
X41789047Y-63817500D01*
X41879761Y-63787261D01*
X41940238Y-63787261D01*
X42030952Y-63817500D01*
X42061190Y-63847738D01*
X48411190Y-63817500D02*
X48350714Y-63787261D01*
X48260000Y-63787261D01*
X48169285Y-63817500D01*
X48108809Y-63877976D01*
X48078571Y-63938452D01*
X48048333Y-64059404D01*
X48048333Y-64150119D01*
X48078571Y-64271071D01*
X48108809Y-64331547D01*
X48169285Y-64392023D01*
X48260000Y-64422261D01*
X48320476Y-64422261D01*
X48411190Y-64392023D01*
X48441428Y-64361785D01*
X48441428Y-64150119D01*
X48320476Y-64150119D01*
X48713571Y-64422261D02*
X48713571Y-63787261D01*
X49076428Y-64422261D01*
X49076428Y-63787261D01*
X49378809Y-64422261D02*
X49378809Y-63787261D01*
X49530000Y-63787261D01*
X49620714Y-63817500D01*
X49681190Y-63877976D01*
X49711428Y-63938452D01*
X49741666Y-64059404D01*
X49741666Y-64150119D01*
X49711428Y-64271071D01*
X49681190Y-64331547D01*
X49620714Y-64392023D01*
X49530000Y-64422261D01*
X49378809Y-64422261D01*
X42696190Y-64392023D02*
X42786904Y-64422261D01*
X42938095Y-64422261D01*
X42998571Y-64392023D01*
X43028809Y-64361785D01*
X43059047Y-64301309D01*
X43059047Y-64240833D01*
X43028809Y-64180357D01*
X42998571Y-64150119D01*
X42938095Y-64119880D01*
X42817142Y-64089642D01*
X42756666Y-64059404D01*
X42726428Y-64029166D01*
X42696190Y-63968690D01*
X42696190Y-63908214D01*
X42726428Y-63847738D01*
X42756666Y-63817500D01*
X42817142Y-63787261D01*
X42968333Y-63787261D01*
X43059047Y-63817500D01*
X43694047Y-64361785D02*
X43663809Y-64392023D01*
X43573095Y-64422261D01*
X43512619Y-64422261D01*
X43421904Y-64392023D01*
X43361428Y-64331547D01*
X43331190Y-64271071D01*
X43300952Y-64150119D01*
X43300952Y-64059404D01*
X43331190Y-63938452D01*
X43361428Y-63877976D01*
X43421904Y-63817500D01*
X43512619Y-63787261D01*
X43573095Y-63787261D01*
X43663809Y-63817500D01*
X43694047Y-63847738D01*
X43966190Y-64422261D02*
X43966190Y-63787261D01*
X44329047Y-64422261D02*
X44056904Y-64059404D01*
X44329047Y-63787261D02*
X43966190Y-64150119D01*
X44933809Y-64422261D02*
X44570952Y-64422261D01*
X44752380Y-64422261D02*
X44752380Y-63787261D01*
X44691904Y-63877976D01*
X44631428Y-63938452D01*
X44570952Y-63968690D01*
X70636190Y-46612023D02*
X70726904Y-46642261D01*
X70878095Y-46642261D01*
X70938571Y-46612023D01*
X70968809Y-46581785D01*
X70999047Y-46521309D01*
X70999047Y-46460833D01*
X70968809Y-46400357D01*
X70938571Y-46370119D01*
X70878095Y-46339880D01*
X70757142Y-46309642D01*
X70696666Y-46279404D01*
X70666428Y-46249166D01*
X70636190Y-46188690D01*
X70636190Y-46128214D01*
X70666428Y-46067738D01*
X70696666Y-46037500D01*
X70757142Y-46007261D01*
X70908333Y-46007261D01*
X70999047Y-46037500D01*
X71634047Y-46581785D02*
X71603809Y-46612023D01*
X71513095Y-46642261D01*
X71452619Y-46642261D01*
X71361904Y-46612023D01*
X71301428Y-46551547D01*
X71271190Y-46491071D01*
X71240952Y-46370119D01*
X71240952Y-46279404D01*
X71271190Y-46158452D01*
X71301428Y-46097976D01*
X71361904Y-46037500D01*
X71452619Y-46007261D01*
X71513095Y-46007261D01*
X71603809Y-46037500D01*
X71634047Y-46067738D01*
X71906190Y-46642261D02*
X71906190Y-46007261D01*
X72269047Y-46642261D02*
X71996904Y-46279404D01*
X72269047Y-46007261D02*
X71906190Y-46370119D01*
X72873809Y-46642261D02*
X72510952Y-46642261D01*
X72692380Y-46642261D02*
X72692380Y-46007261D01*
X72631904Y-46097976D01*
X72571428Y-46158452D01*
X72510952Y-46188690D01*
D11*
X94615000Y-115252500D02*
X94615000Y-99377500D01*
X94615000Y-99377500D02*
X56515000Y-99377500D01*
X56515000Y-115252500D02*
X94615000Y-115252500D01*
X56515000Y-99377500D02*
X56515000Y-115252500D01*
X56515000Y-96202500D02*
X94615000Y-96202500D01*
X56515000Y-80327500D02*
X56515000Y-96202500D01*
X94615000Y-80327500D02*
X56515000Y-80327500D01*
X94615000Y-96202500D02*
X94615000Y-80327500D01*
D12*
X37784556Y-14201019D02*
X37445889Y-13717209D01*
X37203984Y-14201019D02*
X37203984Y-13185019D01*
X37591032Y-13185019D01*
X37687794Y-13233400D01*
X37736175Y-13281780D01*
X37784556Y-13378542D01*
X37784556Y-13523685D01*
X37736175Y-13620447D01*
X37687794Y-13668828D01*
X37591032Y-13717209D01*
X37203984Y-13717209D01*
X38607032Y-14152638D02*
X38510270Y-14201019D01*
X38316746Y-14201019D01*
X38219984Y-14152638D01*
X38171603Y-14055876D01*
X38171603Y-13668828D01*
X38219984Y-13572066D01*
X38316746Y-13523685D01*
X38510270Y-13523685D01*
X38607032Y-13572066D01*
X38655413Y-13668828D01*
X38655413Y-13765590D01*
X38171603Y-13862352D01*
X38994080Y-13523685D02*
X39187603Y-14201019D01*
X39381127Y-13717209D01*
X39574651Y-14201019D01*
X39768175Y-13523685D01*
X40155222Y-14201019D02*
X40155222Y-13523685D01*
X40155222Y-13185019D02*
X40106841Y-13233400D01*
X40155222Y-13281780D01*
X40203603Y-13233400D01*
X40155222Y-13185019D01*
X40155222Y-13281780D01*
X40639032Y-14201019D02*
X40639032Y-13523685D01*
X40639032Y-13717209D02*
X40687413Y-13620447D01*
X40735794Y-13572066D01*
X40832556Y-13523685D01*
X40929318Y-13523685D01*
X41655032Y-14152638D02*
X41558270Y-14201019D01*
X41364746Y-14201019D01*
X41267984Y-14152638D01*
X41219603Y-14055876D01*
X41219603Y-13668828D01*
X41267984Y-13572066D01*
X41364746Y-13523685D01*
X41558270Y-13523685D01*
X41655032Y-13572066D01*
X41703413Y-13668828D01*
X41703413Y-13765590D01*
X41219603Y-13862352D01*
X43493508Y-14201019D02*
X43154841Y-13717209D01*
X42912937Y-14201019D02*
X42912937Y-13185019D01*
X43299984Y-13185019D01*
X43396746Y-13233400D01*
X43445127Y-13281780D01*
X43493508Y-13378542D01*
X43493508Y-13523685D01*
X43445127Y-13620447D01*
X43396746Y-13668828D01*
X43299984Y-13717209D01*
X42912937Y-13717209D01*
X44074080Y-14201019D02*
X43977318Y-14152638D01*
X43928937Y-14104257D01*
X43880556Y-14007495D01*
X43880556Y-13717209D01*
X43928937Y-13620447D01*
X43977318Y-13572066D01*
X44074080Y-13523685D01*
X44219222Y-13523685D01*
X44315984Y-13572066D01*
X44364365Y-13620447D01*
X44412746Y-13717209D01*
X44412746Y-14007495D01*
X44364365Y-14104257D01*
X44315984Y-14152638D01*
X44219222Y-14201019D01*
X44074080Y-14201019D01*
X44848175Y-14201019D02*
X44848175Y-13185019D01*
X44848175Y-13572066D02*
X44944937Y-13523685D01*
X45138460Y-13523685D01*
X45235222Y-13572066D01*
X45283603Y-13620447D01*
X45331984Y-13717209D01*
X45331984Y-14007495D01*
X45283603Y-14104257D01*
X45235222Y-14152638D01*
X45138460Y-14201019D01*
X44944937Y-14201019D01*
X44848175Y-14152638D01*
X45912556Y-14201019D02*
X45815794Y-14152638D01*
X45767413Y-14104257D01*
X45719032Y-14007495D01*
X45719032Y-13717209D01*
X45767413Y-13620447D01*
X45815794Y-13572066D01*
X45912556Y-13523685D01*
X46057699Y-13523685D01*
X46154460Y-13572066D01*
X46202841Y-13620447D01*
X46251222Y-13717209D01*
X46251222Y-14007495D01*
X46202841Y-14104257D01*
X46154460Y-14152638D01*
X46057699Y-14201019D01*
X45912556Y-14201019D01*
X46541508Y-13523685D02*
X46928556Y-13523685D01*
X46686651Y-13185019D02*
X46686651Y-14055876D01*
X46735032Y-14152638D01*
X46831794Y-14201019D01*
X46928556Y-14201019D01*
X47267222Y-14201019D02*
X47267222Y-13523685D01*
X47267222Y-13185019D02*
X47218841Y-13233400D01*
X47267222Y-13281780D01*
X47315603Y-13233400D01*
X47267222Y-13185019D01*
X47267222Y-13281780D01*
X48186460Y-14152638D02*
X48089699Y-14201019D01*
X47896175Y-14201019D01*
X47799413Y-14152638D01*
X47751032Y-14104257D01*
X47702651Y-14007495D01*
X47702651Y-13717209D01*
X47751032Y-13620447D01*
X47799413Y-13572066D01*
X47896175Y-13523685D01*
X48089699Y-13523685D01*
X48186460Y-13572066D01*
X48573508Y-14152638D02*
X48670270Y-14201019D01*
X48863794Y-14201019D01*
X48960556Y-14152638D01*
X49008937Y-14055876D01*
X49008937Y-14007495D01*
X48960556Y-13910733D01*
X48863794Y-13862352D01*
X48718651Y-13862352D01*
X48621889Y-13813971D01*
X48573508Y-13717209D01*
X48573508Y-13668828D01*
X48621889Y-13572066D01*
X48718651Y-13523685D01*
X48863794Y-13523685D01*
X48960556Y-13572066D01*
X50702270Y-14201019D02*
X50218460Y-14201019D01*
X50218460Y-13185019D01*
X51476365Y-14201019D02*
X51476365Y-13668828D01*
X51427984Y-13572066D01*
X51331222Y-13523685D01*
X51137699Y-13523685D01*
X51040937Y-13572066D01*
X51476365Y-14152638D02*
X51379603Y-14201019D01*
X51137699Y-14201019D01*
X51040937Y-14152638D01*
X50992556Y-14055876D01*
X50992556Y-13959114D01*
X51040937Y-13862352D01*
X51137699Y-13813971D01*
X51379603Y-13813971D01*
X51476365Y-13765590D01*
X51960175Y-14201019D02*
X51960175Y-13185019D01*
X51960175Y-13572066D02*
X52056937Y-13523685D01*
X52250460Y-13523685D01*
X52347222Y-13572066D01*
X52395603Y-13620447D01*
X52443984Y-13717209D01*
X52443984Y-14007495D01*
X52395603Y-14104257D01*
X52347222Y-14152638D01*
X52250460Y-14201019D01*
X52056937Y-14201019D01*
X51960175Y-14152638D01*
X53024556Y-14201019D02*
X52927794Y-14152638D01*
X52879413Y-14104257D01*
X52831032Y-14007495D01*
X52831032Y-13717209D01*
X52879413Y-13620447D01*
X52927794Y-13572066D01*
X53024556Y-13523685D01*
X53169699Y-13523685D01*
X53266460Y-13572066D01*
X53314841Y-13620447D01*
X53363222Y-13717209D01*
X53363222Y-14007495D01*
X53314841Y-14104257D01*
X53266460Y-14152638D01*
X53169699Y-14201019D01*
X53024556Y-14201019D01*
X53798651Y-14201019D02*
X53798651Y-13523685D01*
X53798651Y-13717209D02*
X53847032Y-13620447D01*
X53895413Y-13572066D01*
X53992175Y-13523685D01*
X54088937Y-13523685D01*
X54863032Y-14201019D02*
X54863032Y-13668828D01*
X54814651Y-13572066D01*
X54717889Y-13523685D01*
X54524365Y-13523685D01*
X54427603Y-13572066D01*
X54863032Y-14152638D02*
X54766270Y-14201019D01*
X54524365Y-14201019D01*
X54427603Y-14152638D01*
X54379222Y-14055876D01*
X54379222Y-13959114D01*
X54427603Y-13862352D01*
X54524365Y-13813971D01*
X54766270Y-13813971D01*
X54863032Y-13765590D01*
X55201699Y-13523685D02*
X55588746Y-13523685D01*
X55346841Y-13185019D02*
X55346841Y-14055876D01*
X55395222Y-14152638D01*
X55491984Y-14201019D01*
X55588746Y-14201019D01*
X56072556Y-14201019D02*
X55975794Y-14152638D01*
X55927413Y-14104257D01*
X55879032Y-14007495D01*
X55879032Y-13717209D01*
X55927413Y-13620447D01*
X55975794Y-13572066D01*
X56072556Y-13523685D01*
X56217699Y-13523685D01*
X56314460Y-13572066D01*
X56362841Y-13620447D01*
X56411222Y-13717209D01*
X56411222Y-14007495D01*
X56362841Y-14104257D01*
X56314460Y-14152638D01*
X56217699Y-14201019D01*
X56072556Y-14201019D01*
X56846651Y-14201019D02*
X56846651Y-13523685D01*
X56846651Y-13717209D02*
X56895032Y-13620447D01*
X56943413Y-13572066D01*
X57040175Y-13523685D01*
X57136937Y-13523685D01*
X57378841Y-13523685D02*
X57620746Y-14201019D01*
X57862651Y-13523685D02*
X57620746Y-14201019D01*
X57523984Y-14442923D01*
X57475603Y-14491304D01*
X57378841Y-14539685D01*
X37155603Y-15879838D02*
X37300746Y-15928219D01*
X37542651Y-15928219D01*
X37639413Y-15879838D01*
X37687794Y-15831457D01*
X37736175Y-15734695D01*
X37736175Y-15637933D01*
X37687794Y-15541171D01*
X37639413Y-15492790D01*
X37542651Y-15444409D01*
X37349127Y-15396028D01*
X37252365Y-15347647D01*
X37203984Y-15299266D01*
X37155603Y-15202504D01*
X37155603Y-15105742D01*
X37203984Y-15008980D01*
X37252365Y-14960600D01*
X37349127Y-14912219D01*
X37591032Y-14912219D01*
X37736175Y-14960600D01*
X38171603Y-15250885D02*
X38171603Y-16266885D01*
X38171603Y-15299266D02*
X38268365Y-15250885D01*
X38461889Y-15250885D01*
X38558651Y-15299266D01*
X38607032Y-15347647D01*
X38655413Y-15444409D01*
X38655413Y-15734695D01*
X38607032Y-15831457D01*
X38558651Y-15879838D01*
X38461889Y-15928219D01*
X38268365Y-15928219D01*
X38171603Y-15879838D01*
X39090841Y-15928219D02*
X39090841Y-15250885D01*
X39090841Y-15444409D02*
X39139222Y-15347647D01*
X39187603Y-15299266D01*
X39284365Y-15250885D01*
X39381127Y-15250885D01*
X39719794Y-15928219D02*
X39719794Y-15250885D01*
X39719794Y-14912219D02*
X39671413Y-14960600D01*
X39719794Y-15008980D01*
X39768175Y-14960600D01*
X39719794Y-14912219D01*
X39719794Y-15008980D01*
X40203603Y-15250885D02*
X40203603Y-15928219D01*
X40203603Y-15347647D02*
X40251984Y-15299266D01*
X40348746Y-15250885D01*
X40493889Y-15250885D01*
X40590651Y-15299266D01*
X40639032Y-15396028D01*
X40639032Y-15928219D01*
X41558270Y-15250885D02*
X41558270Y-16073361D01*
X41509889Y-16170123D01*
X41461508Y-16218504D01*
X41364746Y-16266885D01*
X41219603Y-16266885D01*
X41122841Y-16218504D01*
X41558270Y-15879838D02*
X41461508Y-15928219D01*
X41267984Y-15928219D01*
X41171222Y-15879838D01*
X41122841Y-15831457D01*
X41074460Y-15734695D01*
X41074460Y-15444409D01*
X41122841Y-15347647D01*
X41171222Y-15299266D01*
X41267984Y-15250885D01*
X41461508Y-15250885D01*
X41558270Y-15299266D01*
X42767794Y-15008980D02*
X42816175Y-14960600D01*
X42912937Y-14912219D01*
X43154841Y-14912219D01*
X43251603Y-14960600D01*
X43299984Y-15008980D01*
X43348365Y-15105742D01*
X43348365Y-15202504D01*
X43299984Y-15347647D01*
X42719413Y-15928219D01*
X43348365Y-15928219D01*
X43977318Y-14912219D02*
X44074080Y-14912219D01*
X44170841Y-14960600D01*
X44219222Y-15008980D01*
X44267603Y-15105742D01*
X44315984Y-15299266D01*
X44315984Y-15541171D01*
X44267603Y-15734695D01*
X44219222Y-15831457D01*
X44170841Y-15879838D01*
X44074080Y-15928219D01*
X43977318Y-15928219D01*
X43880556Y-15879838D01*
X43832175Y-15831457D01*
X43783794Y-15734695D01*
X43735413Y-15541171D01*
X43735413Y-15299266D01*
X43783794Y-15105742D01*
X43832175Y-15008980D01*
X43880556Y-14960600D01*
X43977318Y-14912219D01*
X44703032Y-15008980D02*
X44751413Y-14960600D01*
X44848175Y-14912219D01*
X45090080Y-14912219D01*
X45186841Y-14960600D01*
X45235222Y-15008980D01*
X45283603Y-15105742D01*
X45283603Y-15202504D01*
X45235222Y-15347647D01*
X44654651Y-15928219D01*
X45283603Y-15928219D01*
X45670651Y-15008980D02*
X45719032Y-14960600D01*
X45815794Y-14912219D01*
X46057699Y-14912219D01*
X46154460Y-14960600D01*
X46202841Y-15008980D01*
X46251222Y-15105742D01*
X46251222Y-15202504D01*
X46202841Y-15347647D01*
X45622270Y-15928219D01*
X46251222Y-15928219D01*
D10*
X104140000Y-49182261D02*
X104351666Y-49817261D01*
X104563333Y-49182261D01*
X104775000Y-49817261D02*
X104775000Y-49182261D01*
X105077380Y-49817261D02*
X105077380Y-49182261D01*
X105440238Y-49817261D01*
X105440238Y-49182261D01*
X105924047Y-50059166D02*
X105893809Y-50028928D01*
X105833333Y-49938214D01*
X105803095Y-49877738D01*
X105772857Y-49787023D01*
X105742619Y-49635833D01*
X105742619Y-49514880D01*
X105772857Y-49363690D01*
X105803095Y-49272976D01*
X105833333Y-49212500D01*
X105893809Y-49121785D01*
X105924047Y-49091547D01*
X106135714Y-49635833D02*
X106438095Y-49635833D01*
X106075238Y-49817261D02*
X106286904Y-49182261D01*
X106498571Y-49817261D01*
X107073095Y-49817261D02*
X106861428Y-49514880D01*
X106710238Y-49817261D02*
X106710238Y-49182261D01*
X106952142Y-49182261D01*
X107012619Y-49212500D01*
X107042857Y-49242738D01*
X107073095Y-49303214D01*
X107073095Y-49393928D01*
X107042857Y-49454404D01*
X107012619Y-49484642D01*
X106952142Y-49514880D01*
X106710238Y-49514880D01*
X107345238Y-49817261D02*
X107345238Y-49182261D01*
X107496428Y-49182261D01*
X107587142Y-49212500D01*
X107647619Y-49272976D01*
X107677857Y-49333452D01*
X107708095Y-49454404D01*
X107708095Y-49545119D01*
X107677857Y-49666071D01*
X107647619Y-49726547D01*
X107587142Y-49787023D01*
X107496428Y-49817261D01*
X107345238Y-49817261D01*
X107980238Y-49182261D02*
X107980238Y-49696309D01*
X108010476Y-49756785D01*
X108040714Y-49787023D01*
X108101190Y-49817261D01*
X108222142Y-49817261D01*
X108282619Y-49787023D01*
X108312857Y-49756785D01*
X108343095Y-49696309D01*
X108343095Y-49182261D01*
X108645476Y-49817261D02*
X108645476Y-49182261D01*
X108947857Y-49817261D02*
X108947857Y-49182261D01*
X109310714Y-49817261D01*
X109310714Y-49182261D01*
X109734047Y-49182261D02*
X109855000Y-49182261D01*
X109915476Y-49212500D01*
X109975952Y-49272976D01*
X110006190Y-49393928D01*
X110006190Y-49605595D01*
X109975952Y-49726547D01*
X109915476Y-49787023D01*
X109855000Y-49817261D01*
X109734047Y-49817261D01*
X109673571Y-49787023D01*
X109613095Y-49726547D01*
X109582857Y-49605595D01*
X109582857Y-49393928D01*
X109613095Y-49272976D01*
X109673571Y-49212500D01*
X109734047Y-49182261D01*
X110217857Y-50059166D02*
X110248095Y-50028928D01*
X110308571Y-49938214D01*
X110338809Y-49877738D01*
X110369047Y-49787023D01*
X110399285Y-49635833D01*
X110399285Y-49514880D01*
X110369047Y-49363690D01*
X110338809Y-49272976D01*
X110308571Y-49212500D01*
X110248095Y-49121785D01*
X110217857Y-49091547D01*
X106846309Y-41864642D02*
X106937023Y-41894880D01*
X106967261Y-41925119D01*
X106997500Y-41985595D01*
X106997500Y-42076309D01*
X106967261Y-42136785D01*
X106937023Y-42167023D01*
X106876547Y-42197261D01*
X106634642Y-42197261D01*
X106634642Y-41562261D01*
X106846309Y-41562261D01*
X106906785Y-41592500D01*
X106937023Y-41622738D01*
X106967261Y-41683214D01*
X106967261Y-41743690D01*
X106937023Y-41804166D01*
X106906785Y-41834404D01*
X106846309Y-41864642D01*
X106634642Y-41864642D01*
X107239404Y-42015833D02*
X107541785Y-42015833D01*
X107178928Y-42197261D02*
X107390595Y-41562261D01*
X107602261Y-42197261D01*
X107723214Y-41562261D02*
X108086071Y-41562261D01*
X107904642Y-42197261D02*
X107904642Y-41562261D01*
X109371190Y-57467500D02*
X109310714Y-57437261D01*
X109220000Y-57437261D01*
X109129285Y-57467500D01*
X109068809Y-57527976D01*
X109038571Y-57588452D01*
X109008333Y-57709404D01*
X109008333Y-57800119D01*
X109038571Y-57921071D01*
X109068809Y-57981547D01*
X109129285Y-58042023D01*
X109220000Y-58072261D01*
X109280476Y-58072261D01*
X109371190Y-58042023D01*
X109401428Y-58011785D01*
X109401428Y-57800119D01*
X109280476Y-57800119D01*
X109673571Y-58072261D02*
X109673571Y-57437261D01*
X110036428Y-58072261D01*
X110036428Y-57437261D01*
X110338809Y-58072261D02*
X110338809Y-57437261D01*
X110490000Y-57437261D01*
X110580714Y-57467500D01*
X110641190Y-57527976D01*
X110671428Y-57588452D01*
X110701666Y-57709404D01*
X110701666Y-57800119D01*
X110671428Y-57921071D01*
X110641190Y-57981547D01*
X110580714Y-58042023D01*
X110490000Y-58072261D01*
X110338809Y-58072261D01*
X109431666Y-60582023D02*
X109522380Y-60612261D01*
X109673571Y-60612261D01*
X109734047Y-60582023D01*
X109764285Y-60551785D01*
X109794523Y-60491309D01*
X109794523Y-60430833D01*
X109764285Y-60370357D01*
X109734047Y-60340119D01*
X109673571Y-60309880D01*
X109552619Y-60279642D01*
X109492142Y-60249404D01*
X109461904Y-60219166D01*
X109431666Y-60158690D01*
X109431666Y-60098214D01*
X109461904Y-60037738D01*
X109492142Y-60007500D01*
X109552619Y-59977261D01*
X109703809Y-59977261D01*
X109794523Y-60007500D01*
X109975952Y-59977261D02*
X110338809Y-59977261D01*
X110157380Y-60612261D02*
X110157380Y-59977261D01*
X92921666Y-49787023D02*
X93012380Y-49817261D01*
X93163571Y-49817261D01*
X93224047Y-49787023D01*
X93254285Y-49756785D01*
X93284523Y-49696309D01*
X93284523Y-49635833D01*
X93254285Y-49575357D01*
X93224047Y-49545119D01*
X93163571Y-49514880D01*
X93042619Y-49484642D01*
X92982142Y-49454404D01*
X92951904Y-49424166D01*
X92921666Y-49363690D01*
X92921666Y-49303214D01*
X92951904Y-49242738D01*
X92982142Y-49212500D01*
X93042619Y-49182261D01*
X93193809Y-49182261D01*
X93284523Y-49212500D01*
X93465952Y-49182261D02*
X93828809Y-49182261D01*
X93647380Y-49817261D02*
X93647380Y-49182261D01*
X115086190Y-113347500D02*
X115025714Y-113317261D01*
X114935000Y-113317261D01*
X114844285Y-113347500D01*
X114783809Y-113407976D01*
X114753571Y-113468452D01*
X114723333Y-113589404D01*
X114723333Y-113680119D01*
X114753571Y-113801071D01*
X114783809Y-113861547D01*
X114844285Y-113922023D01*
X114935000Y-113952261D01*
X114995476Y-113952261D01*
X115086190Y-113922023D01*
X115116428Y-113891785D01*
X115116428Y-113680119D01*
X114995476Y-113680119D01*
X115388571Y-113952261D02*
X115388571Y-113317261D01*
X115751428Y-113952261D01*
X115751428Y-113317261D01*
X116053809Y-113952261D02*
X116053809Y-113317261D01*
X116205000Y-113317261D01*
X116295714Y-113347500D01*
X116356190Y-113407976D01*
X116386428Y-113468452D01*
X116416666Y-113589404D01*
X116416666Y-113680119D01*
X116386428Y-113801071D01*
X116356190Y-113861547D01*
X116295714Y-113922023D01*
X116205000Y-113952261D01*
X116053809Y-113952261D01*
X120831428Y-113770833D02*
X121133809Y-113770833D01*
X120770952Y-113952261D02*
X120982619Y-113317261D01*
X121194285Y-113952261D01*
X121345476Y-113317261D02*
X121738571Y-113317261D01*
X121526904Y-113559166D01*
X121617619Y-113559166D01*
X121678095Y-113589404D01*
X121708333Y-113619642D01*
X121738571Y-113680119D01*
X121738571Y-113831309D01*
X121708333Y-113891785D01*
X121678095Y-113922023D01*
X121617619Y-113952261D01*
X121436190Y-113952261D01*
X121375714Y-113922023D01*
X121345476Y-113891785D01*
X120876785Y-106332261D02*
X120665119Y-106029880D01*
X120513928Y-106332261D02*
X120513928Y-105697261D01*
X120755833Y-105697261D01*
X120816309Y-105727500D01*
X120846547Y-105757738D01*
X120876785Y-105818214D01*
X120876785Y-105908928D01*
X120846547Y-105969404D01*
X120816309Y-105999642D01*
X120755833Y-106029880D01*
X120513928Y-106029880D01*
X121088452Y-105697261D02*
X121511785Y-106332261D01*
X121511785Y-105697261D02*
X121088452Y-106332261D01*
X122086309Y-106332261D02*
X121723452Y-106332261D01*
X121904880Y-106332261D02*
X121904880Y-105697261D01*
X121844404Y-105787976D01*
X121783928Y-105848452D01*
X121723452Y-105878690D01*
X115161785Y-106332261D02*
X114950119Y-106029880D01*
X114798928Y-106332261D02*
X114798928Y-105697261D01*
X115040833Y-105697261D01*
X115101309Y-105727500D01*
X115131547Y-105757738D01*
X115161785Y-105818214D01*
X115161785Y-105908928D01*
X115131547Y-105969404D01*
X115101309Y-105999642D01*
X115040833Y-106029880D01*
X114798928Y-106029880D01*
X115373452Y-105697261D02*
X115796785Y-106332261D01*
X115796785Y-105697261D02*
X115373452Y-106332261D01*
X116371309Y-106332261D02*
X116008452Y-106332261D01*
X116189880Y-106332261D02*
X116189880Y-105697261D01*
X116129404Y-105787976D01*
X116068928Y-105848452D01*
X116008452Y-105878690D01*
X115086190Y-94297500D02*
X115025714Y-94267261D01*
X114935000Y-94267261D01*
X114844285Y-94297500D01*
X114783809Y-94357976D01*
X114753571Y-94418452D01*
X114723333Y-94539404D01*
X114723333Y-94630119D01*
X114753571Y-94751071D01*
X114783809Y-94811547D01*
X114844285Y-94872023D01*
X114935000Y-94902261D01*
X114995476Y-94902261D01*
X115086190Y-94872023D01*
X115116428Y-94841785D01*
X115116428Y-94630119D01*
X114995476Y-94630119D01*
X115388571Y-94902261D02*
X115388571Y-94267261D01*
X115751428Y-94902261D01*
X115751428Y-94267261D01*
X116053809Y-94902261D02*
X116053809Y-94267261D01*
X116205000Y-94267261D01*
X116295714Y-94297500D01*
X116356190Y-94357976D01*
X116386428Y-94418452D01*
X116416666Y-94539404D01*
X116416666Y-94630119D01*
X116386428Y-94751071D01*
X116356190Y-94811547D01*
X116295714Y-94872023D01*
X116205000Y-94902261D01*
X116053809Y-94902261D01*
X120831428Y-94720833D02*
X121133809Y-94720833D01*
X120770952Y-94902261D02*
X120982619Y-94267261D01*
X121194285Y-94902261D01*
X121738571Y-94902261D02*
X121375714Y-94902261D01*
X121557142Y-94902261D02*
X121557142Y-94267261D01*
X121496666Y-94357976D01*
X121436190Y-94418452D01*
X121375714Y-94448690D01*
X120876785Y-87282261D02*
X120665119Y-86979880D01*
X120513928Y-87282261D02*
X120513928Y-86647261D01*
X120755833Y-86647261D01*
X120816309Y-86677500D01*
X120846547Y-86707738D01*
X120876785Y-86768214D01*
X120876785Y-86858928D01*
X120846547Y-86919404D01*
X120816309Y-86949642D01*
X120755833Y-86979880D01*
X120513928Y-86979880D01*
X121088452Y-86647261D02*
X121511785Y-87282261D01*
X121511785Y-86647261D02*
X121088452Y-87282261D01*
X121874642Y-86647261D02*
X121935119Y-86647261D01*
X121995595Y-86677500D01*
X122025833Y-86707738D01*
X122056071Y-86768214D01*
X122086309Y-86889166D01*
X122086309Y-87040357D01*
X122056071Y-87161309D01*
X122025833Y-87221785D01*
X121995595Y-87252023D01*
X121935119Y-87282261D01*
X121874642Y-87282261D01*
X121814166Y-87252023D01*
X121783928Y-87221785D01*
X121753690Y-87161309D01*
X121723452Y-87040357D01*
X121723452Y-86889166D01*
X121753690Y-86768214D01*
X121783928Y-86707738D01*
X121814166Y-86677500D01*
X121874642Y-86647261D01*
X115161785Y-87282261D02*
X114950119Y-86979880D01*
X114798928Y-87282261D02*
X114798928Y-86647261D01*
X115040833Y-86647261D01*
X115101309Y-86677500D01*
X115131547Y-86707738D01*
X115161785Y-86768214D01*
X115161785Y-86858928D01*
X115131547Y-86919404D01*
X115101309Y-86949642D01*
X115040833Y-86979880D01*
X114798928Y-86979880D01*
X115373452Y-86647261D02*
X115796785Y-87282261D01*
X115796785Y-86647261D02*
X115373452Y-87282261D01*
X116159642Y-86647261D02*
X116220119Y-86647261D01*
X116280595Y-86677500D01*
X116310833Y-86707738D01*
X116341071Y-86768214D01*
X116371309Y-86889166D01*
X116371309Y-87040357D01*
X116341071Y-87161309D01*
X116310833Y-87221785D01*
X116280595Y-87252023D01*
X116220119Y-87282261D01*
X116159642Y-87282261D01*
X116099166Y-87252023D01*
X116068928Y-87221785D01*
X116038690Y-87161309D01*
X116008452Y-87040357D01*
X116008452Y-86889166D01*
X116038690Y-86768214D01*
X116068928Y-86707738D01*
X116099166Y-86677500D01*
X116159642Y-86647261D01*
X106468333Y-103157261D02*
X106680000Y-103792261D01*
X106891666Y-103157261D01*
X107466190Y-103731785D02*
X107435952Y-103762023D01*
X107345238Y-103792261D01*
X107284761Y-103792261D01*
X107194047Y-103762023D01*
X107133571Y-103701547D01*
X107103333Y-103641071D01*
X107073095Y-103520119D01*
X107073095Y-103429404D01*
X107103333Y-103308452D01*
X107133571Y-103247976D01*
X107194047Y-103187500D01*
X107284761Y-103157261D01*
X107345238Y-103157261D01*
X107435952Y-103187500D01*
X107466190Y-103217738D01*
X108101190Y-103731785D02*
X108070952Y-103762023D01*
X107980238Y-103792261D01*
X107919761Y-103792261D01*
X107829047Y-103762023D01*
X107768571Y-103701547D01*
X107738333Y-103641071D01*
X107708095Y-103520119D01*
X107708095Y-103429404D01*
X107738333Y-103308452D01*
X107768571Y-103247976D01*
X107829047Y-103187500D01*
X107919761Y-103157261D01*
X107980238Y-103157261D01*
X108070952Y-103187500D01*
X108101190Y-103217738D01*
X106831190Y-105727500D02*
X106770714Y-105697261D01*
X106680000Y-105697261D01*
X106589285Y-105727500D01*
X106528809Y-105787976D01*
X106498571Y-105848452D01*
X106468333Y-105969404D01*
X106468333Y-106060119D01*
X106498571Y-106181071D01*
X106528809Y-106241547D01*
X106589285Y-106302023D01*
X106680000Y-106332261D01*
X106740476Y-106332261D01*
X106831190Y-106302023D01*
X106861428Y-106271785D01*
X106861428Y-106060119D01*
X106740476Y-106060119D01*
X107133571Y-106332261D02*
X107133571Y-105697261D01*
X107496428Y-106332261D01*
X107496428Y-105697261D01*
X107798809Y-106332261D02*
X107798809Y-105697261D01*
X107950000Y-105697261D01*
X108040714Y-105727500D01*
X108101190Y-105787976D01*
X108131428Y-105848452D01*
X108161666Y-105969404D01*
X108161666Y-106060119D01*
X108131428Y-106181071D01*
X108101190Y-106241547D01*
X108040714Y-106302023D01*
X107950000Y-106332261D01*
X107798809Y-106332261D01*
X106165952Y-108237261D02*
X106528809Y-108237261D01*
X106347380Y-108872261D02*
X106347380Y-108237261D01*
X106680000Y-108237261D02*
X107103333Y-108872261D01*
X107103333Y-108237261D02*
X106680000Y-108872261D01*
X107677857Y-108872261D02*
X107315000Y-108872261D01*
X107496428Y-108872261D02*
X107496428Y-108237261D01*
X107435952Y-108327976D01*
X107375476Y-108388452D01*
X107315000Y-108418690D01*
X108131428Y-109114166D02*
X108101190Y-109083928D01*
X108040714Y-108993214D01*
X108010476Y-108932738D01*
X107980238Y-108842023D01*
X107950000Y-108690833D01*
X107950000Y-108569880D01*
X107980238Y-108418690D01*
X108010476Y-108327976D01*
X108040714Y-108267500D01*
X108101190Y-108176785D01*
X108131428Y-108146547D01*
X108343095Y-108690833D02*
X108645476Y-108690833D01*
X108282619Y-108872261D02*
X108494285Y-108237261D01*
X108705952Y-108872261D01*
X108887380Y-108297738D02*
X108917619Y-108267500D01*
X108978095Y-108237261D01*
X109129285Y-108237261D01*
X109189761Y-108267500D01*
X109220000Y-108297738D01*
X109250238Y-108358214D01*
X109250238Y-108418690D01*
X109220000Y-108509404D01*
X108857142Y-108872261D01*
X109250238Y-108872261D01*
X109461904Y-109114166D02*
X109492142Y-109083928D01*
X109552619Y-108993214D01*
X109582857Y-108932738D01*
X109613095Y-108842023D01*
X109643333Y-108690833D01*
X109643333Y-108569880D01*
X109613095Y-108418690D01*
X109582857Y-108327976D01*
X109552619Y-108267500D01*
X109492142Y-108176785D01*
X109461904Y-108146547D01*
X106906785Y-111412261D02*
X106695119Y-111109880D01*
X106543928Y-111412261D02*
X106543928Y-110777261D01*
X106785833Y-110777261D01*
X106846309Y-110807500D01*
X106876547Y-110837738D01*
X106906785Y-110898214D01*
X106906785Y-110988928D01*
X106876547Y-111049404D01*
X106846309Y-111079642D01*
X106785833Y-111109880D01*
X106543928Y-111109880D01*
X107118452Y-110777261D02*
X107541785Y-111412261D01*
X107541785Y-110777261D02*
X107118452Y-111412261D01*
X108116309Y-111412261D02*
X107753452Y-111412261D01*
X107934880Y-111412261D02*
X107934880Y-110777261D01*
X107874404Y-110867976D01*
X107813928Y-110928452D01*
X107753452Y-110958690D01*
X106468333Y-84107261D02*
X106680000Y-84742261D01*
X106891666Y-84107261D01*
X107466190Y-84681785D02*
X107435952Y-84712023D01*
X107345238Y-84742261D01*
X107284761Y-84742261D01*
X107194047Y-84712023D01*
X107133571Y-84651547D01*
X107103333Y-84591071D01*
X107073095Y-84470119D01*
X107073095Y-84379404D01*
X107103333Y-84258452D01*
X107133571Y-84197976D01*
X107194047Y-84137500D01*
X107284761Y-84107261D01*
X107345238Y-84107261D01*
X107435952Y-84137500D01*
X107466190Y-84167738D01*
X108101190Y-84681785D02*
X108070952Y-84712023D01*
X107980238Y-84742261D01*
X107919761Y-84742261D01*
X107829047Y-84712023D01*
X107768571Y-84651547D01*
X107738333Y-84591071D01*
X107708095Y-84470119D01*
X107708095Y-84379404D01*
X107738333Y-84258452D01*
X107768571Y-84197976D01*
X107829047Y-84137500D01*
X107919761Y-84107261D01*
X107980238Y-84107261D01*
X108070952Y-84137500D01*
X108101190Y-84167738D01*
X106831190Y-86677500D02*
X106770714Y-86647261D01*
X106680000Y-86647261D01*
X106589285Y-86677500D01*
X106528809Y-86737976D01*
X106498571Y-86798452D01*
X106468333Y-86919404D01*
X106468333Y-87010119D01*
X106498571Y-87131071D01*
X106528809Y-87191547D01*
X106589285Y-87252023D01*
X106680000Y-87282261D01*
X106740476Y-87282261D01*
X106831190Y-87252023D01*
X106861428Y-87221785D01*
X106861428Y-87010119D01*
X106740476Y-87010119D01*
X107133571Y-87282261D02*
X107133571Y-86647261D01*
X107496428Y-87282261D01*
X107496428Y-86647261D01*
X107798809Y-87282261D02*
X107798809Y-86647261D01*
X107950000Y-86647261D01*
X108040714Y-86677500D01*
X108101190Y-86737976D01*
X108131428Y-86798452D01*
X108161666Y-86919404D01*
X108161666Y-87010119D01*
X108131428Y-87131071D01*
X108101190Y-87191547D01*
X108040714Y-87252023D01*
X107950000Y-87282261D01*
X107798809Y-87282261D01*
X106165952Y-89187261D02*
X106528809Y-89187261D01*
X106347380Y-89822261D02*
X106347380Y-89187261D01*
X106680000Y-89187261D02*
X107103333Y-89822261D01*
X107103333Y-89187261D02*
X106680000Y-89822261D01*
X107466190Y-89187261D02*
X107526666Y-89187261D01*
X107587142Y-89217500D01*
X107617380Y-89247738D01*
X107647619Y-89308214D01*
X107677857Y-89429166D01*
X107677857Y-89580357D01*
X107647619Y-89701309D01*
X107617380Y-89761785D01*
X107587142Y-89792023D01*
X107526666Y-89822261D01*
X107466190Y-89822261D01*
X107405714Y-89792023D01*
X107375476Y-89761785D01*
X107345238Y-89701309D01*
X107315000Y-89580357D01*
X107315000Y-89429166D01*
X107345238Y-89308214D01*
X107375476Y-89247738D01*
X107405714Y-89217500D01*
X107466190Y-89187261D01*
X108131428Y-90064166D02*
X108101190Y-90033928D01*
X108040714Y-89943214D01*
X108010476Y-89882738D01*
X107980238Y-89792023D01*
X107950000Y-89640833D01*
X107950000Y-89519880D01*
X107980238Y-89368690D01*
X108010476Y-89277976D01*
X108040714Y-89217500D01*
X108101190Y-89126785D01*
X108131428Y-89096547D01*
X108343095Y-89640833D02*
X108645476Y-89640833D01*
X108282619Y-89822261D02*
X108494285Y-89187261D01*
X108705952Y-89822261D01*
X109038571Y-89187261D02*
X109099047Y-89187261D01*
X109159523Y-89217500D01*
X109189761Y-89247738D01*
X109220000Y-89308214D01*
X109250238Y-89429166D01*
X109250238Y-89580357D01*
X109220000Y-89701309D01*
X109189761Y-89761785D01*
X109159523Y-89792023D01*
X109099047Y-89822261D01*
X109038571Y-89822261D01*
X108978095Y-89792023D01*
X108947857Y-89761785D01*
X108917619Y-89701309D01*
X108887380Y-89580357D01*
X108887380Y-89429166D01*
X108917619Y-89308214D01*
X108947857Y-89247738D01*
X108978095Y-89217500D01*
X109038571Y-89187261D01*
X109461904Y-90064166D02*
X109492142Y-90033928D01*
X109552619Y-89943214D01*
X109582857Y-89882738D01*
X109613095Y-89792023D01*
X109643333Y-89640833D01*
X109643333Y-89519880D01*
X109613095Y-89368690D01*
X109582857Y-89277976D01*
X109552619Y-89217500D01*
X109492142Y-89126785D01*
X109461904Y-89096547D01*
X106906785Y-92362261D02*
X106695119Y-92059880D01*
X106543928Y-92362261D02*
X106543928Y-91727261D01*
X106785833Y-91727261D01*
X106846309Y-91757500D01*
X106876547Y-91787738D01*
X106906785Y-91848214D01*
X106906785Y-91938928D01*
X106876547Y-91999404D01*
X106846309Y-92029642D01*
X106785833Y-92059880D01*
X106543928Y-92059880D01*
X107118452Y-91727261D02*
X107541785Y-92362261D01*
X107541785Y-91727261D02*
X107118452Y-92362261D01*
X107904642Y-91727261D02*
X107965119Y-91727261D01*
X108025595Y-91757500D01*
X108055833Y-91787738D01*
X108086071Y-91848214D01*
X108116309Y-91969166D01*
X108116309Y-92120357D01*
X108086071Y-92241309D01*
X108055833Y-92301785D01*
X108025595Y-92332023D01*
X107965119Y-92362261D01*
X107904642Y-92362261D01*
X107844166Y-92332023D01*
X107813928Y-92301785D01*
X107783690Y-92241309D01*
X107753452Y-92120357D01*
X107753452Y-91969166D01*
X107783690Y-91848214D01*
X107813928Y-91787738D01*
X107844166Y-91757500D01*
X107904642Y-91727261D01*
X92891428Y-54715833D02*
X93193809Y-54715833D01*
X92830952Y-54897261D02*
X93042619Y-54262261D01*
X93254285Y-54897261D01*
X93435714Y-54322738D02*
X93465952Y-54292500D01*
X93526428Y-54262261D01*
X93677619Y-54262261D01*
X93738095Y-54292500D01*
X93768333Y-54322738D01*
X93798571Y-54383214D01*
X93798571Y-54443690D01*
X93768333Y-54534404D01*
X93405476Y-54897261D01*
X93798571Y-54897261D01*
X94252142Y-55139166D02*
X94221904Y-55108928D01*
X94161428Y-55018214D01*
X94131190Y-54957738D01*
X94100952Y-54867023D01*
X94070714Y-54715833D01*
X94070714Y-54594880D01*
X94100952Y-54443690D01*
X94131190Y-54352976D01*
X94161428Y-54292500D01*
X94221904Y-54201785D01*
X94252142Y-54171547D01*
X94403333Y-54262261D02*
X94766190Y-54262261D01*
X94584761Y-54897261D02*
X94584761Y-54262261D01*
X94917380Y-54262261D02*
X95340714Y-54897261D01*
X95340714Y-54262261D02*
X94917380Y-54897261D01*
X95915238Y-54897261D02*
X95552380Y-54897261D01*
X95733809Y-54897261D02*
X95733809Y-54262261D01*
X95673333Y-54352976D01*
X95612857Y-54413452D01*
X95552380Y-54443690D01*
X96126904Y-55139166D02*
X96157142Y-55108928D01*
X96217619Y-55018214D01*
X96247857Y-54957738D01*
X96278095Y-54867023D01*
X96308333Y-54715833D01*
X96308333Y-54594880D01*
X96278095Y-54443690D01*
X96247857Y-54352976D01*
X96217619Y-54292500D01*
X96157142Y-54201785D01*
X96126904Y-54171547D01*
X92891428Y-59795833D02*
X93193809Y-59795833D01*
X92830952Y-59977261D02*
X93042619Y-59342261D01*
X93254285Y-59977261D01*
X93586904Y-59342261D02*
X93647380Y-59342261D01*
X93707857Y-59372500D01*
X93738095Y-59402738D01*
X93768333Y-59463214D01*
X93798571Y-59584166D01*
X93798571Y-59735357D01*
X93768333Y-59856309D01*
X93738095Y-59916785D01*
X93707857Y-59947023D01*
X93647380Y-59977261D01*
X93586904Y-59977261D01*
X93526428Y-59947023D01*
X93496190Y-59916785D01*
X93465952Y-59856309D01*
X93435714Y-59735357D01*
X93435714Y-59584166D01*
X93465952Y-59463214D01*
X93496190Y-59402738D01*
X93526428Y-59372500D01*
X93586904Y-59342261D01*
X94252142Y-60219166D02*
X94221904Y-60188928D01*
X94161428Y-60098214D01*
X94131190Y-60037738D01*
X94100952Y-59947023D01*
X94070714Y-59795833D01*
X94070714Y-59674880D01*
X94100952Y-59523690D01*
X94131190Y-59432976D01*
X94161428Y-59372500D01*
X94221904Y-59281785D01*
X94252142Y-59251547D01*
X94403333Y-59342261D02*
X94766190Y-59342261D01*
X94584761Y-59977261D02*
X94584761Y-59342261D01*
X94917380Y-59342261D02*
X95340714Y-59977261D01*
X95340714Y-59342261D02*
X94917380Y-59977261D01*
X95703571Y-59342261D02*
X95764047Y-59342261D01*
X95824523Y-59372500D01*
X95854761Y-59402738D01*
X95885000Y-59463214D01*
X95915238Y-59584166D01*
X95915238Y-59735357D01*
X95885000Y-59856309D01*
X95854761Y-59916785D01*
X95824523Y-59947023D01*
X95764047Y-59977261D01*
X95703571Y-59977261D01*
X95643095Y-59947023D01*
X95612857Y-59916785D01*
X95582619Y-59856309D01*
X95552380Y-59735357D01*
X95552380Y-59584166D01*
X95582619Y-59463214D01*
X95612857Y-59402738D01*
X95643095Y-59372500D01*
X95703571Y-59342261D01*
X96126904Y-60219166D02*
X96157142Y-60188928D01*
X96217619Y-60098214D01*
X96247857Y-60037738D01*
X96278095Y-59947023D01*
X96308333Y-59795833D01*
X96308333Y-59674880D01*
X96278095Y-59523690D01*
X96247857Y-59432976D01*
X96217619Y-59372500D01*
X96157142Y-59281785D01*
X96126904Y-59251547D01*
X92891428Y-57255833D02*
X93193809Y-57255833D01*
X92830952Y-57437261D02*
X93042619Y-56802261D01*
X93254285Y-57437261D01*
X93798571Y-57437261D02*
X93435714Y-57437261D01*
X93617142Y-57437261D02*
X93617142Y-56802261D01*
X93556666Y-56892976D01*
X93496190Y-56953452D01*
X93435714Y-56983690D01*
X92891428Y-52175833D02*
X93193809Y-52175833D01*
X92830952Y-52357261D02*
X93042619Y-51722261D01*
X93254285Y-52357261D01*
X93405476Y-51722261D02*
X93798571Y-51722261D01*
X93586904Y-51964166D01*
X93677619Y-51964166D01*
X93738095Y-51994404D01*
X93768333Y-52024642D01*
X93798571Y-52085119D01*
X93798571Y-52236309D01*
X93768333Y-52296785D01*
X93738095Y-52327023D01*
X93677619Y-52357261D01*
X93496190Y-52357261D01*
X93435714Y-52327023D01*
X93405476Y-52296785D01*
X92498333Y-39022261D02*
X92710000Y-39657261D01*
X92921666Y-39022261D01*
X93496190Y-39596785D02*
X93465952Y-39627023D01*
X93375238Y-39657261D01*
X93314761Y-39657261D01*
X93224047Y-39627023D01*
X93163571Y-39566547D01*
X93133333Y-39506071D01*
X93103095Y-39385119D01*
X93103095Y-39294404D01*
X93133333Y-39173452D01*
X93163571Y-39112976D01*
X93224047Y-39052500D01*
X93314761Y-39022261D01*
X93375238Y-39022261D01*
X93465952Y-39052500D01*
X93496190Y-39082738D01*
X94131190Y-39596785D02*
X94100952Y-39627023D01*
X94010238Y-39657261D01*
X93949761Y-39657261D01*
X93859047Y-39627023D01*
X93798571Y-39566547D01*
X93768333Y-39506071D01*
X93738095Y-39385119D01*
X93738095Y-39294404D01*
X93768333Y-39173452D01*
X93798571Y-39112976D01*
X93859047Y-39052500D01*
X93949761Y-39022261D01*
X94010238Y-39022261D01*
X94100952Y-39052500D01*
X94131190Y-39082738D01*
X92649523Y-31402261D02*
X92861190Y-32037261D01*
X93072857Y-31402261D01*
X93284523Y-32037261D02*
X93284523Y-31402261D01*
X93586904Y-32037261D02*
X93586904Y-31402261D01*
X93949761Y-32037261D01*
X93949761Y-31402261D01*
X92861190Y-33972500D02*
X92800714Y-33942261D01*
X92710000Y-33942261D01*
X92619285Y-33972500D01*
X92558809Y-34032976D01*
X92528571Y-34093452D01*
X92498333Y-34214404D01*
X92498333Y-34305119D01*
X92528571Y-34426071D01*
X92558809Y-34486547D01*
X92619285Y-34547023D01*
X92710000Y-34577261D01*
X92770476Y-34577261D01*
X92861190Y-34547023D01*
X92891428Y-34516785D01*
X92891428Y-34305119D01*
X92770476Y-34305119D01*
X93163571Y-34577261D02*
X93163571Y-33942261D01*
X93526428Y-34577261D01*
X93526428Y-33942261D01*
X93828809Y-34577261D02*
X93828809Y-33942261D01*
X93980000Y-33942261D01*
X94070714Y-33972500D01*
X94131190Y-34032976D01*
X94161428Y-34093452D01*
X94191666Y-34214404D01*
X94191666Y-34305119D01*
X94161428Y-34426071D01*
X94131190Y-34486547D01*
X94070714Y-34547023D01*
X93980000Y-34577261D01*
X93828809Y-34577261D01*
X71679404Y-59977261D02*
X71679404Y-59342261D01*
X71830595Y-59342261D01*
X71921309Y-59372500D01*
X71981785Y-59432976D01*
X72012023Y-59493452D01*
X72042261Y-59614404D01*
X72042261Y-59705119D01*
X72012023Y-59826071D01*
X71981785Y-59886547D01*
X71921309Y-59947023D01*
X71830595Y-59977261D01*
X71679404Y-59977261D01*
X72223690Y-59342261D02*
X72586547Y-59342261D01*
X72405119Y-59977261D02*
X72405119Y-59342261D01*
X72737738Y-59342261D02*
X73130833Y-59342261D01*
X72919166Y-59584166D01*
X73009880Y-59584166D01*
X73070357Y-59614404D01*
X73100595Y-59644642D01*
X73130833Y-59705119D01*
X73130833Y-59856309D01*
X73100595Y-59916785D01*
X73070357Y-59947023D01*
X73009880Y-59977261D01*
X72828452Y-59977261D01*
X72767976Y-59947023D01*
X72737738Y-59916785D01*
X70636190Y-56772023D02*
X70726904Y-56802261D01*
X70878095Y-56802261D01*
X70938571Y-56772023D01*
X70968809Y-56741785D01*
X70999047Y-56681309D01*
X70999047Y-56620833D01*
X70968809Y-56560357D01*
X70938571Y-56530119D01*
X70878095Y-56499880D01*
X70757142Y-56469642D01*
X70696666Y-56439404D01*
X70666428Y-56409166D01*
X70636190Y-56348690D01*
X70636190Y-56288214D01*
X70666428Y-56227738D01*
X70696666Y-56197500D01*
X70757142Y-56167261D01*
X70908333Y-56167261D01*
X70999047Y-56197500D01*
X71634047Y-56741785D02*
X71603809Y-56772023D01*
X71513095Y-56802261D01*
X71452619Y-56802261D01*
X71361904Y-56772023D01*
X71301428Y-56711547D01*
X71271190Y-56651071D01*
X71240952Y-56530119D01*
X71240952Y-56439404D01*
X71271190Y-56318452D01*
X71301428Y-56257976D01*
X71361904Y-56197500D01*
X71452619Y-56167261D01*
X71513095Y-56167261D01*
X71603809Y-56197500D01*
X71634047Y-56227738D01*
X71906190Y-56802261D02*
X71906190Y-56167261D01*
X72269047Y-56802261D02*
X71996904Y-56439404D01*
X72269047Y-56167261D02*
X71906190Y-56530119D01*
X72480714Y-56167261D02*
X72873809Y-56167261D01*
X72662142Y-56409166D01*
X72752857Y-56409166D01*
X72813333Y-56439404D01*
X72843571Y-56469642D01*
X72873809Y-56530119D01*
X72873809Y-56681309D01*
X72843571Y-56741785D01*
X72813333Y-56772023D01*
X72752857Y-56802261D01*
X72571428Y-56802261D01*
X72510952Y-56772023D01*
X72480714Y-56741785D01*
X71679404Y-54262261D02*
X71679404Y-53627261D01*
X71830595Y-53627261D01*
X71921309Y-53657500D01*
X71981785Y-53717976D01*
X72012023Y-53778452D01*
X72042261Y-53899404D01*
X72042261Y-53990119D01*
X72012023Y-54111071D01*
X71981785Y-54171547D01*
X71921309Y-54232023D01*
X71830595Y-54262261D01*
X71679404Y-54262261D01*
X72223690Y-53627261D02*
X72586547Y-53627261D01*
X72405119Y-54262261D02*
X72405119Y-53627261D01*
X72767976Y-53687738D02*
X72798214Y-53657500D01*
X72858690Y-53627261D01*
X73009880Y-53627261D01*
X73070357Y-53657500D01*
X73100595Y-53687738D01*
X73130833Y-53748214D01*
X73130833Y-53808690D01*
X73100595Y-53899404D01*
X72737738Y-54262261D01*
X73130833Y-54262261D01*
X70636190Y-51692023D02*
X70726904Y-51722261D01*
X70878095Y-51722261D01*
X70938571Y-51692023D01*
X70968809Y-51661785D01*
X70999047Y-51601309D01*
X70999047Y-51540833D01*
X70968809Y-51480357D01*
X70938571Y-51450119D01*
X70878095Y-51419880D01*
X70757142Y-51389642D01*
X70696666Y-51359404D01*
X70666428Y-51329166D01*
X70636190Y-51268690D01*
X70636190Y-51208214D01*
X70666428Y-51147738D01*
X70696666Y-51117500D01*
X70757142Y-51087261D01*
X70908333Y-51087261D01*
X70999047Y-51117500D01*
X71634047Y-51661785D02*
X71603809Y-51692023D01*
X71513095Y-51722261D01*
X71452619Y-51722261D01*
X71361904Y-51692023D01*
X71301428Y-51631547D01*
X71271190Y-51571071D01*
X71240952Y-51450119D01*
X71240952Y-51359404D01*
X71271190Y-51238452D01*
X71301428Y-51177976D01*
X71361904Y-51117500D01*
X71452619Y-51087261D01*
X71513095Y-51087261D01*
X71603809Y-51117500D01*
X71634047Y-51147738D01*
X71906190Y-51722261D02*
X71906190Y-51087261D01*
X72269047Y-51722261D02*
X71996904Y-51359404D01*
X72269047Y-51087261D02*
X71906190Y-51450119D01*
X72510952Y-51147738D02*
X72541190Y-51117500D01*
X72601666Y-51087261D01*
X72752857Y-51087261D01*
X72813333Y-51117500D01*
X72843571Y-51147738D01*
X72873809Y-51208214D01*
X72873809Y-51268690D01*
X72843571Y-51359404D01*
X72480714Y-51722261D01*
X72873809Y-51722261D01*
X71679404Y-49182261D02*
X71679404Y-48547261D01*
X71830595Y-48547261D01*
X71921309Y-48577500D01*
X71981785Y-48637976D01*
X72012023Y-48698452D01*
X72042261Y-48819404D01*
X72042261Y-48910119D01*
X72012023Y-49031071D01*
X71981785Y-49091547D01*
X71921309Y-49152023D01*
X71830595Y-49182261D01*
X71679404Y-49182261D01*
X72223690Y-48547261D02*
X72586547Y-48547261D01*
X72405119Y-49182261D02*
X72405119Y-48547261D01*
X73130833Y-49182261D02*
X72767976Y-49182261D01*
X72949404Y-49182261D02*
X72949404Y-48547261D01*
X72888928Y-48637976D01*
X72828452Y-48698452D01*
X72767976Y-48728690D01*
X70636190Y-41532023D02*
X70726904Y-41562261D01*
X70878095Y-41562261D01*
X70938571Y-41532023D01*
X70968809Y-41501785D01*
X70999047Y-41441309D01*
X70999047Y-41380833D01*
X70968809Y-41320357D01*
X70938571Y-41290119D01*
X70878095Y-41259880D01*
X70757142Y-41229642D01*
X70696666Y-41199404D01*
X70666428Y-41169166D01*
X70636190Y-41108690D01*
X70636190Y-41048214D01*
X70666428Y-40987738D01*
X70696666Y-40957500D01*
X70757142Y-40927261D01*
X70908333Y-40927261D01*
X70999047Y-40957500D01*
X71634047Y-41501785D02*
X71603809Y-41532023D01*
X71513095Y-41562261D01*
X71452619Y-41562261D01*
X71361904Y-41532023D01*
X71301428Y-41471547D01*
X71271190Y-41411071D01*
X71240952Y-41290119D01*
X71240952Y-41199404D01*
X71271190Y-41078452D01*
X71301428Y-41017976D01*
X71361904Y-40957500D01*
X71452619Y-40927261D01*
X71513095Y-40927261D01*
X71603809Y-40957500D01*
X71634047Y-40987738D01*
X71906190Y-41562261D02*
X71906190Y-40927261D01*
X72269047Y-41562261D02*
X71996904Y-41199404D01*
X72269047Y-40927261D02*
X71906190Y-41290119D01*
X72662142Y-40927261D02*
X72722619Y-40927261D01*
X72783095Y-40957500D01*
X72813333Y-40987738D01*
X72843571Y-41048214D01*
X72873809Y-41169166D01*
X72873809Y-41320357D01*
X72843571Y-41441309D01*
X72813333Y-41501785D01*
X72783095Y-41532023D01*
X72722619Y-41562261D01*
X72662142Y-41562261D01*
X72601666Y-41532023D01*
X72571428Y-41501785D01*
X72541190Y-41441309D01*
X72510952Y-41320357D01*
X72510952Y-41169166D01*
X72541190Y-41048214D01*
X72571428Y-40987738D01*
X72601666Y-40957500D01*
X72662142Y-40927261D01*
X71679404Y-44102261D02*
X71679404Y-43467261D01*
X71830595Y-43467261D01*
X71921309Y-43497500D01*
X71981785Y-43557976D01*
X72012023Y-43618452D01*
X72042261Y-43739404D01*
X72042261Y-43830119D01*
X72012023Y-43951071D01*
X71981785Y-44011547D01*
X71921309Y-44072023D01*
X71830595Y-44102261D01*
X71679404Y-44102261D01*
X72223690Y-43467261D02*
X72586547Y-43467261D01*
X72405119Y-44102261D02*
X72405119Y-43467261D01*
X72919166Y-43467261D02*
X72979642Y-43467261D01*
X73040119Y-43497500D01*
X73070357Y-43527738D01*
X73100595Y-43588214D01*
X73130833Y-43709166D01*
X73130833Y-43860357D01*
X73100595Y-43981309D01*
X73070357Y-44041785D01*
X73040119Y-44072023D01*
X72979642Y-44102261D01*
X72919166Y-44102261D01*
X72858690Y-44072023D01*
X72828452Y-44041785D01*
X72798214Y-43981309D01*
X72767976Y-43860357D01*
X72767976Y-43709166D01*
X72798214Y-43588214D01*
X72828452Y-43527738D01*
X72858690Y-43497500D01*
X72919166Y-43467261D01*
X71271190Y-39052500D02*
X71210714Y-39022261D01*
X71120000Y-39022261D01*
X71029285Y-39052500D01*
X70968809Y-39112976D01*
X70938571Y-39173452D01*
X70908333Y-39294404D01*
X70908333Y-39385119D01*
X70938571Y-39506071D01*
X70968809Y-39566547D01*
X71029285Y-39627023D01*
X71120000Y-39657261D01*
X71180476Y-39657261D01*
X71271190Y-39627023D01*
X71301428Y-39596785D01*
X71301428Y-39385119D01*
X71180476Y-39385119D01*
X71573571Y-39657261D02*
X71573571Y-39022261D01*
X71936428Y-39657261D01*
X71936428Y-39022261D01*
X72238809Y-39657261D02*
X72238809Y-39022261D01*
X72390000Y-39022261D01*
X72480714Y-39052500D01*
X72541190Y-39112976D01*
X72571428Y-39173452D01*
X72601666Y-39294404D01*
X72601666Y-39385119D01*
X72571428Y-39506071D01*
X72541190Y-39566547D01*
X72480714Y-39627023D01*
X72390000Y-39657261D01*
X72238809Y-39657261D01*
X83336190Y-21272500D02*
X83275714Y-21242261D01*
X83185000Y-21242261D01*
X83094285Y-21272500D01*
X83033809Y-21332976D01*
X83003571Y-21393452D01*
X82973333Y-21514404D01*
X82973333Y-21605119D01*
X83003571Y-21726071D01*
X83033809Y-21786547D01*
X83094285Y-21847023D01*
X83185000Y-21877261D01*
X83245476Y-21877261D01*
X83336190Y-21847023D01*
X83366428Y-21816785D01*
X83366428Y-21605119D01*
X83245476Y-21605119D01*
X83638571Y-21877261D02*
X83638571Y-21242261D01*
X84001428Y-21877261D01*
X84001428Y-21242261D01*
X84303809Y-21877261D02*
X84303809Y-21242261D01*
X84455000Y-21242261D01*
X84545714Y-21272500D01*
X84606190Y-21332976D01*
X84636428Y-21393452D01*
X84666666Y-21514404D01*
X84666666Y-21605119D01*
X84636428Y-21726071D01*
X84606190Y-21786547D01*
X84545714Y-21847023D01*
X84455000Y-21877261D01*
X84303809Y-21877261D01*
X80811309Y-21544642D02*
X80902023Y-21574880D01*
X80932261Y-21605119D01*
X80962500Y-21665595D01*
X80962500Y-21756309D01*
X80932261Y-21816785D01*
X80902023Y-21847023D01*
X80841547Y-21877261D01*
X80599642Y-21877261D01*
X80599642Y-21242261D01*
X80811309Y-21242261D01*
X80871785Y-21272500D01*
X80902023Y-21302738D01*
X80932261Y-21363214D01*
X80932261Y-21423690D01*
X80902023Y-21484166D01*
X80871785Y-21514404D01*
X80811309Y-21544642D01*
X80599642Y-21544642D01*
X81204404Y-21695833D02*
X81506785Y-21695833D01*
X81143928Y-21877261D02*
X81355595Y-21242261D01*
X81567261Y-21877261D01*
X81688214Y-21242261D02*
X82051071Y-21242261D01*
X81869642Y-21877261D02*
X81869642Y-21242261D01*
X44253452Y-80599642D02*
X44465119Y-80599642D01*
X44555833Y-80932261D02*
X44253452Y-80932261D01*
X44253452Y-80297261D01*
X44555833Y-80297261D01*
X44827976Y-80690357D02*
X45311785Y-80690357D01*
X45553690Y-80297261D02*
X45946785Y-80297261D01*
X45735119Y-80539166D01*
X45825833Y-80539166D01*
X45886309Y-80569404D01*
X45916547Y-80599642D01*
X45946785Y-80660119D01*
X45946785Y-80811309D01*
X45916547Y-80871785D01*
X45886309Y-80902023D01*
X45825833Y-80932261D01*
X45644404Y-80932261D01*
X45583928Y-80902023D01*
X45553690Y-80871785D01*
X36920714Y-76305833D02*
X37223095Y-76305833D01*
X36860238Y-76487261D02*
X37071904Y-75852261D01*
X37283571Y-76487261D01*
X37495238Y-76245357D02*
X37979047Y-76245357D01*
X36920714Y-80750833D02*
X37223095Y-80750833D01*
X36860238Y-80932261D02*
X37071904Y-80297261D01*
X37283571Y-80932261D01*
X37495238Y-80690357D02*
X37979047Y-80690357D01*
X44253452Y-76154642D02*
X44465119Y-76154642D01*
X44555833Y-76487261D02*
X44253452Y-76487261D01*
X44253452Y-75852261D01*
X44555833Y-75852261D01*
X44827976Y-76245357D02*
X45311785Y-76245357D01*
X45069880Y-76487261D02*
X45069880Y-76003452D01*
X45553690Y-75852261D02*
X45946785Y-75852261D01*
X45735119Y-76094166D01*
X45825833Y-76094166D01*
X45886309Y-76124404D01*
X45916547Y-76154642D01*
X45946785Y-76215119D01*
X45946785Y-76366309D01*
X45916547Y-76426785D01*
X45886309Y-76457023D01*
X45825833Y-76487261D01*
X45644404Y-76487261D01*
X45583928Y-76457023D01*
X45553690Y-76426785D01*
X17870714Y-80750833D02*
X18173095Y-80750833D01*
X17810238Y-80932261D02*
X18021904Y-80297261D01*
X18233571Y-80932261D01*
X18445238Y-80690357D02*
X18929047Y-80690357D01*
X25203452Y-76154642D02*
X25415119Y-76154642D01*
X25505833Y-76487261D02*
X25203452Y-76487261D01*
X25203452Y-75852261D01*
X25505833Y-75852261D01*
X25777976Y-76245357D02*
X26261785Y-76245357D01*
X26019880Y-76487261D02*
X26019880Y-76003452D01*
X26533928Y-75912738D02*
X26564166Y-75882500D01*
X26624642Y-75852261D01*
X26775833Y-75852261D01*
X26836309Y-75882500D01*
X26866547Y-75912738D01*
X26896785Y-75973214D01*
X26896785Y-76033690D01*
X26866547Y-76124404D01*
X26503690Y-76487261D01*
X26896785Y-76487261D01*
X17870714Y-76305833D02*
X18173095Y-76305833D01*
X17810238Y-76487261D02*
X18021904Y-75852261D01*
X18233571Y-76487261D01*
X18445238Y-76245357D02*
X18929047Y-76245357D01*
X25203452Y-80599642D02*
X25415119Y-80599642D01*
X25505833Y-80932261D02*
X25203452Y-80932261D01*
X25203452Y-80297261D01*
X25505833Y-80297261D01*
X25777976Y-80690357D02*
X26261785Y-80690357D01*
X26533928Y-80357738D02*
X26564166Y-80327500D01*
X26624642Y-80297261D01*
X26775833Y-80297261D01*
X26836309Y-80327500D01*
X26866547Y-80357738D01*
X26896785Y-80418214D01*
X26896785Y-80478690D01*
X26866547Y-80569404D01*
X26503690Y-80932261D01*
X26896785Y-80932261D01*
X38190714Y-32490833D02*
X38493095Y-32490833D01*
X38130238Y-32672261D02*
X38341904Y-32037261D01*
X38553571Y-32672261D01*
X38765238Y-32430357D02*
X39249047Y-32430357D01*
X45523452Y-32339642D02*
X45735119Y-32339642D01*
X45825833Y-32672261D02*
X45523452Y-32672261D01*
X45523452Y-32037261D01*
X45825833Y-32037261D01*
X46097976Y-32430357D02*
X46581785Y-32430357D01*
X46339880Y-32672261D02*
X46339880Y-32188452D01*
X47216785Y-32672261D02*
X46853928Y-32672261D01*
X47035357Y-32672261D02*
X47035357Y-32037261D01*
X46974880Y-32127976D01*
X46914404Y-32188452D01*
X46853928Y-32218690D01*
X38190714Y-36935833D02*
X38493095Y-36935833D01*
X38130238Y-37117261D02*
X38341904Y-36482261D01*
X38553571Y-37117261D01*
X38765238Y-36875357D02*
X39249047Y-36875357D01*
X45523452Y-36784642D02*
X45735119Y-36784642D01*
X45825833Y-37117261D02*
X45523452Y-37117261D01*
X45523452Y-36482261D01*
X45825833Y-36482261D01*
X46097976Y-36875357D02*
X46581785Y-36875357D01*
X47216785Y-37117261D02*
X46853928Y-37117261D01*
X47035357Y-37117261D02*
X47035357Y-36482261D01*
X46974880Y-36572976D01*
X46914404Y-36633452D01*
X46853928Y-36663690D01*
X17870714Y-32490833D02*
X18173095Y-32490833D01*
X17810238Y-32672261D02*
X18021904Y-32037261D01*
X18233571Y-32672261D01*
X18445238Y-32430357D02*
X18929047Y-32430357D01*
X25203452Y-32339642D02*
X25415119Y-32339642D01*
X25505833Y-32672261D02*
X25203452Y-32672261D01*
X25203452Y-32037261D01*
X25505833Y-32037261D01*
X25777976Y-32430357D02*
X26261785Y-32430357D01*
X26019880Y-32672261D02*
X26019880Y-32188452D01*
X26685119Y-32037261D02*
X26745595Y-32037261D01*
X26806071Y-32067500D01*
X26836309Y-32097738D01*
X26866547Y-32158214D01*
X26896785Y-32279166D01*
X26896785Y-32430357D01*
X26866547Y-32551309D01*
X26836309Y-32611785D01*
X26806071Y-32642023D01*
X26745595Y-32672261D01*
X26685119Y-32672261D01*
X26624642Y-32642023D01*
X26594404Y-32611785D01*
X26564166Y-32551309D01*
X26533928Y-32430357D01*
X26533928Y-32279166D01*
X26564166Y-32158214D01*
X26594404Y-32097738D01*
X26624642Y-32067500D01*
X26685119Y-32037261D01*
X17870714Y-36935833D02*
X18173095Y-36935833D01*
X17810238Y-37117261D02*
X18021904Y-36482261D01*
X18233571Y-37117261D01*
X18445238Y-36875357D02*
X18929047Y-36875357D01*
X25203452Y-36784642D02*
X25415119Y-36784642D01*
X25505833Y-37117261D02*
X25203452Y-37117261D01*
X25203452Y-36482261D01*
X25505833Y-36482261D01*
X25777976Y-36875357D02*
X26261785Y-36875357D01*
X26685119Y-36482261D02*
X26745595Y-36482261D01*
X26806071Y-36512500D01*
X26836309Y-36542738D01*
X26866547Y-36603214D01*
X26896785Y-36724166D01*
X26896785Y-36875357D01*
X26866547Y-36996309D01*
X26836309Y-37056785D01*
X26806071Y-37087023D01*
X26745595Y-37117261D01*
X26685119Y-37117261D01*
X26624642Y-37087023D01*
X26594404Y-37056785D01*
X26564166Y-36996309D01*
X26533928Y-36875357D01*
X26533928Y-36724166D01*
X26564166Y-36603214D01*
X26594404Y-36542738D01*
X26624642Y-36512500D01*
X26685119Y-36482261D01*
X20108333Y-63787261D02*
X20320000Y-64422261D01*
X20531666Y-63787261D01*
X21106190Y-64361785D02*
X21075952Y-64392023D01*
X20985238Y-64422261D01*
X20924761Y-64422261D01*
X20834047Y-64392023D01*
X20773571Y-64331547D01*
X20743333Y-64271071D01*
X20713095Y-64150119D01*
X20713095Y-64059404D01*
X20743333Y-63938452D01*
X20773571Y-63877976D01*
X20834047Y-63817500D01*
X20924761Y-63787261D01*
X20985238Y-63787261D01*
X21075952Y-63817500D01*
X21106190Y-63847738D01*
X21741190Y-64361785D02*
X21710952Y-64392023D01*
X21620238Y-64422261D01*
X21559761Y-64422261D01*
X21469047Y-64392023D01*
X21408571Y-64331547D01*
X21378333Y-64271071D01*
X21348095Y-64150119D01*
X21348095Y-64059404D01*
X21378333Y-63938452D01*
X21408571Y-63877976D01*
X21469047Y-63817500D01*
X21559761Y-63787261D01*
X21620238Y-63787261D01*
X21710952Y-63817500D01*
X21741190Y-63847738D01*
X22376190Y-64392023D02*
X22466904Y-64422261D01*
X22618095Y-64422261D01*
X22678571Y-64392023D01*
X22708809Y-64361785D01*
X22739047Y-64301309D01*
X22739047Y-64240833D01*
X22708809Y-64180357D01*
X22678571Y-64150119D01*
X22618095Y-64119880D01*
X22497142Y-64089642D01*
X22436666Y-64059404D01*
X22406428Y-64029166D01*
X22376190Y-63968690D01*
X22376190Y-63908214D01*
X22406428Y-63847738D01*
X22436666Y-63817500D01*
X22497142Y-63787261D01*
X22648333Y-63787261D01*
X22739047Y-63817500D01*
X23374047Y-64361785D02*
X23343809Y-64392023D01*
X23253095Y-64422261D01*
X23192619Y-64422261D01*
X23101904Y-64392023D01*
X23041428Y-64331547D01*
X23011190Y-64271071D01*
X22980952Y-64150119D01*
X22980952Y-64059404D01*
X23011190Y-63938452D01*
X23041428Y-63877976D01*
X23101904Y-63817500D01*
X23192619Y-63787261D01*
X23253095Y-63787261D01*
X23343809Y-63817500D01*
X23374047Y-63847738D01*
X23646190Y-64422261D02*
X23646190Y-63787261D01*
X24009047Y-64422261D02*
X23736904Y-64059404D01*
X24009047Y-63787261D02*
X23646190Y-64150119D01*
X24402142Y-63787261D02*
X24462619Y-63787261D01*
X24523095Y-63817500D01*
X24553333Y-63847738D01*
X24583571Y-63908214D01*
X24613809Y-64029166D01*
X24613809Y-64180357D01*
X24583571Y-64301309D01*
X24553333Y-64361785D01*
X24523095Y-64392023D01*
X24462619Y-64422261D01*
X24402142Y-64422261D01*
X24341666Y-64392023D01*
X24311428Y-64361785D01*
X24281190Y-64301309D01*
X24250952Y-64180357D01*
X24250952Y-64029166D01*
X24281190Y-63908214D01*
X24311428Y-63847738D01*
X24341666Y-63817500D01*
X24402142Y-63787261D01*
X28091190Y-63817500D02*
X28030714Y-63787261D01*
X27940000Y-63787261D01*
X27849285Y-63817500D01*
X27788809Y-63877976D01*
X27758571Y-63938452D01*
X27728333Y-64059404D01*
X27728333Y-64150119D01*
X27758571Y-64271071D01*
X27788809Y-64331547D01*
X27849285Y-64392023D01*
X27940000Y-64422261D01*
X28000476Y-64422261D01*
X28091190Y-64392023D01*
X28121428Y-64361785D01*
X28121428Y-64150119D01*
X28000476Y-64150119D01*
X28393571Y-64422261D02*
X28393571Y-63787261D01*
X28756428Y-64422261D01*
X28756428Y-63787261D01*
X29058809Y-64422261D02*
X29058809Y-63787261D01*
X29210000Y-63787261D01*
X29300714Y-63817500D01*
X29361190Y-63877976D01*
X29391428Y-63938452D01*
X29421666Y-64059404D01*
X29421666Y-64150119D01*
X29391428Y-64271071D01*
X29361190Y-64331547D01*
X29300714Y-64392023D01*
X29210000Y-64422261D01*
X29058809Y-64422261D01*
X25324404Y-64422261D02*
X25324404Y-63787261D01*
X25475595Y-63787261D01*
X25566309Y-63817500D01*
X25626785Y-63877976D01*
X25657023Y-63938452D01*
X25687261Y-64059404D01*
X25687261Y-64150119D01*
X25657023Y-64271071D01*
X25626785Y-64331547D01*
X25566309Y-64392023D01*
X25475595Y-64422261D01*
X25324404Y-64422261D01*
X25868690Y-63787261D02*
X26231547Y-63787261D01*
X26050119Y-64422261D02*
X26050119Y-63787261D01*
X26564166Y-63787261D02*
X26624642Y-63787261D01*
X26685119Y-63817500D01*
X26715357Y-63847738D01*
X26745595Y-63908214D01*
X26775833Y-64029166D01*
X26775833Y-64180357D01*
X26745595Y-64301309D01*
X26715357Y-64361785D01*
X26685119Y-64392023D01*
X26624642Y-64422261D01*
X26564166Y-64422261D01*
X26503690Y-64392023D01*
X26473452Y-64361785D01*
X26443214Y-64301309D01*
X26412976Y-64180357D01*
X26412976Y-64029166D01*
X26443214Y-63908214D01*
X26473452Y-63847738D01*
X26503690Y-63817500D01*
X26564166Y-63787261D01*
X44540714Y-89005833D02*
X44843095Y-89005833D01*
X44480238Y-89187261D02*
X44691904Y-88552261D01*
X44903571Y-89187261D01*
X45115238Y-88945357D02*
X45599047Y-88945357D01*
X46793452Y-88854642D02*
X47005119Y-88854642D01*
X47095833Y-89187261D02*
X46793452Y-89187261D01*
X46793452Y-88552261D01*
X47095833Y-88552261D01*
X47367976Y-88945357D02*
X47851785Y-88945357D01*
X48093690Y-88552261D02*
X48486785Y-88552261D01*
X48275119Y-88794166D01*
X48365833Y-88794166D01*
X48426309Y-88824404D01*
X48456547Y-88854642D01*
X48486785Y-88915119D01*
X48486785Y-89066309D01*
X48456547Y-89126785D01*
X48426309Y-89157023D01*
X48365833Y-89187261D01*
X48184404Y-89187261D01*
X48123928Y-89157023D01*
X48093690Y-89126785D01*
X49333452Y-88854642D02*
X49545119Y-88854642D01*
X49635833Y-89187261D02*
X49333452Y-89187261D01*
X49333452Y-88552261D01*
X49635833Y-88552261D01*
X49907976Y-88945357D02*
X50391785Y-88945357D01*
X50149880Y-89187261D02*
X50149880Y-88703452D01*
X50633690Y-88552261D02*
X51026785Y-88552261D01*
X50815119Y-88794166D01*
X50905833Y-88794166D01*
X50966309Y-88824404D01*
X50996547Y-88854642D01*
X51026785Y-88915119D01*
X51026785Y-89066309D01*
X50996547Y-89126785D01*
X50966309Y-89157023D01*
X50905833Y-89187261D01*
X50724404Y-89187261D01*
X50663928Y-89157023D01*
X50633690Y-89126785D01*
X41698333Y-89005833D02*
X42000714Y-89005833D01*
X41637857Y-89187261D02*
X41849523Y-88552261D01*
X42061190Y-89187261D01*
X42272857Y-88945357D02*
X42756666Y-88945357D01*
X42514761Y-89187261D02*
X42514761Y-88703452D01*
X42998571Y-88552261D02*
X43391666Y-88552261D01*
X43180000Y-88794166D01*
X43270714Y-88794166D01*
X43331190Y-88824404D01*
X43361428Y-88854642D01*
X43391666Y-88915119D01*
X43391666Y-89066309D01*
X43361428Y-89126785D01*
X43331190Y-89157023D01*
X43270714Y-89187261D01*
X43089285Y-89187261D01*
X43028809Y-89157023D01*
X42998571Y-89126785D01*
X25490714Y-89005833D02*
X25793095Y-89005833D01*
X25430238Y-89187261D02*
X25641904Y-88552261D01*
X25853571Y-89187261D01*
X26065238Y-88945357D02*
X26549047Y-88945357D01*
X27743452Y-88854642D02*
X27955119Y-88854642D01*
X28045833Y-89187261D02*
X27743452Y-89187261D01*
X27743452Y-88552261D01*
X28045833Y-88552261D01*
X28317976Y-88945357D02*
X28801785Y-88945357D01*
X29073928Y-88612738D02*
X29104166Y-88582500D01*
X29164642Y-88552261D01*
X29315833Y-88552261D01*
X29376309Y-88582500D01*
X29406547Y-88612738D01*
X29436785Y-88673214D01*
X29436785Y-88733690D01*
X29406547Y-88824404D01*
X29043690Y-89187261D01*
X29436785Y-89187261D01*
X30283452Y-88854642D02*
X30495119Y-88854642D01*
X30585833Y-89187261D02*
X30283452Y-89187261D01*
X30283452Y-88552261D01*
X30585833Y-88552261D01*
X30857976Y-88945357D02*
X31341785Y-88945357D01*
X31099880Y-89187261D02*
X31099880Y-88703452D01*
X31613928Y-88612738D02*
X31644166Y-88582500D01*
X31704642Y-88552261D01*
X31855833Y-88552261D01*
X31916309Y-88582500D01*
X31946547Y-88612738D01*
X31976785Y-88673214D01*
X31976785Y-88733690D01*
X31946547Y-88824404D01*
X31583690Y-89187261D01*
X31976785Y-89187261D01*
X22648333Y-89005833D02*
X22950714Y-89005833D01*
X22587857Y-89187261D02*
X22799523Y-88552261D01*
X23011190Y-89187261D01*
X23222857Y-88945357D02*
X23706666Y-88945357D01*
X23464761Y-89187261D02*
X23464761Y-88703452D01*
X23978809Y-88612738D02*
X24009047Y-88582500D01*
X24069523Y-88552261D01*
X24220714Y-88552261D01*
X24281190Y-88582500D01*
X24311428Y-88612738D01*
X24341666Y-88673214D01*
X24341666Y-88733690D01*
X24311428Y-88824404D01*
X23948571Y-89187261D01*
X24341666Y-89187261D01*
X45810714Y-43920833D02*
X46113095Y-43920833D01*
X45750238Y-44102261D02*
X45961904Y-43467261D01*
X46173571Y-44102261D01*
X46385238Y-43860357D02*
X46869047Y-43860357D01*
X48063452Y-43769642D02*
X48275119Y-43769642D01*
X48365833Y-44102261D02*
X48063452Y-44102261D01*
X48063452Y-43467261D01*
X48365833Y-43467261D01*
X48637976Y-43860357D02*
X49121785Y-43860357D01*
X49756785Y-44102261D02*
X49393928Y-44102261D01*
X49575357Y-44102261D02*
X49575357Y-43467261D01*
X49514880Y-43557976D01*
X49454404Y-43618452D01*
X49393928Y-43648690D01*
X50603452Y-43769642D02*
X50815119Y-43769642D01*
X50905833Y-44102261D02*
X50603452Y-44102261D01*
X50603452Y-43467261D01*
X50905833Y-43467261D01*
X51177976Y-43860357D02*
X51661785Y-43860357D01*
X51419880Y-44102261D02*
X51419880Y-43618452D01*
X52296785Y-44102261D02*
X51933928Y-44102261D01*
X52115357Y-44102261D02*
X52115357Y-43467261D01*
X52054880Y-43557976D01*
X51994404Y-43618452D01*
X51933928Y-43648690D01*
X42968333Y-43920833D02*
X43270714Y-43920833D01*
X42907857Y-44102261D02*
X43119523Y-43467261D01*
X43331190Y-44102261D01*
X43542857Y-43860357D02*
X44026666Y-43860357D01*
X43784761Y-44102261D02*
X43784761Y-43618452D01*
X44661666Y-44102261D02*
X44298809Y-44102261D01*
X44480238Y-44102261D02*
X44480238Y-43467261D01*
X44419761Y-43557976D01*
X44359285Y-43618452D01*
X44298809Y-43648690D01*
X30283452Y-43769642D02*
X30495119Y-43769642D01*
X30585833Y-44102261D02*
X30283452Y-44102261D01*
X30283452Y-43467261D01*
X30585833Y-43467261D01*
X30857976Y-43860357D02*
X31341785Y-43860357D01*
X31099880Y-44102261D02*
X31099880Y-43618452D01*
X31765119Y-43467261D02*
X31825595Y-43467261D01*
X31886071Y-43497500D01*
X31916309Y-43527738D01*
X31946547Y-43588214D01*
X31976785Y-43709166D01*
X31976785Y-43860357D01*
X31946547Y-43981309D01*
X31916309Y-44041785D01*
X31886071Y-44072023D01*
X31825595Y-44102261D01*
X31765119Y-44102261D01*
X31704642Y-44072023D01*
X31674404Y-44041785D01*
X31644166Y-43981309D01*
X31613928Y-43860357D01*
X31613928Y-43709166D01*
X31644166Y-43588214D01*
X31674404Y-43527738D01*
X31704642Y-43497500D01*
X31765119Y-43467261D01*
X22648333Y-43920833D02*
X22950714Y-43920833D01*
X22587857Y-44102261D02*
X22799523Y-43467261D01*
X23011190Y-44102261D01*
X23222857Y-43860357D02*
X23706666Y-43860357D01*
X23464761Y-44102261D02*
X23464761Y-43618452D01*
X24130000Y-43467261D02*
X24190476Y-43467261D01*
X24250952Y-43497500D01*
X24281190Y-43527738D01*
X24311428Y-43588214D01*
X24341666Y-43709166D01*
X24341666Y-43860357D01*
X24311428Y-43981309D01*
X24281190Y-44041785D01*
X24250952Y-44072023D01*
X24190476Y-44102261D01*
X24130000Y-44102261D01*
X24069523Y-44072023D01*
X24039285Y-44041785D01*
X24009047Y-43981309D01*
X23978809Y-43860357D01*
X23978809Y-43709166D01*
X24009047Y-43588214D01*
X24039285Y-43527738D01*
X24069523Y-43497500D01*
X24130000Y-43467261D01*
X25490714Y-43920833D02*
X25793095Y-43920833D01*
X25430238Y-44102261D02*
X25641904Y-43467261D01*
X25853571Y-44102261D01*
X26065238Y-43860357D02*
X26549047Y-43860357D01*
X27743452Y-43769642D02*
X27955119Y-43769642D01*
X28045833Y-44102261D02*
X27743452Y-44102261D01*
X27743452Y-43467261D01*
X28045833Y-43467261D01*
X28317976Y-43860357D02*
X28801785Y-43860357D01*
X29225119Y-43467261D02*
X29285595Y-43467261D01*
X29346071Y-43497500D01*
X29376309Y-43527738D01*
X29406547Y-43588214D01*
X29436785Y-43709166D01*
X29436785Y-43860357D01*
X29406547Y-43981309D01*
X29376309Y-44041785D01*
X29346071Y-44072023D01*
X29285595Y-44102261D01*
X29225119Y-44102261D01*
X29164642Y-44072023D01*
X29134404Y-44041785D01*
X29104166Y-43981309D01*
X29073928Y-43860357D01*
X29073928Y-43709166D01*
X29104166Y-43588214D01*
X29134404Y-43527738D01*
X29164642Y-43497500D01*
X29225119Y-43467261D01*
X49333452Y-117429642D02*
X49545119Y-117429642D01*
X49635833Y-117762261D02*
X49333452Y-117762261D01*
X49333452Y-117127261D01*
X49635833Y-117127261D01*
X49907976Y-117520357D02*
X50391785Y-117520357D01*
X50663928Y-117187738D02*
X50694166Y-117157500D01*
X50754642Y-117127261D01*
X50905833Y-117127261D01*
X50966309Y-117157500D01*
X50996547Y-117187738D01*
X51026785Y-117248214D01*
X51026785Y-117308690D01*
X50996547Y-117399404D01*
X50633690Y-117762261D01*
X51026785Y-117762261D01*
X51223333Y-118215833D02*
X51525714Y-118215833D01*
X51162857Y-118397261D02*
X51374523Y-117762261D01*
X51586190Y-118397261D01*
X51797857Y-118155357D02*
X52281666Y-118155357D01*
X52039761Y-118397261D02*
X52039761Y-117913452D01*
X52553809Y-117822738D02*
X52584047Y-117792500D01*
X52644523Y-117762261D01*
X52795714Y-117762261D01*
X52856190Y-117792500D01*
X52886428Y-117822738D01*
X52916666Y-117883214D01*
X52916666Y-117943690D01*
X52886428Y-118034404D01*
X52523571Y-118397261D01*
X52916666Y-118397261D01*
X47428452Y-118064642D02*
X47640119Y-118064642D01*
X47730833Y-118397261D02*
X47428452Y-118397261D01*
X47428452Y-117762261D01*
X47730833Y-117762261D01*
X48002976Y-118155357D02*
X48486785Y-118155357D01*
X48244880Y-118397261D02*
X48244880Y-117913452D01*
X48758928Y-117822738D02*
X48789166Y-117792500D01*
X48849642Y-117762261D01*
X49000833Y-117762261D01*
X49061309Y-117792500D01*
X49091547Y-117822738D01*
X49121785Y-117883214D01*
X49121785Y-117943690D01*
X49091547Y-118034404D01*
X48728690Y-118397261D01*
X49121785Y-118397261D01*
X87433452Y-117429642D02*
X87645119Y-117429642D01*
X87735833Y-117762261D02*
X87433452Y-117762261D01*
X87433452Y-117127261D01*
X87735833Y-117127261D01*
X88007976Y-117520357D02*
X88491785Y-117520357D01*
X88733690Y-117127261D02*
X89126785Y-117127261D01*
X88915119Y-117369166D01*
X89005833Y-117369166D01*
X89066309Y-117399404D01*
X89096547Y-117429642D01*
X89126785Y-117490119D01*
X89126785Y-117641309D01*
X89096547Y-117701785D01*
X89066309Y-117732023D01*
X89005833Y-117762261D01*
X88824404Y-117762261D01*
X88763928Y-117732023D01*
X88733690Y-117701785D01*
X89323333Y-118215833D02*
X89625714Y-118215833D01*
X89262857Y-118397261D02*
X89474523Y-117762261D01*
X89686190Y-118397261D01*
X89897857Y-118155357D02*
X90381666Y-118155357D01*
X90139761Y-118397261D02*
X90139761Y-117913452D01*
X90623571Y-117762261D02*
X91016666Y-117762261D01*
X90805000Y-118004166D01*
X90895714Y-118004166D01*
X90956190Y-118034404D01*
X90986428Y-118064642D01*
X91016666Y-118125119D01*
X91016666Y-118276309D01*
X90986428Y-118336785D01*
X90956190Y-118367023D01*
X90895714Y-118397261D01*
X90714285Y-118397261D01*
X90653809Y-118367023D01*
X90623571Y-118336785D01*
X85528452Y-118064642D02*
X85740119Y-118064642D01*
X85830833Y-118397261D02*
X85528452Y-118397261D01*
X85528452Y-117762261D01*
X85830833Y-117762261D01*
X86102976Y-118155357D02*
X86586785Y-118155357D01*
X86344880Y-118397261D02*
X86344880Y-117913452D01*
X86828690Y-117762261D02*
X87221785Y-117762261D01*
X87010119Y-118004166D01*
X87100833Y-118004166D01*
X87161309Y-118034404D01*
X87191547Y-118064642D01*
X87221785Y-118125119D01*
X87221785Y-118276309D01*
X87191547Y-118336785D01*
X87161309Y-118367023D01*
X87100833Y-118397261D01*
X86919404Y-118397261D01*
X86858928Y-118367023D01*
X86828690Y-118336785D01*
X106483452Y-15194642D02*
X106695119Y-15194642D01*
X106785833Y-15527261D02*
X106483452Y-15527261D01*
X106483452Y-14892261D01*
X106785833Y-14892261D01*
X107057976Y-15285357D02*
X107541785Y-15285357D01*
X108176785Y-15527261D02*
X107813928Y-15527261D01*
X107995357Y-15527261D02*
X107995357Y-14892261D01*
X107934880Y-14982976D01*
X107874404Y-15043452D01*
X107813928Y-15073690D01*
X104563333Y-15980833D02*
X104865714Y-15980833D01*
X104502857Y-16162261D02*
X104714523Y-15527261D01*
X104926190Y-16162261D01*
X105137857Y-15920357D02*
X105621666Y-15920357D01*
X105379761Y-16162261D02*
X105379761Y-15678452D01*
X106256666Y-16162261D02*
X105893809Y-16162261D01*
X106075238Y-16162261D02*
X106075238Y-15527261D01*
X106014761Y-15617976D01*
X105954285Y-15678452D01*
X105893809Y-15708690D01*
X108388452Y-15829642D02*
X108600119Y-15829642D01*
X108690833Y-16162261D02*
X108388452Y-16162261D01*
X108388452Y-15527261D01*
X108690833Y-15527261D01*
X108962976Y-15920357D02*
X109446785Y-15920357D01*
X109204880Y-16162261D02*
X109204880Y-15678452D01*
X110081785Y-16162261D02*
X109718928Y-16162261D01*
X109900357Y-16162261D02*
X109900357Y-15527261D01*
X109839880Y-15617976D01*
X109779404Y-15678452D01*
X109718928Y-15708690D01*
X32188452Y-15829642D02*
X32400119Y-15829642D01*
X32490833Y-16162261D02*
X32188452Y-16162261D01*
X32188452Y-15527261D01*
X32490833Y-15527261D01*
X32762976Y-15920357D02*
X33246785Y-15920357D01*
X33004880Y-16162261D02*
X33004880Y-15678452D01*
X33670119Y-15527261D02*
X33730595Y-15527261D01*
X33791071Y-15557500D01*
X33821309Y-15587738D01*
X33851547Y-15648214D01*
X33881785Y-15769166D01*
X33881785Y-15920357D01*
X33851547Y-16041309D01*
X33821309Y-16101785D01*
X33791071Y-16132023D01*
X33730595Y-16162261D01*
X33670119Y-16162261D01*
X33609642Y-16132023D01*
X33579404Y-16101785D01*
X33549166Y-16041309D01*
X33518928Y-15920357D01*
X33518928Y-15769166D01*
X33549166Y-15648214D01*
X33579404Y-15587738D01*
X33609642Y-15557500D01*
X33670119Y-15527261D01*
X30283452Y-15194642D02*
X30495119Y-15194642D01*
X30585833Y-15527261D02*
X30283452Y-15527261D01*
X30283452Y-14892261D01*
X30585833Y-14892261D01*
X30857976Y-15285357D02*
X31341785Y-15285357D01*
X31765119Y-14892261D02*
X31825595Y-14892261D01*
X31886071Y-14922500D01*
X31916309Y-14952738D01*
X31946547Y-15013214D01*
X31976785Y-15134166D01*
X31976785Y-15285357D01*
X31946547Y-15406309D01*
X31916309Y-15466785D01*
X31886071Y-15497023D01*
X31825595Y-15527261D01*
X31765119Y-15527261D01*
X31704642Y-15497023D01*
X31674404Y-15466785D01*
X31644166Y-15406309D01*
X31613928Y-15285357D01*
X31613928Y-15134166D01*
X31644166Y-15013214D01*
X31674404Y-14952738D01*
X31704642Y-14922500D01*
X31765119Y-14892261D01*
X28363333Y-15980833D02*
X28665714Y-15980833D01*
X28302857Y-16162261D02*
X28514523Y-15527261D01*
X28726190Y-16162261D01*
X28937857Y-15920357D02*
X29421666Y-15920357D01*
X29179761Y-16162261D02*
X29179761Y-15678452D01*
X29845000Y-15527261D02*
X29905476Y-15527261D01*
X29965952Y-15557500D01*
X29996190Y-15587738D01*
X30026428Y-15648214D01*
X30056666Y-15769166D01*
X30056666Y-15920357D01*
X30026428Y-16041309D01*
X29996190Y-16101785D01*
X29965952Y-16132023D01*
X29905476Y-16162261D01*
X29845000Y-16162261D01*
X29784523Y-16132023D01*
X29754285Y-16101785D01*
X29724047Y-16041309D01*
X29693809Y-15920357D01*
X29693809Y-15769166D01*
X29724047Y-15648214D01*
X29754285Y-15587738D01*
X29784523Y-15557500D01*
X29845000Y-15527261D01*
D11*
X54225000Y-123730000D02*
X54225000Y-119010000D01*
X54225000Y-119010000D02*
X46105000Y-119010000D01*
X46105000Y-119010000D02*
X46105000Y-123730000D01*
X46105000Y-123730000D02*
X54225000Y-123730000D01*
X52465000Y-123730000D02*
X52465000Y-123930000D01*
X52465000Y-123930000D02*
X52765000Y-123930000D01*
X52765000Y-123930000D02*
X52765000Y-123730000D01*
X52465000Y-123830000D02*
X52765000Y-123830000D01*
X51665000Y-123730000D02*
X51665000Y-123120000D01*
X51665000Y-123120000D02*
X53615000Y-123120000D01*
X53615000Y-123120000D02*
X53615000Y-119620000D01*
X53615000Y-119620000D02*
X46715000Y-119620000D01*
X46715000Y-119620000D02*
X46715000Y-123120000D01*
X46715000Y-123120000D02*
X48665000Y-123120000D01*
X48665000Y-123120000D02*
X48665000Y-123730000D01*
X54225000Y-122420000D02*
X53615000Y-122420000D01*
X54225000Y-121120000D02*
X53615000Y-121120000D01*
X46105000Y-122420000D02*
X46715000Y-122420000D01*
X46105000Y-121120000D02*
X46715000Y-121120000D01*
X51265000Y-119620000D02*
X51265000Y-120120000D01*
X51265000Y-120120000D02*
X51065000Y-120120000D01*
X51065000Y-120120000D02*
X51065000Y-119620000D01*
X51165000Y-119620000D02*
X51165000Y-120120000D01*
X49265000Y-119620000D02*
X49265000Y-120120000D01*
X49265000Y-120120000D02*
X49065000Y-120120000D01*
X49065000Y-120120000D02*
X49065000Y-119620000D01*
X49165000Y-119620000D02*
X49165000Y-120120000D01*
X53275000Y-124030000D02*
X54525000Y-124030000D01*
X54525000Y-124030000D02*
X54525000Y-122780000D01*
X92325000Y-123730000D02*
X92325000Y-119010000D01*
X92325000Y-119010000D02*
X84205000Y-119010000D01*
X84205000Y-119010000D02*
X84205000Y-123730000D01*
X84205000Y-123730000D02*
X92325000Y-123730000D01*
X90565000Y-123730000D02*
X90565000Y-123930000D01*
X90565000Y-123930000D02*
X90865000Y-123930000D01*
X90865000Y-123930000D02*
X90865000Y-123730000D01*
X90565000Y-123830000D02*
X90865000Y-123830000D01*
X89765000Y-123730000D02*
X89765000Y-123120000D01*
X89765000Y-123120000D02*
X91715000Y-123120000D01*
X91715000Y-123120000D02*
X91715000Y-119620000D01*
X91715000Y-119620000D02*
X84815000Y-119620000D01*
X84815000Y-119620000D02*
X84815000Y-123120000D01*
X84815000Y-123120000D02*
X86765000Y-123120000D01*
X86765000Y-123120000D02*
X86765000Y-123730000D01*
X92325000Y-122420000D02*
X91715000Y-122420000D01*
X92325000Y-121120000D02*
X91715000Y-121120000D01*
X84205000Y-122420000D02*
X84815000Y-122420000D01*
X84205000Y-121120000D02*
X84815000Y-121120000D01*
X89365000Y-119620000D02*
X89365000Y-120120000D01*
X89365000Y-120120000D02*
X89165000Y-120120000D01*
X89165000Y-120120000D02*
X89165000Y-119620000D01*
X89265000Y-119620000D02*
X89265000Y-120120000D01*
X87365000Y-119620000D02*
X87365000Y-120120000D01*
X87365000Y-120120000D02*
X87165000Y-120120000D01*
X87165000Y-120120000D02*
X87165000Y-119620000D01*
X87265000Y-119620000D02*
X87265000Y-120120000D01*
X91375000Y-124030000D02*
X92625000Y-124030000D01*
X92625000Y-124030000D02*
X92625000Y-122780000D01*
X103255000Y-16605000D02*
X103255000Y-21325000D01*
X103255000Y-21325000D02*
X111375000Y-21325000D01*
X111375000Y-21325000D02*
X111375000Y-16605000D01*
X111375000Y-16605000D02*
X103255000Y-16605000D01*
X105015000Y-16605000D02*
X105015000Y-16405000D01*
X105015000Y-16405000D02*
X104715000Y-16405000D01*
X104715000Y-16405000D02*
X104715000Y-16605000D01*
X105015000Y-16505000D02*
X104715000Y-16505000D01*
X105815000Y-16605000D02*
X105815000Y-17215000D01*
X105815000Y-17215000D02*
X103865000Y-17215000D01*
X103865000Y-17215000D02*
X103865000Y-20715000D01*
X103865000Y-20715000D02*
X110765000Y-20715000D01*
X110765000Y-20715000D02*
X110765000Y-17215000D01*
X110765000Y-17215000D02*
X108815000Y-17215000D01*
X108815000Y-17215000D02*
X108815000Y-16605000D01*
X103255000Y-17915000D02*
X103865000Y-17915000D01*
X103255000Y-19215000D02*
X103865000Y-19215000D01*
X111375000Y-17915000D02*
X110765000Y-17915000D01*
X111375000Y-19215000D02*
X110765000Y-19215000D01*
X106215000Y-20715000D02*
X106215000Y-20215000D01*
X106215000Y-20215000D02*
X106415000Y-20215000D01*
X106415000Y-20215000D02*
X106415000Y-20715000D01*
X106315000Y-20715000D02*
X106315000Y-20215000D01*
X108215000Y-20715000D02*
X108215000Y-20215000D01*
X108215000Y-20215000D02*
X108415000Y-20215000D01*
X108415000Y-20215000D02*
X108415000Y-20715000D01*
X108315000Y-20715000D02*
X108315000Y-20215000D01*
X104205000Y-16305000D02*
X102955000Y-16305000D01*
X102955000Y-16305000D02*
X102955000Y-17555000D01*
X27055000Y-16605000D02*
X27055000Y-21325000D01*
X27055000Y-21325000D02*
X35175000Y-21325000D01*
X35175000Y-21325000D02*
X35175000Y-16605000D01*
X35175000Y-16605000D02*
X27055000Y-16605000D01*
X28815000Y-16605000D02*
X28815000Y-16405000D01*
X28815000Y-16405000D02*
X28515000Y-16405000D01*
X28515000Y-16405000D02*
X28515000Y-16605000D01*
X28815000Y-16505000D02*
X28515000Y-16505000D01*
X29615000Y-16605000D02*
X29615000Y-17215000D01*
X29615000Y-17215000D02*
X27665000Y-17215000D01*
X27665000Y-17215000D02*
X27665000Y-20715000D01*
X27665000Y-20715000D02*
X34565000Y-20715000D01*
X34565000Y-20715000D02*
X34565000Y-17215000D01*
X34565000Y-17215000D02*
X32615000Y-17215000D01*
X32615000Y-17215000D02*
X32615000Y-16605000D01*
X27055000Y-17915000D02*
X27665000Y-17915000D01*
X27055000Y-19215000D02*
X27665000Y-19215000D01*
X35175000Y-17915000D02*
X34565000Y-17915000D01*
X35175000Y-19215000D02*
X34565000Y-19215000D01*
X30015000Y-20715000D02*
X30015000Y-20215000D01*
X30015000Y-20215000D02*
X30215000Y-20215000D01*
X30215000Y-20215000D02*
X30215000Y-20715000D01*
X30115000Y-20715000D02*
X30115000Y-20215000D01*
X32015000Y-20715000D02*
X32015000Y-20215000D01*
X32015000Y-20215000D02*
X32215000Y-20215000D01*
X32215000Y-20215000D02*
X32215000Y-20715000D01*
X32115000Y-20715000D02*
X32115000Y-20215000D01*
X28005000Y-16305000D02*
X26755000Y-16305000D01*
X26755000Y-16305000D02*
X26755000Y-17555000D01*
X105985000Y-45720000D02*
X108645000Y-45720000D01*
X105985000Y-45720000D02*
X105985000Y-48320000D01*
X105985000Y-48320000D02*
X108645000Y-48320000D01*
X108645000Y-45720000D02*
X108645000Y-48320000D01*
X108645000Y-43120000D02*
X108645000Y-44450000D01*
X107315000Y-43120000D02*
X108645000Y-43120000D01*
X105985000Y-59055000D02*
X108645000Y-59055000D01*
X105985000Y-59055000D02*
X105985000Y-61655000D01*
X105985000Y-61655000D02*
X108645000Y-61655000D01*
X108645000Y-59055000D02*
X108645000Y-61655000D01*
X108645000Y-56455000D02*
X108645000Y-57785000D01*
X107315000Y-56455000D02*
X108645000Y-56455000D01*
X76200000Y-33020000D02*
X76200000Y-30480000D01*
X76200000Y-30480000D02*
X73530000Y-30480000D01*
X73530000Y-33020000D02*
X73530000Y-71250000D01*
X73530000Y-27810000D02*
X73530000Y-30480000D01*
X88900000Y-30480000D02*
X91570000Y-30480000D01*
X88900000Y-30480000D02*
X88900000Y-68580000D01*
X88900000Y-68580000D02*
X91570000Y-68580000D01*
X76200000Y-33020000D02*
X73530000Y-33020000D01*
X76200000Y-33020000D02*
X76200000Y-68580000D01*
X76200000Y-68580000D02*
X73530000Y-68580000D01*
X73530000Y-71250000D02*
X91570000Y-71250000D01*
X91570000Y-71250000D02*
X91570000Y-27810000D01*
X91570000Y-27810000D02*
X73530000Y-27810000D01*
X51495000Y-85030000D02*
X51495000Y-86360000D01*
X50165000Y-85030000D02*
X51495000Y-85030000D01*
X48895000Y-85030000D02*
X48895000Y-87690000D01*
X48895000Y-87690000D02*
X36135000Y-87690000D01*
X48895000Y-85030000D02*
X36135000Y-85030000D01*
X36135000Y-85030000D02*
X36135000Y-87690000D01*
X114400000Y-106585000D02*
X114070000Y-106585000D01*
X114400000Y-113125000D02*
X114400000Y-106585000D01*
X114070000Y-113125000D02*
X114400000Y-113125000D01*
X111660000Y-106585000D02*
X111990000Y-106585000D01*
X111660000Y-113125000D02*
X111660000Y-106585000D01*
X111990000Y-113125000D02*
X111660000Y-113125000D01*
X111660000Y-94075000D02*
X111990000Y-94075000D01*
X111660000Y-87535000D02*
X111660000Y-94075000D01*
X111990000Y-87535000D02*
X111660000Y-87535000D01*
X114400000Y-94075000D02*
X114070000Y-94075000D01*
X114400000Y-87535000D02*
X114400000Y-94075000D01*
X114070000Y-87535000D02*
X114400000Y-87535000D01*
X117375000Y-113125000D02*
X117705000Y-113125000D01*
X117375000Y-106585000D02*
X117375000Y-113125000D01*
X117705000Y-106585000D02*
X117375000Y-106585000D01*
X120115000Y-113125000D02*
X119785000Y-113125000D01*
X120115000Y-106585000D02*
X120115000Y-113125000D01*
X119785000Y-106585000D02*
X120115000Y-106585000D01*
X117375000Y-94075000D02*
X117705000Y-94075000D01*
X117375000Y-87535000D02*
X117375000Y-94075000D01*
X117705000Y-87535000D02*
X117375000Y-87535000D01*
X120115000Y-94075000D02*
X119785000Y-94075000D01*
X120115000Y-87535000D02*
X120115000Y-94075000D01*
X119785000Y-87535000D02*
X120115000Y-87535000D01*
X79950000Y-19050000D02*
X79950000Y-17720000D01*
X79950000Y-17720000D02*
X81280000Y-17720000D01*
X82550000Y-17720000D02*
X85150000Y-17720000D01*
X85150000Y-20380000D02*
X85150000Y-17720000D01*
X82550000Y-20380000D02*
X85150000Y-20380000D01*
X82550000Y-20380000D02*
X82550000Y-17720000D01*
X94685000Y-80705000D02*
X103315000Y-80705000D01*
X94685000Y-80823095D02*
X103315000Y-80823095D01*
X94685000Y-80941190D02*
X103315000Y-80941190D01*
X94685000Y-81059285D02*
X103315000Y-81059285D01*
X94685000Y-81177380D02*
X103315000Y-81177380D01*
X94685000Y-81295475D02*
X103315000Y-81295475D01*
X94685000Y-81413570D02*
X103315000Y-81413570D01*
X94685000Y-81531665D02*
X103315000Y-81531665D01*
X94685000Y-81649760D02*
X103315000Y-81649760D01*
X94685000Y-81767855D02*
X103315000Y-81767855D01*
X94685000Y-81885950D02*
X103315000Y-81885950D01*
X94685000Y-82004045D02*
X103315000Y-82004045D01*
X94685000Y-82122140D02*
X103315000Y-82122140D01*
X94685000Y-82240235D02*
X103315000Y-82240235D01*
X94685000Y-82358330D02*
X103315000Y-82358330D01*
X94685000Y-82476425D02*
X103315000Y-82476425D01*
X94685000Y-82594520D02*
X103315000Y-82594520D01*
X94685000Y-82712615D02*
X103315000Y-82712615D01*
X94685000Y-82830710D02*
X103315000Y-82830710D01*
X94685000Y-82948805D02*
X103315000Y-82948805D01*
X94685000Y-83066900D02*
X103315000Y-83066900D01*
X103315000Y-81555000D02*
X103665000Y-81555000D01*
X103315000Y-82275000D02*
X103665000Y-82275000D01*
X103315000Y-84095000D02*
X103725000Y-84095000D01*
X103315000Y-84815000D02*
X103725000Y-84815000D01*
X103315000Y-86635000D02*
X103725000Y-86635000D01*
X103315000Y-87355000D02*
X103725000Y-87355000D01*
X103315000Y-89175000D02*
X103725000Y-89175000D01*
X103315000Y-89895000D02*
X103725000Y-89895000D01*
X103315000Y-91715000D02*
X103725000Y-91715000D01*
X103315000Y-92435000D02*
X103725000Y-92435000D01*
X103315000Y-94255000D02*
X103725000Y-94255000D01*
X103315000Y-94975000D02*
X103725000Y-94975000D01*
X94685000Y-83185000D02*
X103315000Y-83185000D01*
X94685000Y-85725000D02*
X103315000Y-85725000D01*
X94685000Y-88265000D02*
X103315000Y-88265000D01*
X94685000Y-90805000D02*
X103315000Y-90805000D01*
X94685000Y-93345000D02*
X103315000Y-93345000D01*
X94685000Y-80585000D02*
X103315000Y-80585000D01*
X103315000Y-80585000D02*
X103315000Y-95945000D01*
X94685000Y-95945000D02*
X103315000Y-95945000D01*
X94685000Y-80585000D02*
X94685000Y-95945000D01*
X105885000Y-80585000D02*
X105885000Y-81915000D01*
X104775000Y-80585000D02*
X105885000Y-80585000D01*
X104775000Y-99635000D02*
X105885000Y-99635000D01*
X105885000Y-99635000D02*
X105885000Y-100965000D01*
X94685000Y-99635000D02*
X94685000Y-114995000D01*
X94685000Y-114995000D02*
X103315000Y-114995000D01*
X103315000Y-99635000D02*
X103315000Y-114995000D01*
X94685000Y-99635000D02*
X103315000Y-99635000D01*
X94685000Y-112395000D02*
X103315000Y-112395000D01*
X94685000Y-109855000D02*
X103315000Y-109855000D01*
X94685000Y-107315000D02*
X103315000Y-107315000D01*
X94685000Y-104775000D02*
X103315000Y-104775000D01*
X94685000Y-102235000D02*
X103315000Y-102235000D01*
X103315000Y-114025000D02*
X103725000Y-114025000D01*
X103315000Y-113305000D02*
X103725000Y-113305000D01*
X103315000Y-111485000D02*
X103725000Y-111485000D01*
X103315000Y-110765000D02*
X103725000Y-110765000D01*
X103315000Y-108945000D02*
X103725000Y-108945000D01*
X103315000Y-108225000D02*
X103725000Y-108225000D01*
X103315000Y-106405000D02*
X103725000Y-106405000D01*
X103315000Y-105685000D02*
X103725000Y-105685000D01*
X103315000Y-103865000D02*
X103725000Y-103865000D01*
X103315000Y-103145000D02*
X103725000Y-103145000D01*
X103315000Y-101325000D02*
X103665000Y-101325000D01*
X103315000Y-100605000D02*
X103665000Y-100605000D01*
X94685000Y-102116900D02*
X103315000Y-102116900D01*
X94685000Y-101998805D02*
X103315000Y-101998805D01*
X94685000Y-101880710D02*
X103315000Y-101880710D01*
X94685000Y-101762615D02*
X103315000Y-101762615D01*
X94685000Y-101644520D02*
X103315000Y-101644520D01*
X94685000Y-101526425D02*
X103315000Y-101526425D01*
X94685000Y-101408330D02*
X103315000Y-101408330D01*
X94685000Y-101290235D02*
X103315000Y-101290235D01*
X94685000Y-101172140D02*
X103315000Y-101172140D01*
X94685000Y-101054045D02*
X103315000Y-101054045D01*
X94685000Y-100935950D02*
X103315000Y-100935950D01*
X94685000Y-100817855D02*
X103315000Y-100817855D01*
X94685000Y-100699760D02*
X103315000Y-100699760D01*
X94685000Y-100581665D02*
X103315000Y-100581665D01*
X94685000Y-100463570D02*
X103315000Y-100463570D01*
X94685000Y-100345475D02*
X103315000Y-100345475D01*
X94685000Y-100227380D02*
X103315000Y-100227380D01*
X94685000Y-100109285D02*
X103315000Y-100109285D01*
X94685000Y-99991190D02*
X103315000Y-99991190D01*
X94685000Y-99873095D02*
X103315000Y-99873095D01*
X94685000Y-99755000D02*
X103315000Y-99755000D01*
X17085000Y-39945000D02*
X17085000Y-42605000D01*
X29845000Y-39945000D02*
X17085000Y-39945000D01*
X29845000Y-42605000D02*
X17085000Y-42605000D01*
X29845000Y-39945000D02*
X29845000Y-42605000D01*
X31115000Y-39945000D02*
X32445000Y-39945000D01*
X32445000Y-39945000D02*
X32445000Y-41275000D01*
X29905000Y-68005000D02*
X29905000Y-65345000D01*
X22225000Y-68005000D02*
X29905000Y-68005000D01*
X22225000Y-65345000D02*
X29905000Y-65345000D01*
X22225000Y-68005000D02*
X22225000Y-65345000D01*
X20955000Y-68005000D02*
X19625000Y-68005000D01*
X19625000Y-68005000D02*
X19625000Y-66675000D01*
X52765000Y-39945000D02*
X52765000Y-41275000D01*
X51435000Y-39945000D02*
X52765000Y-39945000D01*
X50165000Y-39945000D02*
X50165000Y-42605000D01*
X50165000Y-42605000D02*
X37405000Y-42605000D01*
X50165000Y-39945000D02*
X37405000Y-39945000D01*
X37405000Y-39945000D02*
X37405000Y-42605000D01*
X39945000Y-68005000D02*
X39945000Y-66675000D01*
X41275000Y-68005000D02*
X39945000Y-68005000D01*
X42545000Y-68005000D02*
X42545000Y-65345000D01*
X42545000Y-65345000D02*
X50225000Y-65345000D01*
X42545000Y-68005000D02*
X50225000Y-68005000D01*
X50225000Y-68005000D02*
X50225000Y-65345000D01*
X17085000Y-85030000D02*
X17085000Y-87690000D01*
X29845000Y-85030000D02*
X17085000Y-85030000D01*
X29845000Y-87690000D02*
X17085000Y-87690000D01*
X29845000Y-85030000D02*
X29845000Y-87690000D01*
X31115000Y-85030000D02*
X32445000Y-85030000D01*
X32445000Y-85030000D02*
X32445000Y-86360000D01*
X19625000Y-113090000D02*
X19625000Y-111760000D01*
X20955000Y-113090000D02*
X19625000Y-113090000D01*
X22225000Y-113090000D02*
X22225000Y-110430000D01*
X22225000Y-110430000D02*
X29905000Y-110430000D01*
X22225000Y-113090000D02*
X29905000Y-113090000D01*
X29905000Y-113090000D02*
X29905000Y-110430000D01*
X48955000Y-113090000D02*
X48955000Y-110430000D01*
X41275000Y-113090000D02*
X48955000Y-113090000D01*
X41275000Y-110430000D02*
X48955000Y-110430000D01*
X41275000Y-113090000D02*
X41275000Y-110430000D01*
X40005000Y-113090000D02*
X38675000Y-113090000D01*
X38675000Y-113090000D02*
X38675000Y-111760000D01*
X25495000Y-36295000D02*
X25495000Y-35965000D01*
X18955000Y-36295000D02*
X25495000Y-36295000D01*
X18955000Y-35965000D02*
X18955000Y-36295000D01*
X25495000Y-33555000D02*
X25495000Y-33885000D01*
X18955000Y-33555000D02*
X25495000Y-33555000D01*
X18955000Y-33885000D02*
X18955000Y-33555000D01*
X18955000Y-29440000D02*
X18955000Y-29110000D01*
X18955000Y-29110000D02*
X25495000Y-29110000D01*
X25495000Y-29110000D02*
X25495000Y-29440000D01*
X18955000Y-31520000D02*
X18955000Y-31850000D01*
X18955000Y-31850000D02*
X25495000Y-31850000D01*
X25495000Y-31850000D02*
X25495000Y-31520000D01*
X39275000Y-33885000D02*
X39275000Y-33555000D01*
X39275000Y-33555000D02*
X45815000Y-33555000D01*
X45815000Y-33555000D02*
X45815000Y-33885000D01*
X39275000Y-35965000D02*
X39275000Y-36295000D01*
X39275000Y-36295000D02*
X45815000Y-36295000D01*
X45815000Y-36295000D02*
X45815000Y-35965000D01*
X45815000Y-31850000D02*
X45815000Y-31520000D01*
X39275000Y-31850000D02*
X45815000Y-31850000D01*
X39275000Y-31520000D02*
X39275000Y-31850000D01*
X45815000Y-29110000D02*
X45815000Y-29440000D01*
X39275000Y-29110000D02*
X45815000Y-29110000D01*
X39275000Y-29440000D02*
X39275000Y-29110000D01*
X25495000Y-80110000D02*
X25495000Y-79780000D01*
X18955000Y-80110000D02*
X25495000Y-80110000D01*
X18955000Y-79780000D02*
X18955000Y-80110000D01*
X25495000Y-77370000D02*
X25495000Y-77700000D01*
X18955000Y-77370000D02*
X25495000Y-77370000D01*
X18955000Y-77700000D02*
X18955000Y-77370000D01*
X18955000Y-73255000D02*
X18955000Y-72925000D01*
X18955000Y-72925000D02*
X25495000Y-72925000D01*
X25495000Y-72925000D02*
X25495000Y-73255000D01*
X18955000Y-75335000D02*
X18955000Y-75665000D01*
X18955000Y-75665000D02*
X25495000Y-75665000D01*
X25495000Y-75665000D02*
X25495000Y-75335000D01*
X38005000Y-77700000D02*
X38005000Y-77370000D01*
X38005000Y-77370000D02*
X44545000Y-77370000D01*
X44545000Y-77370000D02*
X44545000Y-77700000D01*
X38005000Y-79780000D02*
X38005000Y-80110000D01*
X38005000Y-80110000D02*
X44545000Y-80110000D01*
X44545000Y-80110000D02*
X44545000Y-79780000D01*
X44545000Y-75665000D02*
X44545000Y-75335000D01*
X38005000Y-75665000D02*
X44545000Y-75665000D01*
X38005000Y-75335000D02*
X38005000Y-75665000D01*
X44545000Y-72925000D02*
X44545000Y-73255000D01*
X38005000Y-72925000D02*
X44545000Y-72925000D01*
X38005000Y-73255000D02*
X38005000Y-72925000D01*
D13*
X49831666Y-119467380D02*
X49831666Y-120181666D01*
X49784047Y-120324523D01*
X49688809Y-120419761D01*
X49545952Y-120467380D01*
X49450714Y-120467380D01*
X50450714Y-119895952D02*
X50355476Y-119848333D01*
X50307857Y-119800714D01*
X50260238Y-119705476D01*
X50260238Y-119657857D01*
X50307857Y-119562619D01*
X50355476Y-119515000D01*
X50450714Y-119467380D01*
X50641190Y-119467380D01*
X50736428Y-119515000D01*
X50784047Y-119562619D01*
X50831666Y-119657857D01*
X50831666Y-119705476D01*
X50784047Y-119800714D01*
X50736428Y-119848333D01*
X50641190Y-119895952D01*
X50450714Y-119895952D01*
X50355476Y-119943571D01*
X50307857Y-119991190D01*
X50260238Y-120086428D01*
X50260238Y-120276904D01*
X50307857Y-120372142D01*
X50355476Y-120419761D01*
X50450714Y-120467380D01*
X50641190Y-120467380D01*
X50736428Y-120419761D01*
X50784047Y-120372142D01*
X50831666Y-120276904D01*
X50831666Y-120086428D01*
X50784047Y-119991190D01*
X50736428Y-119943571D01*
X50641190Y-119895952D01*
X87931666Y-119467380D02*
X87931666Y-120181666D01*
X87884047Y-120324523D01*
X87788809Y-120419761D01*
X87645952Y-120467380D01*
X87550714Y-120467380D01*
X88455476Y-120467380D02*
X88645952Y-120467380D01*
X88741190Y-120419761D01*
X88788809Y-120372142D01*
X88884047Y-120229285D01*
X88931666Y-120038809D01*
X88931666Y-119657857D01*
X88884047Y-119562619D01*
X88836428Y-119515000D01*
X88741190Y-119467380D01*
X88550714Y-119467380D01*
X88455476Y-119515000D01*
X88407857Y-119562619D01*
X88360238Y-119657857D01*
X88360238Y-119895952D01*
X88407857Y-119991190D01*
X88455476Y-120038809D01*
X88550714Y-120086428D01*
X88741190Y-120086428D01*
X88836428Y-120038809D01*
X88884047Y-119991190D01*
X88931666Y-119895952D01*
X106981666Y-21677380D02*
X106981666Y-22391666D01*
X106934047Y-22534523D01*
X106838809Y-22629761D01*
X106695952Y-22677380D01*
X106600714Y-22677380D01*
X107362619Y-21677380D02*
X108029285Y-21677380D01*
X107600714Y-22677380D01*
X30781666Y-21677380D02*
X30781666Y-22391666D01*
X30734047Y-22534523D01*
X30638809Y-22629761D01*
X30495952Y-22677380D01*
X30400714Y-22677380D01*
X31686428Y-21677380D02*
X31495952Y-21677380D01*
X31400714Y-21725000D01*
X31353095Y-21772619D01*
X31257857Y-21915476D01*
X31210238Y-22105952D01*
X31210238Y-22486904D01*
X31257857Y-22582142D01*
X31305476Y-22629761D01*
X31400714Y-22677380D01*
X31591190Y-22677380D01*
X31686428Y-22629761D01*
X31734047Y-22582142D01*
X31781666Y-22486904D01*
X31781666Y-22248809D01*
X31734047Y-22153571D01*
X31686428Y-22105952D01*
X31591190Y-22058333D01*
X31400714Y-22058333D01*
X31305476Y-22105952D01*
X31257857Y-22153571D01*
X31210238Y-22248809D01*
X105981666Y-51204761D02*
X106124523Y-51252380D01*
X106362619Y-51252380D01*
X106457857Y-51204761D01*
X106505476Y-51157142D01*
X106553095Y-51061904D01*
X106553095Y-50966666D01*
X106505476Y-50871428D01*
X106457857Y-50823809D01*
X106362619Y-50776190D01*
X106172142Y-50728571D01*
X106076904Y-50680952D01*
X106029285Y-50633333D01*
X105981666Y-50538095D01*
X105981666Y-50442857D01*
X106029285Y-50347619D01*
X106076904Y-50300000D01*
X106172142Y-50252380D01*
X106410238Y-50252380D01*
X106553095Y-50300000D01*
X106886428Y-50252380D02*
X107124523Y-51252380D01*
X107315000Y-50538095D01*
X107505476Y-51252380D01*
X107743571Y-50252380D01*
X108648333Y-51252380D02*
X108076904Y-51252380D01*
X108362619Y-51252380D02*
X108362619Y-50252380D01*
X108267380Y-50395238D01*
X108172142Y-50490476D01*
X108076904Y-50538095D01*
X106576904Y-55467380D02*
X106576904Y-54467380D01*
X106815000Y-54467380D01*
X106957857Y-54515000D01*
X107053095Y-54610238D01*
X107100714Y-54705476D01*
X107148333Y-54895952D01*
X107148333Y-55038809D01*
X107100714Y-55229285D01*
X107053095Y-55324523D01*
X106957857Y-55419761D01*
X106815000Y-55467380D01*
X106576904Y-55467380D01*
X108100714Y-55467380D02*
X107529285Y-55467380D01*
X107815000Y-55467380D02*
X107815000Y-54467380D01*
X107719761Y-54610238D01*
X107624523Y-54705476D01*
X107529285Y-54753095D01*
X81835714Y-26836666D02*
X82311904Y-26836666D01*
X81740476Y-27122380D02*
X82073809Y-26122380D01*
X82407142Y-27122380D01*
X83264285Y-27122380D02*
X82692857Y-27122380D01*
X82978571Y-27122380D02*
X82978571Y-26122380D01*
X82883333Y-26265238D01*
X82788095Y-26360476D01*
X82692857Y-26408095D01*
X119888095Y-118172380D02*
X119888095Y-117172380D01*
X119888095Y-117648571D02*
X120459523Y-117648571D01*
X120459523Y-118172380D02*
X120459523Y-117172380D01*
X121364285Y-117505714D02*
X121364285Y-118172380D01*
X121126190Y-117124761D02*
X120888095Y-117839047D01*
X121507142Y-117839047D01*
X19558095Y-118172380D02*
X19558095Y-117172380D01*
X19558095Y-117648571D02*
X20129523Y-117648571D01*
X20129523Y-118172380D02*
X20129523Y-117172380D01*
X20510476Y-117172380D02*
X21129523Y-117172380D01*
X20796190Y-117553333D01*
X20939047Y-117553333D01*
X21034285Y-117600952D01*
X21081904Y-117648571D01*
X21129523Y-117743809D01*
X21129523Y-117981904D01*
X21081904Y-118077142D01*
X21034285Y-118124761D01*
X20939047Y-118172380D01*
X20653333Y-118172380D01*
X20558095Y-118124761D01*
X20510476Y-118077142D01*
X119888095Y-16572380D02*
X119888095Y-15572380D01*
X119888095Y-16048571D02*
X120459523Y-16048571D01*
X120459523Y-16572380D02*
X120459523Y-15572380D01*
X120888095Y-15667619D02*
X120935714Y-15620000D01*
X121030952Y-15572380D01*
X121269047Y-15572380D01*
X121364285Y-15620000D01*
X121411904Y-15667619D01*
X121459523Y-15762857D01*
X121459523Y-15858095D01*
X121411904Y-16000952D01*
X120840476Y-16572380D01*
X121459523Y-16572380D01*
X18288095Y-16572380D02*
X18288095Y-15572380D01*
X18288095Y-16048571D02*
X18859523Y-16048571D01*
X18859523Y-16572380D02*
X18859523Y-15572380D01*
X19859523Y-16572380D02*
X19288095Y-16572380D01*
X19573809Y-16572380D02*
X19573809Y-15572380D01*
X19478571Y-15715238D01*
X19383333Y-15810476D01*
X19288095Y-15858095D01*
X43005476Y-89622380D02*
X43005476Y-90336666D01*
X42957857Y-90479523D01*
X42862619Y-90574761D01*
X42719761Y-90622380D01*
X42624523Y-90622380D01*
X44005476Y-90622380D02*
X43434047Y-90622380D01*
X43719761Y-90622380D02*
X43719761Y-89622380D01*
X43624523Y-89765238D01*
X43529285Y-89860476D01*
X43434047Y-89908095D01*
X44862619Y-89622380D02*
X44672142Y-89622380D01*
X44576904Y-89670000D01*
X44529285Y-89717619D01*
X44434047Y-89860476D01*
X44386428Y-90050952D01*
X44386428Y-90431904D01*
X44434047Y-90527142D01*
X44481666Y-90574761D01*
X44576904Y-90622380D01*
X44767380Y-90622380D01*
X44862619Y-90574761D01*
X44910238Y-90527142D01*
X44957857Y-90431904D01*
X44957857Y-90193809D01*
X44910238Y-90098571D01*
X44862619Y-90050952D01*
X44767380Y-90003333D01*
X44576904Y-90003333D01*
X44481666Y-90050952D01*
X44434047Y-90098571D01*
X44386428Y-90193809D01*
X112387142Y-116022380D02*
X112053809Y-115546190D01*
X111815714Y-116022380D02*
X111815714Y-115022380D01*
X112196666Y-115022380D01*
X112291904Y-115070000D01*
X112339523Y-115117619D01*
X112387142Y-115212857D01*
X112387142Y-115355714D01*
X112339523Y-115450952D01*
X112291904Y-115498571D01*
X112196666Y-115546190D01*
X111815714Y-115546190D01*
X113339523Y-116022380D02*
X112768095Y-116022380D01*
X113053809Y-116022380D02*
X113053809Y-115022380D01*
X112958571Y-115165238D01*
X112863333Y-115260476D01*
X112768095Y-115308095D01*
X113720476Y-115117619D02*
X113768095Y-115070000D01*
X113863333Y-115022380D01*
X114101428Y-115022380D01*
X114196666Y-115070000D01*
X114244285Y-115117619D01*
X114291904Y-115212857D01*
X114291904Y-115308095D01*
X114244285Y-115450952D01*
X113672857Y-116022380D01*
X114291904Y-116022380D01*
X112387142Y-96972380D02*
X112053809Y-96496190D01*
X111815714Y-96972380D02*
X111815714Y-95972380D01*
X112196666Y-95972380D01*
X112291904Y-96020000D01*
X112339523Y-96067619D01*
X112387142Y-96162857D01*
X112387142Y-96305714D01*
X112339523Y-96400952D01*
X112291904Y-96448571D01*
X112196666Y-96496190D01*
X111815714Y-96496190D01*
X113339523Y-96972380D02*
X112768095Y-96972380D01*
X113053809Y-96972380D02*
X113053809Y-95972380D01*
X112958571Y-96115238D01*
X112863333Y-96210476D01*
X112768095Y-96258095D01*
X114291904Y-96972380D02*
X113720476Y-96972380D01*
X114006190Y-96972380D02*
X114006190Y-95972380D01*
X113910952Y-96115238D01*
X113815714Y-96210476D01*
X113720476Y-96258095D01*
X118102142Y-116022380D02*
X117768809Y-115546190D01*
X117530714Y-116022380D02*
X117530714Y-115022380D01*
X117911666Y-115022380D01*
X118006904Y-115070000D01*
X118054523Y-115117619D01*
X118102142Y-115212857D01*
X118102142Y-115355714D01*
X118054523Y-115450952D01*
X118006904Y-115498571D01*
X117911666Y-115546190D01*
X117530714Y-115546190D01*
X119054523Y-116022380D02*
X118483095Y-116022380D01*
X118768809Y-116022380D02*
X118768809Y-115022380D01*
X118673571Y-115165238D01*
X118578333Y-115260476D01*
X118483095Y-115308095D01*
X119673571Y-115022380D02*
X119768809Y-115022380D01*
X119864047Y-115070000D01*
X119911666Y-115117619D01*
X119959285Y-115212857D01*
X120006904Y-115403333D01*
X120006904Y-115641428D01*
X119959285Y-115831904D01*
X119911666Y-115927142D01*
X119864047Y-115974761D01*
X119768809Y-116022380D01*
X119673571Y-116022380D01*
X119578333Y-115974761D01*
X119530714Y-115927142D01*
X119483095Y-115831904D01*
X119435476Y-115641428D01*
X119435476Y-115403333D01*
X119483095Y-115212857D01*
X119530714Y-115117619D01*
X119578333Y-115070000D01*
X119673571Y-115022380D01*
X118578333Y-96972380D02*
X118245000Y-96496190D01*
X118006904Y-96972380D02*
X118006904Y-95972380D01*
X118387857Y-95972380D01*
X118483095Y-96020000D01*
X118530714Y-96067619D01*
X118578333Y-96162857D01*
X118578333Y-96305714D01*
X118530714Y-96400952D01*
X118483095Y-96448571D01*
X118387857Y-96496190D01*
X118006904Y-96496190D01*
X119054523Y-96972380D02*
X119245000Y-96972380D01*
X119340238Y-96924761D01*
X119387857Y-96877142D01*
X119483095Y-96734285D01*
X119530714Y-96543809D01*
X119530714Y-96162857D01*
X119483095Y-96067619D01*
X119435476Y-96020000D01*
X119340238Y-95972380D01*
X119149761Y-95972380D01*
X119054523Y-96020000D01*
X119006904Y-96067619D01*
X118959285Y-96162857D01*
X118959285Y-96400952D01*
X119006904Y-96496190D01*
X119054523Y-96543809D01*
X119149761Y-96591428D01*
X119340238Y-96591428D01*
X119435476Y-96543809D01*
X119483095Y-96496190D01*
X119530714Y-96400952D01*
X82216666Y-22312380D02*
X82216666Y-23026666D01*
X82169047Y-23169523D01*
X82073809Y-23264761D01*
X81930952Y-23312380D01*
X81835714Y-23312380D01*
X83216666Y-23312380D02*
X82645238Y-23312380D01*
X82930952Y-23312380D02*
X82930952Y-22312380D01*
X82835714Y-22455238D01*
X82740476Y-22550476D01*
X82645238Y-22598095D01*
X100061666Y-78597380D02*
X100061666Y-79311666D01*
X100014047Y-79454523D01*
X99918809Y-79549761D01*
X99775952Y-79597380D01*
X99680714Y-79597380D01*
X100490238Y-78692619D02*
X100537857Y-78645000D01*
X100633095Y-78597380D01*
X100871190Y-78597380D01*
X100966428Y-78645000D01*
X101014047Y-78692619D01*
X101061666Y-78787857D01*
X101061666Y-78883095D01*
X101014047Y-79025952D01*
X100442619Y-79597380D01*
X101061666Y-79597380D01*
X100061666Y-97647380D02*
X100061666Y-98361666D01*
X100014047Y-98504523D01*
X99918809Y-98599761D01*
X99775952Y-98647380D01*
X99680714Y-98647380D01*
X100442619Y-97647380D02*
X101061666Y-97647380D01*
X100728333Y-98028333D01*
X100871190Y-98028333D01*
X100966428Y-98075952D01*
X101014047Y-98123571D01*
X101061666Y-98218809D01*
X101061666Y-98456904D01*
X101014047Y-98552142D01*
X100966428Y-98599761D01*
X100871190Y-98647380D01*
X100585476Y-98647380D01*
X100490238Y-98599761D01*
X100442619Y-98552142D01*
X23955476Y-44537380D02*
X23955476Y-45251666D01*
X23907857Y-45394523D01*
X23812619Y-45489761D01*
X23669761Y-45537380D01*
X23574523Y-45537380D01*
X24955476Y-45537380D02*
X24384047Y-45537380D01*
X24669761Y-45537380D02*
X24669761Y-44537380D01*
X24574523Y-44680238D01*
X24479285Y-44775476D01*
X24384047Y-44823095D01*
X25574523Y-44537380D02*
X25669761Y-44537380D01*
X25765000Y-44585000D01*
X25812619Y-44632619D01*
X25860238Y-44727857D01*
X25907857Y-44918333D01*
X25907857Y-45156428D01*
X25860238Y-45346904D01*
X25812619Y-45442142D01*
X25765000Y-45489761D01*
X25669761Y-45537380D01*
X25574523Y-45537380D01*
X25479285Y-45489761D01*
X25431666Y-45442142D01*
X25384047Y-45346904D01*
X25336428Y-45156428D01*
X25336428Y-44918333D01*
X25384047Y-44727857D01*
X25431666Y-44632619D01*
X25479285Y-44585000D01*
X25574523Y-44537380D01*
X23955476Y-68667380D02*
X23955476Y-69381666D01*
X23907857Y-69524523D01*
X23812619Y-69619761D01*
X23669761Y-69667380D01*
X23574523Y-69667380D01*
X24955476Y-69667380D02*
X24384047Y-69667380D01*
X24669761Y-69667380D02*
X24669761Y-68667380D01*
X24574523Y-68810238D01*
X24479285Y-68905476D01*
X24384047Y-68953095D01*
X25907857Y-69667380D02*
X25336428Y-69667380D01*
X25622142Y-69667380D02*
X25622142Y-68667380D01*
X25526904Y-68810238D01*
X25431666Y-68905476D01*
X25336428Y-68953095D01*
X44275476Y-44537380D02*
X44275476Y-45251666D01*
X44227857Y-45394523D01*
X44132619Y-45489761D01*
X43989761Y-45537380D01*
X43894523Y-45537380D01*
X45275476Y-45537380D02*
X44704047Y-45537380D01*
X44989761Y-45537380D02*
X44989761Y-44537380D01*
X44894523Y-44680238D01*
X44799285Y-44775476D01*
X44704047Y-44823095D01*
X45656428Y-44632619D02*
X45704047Y-44585000D01*
X45799285Y-44537380D01*
X46037380Y-44537380D01*
X46132619Y-44585000D01*
X46180238Y-44632619D01*
X46227857Y-44727857D01*
X46227857Y-44823095D01*
X46180238Y-44965952D01*
X45608809Y-45537380D01*
X46227857Y-45537380D01*
X44275476Y-68667380D02*
X44275476Y-69381666D01*
X44227857Y-69524523D01*
X44132619Y-69619761D01*
X43989761Y-69667380D01*
X43894523Y-69667380D01*
X45275476Y-69667380D02*
X44704047Y-69667380D01*
X44989761Y-69667380D02*
X44989761Y-68667380D01*
X44894523Y-68810238D01*
X44799285Y-68905476D01*
X44704047Y-68953095D01*
X45608809Y-68667380D02*
X46227857Y-68667380D01*
X45894523Y-69048333D01*
X46037380Y-69048333D01*
X46132619Y-69095952D01*
X46180238Y-69143571D01*
X46227857Y-69238809D01*
X46227857Y-69476904D01*
X46180238Y-69572142D01*
X46132619Y-69619761D01*
X46037380Y-69667380D01*
X45751666Y-69667380D01*
X45656428Y-69619761D01*
X45608809Y-69572142D01*
X23955476Y-89622380D02*
X23955476Y-90336666D01*
X23907857Y-90479523D01*
X23812619Y-90574761D01*
X23669761Y-90622380D01*
X23574523Y-90622380D01*
X24955476Y-90622380D02*
X24384047Y-90622380D01*
X24669761Y-90622380D02*
X24669761Y-89622380D01*
X24574523Y-89765238D01*
X24479285Y-89860476D01*
X24384047Y-89908095D01*
X25812619Y-89955714D02*
X25812619Y-90622380D01*
X25574523Y-89574761D02*
X25336428Y-90289047D01*
X25955476Y-90289047D01*
X23955476Y-113752380D02*
X23955476Y-114466666D01*
X23907857Y-114609523D01*
X23812619Y-114704761D01*
X23669761Y-114752380D01*
X23574523Y-114752380D01*
X24955476Y-114752380D02*
X24384047Y-114752380D01*
X24669761Y-114752380D02*
X24669761Y-113752380D01*
X24574523Y-113895238D01*
X24479285Y-113990476D01*
X24384047Y-114038095D01*
X25860238Y-113752380D02*
X25384047Y-113752380D01*
X25336428Y-114228571D01*
X25384047Y-114180952D01*
X25479285Y-114133333D01*
X25717380Y-114133333D01*
X25812619Y-114180952D01*
X25860238Y-114228571D01*
X25907857Y-114323809D01*
X25907857Y-114561904D01*
X25860238Y-114657142D01*
X25812619Y-114704761D01*
X25717380Y-114752380D01*
X25479285Y-114752380D01*
X25384047Y-114704761D01*
X25336428Y-114657142D01*
X43005476Y-113752380D02*
X43005476Y-114466666D01*
X42957857Y-114609523D01*
X42862619Y-114704761D01*
X42719761Y-114752380D01*
X42624523Y-114752380D01*
X44005476Y-114752380D02*
X43434047Y-114752380D01*
X43719761Y-114752380D02*
X43719761Y-113752380D01*
X43624523Y-113895238D01*
X43529285Y-113990476D01*
X43434047Y-114038095D01*
X44338809Y-113752380D02*
X45005476Y-113752380D01*
X44576904Y-114752380D01*
X29043333Y-35377380D02*
X28710000Y-34901190D01*
X28471904Y-35377380D02*
X28471904Y-34377380D01*
X28852857Y-34377380D01*
X28948095Y-34425000D01*
X28995714Y-34472619D01*
X29043333Y-34567857D01*
X29043333Y-34710714D01*
X28995714Y-34805952D01*
X28948095Y-34853571D01*
X28852857Y-34901190D01*
X28471904Y-34901190D01*
X29995714Y-35377380D02*
X29424285Y-35377380D01*
X29710000Y-35377380D02*
X29710000Y-34377380D01*
X29614761Y-34520238D01*
X29519523Y-34615476D01*
X29424285Y-34663095D01*
X29043333Y-30932380D02*
X28710000Y-30456190D01*
X28471904Y-30932380D02*
X28471904Y-29932380D01*
X28852857Y-29932380D01*
X28948095Y-29980000D01*
X28995714Y-30027619D01*
X29043333Y-30122857D01*
X29043333Y-30265714D01*
X28995714Y-30360952D01*
X28948095Y-30408571D01*
X28852857Y-30456190D01*
X28471904Y-30456190D01*
X29424285Y-30027619D02*
X29471904Y-29980000D01*
X29567142Y-29932380D01*
X29805238Y-29932380D01*
X29900476Y-29980000D01*
X29948095Y-30027619D01*
X29995714Y-30122857D01*
X29995714Y-30218095D01*
X29948095Y-30360952D01*
X29376666Y-30932380D01*
X29995714Y-30932380D01*
X49363333Y-35377380D02*
X49030000Y-34901190D01*
X48791904Y-35377380D02*
X48791904Y-34377380D01*
X49172857Y-34377380D01*
X49268095Y-34425000D01*
X49315714Y-34472619D01*
X49363333Y-34567857D01*
X49363333Y-34710714D01*
X49315714Y-34805952D01*
X49268095Y-34853571D01*
X49172857Y-34901190D01*
X48791904Y-34901190D01*
X49696666Y-34377380D02*
X50315714Y-34377380D01*
X49982380Y-34758333D01*
X50125238Y-34758333D01*
X50220476Y-34805952D01*
X50268095Y-34853571D01*
X50315714Y-34948809D01*
X50315714Y-35186904D01*
X50268095Y-35282142D01*
X50220476Y-35329761D01*
X50125238Y-35377380D01*
X49839523Y-35377380D01*
X49744285Y-35329761D01*
X49696666Y-35282142D01*
X49363333Y-30932380D02*
X49030000Y-30456190D01*
X48791904Y-30932380D02*
X48791904Y-29932380D01*
X49172857Y-29932380D01*
X49268095Y-29980000D01*
X49315714Y-30027619D01*
X49363333Y-30122857D01*
X49363333Y-30265714D01*
X49315714Y-30360952D01*
X49268095Y-30408571D01*
X49172857Y-30456190D01*
X48791904Y-30456190D01*
X50220476Y-30265714D02*
X50220476Y-30932380D01*
X49982380Y-29884761D02*
X49744285Y-30599047D01*
X50363333Y-30599047D01*
X29043333Y-79192380D02*
X28710000Y-78716190D01*
X28471904Y-79192380D02*
X28471904Y-78192380D01*
X28852857Y-78192380D01*
X28948095Y-78240000D01*
X28995714Y-78287619D01*
X29043333Y-78382857D01*
X29043333Y-78525714D01*
X28995714Y-78620952D01*
X28948095Y-78668571D01*
X28852857Y-78716190D01*
X28471904Y-78716190D01*
X29948095Y-78192380D02*
X29471904Y-78192380D01*
X29424285Y-78668571D01*
X29471904Y-78620952D01*
X29567142Y-78573333D01*
X29805238Y-78573333D01*
X29900476Y-78620952D01*
X29948095Y-78668571D01*
X29995714Y-78763809D01*
X29995714Y-79001904D01*
X29948095Y-79097142D01*
X29900476Y-79144761D01*
X29805238Y-79192380D01*
X29567142Y-79192380D01*
X29471904Y-79144761D01*
X29424285Y-79097142D01*
X29043333Y-74747380D02*
X28710000Y-74271190D01*
X28471904Y-74747380D02*
X28471904Y-73747380D01*
X28852857Y-73747380D01*
X28948095Y-73795000D01*
X28995714Y-73842619D01*
X29043333Y-73937857D01*
X29043333Y-74080714D01*
X28995714Y-74175952D01*
X28948095Y-74223571D01*
X28852857Y-74271190D01*
X28471904Y-74271190D01*
X29900476Y-73747380D02*
X29710000Y-73747380D01*
X29614761Y-73795000D01*
X29567142Y-73842619D01*
X29471904Y-73985476D01*
X29424285Y-74175952D01*
X29424285Y-74556904D01*
X29471904Y-74652142D01*
X29519523Y-74699761D01*
X29614761Y-74747380D01*
X29805238Y-74747380D01*
X29900476Y-74699761D01*
X29948095Y-74652142D01*
X29995714Y-74556904D01*
X29995714Y-74318809D01*
X29948095Y-74223571D01*
X29900476Y-74175952D01*
X29805238Y-74128333D01*
X29614761Y-74128333D01*
X29519523Y-74175952D01*
X29471904Y-74223571D01*
X29424285Y-74318809D01*
X48093333Y-79192380D02*
X47760000Y-78716190D01*
X47521904Y-79192380D02*
X47521904Y-78192380D01*
X47902857Y-78192380D01*
X47998095Y-78240000D01*
X48045714Y-78287619D01*
X48093333Y-78382857D01*
X48093333Y-78525714D01*
X48045714Y-78620952D01*
X47998095Y-78668571D01*
X47902857Y-78716190D01*
X47521904Y-78716190D01*
X48426666Y-78192380D02*
X49093333Y-78192380D01*
X48664761Y-79192380D01*
X48093333Y-74747380D02*
X47760000Y-74271190D01*
X47521904Y-74747380D02*
X47521904Y-73747380D01*
X47902857Y-73747380D01*
X47998095Y-73795000D01*
X48045714Y-73842619D01*
X48093333Y-73937857D01*
X48093333Y-74080714D01*
X48045714Y-74175952D01*
X47998095Y-74223571D01*
X47902857Y-74271190D01*
X47521904Y-74271190D01*
X48664761Y-74175952D02*
X48569523Y-74128333D01*
X48521904Y-74080714D01*
X48474285Y-73985476D01*
X48474285Y-73937857D01*
X48521904Y-73842619D01*
X48569523Y-73795000D01*
X48664761Y-73747380D01*
X48855238Y-73747380D01*
X48950476Y-73795000D01*
X48998095Y-73842619D01*
X49045714Y-73937857D01*
X49045714Y-73985476D01*
X48998095Y-74080714D01*
X48950476Y-74128333D01*
X48855238Y-74175952D01*
X48664761Y-74175952D01*
X48569523Y-74223571D01*
X48521904Y-74271190D01*
X48474285Y-74366428D01*
X48474285Y-74556904D01*
X48521904Y-74652142D01*
X48569523Y-74699761D01*
X48664761Y-74747380D01*
X48855238Y-74747380D01*
X48950476Y-74699761D01*
X48998095Y-74652142D01*
X49045714Y-74556904D01*
X49045714Y-74366428D01*
X48998095Y-74271190D01*
X48950476Y-74223571D01*
X48855238Y-74175952D01*
%LPC*%
D14*
X48165000Y-121920000D03*
X50165000Y-121920000D03*
G36*
G01*
X52765000Y-121294999D02*
X52765000Y-122545001D01*
G75*
G02*
X52515001Y-122795000I-249999J0D01*
G01*
X51814999Y-122795000D01*
G75*
G02*
X51565000Y-122545001I0J249999D01*
G01*
X51565000Y-121294999D01*
G75*
G02*
X51814999Y-121045000I249999J0D01*
G01*
X52515001Y-121045000D01*
G75*
G02*
X52765000Y-121294999I0J-249999D01*
G01*
G37*
X86265000Y-121920000D03*
X88265000Y-121920000D03*
G36*
G01*
X90865000Y-121294999D02*
X90865000Y-122545001D01*
G75*
G02*
X90615001Y-122795000I-249999J0D01*
G01*
X89914999Y-122795000D01*
G75*
G02*
X89665000Y-122545001I0J249999D01*
G01*
X89665000Y-121294999D01*
G75*
G02*
X89914999Y-121045000I249999J0D01*
G01*
X90615001Y-121045000D01*
G75*
G02*
X90865000Y-121294999I0J-249999D01*
G01*
G37*
X109315000Y-18415000D03*
X107315000Y-18415000D03*
G36*
G01*
X104715000Y-19040001D02*
X104715000Y-17789999D01*
G75*
G02*
X104964999Y-17540000I249999J0D01*
G01*
X105665001Y-17540000D01*
G75*
G02*
X105915000Y-17789999I0J-249999D01*
G01*
X105915000Y-19040001D01*
G75*
G02*
X105665001Y-19290000I-249999J0D01*
G01*
X104964999Y-19290000D01*
G75*
G02*
X104715000Y-19040001I0J249999D01*
G01*
G37*
X33115000Y-18415000D03*
X31115000Y-18415000D03*
G36*
G01*
X28515000Y-19040001D02*
X28515000Y-17789999D01*
G75*
G02*
X28764999Y-17540000I249999J0D01*
G01*
X29465001Y-17540000D01*
G75*
G02*
X29715000Y-17789999I0J-249999D01*
G01*
X29715000Y-19040001D01*
G75*
G02*
X29465001Y-19290000I-249999J0D01*
G01*
X28764999Y-19290000D01*
G75*
G02*
X28515000Y-19040001I0J249999D01*
G01*
G37*
D15*
X107315000Y-46990000D03*
D16*
X107315000Y-44450000D03*
D15*
X107315000Y-60325000D03*
D16*
X107315000Y-57785000D03*
D17*
X90170000Y-67310000D03*
X74930000Y-67310000D03*
X90170000Y-31750000D03*
X74930000Y-64770000D03*
X90170000Y-34290000D03*
X74930000Y-62230000D03*
X90170000Y-36830000D03*
X74930000Y-59690000D03*
X90170000Y-39370000D03*
X74930000Y-57150000D03*
X90170000Y-41910000D03*
X74930000Y-54610000D03*
X90170000Y-44450000D03*
X74930000Y-52070000D03*
X90170000Y-46990000D03*
X74930000Y-49530000D03*
X90170000Y-49530000D03*
X74930000Y-46990000D03*
X90170000Y-52070000D03*
X74930000Y-44450000D03*
X90170000Y-54610000D03*
X74930000Y-41910000D03*
X90170000Y-57150000D03*
X74930000Y-39370000D03*
X90170000Y-59690000D03*
X74930000Y-36830000D03*
X90170000Y-62230000D03*
X74930000Y-34290000D03*
X90170000Y-64770000D03*
D18*
X74930000Y-31750000D03*
D19*
X120650000Y-120650000D03*
X20320000Y-120650000D03*
X120650000Y-19050000D03*
X19050000Y-19050000D03*
D16*
X50165000Y-86360000D03*
D15*
X47625000Y-86360000D03*
X45085000Y-86360000D03*
X42545000Y-86360000D03*
X40005000Y-86360000D03*
X37465000Y-86360000D03*
D20*
X113030000Y-113665000D03*
D17*
X113030000Y-106045000D03*
D20*
X113030000Y-86995000D03*
D17*
X113030000Y-94615000D03*
D20*
X118745000Y-106045000D03*
D17*
X118745000Y-113665000D03*
D20*
X118745000Y-86995000D03*
D17*
X118745000Y-94615000D03*
D16*
X81280000Y-19050000D03*
D15*
X83820000Y-19050000D03*
X104775000Y-94615000D03*
X104775000Y-92075000D03*
X104775000Y-89535000D03*
X104775000Y-86995000D03*
X104775000Y-84455000D03*
D16*
X104775000Y-81915000D03*
X104775000Y-100965000D03*
D15*
X104775000Y-103505000D03*
X104775000Y-106045000D03*
X104775000Y-108585000D03*
X104775000Y-111125000D03*
X104775000Y-113665000D03*
X18415000Y-41275000D03*
X20955000Y-41275000D03*
X23495000Y-41275000D03*
X26035000Y-41275000D03*
X28575000Y-41275000D03*
D16*
X31115000Y-41275000D03*
D15*
X28575000Y-66675000D03*
X26035000Y-66675000D03*
X23495000Y-66675000D03*
D16*
X20955000Y-66675000D03*
X51435000Y-41275000D03*
D15*
X48895000Y-41275000D03*
X46355000Y-41275000D03*
X43815000Y-41275000D03*
X41275000Y-41275000D03*
X38735000Y-41275000D03*
D16*
X41275000Y-66675000D03*
D15*
X43815000Y-66675000D03*
X46355000Y-66675000D03*
X48895000Y-66675000D03*
X18415000Y-86360000D03*
X20955000Y-86360000D03*
X23495000Y-86360000D03*
X26035000Y-86360000D03*
X28575000Y-86360000D03*
D16*
X31115000Y-86360000D03*
X20955000Y-111760000D03*
D15*
X23495000Y-111760000D03*
X26035000Y-111760000D03*
X28575000Y-111760000D03*
X47625000Y-111760000D03*
X45085000Y-111760000D03*
X42545000Y-111760000D03*
D16*
X40005000Y-111760000D03*
D20*
X18415000Y-34925000D03*
D17*
X26035000Y-34925000D03*
X26035000Y-30480000D03*
D20*
X18415000Y-30480000D03*
D17*
X46355000Y-34925000D03*
D20*
X38735000Y-34925000D03*
X38735000Y-30480000D03*
D17*
X46355000Y-30480000D03*
D20*
X18415000Y-78740000D03*
D17*
X26035000Y-78740000D03*
X26035000Y-74295000D03*
D20*
X18415000Y-74295000D03*
D17*
X45085000Y-78740000D03*
D20*
X37465000Y-78740000D03*
X37465000Y-74295000D03*
D17*
X45085000Y-74295000D03*
M02*
