G04 #@! TF.GenerationSoftware,KiCad,Pcbnew,(5.1.9)-1*
G04 #@! TF.CreationDate,2022-02-19T11:53:10-06:00*
G04 #@! TF.ProjectId,V2_load_cell,56325f6c-6f61-4645-9f63-656c6c2e6b69,rev?*
G04 #@! TF.SameCoordinates,Original*
G04 #@! TF.FileFunction,Soldermask,Top*
G04 #@! TF.FilePolarity,Negative*
%FSLAX46Y46*%
G04 Gerber Fmt 4.6, Leading zero omitted, Abs format (unit mm)*
G04 Created by KiCad (PCBNEW (5.1.9)-1) date 2022-02-19 11:53:10*
%MOMM*%
%LPD*%
G01*
G04 APERTURE LIST*
%ADD10O,1.200000X1.750000*%
%ADD11O,1.700000X1.700000*%
%ADD12R,1.700000X1.700000*%
%ADD13O,1.600000X1.600000*%
%ADD14R,1.600000X1.600000*%
%ADD15C,3.200000*%
%ADD16C,1.600000*%
G04 APERTURE END LIST*
D10*
X105855000Y-19685000D03*
X107855000Y-19685000D03*
G36*
G01*
X110455000Y-19059999D02*
X110455000Y-20310001D01*
G75*
G02*
X110205001Y-20560000I-249999J0D01*
G01*
X109504999Y-20560000D01*
G75*
G02*
X109255000Y-20310001I0J249999D01*
G01*
X109255000Y-19059999D01*
G75*
G02*
X109504999Y-18810000I249999J0D01*
G01*
X110205001Y-18810000D01*
G75*
G02*
X110455000Y-19059999I0J-249999D01*
G01*
G37*
X29845000Y-19685000D03*
X31845000Y-19685000D03*
G36*
G01*
X34445000Y-19059999D02*
X34445000Y-20310001D01*
G75*
G02*
X34195001Y-20560000I-249999J0D01*
G01*
X33494999Y-20560000D01*
G75*
G02*
X33245000Y-20310001I0J249999D01*
G01*
X33245000Y-19059999D01*
G75*
G02*
X33494999Y-18810000I249999J0D01*
G01*
X34195001Y-18810000D01*
G75*
G02*
X34445000Y-19059999I0J-249999D01*
G01*
G37*
G36*
G01*
X105255000Y-120005001D02*
X105255000Y-118754999D01*
G75*
G02*
X105504999Y-118505000I249999J0D01*
G01*
X106205001Y-118505000D01*
G75*
G02*
X106455000Y-118754999I0J-249999D01*
G01*
X106455000Y-120005001D01*
G75*
G02*
X106205001Y-120255000I-249999J0D01*
G01*
X105504999Y-120255000D01*
G75*
G02*
X105255000Y-120005001I0J249999D01*
G01*
G37*
X107855000Y-119380000D03*
X109855000Y-119380000D03*
X33845000Y-119380000D03*
X31845000Y-119380000D03*
G36*
G01*
X29245000Y-120005001D02*
X29245000Y-118754999D01*
G75*
G02*
X29494999Y-118505000I249999J0D01*
G01*
X30195001Y-118505000D01*
G75*
G02*
X30445000Y-118754999I0J-249999D01*
G01*
X30445000Y-120005001D01*
G75*
G02*
X30195001Y-120255000I-249999J0D01*
G01*
X29494999Y-120255000D01*
G75*
G02*
X29245000Y-120005001I0J249999D01*
G01*
G37*
D11*
X107315000Y-46990000D03*
D12*
X107315000Y-44450000D03*
D11*
X107315000Y-60325000D03*
D12*
X107315000Y-57785000D03*
D13*
X90170000Y-67310000D03*
X74930000Y-67310000D03*
X90170000Y-31750000D03*
X74930000Y-64770000D03*
X90170000Y-34290000D03*
X74930000Y-62230000D03*
X90170000Y-36830000D03*
X74930000Y-59690000D03*
X90170000Y-39370000D03*
X74930000Y-57150000D03*
X90170000Y-41910000D03*
X74930000Y-54610000D03*
X90170000Y-44450000D03*
X74930000Y-52070000D03*
X90170000Y-46990000D03*
X74930000Y-49530000D03*
X90170000Y-49530000D03*
X74930000Y-46990000D03*
X90170000Y-52070000D03*
X74930000Y-44450000D03*
X90170000Y-54610000D03*
X74930000Y-41910000D03*
X90170000Y-57150000D03*
X74930000Y-39370000D03*
X90170000Y-59690000D03*
X74930000Y-36830000D03*
X90170000Y-62230000D03*
X74930000Y-34290000D03*
X90170000Y-64770000D03*
D14*
X74930000Y-31750000D03*
D15*
X120650000Y-120650000D03*
X20320000Y-120650000D03*
X120650000Y-19050000D03*
X19050000Y-19050000D03*
D12*
X50165000Y-86360000D03*
D11*
X47625000Y-86360000D03*
X45085000Y-86360000D03*
X42545000Y-86360000D03*
X40005000Y-86360000D03*
X37465000Y-86360000D03*
D16*
X113030000Y-113665000D03*
D13*
X113030000Y-106045000D03*
D16*
X113030000Y-86995000D03*
D13*
X113030000Y-94615000D03*
D16*
X118745000Y-106045000D03*
D13*
X118745000Y-113665000D03*
D16*
X118745000Y-86995000D03*
D13*
X118745000Y-94615000D03*
D12*
X81280000Y-19050000D03*
D11*
X83820000Y-19050000D03*
X104775000Y-94615000D03*
X104775000Y-92075000D03*
X104775000Y-89535000D03*
X104775000Y-86995000D03*
X104775000Y-84455000D03*
D12*
X104775000Y-81915000D03*
X104775000Y-100965000D03*
D11*
X104775000Y-103505000D03*
X104775000Y-106045000D03*
X104775000Y-108585000D03*
X104775000Y-111125000D03*
X104775000Y-113665000D03*
X18415000Y-41275000D03*
X20955000Y-41275000D03*
X23495000Y-41275000D03*
X26035000Y-41275000D03*
X28575000Y-41275000D03*
D12*
X31115000Y-41275000D03*
D11*
X28575000Y-66675000D03*
X26035000Y-66675000D03*
X23495000Y-66675000D03*
D12*
X20955000Y-66675000D03*
X51435000Y-41275000D03*
D11*
X48895000Y-41275000D03*
X46355000Y-41275000D03*
X43815000Y-41275000D03*
X41275000Y-41275000D03*
X38735000Y-41275000D03*
D12*
X41275000Y-66675000D03*
D11*
X43815000Y-66675000D03*
X46355000Y-66675000D03*
X48895000Y-66675000D03*
X18415000Y-86360000D03*
X20955000Y-86360000D03*
X23495000Y-86360000D03*
X26035000Y-86360000D03*
X28575000Y-86360000D03*
D12*
X31115000Y-86360000D03*
X20955000Y-111760000D03*
D11*
X23495000Y-111760000D03*
X26035000Y-111760000D03*
X28575000Y-111760000D03*
X47625000Y-111760000D03*
X45085000Y-111760000D03*
X42545000Y-111760000D03*
D12*
X40005000Y-111760000D03*
D16*
X18415000Y-34925000D03*
D13*
X26035000Y-34925000D03*
X26035000Y-30480000D03*
D16*
X18415000Y-30480000D03*
D13*
X46355000Y-34925000D03*
D16*
X38735000Y-34925000D03*
X38735000Y-30480000D03*
D13*
X46355000Y-30480000D03*
D16*
X18415000Y-78740000D03*
D13*
X26035000Y-78740000D03*
X26035000Y-74295000D03*
D16*
X18415000Y-74295000D03*
D13*
X45085000Y-78740000D03*
D16*
X37465000Y-78740000D03*
X37465000Y-74295000D03*
D13*
X45085000Y-74295000D03*
M02*
