G04 #@! TF.GenerationSoftware,KiCad,Pcbnew,(5.1.9)-1*
G04 #@! TF.CreationDate,2022-02-26T19:57:59-06:00*
G04 #@! TF.ProjectId,V2_load_cell,56325f6c-6f61-4645-9f63-656c6c2e6b69,rev?*
G04 #@! TF.SameCoordinates,Original*
G04 #@! TF.FileFunction,Legend,Bot*
G04 #@! TF.FilePolarity,Positive*
%FSLAX46Y46*%
G04 Gerber Fmt 4.6, Leading zero omitted, Abs format (unit mm)*
G04 Created by KiCad (PCBNEW (5.1.9)-1) date 2022-02-26 19:57:59*
%MOMM*%
%LPD*%
G01*
G04 APERTURE LIST*
%ADD10C,0.127000*%
%ADD11C,0.120000*%
%ADD12C,0.010000*%
%ADD13C,0.150000*%
%ADD14O,1.600000X1.600000*%
%ADD15R,1.600000X1.600000*%
%ADD16O,1.200000X1.750000*%
%ADD17O,1.700000X1.700000*%
%ADD18R,1.700000X1.700000*%
%ADD19C,3.200000*%
%ADD20C,1.600000*%
G04 APERTURE END LIST*
D10*
X50996547Y-117429642D02*
X50784880Y-117429642D01*
X50694166Y-117762261D02*
X50996547Y-117762261D01*
X50996547Y-117127261D01*
X50694166Y-117127261D01*
X50422023Y-117520357D02*
X49938214Y-117520357D01*
X49666071Y-117187738D02*
X49635833Y-117157500D01*
X49575357Y-117127261D01*
X49424166Y-117127261D01*
X49363690Y-117157500D01*
X49333452Y-117187738D01*
X49303214Y-117248214D01*
X49303214Y-117308690D01*
X49333452Y-117399404D01*
X49696309Y-117762261D01*
X49303214Y-117762261D01*
X52916666Y-118215833D02*
X52614285Y-118215833D01*
X52977142Y-118397261D02*
X52765476Y-117762261D01*
X52553809Y-118397261D01*
X52342142Y-118155357D02*
X51858333Y-118155357D01*
X52100238Y-118397261D02*
X52100238Y-117913452D01*
X51586190Y-117822738D02*
X51555952Y-117792500D01*
X51495476Y-117762261D01*
X51344285Y-117762261D01*
X51283809Y-117792500D01*
X51253571Y-117822738D01*
X51223333Y-117883214D01*
X51223333Y-117943690D01*
X51253571Y-118034404D01*
X51616428Y-118397261D01*
X51223333Y-118397261D01*
X49091547Y-118064642D02*
X48879880Y-118064642D01*
X48789166Y-118397261D02*
X49091547Y-118397261D01*
X49091547Y-117762261D01*
X48789166Y-117762261D01*
X48517023Y-118155357D02*
X48033214Y-118155357D01*
X48275119Y-118397261D02*
X48275119Y-117913452D01*
X47761071Y-117822738D02*
X47730833Y-117792500D01*
X47670357Y-117762261D01*
X47519166Y-117762261D01*
X47458690Y-117792500D01*
X47428452Y-117822738D01*
X47398214Y-117883214D01*
X47398214Y-117943690D01*
X47428452Y-118034404D01*
X47791309Y-118397261D01*
X47398214Y-118397261D01*
X89096547Y-117429642D02*
X88884880Y-117429642D01*
X88794166Y-117762261D02*
X89096547Y-117762261D01*
X89096547Y-117127261D01*
X88794166Y-117127261D01*
X88522023Y-117520357D02*
X88038214Y-117520357D01*
X87796309Y-117127261D02*
X87403214Y-117127261D01*
X87614880Y-117369166D01*
X87524166Y-117369166D01*
X87463690Y-117399404D01*
X87433452Y-117429642D01*
X87403214Y-117490119D01*
X87403214Y-117641309D01*
X87433452Y-117701785D01*
X87463690Y-117732023D01*
X87524166Y-117762261D01*
X87705595Y-117762261D01*
X87766071Y-117732023D01*
X87796309Y-117701785D01*
X91016666Y-118215833D02*
X90714285Y-118215833D01*
X91077142Y-118397261D02*
X90865476Y-117762261D01*
X90653809Y-118397261D01*
X90442142Y-118155357D02*
X89958333Y-118155357D01*
X90200238Y-118397261D02*
X90200238Y-117913452D01*
X89716428Y-117762261D02*
X89323333Y-117762261D01*
X89535000Y-118004166D01*
X89444285Y-118004166D01*
X89383809Y-118034404D01*
X89353571Y-118064642D01*
X89323333Y-118125119D01*
X89323333Y-118276309D01*
X89353571Y-118336785D01*
X89383809Y-118367023D01*
X89444285Y-118397261D01*
X89625714Y-118397261D01*
X89686190Y-118367023D01*
X89716428Y-118336785D01*
X87191547Y-118064642D02*
X86979880Y-118064642D01*
X86889166Y-118397261D02*
X87191547Y-118397261D01*
X87191547Y-117762261D01*
X86889166Y-117762261D01*
X86617023Y-118155357D02*
X86133214Y-118155357D01*
X86375119Y-118397261D02*
X86375119Y-117913452D01*
X85891309Y-117762261D02*
X85498214Y-117762261D01*
X85709880Y-118004166D01*
X85619166Y-118004166D01*
X85558690Y-118034404D01*
X85528452Y-118064642D01*
X85498214Y-118125119D01*
X85498214Y-118276309D01*
X85528452Y-118336785D01*
X85558690Y-118367023D01*
X85619166Y-118397261D01*
X85800595Y-118397261D01*
X85861071Y-118367023D01*
X85891309Y-118336785D01*
X108146547Y-15194642D02*
X107934880Y-15194642D01*
X107844166Y-15527261D02*
X108146547Y-15527261D01*
X108146547Y-14892261D01*
X107844166Y-14892261D01*
X107572023Y-15285357D02*
X107088214Y-15285357D01*
X106453214Y-15527261D02*
X106816071Y-15527261D01*
X106634642Y-15527261D02*
X106634642Y-14892261D01*
X106695119Y-14982976D01*
X106755595Y-15043452D01*
X106816071Y-15073690D01*
X106256666Y-15980833D02*
X105954285Y-15980833D01*
X106317142Y-16162261D02*
X106105476Y-15527261D01*
X105893809Y-16162261D01*
X105682142Y-15920357D02*
X105198333Y-15920357D01*
X105440238Y-16162261D02*
X105440238Y-15678452D01*
X104563333Y-16162261D02*
X104926190Y-16162261D01*
X104744761Y-16162261D02*
X104744761Y-15527261D01*
X104805238Y-15617976D01*
X104865714Y-15678452D01*
X104926190Y-15708690D01*
X110051547Y-15829642D02*
X109839880Y-15829642D01*
X109749166Y-16162261D02*
X110051547Y-16162261D01*
X110051547Y-15527261D01*
X109749166Y-15527261D01*
X109477023Y-15920357D02*
X108993214Y-15920357D01*
X109235119Y-16162261D02*
X109235119Y-15678452D01*
X108358214Y-16162261D02*
X108721071Y-16162261D01*
X108539642Y-16162261D02*
X108539642Y-15527261D01*
X108600119Y-15617976D01*
X108660595Y-15678452D01*
X108721071Y-15708690D01*
X33851547Y-15829642D02*
X33639880Y-15829642D01*
X33549166Y-16162261D02*
X33851547Y-16162261D01*
X33851547Y-15527261D01*
X33549166Y-15527261D01*
X33277023Y-15920357D02*
X32793214Y-15920357D01*
X33035119Y-16162261D02*
X33035119Y-15678452D01*
X32369880Y-15527261D02*
X32309404Y-15527261D01*
X32248928Y-15557500D01*
X32218690Y-15587738D01*
X32188452Y-15648214D01*
X32158214Y-15769166D01*
X32158214Y-15920357D01*
X32188452Y-16041309D01*
X32218690Y-16101785D01*
X32248928Y-16132023D01*
X32309404Y-16162261D01*
X32369880Y-16162261D01*
X32430357Y-16132023D01*
X32460595Y-16101785D01*
X32490833Y-16041309D01*
X32521071Y-15920357D01*
X32521071Y-15769166D01*
X32490833Y-15648214D01*
X32460595Y-15587738D01*
X32430357Y-15557500D01*
X32369880Y-15527261D01*
X31946547Y-15194642D02*
X31734880Y-15194642D01*
X31644166Y-15527261D02*
X31946547Y-15527261D01*
X31946547Y-14892261D01*
X31644166Y-14892261D01*
X31372023Y-15285357D02*
X30888214Y-15285357D01*
X30464880Y-14892261D02*
X30404404Y-14892261D01*
X30343928Y-14922500D01*
X30313690Y-14952738D01*
X30283452Y-15013214D01*
X30253214Y-15134166D01*
X30253214Y-15285357D01*
X30283452Y-15406309D01*
X30313690Y-15466785D01*
X30343928Y-15497023D01*
X30404404Y-15527261D01*
X30464880Y-15527261D01*
X30525357Y-15497023D01*
X30555595Y-15466785D01*
X30585833Y-15406309D01*
X30616071Y-15285357D01*
X30616071Y-15134166D01*
X30585833Y-15013214D01*
X30555595Y-14952738D01*
X30525357Y-14922500D01*
X30464880Y-14892261D01*
X30056666Y-15980833D02*
X29754285Y-15980833D01*
X30117142Y-16162261D02*
X29905476Y-15527261D01*
X29693809Y-16162261D01*
X29482142Y-15920357D02*
X28998333Y-15920357D01*
X29240238Y-16162261D02*
X29240238Y-15678452D01*
X28575000Y-15527261D02*
X28514523Y-15527261D01*
X28454047Y-15557500D01*
X28423809Y-15587738D01*
X28393571Y-15648214D01*
X28363333Y-15769166D01*
X28363333Y-15920357D01*
X28393571Y-16041309D01*
X28423809Y-16101785D01*
X28454047Y-16132023D01*
X28514523Y-16162261D01*
X28575000Y-16162261D01*
X28635476Y-16132023D01*
X28665714Y-16101785D01*
X28695952Y-16041309D01*
X28726190Y-15920357D01*
X28726190Y-15769166D01*
X28695952Y-15648214D01*
X28665714Y-15587738D01*
X28635476Y-15557500D01*
X28575000Y-15527261D01*
D11*
X45805000Y-124030000D02*
X45805000Y-122780000D01*
X47055000Y-124030000D02*
X45805000Y-124030000D01*
X51165000Y-119620000D02*
X51165000Y-120120000D01*
X51265000Y-120120000D02*
X51265000Y-119620000D01*
X51065000Y-120120000D02*
X51265000Y-120120000D01*
X51065000Y-119620000D02*
X51065000Y-120120000D01*
X49165000Y-119620000D02*
X49165000Y-120120000D01*
X49265000Y-120120000D02*
X49265000Y-119620000D01*
X49065000Y-120120000D02*
X49265000Y-120120000D01*
X49065000Y-119620000D02*
X49065000Y-120120000D01*
X54225000Y-121120000D02*
X53615000Y-121120000D01*
X54225000Y-122420000D02*
X53615000Y-122420000D01*
X46105000Y-121120000D02*
X46715000Y-121120000D01*
X46105000Y-122420000D02*
X46715000Y-122420000D01*
X51665000Y-123120000D02*
X51665000Y-123730000D01*
X53615000Y-123120000D02*
X51665000Y-123120000D01*
X53615000Y-119620000D02*
X53615000Y-123120000D01*
X46715000Y-119620000D02*
X53615000Y-119620000D01*
X46715000Y-123120000D02*
X46715000Y-119620000D01*
X48665000Y-123120000D02*
X46715000Y-123120000D01*
X48665000Y-123730000D02*
X48665000Y-123120000D01*
X47865000Y-123830000D02*
X47565000Y-123830000D01*
X47565000Y-123930000D02*
X47565000Y-123730000D01*
X47865000Y-123930000D02*
X47565000Y-123930000D01*
X47865000Y-123730000D02*
X47865000Y-123930000D01*
X54225000Y-123730000D02*
X46105000Y-123730000D01*
X54225000Y-119010000D02*
X54225000Y-123730000D01*
X46105000Y-119010000D02*
X54225000Y-119010000D01*
X46105000Y-123730000D02*
X46105000Y-119010000D01*
X83905000Y-124030000D02*
X83905000Y-122780000D01*
X85155000Y-124030000D02*
X83905000Y-124030000D01*
X89265000Y-119620000D02*
X89265000Y-120120000D01*
X89365000Y-120120000D02*
X89365000Y-119620000D01*
X89165000Y-120120000D02*
X89365000Y-120120000D01*
X89165000Y-119620000D02*
X89165000Y-120120000D01*
X87265000Y-119620000D02*
X87265000Y-120120000D01*
X87365000Y-120120000D02*
X87365000Y-119620000D01*
X87165000Y-120120000D02*
X87365000Y-120120000D01*
X87165000Y-119620000D02*
X87165000Y-120120000D01*
X92325000Y-121120000D02*
X91715000Y-121120000D01*
X92325000Y-122420000D02*
X91715000Y-122420000D01*
X84205000Y-121120000D02*
X84815000Y-121120000D01*
X84205000Y-122420000D02*
X84815000Y-122420000D01*
X89765000Y-123120000D02*
X89765000Y-123730000D01*
X91715000Y-123120000D02*
X89765000Y-123120000D01*
X91715000Y-119620000D02*
X91715000Y-123120000D01*
X84815000Y-119620000D02*
X91715000Y-119620000D01*
X84815000Y-123120000D02*
X84815000Y-119620000D01*
X86765000Y-123120000D02*
X84815000Y-123120000D01*
X86765000Y-123730000D02*
X86765000Y-123120000D01*
X85965000Y-123830000D02*
X85665000Y-123830000D01*
X85665000Y-123930000D02*
X85665000Y-123730000D01*
X85965000Y-123930000D02*
X85665000Y-123930000D01*
X85965000Y-123730000D02*
X85965000Y-123930000D01*
X92325000Y-123730000D02*
X84205000Y-123730000D01*
X92325000Y-119010000D02*
X92325000Y-123730000D01*
X84205000Y-119010000D02*
X92325000Y-119010000D01*
X84205000Y-123730000D02*
X84205000Y-119010000D01*
X111580000Y-16305000D02*
X111580000Y-17555000D01*
X110330000Y-16305000D02*
X111580000Y-16305000D01*
X106220000Y-20715000D02*
X106220000Y-20215000D01*
X106120000Y-20215000D02*
X106120000Y-20715000D01*
X106320000Y-20215000D02*
X106120000Y-20215000D01*
X106320000Y-20715000D02*
X106320000Y-20215000D01*
X108220000Y-20715000D02*
X108220000Y-20215000D01*
X108120000Y-20215000D02*
X108120000Y-20715000D01*
X108320000Y-20215000D02*
X108120000Y-20215000D01*
X108320000Y-20715000D02*
X108320000Y-20215000D01*
X103160000Y-19215000D02*
X103770000Y-19215000D01*
X103160000Y-17915000D02*
X103770000Y-17915000D01*
X111280000Y-19215000D02*
X110670000Y-19215000D01*
X111280000Y-17915000D02*
X110670000Y-17915000D01*
X105720000Y-17215000D02*
X105720000Y-16605000D01*
X103770000Y-17215000D02*
X105720000Y-17215000D01*
X103770000Y-20715000D02*
X103770000Y-17215000D01*
X110670000Y-20715000D02*
X103770000Y-20715000D01*
X110670000Y-17215000D02*
X110670000Y-20715000D01*
X108720000Y-17215000D02*
X110670000Y-17215000D01*
X108720000Y-16605000D02*
X108720000Y-17215000D01*
X109520000Y-16505000D02*
X109820000Y-16505000D01*
X109820000Y-16405000D02*
X109820000Y-16605000D01*
X109520000Y-16405000D02*
X109820000Y-16405000D01*
X109520000Y-16605000D02*
X109520000Y-16405000D01*
X103160000Y-16605000D02*
X111280000Y-16605000D01*
X103160000Y-21325000D02*
X103160000Y-16605000D01*
X111280000Y-21325000D02*
X103160000Y-21325000D01*
X111280000Y-16605000D02*
X111280000Y-21325000D01*
X35475000Y-16305000D02*
X35475000Y-17555000D01*
X34225000Y-16305000D02*
X35475000Y-16305000D01*
X30115000Y-20715000D02*
X30115000Y-20215000D01*
X30015000Y-20215000D02*
X30015000Y-20715000D01*
X30215000Y-20215000D02*
X30015000Y-20215000D01*
X30215000Y-20715000D02*
X30215000Y-20215000D01*
X32115000Y-20715000D02*
X32115000Y-20215000D01*
X32015000Y-20215000D02*
X32015000Y-20715000D01*
X32215000Y-20215000D02*
X32015000Y-20215000D01*
X32215000Y-20715000D02*
X32215000Y-20215000D01*
X27055000Y-19215000D02*
X27665000Y-19215000D01*
X27055000Y-17915000D02*
X27665000Y-17915000D01*
X35175000Y-19215000D02*
X34565000Y-19215000D01*
X35175000Y-17915000D02*
X34565000Y-17915000D01*
X29615000Y-17215000D02*
X29615000Y-16605000D01*
X27665000Y-17215000D02*
X29615000Y-17215000D01*
X27665000Y-20715000D02*
X27665000Y-17215000D01*
X34565000Y-20715000D02*
X27665000Y-20715000D01*
X34565000Y-17215000D02*
X34565000Y-20715000D01*
X32615000Y-17215000D02*
X34565000Y-17215000D01*
X32615000Y-16605000D02*
X32615000Y-17215000D01*
X33415000Y-16505000D02*
X33715000Y-16505000D01*
X33715000Y-16405000D02*
X33715000Y-16605000D01*
X33415000Y-16405000D02*
X33715000Y-16405000D01*
X33415000Y-16605000D02*
X33415000Y-16405000D01*
X27055000Y-16605000D02*
X35175000Y-16605000D01*
X27055000Y-21325000D02*
X27055000Y-16605000D01*
X35175000Y-21325000D02*
X27055000Y-21325000D01*
X35175000Y-16605000D02*
X35175000Y-21325000D01*
D12*
G36*
X114370555Y-45261389D02*
G01*
X114546944Y-45437778D01*
X114723333Y-45261389D01*
X114546944Y-45085000D01*
X114370555Y-45261389D01*
G37*
X114370555Y-45261389D02*
X114546944Y-45437778D01*
X114723333Y-45261389D01*
X114546944Y-45085000D01*
X114370555Y-45261389D01*
G36*
X94085833Y-51387939D02*
G01*
X93374057Y-51664974D01*
X92510148Y-52286183D01*
X91708070Y-53057494D01*
X91181789Y-53784833D01*
X91087222Y-54107773D01*
X91179294Y-54404230D01*
X91566204Y-54349604D01*
X92233750Y-54027444D01*
X93184065Y-53635752D01*
X94204665Y-53368823D01*
X95083577Y-53261531D01*
X95608828Y-53348750D01*
X95673333Y-53461558D01*
X95392544Y-53794272D01*
X94696215Y-54265537D01*
X94480108Y-54386592D01*
X93678755Y-54953243D01*
X93060278Y-55622754D01*
X92722293Y-56239297D01*
X92762411Y-56647043D01*
X93014243Y-56726666D01*
X93611637Y-56508600D01*
X93733055Y-56373889D01*
X94230638Y-56077532D01*
X94635820Y-56021111D01*
X95197142Y-55839483D01*
X95320555Y-55597778D01*
X95424682Y-55352343D01*
X95743889Y-55597778D01*
X96447570Y-55966592D01*
X96823042Y-56021111D01*
X97290242Y-56134135D01*
X97316024Y-56285694D01*
X97462680Y-56495486D01*
X98062513Y-56593273D01*
X98870591Y-56569285D01*
X99641983Y-56413749D01*
X99730277Y-56382016D01*
X100437939Y-56238717D01*
X100754924Y-56296151D01*
X100901944Y-56245412D01*
X100818742Y-56069864D01*
X100398818Y-55811528D01*
X100239109Y-55857290D01*
X100056046Y-55785311D01*
X100094958Y-55614677D01*
X99546827Y-55614677D01*
X99219080Y-56022594D01*
X98936527Y-56130710D01*
X98367998Y-56287416D01*
X98227983Y-56332966D01*
X98313597Y-56114779D01*
X98563175Y-55691152D01*
X98999489Y-55225609D01*
X99271720Y-55182805D01*
X99546827Y-55614677D01*
X100094958Y-55614677D01*
X100109879Y-55549252D01*
X100568206Y-55197129D01*
X100976530Y-55216354D01*
X101398175Y-55250107D01*
X101537267Y-54935203D01*
X101459690Y-54106242D01*
X101448749Y-54030841D01*
X101313028Y-53045380D01*
X101231239Y-52342138D01*
X101224816Y-52259989D01*
X100877762Y-51957101D01*
X100807956Y-51936880D01*
X95437658Y-51936880D01*
X95339762Y-52247278D01*
X94800533Y-52228646D01*
X94077830Y-52253983D01*
X93753587Y-52460112D01*
X93291617Y-52824533D01*
X93162249Y-52846111D01*
X92960850Y-52633787D01*
X93006031Y-52528070D01*
X93453037Y-52194996D01*
X94234495Y-51850305D01*
X95029877Y-51664373D01*
X95401415Y-51858884D01*
X95437658Y-51936880D01*
X100807956Y-51936880D01*
X99973204Y-51695077D01*
X98658824Y-51491955D01*
X97082306Y-51365777D01*
X95391330Y-51334581D01*
X94085833Y-51387939D01*
G37*
X94085833Y-51387939D02*
X93374057Y-51664974D01*
X92510148Y-52286183D01*
X91708070Y-53057494D01*
X91181789Y-53784833D01*
X91087222Y-54107773D01*
X91179294Y-54404230D01*
X91566204Y-54349604D01*
X92233750Y-54027444D01*
X93184065Y-53635752D01*
X94204665Y-53368823D01*
X95083577Y-53261531D01*
X95608828Y-53348750D01*
X95673333Y-53461558D01*
X95392544Y-53794272D01*
X94696215Y-54265537D01*
X94480108Y-54386592D01*
X93678755Y-54953243D01*
X93060278Y-55622754D01*
X92722293Y-56239297D01*
X92762411Y-56647043D01*
X93014243Y-56726666D01*
X93611637Y-56508600D01*
X93733055Y-56373889D01*
X94230638Y-56077532D01*
X94635820Y-56021111D01*
X95197142Y-55839483D01*
X95320555Y-55597778D01*
X95424682Y-55352343D01*
X95743889Y-55597778D01*
X96447570Y-55966592D01*
X96823042Y-56021111D01*
X97290242Y-56134135D01*
X97316024Y-56285694D01*
X97462680Y-56495486D01*
X98062513Y-56593273D01*
X98870591Y-56569285D01*
X99641983Y-56413749D01*
X99730277Y-56382016D01*
X100437939Y-56238717D01*
X100754924Y-56296151D01*
X100901944Y-56245412D01*
X100818742Y-56069864D01*
X100398818Y-55811528D01*
X100239109Y-55857290D01*
X100056046Y-55785311D01*
X100094958Y-55614677D01*
X99546827Y-55614677D01*
X99219080Y-56022594D01*
X98936527Y-56130710D01*
X98367998Y-56287416D01*
X98227983Y-56332966D01*
X98313597Y-56114779D01*
X98563175Y-55691152D01*
X98999489Y-55225609D01*
X99271720Y-55182805D01*
X99546827Y-55614677D01*
X100094958Y-55614677D01*
X100109879Y-55549252D01*
X100568206Y-55197129D01*
X100976530Y-55216354D01*
X101398175Y-55250107D01*
X101537267Y-54935203D01*
X101459690Y-54106242D01*
X101448749Y-54030841D01*
X101313028Y-53045380D01*
X101231239Y-52342138D01*
X101224816Y-52259989D01*
X100877762Y-51957101D01*
X100807956Y-51936880D01*
X95437658Y-51936880D01*
X95339762Y-52247278D01*
X94800533Y-52228646D01*
X94077830Y-52253983D01*
X93753587Y-52460112D01*
X93291617Y-52824533D01*
X93162249Y-52846111D01*
X92960850Y-52633787D01*
X93006031Y-52528070D01*
X93453037Y-52194996D01*
X94234495Y-51850305D01*
X95029877Y-51664373D01*
X95401415Y-51858884D01*
X95437658Y-51936880D01*
X100807956Y-51936880D01*
X99973204Y-51695077D01*
X98658824Y-51491955D01*
X97082306Y-51365777D01*
X95391330Y-51334581D01*
X94085833Y-51387939D01*
G36*
X99553889Y-57255833D02*
G01*
X99730277Y-57432222D01*
X99906666Y-57255833D01*
X99730277Y-57079444D01*
X99553889Y-57255833D01*
G37*
X99553889Y-57255833D02*
X99730277Y-57432222D01*
X99906666Y-57255833D01*
X99730277Y-57079444D01*
X99553889Y-57255833D01*
G36*
X98495555Y-57608611D02*
G01*
X98671944Y-57785000D01*
X98848333Y-57608611D01*
X98671944Y-57432222D01*
X98495555Y-57608611D01*
G37*
X98495555Y-57608611D02*
X98671944Y-57785000D01*
X98848333Y-57608611D01*
X98671944Y-57432222D01*
X98495555Y-57608611D01*
G36*
X86853889Y-62547500D02*
G01*
X87030277Y-62723889D01*
X87206666Y-62547500D01*
X87030277Y-62371111D01*
X86853889Y-62547500D01*
G37*
X86853889Y-62547500D02*
X87030277Y-62723889D01*
X87206666Y-62547500D01*
X87030277Y-62371111D01*
X86853889Y-62547500D01*
G36*
X115076111Y-63605833D02*
G01*
X115252500Y-63782222D01*
X115428889Y-63605833D01*
X115252500Y-63429444D01*
X115076111Y-63605833D01*
G37*
X115076111Y-63605833D02*
X115252500Y-63782222D01*
X115428889Y-63605833D01*
X115252500Y-63429444D01*
X115076111Y-63605833D01*
G36*
X100342700Y-64605610D02*
G01*
X100662236Y-64946681D01*
X100767843Y-65028164D01*
X101515720Y-65437803D01*
X101981797Y-65546111D01*
X102251319Y-65450718D01*
X101931783Y-65109647D01*
X101826176Y-65028164D01*
X101078298Y-64618525D01*
X100612222Y-64510217D01*
X100342700Y-64605610D01*
G37*
X100342700Y-64605610D02*
X100662236Y-64946681D01*
X100767843Y-65028164D01*
X101515720Y-65437803D01*
X101981797Y-65546111D01*
X102251319Y-65450718D01*
X101931783Y-65109647D01*
X101826176Y-65028164D01*
X101078298Y-64618525D01*
X100612222Y-64510217D01*
X100342700Y-64605610D01*
G36*
X88029815Y-66016481D02*
G01*
X87987594Y-66435146D01*
X88029815Y-66486852D01*
X88239541Y-66438426D01*
X88265000Y-66251667D01*
X88135924Y-65961290D01*
X88029815Y-66016481D01*
G37*
X88029815Y-66016481D02*
X87987594Y-66435146D01*
X88029815Y-66486852D01*
X88239541Y-66438426D01*
X88265000Y-66251667D01*
X88135924Y-65961290D01*
X88029815Y-66016481D01*
G36*
X89323333Y-67839167D02*
G01*
X89499722Y-68015555D01*
X89676111Y-67839167D01*
X89499722Y-67662778D01*
X89323333Y-67839167D01*
G37*
X89323333Y-67839167D02*
X89499722Y-68015555D01*
X89676111Y-67839167D01*
X89499722Y-67662778D01*
X89323333Y-67839167D01*
G36*
X89793703Y-68485926D02*
G01*
X89751483Y-68904590D01*
X89793703Y-68956296D01*
X90003429Y-68907870D01*
X90028889Y-68721111D01*
X89899813Y-68430735D01*
X89793703Y-68485926D01*
G37*
X89793703Y-68485926D02*
X89751483Y-68904590D01*
X89793703Y-68956296D01*
X90003429Y-68907870D01*
X90028889Y-68721111D01*
X89899813Y-68430735D01*
X89793703Y-68485926D01*
G36*
X98717583Y-62114094D02*
G01*
X97804253Y-62739143D01*
X96678184Y-63710294D01*
X95720037Y-64659014D01*
X94554986Y-65989637D01*
X93933657Y-67025762D01*
X93819731Y-67874588D01*
X94176890Y-68643317D01*
X94313558Y-68810594D01*
X94790335Y-69334701D01*
X94913766Y-69334155D01*
X94801051Y-68855901D01*
X94763133Y-67969731D01*
X95012254Y-67068350D01*
X95445439Y-66416970D01*
X95812218Y-66251667D01*
X96302092Y-65974411D01*
X96907709Y-65281615D01*
X97095578Y-64998929D01*
X97807263Y-64045600D01*
X98574651Y-63293047D01*
X98711850Y-63194467D01*
X99328657Y-62627072D01*
X99553889Y-62134204D01*
X99330140Y-61893122D01*
X98717583Y-62114094D01*
G37*
X98717583Y-62114094D02*
X97804253Y-62739143D01*
X96678184Y-63710294D01*
X95720037Y-64659014D01*
X94554986Y-65989637D01*
X93933657Y-67025762D01*
X93819731Y-67874588D01*
X94176890Y-68643317D01*
X94313558Y-68810594D01*
X94790335Y-69334701D01*
X94913766Y-69334155D01*
X94801051Y-68855901D01*
X94763133Y-67969731D01*
X95012254Y-67068350D01*
X95445439Y-66416970D01*
X95812218Y-66251667D01*
X96302092Y-65974411D01*
X96907709Y-65281615D01*
X97095578Y-64998929D01*
X97807263Y-64045600D01*
X98574651Y-63293047D01*
X98711850Y-63194467D01*
X99328657Y-62627072D01*
X99553889Y-62134204D01*
X99330140Y-61893122D01*
X98717583Y-62114094D01*
G36*
X90146481Y-69544259D02*
G01*
X90104261Y-69962924D01*
X90146481Y-70014629D01*
X90356207Y-69966204D01*
X90381666Y-69779444D01*
X90252591Y-69489068D01*
X90146481Y-69544259D01*
G37*
X90146481Y-69544259D02*
X90104261Y-69962924D01*
X90146481Y-70014629D01*
X90356207Y-69966204D01*
X90381666Y-69779444D01*
X90252591Y-69489068D01*
X90146481Y-69544259D01*
G36*
X106256666Y-71014167D02*
G01*
X106433055Y-71190555D01*
X106609444Y-71014167D01*
X106433055Y-70837778D01*
X106256666Y-71014167D01*
G37*
X106256666Y-71014167D02*
X106433055Y-71190555D01*
X106609444Y-71014167D01*
X106433055Y-70837778D01*
X106256666Y-71014167D01*
G36*
X99553889Y-71366944D02*
G01*
X99730277Y-71543333D01*
X99906666Y-71366944D01*
X99730277Y-71190555D01*
X99553889Y-71366944D01*
G37*
X99553889Y-71366944D02*
X99730277Y-71543333D01*
X99906666Y-71366944D01*
X99730277Y-71190555D01*
X99553889Y-71366944D01*
G36*
X100377037Y-71660926D02*
G01*
X100425462Y-71870652D01*
X100612222Y-71896111D01*
X100902598Y-71767035D01*
X100847407Y-71660926D01*
X100428742Y-71618705D01*
X100377037Y-71660926D01*
G37*
X100377037Y-71660926D02*
X100425462Y-71870652D01*
X100612222Y-71896111D01*
X100902598Y-71767035D01*
X100847407Y-71660926D01*
X100428742Y-71618705D01*
X100377037Y-71660926D01*
G36*
X101439044Y-71759458D02*
G01*
X101494166Y-71896111D01*
X101811175Y-72232655D01*
X101867764Y-72248889D01*
X102019288Y-71975948D01*
X102023333Y-71896111D01*
X101752134Y-71556890D01*
X101649735Y-71543333D01*
X101439044Y-71759458D01*
G37*
X101439044Y-71759458D02*
X101494166Y-71896111D01*
X101811175Y-72232655D01*
X101867764Y-72248889D01*
X102019288Y-71975948D01*
X102023333Y-71896111D01*
X101752134Y-71556890D01*
X101649735Y-71543333D01*
X101439044Y-71759458D01*
G36*
X102385800Y-71731692D02*
G01*
X102376111Y-71821038D01*
X102676262Y-72061201D01*
X103165413Y-72158200D01*
X103670163Y-72148019D01*
X103534041Y-71954321D01*
X103429996Y-71885897D01*
X102712155Y-71567836D01*
X102385800Y-71731692D01*
G37*
X102385800Y-71731692D02*
X102376111Y-71821038D01*
X102676262Y-72061201D01*
X103165413Y-72158200D01*
X103670163Y-72148019D01*
X103534041Y-71954321D01*
X103429996Y-71885897D01*
X102712155Y-71567836D01*
X102385800Y-71731692D01*
G36*
X91087222Y-72425278D02*
G01*
X91263611Y-72601667D01*
X91440000Y-72425278D01*
X91263611Y-72248889D01*
X91087222Y-72425278D01*
G37*
X91087222Y-72425278D02*
X91263611Y-72601667D01*
X91440000Y-72425278D01*
X91263611Y-72248889D01*
X91087222Y-72425278D01*
G36*
X104963148Y-74835926D02*
G01*
X104920927Y-75254590D01*
X104963148Y-75306296D01*
X105172874Y-75257870D01*
X105198333Y-75071111D01*
X105069257Y-74780735D01*
X104963148Y-74835926D01*
G37*
X104963148Y-74835926D02*
X104920927Y-75254590D01*
X104963148Y-75306296D01*
X105172874Y-75257870D01*
X105198333Y-75071111D01*
X105069257Y-74780735D01*
X104963148Y-74835926D01*
G36*
X107347214Y-74195849D02*
G01*
X107315000Y-74453750D01*
X107074185Y-75048241D01*
X106874028Y-75190251D01*
X106623301Y-75349723D01*
X106885099Y-75396038D01*
X107388752Y-75138721D01*
X107546042Y-74879507D01*
X107614790Y-74288203D01*
X107534970Y-74115156D01*
X107347214Y-74195849D01*
G37*
X107347214Y-74195849D02*
X107315000Y-74453750D01*
X107074185Y-75048241D01*
X106874028Y-75190251D01*
X106623301Y-75349723D01*
X106885099Y-75396038D01*
X107388752Y-75138721D01*
X107546042Y-74879507D01*
X107614790Y-74288203D01*
X107534970Y-74115156D01*
X107347214Y-74195849D01*
G36*
X90381666Y-76305833D02*
G01*
X90558055Y-76482222D01*
X90734444Y-76305833D01*
X90558055Y-76129444D01*
X90381666Y-76305833D01*
G37*
X90381666Y-76305833D02*
X90558055Y-76482222D01*
X90734444Y-76305833D01*
X90558055Y-76129444D01*
X90381666Y-76305833D01*
G36*
X88970555Y-78422500D02*
G01*
X89146944Y-78598889D01*
X89323333Y-78422500D01*
X89146944Y-78246111D01*
X88970555Y-78422500D01*
G37*
X88970555Y-78422500D02*
X89146944Y-78598889D01*
X89323333Y-78422500D01*
X89146944Y-78246111D01*
X88970555Y-78422500D01*
G36*
X108490926Y-78010926D02*
G01*
X108448705Y-78429590D01*
X108490926Y-78481296D01*
X108700652Y-78432870D01*
X108726111Y-78246111D01*
X108597035Y-77955735D01*
X108490926Y-78010926D01*
G37*
X108490926Y-78010926D02*
X108448705Y-78429590D01*
X108490926Y-78481296D01*
X108700652Y-78432870D01*
X108726111Y-78246111D01*
X108597035Y-77955735D01*
X108490926Y-78010926D01*
G36*
X119154169Y-79436551D02*
G01*
X119548117Y-80209983D01*
X120112850Y-81132523D01*
X120788208Y-82201722D01*
X121307971Y-83089612D01*
X121530901Y-83537778D01*
X121724215Y-83906060D01*
X121780436Y-83890555D01*
X121931218Y-82835823D01*
X121654987Y-82113229D01*
X121360874Y-81929572D01*
X120808630Y-81503314D01*
X120194327Y-80677634D01*
X119984473Y-80302941D01*
X119518633Y-79498016D01*
X119166332Y-79081615D01*
X119073654Y-79069864D01*
X119154169Y-79436551D01*
G37*
X119154169Y-79436551D02*
X119548117Y-80209983D01*
X120112850Y-81132523D01*
X120788208Y-82201722D01*
X121307971Y-83089612D01*
X121530901Y-83537778D01*
X121724215Y-83906060D01*
X121780436Y-83890555D01*
X121931218Y-82835823D01*
X121654987Y-82113229D01*
X121360874Y-81929572D01*
X120808630Y-81503314D01*
X120194327Y-80677634D01*
X119984473Y-80302941D01*
X119518633Y-79498016D01*
X119166332Y-79081615D01*
X119073654Y-79069864D01*
X119154169Y-79436551D01*
G36*
X91880810Y-81215486D02*
G01*
X91843794Y-81648167D01*
X91999818Y-82457296D01*
X92271975Y-83387015D01*
X92583360Y-84181467D01*
X92857067Y-84584792D01*
X92896958Y-84596111D01*
X93201365Y-84497106D01*
X93203889Y-84482565D01*
X93090371Y-83970108D01*
X92811442Y-83158781D01*
X92459542Y-82276840D01*
X92127108Y-81552546D01*
X91906579Y-81214156D01*
X91880810Y-81215486D01*
G37*
X91880810Y-81215486D02*
X91843794Y-81648167D01*
X91999818Y-82457296D01*
X92271975Y-83387015D01*
X92583360Y-84181467D01*
X92857067Y-84584792D01*
X92896958Y-84596111D01*
X93201365Y-84497106D01*
X93203889Y-84482565D01*
X93090371Y-83970108D01*
X92811442Y-83158781D01*
X92459542Y-82276840D01*
X92127108Y-81552546D01*
X91906579Y-81214156D01*
X91880810Y-81215486D01*
G36*
X107238160Y-27704086D02*
G01*
X106765065Y-27964058D01*
X105978509Y-28299151D01*
X104884029Y-28482412D01*
X104601792Y-28493225D01*
X103626924Y-28585563D01*
X102978599Y-28802908D01*
X102883312Y-28892762D01*
X102397976Y-29117783D01*
X101701437Y-29092704D01*
X100824563Y-29116505D01*
X99750318Y-29416595D01*
X98647679Y-29902886D01*
X97685624Y-30485289D01*
X97033130Y-31073715D01*
X96859174Y-31578077D01*
X96893549Y-31655972D01*
X96907781Y-31998637D01*
X96790230Y-32032222D01*
X96378698Y-31753149D01*
X96269401Y-31550187D01*
X95823337Y-31255607D01*
X94974961Y-31321299D01*
X93890331Y-31689486D01*
X92735503Y-32302388D01*
X91676535Y-33102228D01*
X91597628Y-33175690D01*
X90712515Y-33918443D01*
X89945485Y-34398593D01*
X89619276Y-34498607D01*
X88980596Y-34784330D01*
X88134617Y-35653730D01*
X87057902Y-37133653D01*
X86324722Y-38272262D01*
X85730989Y-39338901D01*
X85399857Y-40329324D01*
X85252674Y-41544082D01*
X85220170Y-42493130D01*
X85158989Y-43812153D01*
X85042118Y-44882473D01*
X84894352Y-45480349D01*
X84887868Y-45491741D01*
X84769955Y-45770911D01*
X85084367Y-45574039D01*
X85207195Y-45475701D01*
X85825297Y-45152565D01*
X86060720Y-45388768D01*
X85846879Y-46047435D01*
X85664579Y-47040371D01*
X85816170Y-48176943D01*
X85966299Y-49583424D01*
X85811624Y-50510793D01*
X85593166Y-51707424D01*
X85622757Y-53234154D01*
X85872624Y-54771673D01*
X86284048Y-55942455D01*
X86687406Y-57008370D01*
X86859268Y-58028527D01*
X86859291Y-58032064D01*
X86935822Y-58620943D01*
X87123682Y-58612268D01*
X87129650Y-58603091D01*
X87411147Y-58617784D01*
X87821279Y-59258839D01*
X88040881Y-59749000D01*
X88532211Y-60675506D01*
X88953863Y-61059368D01*
X89207306Y-60885343D01*
X89194011Y-60138191D01*
X89151133Y-59920737D01*
X89098739Y-59133205D01*
X89143884Y-57875124D01*
X89275954Y-56373161D01*
X89343667Y-55809183D01*
X89527695Y-54033851D01*
X89645988Y-52186476D01*
X89677380Y-50617591D01*
X89671663Y-50376667D01*
X89607428Y-48264735D01*
X89596958Y-46726291D01*
X89664214Y-45629898D01*
X89833154Y-44844120D01*
X90127738Y-44237517D01*
X90571926Y-43678653D01*
X90968587Y-43261965D01*
X92079126Y-42335092D01*
X93259548Y-41668915D01*
X93651275Y-41531747D01*
X94824863Y-40987614D01*
X95320296Y-40323182D01*
X95970999Y-39359841D01*
X97151274Y-38609763D01*
X98943375Y-38021396D01*
X99024722Y-38001518D01*
X100105785Y-37706602D01*
X100908746Y-37427142D01*
X101141389Y-37307805D01*
X101818733Y-37091320D01*
X102927196Y-37053283D01*
X104331297Y-37164746D01*
X105895561Y-37396758D01*
X107484510Y-37720371D01*
X108962665Y-38106636D01*
X110194549Y-38526602D01*
X111044684Y-38951322D01*
X111377593Y-39351847D01*
X111342826Y-39487670D01*
X111293262Y-39740590D01*
X111446678Y-39679770D01*
X111971627Y-39683530D01*
X112476871Y-40186190D01*
X112880544Y-40983835D01*
X113100782Y-41872555D01*
X113055719Y-42648435D01*
X112794371Y-43036667D01*
X112795584Y-43377933D01*
X113177565Y-43888975D01*
X113725443Y-44361386D01*
X114224348Y-44586756D01*
X114364505Y-44559573D01*
X114675613Y-44719369D01*
X115016962Y-45272451D01*
X115208207Y-45919139D01*
X115079620Y-46143333D01*
X114886491Y-46399910D01*
X114937350Y-46643347D01*
X114774092Y-47150208D01*
X113947927Y-47703240D01*
X113867945Y-47741876D01*
X113067449Y-48193223D01*
X112632734Y-48577424D01*
X112606666Y-48652974D01*
X112321205Y-48932286D01*
X112089912Y-48965555D01*
X111528472Y-49245656D01*
X111195555Y-49671111D01*
X110667761Y-50234008D01*
X110249996Y-50376667D01*
X109570097Y-50565971D01*
X108654437Y-51039741D01*
X107715228Y-51656764D01*
X106964687Y-52275828D01*
X106615026Y-52755719D01*
X106610075Y-52798763D01*
X106498538Y-53416494D01*
X106219698Y-54386493D01*
X105855788Y-55468851D01*
X105489041Y-56423656D01*
X105201692Y-57010998D01*
X105142518Y-57080253D01*
X104932689Y-57512555D01*
X104706588Y-58358721D01*
X104661015Y-58586327D01*
X104598523Y-59747095D01*
X104902293Y-61003390D01*
X105175392Y-61690417D01*
X105939069Y-63465631D01*
X105185792Y-64684458D01*
X104651816Y-65402621D01*
X104225101Y-65728139D01*
X104134245Y-65718943D01*
X103706288Y-65776049D01*
X103629455Y-65868758D01*
X103675002Y-66324322D01*
X103803228Y-66437948D01*
X104211790Y-66925937D01*
X104508900Y-67528794D01*
X104897869Y-68144626D01*
X105532670Y-68205223D01*
X105696308Y-68168250D01*
X106395615Y-68118464D01*
X107061008Y-68245756D01*
X107506260Y-68472534D01*
X107545144Y-68721202D01*
X107315000Y-68842706D01*
X106615845Y-69065646D01*
X105671306Y-69366404D01*
X105660979Y-69369690D01*
X104439166Y-69547014D01*
X102736651Y-69491934D01*
X102133201Y-69426297D01*
X100519222Y-69226723D01*
X98841510Y-69023630D01*
X97792864Y-68899568D01*
X95855451Y-68674171D01*
X97348838Y-69755974D01*
X98360351Y-70466619D01*
X98907341Y-70773232D01*
X99080828Y-70706730D01*
X98975907Y-70308611D01*
X99106014Y-69895227D01*
X99893944Y-69709586D01*
X101329446Y-69752525D01*
X103081666Y-69974077D01*
X105212302Y-70130931D01*
X107581129Y-69958326D01*
X108383814Y-69916063D01*
X108668735Y-70121348D01*
X108656419Y-70409962D01*
X108386713Y-70942879D01*
X108192113Y-71043727D01*
X107638743Y-71190704D01*
X106851062Y-71484699D01*
X105810754Y-71792439D01*
X104978159Y-71896111D01*
X104392625Y-72001074D01*
X104295920Y-72215770D01*
X104763725Y-72430772D01*
X105110490Y-72414523D01*
X106655124Y-72136703D01*
X107534339Y-72040478D01*
X107764252Y-72124918D01*
X107579583Y-72272464D01*
X107070769Y-72727710D01*
X106962222Y-72992794D01*
X107173725Y-73198501D01*
X107276411Y-73154682D01*
X107673181Y-73267203D01*
X108111526Y-73755534D01*
X108442530Y-74392386D01*
X108316065Y-74823537D01*
X108091505Y-75055886D01*
X107775399Y-75511647D01*
X107964144Y-75699066D01*
X108222831Y-76024610D01*
X108177946Y-76160183D01*
X108316598Y-76201668D01*
X108898495Y-75931616D01*
X109261008Y-75726542D01*
X110040917Y-75190753D01*
X110220643Y-74830162D01*
X110075954Y-74673002D01*
X109857542Y-74437202D01*
X110266561Y-74370957D01*
X110748013Y-74188369D01*
X110743107Y-73836389D01*
X109431666Y-73836389D01*
X109255278Y-74012778D01*
X109078889Y-73836389D01*
X109255278Y-73660000D01*
X109431666Y-73836389D01*
X110743107Y-73836389D01*
X110740652Y-73660351D01*
X110729839Y-73130833D01*
X108726111Y-73130833D01*
X108549722Y-73307222D01*
X108373333Y-73130833D01*
X108549722Y-72954444D01*
X108726111Y-73130833D01*
X110729839Y-73130833D01*
X110727222Y-73002689D01*
X110881651Y-72754030D01*
X111049507Y-72330650D01*
X111004101Y-72224512D01*
X111033539Y-71916425D01*
X111136992Y-71896111D01*
X111387612Y-71719722D01*
X110490000Y-71719722D01*
X110313611Y-71896111D01*
X110137222Y-71719722D01*
X110313611Y-71543333D01*
X110490000Y-71719722D01*
X111387612Y-71719722D01*
X111537967Y-71613901D01*
X111684759Y-71343876D01*
X111709799Y-70962198D01*
X111239580Y-71000798D01*
X111170126Y-71022237D01*
X110680733Y-71149592D01*
X110699669Y-70972004D01*
X111074359Y-70516139D01*
X111618741Y-69939064D01*
X111860807Y-69798928D01*
X111719897Y-70139578D01*
X111696437Y-70177989D01*
X111699038Y-70447321D01*
X111940200Y-70412202D01*
X112367507Y-69964803D01*
X112433362Y-69646106D01*
X112674128Y-69016633D01*
X113203310Y-68589233D01*
X113732310Y-68586322D01*
X113866731Y-68477914D01*
X113794069Y-68195840D01*
X113795761Y-67839167D01*
X105198333Y-67839167D01*
X105021944Y-68015555D01*
X104845555Y-67839167D01*
X105021944Y-67662778D01*
X105198333Y-67839167D01*
X113795761Y-67839167D01*
X113796131Y-67761398D01*
X114062693Y-67736546D01*
X114412127Y-67563345D01*
X114507448Y-66793440D01*
X114504526Y-66692639D01*
X114521624Y-66519314D01*
X113930605Y-66519314D01*
X113768777Y-66756919D01*
X113332367Y-66711929D01*
X112750132Y-66446139D01*
X112606666Y-66241737D01*
X112857431Y-66035393D01*
X113382915Y-66103644D01*
X113842901Y-66375160D01*
X113930605Y-66519314D01*
X114521624Y-66519314D01*
X114581793Y-65909391D01*
X114827413Y-65541004D01*
X114857304Y-65537036D01*
X114796988Y-65391685D01*
X114232764Y-65024947D01*
X113532908Y-64644867D01*
X112295634Y-63912259D01*
X111599951Y-63429444D01*
X110842777Y-63429444D01*
X110722415Y-63773050D01*
X110687208Y-63782222D01*
X110386018Y-63535018D01*
X110313611Y-63429444D01*
X110341581Y-63104365D01*
X110469180Y-63076667D01*
X110828421Y-63332752D01*
X110842777Y-63429444D01*
X111599951Y-63429444D01*
X110905860Y-62947734D01*
X110005130Y-62240495D01*
X108983098Y-61423659D01*
X108097522Y-60790907D01*
X107579583Y-60497903D01*
X107046768Y-60072599D01*
X107023003Y-59553368D01*
X107481335Y-59218816D01*
X107705521Y-59196111D01*
X108244258Y-59046142D01*
X108238728Y-58648622D01*
X108206993Y-58280492D01*
X108347243Y-58298042D01*
X108738560Y-58221561D01*
X108845512Y-58051781D01*
X109079069Y-57803028D01*
X109360712Y-58087247D01*
X109716211Y-58370961D01*
X109958446Y-58141640D01*
X110535228Y-57877727D01*
X111698683Y-57939044D01*
X113539795Y-57903056D01*
X114391001Y-57633875D01*
X115076458Y-57296588D01*
X115265398Y-57130458D01*
X113665000Y-57130458D01*
X113353605Y-57313690D01*
X112557554Y-57376209D01*
X111484047Y-57335665D01*
X110340284Y-57209705D01*
X109333464Y-57015980D01*
X108670787Y-56772138D01*
X108574734Y-56696874D01*
X108497421Y-56458055D01*
X108991226Y-56443996D01*
X109431666Y-56508960D01*
X110116282Y-56595837D01*
X110287989Y-56552279D01*
X110225416Y-56516728D01*
X109818613Y-56151012D01*
X109784444Y-56022928D01*
X109982022Y-55820936D01*
X110632310Y-55937639D01*
X111659493Y-56319682D01*
X112540411Y-56615405D01*
X113158799Y-56726666D01*
X113612884Y-56952537D01*
X113665000Y-57130458D01*
X115265398Y-57130458D01*
X115299892Y-57100129D01*
X115252500Y-57082525D01*
X115216003Y-56924750D01*
X115535554Y-56688073D01*
X116273574Y-56511865D01*
X116626346Y-56695739D01*
X117097227Y-56943033D01*
X117239498Y-56915131D01*
X117388784Y-57070186D01*
X117449204Y-57440802D01*
X117440118Y-57883414D01*
X117194816Y-57902925D01*
X116552998Y-57527706D01*
X115921261Y-57141630D01*
X115819013Y-57157392D01*
X116179371Y-57599797D01*
X116222639Y-57650235D01*
X116741427Y-58350572D01*
X116736400Y-58724193D01*
X116251733Y-58905660D01*
X115863752Y-59222236D01*
X115614428Y-59807812D01*
X115578777Y-60367627D01*
X115818698Y-60607222D01*
X116026372Y-60891722D01*
X116026000Y-61551972D01*
X115843528Y-62298101D01*
X115631059Y-62703413D01*
X115432140Y-63047194D01*
X115693472Y-62947176D01*
X116085839Y-62844575D01*
X116031887Y-63280739D01*
X115830467Y-63717220D01*
X115517146Y-64486236D01*
X115295866Y-65297528D01*
X115212447Y-65925058D01*
X115312709Y-66142792D01*
X115341517Y-66129276D01*
X115591562Y-66273596D01*
X115692760Y-66711854D01*
X115878308Y-67370801D01*
X116095486Y-67590995D01*
X116175673Y-67953638D01*
X115992420Y-68777404D01*
X115614068Y-69900736D01*
X115108959Y-71162076D01*
X114545432Y-72399867D01*
X113991828Y-73452552D01*
X113516486Y-74158572D01*
X113229781Y-74365555D01*
X112697805Y-74656462D01*
X112017217Y-75409508D01*
X111332819Y-76445181D01*
X110953213Y-77187778D01*
X110498717Y-77855459D01*
X110123978Y-78246111D01*
X109533650Y-79019743D01*
X109277289Y-79583770D01*
X108913998Y-80171818D01*
X108347101Y-80178063D01*
X107865445Y-80125784D01*
X107887066Y-80522399D01*
X107906337Y-80573970D01*
X107968191Y-80990761D01*
X107727728Y-80928996D01*
X107093251Y-80862669D01*
X106874028Y-80956463D01*
X105420873Y-81590939D01*
X103611098Y-81947382D01*
X102414033Y-81995321D01*
X101455701Y-82017046D01*
X100902280Y-82121893D01*
X100842756Y-82214861D01*
X101297440Y-82457137D01*
X101514986Y-82479444D01*
X101971004Y-82671904D01*
X102023333Y-82823491D01*
X101743990Y-82990226D01*
X101141389Y-82832222D01*
X100428046Y-82605206D01*
X100291802Y-82667448D01*
X100688246Y-82974240D01*
X101572966Y-83480877D01*
X102011605Y-83708224D01*
X102651385Y-84017529D01*
X103251874Y-84245202D01*
X103932224Y-84403725D01*
X104811590Y-84505580D01*
X106009123Y-84563250D01*
X107643977Y-84589217D01*
X109835305Y-84595964D01*
X110487004Y-84596111D01*
X117210241Y-84596111D01*
X117581636Y-83625972D01*
X117666162Y-83361389D01*
X103081666Y-83361389D01*
X102905277Y-83537778D01*
X102728889Y-83361389D01*
X102905277Y-83185000D01*
X103081666Y-83361389D01*
X117666162Y-83361389D01*
X117853798Y-82774052D01*
X118192597Y-81521801D01*
X118484244Y-80313910D01*
X118754554Y-79021618D01*
X118839488Y-78172556D01*
X118734408Y-77527938D01*
X118434672Y-76848979D01*
X118416221Y-76813190D01*
X117829905Y-75057685D01*
X117716988Y-73156522D01*
X118084500Y-71396711D01*
X118273134Y-70970969D01*
X118708913Y-69935909D01*
X118943589Y-69027443D01*
X118956666Y-68849975D01*
X119177355Y-68072783D01*
X119720284Y-67169227D01*
X119838611Y-67021558D01*
X120417788Y-66164006D01*
X120711501Y-65397967D01*
X120720555Y-65289398D01*
X120834722Y-64597948D01*
X120965951Y-64359974D01*
X121235922Y-63827190D01*
X121315676Y-63507428D01*
X121478806Y-62383273D01*
X121675154Y-60771739D01*
X121881930Y-58888778D01*
X122076347Y-56950340D01*
X122235614Y-55172375D01*
X122252595Y-54941958D01*
X110137222Y-54941958D01*
X109881137Y-55301199D01*
X109784444Y-55315555D01*
X109440838Y-55195193D01*
X109431666Y-55159986D01*
X109678871Y-54858796D01*
X109784444Y-54786389D01*
X110109523Y-54814359D01*
X110137222Y-54941958D01*
X122252595Y-54941958D01*
X122290060Y-54433611D01*
X111548333Y-54433611D01*
X111371944Y-54610000D01*
X111195555Y-54433611D01*
X111371944Y-54257222D01*
X111548333Y-54433611D01*
X122290060Y-54433611D01*
X122329060Y-53904444D01*
X122429106Y-52559865D01*
X122543098Y-51465524D01*
X122648244Y-50835588D01*
X122659369Y-50800870D01*
X122702588Y-50200278D01*
X115076111Y-50200278D01*
X114899722Y-50376667D01*
X114723333Y-50200278D01*
X114899722Y-50023889D01*
X115076111Y-50200278D01*
X122702588Y-50200278D01*
X122705992Y-50152976D01*
X122651972Y-49466868D01*
X114554236Y-49466868D01*
X114199635Y-49465841D01*
X114037939Y-49425823D01*
X113455379Y-49147130D01*
X113312222Y-48924410D01*
X113522307Y-48626497D01*
X114004422Y-48791375D01*
X114347521Y-49114190D01*
X114554236Y-49466868D01*
X122651972Y-49466868D01*
X122617734Y-49032020D01*
X122428858Y-47649923D01*
X122173626Y-46218605D01*
X121886298Y-44949986D01*
X121601137Y-44055986D01*
X121551632Y-43949124D01*
X121224899Y-43184912D01*
X121216593Y-43144722D01*
X114017777Y-43144722D01*
X113841389Y-43321111D01*
X113665000Y-43144722D01*
X113841389Y-42968333D01*
X114017777Y-43144722D01*
X121216593Y-43144722D01*
X121127651Y-42714402D01*
X121074511Y-42031781D01*
X120791253Y-41020311D01*
X120372653Y-39977444D01*
X120085475Y-39443570D01*
X119730131Y-38486144D01*
X119607980Y-37340695D01*
X119612032Y-37247789D01*
X119440737Y-35712853D01*
X119204739Y-35209768D01*
X90339541Y-35209768D01*
X90320227Y-35450311D01*
X90290931Y-35560000D01*
X89955409Y-36030071D01*
X89764305Y-36089167D01*
X89169683Y-36307499D01*
X89117546Y-36353750D01*
X88637299Y-36615209D01*
X88424715Y-36375711D01*
X88479737Y-36116443D01*
X88848222Y-35624352D01*
X89326777Y-35391534D01*
X89652392Y-35518043D01*
X89681513Y-35659266D01*
X89819152Y-35825475D01*
X90061148Y-35560000D01*
X90339541Y-35209768D01*
X119204739Y-35209768D01*
X118815175Y-34379326D01*
X118549612Y-34128069D01*
X91440000Y-34128069D01*
X91183914Y-34487310D01*
X91087222Y-34501667D01*
X90743616Y-34381304D01*
X90734444Y-34346097D01*
X90981648Y-34044907D01*
X91087222Y-33972500D01*
X91412301Y-34000470D01*
X91440000Y-34128069D01*
X118549612Y-34128069D01*
X117844736Y-33461166D01*
X117616781Y-33345276D01*
X116756401Y-32831041D01*
X116221545Y-32329234D01*
X115604511Y-31832825D01*
X114651945Y-31374959D01*
X114457656Y-31307689D01*
X113504496Y-30957192D01*
X112829132Y-30632200D01*
X112750596Y-30578197D01*
X112287448Y-30414361D01*
X112173454Y-30466361D01*
X111856642Y-30368677D01*
X111369225Y-29867534D01*
X110876677Y-29179840D01*
X110544475Y-28522503D01*
X110490000Y-28259660D01*
X110317659Y-27924512D01*
X110161598Y-27960212D01*
X109708515Y-27915972D01*
X109611612Y-27804643D01*
X109066894Y-27505192D01*
X108176349Y-27477239D01*
X107238160Y-27704086D01*
G37*
X107238160Y-27704086D02*
X106765065Y-27964058D01*
X105978509Y-28299151D01*
X104884029Y-28482412D01*
X104601792Y-28493225D01*
X103626924Y-28585563D01*
X102978599Y-28802908D01*
X102883312Y-28892762D01*
X102397976Y-29117783D01*
X101701437Y-29092704D01*
X100824563Y-29116505D01*
X99750318Y-29416595D01*
X98647679Y-29902886D01*
X97685624Y-30485289D01*
X97033130Y-31073715D01*
X96859174Y-31578077D01*
X96893549Y-31655972D01*
X96907781Y-31998637D01*
X96790230Y-32032222D01*
X96378698Y-31753149D01*
X96269401Y-31550187D01*
X95823337Y-31255607D01*
X94974961Y-31321299D01*
X93890331Y-31689486D01*
X92735503Y-32302388D01*
X91676535Y-33102228D01*
X91597628Y-33175690D01*
X90712515Y-33918443D01*
X89945485Y-34398593D01*
X89619276Y-34498607D01*
X88980596Y-34784330D01*
X88134617Y-35653730D01*
X87057902Y-37133653D01*
X86324722Y-38272262D01*
X85730989Y-39338901D01*
X85399857Y-40329324D01*
X85252674Y-41544082D01*
X85220170Y-42493130D01*
X85158989Y-43812153D01*
X85042118Y-44882473D01*
X84894352Y-45480349D01*
X84887868Y-45491741D01*
X84769955Y-45770911D01*
X85084367Y-45574039D01*
X85207195Y-45475701D01*
X85825297Y-45152565D01*
X86060720Y-45388768D01*
X85846879Y-46047435D01*
X85664579Y-47040371D01*
X85816170Y-48176943D01*
X85966299Y-49583424D01*
X85811624Y-50510793D01*
X85593166Y-51707424D01*
X85622757Y-53234154D01*
X85872624Y-54771673D01*
X86284048Y-55942455D01*
X86687406Y-57008370D01*
X86859268Y-58028527D01*
X86859291Y-58032064D01*
X86935822Y-58620943D01*
X87123682Y-58612268D01*
X87129650Y-58603091D01*
X87411147Y-58617784D01*
X87821279Y-59258839D01*
X88040881Y-59749000D01*
X88532211Y-60675506D01*
X88953863Y-61059368D01*
X89207306Y-60885343D01*
X89194011Y-60138191D01*
X89151133Y-59920737D01*
X89098739Y-59133205D01*
X89143884Y-57875124D01*
X89275954Y-56373161D01*
X89343667Y-55809183D01*
X89527695Y-54033851D01*
X89645988Y-52186476D01*
X89677380Y-50617591D01*
X89671663Y-50376667D01*
X89607428Y-48264735D01*
X89596958Y-46726291D01*
X89664214Y-45629898D01*
X89833154Y-44844120D01*
X90127738Y-44237517D01*
X90571926Y-43678653D01*
X90968587Y-43261965D01*
X92079126Y-42335092D01*
X93259548Y-41668915D01*
X93651275Y-41531747D01*
X94824863Y-40987614D01*
X95320296Y-40323182D01*
X95970999Y-39359841D01*
X97151274Y-38609763D01*
X98943375Y-38021396D01*
X99024722Y-38001518D01*
X100105785Y-37706602D01*
X100908746Y-37427142D01*
X101141389Y-37307805D01*
X101818733Y-37091320D01*
X102927196Y-37053283D01*
X104331297Y-37164746D01*
X105895561Y-37396758D01*
X107484510Y-37720371D01*
X108962665Y-38106636D01*
X110194549Y-38526602D01*
X111044684Y-38951322D01*
X111377593Y-39351847D01*
X111342826Y-39487670D01*
X111293262Y-39740590D01*
X111446678Y-39679770D01*
X111971627Y-39683530D01*
X112476871Y-40186190D01*
X112880544Y-40983835D01*
X113100782Y-41872555D01*
X113055719Y-42648435D01*
X112794371Y-43036667D01*
X112795584Y-43377933D01*
X113177565Y-43888975D01*
X113725443Y-44361386D01*
X114224348Y-44586756D01*
X114364505Y-44559573D01*
X114675613Y-44719369D01*
X115016962Y-45272451D01*
X115208207Y-45919139D01*
X115079620Y-46143333D01*
X114886491Y-46399910D01*
X114937350Y-46643347D01*
X114774092Y-47150208D01*
X113947927Y-47703240D01*
X113867945Y-47741876D01*
X113067449Y-48193223D01*
X112632734Y-48577424D01*
X112606666Y-48652974D01*
X112321205Y-48932286D01*
X112089912Y-48965555D01*
X111528472Y-49245656D01*
X111195555Y-49671111D01*
X110667761Y-50234008D01*
X110249996Y-50376667D01*
X109570097Y-50565971D01*
X108654437Y-51039741D01*
X107715228Y-51656764D01*
X106964687Y-52275828D01*
X106615026Y-52755719D01*
X106610075Y-52798763D01*
X106498538Y-53416494D01*
X106219698Y-54386493D01*
X105855788Y-55468851D01*
X105489041Y-56423656D01*
X105201692Y-57010998D01*
X105142518Y-57080253D01*
X104932689Y-57512555D01*
X104706588Y-58358721D01*
X104661015Y-58586327D01*
X104598523Y-59747095D01*
X104902293Y-61003390D01*
X105175392Y-61690417D01*
X105939069Y-63465631D01*
X105185792Y-64684458D01*
X104651816Y-65402621D01*
X104225101Y-65728139D01*
X104134245Y-65718943D01*
X103706288Y-65776049D01*
X103629455Y-65868758D01*
X103675002Y-66324322D01*
X103803228Y-66437948D01*
X104211790Y-66925937D01*
X104508900Y-67528794D01*
X104897869Y-68144626D01*
X105532670Y-68205223D01*
X105696308Y-68168250D01*
X106395615Y-68118464D01*
X107061008Y-68245756D01*
X107506260Y-68472534D01*
X107545144Y-68721202D01*
X107315000Y-68842706D01*
X106615845Y-69065646D01*
X105671306Y-69366404D01*
X105660979Y-69369690D01*
X104439166Y-69547014D01*
X102736651Y-69491934D01*
X102133201Y-69426297D01*
X100519222Y-69226723D01*
X98841510Y-69023630D01*
X97792864Y-68899568D01*
X95855451Y-68674171D01*
X97348838Y-69755974D01*
X98360351Y-70466619D01*
X98907341Y-70773232D01*
X99080828Y-70706730D01*
X98975907Y-70308611D01*
X99106014Y-69895227D01*
X99893944Y-69709586D01*
X101329446Y-69752525D01*
X103081666Y-69974077D01*
X105212302Y-70130931D01*
X107581129Y-69958326D01*
X108383814Y-69916063D01*
X108668735Y-70121348D01*
X108656419Y-70409962D01*
X108386713Y-70942879D01*
X108192113Y-71043727D01*
X107638743Y-71190704D01*
X106851062Y-71484699D01*
X105810754Y-71792439D01*
X104978159Y-71896111D01*
X104392625Y-72001074D01*
X104295920Y-72215770D01*
X104763725Y-72430772D01*
X105110490Y-72414523D01*
X106655124Y-72136703D01*
X107534339Y-72040478D01*
X107764252Y-72124918D01*
X107579583Y-72272464D01*
X107070769Y-72727710D01*
X106962222Y-72992794D01*
X107173725Y-73198501D01*
X107276411Y-73154682D01*
X107673181Y-73267203D01*
X108111526Y-73755534D01*
X108442530Y-74392386D01*
X108316065Y-74823537D01*
X108091505Y-75055886D01*
X107775399Y-75511647D01*
X107964144Y-75699066D01*
X108222831Y-76024610D01*
X108177946Y-76160183D01*
X108316598Y-76201668D01*
X108898495Y-75931616D01*
X109261008Y-75726542D01*
X110040917Y-75190753D01*
X110220643Y-74830162D01*
X110075954Y-74673002D01*
X109857542Y-74437202D01*
X110266561Y-74370957D01*
X110748013Y-74188369D01*
X110743107Y-73836389D01*
X109431666Y-73836389D01*
X109255278Y-74012778D01*
X109078889Y-73836389D01*
X109255278Y-73660000D01*
X109431666Y-73836389D01*
X110743107Y-73836389D01*
X110740652Y-73660351D01*
X110729839Y-73130833D01*
X108726111Y-73130833D01*
X108549722Y-73307222D01*
X108373333Y-73130833D01*
X108549722Y-72954444D01*
X108726111Y-73130833D01*
X110729839Y-73130833D01*
X110727222Y-73002689D01*
X110881651Y-72754030D01*
X111049507Y-72330650D01*
X111004101Y-72224512D01*
X111033539Y-71916425D01*
X111136992Y-71896111D01*
X111387612Y-71719722D01*
X110490000Y-71719722D01*
X110313611Y-71896111D01*
X110137222Y-71719722D01*
X110313611Y-71543333D01*
X110490000Y-71719722D01*
X111387612Y-71719722D01*
X111537967Y-71613901D01*
X111684759Y-71343876D01*
X111709799Y-70962198D01*
X111239580Y-71000798D01*
X111170126Y-71022237D01*
X110680733Y-71149592D01*
X110699669Y-70972004D01*
X111074359Y-70516139D01*
X111618741Y-69939064D01*
X111860807Y-69798928D01*
X111719897Y-70139578D01*
X111696437Y-70177989D01*
X111699038Y-70447321D01*
X111940200Y-70412202D01*
X112367507Y-69964803D01*
X112433362Y-69646106D01*
X112674128Y-69016633D01*
X113203310Y-68589233D01*
X113732310Y-68586322D01*
X113866731Y-68477914D01*
X113794069Y-68195840D01*
X113795761Y-67839167D01*
X105198333Y-67839167D01*
X105021944Y-68015555D01*
X104845555Y-67839167D01*
X105021944Y-67662778D01*
X105198333Y-67839167D01*
X113795761Y-67839167D01*
X113796131Y-67761398D01*
X114062693Y-67736546D01*
X114412127Y-67563345D01*
X114507448Y-66793440D01*
X114504526Y-66692639D01*
X114521624Y-66519314D01*
X113930605Y-66519314D01*
X113768777Y-66756919D01*
X113332367Y-66711929D01*
X112750132Y-66446139D01*
X112606666Y-66241737D01*
X112857431Y-66035393D01*
X113382915Y-66103644D01*
X113842901Y-66375160D01*
X113930605Y-66519314D01*
X114521624Y-66519314D01*
X114581793Y-65909391D01*
X114827413Y-65541004D01*
X114857304Y-65537036D01*
X114796988Y-65391685D01*
X114232764Y-65024947D01*
X113532908Y-64644867D01*
X112295634Y-63912259D01*
X111599951Y-63429444D01*
X110842777Y-63429444D01*
X110722415Y-63773050D01*
X110687208Y-63782222D01*
X110386018Y-63535018D01*
X110313611Y-63429444D01*
X110341581Y-63104365D01*
X110469180Y-63076667D01*
X110828421Y-63332752D01*
X110842777Y-63429444D01*
X111599951Y-63429444D01*
X110905860Y-62947734D01*
X110005130Y-62240495D01*
X108983098Y-61423659D01*
X108097522Y-60790907D01*
X107579583Y-60497903D01*
X107046768Y-60072599D01*
X107023003Y-59553368D01*
X107481335Y-59218816D01*
X107705521Y-59196111D01*
X108244258Y-59046142D01*
X108238728Y-58648622D01*
X108206993Y-58280492D01*
X108347243Y-58298042D01*
X108738560Y-58221561D01*
X108845512Y-58051781D01*
X109079069Y-57803028D01*
X109360712Y-58087247D01*
X109716211Y-58370961D01*
X109958446Y-58141640D01*
X110535228Y-57877727D01*
X111698683Y-57939044D01*
X113539795Y-57903056D01*
X114391001Y-57633875D01*
X115076458Y-57296588D01*
X115265398Y-57130458D01*
X113665000Y-57130458D01*
X113353605Y-57313690D01*
X112557554Y-57376209D01*
X111484047Y-57335665D01*
X110340284Y-57209705D01*
X109333464Y-57015980D01*
X108670787Y-56772138D01*
X108574734Y-56696874D01*
X108497421Y-56458055D01*
X108991226Y-56443996D01*
X109431666Y-56508960D01*
X110116282Y-56595837D01*
X110287989Y-56552279D01*
X110225416Y-56516728D01*
X109818613Y-56151012D01*
X109784444Y-56022928D01*
X109982022Y-55820936D01*
X110632310Y-55937639D01*
X111659493Y-56319682D01*
X112540411Y-56615405D01*
X113158799Y-56726666D01*
X113612884Y-56952537D01*
X113665000Y-57130458D01*
X115265398Y-57130458D01*
X115299892Y-57100129D01*
X115252500Y-57082525D01*
X115216003Y-56924750D01*
X115535554Y-56688073D01*
X116273574Y-56511865D01*
X116626346Y-56695739D01*
X117097227Y-56943033D01*
X117239498Y-56915131D01*
X117388784Y-57070186D01*
X117449204Y-57440802D01*
X117440118Y-57883414D01*
X117194816Y-57902925D01*
X116552998Y-57527706D01*
X115921261Y-57141630D01*
X115819013Y-57157392D01*
X116179371Y-57599797D01*
X116222639Y-57650235D01*
X116741427Y-58350572D01*
X116736400Y-58724193D01*
X116251733Y-58905660D01*
X115863752Y-59222236D01*
X115614428Y-59807812D01*
X115578777Y-60367627D01*
X115818698Y-60607222D01*
X116026372Y-60891722D01*
X116026000Y-61551972D01*
X115843528Y-62298101D01*
X115631059Y-62703413D01*
X115432140Y-63047194D01*
X115693472Y-62947176D01*
X116085839Y-62844575D01*
X116031887Y-63280739D01*
X115830467Y-63717220D01*
X115517146Y-64486236D01*
X115295866Y-65297528D01*
X115212447Y-65925058D01*
X115312709Y-66142792D01*
X115341517Y-66129276D01*
X115591562Y-66273596D01*
X115692760Y-66711854D01*
X115878308Y-67370801D01*
X116095486Y-67590995D01*
X116175673Y-67953638D01*
X115992420Y-68777404D01*
X115614068Y-69900736D01*
X115108959Y-71162076D01*
X114545432Y-72399867D01*
X113991828Y-73452552D01*
X113516486Y-74158572D01*
X113229781Y-74365555D01*
X112697805Y-74656462D01*
X112017217Y-75409508D01*
X111332819Y-76445181D01*
X110953213Y-77187778D01*
X110498717Y-77855459D01*
X110123978Y-78246111D01*
X109533650Y-79019743D01*
X109277289Y-79583770D01*
X108913998Y-80171818D01*
X108347101Y-80178063D01*
X107865445Y-80125784D01*
X107887066Y-80522399D01*
X107906337Y-80573970D01*
X107968191Y-80990761D01*
X107727728Y-80928996D01*
X107093251Y-80862669D01*
X106874028Y-80956463D01*
X105420873Y-81590939D01*
X103611098Y-81947382D01*
X102414033Y-81995321D01*
X101455701Y-82017046D01*
X100902280Y-82121893D01*
X100842756Y-82214861D01*
X101297440Y-82457137D01*
X101514986Y-82479444D01*
X101971004Y-82671904D01*
X102023333Y-82823491D01*
X101743990Y-82990226D01*
X101141389Y-82832222D01*
X100428046Y-82605206D01*
X100291802Y-82667448D01*
X100688246Y-82974240D01*
X101572966Y-83480877D01*
X102011605Y-83708224D01*
X102651385Y-84017529D01*
X103251874Y-84245202D01*
X103932224Y-84403725D01*
X104811590Y-84505580D01*
X106009123Y-84563250D01*
X107643977Y-84589217D01*
X109835305Y-84595964D01*
X110487004Y-84596111D01*
X117210241Y-84596111D01*
X117581636Y-83625972D01*
X117666162Y-83361389D01*
X103081666Y-83361389D01*
X102905277Y-83537778D01*
X102728889Y-83361389D01*
X102905277Y-83185000D01*
X103081666Y-83361389D01*
X117666162Y-83361389D01*
X117853798Y-82774052D01*
X118192597Y-81521801D01*
X118484244Y-80313910D01*
X118754554Y-79021618D01*
X118839488Y-78172556D01*
X118734408Y-77527938D01*
X118434672Y-76848979D01*
X118416221Y-76813190D01*
X117829905Y-75057685D01*
X117716988Y-73156522D01*
X118084500Y-71396711D01*
X118273134Y-70970969D01*
X118708913Y-69935909D01*
X118943589Y-69027443D01*
X118956666Y-68849975D01*
X119177355Y-68072783D01*
X119720284Y-67169227D01*
X119838611Y-67021558D01*
X120417788Y-66164006D01*
X120711501Y-65397967D01*
X120720555Y-65289398D01*
X120834722Y-64597948D01*
X120965951Y-64359974D01*
X121235922Y-63827190D01*
X121315676Y-63507428D01*
X121478806Y-62383273D01*
X121675154Y-60771739D01*
X121881930Y-58888778D01*
X122076347Y-56950340D01*
X122235614Y-55172375D01*
X122252595Y-54941958D01*
X110137222Y-54941958D01*
X109881137Y-55301199D01*
X109784444Y-55315555D01*
X109440838Y-55195193D01*
X109431666Y-55159986D01*
X109678871Y-54858796D01*
X109784444Y-54786389D01*
X110109523Y-54814359D01*
X110137222Y-54941958D01*
X122252595Y-54941958D01*
X122290060Y-54433611D01*
X111548333Y-54433611D01*
X111371944Y-54610000D01*
X111195555Y-54433611D01*
X111371944Y-54257222D01*
X111548333Y-54433611D01*
X122290060Y-54433611D01*
X122329060Y-53904444D01*
X122429106Y-52559865D01*
X122543098Y-51465524D01*
X122648244Y-50835588D01*
X122659369Y-50800870D01*
X122702588Y-50200278D01*
X115076111Y-50200278D01*
X114899722Y-50376667D01*
X114723333Y-50200278D01*
X114899722Y-50023889D01*
X115076111Y-50200278D01*
X122702588Y-50200278D01*
X122705992Y-50152976D01*
X122651972Y-49466868D01*
X114554236Y-49466868D01*
X114199635Y-49465841D01*
X114037939Y-49425823D01*
X113455379Y-49147130D01*
X113312222Y-48924410D01*
X113522307Y-48626497D01*
X114004422Y-48791375D01*
X114347521Y-49114190D01*
X114554236Y-49466868D01*
X122651972Y-49466868D01*
X122617734Y-49032020D01*
X122428858Y-47649923D01*
X122173626Y-46218605D01*
X121886298Y-44949986D01*
X121601137Y-44055986D01*
X121551632Y-43949124D01*
X121224899Y-43184912D01*
X121216593Y-43144722D01*
X114017777Y-43144722D01*
X113841389Y-43321111D01*
X113665000Y-43144722D01*
X113841389Y-42968333D01*
X114017777Y-43144722D01*
X121216593Y-43144722D01*
X121127651Y-42714402D01*
X121074511Y-42031781D01*
X120791253Y-41020311D01*
X120372653Y-39977444D01*
X120085475Y-39443570D01*
X119730131Y-38486144D01*
X119607980Y-37340695D01*
X119612032Y-37247789D01*
X119440737Y-35712853D01*
X119204739Y-35209768D01*
X90339541Y-35209768D01*
X90320227Y-35450311D01*
X90290931Y-35560000D01*
X89955409Y-36030071D01*
X89764305Y-36089167D01*
X89169683Y-36307499D01*
X89117546Y-36353750D01*
X88637299Y-36615209D01*
X88424715Y-36375711D01*
X88479737Y-36116443D01*
X88848222Y-35624352D01*
X89326777Y-35391534D01*
X89652392Y-35518043D01*
X89681513Y-35659266D01*
X89819152Y-35825475D01*
X90061148Y-35560000D01*
X90339541Y-35209768D01*
X119204739Y-35209768D01*
X118815175Y-34379326D01*
X118549612Y-34128069D01*
X91440000Y-34128069D01*
X91183914Y-34487310D01*
X91087222Y-34501667D01*
X90743616Y-34381304D01*
X90734444Y-34346097D01*
X90981648Y-34044907D01*
X91087222Y-33972500D01*
X91412301Y-34000470D01*
X91440000Y-34128069D01*
X118549612Y-34128069D01*
X117844736Y-33461166D01*
X117616781Y-33345276D01*
X116756401Y-32831041D01*
X116221545Y-32329234D01*
X115604511Y-31832825D01*
X114651945Y-31374959D01*
X114457656Y-31307689D01*
X113504496Y-30957192D01*
X112829132Y-30632200D01*
X112750596Y-30578197D01*
X112287448Y-30414361D01*
X112173454Y-30466361D01*
X111856642Y-30368677D01*
X111369225Y-29867534D01*
X110876677Y-29179840D01*
X110544475Y-28522503D01*
X110490000Y-28259660D01*
X110317659Y-27924512D01*
X110161598Y-27960212D01*
X109708515Y-27915972D01*
X109611612Y-27804643D01*
X109066894Y-27505192D01*
X108176349Y-27477239D01*
X107238160Y-27704086D01*
G36*
X121778889Y-84419722D02*
G01*
X121955277Y-84596111D01*
X122131666Y-84419722D01*
X121955277Y-84243333D01*
X121778889Y-84419722D01*
G37*
X121778889Y-84419722D02*
X121955277Y-84596111D01*
X122131666Y-84419722D01*
X121955277Y-84243333D01*
X121778889Y-84419722D01*
D13*
X50498333Y-123912380D02*
X50498333Y-124626666D01*
X50545952Y-124769523D01*
X50641190Y-124864761D01*
X50784047Y-124912380D01*
X50879285Y-124912380D01*
X49879285Y-124340952D02*
X49974523Y-124293333D01*
X50022142Y-124245714D01*
X50069761Y-124150476D01*
X50069761Y-124102857D01*
X50022142Y-124007619D01*
X49974523Y-123960000D01*
X49879285Y-123912380D01*
X49688809Y-123912380D01*
X49593571Y-123960000D01*
X49545952Y-124007619D01*
X49498333Y-124102857D01*
X49498333Y-124150476D01*
X49545952Y-124245714D01*
X49593571Y-124293333D01*
X49688809Y-124340952D01*
X49879285Y-124340952D01*
X49974523Y-124388571D01*
X50022142Y-124436190D01*
X50069761Y-124531428D01*
X50069761Y-124721904D01*
X50022142Y-124817142D01*
X49974523Y-124864761D01*
X49879285Y-124912380D01*
X49688809Y-124912380D01*
X49593571Y-124864761D01*
X49545952Y-124817142D01*
X49498333Y-124721904D01*
X49498333Y-124531428D01*
X49545952Y-124436190D01*
X49593571Y-124388571D01*
X49688809Y-124340952D01*
X88598333Y-123912380D02*
X88598333Y-124626666D01*
X88645952Y-124769523D01*
X88741190Y-124864761D01*
X88884047Y-124912380D01*
X88979285Y-124912380D01*
X88074523Y-124912380D02*
X87884047Y-124912380D01*
X87788809Y-124864761D01*
X87741190Y-124817142D01*
X87645952Y-124674285D01*
X87598333Y-124483809D01*
X87598333Y-124102857D01*
X87645952Y-124007619D01*
X87693571Y-123960000D01*
X87788809Y-123912380D01*
X87979285Y-123912380D01*
X88074523Y-123960000D01*
X88122142Y-124007619D01*
X88169761Y-124102857D01*
X88169761Y-124340952D01*
X88122142Y-124436190D01*
X88074523Y-124483809D01*
X87979285Y-124531428D01*
X87788809Y-124531428D01*
X87693571Y-124483809D01*
X87645952Y-124436190D01*
X87598333Y-124340952D01*
X107648333Y-21677380D02*
X107648333Y-22391666D01*
X107695952Y-22534523D01*
X107791190Y-22629761D01*
X107934047Y-22677380D01*
X108029285Y-22677380D01*
X107267380Y-21677380D02*
X106600714Y-21677380D01*
X107029285Y-22677380D01*
X31448333Y-21677380D02*
X31448333Y-22391666D01*
X31495952Y-22534523D01*
X31591190Y-22629761D01*
X31734047Y-22677380D01*
X31829285Y-22677380D01*
X30543571Y-21677380D02*
X30734047Y-21677380D01*
X30829285Y-21725000D01*
X30876904Y-21772619D01*
X30972142Y-21915476D01*
X31019761Y-22105952D01*
X31019761Y-22486904D01*
X30972142Y-22582142D01*
X30924523Y-22629761D01*
X30829285Y-22677380D01*
X30638809Y-22677380D01*
X30543571Y-22629761D01*
X30495952Y-22582142D01*
X30448333Y-22486904D01*
X30448333Y-22248809D01*
X30495952Y-22153571D01*
X30543571Y-22105952D01*
X30638809Y-22058333D01*
X30829285Y-22058333D01*
X30924523Y-22105952D01*
X30972142Y-22153571D01*
X31019761Y-22248809D01*
%LPC*%
D14*
X74930000Y-31750000D03*
X90170000Y-31750000D03*
X74930000Y-67310000D03*
X90170000Y-34290000D03*
X74930000Y-64770000D03*
X90170000Y-36830000D03*
X74930000Y-62230000D03*
X90170000Y-39370000D03*
X74930000Y-59690000D03*
X90170000Y-41910000D03*
X74930000Y-57150000D03*
X90170000Y-44450000D03*
X74930000Y-54610000D03*
X90170000Y-46990000D03*
X74930000Y-52070000D03*
X90170000Y-49530000D03*
X74930000Y-49530000D03*
X90170000Y-52070000D03*
X74930000Y-46990000D03*
X90170000Y-54610000D03*
X74930000Y-44450000D03*
X90170000Y-57150000D03*
X74930000Y-41910000D03*
X90170000Y-59690000D03*
X74930000Y-39370000D03*
X90170000Y-62230000D03*
X74930000Y-36830000D03*
X90170000Y-64770000D03*
X74930000Y-34290000D03*
D15*
X90170000Y-67310000D03*
G36*
G01*
X47565000Y-122545001D02*
X47565000Y-121294999D01*
G75*
G02*
X47814999Y-121045000I249999J0D01*
G01*
X48515001Y-121045000D01*
G75*
G02*
X48765000Y-121294999I0J-249999D01*
G01*
X48765000Y-122545001D01*
G75*
G02*
X48515001Y-122795000I-249999J0D01*
G01*
X47814999Y-122795000D01*
G75*
G02*
X47565000Y-122545001I0J249999D01*
G01*
G37*
D16*
X50165000Y-121920000D03*
X52165000Y-121920000D03*
G36*
G01*
X85665000Y-122545001D02*
X85665000Y-121294999D01*
G75*
G02*
X85914999Y-121045000I249999J0D01*
G01*
X86615001Y-121045000D01*
G75*
G02*
X86865000Y-121294999I0J-249999D01*
G01*
X86865000Y-122545001D01*
G75*
G02*
X86615001Y-122795000I-249999J0D01*
G01*
X85914999Y-122795000D01*
G75*
G02*
X85665000Y-122545001I0J249999D01*
G01*
G37*
X88265000Y-121920000D03*
X90265000Y-121920000D03*
G36*
G01*
X109820000Y-17789999D02*
X109820000Y-19040001D01*
G75*
G02*
X109570001Y-19290000I-249999J0D01*
G01*
X108869999Y-19290000D01*
G75*
G02*
X108620000Y-19040001I0J249999D01*
G01*
X108620000Y-17789999D01*
G75*
G02*
X108869999Y-17540000I249999J0D01*
G01*
X109570001Y-17540000D01*
G75*
G02*
X109820000Y-17789999I0J-249999D01*
G01*
G37*
X107220000Y-18415000D03*
X105220000Y-18415000D03*
G36*
G01*
X33715000Y-17789999D02*
X33715000Y-19040001D01*
G75*
G02*
X33465001Y-19290000I-249999J0D01*
G01*
X32764999Y-19290000D01*
G75*
G02*
X32515000Y-19040001I0J249999D01*
G01*
X32515000Y-17789999D01*
G75*
G02*
X32764999Y-17540000I249999J0D01*
G01*
X33465001Y-17540000D01*
G75*
G02*
X33715000Y-17789999I0J-249999D01*
G01*
G37*
X31115000Y-18415000D03*
X29115000Y-18415000D03*
D17*
X107315000Y-46990000D03*
D18*
X107315000Y-44450000D03*
D17*
X107315000Y-60325000D03*
D18*
X107315000Y-57785000D03*
D19*
X120650000Y-120650000D03*
X20320000Y-120650000D03*
X120650000Y-19050000D03*
X19050000Y-19050000D03*
D18*
X50165000Y-86360000D03*
D17*
X47625000Y-86360000D03*
X45085000Y-86360000D03*
X42545000Y-86360000D03*
X40005000Y-86360000D03*
X37465000Y-86360000D03*
D20*
X113030000Y-113665000D03*
D14*
X113030000Y-106045000D03*
D20*
X113030000Y-86995000D03*
D14*
X113030000Y-94615000D03*
D20*
X118745000Y-106045000D03*
D14*
X118745000Y-113665000D03*
D20*
X118745000Y-86995000D03*
D14*
X118745000Y-94615000D03*
D18*
X81280000Y-19050000D03*
D17*
X83820000Y-19050000D03*
X104775000Y-94615000D03*
X104775000Y-92075000D03*
X104775000Y-89535000D03*
X104775000Y-86995000D03*
X104775000Y-84455000D03*
D18*
X104775000Y-81915000D03*
X104775000Y-100965000D03*
D17*
X104775000Y-103505000D03*
X104775000Y-106045000D03*
X104775000Y-108585000D03*
X104775000Y-111125000D03*
X104775000Y-113665000D03*
X18415000Y-41275000D03*
X20955000Y-41275000D03*
X23495000Y-41275000D03*
X26035000Y-41275000D03*
X28575000Y-41275000D03*
D18*
X31115000Y-41275000D03*
D17*
X28575000Y-66675000D03*
X26035000Y-66675000D03*
X23495000Y-66675000D03*
D18*
X20955000Y-66675000D03*
X51435000Y-41275000D03*
D17*
X48895000Y-41275000D03*
X46355000Y-41275000D03*
X43815000Y-41275000D03*
X41275000Y-41275000D03*
X38735000Y-41275000D03*
D18*
X41275000Y-66675000D03*
D17*
X43815000Y-66675000D03*
X46355000Y-66675000D03*
X48895000Y-66675000D03*
X18415000Y-86360000D03*
X20955000Y-86360000D03*
X23495000Y-86360000D03*
X26035000Y-86360000D03*
X28575000Y-86360000D03*
D18*
X31115000Y-86360000D03*
X20955000Y-111760000D03*
D17*
X23495000Y-111760000D03*
X26035000Y-111760000D03*
X28575000Y-111760000D03*
X47625000Y-111760000D03*
X45085000Y-111760000D03*
X42545000Y-111760000D03*
D18*
X40005000Y-111760000D03*
D20*
X18415000Y-34925000D03*
D14*
X26035000Y-34925000D03*
X26035000Y-30480000D03*
D20*
X18415000Y-30480000D03*
D14*
X46355000Y-34925000D03*
D20*
X38735000Y-34925000D03*
X38735000Y-30480000D03*
D14*
X46355000Y-30480000D03*
D20*
X18415000Y-78740000D03*
D14*
X26035000Y-78740000D03*
X26035000Y-74295000D03*
D20*
X18415000Y-74295000D03*
D14*
X45085000Y-78740000D03*
D20*
X37465000Y-78740000D03*
X37465000Y-74295000D03*
D14*
X45085000Y-74295000D03*
M02*
