G04 #@! TF.GenerationSoftware,KiCad,Pcbnew,(5.1.9)-1*
G04 #@! TF.CreationDate,2022-02-19T11:53:10-06:00*
G04 #@! TF.ProjectId,V2_load_cell,56325f6c-6f61-4645-9f63-656c6c2e6b69,rev?*
G04 #@! TF.SameCoordinates,Original*
G04 #@! TF.FileFunction,Copper,L2,Bot*
G04 #@! TF.FilePolarity,Positive*
%FSLAX46Y46*%
G04 Gerber Fmt 4.6, Leading zero omitted, Abs format (unit mm)*
G04 Created by KiCad (PCBNEW (5.1.9)-1) date 2022-02-19 11:53:10*
%MOMM*%
%LPD*%
G01*
G04 APERTURE LIST*
G04 #@! TA.AperFunction,ComponentPad*
%ADD10O,1.200000X1.750000*%
G04 #@! TD*
G04 #@! TA.AperFunction,ComponentPad*
%ADD11O,1.700000X1.700000*%
G04 #@! TD*
G04 #@! TA.AperFunction,ComponentPad*
%ADD12R,1.700000X1.700000*%
G04 #@! TD*
G04 #@! TA.AperFunction,ComponentPad*
%ADD13O,1.600000X1.600000*%
G04 #@! TD*
G04 #@! TA.AperFunction,ComponentPad*
%ADD14R,1.600000X1.600000*%
G04 #@! TD*
G04 #@! TA.AperFunction,ComponentPad*
%ADD15C,1.600000*%
G04 #@! TD*
G04 #@! TA.AperFunction,Conductor*
%ADD16C,0.250000*%
G04 #@! TD*
G04 #@! TA.AperFunction,Conductor*
%ADD17C,0.254000*%
G04 #@! TD*
G04 #@! TA.AperFunction,Conductor*
%ADD18C,0.100000*%
G04 #@! TD*
G04 APERTURE END LIST*
D10*
X105855000Y-19685000D03*
X107855000Y-19685000D03*
G04 #@! TA.AperFunction,ComponentPad*
G36*
G01*
X110455000Y-19059999D02*
X110455000Y-20310001D01*
G75*
G02*
X110205001Y-20560000I-249999J0D01*
G01*
X109504999Y-20560000D01*
G75*
G02*
X109255000Y-20310001I0J249999D01*
G01*
X109255000Y-19059999D01*
G75*
G02*
X109504999Y-18810000I249999J0D01*
G01*
X110205001Y-18810000D01*
G75*
G02*
X110455000Y-19059999I0J-249999D01*
G01*
G37*
G04 #@! TD.AperFunction*
X29845000Y-19685000D03*
X31845000Y-19685000D03*
G04 #@! TA.AperFunction,ComponentPad*
G36*
G01*
X34445000Y-19059999D02*
X34445000Y-20310001D01*
G75*
G02*
X34195001Y-20560000I-249999J0D01*
G01*
X33494999Y-20560000D01*
G75*
G02*
X33245000Y-20310001I0J249999D01*
G01*
X33245000Y-19059999D01*
G75*
G02*
X33494999Y-18810000I249999J0D01*
G01*
X34195001Y-18810000D01*
G75*
G02*
X34445000Y-19059999I0J-249999D01*
G01*
G37*
G04 #@! TD.AperFunction*
G04 #@! TA.AperFunction,ComponentPad*
G36*
G01*
X105255000Y-120005001D02*
X105255000Y-118754999D01*
G75*
G02*
X105504999Y-118505000I249999J0D01*
G01*
X106205001Y-118505000D01*
G75*
G02*
X106455000Y-118754999I0J-249999D01*
G01*
X106455000Y-120005001D01*
G75*
G02*
X106205001Y-120255000I-249999J0D01*
G01*
X105504999Y-120255000D01*
G75*
G02*
X105255000Y-120005001I0J249999D01*
G01*
G37*
G04 #@! TD.AperFunction*
X107855000Y-119380000D03*
X109855000Y-119380000D03*
X33845000Y-119380000D03*
X31845000Y-119380000D03*
G04 #@! TA.AperFunction,ComponentPad*
G36*
G01*
X29245000Y-120005001D02*
X29245000Y-118754999D01*
G75*
G02*
X29494999Y-118505000I249999J0D01*
G01*
X30195001Y-118505000D01*
G75*
G02*
X30445000Y-118754999I0J-249999D01*
G01*
X30445000Y-120005001D01*
G75*
G02*
X30195001Y-120255000I-249999J0D01*
G01*
X29494999Y-120255000D01*
G75*
G02*
X29245000Y-120005001I0J249999D01*
G01*
G37*
G04 #@! TD.AperFunction*
D11*
X107315000Y-46990000D03*
D12*
X107315000Y-44450000D03*
D11*
X107315000Y-60325000D03*
D12*
X107315000Y-57785000D03*
D13*
X90170000Y-67310000D03*
X74930000Y-67310000D03*
X90170000Y-31750000D03*
X74930000Y-64770000D03*
X90170000Y-34290000D03*
X74930000Y-62230000D03*
X90170000Y-36830000D03*
X74930000Y-59690000D03*
X90170000Y-39370000D03*
X74930000Y-57150000D03*
X90170000Y-41910000D03*
X74930000Y-54610000D03*
X90170000Y-44450000D03*
X74930000Y-52070000D03*
X90170000Y-46990000D03*
X74930000Y-49530000D03*
X90170000Y-49530000D03*
X74930000Y-46990000D03*
X90170000Y-52070000D03*
X74930000Y-44450000D03*
X90170000Y-54610000D03*
X74930000Y-41910000D03*
X90170000Y-57150000D03*
X74930000Y-39370000D03*
X90170000Y-59690000D03*
X74930000Y-36830000D03*
X90170000Y-62230000D03*
X74930000Y-34290000D03*
X90170000Y-64770000D03*
D14*
X74930000Y-31750000D03*
D12*
X50165000Y-86360000D03*
D11*
X47625000Y-86360000D03*
X45085000Y-86360000D03*
X42545000Y-86360000D03*
X40005000Y-86360000D03*
X37465000Y-86360000D03*
D15*
X113030000Y-113665000D03*
D13*
X113030000Y-106045000D03*
D15*
X113030000Y-86995000D03*
D13*
X113030000Y-94615000D03*
D15*
X118745000Y-106045000D03*
D13*
X118745000Y-113665000D03*
D15*
X118745000Y-86995000D03*
D13*
X118745000Y-94615000D03*
D12*
X81280000Y-19050000D03*
D11*
X83820000Y-19050000D03*
X104775000Y-94615000D03*
X104775000Y-92075000D03*
X104775000Y-89535000D03*
X104775000Y-86995000D03*
X104775000Y-84455000D03*
D12*
X104775000Y-81915000D03*
X104775000Y-100965000D03*
D11*
X104775000Y-103505000D03*
X104775000Y-106045000D03*
X104775000Y-108585000D03*
X104775000Y-111125000D03*
X104775000Y-113665000D03*
X18415000Y-41275000D03*
X20955000Y-41275000D03*
X23495000Y-41275000D03*
X26035000Y-41275000D03*
X28575000Y-41275000D03*
D12*
X31115000Y-41275000D03*
D11*
X28575000Y-66675000D03*
X26035000Y-66675000D03*
X23495000Y-66675000D03*
D12*
X20955000Y-66675000D03*
X51435000Y-41275000D03*
D11*
X48895000Y-41275000D03*
X46355000Y-41275000D03*
X43815000Y-41275000D03*
X41275000Y-41275000D03*
X38735000Y-41275000D03*
D12*
X41275000Y-66675000D03*
D11*
X43815000Y-66675000D03*
X46355000Y-66675000D03*
X48895000Y-66675000D03*
X18415000Y-86360000D03*
X20955000Y-86360000D03*
X23495000Y-86360000D03*
X26035000Y-86360000D03*
X28575000Y-86360000D03*
D12*
X31115000Y-86360000D03*
X20955000Y-111760000D03*
D11*
X23495000Y-111760000D03*
X26035000Y-111760000D03*
X28575000Y-111760000D03*
X47625000Y-111760000D03*
X45085000Y-111760000D03*
X42545000Y-111760000D03*
D12*
X40005000Y-111760000D03*
D15*
X18415000Y-34925000D03*
D13*
X26035000Y-34925000D03*
X26035000Y-30480000D03*
D15*
X18415000Y-30480000D03*
D13*
X46355000Y-34925000D03*
D15*
X38735000Y-34925000D03*
X38735000Y-30480000D03*
D13*
X46355000Y-30480000D03*
D15*
X18415000Y-78740000D03*
D13*
X26035000Y-78740000D03*
X26035000Y-74295000D03*
D15*
X18415000Y-74295000D03*
D13*
X45085000Y-78740000D03*
D15*
X37465000Y-78740000D03*
X37465000Y-74295000D03*
D13*
X45085000Y-74295000D03*
D16*
X104775000Y-92075000D02*
X100330000Y-96520000D01*
X100330000Y-106680000D02*
X104775000Y-111125000D01*
X100330000Y-96520000D02*
X100330000Y-106680000D01*
X85725000Y-43815000D02*
X85725000Y-81915000D01*
X90170000Y-39370000D02*
X85725000Y-43815000D01*
X95885000Y-92075000D02*
X104775000Y-92075000D01*
X76200000Y-84455000D02*
X88265000Y-84455000D01*
X58420000Y-66675000D02*
X76200000Y-84455000D01*
X48895000Y-66675000D02*
X58420000Y-66675000D01*
X88265000Y-84455000D02*
X95885000Y-92075000D01*
X85725000Y-81915000D02*
X88265000Y-84455000D01*
X26035000Y-30480000D02*
X31115000Y-35560000D01*
X31115000Y-35560000D02*
X31115000Y-41275000D01*
X31115000Y-35560000D02*
X31115000Y-29210000D01*
X29845000Y-27940000D02*
X29845000Y-20955000D01*
X31115000Y-29210000D02*
X29845000Y-27940000D01*
X29845000Y-20955000D02*
X29845000Y-19685000D01*
X46355000Y-30480000D02*
X48895000Y-30480000D01*
X51435000Y-33020000D02*
X51435000Y-41275000D01*
X48895000Y-30480000D02*
X51435000Y-33020000D01*
X102045000Y-15875000D02*
X105855000Y-19685000D01*
X68580000Y-15875000D02*
X102045000Y-15875000D01*
X51435000Y-33020000D02*
X68580000Y-15875000D01*
X36195000Y-91440000D02*
X31115000Y-86360000D01*
X36195000Y-118745000D02*
X36195000Y-91440000D01*
X35560000Y-119380000D02*
X36195000Y-118745000D01*
X33845000Y-119380000D02*
X35560000Y-119380000D01*
X28575000Y-88265000D02*
X33655000Y-93345000D01*
X28575000Y-86360000D02*
X28575000Y-88265000D01*
X31845000Y-119380000D02*
X31845000Y-118205000D01*
X31845000Y-118205000D02*
X33655000Y-116395000D01*
X33655000Y-116395000D02*
X33655000Y-93345000D01*
X31115000Y-93980000D02*
X23495000Y-86360000D01*
X31115000Y-116205000D02*
X31115000Y-93980000D01*
X29845000Y-119380000D02*
X29845000Y-117475000D01*
X29845000Y-117475000D02*
X31115000Y-116205000D01*
X104654990Y-120580010D02*
X105855000Y-119380000D01*
X42545000Y-90805000D02*
X72320010Y-120580010D01*
X72320010Y-120580010D02*
X104654990Y-120580010D01*
X42545000Y-86360000D02*
X42545000Y-90805000D01*
X47625000Y-90170000D02*
X47625000Y-86360000D01*
X75120000Y-117665000D02*
X47625000Y-90170000D01*
X107315000Y-117665000D02*
X75120000Y-117665000D01*
X107855000Y-118205000D02*
X107315000Y-117665000D01*
X107855000Y-119380000D02*
X107855000Y-118205000D01*
X79375000Y-115570000D02*
X50165000Y-86360000D01*
X109855000Y-119380000D02*
X109855000Y-117475000D01*
X107950000Y-115570000D02*
X79375000Y-115570000D01*
X109855000Y-117475000D02*
X107950000Y-115570000D01*
X107315000Y-32385000D02*
X107315000Y-44450000D01*
X101600000Y-26670000D02*
X107315000Y-32385000D01*
X84455000Y-26670000D02*
X101600000Y-26670000D01*
X81280000Y-23495000D02*
X84455000Y-26670000D01*
X81280000Y-19050000D02*
X81280000Y-23495000D01*
D17*
X125680001Y-125705000D02*
X12725000Y-125705000D01*
X12725000Y-120429872D01*
X18085000Y-120429872D01*
X18085000Y-120870128D01*
X18170890Y-121301925D01*
X18339369Y-121708669D01*
X18583962Y-122074729D01*
X18895271Y-122386038D01*
X19261331Y-122630631D01*
X19668075Y-122799110D01*
X20099872Y-122885000D01*
X20540128Y-122885000D01*
X20971925Y-122799110D01*
X21378669Y-122630631D01*
X21744729Y-122386038D01*
X22056038Y-122074729D01*
X22300631Y-121708669D01*
X22469110Y-121301925D01*
X22555000Y-120870128D01*
X22555000Y-120429872D01*
X22469110Y-119998075D01*
X22300631Y-119591331D01*
X22056038Y-119225271D01*
X21744729Y-118913962D01*
X21378669Y-118669369D01*
X20971925Y-118500890D01*
X20540128Y-118415000D01*
X20099872Y-118415000D01*
X19668075Y-118500890D01*
X19261331Y-118669369D01*
X18895271Y-118913962D01*
X18583962Y-119225271D01*
X18339369Y-119591331D01*
X18170890Y-119998075D01*
X18085000Y-120429872D01*
X12725000Y-120429872D01*
X12725000Y-112610000D01*
X19466928Y-112610000D01*
X19479188Y-112734482D01*
X19515498Y-112854180D01*
X19574463Y-112964494D01*
X19653815Y-113061185D01*
X19750506Y-113140537D01*
X19860820Y-113199502D01*
X19980518Y-113235812D01*
X20105000Y-113248072D01*
X20669250Y-113245000D01*
X20828000Y-113086250D01*
X20828000Y-111887000D01*
X19628750Y-111887000D01*
X19470000Y-112045750D01*
X19466928Y-112610000D01*
X12725000Y-112610000D01*
X12725000Y-110910000D01*
X19466928Y-110910000D01*
X19470000Y-111474250D01*
X19628750Y-111633000D01*
X20828000Y-111633000D01*
X20828000Y-110433750D01*
X21082000Y-110433750D01*
X21082000Y-111633000D01*
X21102000Y-111633000D01*
X21102000Y-111887000D01*
X21082000Y-111887000D01*
X21082000Y-113086250D01*
X21240750Y-113245000D01*
X21805000Y-113248072D01*
X21929482Y-113235812D01*
X22049180Y-113199502D01*
X22159494Y-113140537D01*
X22256185Y-113061185D01*
X22335537Y-112964494D01*
X22394502Y-112854180D01*
X22416513Y-112781620D01*
X22548368Y-112913475D01*
X22791589Y-113075990D01*
X23061842Y-113187932D01*
X23348740Y-113245000D01*
X23641260Y-113245000D01*
X23928158Y-113187932D01*
X24198411Y-113075990D01*
X24441632Y-112913475D01*
X24648475Y-112706632D01*
X24765000Y-112532240D01*
X24881525Y-112706632D01*
X25088368Y-112913475D01*
X25331589Y-113075990D01*
X25601842Y-113187932D01*
X25888740Y-113245000D01*
X26181260Y-113245000D01*
X26468158Y-113187932D01*
X26738411Y-113075990D01*
X26981632Y-112913475D01*
X27188475Y-112706632D01*
X27305000Y-112532240D01*
X27421525Y-112706632D01*
X27628368Y-112913475D01*
X27871589Y-113075990D01*
X28141842Y-113187932D01*
X28428740Y-113245000D01*
X28721260Y-113245000D01*
X29008158Y-113187932D01*
X29278411Y-113075990D01*
X29521632Y-112913475D01*
X29728475Y-112706632D01*
X29890990Y-112463411D01*
X30002932Y-112193158D01*
X30060000Y-111906260D01*
X30060000Y-111613740D01*
X30002932Y-111326842D01*
X29890990Y-111056589D01*
X29728475Y-110813368D01*
X29521632Y-110606525D01*
X29278411Y-110444010D01*
X29008158Y-110332068D01*
X28721260Y-110275000D01*
X28428740Y-110275000D01*
X28141842Y-110332068D01*
X27871589Y-110444010D01*
X27628368Y-110606525D01*
X27421525Y-110813368D01*
X27305000Y-110987760D01*
X27188475Y-110813368D01*
X26981632Y-110606525D01*
X26738411Y-110444010D01*
X26468158Y-110332068D01*
X26181260Y-110275000D01*
X25888740Y-110275000D01*
X25601842Y-110332068D01*
X25331589Y-110444010D01*
X25088368Y-110606525D01*
X24881525Y-110813368D01*
X24765000Y-110987760D01*
X24648475Y-110813368D01*
X24441632Y-110606525D01*
X24198411Y-110444010D01*
X23928158Y-110332068D01*
X23641260Y-110275000D01*
X23348740Y-110275000D01*
X23061842Y-110332068D01*
X22791589Y-110444010D01*
X22548368Y-110606525D01*
X22416513Y-110738380D01*
X22394502Y-110665820D01*
X22335537Y-110555506D01*
X22256185Y-110458815D01*
X22159494Y-110379463D01*
X22049180Y-110320498D01*
X21929482Y-110284188D01*
X21805000Y-110271928D01*
X21240750Y-110275000D01*
X21082000Y-110433750D01*
X20828000Y-110433750D01*
X20669250Y-110275000D01*
X20105000Y-110271928D01*
X19980518Y-110284188D01*
X19860820Y-110320498D01*
X19750506Y-110379463D01*
X19653815Y-110458815D01*
X19574463Y-110555506D01*
X19515498Y-110665820D01*
X19479188Y-110785518D01*
X19466928Y-110910000D01*
X12725000Y-110910000D01*
X12725000Y-86213740D01*
X16930000Y-86213740D01*
X16930000Y-86506260D01*
X16987068Y-86793158D01*
X17099010Y-87063411D01*
X17261525Y-87306632D01*
X17468368Y-87513475D01*
X17711589Y-87675990D01*
X17981842Y-87787932D01*
X18268740Y-87845000D01*
X18561260Y-87845000D01*
X18848158Y-87787932D01*
X19118411Y-87675990D01*
X19361632Y-87513475D01*
X19568475Y-87306632D01*
X19685000Y-87132240D01*
X19801525Y-87306632D01*
X20008368Y-87513475D01*
X20251589Y-87675990D01*
X20521842Y-87787932D01*
X20808740Y-87845000D01*
X21101260Y-87845000D01*
X21388158Y-87787932D01*
X21658411Y-87675990D01*
X21901632Y-87513475D01*
X22108475Y-87306632D01*
X22225000Y-87132240D01*
X22341525Y-87306632D01*
X22548368Y-87513475D01*
X22791589Y-87675990D01*
X23061842Y-87787932D01*
X23348740Y-87845000D01*
X23641260Y-87845000D01*
X23861408Y-87801209D01*
X30355001Y-94294803D01*
X30355000Y-115890198D01*
X29333998Y-116911201D01*
X29305000Y-116934999D01*
X29281202Y-116963997D01*
X29281201Y-116963998D01*
X29210026Y-117050724D01*
X29139454Y-117182754D01*
X29121870Y-117240723D01*
X29095998Y-117326014D01*
X29085001Y-117437667D01*
X29081324Y-117475000D01*
X29085001Y-117512332D01*
X29085001Y-117972023D01*
X29001613Y-118016595D01*
X28867038Y-118127038D01*
X28756595Y-118261613D01*
X28674528Y-118415149D01*
X28623992Y-118581745D01*
X28606928Y-118754999D01*
X28606928Y-120005001D01*
X28623992Y-120178255D01*
X28674528Y-120344851D01*
X28756595Y-120498387D01*
X28867038Y-120632962D01*
X29001613Y-120743405D01*
X29155149Y-120825472D01*
X29321745Y-120876008D01*
X29494999Y-120893072D01*
X30195001Y-120893072D01*
X30368255Y-120876008D01*
X30534851Y-120825472D01*
X30688387Y-120743405D01*
X30822962Y-120632962D01*
X30933405Y-120498387D01*
X30935810Y-120493888D01*
X30967499Y-120532502D01*
X31155552Y-120686833D01*
X31370100Y-120801511D01*
X31602899Y-120872130D01*
X31845000Y-120895975D01*
X32087102Y-120872130D01*
X32319901Y-120801511D01*
X32534449Y-120686833D01*
X32722502Y-120532502D01*
X32845001Y-120383237D01*
X32967499Y-120532502D01*
X33155552Y-120686833D01*
X33370100Y-120801511D01*
X33602899Y-120872130D01*
X33845000Y-120895975D01*
X34087102Y-120872130D01*
X34319901Y-120801511D01*
X34534449Y-120686833D01*
X34722502Y-120532502D01*
X34876833Y-120344449D01*
X34986112Y-120140000D01*
X35522678Y-120140000D01*
X35560000Y-120143676D01*
X35597322Y-120140000D01*
X35597333Y-120140000D01*
X35708986Y-120129003D01*
X35852247Y-120085546D01*
X35984276Y-120014974D01*
X36100001Y-119920001D01*
X36123803Y-119890998D01*
X36706004Y-119308798D01*
X36735001Y-119285001D01*
X36829974Y-119169276D01*
X36900546Y-119037247D01*
X36944003Y-118893986D01*
X36955000Y-118782333D01*
X36955000Y-118782332D01*
X36958677Y-118745000D01*
X36955000Y-118707667D01*
X36955000Y-112610000D01*
X38516928Y-112610000D01*
X38529188Y-112734482D01*
X38565498Y-112854180D01*
X38624463Y-112964494D01*
X38703815Y-113061185D01*
X38800506Y-113140537D01*
X38910820Y-113199502D01*
X39030518Y-113235812D01*
X39155000Y-113248072D01*
X39719250Y-113245000D01*
X39878000Y-113086250D01*
X39878000Y-111887000D01*
X38678750Y-111887000D01*
X38520000Y-112045750D01*
X38516928Y-112610000D01*
X36955000Y-112610000D01*
X36955000Y-110910000D01*
X38516928Y-110910000D01*
X38520000Y-111474250D01*
X38678750Y-111633000D01*
X39878000Y-111633000D01*
X39878000Y-110433750D01*
X40132000Y-110433750D01*
X40132000Y-111633000D01*
X40152000Y-111633000D01*
X40152000Y-111887000D01*
X40132000Y-111887000D01*
X40132000Y-113086250D01*
X40290750Y-113245000D01*
X40855000Y-113248072D01*
X40979482Y-113235812D01*
X41099180Y-113199502D01*
X41209494Y-113140537D01*
X41306185Y-113061185D01*
X41385537Y-112964494D01*
X41444502Y-112854180D01*
X41466513Y-112781620D01*
X41598368Y-112913475D01*
X41841589Y-113075990D01*
X42111842Y-113187932D01*
X42398740Y-113245000D01*
X42691260Y-113245000D01*
X42978158Y-113187932D01*
X43248411Y-113075990D01*
X43491632Y-112913475D01*
X43698475Y-112706632D01*
X43815000Y-112532240D01*
X43931525Y-112706632D01*
X44138368Y-112913475D01*
X44381589Y-113075990D01*
X44651842Y-113187932D01*
X44938740Y-113245000D01*
X45231260Y-113245000D01*
X45518158Y-113187932D01*
X45788411Y-113075990D01*
X46031632Y-112913475D01*
X46238475Y-112706632D01*
X46355000Y-112532240D01*
X46471525Y-112706632D01*
X46678368Y-112913475D01*
X46921589Y-113075990D01*
X47191842Y-113187932D01*
X47478740Y-113245000D01*
X47771260Y-113245000D01*
X48058158Y-113187932D01*
X48328411Y-113075990D01*
X48571632Y-112913475D01*
X48778475Y-112706632D01*
X48940990Y-112463411D01*
X49052932Y-112193158D01*
X49110000Y-111906260D01*
X49110000Y-111613740D01*
X49052932Y-111326842D01*
X48940990Y-111056589D01*
X48778475Y-110813368D01*
X48571632Y-110606525D01*
X48328411Y-110444010D01*
X48058158Y-110332068D01*
X47771260Y-110275000D01*
X47478740Y-110275000D01*
X47191842Y-110332068D01*
X46921589Y-110444010D01*
X46678368Y-110606525D01*
X46471525Y-110813368D01*
X46355000Y-110987760D01*
X46238475Y-110813368D01*
X46031632Y-110606525D01*
X45788411Y-110444010D01*
X45518158Y-110332068D01*
X45231260Y-110275000D01*
X44938740Y-110275000D01*
X44651842Y-110332068D01*
X44381589Y-110444010D01*
X44138368Y-110606525D01*
X43931525Y-110813368D01*
X43815000Y-110987760D01*
X43698475Y-110813368D01*
X43491632Y-110606525D01*
X43248411Y-110444010D01*
X42978158Y-110332068D01*
X42691260Y-110275000D01*
X42398740Y-110275000D01*
X42111842Y-110332068D01*
X41841589Y-110444010D01*
X41598368Y-110606525D01*
X41466513Y-110738380D01*
X41444502Y-110665820D01*
X41385537Y-110555506D01*
X41306185Y-110458815D01*
X41209494Y-110379463D01*
X41099180Y-110320498D01*
X40979482Y-110284188D01*
X40855000Y-110271928D01*
X40290750Y-110275000D01*
X40132000Y-110433750D01*
X39878000Y-110433750D01*
X39719250Y-110275000D01*
X39155000Y-110271928D01*
X39030518Y-110284188D01*
X38910820Y-110320498D01*
X38800506Y-110379463D01*
X38703815Y-110458815D01*
X38624463Y-110555506D01*
X38565498Y-110665820D01*
X38529188Y-110785518D01*
X38516928Y-110910000D01*
X36955000Y-110910000D01*
X36955000Y-91477323D01*
X36958676Y-91440000D01*
X36955000Y-91402677D01*
X36955000Y-91402667D01*
X36944003Y-91291014D01*
X36900546Y-91147753D01*
X36873549Y-91097246D01*
X36829974Y-91015723D01*
X36758799Y-90928997D01*
X36735001Y-90899999D01*
X36706003Y-90876201D01*
X32603072Y-86773271D01*
X32603072Y-86213740D01*
X35980000Y-86213740D01*
X35980000Y-86506260D01*
X36037068Y-86793158D01*
X36149010Y-87063411D01*
X36311525Y-87306632D01*
X36518368Y-87513475D01*
X36761589Y-87675990D01*
X37031842Y-87787932D01*
X37318740Y-87845000D01*
X37611260Y-87845000D01*
X37898158Y-87787932D01*
X38168411Y-87675990D01*
X38411632Y-87513475D01*
X38618475Y-87306632D01*
X38735000Y-87132240D01*
X38851525Y-87306632D01*
X39058368Y-87513475D01*
X39301589Y-87675990D01*
X39571842Y-87787932D01*
X39858740Y-87845000D01*
X40151260Y-87845000D01*
X40438158Y-87787932D01*
X40708411Y-87675990D01*
X40951632Y-87513475D01*
X41158475Y-87306632D01*
X41275000Y-87132240D01*
X41391525Y-87306632D01*
X41598368Y-87513475D01*
X41785000Y-87638179D01*
X41785001Y-90767668D01*
X41781324Y-90805000D01*
X41785001Y-90842333D01*
X41792553Y-90919003D01*
X41795998Y-90953985D01*
X41839454Y-91097246D01*
X41910026Y-91229276D01*
X41960694Y-91291014D01*
X42005000Y-91345001D01*
X42033998Y-91368799D01*
X71756211Y-121091013D01*
X71780009Y-121120011D01*
X71809007Y-121143809D01*
X71895733Y-121214984D01*
X72027763Y-121285556D01*
X72171024Y-121329013D01*
X72282677Y-121340010D01*
X72282687Y-121340010D01*
X72320010Y-121343686D01*
X72357333Y-121340010D01*
X104617668Y-121340010D01*
X104654990Y-121343686D01*
X104692312Y-121340010D01*
X104692323Y-121340010D01*
X104803976Y-121329013D01*
X104947237Y-121285556D01*
X105079266Y-121214984D01*
X105194991Y-121120011D01*
X105218793Y-121091008D01*
X105424644Y-120885158D01*
X105504999Y-120893072D01*
X106205001Y-120893072D01*
X106378255Y-120876008D01*
X106544851Y-120825472D01*
X106698387Y-120743405D01*
X106832962Y-120632962D01*
X106943405Y-120498387D01*
X106945810Y-120493888D01*
X106977499Y-120532502D01*
X107165552Y-120686833D01*
X107380100Y-120801511D01*
X107612899Y-120872130D01*
X107855000Y-120895975D01*
X108097102Y-120872130D01*
X108329901Y-120801511D01*
X108544449Y-120686833D01*
X108732502Y-120532502D01*
X108855001Y-120383237D01*
X108977499Y-120532502D01*
X109165552Y-120686833D01*
X109380100Y-120801511D01*
X109612899Y-120872130D01*
X109855000Y-120895975D01*
X110097102Y-120872130D01*
X110329901Y-120801511D01*
X110544449Y-120686833D01*
X110732502Y-120532502D01*
X110816728Y-120429872D01*
X118415000Y-120429872D01*
X118415000Y-120870128D01*
X118500890Y-121301925D01*
X118669369Y-121708669D01*
X118913962Y-122074729D01*
X119225271Y-122386038D01*
X119591331Y-122630631D01*
X119998075Y-122799110D01*
X120429872Y-122885000D01*
X120870128Y-122885000D01*
X121301925Y-122799110D01*
X121708669Y-122630631D01*
X122074729Y-122386038D01*
X122386038Y-122074729D01*
X122630631Y-121708669D01*
X122799110Y-121301925D01*
X122885000Y-120870128D01*
X122885000Y-120429872D01*
X122799110Y-119998075D01*
X122630631Y-119591331D01*
X122386038Y-119225271D01*
X122074729Y-118913962D01*
X121708669Y-118669369D01*
X121301925Y-118500890D01*
X120870128Y-118415000D01*
X120429872Y-118415000D01*
X119998075Y-118500890D01*
X119591331Y-118669369D01*
X119225271Y-118913962D01*
X118913962Y-119225271D01*
X118669369Y-119591331D01*
X118500890Y-119998075D01*
X118415000Y-120429872D01*
X110816728Y-120429872D01*
X110886833Y-120344449D01*
X111001511Y-120129900D01*
X111072130Y-119897101D01*
X111090000Y-119715664D01*
X111090000Y-119044335D01*
X111072130Y-118862898D01*
X111001511Y-118630099D01*
X110886833Y-118415551D01*
X110732502Y-118227498D01*
X110615000Y-118131067D01*
X110615000Y-117512323D01*
X110618676Y-117475000D01*
X110615000Y-117437677D01*
X110615000Y-117437667D01*
X110604003Y-117326014D01*
X110560546Y-117182753D01*
X110489974Y-117050724D01*
X110395001Y-116934999D01*
X110366003Y-116911201D01*
X108513804Y-115059003D01*
X108490001Y-115029999D01*
X108374276Y-114935026D01*
X108242247Y-114864454D01*
X108098986Y-114820997D01*
X107987333Y-114810000D01*
X107987322Y-114810000D01*
X107950000Y-114806324D01*
X107912678Y-114810000D01*
X105730107Y-114810000D01*
X105882405Y-114657702D01*
X112216903Y-114657702D01*
X112288486Y-114901671D01*
X112543996Y-115022571D01*
X112818184Y-115091300D01*
X113100512Y-115105217D01*
X113380130Y-115063787D01*
X113646292Y-114968603D01*
X113771514Y-114901671D01*
X113843097Y-114657702D01*
X113030000Y-113844605D01*
X112216903Y-114657702D01*
X105882405Y-114657702D01*
X105928475Y-114611632D01*
X106090990Y-114368411D01*
X106202932Y-114098158D01*
X106260000Y-113811260D01*
X106260000Y-113735512D01*
X111589783Y-113735512D01*
X111631213Y-114015130D01*
X111726397Y-114281292D01*
X111793329Y-114406514D01*
X112037298Y-114478097D01*
X112850395Y-113665000D01*
X113209605Y-113665000D01*
X114022702Y-114478097D01*
X114266671Y-114406514D01*
X114387571Y-114151004D01*
X114456300Y-113876816D01*
X114470217Y-113594488D01*
X114459724Y-113523665D01*
X117310000Y-113523665D01*
X117310000Y-113806335D01*
X117365147Y-114083574D01*
X117473320Y-114344727D01*
X117630363Y-114579759D01*
X117830241Y-114779637D01*
X118065273Y-114936680D01*
X118326426Y-115044853D01*
X118603665Y-115100000D01*
X118886335Y-115100000D01*
X119163574Y-115044853D01*
X119424727Y-114936680D01*
X119659759Y-114779637D01*
X119859637Y-114579759D01*
X120016680Y-114344727D01*
X120124853Y-114083574D01*
X120180000Y-113806335D01*
X120180000Y-113523665D01*
X120124853Y-113246426D01*
X120016680Y-112985273D01*
X119859637Y-112750241D01*
X119659759Y-112550363D01*
X119424727Y-112393320D01*
X119163574Y-112285147D01*
X118886335Y-112230000D01*
X118603665Y-112230000D01*
X118326426Y-112285147D01*
X118065273Y-112393320D01*
X117830241Y-112550363D01*
X117630363Y-112750241D01*
X117473320Y-112985273D01*
X117365147Y-113246426D01*
X117310000Y-113523665D01*
X114459724Y-113523665D01*
X114428787Y-113314870D01*
X114333603Y-113048708D01*
X114266671Y-112923486D01*
X114022702Y-112851903D01*
X113209605Y-113665000D01*
X112850395Y-113665000D01*
X112037298Y-112851903D01*
X111793329Y-112923486D01*
X111672429Y-113178996D01*
X111603700Y-113453184D01*
X111589783Y-113735512D01*
X106260000Y-113735512D01*
X106260000Y-113518740D01*
X106202932Y-113231842D01*
X106090990Y-112961589D01*
X105928475Y-112718368D01*
X105882405Y-112672298D01*
X112216903Y-112672298D01*
X113030000Y-113485395D01*
X113843097Y-112672298D01*
X113771514Y-112428329D01*
X113516004Y-112307429D01*
X113241816Y-112238700D01*
X112959488Y-112224783D01*
X112679870Y-112266213D01*
X112413708Y-112361397D01*
X112288486Y-112428329D01*
X112216903Y-112672298D01*
X105882405Y-112672298D01*
X105721632Y-112511525D01*
X105547240Y-112395000D01*
X105721632Y-112278475D01*
X105928475Y-112071632D01*
X106090990Y-111828411D01*
X106202932Y-111558158D01*
X106260000Y-111271260D01*
X106260000Y-110978740D01*
X106202932Y-110691842D01*
X106090990Y-110421589D01*
X105928475Y-110178368D01*
X105721632Y-109971525D01*
X105539466Y-109849805D01*
X105656355Y-109780178D01*
X105872588Y-109585269D01*
X106046641Y-109351920D01*
X106171825Y-109089099D01*
X106216476Y-108941890D01*
X106095155Y-108712000D01*
X104902000Y-108712000D01*
X104902000Y-108732000D01*
X104648000Y-108732000D01*
X104648000Y-108712000D01*
X104628000Y-108712000D01*
X104628000Y-108458000D01*
X104648000Y-108458000D01*
X104648000Y-108438000D01*
X104902000Y-108438000D01*
X104902000Y-108458000D01*
X106095155Y-108458000D01*
X106216476Y-108228110D01*
X106171825Y-108080901D01*
X106046641Y-107818080D01*
X105872588Y-107584731D01*
X105656355Y-107389822D01*
X105539466Y-107320195D01*
X105721632Y-107198475D01*
X105928475Y-106991632D01*
X106090990Y-106748411D01*
X106202932Y-106478158D01*
X106260000Y-106191260D01*
X106260000Y-105903665D01*
X111595000Y-105903665D01*
X111595000Y-106186335D01*
X111650147Y-106463574D01*
X111758320Y-106724727D01*
X111915363Y-106959759D01*
X112115241Y-107159637D01*
X112350273Y-107316680D01*
X112611426Y-107424853D01*
X112888665Y-107480000D01*
X113171335Y-107480000D01*
X113448574Y-107424853D01*
X113709727Y-107316680D01*
X113944759Y-107159637D01*
X114144637Y-106959759D01*
X114301680Y-106724727D01*
X114409853Y-106463574D01*
X114465000Y-106186335D01*
X114465000Y-105903665D01*
X117310000Y-105903665D01*
X117310000Y-106186335D01*
X117365147Y-106463574D01*
X117473320Y-106724727D01*
X117630363Y-106959759D01*
X117830241Y-107159637D01*
X118065273Y-107316680D01*
X118326426Y-107424853D01*
X118603665Y-107480000D01*
X118886335Y-107480000D01*
X119163574Y-107424853D01*
X119424727Y-107316680D01*
X119659759Y-107159637D01*
X119859637Y-106959759D01*
X120016680Y-106724727D01*
X120124853Y-106463574D01*
X120180000Y-106186335D01*
X120180000Y-105903665D01*
X120124853Y-105626426D01*
X120016680Y-105365273D01*
X119859637Y-105130241D01*
X119659759Y-104930363D01*
X119424727Y-104773320D01*
X119163574Y-104665147D01*
X118886335Y-104610000D01*
X118603665Y-104610000D01*
X118326426Y-104665147D01*
X118065273Y-104773320D01*
X117830241Y-104930363D01*
X117630363Y-105130241D01*
X117473320Y-105365273D01*
X117365147Y-105626426D01*
X117310000Y-105903665D01*
X114465000Y-105903665D01*
X114409853Y-105626426D01*
X114301680Y-105365273D01*
X114144637Y-105130241D01*
X113944759Y-104930363D01*
X113709727Y-104773320D01*
X113448574Y-104665147D01*
X113171335Y-104610000D01*
X112888665Y-104610000D01*
X112611426Y-104665147D01*
X112350273Y-104773320D01*
X112115241Y-104930363D01*
X111915363Y-105130241D01*
X111758320Y-105365273D01*
X111650147Y-105626426D01*
X111595000Y-105903665D01*
X106260000Y-105903665D01*
X106260000Y-105898740D01*
X106202932Y-105611842D01*
X106090990Y-105341589D01*
X105928475Y-105098368D01*
X105721632Y-104891525D01*
X105547240Y-104775000D01*
X105721632Y-104658475D01*
X105928475Y-104451632D01*
X106090990Y-104208411D01*
X106202932Y-103938158D01*
X106260000Y-103651260D01*
X106260000Y-103358740D01*
X106202932Y-103071842D01*
X106090990Y-102801589D01*
X105928475Y-102558368D01*
X105796620Y-102426513D01*
X105869180Y-102404502D01*
X105979494Y-102345537D01*
X106076185Y-102266185D01*
X106155537Y-102169494D01*
X106214502Y-102059180D01*
X106250812Y-101939482D01*
X106263072Y-101815000D01*
X106263072Y-100115000D01*
X106250812Y-99990518D01*
X106214502Y-99870820D01*
X106155537Y-99760506D01*
X106076185Y-99663815D01*
X105979494Y-99584463D01*
X105869180Y-99525498D01*
X105749482Y-99489188D01*
X105625000Y-99476928D01*
X103925000Y-99476928D01*
X103800518Y-99489188D01*
X103680820Y-99525498D01*
X103570506Y-99584463D01*
X103473815Y-99663815D01*
X103394463Y-99760506D01*
X103335498Y-99870820D01*
X103299188Y-99990518D01*
X103286928Y-100115000D01*
X103286928Y-101815000D01*
X103299188Y-101939482D01*
X103335498Y-102059180D01*
X103394463Y-102169494D01*
X103473815Y-102266185D01*
X103570506Y-102345537D01*
X103680820Y-102404502D01*
X103753380Y-102426513D01*
X103621525Y-102558368D01*
X103459010Y-102801589D01*
X103347068Y-103071842D01*
X103290000Y-103358740D01*
X103290000Y-103651260D01*
X103347068Y-103938158D01*
X103459010Y-104208411D01*
X103621525Y-104451632D01*
X103828368Y-104658475D01*
X104002760Y-104775000D01*
X103828368Y-104891525D01*
X103621525Y-105098368D01*
X103459010Y-105341589D01*
X103347068Y-105611842D01*
X103290000Y-105898740D01*
X103290000Y-106191260D01*
X103347068Y-106478158D01*
X103459010Y-106748411D01*
X103621525Y-106991632D01*
X103828368Y-107198475D01*
X104010534Y-107320195D01*
X103893645Y-107389822D01*
X103677412Y-107584731D01*
X103503359Y-107818080D01*
X103378175Y-108080901D01*
X103333524Y-108228110D01*
X103454844Y-108457998D01*
X103290000Y-108457998D01*
X103290000Y-108565199D01*
X101090000Y-106365199D01*
X101090000Y-96834801D01*
X103290000Y-94634802D01*
X103290000Y-94761260D01*
X103347068Y-95048158D01*
X103459010Y-95318411D01*
X103621525Y-95561632D01*
X103828368Y-95768475D01*
X104071589Y-95930990D01*
X104341842Y-96042932D01*
X104628740Y-96100000D01*
X104921260Y-96100000D01*
X105208158Y-96042932D01*
X105478411Y-95930990D01*
X105721632Y-95768475D01*
X105928475Y-95561632D01*
X106090990Y-95318411D01*
X106202932Y-95048158D01*
X106219664Y-94964040D01*
X111638091Y-94964040D01*
X111732930Y-95228881D01*
X111877615Y-95470131D01*
X112066586Y-95678519D01*
X112292580Y-95846037D01*
X112546913Y-95966246D01*
X112680961Y-96006904D01*
X112903000Y-95884915D01*
X112903000Y-94742000D01*
X113157000Y-94742000D01*
X113157000Y-95884915D01*
X113379039Y-96006904D01*
X113513087Y-95966246D01*
X113767420Y-95846037D01*
X113993414Y-95678519D01*
X114182385Y-95470131D01*
X114327070Y-95228881D01*
X114421909Y-94964040D01*
X114300624Y-94742000D01*
X113157000Y-94742000D01*
X112903000Y-94742000D01*
X111759376Y-94742000D01*
X111638091Y-94964040D01*
X106219664Y-94964040D01*
X106260000Y-94761260D01*
X106260000Y-94468740D01*
X106219665Y-94265960D01*
X111638091Y-94265960D01*
X111759376Y-94488000D01*
X112903000Y-94488000D01*
X112903000Y-93345085D01*
X113157000Y-93345085D01*
X113157000Y-94488000D01*
X114300624Y-94488000D01*
X114308454Y-94473665D01*
X117310000Y-94473665D01*
X117310000Y-94756335D01*
X117365147Y-95033574D01*
X117473320Y-95294727D01*
X117630363Y-95529759D01*
X117830241Y-95729637D01*
X118065273Y-95886680D01*
X118326426Y-95994853D01*
X118603665Y-96050000D01*
X118886335Y-96050000D01*
X119163574Y-95994853D01*
X119424727Y-95886680D01*
X119659759Y-95729637D01*
X119859637Y-95529759D01*
X120016680Y-95294727D01*
X120124853Y-95033574D01*
X120180000Y-94756335D01*
X120180000Y-94473665D01*
X120124853Y-94196426D01*
X120016680Y-93935273D01*
X119859637Y-93700241D01*
X119659759Y-93500363D01*
X119424727Y-93343320D01*
X119163574Y-93235147D01*
X118886335Y-93180000D01*
X118603665Y-93180000D01*
X118326426Y-93235147D01*
X118065273Y-93343320D01*
X117830241Y-93500363D01*
X117630363Y-93700241D01*
X117473320Y-93935273D01*
X117365147Y-94196426D01*
X117310000Y-94473665D01*
X114308454Y-94473665D01*
X114421909Y-94265960D01*
X114327070Y-94001119D01*
X114182385Y-93759869D01*
X113993414Y-93551481D01*
X113767420Y-93383963D01*
X113513087Y-93263754D01*
X113379039Y-93223096D01*
X113157000Y-93345085D01*
X112903000Y-93345085D01*
X112680961Y-93223096D01*
X112546913Y-93263754D01*
X112292580Y-93383963D01*
X112066586Y-93551481D01*
X111877615Y-93759869D01*
X111732930Y-94001119D01*
X111638091Y-94265960D01*
X106219665Y-94265960D01*
X106202932Y-94181842D01*
X106090990Y-93911589D01*
X105928475Y-93668368D01*
X105721632Y-93461525D01*
X105547240Y-93345000D01*
X105721632Y-93228475D01*
X105928475Y-93021632D01*
X106090990Y-92778411D01*
X106202932Y-92508158D01*
X106260000Y-92221260D01*
X106260000Y-91928740D01*
X106202932Y-91641842D01*
X106090990Y-91371589D01*
X105928475Y-91128368D01*
X105721632Y-90921525D01*
X105539466Y-90799805D01*
X105656355Y-90730178D01*
X105872588Y-90535269D01*
X106046641Y-90301920D01*
X106171825Y-90039099D01*
X106216476Y-89891890D01*
X106095155Y-89662000D01*
X104902000Y-89662000D01*
X104902000Y-89682000D01*
X104648000Y-89682000D01*
X104648000Y-89662000D01*
X103454845Y-89662000D01*
X103333524Y-89891890D01*
X103378175Y-90039099D01*
X103503359Y-90301920D01*
X103677412Y-90535269D01*
X103893645Y-90730178D01*
X104010534Y-90799805D01*
X103828368Y-90921525D01*
X103621525Y-91128368D01*
X103496822Y-91315000D01*
X96199802Y-91315000D01*
X88828808Y-83944007D01*
X88828799Y-83943996D01*
X88828795Y-83943992D01*
X88805001Y-83914999D01*
X88776008Y-83891205D01*
X86485000Y-81600199D01*
X86485000Y-81065000D01*
X103286928Y-81065000D01*
X103286928Y-82765000D01*
X103299188Y-82889482D01*
X103335498Y-83009180D01*
X103394463Y-83119494D01*
X103473815Y-83216185D01*
X103570506Y-83295537D01*
X103680820Y-83354502D01*
X103753380Y-83376513D01*
X103621525Y-83508368D01*
X103459010Y-83751589D01*
X103347068Y-84021842D01*
X103290000Y-84308740D01*
X103290000Y-84601260D01*
X103347068Y-84888158D01*
X103459010Y-85158411D01*
X103621525Y-85401632D01*
X103828368Y-85608475D01*
X104002760Y-85725000D01*
X103828368Y-85841525D01*
X103621525Y-86048368D01*
X103459010Y-86291589D01*
X103347068Y-86561842D01*
X103290000Y-86848740D01*
X103290000Y-87141260D01*
X103347068Y-87428158D01*
X103459010Y-87698411D01*
X103621525Y-87941632D01*
X103828368Y-88148475D01*
X104010534Y-88270195D01*
X103893645Y-88339822D01*
X103677412Y-88534731D01*
X103503359Y-88768080D01*
X103378175Y-89030901D01*
X103333524Y-89178110D01*
X103454845Y-89408000D01*
X104648000Y-89408000D01*
X104648000Y-89388000D01*
X104902000Y-89388000D01*
X104902000Y-89408000D01*
X106095155Y-89408000D01*
X106216476Y-89178110D01*
X106171825Y-89030901D01*
X106046641Y-88768080D01*
X105872588Y-88534731D01*
X105656355Y-88339822D01*
X105539466Y-88270195D01*
X105721632Y-88148475D01*
X105928475Y-87941632D01*
X106090990Y-87698411D01*
X106202932Y-87428158D01*
X106260000Y-87141260D01*
X106260000Y-86853665D01*
X111595000Y-86853665D01*
X111595000Y-87136335D01*
X111650147Y-87413574D01*
X111758320Y-87674727D01*
X111915363Y-87909759D01*
X112115241Y-88109637D01*
X112350273Y-88266680D01*
X112611426Y-88374853D01*
X112888665Y-88430000D01*
X113171335Y-88430000D01*
X113448574Y-88374853D01*
X113709727Y-88266680D01*
X113944759Y-88109637D01*
X114144637Y-87909759D01*
X114301680Y-87674727D01*
X114409853Y-87413574D01*
X114465000Y-87136335D01*
X114465000Y-86853665D01*
X117310000Y-86853665D01*
X117310000Y-87136335D01*
X117365147Y-87413574D01*
X117473320Y-87674727D01*
X117630363Y-87909759D01*
X117830241Y-88109637D01*
X118065273Y-88266680D01*
X118326426Y-88374853D01*
X118603665Y-88430000D01*
X118886335Y-88430000D01*
X119163574Y-88374853D01*
X119424727Y-88266680D01*
X119659759Y-88109637D01*
X119859637Y-87909759D01*
X120016680Y-87674727D01*
X120124853Y-87413574D01*
X120180000Y-87136335D01*
X120180000Y-86853665D01*
X120124853Y-86576426D01*
X120016680Y-86315273D01*
X119859637Y-86080241D01*
X119659759Y-85880363D01*
X119424727Y-85723320D01*
X119163574Y-85615147D01*
X118886335Y-85560000D01*
X118603665Y-85560000D01*
X118326426Y-85615147D01*
X118065273Y-85723320D01*
X117830241Y-85880363D01*
X117630363Y-86080241D01*
X117473320Y-86315273D01*
X117365147Y-86576426D01*
X117310000Y-86853665D01*
X114465000Y-86853665D01*
X114409853Y-86576426D01*
X114301680Y-86315273D01*
X114144637Y-86080241D01*
X113944759Y-85880363D01*
X113709727Y-85723320D01*
X113448574Y-85615147D01*
X113171335Y-85560000D01*
X112888665Y-85560000D01*
X112611426Y-85615147D01*
X112350273Y-85723320D01*
X112115241Y-85880363D01*
X111915363Y-86080241D01*
X111758320Y-86315273D01*
X111650147Y-86576426D01*
X111595000Y-86853665D01*
X106260000Y-86853665D01*
X106260000Y-86848740D01*
X106202932Y-86561842D01*
X106090990Y-86291589D01*
X105928475Y-86048368D01*
X105721632Y-85841525D01*
X105547240Y-85725000D01*
X105721632Y-85608475D01*
X105928475Y-85401632D01*
X106090990Y-85158411D01*
X106202932Y-84888158D01*
X106260000Y-84601260D01*
X106260000Y-84308740D01*
X106202932Y-84021842D01*
X106090990Y-83751589D01*
X105928475Y-83508368D01*
X105796620Y-83376513D01*
X105869180Y-83354502D01*
X105979494Y-83295537D01*
X106076185Y-83216185D01*
X106155537Y-83119494D01*
X106214502Y-83009180D01*
X106250812Y-82889482D01*
X106263072Y-82765000D01*
X106263072Y-81065000D01*
X106250812Y-80940518D01*
X106214502Y-80820820D01*
X106155537Y-80710506D01*
X106076185Y-80613815D01*
X105979494Y-80534463D01*
X105869180Y-80475498D01*
X105749482Y-80439188D01*
X105625000Y-80426928D01*
X103925000Y-80426928D01*
X103800518Y-80439188D01*
X103680820Y-80475498D01*
X103570506Y-80534463D01*
X103473815Y-80613815D01*
X103394463Y-80710506D01*
X103335498Y-80820820D01*
X103299188Y-80940518D01*
X103286928Y-81065000D01*
X86485000Y-81065000D01*
X86485000Y-44129801D01*
X88735000Y-41879802D01*
X88735000Y-42051335D01*
X88790147Y-42328574D01*
X88898320Y-42589727D01*
X89055363Y-42824759D01*
X89255241Y-43024637D01*
X89487759Y-43180000D01*
X89255241Y-43335363D01*
X89055363Y-43535241D01*
X88898320Y-43770273D01*
X88790147Y-44031426D01*
X88735000Y-44308665D01*
X88735000Y-44591335D01*
X88790147Y-44868574D01*
X88898320Y-45129727D01*
X89055363Y-45364759D01*
X89255241Y-45564637D01*
X89487759Y-45720000D01*
X89255241Y-45875363D01*
X89055363Y-46075241D01*
X88898320Y-46310273D01*
X88790147Y-46571426D01*
X88735000Y-46848665D01*
X88735000Y-47131335D01*
X88790147Y-47408574D01*
X88898320Y-47669727D01*
X89055363Y-47904759D01*
X89255241Y-48104637D01*
X89487759Y-48260000D01*
X89255241Y-48415363D01*
X89055363Y-48615241D01*
X88898320Y-48850273D01*
X88790147Y-49111426D01*
X88735000Y-49388665D01*
X88735000Y-49671335D01*
X88790147Y-49948574D01*
X88898320Y-50209727D01*
X89055363Y-50444759D01*
X89255241Y-50644637D01*
X89487759Y-50800000D01*
X89255241Y-50955363D01*
X89055363Y-51155241D01*
X88898320Y-51390273D01*
X88790147Y-51651426D01*
X88735000Y-51928665D01*
X88735000Y-52211335D01*
X88790147Y-52488574D01*
X88898320Y-52749727D01*
X89055363Y-52984759D01*
X89255241Y-53184637D01*
X89487759Y-53340000D01*
X89255241Y-53495363D01*
X89055363Y-53695241D01*
X88898320Y-53930273D01*
X88790147Y-54191426D01*
X88735000Y-54468665D01*
X88735000Y-54751335D01*
X88790147Y-55028574D01*
X88898320Y-55289727D01*
X89055363Y-55524759D01*
X89255241Y-55724637D01*
X89487759Y-55880000D01*
X89255241Y-56035363D01*
X89055363Y-56235241D01*
X88898320Y-56470273D01*
X88790147Y-56731426D01*
X88735000Y-57008665D01*
X88735000Y-57291335D01*
X88790147Y-57568574D01*
X88898320Y-57829727D01*
X89055363Y-58064759D01*
X89255241Y-58264637D01*
X89487759Y-58420000D01*
X89255241Y-58575363D01*
X89055363Y-58775241D01*
X88898320Y-59010273D01*
X88790147Y-59271426D01*
X88735000Y-59548665D01*
X88735000Y-59831335D01*
X88790147Y-60108574D01*
X88898320Y-60369727D01*
X89055363Y-60604759D01*
X89255241Y-60804637D01*
X89487759Y-60960000D01*
X89255241Y-61115363D01*
X89055363Y-61315241D01*
X88898320Y-61550273D01*
X88790147Y-61811426D01*
X88735000Y-62088665D01*
X88735000Y-62371335D01*
X88790147Y-62648574D01*
X88898320Y-62909727D01*
X89055363Y-63144759D01*
X89255241Y-63344637D01*
X89487759Y-63500000D01*
X89255241Y-63655363D01*
X89055363Y-63855241D01*
X88898320Y-64090273D01*
X88790147Y-64351426D01*
X88735000Y-64628665D01*
X88735000Y-64911335D01*
X88790147Y-65188574D01*
X88898320Y-65449727D01*
X89055363Y-65684759D01*
X89255241Y-65884637D01*
X89487759Y-66040000D01*
X89255241Y-66195363D01*
X89055363Y-66395241D01*
X88898320Y-66630273D01*
X88790147Y-66891426D01*
X88735000Y-67168665D01*
X88735000Y-67451335D01*
X88790147Y-67728574D01*
X88898320Y-67989727D01*
X89055363Y-68224759D01*
X89255241Y-68424637D01*
X89490273Y-68581680D01*
X89751426Y-68689853D01*
X90028665Y-68745000D01*
X90311335Y-68745000D01*
X90588574Y-68689853D01*
X90849727Y-68581680D01*
X91084759Y-68424637D01*
X91284637Y-68224759D01*
X91441680Y-67989727D01*
X91549853Y-67728574D01*
X91605000Y-67451335D01*
X91605000Y-67168665D01*
X91549853Y-66891426D01*
X91441680Y-66630273D01*
X91284637Y-66395241D01*
X91084759Y-66195363D01*
X90852241Y-66040000D01*
X91084759Y-65884637D01*
X91284637Y-65684759D01*
X91441680Y-65449727D01*
X91549853Y-65188574D01*
X91605000Y-64911335D01*
X91605000Y-64628665D01*
X91549853Y-64351426D01*
X91441680Y-64090273D01*
X91284637Y-63855241D01*
X91084759Y-63655363D01*
X90852241Y-63500000D01*
X91084759Y-63344637D01*
X91284637Y-63144759D01*
X91441680Y-62909727D01*
X91549853Y-62648574D01*
X91605000Y-62371335D01*
X91605000Y-62088665D01*
X91549853Y-61811426D01*
X91441680Y-61550273D01*
X91284637Y-61315241D01*
X91084759Y-61115363D01*
X90852241Y-60960000D01*
X91084759Y-60804637D01*
X91284637Y-60604759D01*
X91441680Y-60369727D01*
X91549853Y-60108574D01*
X91605000Y-59831335D01*
X91605000Y-59548665D01*
X91549853Y-59271426D01*
X91441680Y-59010273D01*
X91284637Y-58775241D01*
X91144396Y-58635000D01*
X105826928Y-58635000D01*
X105839188Y-58759482D01*
X105875498Y-58879180D01*
X105934463Y-58989494D01*
X106013815Y-59086185D01*
X106110506Y-59165537D01*
X106220820Y-59224502D01*
X106293380Y-59246513D01*
X106161525Y-59378368D01*
X105999010Y-59621589D01*
X105887068Y-59891842D01*
X105830000Y-60178740D01*
X105830000Y-60471260D01*
X105887068Y-60758158D01*
X105999010Y-61028411D01*
X106161525Y-61271632D01*
X106368368Y-61478475D01*
X106611589Y-61640990D01*
X106881842Y-61752932D01*
X107168740Y-61810000D01*
X107461260Y-61810000D01*
X107748158Y-61752932D01*
X108018411Y-61640990D01*
X108261632Y-61478475D01*
X108468475Y-61271632D01*
X108630990Y-61028411D01*
X108742932Y-60758158D01*
X108800000Y-60471260D01*
X108800000Y-60178740D01*
X108742932Y-59891842D01*
X108630990Y-59621589D01*
X108468475Y-59378368D01*
X108336620Y-59246513D01*
X108409180Y-59224502D01*
X108519494Y-59165537D01*
X108616185Y-59086185D01*
X108695537Y-58989494D01*
X108754502Y-58879180D01*
X108790812Y-58759482D01*
X108803072Y-58635000D01*
X108800000Y-58070750D01*
X108641250Y-57912000D01*
X107442000Y-57912000D01*
X107442000Y-57932000D01*
X107188000Y-57932000D01*
X107188000Y-57912000D01*
X105988750Y-57912000D01*
X105830000Y-58070750D01*
X105826928Y-58635000D01*
X91144396Y-58635000D01*
X91084759Y-58575363D01*
X90852241Y-58420000D01*
X91084759Y-58264637D01*
X91284637Y-58064759D01*
X91441680Y-57829727D01*
X91549853Y-57568574D01*
X91605000Y-57291335D01*
X91605000Y-57008665D01*
X91590347Y-56935000D01*
X105826928Y-56935000D01*
X105830000Y-57499250D01*
X105988750Y-57658000D01*
X107188000Y-57658000D01*
X107188000Y-56458750D01*
X107442000Y-56458750D01*
X107442000Y-57658000D01*
X108641250Y-57658000D01*
X108800000Y-57499250D01*
X108803072Y-56935000D01*
X108790812Y-56810518D01*
X108754502Y-56690820D01*
X108695537Y-56580506D01*
X108616185Y-56483815D01*
X108519494Y-56404463D01*
X108409180Y-56345498D01*
X108289482Y-56309188D01*
X108165000Y-56296928D01*
X107600750Y-56300000D01*
X107442000Y-56458750D01*
X107188000Y-56458750D01*
X107029250Y-56300000D01*
X106465000Y-56296928D01*
X106340518Y-56309188D01*
X106220820Y-56345498D01*
X106110506Y-56404463D01*
X106013815Y-56483815D01*
X105934463Y-56580506D01*
X105875498Y-56690820D01*
X105839188Y-56810518D01*
X105826928Y-56935000D01*
X91590347Y-56935000D01*
X91549853Y-56731426D01*
X91441680Y-56470273D01*
X91284637Y-56235241D01*
X91084759Y-56035363D01*
X90852241Y-55880000D01*
X91084759Y-55724637D01*
X91284637Y-55524759D01*
X91441680Y-55289727D01*
X91549853Y-55028574D01*
X91605000Y-54751335D01*
X91605000Y-54468665D01*
X91549853Y-54191426D01*
X91441680Y-53930273D01*
X91284637Y-53695241D01*
X91084759Y-53495363D01*
X90852241Y-53340000D01*
X91084759Y-53184637D01*
X91284637Y-52984759D01*
X91441680Y-52749727D01*
X91549853Y-52488574D01*
X91605000Y-52211335D01*
X91605000Y-51928665D01*
X91549853Y-51651426D01*
X91441680Y-51390273D01*
X91284637Y-51155241D01*
X91084759Y-50955363D01*
X90852241Y-50800000D01*
X91084759Y-50644637D01*
X91284637Y-50444759D01*
X91441680Y-50209727D01*
X91549853Y-49948574D01*
X91605000Y-49671335D01*
X91605000Y-49388665D01*
X91549853Y-49111426D01*
X91441680Y-48850273D01*
X91284637Y-48615241D01*
X91084759Y-48415363D01*
X90852241Y-48260000D01*
X91084759Y-48104637D01*
X91284637Y-47904759D01*
X91441680Y-47669727D01*
X91549853Y-47408574D01*
X91605000Y-47131335D01*
X91605000Y-46848665D01*
X91549853Y-46571426D01*
X91441680Y-46310273D01*
X91284637Y-46075241D01*
X91084759Y-45875363D01*
X90852241Y-45720000D01*
X91084759Y-45564637D01*
X91284637Y-45364759D01*
X91441680Y-45129727D01*
X91549853Y-44868574D01*
X91605000Y-44591335D01*
X91605000Y-44308665D01*
X91549853Y-44031426D01*
X91441680Y-43770273D01*
X91284637Y-43535241D01*
X91084759Y-43335363D01*
X90852241Y-43180000D01*
X91084759Y-43024637D01*
X91284637Y-42824759D01*
X91441680Y-42589727D01*
X91549853Y-42328574D01*
X91605000Y-42051335D01*
X91605000Y-41768665D01*
X91549853Y-41491426D01*
X91441680Y-41230273D01*
X91284637Y-40995241D01*
X91084759Y-40795363D01*
X90852241Y-40640000D01*
X91084759Y-40484637D01*
X91284637Y-40284759D01*
X91441680Y-40049727D01*
X91549853Y-39788574D01*
X91605000Y-39511335D01*
X91605000Y-39228665D01*
X91549853Y-38951426D01*
X91441680Y-38690273D01*
X91284637Y-38455241D01*
X91084759Y-38255363D01*
X90852241Y-38100000D01*
X91084759Y-37944637D01*
X91284637Y-37744759D01*
X91441680Y-37509727D01*
X91549853Y-37248574D01*
X91605000Y-36971335D01*
X91605000Y-36688665D01*
X91549853Y-36411426D01*
X91441680Y-36150273D01*
X91284637Y-35915241D01*
X91084759Y-35715363D01*
X90849727Y-35558320D01*
X90839135Y-35553933D01*
X91025131Y-35442385D01*
X91233519Y-35253414D01*
X91401037Y-35027420D01*
X91521246Y-34773087D01*
X91561904Y-34639039D01*
X91439915Y-34417000D01*
X90297000Y-34417000D01*
X90297000Y-34437000D01*
X90043000Y-34437000D01*
X90043000Y-34417000D01*
X88900085Y-34417000D01*
X88778096Y-34639039D01*
X88818754Y-34773087D01*
X88938963Y-35027420D01*
X89106481Y-35253414D01*
X89314869Y-35442385D01*
X89500865Y-35553933D01*
X89490273Y-35558320D01*
X89255241Y-35715363D01*
X89055363Y-35915241D01*
X88898320Y-36150273D01*
X88790147Y-36411426D01*
X88735000Y-36688665D01*
X88735000Y-36971335D01*
X88790147Y-37248574D01*
X88898320Y-37509727D01*
X89055363Y-37744759D01*
X89255241Y-37944637D01*
X89487759Y-38100000D01*
X89255241Y-38255363D01*
X89055363Y-38455241D01*
X88898320Y-38690273D01*
X88790147Y-38951426D01*
X88735000Y-39228665D01*
X88735000Y-39511335D01*
X88771312Y-39693886D01*
X85214003Y-43251196D01*
X85184999Y-43274999D01*
X85135460Y-43335363D01*
X85090026Y-43390724D01*
X85019455Y-43522753D01*
X85019454Y-43522754D01*
X84975997Y-43666015D01*
X84965000Y-43777668D01*
X84965000Y-43777678D01*
X84961324Y-43815000D01*
X84965000Y-43852322D01*
X84965001Y-81877667D01*
X84961324Y-81915000D01*
X84975998Y-82063985D01*
X85019454Y-82207246D01*
X85090026Y-82339276D01*
X85161201Y-82426002D01*
X85185000Y-82455001D01*
X85213998Y-82478799D01*
X86430198Y-83695000D01*
X76514802Y-83695000D01*
X58983804Y-66164003D01*
X58960001Y-66134999D01*
X58844276Y-66040026D01*
X58712247Y-65969454D01*
X58568986Y-65925997D01*
X58457333Y-65915000D01*
X58457322Y-65915000D01*
X58420000Y-65911324D01*
X58382678Y-65915000D01*
X50173178Y-65915000D01*
X50048475Y-65728368D01*
X49841632Y-65521525D01*
X49598411Y-65359010D01*
X49328158Y-65247068D01*
X49041260Y-65190000D01*
X48748740Y-65190000D01*
X48461842Y-65247068D01*
X48191589Y-65359010D01*
X47948368Y-65521525D01*
X47741525Y-65728368D01*
X47625000Y-65902760D01*
X47508475Y-65728368D01*
X47301632Y-65521525D01*
X47058411Y-65359010D01*
X46788158Y-65247068D01*
X46501260Y-65190000D01*
X46208740Y-65190000D01*
X45921842Y-65247068D01*
X45651589Y-65359010D01*
X45408368Y-65521525D01*
X45201525Y-65728368D01*
X45085000Y-65902760D01*
X44968475Y-65728368D01*
X44761632Y-65521525D01*
X44518411Y-65359010D01*
X44248158Y-65247068D01*
X43961260Y-65190000D01*
X43668740Y-65190000D01*
X43381842Y-65247068D01*
X43111589Y-65359010D01*
X42868368Y-65521525D01*
X42736513Y-65653380D01*
X42714502Y-65580820D01*
X42655537Y-65470506D01*
X42576185Y-65373815D01*
X42479494Y-65294463D01*
X42369180Y-65235498D01*
X42249482Y-65199188D01*
X42125000Y-65186928D01*
X41560750Y-65190000D01*
X41402000Y-65348750D01*
X41402000Y-66548000D01*
X41422000Y-66548000D01*
X41422000Y-66802000D01*
X41402000Y-66802000D01*
X41402000Y-68001250D01*
X41560750Y-68160000D01*
X42125000Y-68163072D01*
X42249482Y-68150812D01*
X42369180Y-68114502D01*
X42479494Y-68055537D01*
X42576185Y-67976185D01*
X42655537Y-67879494D01*
X42714502Y-67769180D01*
X42736513Y-67696620D01*
X42868368Y-67828475D01*
X43111589Y-67990990D01*
X43381842Y-68102932D01*
X43668740Y-68160000D01*
X43961260Y-68160000D01*
X44248158Y-68102932D01*
X44518411Y-67990990D01*
X44761632Y-67828475D01*
X44968475Y-67621632D01*
X45085000Y-67447240D01*
X45201525Y-67621632D01*
X45408368Y-67828475D01*
X45651589Y-67990990D01*
X45921842Y-68102932D01*
X46208740Y-68160000D01*
X46501260Y-68160000D01*
X46788158Y-68102932D01*
X47058411Y-67990990D01*
X47301632Y-67828475D01*
X47508475Y-67621632D01*
X47625000Y-67447240D01*
X47741525Y-67621632D01*
X47948368Y-67828475D01*
X48191589Y-67990990D01*
X48461842Y-68102932D01*
X48748740Y-68160000D01*
X49041260Y-68160000D01*
X49328158Y-68102932D01*
X49598411Y-67990990D01*
X49841632Y-67828475D01*
X50048475Y-67621632D01*
X50173178Y-67435000D01*
X58105199Y-67435000D01*
X75636200Y-84966002D01*
X75659999Y-84995001D01*
X75688997Y-85018799D01*
X75775723Y-85089974D01*
X75898324Y-85155506D01*
X75907753Y-85160546D01*
X76051014Y-85204003D01*
X76162667Y-85215000D01*
X76162676Y-85215000D01*
X76199999Y-85218676D01*
X76237322Y-85215000D01*
X87950199Y-85215000D01*
X95321201Y-92586003D01*
X95344999Y-92615001D01*
X95460724Y-92709974D01*
X95592753Y-92780546D01*
X95736014Y-92824003D01*
X95847667Y-92835000D01*
X95847676Y-92835000D01*
X95884999Y-92838676D01*
X95922322Y-92835000D01*
X102940198Y-92835000D01*
X99819003Y-95956196D01*
X99789999Y-95979999D01*
X99738352Y-96042932D01*
X99695026Y-96095724D01*
X99624455Y-96227753D01*
X99624454Y-96227754D01*
X99580997Y-96371015D01*
X99570000Y-96482668D01*
X99570000Y-96482678D01*
X99566324Y-96520000D01*
X99570000Y-96557322D01*
X99570001Y-106642668D01*
X99566324Y-106680000D01*
X99580998Y-106828985D01*
X99624454Y-106972246D01*
X99695026Y-107104276D01*
X99766201Y-107191002D01*
X99790000Y-107220001D01*
X99818998Y-107243799D01*
X103333790Y-110758592D01*
X103290000Y-110978740D01*
X103290000Y-111271260D01*
X103347068Y-111558158D01*
X103459010Y-111828411D01*
X103621525Y-112071632D01*
X103828368Y-112278475D01*
X104002760Y-112395000D01*
X103828368Y-112511525D01*
X103621525Y-112718368D01*
X103459010Y-112961589D01*
X103347068Y-113231842D01*
X103290000Y-113518740D01*
X103290000Y-113811260D01*
X103347068Y-114098158D01*
X103459010Y-114368411D01*
X103621525Y-114611632D01*
X103819893Y-114810000D01*
X79689802Y-114810000D01*
X51653072Y-86773271D01*
X51653072Y-85510000D01*
X51640812Y-85385518D01*
X51604502Y-85265820D01*
X51545537Y-85155506D01*
X51466185Y-85058815D01*
X51369494Y-84979463D01*
X51259180Y-84920498D01*
X51139482Y-84884188D01*
X51015000Y-84871928D01*
X49315000Y-84871928D01*
X49190518Y-84884188D01*
X49070820Y-84920498D01*
X48960506Y-84979463D01*
X48863815Y-85058815D01*
X48784463Y-85155506D01*
X48725498Y-85265820D01*
X48703487Y-85338380D01*
X48571632Y-85206525D01*
X48328411Y-85044010D01*
X48058158Y-84932068D01*
X47771260Y-84875000D01*
X47478740Y-84875000D01*
X47191842Y-84932068D01*
X46921589Y-85044010D01*
X46678368Y-85206525D01*
X46471525Y-85413368D01*
X46355000Y-85587760D01*
X46238475Y-85413368D01*
X46031632Y-85206525D01*
X45788411Y-85044010D01*
X45518158Y-84932068D01*
X45231260Y-84875000D01*
X44938740Y-84875000D01*
X44651842Y-84932068D01*
X44381589Y-85044010D01*
X44138368Y-85206525D01*
X43931525Y-85413368D01*
X43815000Y-85587760D01*
X43698475Y-85413368D01*
X43491632Y-85206525D01*
X43248411Y-85044010D01*
X42978158Y-84932068D01*
X42691260Y-84875000D01*
X42398740Y-84875000D01*
X42111842Y-84932068D01*
X41841589Y-85044010D01*
X41598368Y-85206525D01*
X41391525Y-85413368D01*
X41275000Y-85587760D01*
X41158475Y-85413368D01*
X40951632Y-85206525D01*
X40708411Y-85044010D01*
X40438158Y-84932068D01*
X40151260Y-84875000D01*
X39858740Y-84875000D01*
X39571842Y-84932068D01*
X39301589Y-85044010D01*
X39058368Y-85206525D01*
X38851525Y-85413368D01*
X38735000Y-85587760D01*
X38618475Y-85413368D01*
X38411632Y-85206525D01*
X38168411Y-85044010D01*
X37898158Y-84932068D01*
X37611260Y-84875000D01*
X37318740Y-84875000D01*
X37031842Y-84932068D01*
X36761589Y-85044010D01*
X36518368Y-85206525D01*
X36311525Y-85413368D01*
X36149010Y-85656589D01*
X36037068Y-85926842D01*
X35980000Y-86213740D01*
X32603072Y-86213740D01*
X32603072Y-85510000D01*
X32590812Y-85385518D01*
X32554502Y-85265820D01*
X32495537Y-85155506D01*
X32416185Y-85058815D01*
X32319494Y-84979463D01*
X32209180Y-84920498D01*
X32089482Y-84884188D01*
X31965000Y-84871928D01*
X30265000Y-84871928D01*
X30140518Y-84884188D01*
X30020820Y-84920498D01*
X29910506Y-84979463D01*
X29813815Y-85058815D01*
X29734463Y-85155506D01*
X29675498Y-85265820D01*
X29653487Y-85338380D01*
X29521632Y-85206525D01*
X29278411Y-85044010D01*
X29008158Y-84932068D01*
X28721260Y-84875000D01*
X28428740Y-84875000D01*
X28141842Y-84932068D01*
X27871589Y-85044010D01*
X27628368Y-85206525D01*
X27421525Y-85413368D01*
X27305000Y-85587760D01*
X27188475Y-85413368D01*
X26981632Y-85206525D01*
X26738411Y-85044010D01*
X26468158Y-84932068D01*
X26181260Y-84875000D01*
X25888740Y-84875000D01*
X25601842Y-84932068D01*
X25331589Y-85044010D01*
X25088368Y-85206525D01*
X24881525Y-85413368D01*
X24765000Y-85587760D01*
X24648475Y-85413368D01*
X24441632Y-85206525D01*
X24198411Y-85044010D01*
X23928158Y-84932068D01*
X23641260Y-84875000D01*
X23348740Y-84875000D01*
X23061842Y-84932068D01*
X22791589Y-85044010D01*
X22548368Y-85206525D01*
X22341525Y-85413368D01*
X22225000Y-85587760D01*
X22108475Y-85413368D01*
X21901632Y-85206525D01*
X21658411Y-85044010D01*
X21388158Y-84932068D01*
X21101260Y-84875000D01*
X20808740Y-84875000D01*
X20521842Y-84932068D01*
X20251589Y-85044010D01*
X20008368Y-85206525D01*
X19801525Y-85413368D01*
X19685000Y-85587760D01*
X19568475Y-85413368D01*
X19361632Y-85206525D01*
X19118411Y-85044010D01*
X18848158Y-84932068D01*
X18561260Y-84875000D01*
X18268740Y-84875000D01*
X17981842Y-84932068D01*
X17711589Y-85044010D01*
X17468368Y-85206525D01*
X17261525Y-85413368D01*
X17099010Y-85656589D01*
X16987068Y-85926842D01*
X16930000Y-86213740D01*
X12725000Y-86213740D01*
X12725000Y-78598665D01*
X16980000Y-78598665D01*
X16980000Y-78881335D01*
X17035147Y-79158574D01*
X17143320Y-79419727D01*
X17300363Y-79654759D01*
X17500241Y-79854637D01*
X17735273Y-80011680D01*
X17996426Y-80119853D01*
X18273665Y-80175000D01*
X18556335Y-80175000D01*
X18833574Y-80119853D01*
X19094727Y-80011680D01*
X19329759Y-79854637D01*
X19529637Y-79654759D01*
X19686680Y-79419727D01*
X19794853Y-79158574D01*
X19850000Y-78881335D01*
X19850000Y-78598665D01*
X24600000Y-78598665D01*
X24600000Y-78881335D01*
X24655147Y-79158574D01*
X24763320Y-79419727D01*
X24920363Y-79654759D01*
X25120241Y-79854637D01*
X25355273Y-80011680D01*
X25616426Y-80119853D01*
X25893665Y-80175000D01*
X26176335Y-80175000D01*
X26453574Y-80119853D01*
X26714727Y-80011680D01*
X26949759Y-79854637D01*
X27149637Y-79654759D01*
X27306680Y-79419727D01*
X27414853Y-79158574D01*
X27470000Y-78881335D01*
X27470000Y-78598665D01*
X36030000Y-78598665D01*
X36030000Y-78881335D01*
X36085147Y-79158574D01*
X36193320Y-79419727D01*
X36350363Y-79654759D01*
X36550241Y-79854637D01*
X36785273Y-80011680D01*
X37046426Y-80119853D01*
X37323665Y-80175000D01*
X37606335Y-80175000D01*
X37883574Y-80119853D01*
X38144727Y-80011680D01*
X38379759Y-79854637D01*
X38579637Y-79654759D01*
X38736680Y-79419727D01*
X38844853Y-79158574D01*
X38900000Y-78881335D01*
X38900000Y-78598665D01*
X43650000Y-78598665D01*
X43650000Y-78881335D01*
X43705147Y-79158574D01*
X43813320Y-79419727D01*
X43970363Y-79654759D01*
X44170241Y-79854637D01*
X44405273Y-80011680D01*
X44666426Y-80119853D01*
X44943665Y-80175000D01*
X45226335Y-80175000D01*
X45503574Y-80119853D01*
X45764727Y-80011680D01*
X45999759Y-79854637D01*
X46199637Y-79654759D01*
X46356680Y-79419727D01*
X46464853Y-79158574D01*
X46520000Y-78881335D01*
X46520000Y-78598665D01*
X46464853Y-78321426D01*
X46356680Y-78060273D01*
X46199637Y-77825241D01*
X45999759Y-77625363D01*
X45764727Y-77468320D01*
X45503574Y-77360147D01*
X45226335Y-77305000D01*
X44943665Y-77305000D01*
X44666426Y-77360147D01*
X44405273Y-77468320D01*
X44170241Y-77625363D01*
X43970363Y-77825241D01*
X43813320Y-78060273D01*
X43705147Y-78321426D01*
X43650000Y-78598665D01*
X38900000Y-78598665D01*
X38844853Y-78321426D01*
X38736680Y-78060273D01*
X38579637Y-77825241D01*
X38379759Y-77625363D01*
X38144727Y-77468320D01*
X37883574Y-77360147D01*
X37606335Y-77305000D01*
X37323665Y-77305000D01*
X37046426Y-77360147D01*
X36785273Y-77468320D01*
X36550241Y-77625363D01*
X36350363Y-77825241D01*
X36193320Y-78060273D01*
X36085147Y-78321426D01*
X36030000Y-78598665D01*
X27470000Y-78598665D01*
X27414853Y-78321426D01*
X27306680Y-78060273D01*
X27149637Y-77825241D01*
X26949759Y-77625363D01*
X26714727Y-77468320D01*
X26453574Y-77360147D01*
X26176335Y-77305000D01*
X25893665Y-77305000D01*
X25616426Y-77360147D01*
X25355273Y-77468320D01*
X25120241Y-77625363D01*
X24920363Y-77825241D01*
X24763320Y-78060273D01*
X24655147Y-78321426D01*
X24600000Y-78598665D01*
X19850000Y-78598665D01*
X19794853Y-78321426D01*
X19686680Y-78060273D01*
X19529637Y-77825241D01*
X19329759Y-77625363D01*
X19094727Y-77468320D01*
X18833574Y-77360147D01*
X18556335Y-77305000D01*
X18273665Y-77305000D01*
X17996426Y-77360147D01*
X17735273Y-77468320D01*
X17500241Y-77625363D01*
X17300363Y-77825241D01*
X17143320Y-78060273D01*
X17035147Y-78321426D01*
X16980000Y-78598665D01*
X12725000Y-78598665D01*
X12725000Y-74153665D01*
X16980000Y-74153665D01*
X16980000Y-74436335D01*
X17035147Y-74713574D01*
X17143320Y-74974727D01*
X17300363Y-75209759D01*
X17500241Y-75409637D01*
X17735273Y-75566680D01*
X17996426Y-75674853D01*
X18273665Y-75730000D01*
X18556335Y-75730000D01*
X18833574Y-75674853D01*
X19094727Y-75566680D01*
X19329759Y-75409637D01*
X19529637Y-75209759D01*
X19686680Y-74974727D01*
X19794853Y-74713574D01*
X19850000Y-74436335D01*
X19850000Y-74153665D01*
X24600000Y-74153665D01*
X24600000Y-74436335D01*
X24655147Y-74713574D01*
X24763320Y-74974727D01*
X24920363Y-75209759D01*
X25120241Y-75409637D01*
X25355273Y-75566680D01*
X25616426Y-75674853D01*
X25893665Y-75730000D01*
X26176335Y-75730000D01*
X26453574Y-75674853D01*
X26714727Y-75566680D01*
X26949759Y-75409637D01*
X27149637Y-75209759D01*
X27306680Y-74974727D01*
X27414853Y-74713574D01*
X27470000Y-74436335D01*
X27470000Y-74153665D01*
X36030000Y-74153665D01*
X36030000Y-74436335D01*
X36085147Y-74713574D01*
X36193320Y-74974727D01*
X36350363Y-75209759D01*
X36550241Y-75409637D01*
X36785273Y-75566680D01*
X37046426Y-75674853D01*
X37323665Y-75730000D01*
X37606335Y-75730000D01*
X37883574Y-75674853D01*
X38144727Y-75566680D01*
X38379759Y-75409637D01*
X38579637Y-75209759D01*
X38736680Y-74974727D01*
X38844853Y-74713574D01*
X38900000Y-74436335D01*
X38900000Y-74153665D01*
X43650000Y-74153665D01*
X43650000Y-74436335D01*
X43705147Y-74713574D01*
X43813320Y-74974727D01*
X43970363Y-75209759D01*
X44170241Y-75409637D01*
X44405273Y-75566680D01*
X44666426Y-75674853D01*
X44943665Y-75730000D01*
X45226335Y-75730000D01*
X45503574Y-75674853D01*
X45764727Y-75566680D01*
X45999759Y-75409637D01*
X46199637Y-75209759D01*
X46356680Y-74974727D01*
X46464853Y-74713574D01*
X46520000Y-74436335D01*
X46520000Y-74153665D01*
X46464853Y-73876426D01*
X46356680Y-73615273D01*
X46199637Y-73380241D01*
X45999759Y-73180363D01*
X45764727Y-73023320D01*
X45503574Y-72915147D01*
X45226335Y-72860000D01*
X44943665Y-72860000D01*
X44666426Y-72915147D01*
X44405273Y-73023320D01*
X44170241Y-73180363D01*
X43970363Y-73380241D01*
X43813320Y-73615273D01*
X43705147Y-73876426D01*
X43650000Y-74153665D01*
X38900000Y-74153665D01*
X38844853Y-73876426D01*
X38736680Y-73615273D01*
X38579637Y-73380241D01*
X38379759Y-73180363D01*
X38144727Y-73023320D01*
X37883574Y-72915147D01*
X37606335Y-72860000D01*
X37323665Y-72860000D01*
X37046426Y-72915147D01*
X36785273Y-73023320D01*
X36550241Y-73180363D01*
X36350363Y-73380241D01*
X36193320Y-73615273D01*
X36085147Y-73876426D01*
X36030000Y-74153665D01*
X27470000Y-74153665D01*
X27414853Y-73876426D01*
X27306680Y-73615273D01*
X27149637Y-73380241D01*
X26949759Y-73180363D01*
X26714727Y-73023320D01*
X26453574Y-72915147D01*
X26176335Y-72860000D01*
X25893665Y-72860000D01*
X25616426Y-72915147D01*
X25355273Y-73023320D01*
X25120241Y-73180363D01*
X24920363Y-73380241D01*
X24763320Y-73615273D01*
X24655147Y-73876426D01*
X24600000Y-74153665D01*
X19850000Y-74153665D01*
X19794853Y-73876426D01*
X19686680Y-73615273D01*
X19529637Y-73380241D01*
X19329759Y-73180363D01*
X19094727Y-73023320D01*
X18833574Y-72915147D01*
X18556335Y-72860000D01*
X18273665Y-72860000D01*
X17996426Y-72915147D01*
X17735273Y-73023320D01*
X17500241Y-73180363D01*
X17300363Y-73380241D01*
X17143320Y-73615273D01*
X17035147Y-73876426D01*
X16980000Y-74153665D01*
X12725000Y-74153665D01*
X12725000Y-67525000D01*
X19466928Y-67525000D01*
X19479188Y-67649482D01*
X19515498Y-67769180D01*
X19574463Y-67879494D01*
X19653815Y-67976185D01*
X19750506Y-68055537D01*
X19860820Y-68114502D01*
X19980518Y-68150812D01*
X20105000Y-68163072D01*
X20669250Y-68160000D01*
X20828000Y-68001250D01*
X20828000Y-66802000D01*
X19628750Y-66802000D01*
X19470000Y-66960750D01*
X19466928Y-67525000D01*
X12725000Y-67525000D01*
X12725000Y-65825000D01*
X19466928Y-65825000D01*
X19470000Y-66389250D01*
X19628750Y-66548000D01*
X20828000Y-66548000D01*
X20828000Y-65348750D01*
X21082000Y-65348750D01*
X21082000Y-66548000D01*
X21102000Y-66548000D01*
X21102000Y-66802000D01*
X21082000Y-66802000D01*
X21082000Y-68001250D01*
X21240750Y-68160000D01*
X21805000Y-68163072D01*
X21929482Y-68150812D01*
X22049180Y-68114502D01*
X22159494Y-68055537D01*
X22256185Y-67976185D01*
X22335537Y-67879494D01*
X22394502Y-67769180D01*
X22416513Y-67696620D01*
X22548368Y-67828475D01*
X22791589Y-67990990D01*
X23061842Y-68102932D01*
X23348740Y-68160000D01*
X23641260Y-68160000D01*
X23928158Y-68102932D01*
X24198411Y-67990990D01*
X24441632Y-67828475D01*
X24648475Y-67621632D01*
X24765000Y-67447240D01*
X24881525Y-67621632D01*
X25088368Y-67828475D01*
X25331589Y-67990990D01*
X25601842Y-68102932D01*
X25888740Y-68160000D01*
X26181260Y-68160000D01*
X26468158Y-68102932D01*
X26738411Y-67990990D01*
X26981632Y-67828475D01*
X27188475Y-67621632D01*
X27305000Y-67447240D01*
X27421525Y-67621632D01*
X27628368Y-67828475D01*
X27871589Y-67990990D01*
X28141842Y-68102932D01*
X28428740Y-68160000D01*
X28721260Y-68160000D01*
X29008158Y-68102932D01*
X29278411Y-67990990D01*
X29521632Y-67828475D01*
X29728475Y-67621632D01*
X29793042Y-67525000D01*
X39786928Y-67525000D01*
X39799188Y-67649482D01*
X39835498Y-67769180D01*
X39894463Y-67879494D01*
X39973815Y-67976185D01*
X40070506Y-68055537D01*
X40180820Y-68114502D01*
X40300518Y-68150812D01*
X40425000Y-68163072D01*
X40989250Y-68160000D01*
X41148000Y-68001250D01*
X41148000Y-66802000D01*
X39948750Y-66802000D01*
X39790000Y-66960750D01*
X39786928Y-67525000D01*
X29793042Y-67525000D01*
X29890990Y-67378411D01*
X30002932Y-67108158D01*
X30060000Y-66821260D01*
X30060000Y-66528740D01*
X30002932Y-66241842D01*
X29890990Y-65971589D01*
X29793043Y-65825000D01*
X39786928Y-65825000D01*
X39790000Y-66389250D01*
X39948750Y-66548000D01*
X41148000Y-66548000D01*
X41148000Y-65348750D01*
X40989250Y-65190000D01*
X40425000Y-65186928D01*
X40300518Y-65199188D01*
X40180820Y-65235498D01*
X40070506Y-65294463D01*
X39973815Y-65373815D01*
X39894463Y-65470506D01*
X39835498Y-65580820D01*
X39799188Y-65700518D01*
X39786928Y-65825000D01*
X29793043Y-65825000D01*
X29728475Y-65728368D01*
X29521632Y-65521525D01*
X29278411Y-65359010D01*
X29008158Y-65247068D01*
X28721260Y-65190000D01*
X28428740Y-65190000D01*
X28141842Y-65247068D01*
X27871589Y-65359010D01*
X27628368Y-65521525D01*
X27421525Y-65728368D01*
X27305000Y-65902760D01*
X27188475Y-65728368D01*
X26981632Y-65521525D01*
X26738411Y-65359010D01*
X26468158Y-65247068D01*
X26181260Y-65190000D01*
X25888740Y-65190000D01*
X25601842Y-65247068D01*
X25331589Y-65359010D01*
X25088368Y-65521525D01*
X24881525Y-65728368D01*
X24765000Y-65902760D01*
X24648475Y-65728368D01*
X24441632Y-65521525D01*
X24198411Y-65359010D01*
X23928158Y-65247068D01*
X23641260Y-65190000D01*
X23348740Y-65190000D01*
X23061842Y-65247068D01*
X22791589Y-65359010D01*
X22548368Y-65521525D01*
X22416513Y-65653380D01*
X22394502Y-65580820D01*
X22335537Y-65470506D01*
X22256185Y-65373815D01*
X22159494Y-65294463D01*
X22049180Y-65235498D01*
X21929482Y-65199188D01*
X21805000Y-65186928D01*
X21240750Y-65190000D01*
X21082000Y-65348750D01*
X20828000Y-65348750D01*
X20669250Y-65190000D01*
X20105000Y-65186928D01*
X19980518Y-65199188D01*
X19860820Y-65235498D01*
X19750506Y-65294463D01*
X19653815Y-65373815D01*
X19574463Y-65470506D01*
X19515498Y-65580820D01*
X19479188Y-65700518D01*
X19466928Y-65825000D01*
X12725000Y-65825000D01*
X12725000Y-41128740D01*
X16930000Y-41128740D01*
X16930000Y-41421260D01*
X16987068Y-41708158D01*
X17099010Y-41978411D01*
X17261525Y-42221632D01*
X17468368Y-42428475D01*
X17711589Y-42590990D01*
X17981842Y-42702932D01*
X18268740Y-42760000D01*
X18561260Y-42760000D01*
X18848158Y-42702932D01*
X19118411Y-42590990D01*
X19361632Y-42428475D01*
X19568475Y-42221632D01*
X19685000Y-42047240D01*
X19801525Y-42221632D01*
X20008368Y-42428475D01*
X20251589Y-42590990D01*
X20521842Y-42702932D01*
X20808740Y-42760000D01*
X21101260Y-42760000D01*
X21388158Y-42702932D01*
X21658411Y-42590990D01*
X21901632Y-42428475D01*
X22108475Y-42221632D01*
X22225000Y-42047240D01*
X22341525Y-42221632D01*
X22548368Y-42428475D01*
X22791589Y-42590990D01*
X23061842Y-42702932D01*
X23348740Y-42760000D01*
X23641260Y-42760000D01*
X23928158Y-42702932D01*
X24198411Y-42590990D01*
X24441632Y-42428475D01*
X24648475Y-42221632D01*
X24765000Y-42047240D01*
X24881525Y-42221632D01*
X25088368Y-42428475D01*
X25331589Y-42590990D01*
X25601842Y-42702932D01*
X25888740Y-42760000D01*
X26181260Y-42760000D01*
X26468158Y-42702932D01*
X26738411Y-42590990D01*
X26981632Y-42428475D01*
X27188475Y-42221632D01*
X27305000Y-42047240D01*
X27421525Y-42221632D01*
X27628368Y-42428475D01*
X27871589Y-42590990D01*
X28141842Y-42702932D01*
X28428740Y-42760000D01*
X28721260Y-42760000D01*
X29008158Y-42702932D01*
X29278411Y-42590990D01*
X29521632Y-42428475D01*
X29653487Y-42296620D01*
X29675498Y-42369180D01*
X29734463Y-42479494D01*
X29813815Y-42576185D01*
X29910506Y-42655537D01*
X30020820Y-42714502D01*
X30140518Y-42750812D01*
X30265000Y-42763072D01*
X31965000Y-42763072D01*
X32089482Y-42750812D01*
X32209180Y-42714502D01*
X32319494Y-42655537D01*
X32416185Y-42576185D01*
X32495537Y-42479494D01*
X32554502Y-42369180D01*
X32590812Y-42249482D01*
X32603072Y-42125000D01*
X32603072Y-41128740D01*
X37250000Y-41128740D01*
X37250000Y-41421260D01*
X37307068Y-41708158D01*
X37419010Y-41978411D01*
X37581525Y-42221632D01*
X37788368Y-42428475D01*
X38031589Y-42590990D01*
X38301842Y-42702932D01*
X38588740Y-42760000D01*
X38881260Y-42760000D01*
X39168158Y-42702932D01*
X39438411Y-42590990D01*
X39681632Y-42428475D01*
X39888475Y-42221632D01*
X40005000Y-42047240D01*
X40121525Y-42221632D01*
X40328368Y-42428475D01*
X40571589Y-42590990D01*
X40841842Y-42702932D01*
X41128740Y-42760000D01*
X41421260Y-42760000D01*
X41708158Y-42702932D01*
X41978411Y-42590990D01*
X42221632Y-42428475D01*
X42428475Y-42221632D01*
X42545000Y-42047240D01*
X42661525Y-42221632D01*
X42868368Y-42428475D01*
X43111589Y-42590990D01*
X43381842Y-42702932D01*
X43668740Y-42760000D01*
X43961260Y-42760000D01*
X44248158Y-42702932D01*
X44518411Y-42590990D01*
X44761632Y-42428475D01*
X44968475Y-42221632D01*
X45085000Y-42047240D01*
X45201525Y-42221632D01*
X45408368Y-42428475D01*
X45651589Y-42590990D01*
X45921842Y-42702932D01*
X46208740Y-42760000D01*
X46501260Y-42760000D01*
X46788158Y-42702932D01*
X47058411Y-42590990D01*
X47301632Y-42428475D01*
X47508475Y-42221632D01*
X47625000Y-42047240D01*
X47741525Y-42221632D01*
X47948368Y-42428475D01*
X48191589Y-42590990D01*
X48461842Y-42702932D01*
X48748740Y-42760000D01*
X49041260Y-42760000D01*
X49328158Y-42702932D01*
X49598411Y-42590990D01*
X49841632Y-42428475D01*
X49973487Y-42296620D01*
X49995498Y-42369180D01*
X50054463Y-42479494D01*
X50133815Y-42576185D01*
X50230506Y-42655537D01*
X50340820Y-42714502D01*
X50460518Y-42750812D01*
X50585000Y-42763072D01*
X52285000Y-42763072D01*
X52409482Y-42750812D01*
X52529180Y-42714502D01*
X52639494Y-42655537D01*
X52736185Y-42576185D01*
X52815537Y-42479494D01*
X52874502Y-42369180D01*
X52910812Y-42249482D01*
X52923072Y-42125000D01*
X52923072Y-41768665D01*
X73495000Y-41768665D01*
X73495000Y-42051335D01*
X73550147Y-42328574D01*
X73658320Y-42589727D01*
X73815363Y-42824759D01*
X74015241Y-43024637D01*
X74247759Y-43180000D01*
X74015241Y-43335363D01*
X73815363Y-43535241D01*
X73658320Y-43770273D01*
X73550147Y-44031426D01*
X73495000Y-44308665D01*
X73495000Y-44591335D01*
X73550147Y-44868574D01*
X73658320Y-45129727D01*
X73815363Y-45364759D01*
X74015241Y-45564637D01*
X74247759Y-45720000D01*
X74015241Y-45875363D01*
X73815363Y-46075241D01*
X73658320Y-46310273D01*
X73550147Y-46571426D01*
X73495000Y-46848665D01*
X73495000Y-47131335D01*
X73550147Y-47408574D01*
X73658320Y-47669727D01*
X73815363Y-47904759D01*
X74015241Y-48104637D01*
X74247759Y-48260000D01*
X74015241Y-48415363D01*
X73815363Y-48615241D01*
X73658320Y-48850273D01*
X73550147Y-49111426D01*
X73495000Y-49388665D01*
X73495000Y-49671335D01*
X73550147Y-49948574D01*
X73658320Y-50209727D01*
X73815363Y-50444759D01*
X74015241Y-50644637D01*
X74247759Y-50800000D01*
X74015241Y-50955363D01*
X73815363Y-51155241D01*
X73658320Y-51390273D01*
X73550147Y-51651426D01*
X73495000Y-51928665D01*
X73495000Y-52211335D01*
X73550147Y-52488574D01*
X73658320Y-52749727D01*
X73815363Y-52984759D01*
X74015241Y-53184637D01*
X74247759Y-53340000D01*
X74015241Y-53495363D01*
X73815363Y-53695241D01*
X73658320Y-53930273D01*
X73550147Y-54191426D01*
X73495000Y-54468665D01*
X73495000Y-54751335D01*
X73550147Y-55028574D01*
X73658320Y-55289727D01*
X73815363Y-55524759D01*
X74015241Y-55724637D01*
X74247759Y-55880000D01*
X74015241Y-56035363D01*
X73815363Y-56235241D01*
X73658320Y-56470273D01*
X73550147Y-56731426D01*
X73495000Y-57008665D01*
X73495000Y-57291335D01*
X73550147Y-57568574D01*
X73658320Y-57829727D01*
X73815363Y-58064759D01*
X74015241Y-58264637D01*
X74247759Y-58420000D01*
X74015241Y-58575363D01*
X73815363Y-58775241D01*
X73658320Y-59010273D01*
X73550147Y-59271426D01*
X73495000Y-59548665D01*
X73495000Y-59831335D01*
X73550147Y-60108574D01*
X73658320Y-60369727D01*
X73815363Y-60604759D01*
X74015241Y-60804637D01*
X74247759Y-60960000D01*
X74015241Y-61115363D01*
X73815363Y-61315241D01*
X73658320Y-61550273D01*
X73550147Y-61811426D01*
X73495000Y-62088665D01*
X73495000Y-62371335D01*
X73550147Y-62648574D01*
X73658320Y-62909727D01*
X73815363Y-63144759D01*
X74015241Y-63344637D01*
X74247759Y-63500000D01*
X74015241Y-63655363D01*
X73815363Y-63855241D01*
X73658320Y-64090273D01*
X73550147Y-64351426D01*
X73495000Y-64628665D01*
X73495000Y-64911335D01*
X73550147Y-65188574D01*
X73658320Y-65449727D01*
X73815363Y-65684759D01*
X74015241Y-65884637D01*
X74247759Y-66040000D01*
X74015241Y-66195363D01*
X73815363Y-66395241D01*
X73658320Y-66630273D01*
X73550147Y-66891426D01*
X73495000Y-67168665D01*
X73495000Y-67451335D01*
X73550147Y-67728574D01*
X73658320Y-67989727D01*
X73815363Y-68224759D01*
X74015241Y-68424637D01*
X74250273Y-68581680D01*
X74511426Y-68689853D01*
X74788665Y-68745000D01*
X75071335Y-68745000D01*
X75348574Y-68689853D01*
X75609727Y-68581680D01*
X75844759Y-68424637D01*
X76044637Y-68224759D01*
X76201680Y-67989727D01*
X76309853Y-67728574D01*
X76365000Y-67451335D01*
X76365000Y-67168665D01*
X76309853Y-66891426D01*
X76201680Y-66630273D01*
X76044637Y-66395241D01*
X75844759Y-66195363D01*
X75612241Y-66040000D01*
X75844759Y-65884637D01*
X76044637Y-65684759D01*
X76201680Y-65449727D01*
X76309853Y-65188574D01*
X76365000Y-64911335D01*
X76365000Y-64628665D01*
X76309853Y-64351426D01*
X76201680Y-64090273D01*
X76044637Y-63855241D01*
X75844759Y-63655363D01*
X75612241Y-63500000D01*
X75844759Y-63344637D01*
X76044637Y-63144759D01*
X76201680Y-62909727D01*
X76309853Y-62648574D01*
X76365000Y-62371335D01*
X76365000Y-62088665D01*
X76309853Y-61811426D01*
X76201680Y-61550273D01*
X76044637Y-61315241D01*
X75844759Y-61115363D01*
X75612241Y-60960000D01*
X75844759Y-60804637D01*
X76044637Y-60604759D01*
X76201680Y-60369727D01*
X76309853Y-60108574D01*
X76365000Y-59831335D01*
X76365000Y-59548665D01*
X76309853Y-59271426D01*
X76201680Y-59010273D01*
X76044637Y-58775241D01*
X75844759Y-58575363D01*
X75612241Y-58420000D01*
X75844759Y-58264637D01*
X76044637Y-58064759D01*
X76201680Y-57829727D01*
X76309853Y-57568574D01*
X76365000Y-57291335D01*
X76365000Y-57008665D01*
X76309853Y-56731426D01*
X76201680Y-56470273D01*
X76044637Y-56235241D01*
X75844759Y-56035363D01*
X75612241Y-55880000D01*
X75844759Y-55724637D01*
X76044637Y-55524759D01*
X76201680Y-55289727D01*
X76309853Y-55028574D01*
X76365000Y-54751335D01*
X76365000Y-54468665D01*
X76309853Y-54191426D01*
X76201680Y-53930273D01*
X76044637Y-53695241D01*
X75844759Y-53495363D01*
X75612241Y-53340000D01*
X75844759Y-53184637D01*
X76044637Y-52984759D01*
X76201680Y-52749727D01*
X76309853Y-52488574D01*
X76365000Y-52211335D01*
X76365000Y-51928665D01*
X76309853Y-51651426D01*
X76201680Y-51390273D01*
X76044637Y-51155241D01*
X75844759Y-50955363D01*
X75612241Y-50800000D01*
X75844759Y-50644637D01*
X76044637Y-50444759D01*
X76201680Y-50209727D01*
X76309853Y-49948574D01*
X76365000Y-49671335D01*
X76365000Y-49388665D01*
X76309853Y-49111426D01*
X76201680Y-48850273D01*
X76044637Y-48615241D01*
X75844759Y-48415363D01*
X75612241Y-48260000D01*
X75844759Y-48104637D01*
X76044637Y-47904759D01*
X76201680Y-47669727D01*
X76309853Y-47408574D01*
X76365000Y-47131335D01*
X76365000Y-46848665D01*
X76309853Y-46571426D01*
X76201680Y-46310273D01*
X76044637Y-46075241D01*
X75844759Y-45875363D01*
X75612241Y-45720000D01*
X75844759Y-45564637D01*
X76044637Y-45364759D01*
X76201680Y-45129727D01*
X76309853Y-44868574D01*
X76365000Y-44591335D01*
X76365000Y-44308665D01*
X76309853Y-44031426D01*
X76201680Y-43770273D01*
X76044637Y-43535241D01*
X75844759Y-43335363D01*
X75612241Y-43180000D01*
X75844759Y-43024637D01*
X76044637Y-42824759D01*
X76201680Y-42589727D01*
X76309853Y-42328574D01*
X76365000Y-42051335D01*
X76365000Y-41768665D01*
X76309853Y-41491426D01*
X76201680Y-41230273D01*
X76044637Y-40995241D01*
X75844759Y-40795363D01*
X75609727Y-40638320D01*
X75599135Y-40633933D01*
X75785131Y-40522385D01*
X75993519Y-40333414D01*
X76161037Y-40107420D01*
X76281246Y-39853087D01*
X76321904Y-39719039D01*
X76199915Y-39497000D01*
X75057000Y-39497000D01*
X75057000Y-39517000D01*
X74803000Y-39517000D01*
X74803000Y-39497000D01*
X73660085Y-39497000D01*
X73538096Y-39719039D01*
X73578754Y-39853087D01*
X73698963Y-40107420D01*
X73866481Y-40333414D01*
X74074869Y-40522385D01*
X74260865Y-40633933D01*
X74250273Y-40638320D01*
X74015241Y-40795363D01*
X73815363Y-40995241D01*
X73658320Y-41230273D01*
X73550147Y-41491426D01*
X73495000Y-41768665D01*
X52923072Y-41768665D01*
X52923072Y-40425000D01*
X52910812Y-40300518D01*
X52874502Y-40180820D01*
X52815537Y-40070506D01*
X52736185Y-39973815D01*
X52639494Y-39894463D01*
X52529180Y-39835498D01*
X52409482Y-39799188D01*
X52285000Y-39786928D01*
X52195000Y-39786928D01*
X52195000Y-33334801D01*
X54579801Y-30950000D01*
X73491928Y-30950000D01*
X73491928Y-32550000D01*
X73504188Y-32674482D01*
X73540498Y-32794180D01*
X73599463Y-32904494D01*
X73678815Y-33001185D01*
X73775506Y-33080537D01*
X73885820Y-33139502D01*
X74005518Y-33175812D01*
X74013961Y-33176643D01*
X73815363Y-33375241D01*
X73658320Y-33610273D01*
X73550147Y-33871426D01*
X73495000Y-34148665D01*
X73495000Y-34431335D01*
X73550147Y-34708574D01*
X73658320Y-34969727D01*
X73815363Y-35204759D01*
X74015241Y-35404637D01*
X74247759Y-35560000D01*
X74015241Y-35715363D01*
X73815363Y-35915241D01*
X73658320Y-36150273D01*
X73550147Y-36411426D01*
X73495000Y-36688665D01*
X73495000Y-36971335D01*
X73550147Y-37248574D01*
X73658320Y-37509727D01*
X73815363Y-37744759D01*
X74015241Y-37944637D01*
X74250273Y-38101680D01*
X74260865Y-38106067D01*
X74074869Y-38217615D01*
X73866481Y-38406586D01*
X73698963Y-38632580D01*
X73578754Y-38886913D01*
X73538096Y-39020961D01*
X73660085Y-39243000D01*
X74803000Y-39243000D01*
X74803000Y-39223000D01*
X75057000Y-39223000D01*
X75057000Y-39243000D01*
X76199915Y-39243000D01*
X76321904Y-39020961D01*
X76281246Y-38886913D01*
X76161037Y-38632580D01*
X75993519Y-38406586D01*
X75785131Y-38217615D01*
X75599135Y-38106067D01*
X75609727Y-38101680D01*
X75844759Y-37944637D01*
X76044637Y-37744759D01*
X76201680Y-37509727D01*
X76309853Y-37248574D01*
X76365000Y-36971335D01*
X76365000Y-36688665D01*
X76309853Y-36411426D01*
X76201680Y-36150273D01*
X76044637Y-35915241D01*
X75844759Y-35715363D01*
X75612241Y-35560000D01*
X75844759Y-35404637D01*
X76044637Y-35204759D01*
X76201680Y-34969727D01*
X76309853Y-34708574D01*
X76365000Y-34431335D01*
X76365000Y-34148665D01*
X76309853Y-33871426D01*
X76201680Y-33610273D01*
X76044637Y-33375241D01*
X75846039Y-33176643D01*
X75854482Y-33175812D01*
X75974180Y-33139502D01*
X76084494Y-33080537D01*
X76181185Y-33001185D01*
X76260537Y-32904494D01*
X76319502Y-32794180D01*
X76355812Y-32674482D01*
X76368072Y-32550000D01*
X76368072Y-31608665D01*
X88735000Y-31608665D01*
X88735000Y-31891335D01*
X88790147Y-32168574D01*
X88898320Y-32429727D01*
X89055363Y-32664759D01*
X89255241Y-32864637D01*
X89490273Y-33021680D01*
X89500865Y-33026067D01*
X89314869Y-33137615D01*
X89106481Y-33326586D01*
X88938963Y-33552580D01*
X88818754Y-33806913D01*
X88778096Y-33940961D01*
X88900085Y-34163000D01*
X90043000Y-34163000D01*
X90043000Y-34143000D01*
X90297000Y-34143000D01*
X90297000Y-34163000D01*
X91439915Y-34163000D01*
X91561904Y-33940961D01*
X91521246Y-33806913D01*
X91401037Y-33552580D01*
X91233519Y-33326586D01*
X91025131Y-33137615D01*
X90839135Y-33026067D01*
X90849727Y-33021680D01*
X91084759Y-32864637D01*
X91284637Y-32664759D01*
X91441680Y-32429727D01*
X91549853Y-32168574D01*
X91605000Y-31891335D01*
X91605000Y-31608665D01*
X91549853Y-31331426D01*
X91441680Y-31070273D01*
X91284637Y-30835241D01*
X91084759Y-30635363D01*
X90849727Y-30478320D01*
X90588574Y-30370147D01*
X90311335Y-30315000D01*
X90028665Y-30315000D01*
X89751426Y-30370147D01*
X89490273Y-30478320D01*
X89255241Y-30635363D01*
X89055363Y-30835241D01*
X88898320Y-31070273D01*
X88790147Y-31331426D01*
X88735000Y-31608665D01*
X76368072Y-31608665D01*
X76368072Y-30950000D01*
X76355812Y-30825518D01*
X76319502Y-30705820D01*
X76260537Y-30595506D01*
X76181185Y-30498815D01*
X76084494Y-30419463D01*
X75974180Y-30360498D01*
X75854482Y-30324188D01*
X75730000Y-30311928D01*
X74130000Y-30311928D01*
X74005518Y-30324188D01*
X73885820Y-30360498D01*
X73775506Y-30419463D01*
X73678815Y-30498815D01*
X73599463Y-30595506D01*
X73540498Y-30705820D01*
X73504188Y-30825518D01*
X73491928Y-30950000D01*
X54579801Y-30950000D01*
X67329801Y-18200000D01*
X79791928Y-18200000D01*
X79791928Y-19900000D01*
X79804188Y-20024482D01*
X79840498Y-20144180D01*
X79899463Y-20254494D01*
X79978815Y-20351185D01*
X80075506Y-20430537D01*
X80185820Y-20489502D01*
X80305518Y-20525812D01*
X80430000Y-20538072D01*
X80520000Y-20538072D01*
X80520001Y-23457668D01*
X80516324Y-23495000D01*
X80530998Y-23643985D01*
X80574454Y-23787246D01*
X80645026Y-23919276D01*
X80716201Y-24006002D01*
X80740000Y-24035001D01*
X80768998Y-24058799D01*
X83891200Y-27181002D01*
X83914999Y-27210001D01*
X83943997Y-27233799D01*
X84030723Y-27304974D01*
X84162753Y-27375546D01*
X84306014Y-27419003D01*
X84417667Y-27430000D01*
X84417676Y-27430000D01*
X84454999Y-27433676D01*
X84492322Y-27430000D01*
X101285199Y-27430000D01*
X106555000Y-32699802D01*
X106555001Y-42961928D01*
X106465000Y-42961928D01*
X106340518Y-42974188D01*
X106220820Y-43010498D01*
X106110506Y-43069463D01*
X106013815Y-43148815D01*
X105934463Y-43245506D01*
X105875498Y-43355820D01*
X105839188Y-43475518D01*
X105826928Y-43600000D01*
X105826928Y-45300000D01*
X105839188Y-45424482D01*
X105875498Y-45544180D01*
X105934463Y-45654494D01*
X106013815Y-45751185D01*
X106110506Y-45830537D01*
X106220820Y-45889502D01*
X106293380Y-45911513D01*
X106161525Y-46043368D01*
X105999010Y-46286589D01*
X105887068Y-46556842D01*
X105830000Y-46843740D01*
X105830000Y-47136260D01*
X105887068Y-47423158D01*
X105999010Y-47693411D01*
X106161525Y-47936632D01*
X106368368Y-48143475D01*
X106611589Y-48305990D01*
X106881842Y-48417932D01*
X107168740Y-48475000D01*
X107461260Y-48475000D01*
X107748158Y-48417932D01*
X108018411Y-48305990D01*
X108261632Y-48143475D01*
X108468475Y-47936632D01*
X108630990Y-47693411D01*
X108742932Y-47423158D01*
X108800000Y-47136260D01*
X108800000Y-46843740D01*
X108742932Y-46556842D01*
X108630990Y-46286589D01*
X108468475Y-46043368D01*
X108336620Y-45911513D01*
X108409180Y-45889502D01*
X108519494Y-45830537D01*
X108616185Y-45751185D01*
X108695537Y-45654494D01*
X108754502Y-45544180D01*
X108790812Y-45424482D01*
X108803072Y-45300000D01*
X108803072Y-43600000D01*
X108790812Y-43475518D01*
X108754502Y-43355820D01*
X108695537Y-43245506D01*
X108616185Y-43148815D01*
X108519494Y-43069463D01*
X108409180Y-43010498D01*
X108289482Y-42974188D01*
X108165000Y-42961928D01*
X108075000Y-42961928D01*
X108075000Y-32422333D01*
X108078677Y-32385000D01*
X108064003Y-32236014D01*
X108020546Y-32092753D01*
X107949974Y-31960724D01*
X107878799Y-31873997D01*
X107855001Y-31844999D01*
X107826004Y-31821202D01*
X102163804Y-26159003D01*
X102140001Y-26129999D01*
X102024276Y-26035026D01*
X101892247Y-25964454D01*
X101748986Y-25920997D01*
X101637333Y-25910000D01*
X101637322Y-25910000D01*
X101600000Y-25906324D01*
X101562678Y-25910000D01*
X84769802Y-25910000D01*
X82040000Y-23180199D01*
X82040000Y-20538072D01*
X82130000Y-20538072D01*
X82254482Y-20525812D01*
X82374180Y-20489502D01*
X82484494Y-20430537D01*
X82581185Y-20351185D01*
X82660537Y-20254494D01*
X82719502Y-20144180D01*
X82743966Y-20063534D01*
X82819731Y-20147588D01*
X83053080Y-20321641D01*
X83315901Y-20446825D01*
X83463110Y-20491476D01*
X83693000Y-20370155D01*
X83693000Y-19177000D01*
X83947000Y-19177000D01*
X83947000Y-20370155D01*
X84176890Y-20491476D01*
X84324099Y-20446825D01*
X84586920Y-20321641D01*
X84820269Y-20147588D01*
X85015178Y-19931355D01*
X85164157Y-19681252D01*
X85261481Y-19406891D01*
X85140814Y-19177000D01*
X83947000Y-19177000D01*
X83693000Y-19177000D01*
X83673000Y-19177000D01*
X83673000Y-18923000D01*
X83693000Y-18923000D01*
X83693000Y-17729845D01*
X83947000Y-17729845D01*
X83947000Y-18923000D01*
X85140814Y-18923000D01*
X85261481Y-18693109D01*
X85164157Y-18418748D01*
X85015178Y-18168645D01*
X84820269Y-17952412D01*
X84586920Y-17778359D01*
X84324099Y-17653175D01*
X84176890Y-17608524D01*
X83947000Y-17729845D01*
X83693000Y-17729845D01*
X83463110Y-17608524D01*
X83315901Y-17653175D01*
X83053080Y-17778359D01*
X82819731Y-17952412D01*
X82743966Y-18036466D01*
X82719502Y-17955820D01*
X82660537Y-17845506D01*
X82581185Y-17748815D01*
X82484494Y-17669463D01*
X82374180Y-17610498D01*
X82254482Y-17574188D01*
X82130000Y-17561928D01*
X80430000Y-17561928D01*
X80305518Y-17574188D01*
X80185820Y-17610498D01*
X80075506Y-17669463D01*
X79978815Y-17748815D01*
X79899463Y-17845506D01*
X79840498Y-17955820D01*
X79804188Y-18075518D01*
X79791928Y-18200000D01*
X67329801Y-18200000D01*
X68894802Y-16635000D01*
X101730199Y-16635000D01*
X104620000Y-19524802D01*
X104620000Y-20020664D01*
X104637870Y-20202101D01*
X104708489Y-20434900D01*
X104823167Y-20649448D01*
X104977498Y-20837502D01*
X105165551Y-20991833D01*
X105380099Y-21106511D01*
X105612898Y-21177130D01*
X105855000Y-21200975D01*
X106097101Y-21177130D01*
X106329900Y-21106511D01*
X106544448Y-20991833D01*
X106732502Y-20837502D01*
X106855000Y-20688237D01*
X106977498Y-20837502D01*
X107165551Y-20991833D01*
X107380099Y-21106511D01*
X107612898Y-21177130D01*
X107855000Y-21200975D01*
X108097101Y-21177130D01*
X108329900Y-21106511D01*
X108544448Y-20991833D01*
X108732502Y-20837502D01*
X108764191Y-20798889D01*
X108766595Y-20803387D01*
X108877038Y-20937962D01*
X109011613Y-21048405D01*
X109165149Y-21130472D01*
X109331745Y-21181008D01*
X109504999Y-21198072D01*
X110205001Y-21198072D01*
X110378255Y-21181008D01*
X110544851Y-21130472D01*
X110698387Y-21048405D01*
X110832962Y-20937962D01*
X110943405Y-20803387D01*
X111025472Y-20649851D01*
X111076008Y-20483255D01*
X111093072Y-20310001D01*
X111093072Y-19059999D01*
X111076008Y-18886745D01*
X111058756Y-18829872D01*
X118415000Y-18829872D01*
X118415000Y-19270128D01*
X118500890Y-19701925D01*
X118669369Y-20108669D01*
X118913962Y-20474729D01*
X119225271Y-20786038D01*
X119591331Y-21030631D01*
X119998075Y-21199110D01*
X120429872Y-21285000D01*
X120870128Y-21285000D01*
X121301925Y-21199110D01*
X121708669Y-21030631D01*
X122074729Y-20786038D01*
X122386038Y-20474729D01*
X122630631Y-20108669D01*
X122799110Y-19701925D01*
X122885000Y-19270128D01*
X122885000Y-18829872D01*
X122799110Y-18398075D01*
X122630631Y-17991331D01*
X122386038Y-17625271D01*
X122074729Y-17313962D01*
X121708669Y-17069369D01*
X121301925Y-16900890D01*
X120870128Y-16815000D01*
X120429872Y-16815000D01*
X119998075Y-16900890D01*
X119591331Y-17069369D01*
X119225271Y-17313962D01*
X118913962Y-17625271D01*
X118669369Y-17991331D01*
X118500890Y-18398075D01*
X118415000Y-18829872D01*
X111058756Y-18829872D01*
X111025472Y-18720149D01*
X110943405Y-18566613D01*
X110832962Y-18432038D01*
X110698387Y-18321595D01*
X110544851Y-18239528D01*
X110378255Y-18188992D01*
X110205001Y-18171928D01*
X109504999Y-18171928D01*
X109331745Y-18188992D01*
X109165149Y-18239528D01*
X109011613Y-18321595D01*
X108877038Y-18432038D01*
X108766595Y-18566613D01*
X108764191Y-18571111D01*
X108732502Y-18532498D01*
X108544449Y-18378167D01*
X108329901Y-18263489D01*
X108097102Y-18192870D01*
X107855000Y-18169025D01*
X107612899Y-18192870D01*
X107380100Y-18263489D01*
X107165552Y-18378167D01*
X106977499Y-18532498D01*
X106855001Y-18681763D01*
X106732502Y-18532498D01*
X106544449Y-18378167D01*
X106329901Y-18263489D01*
X106097102Y-18192870D01*
X105855000Y-18169025D01*
X105612899Y-18192870D01*
X105478455Y-18233653D01*
X102608804Y-15364003D01*
X102585001Y-15334999D01*
X102469276Y-15240026D01*
X102337247Y-15169454D01*
X102193986Y-15125997D01*
X102082333Y-15115000D01*
X102082322Y-15115000D01*
X102045000Y-15111324D01*
X102007678Y-15115000D01*
X68617333Y-15115000D01*
X68580000Y-15111323D01*
X68542667Y-15115000D01*
X68431014Y-15125997D01*
X68287753Y-15169454D01*
X68155724Y-15240026D01*
X68039999Y-15334999D01*
X68016201Y-15363997D01*
X51435001Y-31945198D01*
X49458804Y-29969003D01*
X49435001Y-29939999D01*
X49319276Y-29845026D01*
X49187247Y-29774454D01*
X49043986Y-29730997D01*
X48932333Y-29720000D01*
X48932322Y-29720000D01*
X48895000Y-29716324D01*
X48857678Y-29720000D01*
X47573043Y-29720000D01*
X47469637Y-29565241D01*
X47269759Y-29365363D01*
X47034727Y-29208320D01*
X46773574Y-29100147D01*
X46496335Y-29045000D01*
X46213665Y-29045000D01*
X45936426Y-29100147D01*
X45675273Y-29208320D01*
X45440241Y-29365363D01*
X45240363Y-29565241D01*
X45083320Y-29800273D01*
X44975147Y-30061426D01*
X44920000Y-30338665D01*
X44920000Y-30621335D01*
X44975147Y-30898574D01*
X45083320Y-31159727D01*
X45240363Y-31394759D01*
X45440241Y-31594637D01*
X45675273Y-31751680D01*
X45936426Y-31859853D01*
X46213665Y-31915000D01*
X46496335Y-31915000D01*
X46773574Y-31859853D01*
X47034727Y-31751680D01*
X47269759Y-31594637D01*
X47469637Y-31394759D01*
X47573043Y-31240000D01*
X48580199Y-31240000D01*
X50675000Y-33334803D01*
X50675001Y-39786928D01*
X50585000Y-39786928D01*
X50460518Y-39799188D01*
X50340820Y-39835498D01*
X50230506Y-39894463D01*
X50133815Y-39973815D01*
X50054463Y-40070506D01*
X49995498Y-40180820D01*
X49973487Y-40253380D01*
X49841632Y-40121525D01*
X49598411Y-39959010D01*
X49328158Y-39847068D01*
X49041260Y-39790000D01*
X48748740Y-39790000D01*
X48461842Y-39847068D01*
X48191589Y-39959010D01*
X47948368Y-40121525D01*
X47741525Y-40328368D01*
X47625000Y-40502760D01*
X47508475Y-40328368D01*
X47301632Y-40121525D01*
X47058411Y-39959010D01*
X46788158Y-39847068D01*
X46501260Y-39790000D01*
X46208740Y-39790000D01*
X45921842Y-39847068D01*
X45651589Y-39959010D01*
X45408368Y-40121525D01*
X45201525Y-40328368D01*
X45085000Y-40502760D01*
X44968475Y-40328368D01*
X44761632Y-40121525D01*
X44518411Y-39959010D01*
X44248158Y-39847068D01*
X43961260Y-39790000D01*
X43668740Y-39790000D01*
X43381842Y-39847068D01*
X43111589Y-39959010D01*
X42868368Y-40121525D01*
X42661525Y-40328368D01*
X42545000Y-40502760D01*
X42428475Y-40328368D01*
X42221632Y-40121525D01*
X41978411Y-39959010D01*
X41708158Y-39847068D01*
X41421260Y-39790000D01*
X41128740Y-39790000D01*
X40841842Y-39847068D01*
X40571589Y-39959010D01*
X40328368Y-40121525D01*
X40121525Y-40328368D01*
X40005000Y-40502760D01*
X39888475Y-40328368D01*
X39681632Y-40121525D01*
X39438411Y-39959010D01*
X39168158Y-39847068D01*
X38881260Y-39790000D01*
X38588740Y-39790000D01*
X38301842Y-39847068D01*
X38031589Y-39959010D01*
X37788368Y-40121525D01*
X37581525Y-40328368D01*
X37419010Y-40571589D01*
X37307068Y-40841842D01*
X37250000Y-41128740D01*
X32603072Y-41128740D01*
X32603072Y-40425000D01*
X32590812Y-40300518D01*
X32554502Y-40180820D01*
X32495537Y-40070506D01*
X32416185Y-39973815D01*
X32319494Y-39894463D01*
X32209180Y-39835498D01*
X32089482Y-39799188D01*
X31965000Y-39786928D01*
X31875000Y-39786928D01*
X31875000Y-35597323D01*
X31878676Y-35560000D01*
X31875000Y-35522677D01*
X31875000Y-34783665D01*
X37300000Y-34783665D01*
X37300000Y-35066335D01*
X37355147Y-35343574D01*
X37463320Y-35604727D01*
X37620363Y-35839759D01*
X37820241Y-36039637D01*
X38055273Y-36196680D01*
X38316426Y-36304853D01*
X38593665Y-36360000D01*
X38876335Y-36360000D01*
X39153574Y-36304853D01*
X39414727Y-36196680D01*
X39649759Y-36039637D01*
X39849637Y-35839759D01*
X40006680Y-35604727D01*
X40114853Y-35343574D01*
X40170000Y-35066335D01*
X40170000Y-34783665D01*
X44920000Y-34783665D01*
X44920000Y-35066335D01*
X44975147Y-35343574D01*
X45083320Y-35604727D01*
X45240363Y-35839759D01*
X45440241Y-36039637D01*
X45675273Y-36196680D01*
X45936426Y-36304853D01*
X46213665Y-36360000D01*
X46496335Y-36360000D01*
X46773574Y-36304853D01*
X47034727Y-36196680D01*
X47269759Y-36039637D01*
X47469637Y-35839759D01*
X47626680Y-35604727D01*
X47734853Y-35343574D01*
X47790000Y-35066335D01*
X47790000Y-34783665D01*
X47734853Y-34506426D01*
X47626680Y-34245273D01*
X47469637Y-34010241D01*
X47269759Y-33810363D01*
X47034727Y-33653320D01*
X46773574Y-33545147D01*
X46496335Y-33490000D01*
X46213665Y-33490000D01*
X45936426Y-33545147D01*
X45675273Y-33653320D01*
X45440241Y-33810363D01*
X45240363Y-34010241D01*
X45083320Y-34245273D01*
X44975147Y-34506426D01*
X44920000Y-34783665D01*
X40170000Y-34783665D01*
X40114853Y-34506426D01*
X40006680Y-34245273D01*
X39849637Y-34010241D01*
X39649759Y-33810363D01*
X39414727Y-33653320D01*
X39153574Y-33545147D01*
X38876335Y-33490000D01*
X38593665Y-33490000D01*
X38316426Y-33545147D01*
X38055273Y-33653320D01*
X37820241Y-33810363D01*
X37620363Y-34010241D01*
X37463320Y-34245273D01*
X37355147Y-34506426D01*
X37300000Y-34783665D01*
X31875000Y-34783665D01*
X31875000Y-30338665D01*
X37300000Y-30338665D01*
X37300000Y-30621335D01*
X37355147Y-30898574D01*
X37463320Y-31159727D01*
X37620363Y-31394759D01*
X37820241Y-31594637D01*
X38055273Y-31751680D01*
X38316426Y-31859853D01*
X38593665Y-31915000D01*
X38876335Y-31915000D01*
X39153574Y-31859853D01*
X39414727Y-31751680D01*
X39649759Y-31594637D01*
X39849637Y-31394759D01*
X40006680Y-31159727D01*
X40114853Y-30898574D01*
X40170000Y-30621335D01*
X40170000Y-30338665D01*
X40114853Y-30061426D01*
X40006680Y-29800273D01*
X39849637Y-29565241D01*
X39649759Y-29365363D01*
X39414727Y-29208320D01*
X39153574Y-29100147D01*
X38876335Y-29045000D01*
X38593665Y-29045000D01*
X38316426Y-29100147D01*
X38055273Y-29208320D01*
X37820241Y-29365363D01*
X37620363Y-29565241D01*
X37463320Y-29800273D01*
X37355147Y-30061426D01*
X37300000Y-30338665D01*
X31875000Y-30338665D01*
X31875000Y-29247322D01*
X31878676Y-29209999D01*
X31875000Y-29172676D01*
X31875000Y-29172667D01*
X31864003Y-29061014D01*
X31820546Y-28917753D01*
X31749974Y-28785724D01*
X31655001Y-28669999D01*
X31626003Y-28646201D01*
X30605000Y-27625199D01*
X30605000Y-20933933D01*
X30722502Y-20837502D01*
X30845000Y-20688237D01*
X30967498Y-20837502D01*
X31155551Y-20991833D01*
X31370099Y-21106511D01*
X31602898Y-21177130D01*
X31845000Y-21200975D01*
X32087101Y-21177130D01*
X32319900Y-21106511D01*
X32534448Y-20991833D01*
X32722502Y-20837502D01*
X32754191Y-20798889D01*
X32756595Y-20803387D01*
X32867038Y-20937962D01*
X33001613Y-21048405D01*
X33155149Y-21130472D01*
X33321745Y-21181008D01*
X33494999Y-21198072D01*
X34195001Y-21198072D01*
X34368255Y-21181008D01*
X34534851Y-21130472D01*
X34688387Y-21048405D01*
X34822962Y-20937962D01*
X34933405Y-20803387D01*
X35015472Y-20649851D01*
X35066008Y-20483255D01*
X35083072Y-20310001D01*
X35083072Y-19059999D01*
X35066008Y-18886745D01*
X35015472Y-18720149D01*
X34933405Y-18566613D01*
X34822962Y-18432038D01*
X34688387Y-18321595D01*
X34534851Y-18239528D01*
X34368255Y-18188992D01*
X34195001Y-18171928D01*
X33494999Y-18171928D01*
X33321745Y-18188992D01*
X33155149Y-18239528D01*
X33001613Y-18321595D01*
X32867038Y-18432038D01*
X32756595Y-18566613D01*
X32754191Y-18571111D01*
X32722502Y-18532498D01*
X32534449Y-18378167D01*
X32319901Y-18263489D01*
X32087102Y-18192870D01*
X31845000Y-18169025D01*
X31602899Y-18192870D01*
X31370100Y-18263489D01*
X31155552Y-18378167D01*
X30967499Y-18532498D01*
X30845000Y-18681763D01*
X30722502Y-18532498D01*
X30534449Y-18378167D01*
X30319901Y-18263489D01*
X30087102Y-18192870D01*
X29845000Y-18169025D01*
X29602899Y-18192870D01*
X29370100Y-18263489D01*
X29155552Y-18378167D01*
X28967499Y-18532498D01*
X28813168Y-18720551D01*
X28698489Y-18935099D01*
X28627870Y-19167898D01*
X28610000Y-19349335D01*
X28610000Y-20020664D01*
X28627870Y-20202101D01*
X28698489Y-20434900D01*
X28813167Y-20649448D01*
X28967498Y-20837502D01*
X29085000Y-20933933D01*
X29085000Y-20992332D01*
X29085001Y-20992342D01*
X29085000Y-27902677D01*
X29081324Y-27940000D01*
X29085000Y-27977322D01*
X29085000Y-27977332D01*
X29095997Y-28088985D01*
X29139454Y-28232246D01*
X29210026Y-28364276D01*
X29249871Y-28412826D01*
X29304999Y-28480001D01*
X29334003Y-28503804D01*
X30355001Y-29524803D01*
X30355000Y-33725199D01*
X27433688Y-30803887D01*
X27470000Y-30621335D01*
X27470000Y-30338665D01*
X27414853Y-30061426D01*
X27306680Y-29800273D01*
X27149637Y-29565241D01*
X26949759Y-29365363D01*
X26714727Y-29208320D01*
X26453574Y-29100147D01*
X26176335Y-29045000D01*
X25893665Y-29045000D01*
X25616426Y-29100147D01*
X25355273Y-29208320D01*
X25120241Y-29365363D01*
X24920363Y-29565241D01*
X24763320Y-29800273D01*
X24655147Y-30061426D01*
X24600000Y-30338665D01*
X24600000Y-30621335D01*
X24655147Y-30898574D01*
X24763320Y-31159727D01*
X24920363Y-31394759D01*
X25120241Y-31594637D01*
X25355273Y-31751680D01*
X25616426Y-31859853D01*
X25893665Y-31915000D01*
X26176335Y-31915000D01*
X26358887Y-31878688D01*
X30355000Y-35874802D01*
X30355001Y-39786928D01*
X30265000Y-39786928D01*
X30140518Y-39799188D01*
X30020820Y-39835498D01*
X29910506Y-39894463D01*
X29813815Y-39973815D01*
X29734463Y-40070506D01*
X29675498Y-40180820D01*
X29653487Y-40253380D01*
X29521632Y-40121525D01*
X29278411Y-39959010D01*
X29008158Y-39847068D01*
X28721260Y-39790000D01*
X28428740Y-39790000D01*
X28141842Y-39847068D01*
X27871589Y-39959010D01*
X27628368Y-40121525D01*
X27421525Y-40328368D01*
X27305000Y-40502760D01*
X27188475Y-40328368D01*
X26981632Y-40121525D01*
X26738411Y-39959010D01*
X26468158Y-39847068D01*
X26181260Y-39790000D01*
X25888740Y-39790000D01*
X25601842Y-39847068D01*
X25331589Y-39959010D01*
X25088368Y-40121525D01*
X24881525Y-40328368D01*
X24765000Y-40502760D01*
X24648475Y-40328368D01*
X24441632Y-40121525D01*
X24198411Y-39959010D01*
X23928158Y-39847068D01*
X23641260Y-39790000D01*
X23348740Y-39790000D01*
X23061842Y-39847068D01*
X22791589Y-39959010D01*
X22548368Y-40121525D01*
X22341525Y-40328368D01*
X22225000Y-40502760D01*
X22108475Y-40328368D01*
X21901632Y-40121525D01*
X21658411Y-39959010D01*
X21388158Y-39847068D01*
X21101260Y-39790000D01*
X20808740Y-39790000D01*
X20521842Y-39847068D01*
X20251589Y-39959010D01*
X20008368Y-40121525D01*
X19801525Y-40328368D01*
X19685000Y-40502760D01*
X19568475Y-40328368D01*
X19361632Y-40121525D01*
X19118411Y-39959010D01*
X18848158Y-39847068D01*
X18561260Y-39790000D01*
X18268740Y-39790000D01*
X17981842Y-39847068D01*
X17711589Y-39959010D01*
X17468368Y-40121525D01*
X17261525Y-40328368D01*
X17099010Y-40571589D01*
X16987068Y-40841842D01*
X16930000Y-41128740D01*
X12725000Y-41128740D01*
X12725000Y-34783665D01*
X16980000Y-34783665D01*
X16980000Y-35066335D01*
X17035147Y-35343574D01*
X17143320Y-35604727D01*
X17300363Y-35839759D01*
X17500241Y-36039637D01*
X17735273Y-36196680D01*
X17996426Y-36304853D01*
X18273665Y-36360000D01*
X18556335Y-36360000D01*
X18833574Y-36304853D01*
X19094727Y-36196680D01*
X19329759Y-36039637D01*
X19529637Y-35839759D01*
X19686680Y-35604727D01*
X19794853Y-35343574D01*
X19850000Y-35066335D01*
X19850000Y-34783665D01*
X24600000Y-34783665D01*
X24600000Y-35066335D01*
X24655147Y-35343574D01*
X24763320Y-35604727D01*
X24920363Y-35839759D01*
X25120241Y-36039637D01*
X25355273Y-36196680D01*
X25616426Y-36304853D01*
X25893665Y-36360000D01*
X26176335Y-36360000D01*
X26453574Y-36304853D01*
X26714727Y-36196680D01*
X26949759Y-36039637D01*
X27149637Y-35839759D01*
X27306680Y-35604727D01*
X27414853Y-35343574D01*
X27470000Y-35066335D01*
X27470000Y-34783665D01*
X27414853Y-34506426D01*
X27306680Y-34245273D01*
X27149637Y-34010241D01*
X26949759Y-33810363D01*
X26714727Y-33653320D01*
X26453574Y-33545147D01*
X26176335Y-33490000D01*
X25893665Y-33490000D01*
X25616426Y-33545147D01*
X25355273Y-33653320D01*
X25120241Y-33810363D01*
X24920363Y-34010241D01*
X24763320Y-34245273D01*
X24655147Y-34506426D01*
X24600000Y-34783665D01*
X19850000Y-34783665D01*
X19794853Y-34506426D01*
X19686680Y-34245273D01*
X19529637Y-34010241D01*
X19329759Y-33810363D01*
X19094727Y-33653320D01*
X18833574Y-33545147D01*
X18556335Y-33490000D01*
X18273665Y-33490000D01*
X17996426Y-33545147D01*
X17735273Y-33653320D01*
X17500241Y-33810363D01*
X17300363Y-34010241D01*
X17143320Y-34245273D01*
X17035147Y-34506426D01*
X16980000Y-34783665D01*
X12725000Y-34783665D01*
X12725000Y-30338665D01*
X16980000Y-30338665D01*
X16980000Y-30621335D01*
X17035147Y-30898574D01*
X17143320Y-31159727D01*
X17300363Y-31394759D01*
X17500241Y-31594637D01*
X17735273Y-31751680D01*
X17996426Y-31859853D01*
X18273665Y-31915000D01*
X18556335Y-31915000D01*
X18833574Y-31859853D01*
X19094727Y-31751680D01*
X19329759Y-31594637D01*
X19529637Y-31394759D01*
X19686680Y-31159727D01*
X19794853Y-30898574D01*
X19850000Y-30621335D01*
X19850000Y-30338665D01*
X19794853Y-30061426D01*
X19686680Y-29800273D01*
X19529637Y-29565241D01*
X19329759Y-29365363D01*
X19094727Y-29208320D01*
X18833574Y-29100147D01*
X18556335Y-29045000D01*
X18273665Y-29045000D01*
X17996426Y-29100147D01*
X17735273Y-29208320D01*
X17500241Y-29365363D01*
X17300363Y-29565241D01*
X17143320Y-29800273D01*
X17035147Y-30061426D01*
X16980000Y-30338665D01*
X12725000Y-30338665D01*
X12725000Y-18829872D01*
X16815000Y-18829872D01*
X16815000Y-19270128D01*
X16900890Y-19701925D01*
X17069369Y-20108669D01*
X17313962Y-20474729D01*
X17625271Y-20786038D01*
X17991331Y-21030631D01*
X18398075Y-21199110D01*
X18829872Y-21285000D01*
X19270128Y-21285000D01*
X19701925Y-21199110D01*
X20108669Y-21030631D01*
X20474729Y-20786038D01*
X20786038Y-20474729D01*
X21030631Y-20108669D01*
X21199110Y-19701925D01*
X21285000Y-19270128D01*
X21285000Y-18829872D01*
X21199110Y-18398075D01*
X21030631Y-17991331D01*
X20786038Y-17625271D01*
X20474729Y-17313962D01*
X20108669Y-17069369D01*
X19701925Y-16900890D01*
X19270128Y-16815000D01*
X18829872Y-16815000D01*
X18398075Y-16900890D01*
X17991331Y-17069369D01*
X17625271Y-17313962D01*
X17313962Y-17625271D01*
X17069369Y-17991331D01*
X16900890Y-18398075D01*
X16815000Y-18829872D01*
X12725000Y-18829872D01*
X12725000Y-12750000D01*
X125680000Y-12750000D01*
X125680001Y-125705000D01*
G04 #@! TA.AperFunction,Conductor*
D18*
G36*
X125680001Y-125705000D02*
G01*
X12725000Y-125705000D01*
X12725000Y-120429872D01*
X18085000Y-120429872D01*
X18085000Y-120870128D01*
X18170890Y-121301925D01*
X18339369Y-121708669D01*
X18583962Y-122074729D01*
X18895271Y-122386038D01*
X19261331Y-122630631D01*
X19668075Y-122799110D01*
X20099872Y-122885000D01*
X20540128Y-122885000D01*
X20971925Y-122799110D01*
X21378669Y-122630631D01*
X21744729Y-122386038D01*
X22056038Y-122074729D01*
X22300631Y-121708669D01*
X22469110Y-121301925D01*
X22555000Y-120870128D01*
X22555000Y-120429872D01*
X22469110Y-119998075D01*
X22300631Y-119591331D01*
X22056038Y-119225271D01*
X21744729Y-118913962D01*
X21378669Y-118669369D01*
X20971925Y-118500890D01*
X20540128Y-118415000D01*
X20099872Y-118415000D01*
X19668075Y-118500890D01*
X19261331Y-118669369D01*
X18895271Y-118913962D01*
X18583962Y-119225271D01*
X18339369Y-119591331D01*
X18170890Y-119998075D01*
X18085000Y-120429872D01*
X12725000Y-120429872D01*
X12725000Y-112610000D01*
X19466928Y-112610000D01*
X19479188Y-112734482D01*
X19515498Y-112854180D01*
X19574463Y-112964494D01*
X19653815Y-113061185D01*
X19750506Y-113140537D01*
X19860820Y-113199502D01*
X19980518Y-113235812D01*
X20105000Y-113248072D01*
X20669250Y-113245000D01*
X20828000Y-113086250D01*
X20828000Y-111887000D01*
X19628750Y-111887000D01*
X19470000Y-112045750D01*
X19466928Y-112610000D01*
X12725000Y-112610000D01*
X12725000Y-110910000D01*
X19466928Y-110910000D01*
X19470000Y-111474250D01*
X19628750Y-111633000D01*
X20828000Y-111633000D01*
X20828000Y-110433750D01*
X21082000Y-110433750D01*
X21082000Y-111633000D01*
X21102000Y-111633000D01*
X21102000Y-111887000D01*
X21082000Y-111887000D01*
X21082000Y-113086250D01*
X21240750Y-113245000D01*
X21805000Y-113248072D01*
X21929482Y-113235812D01*
X22049180Y-113199502D01*
X22159494Y-113140537D01*
X22256185Y-113061185D01*
X22335537Y-112964494D01*
X22394502Y-112854180D01*
X22416513Y-112781620D01*
X22548368Y-112913475D01*
X22791589Y-113075990D01*
X23061842Y-113187932D01*
X23348740Y-113245000D01*
X23641260Y-113245000D01*
X23928158Y-113187932D01*
X24198411Y-113075990D01*
X24441632Y-112913475D01*
X24648475Y-112706632D01*
X24765000Y-112532240D01*
X24881525Y-112706632D01*
X25088368Y-112913475D01*
X25331589Y-113075990D01*
X25601842Y-113187932D01*
X25888740Y-113245000D01*
X26181260Y-113245000D01*
X26468158Y-113187932D01*
X26738411Y-113075990D01*
X26981632Y-112913475D01*
X27188475Y-112706632D01*
X27305000Y-112532240D01*
X27421525Y-112706632D01*
X27628368Y-112913475D01*
X27871589Y-113075990D01*
X28141842Y-113187932D01*
X28428740Y-113245000D01*
X28721260Y-113245000D01*
X29008158Y-113187932D01*
X29278411Y-113075990D01*
X29521632Y-112913475D01*
X29728475Y-112706632D01*
X29890990Y-112463411D01*
X30002932Y-112193158D01*
X30060000Y-111906260D01*
X30060000Y-111613740D01*
X30002932Y-111326842D01*
X29890990Y-111056589D01*
X29728475Y-110813368D01*
X29521632Y-110606525D01*
X29278411Y-110444010D01*
X29008158Y-110332068D01*
X28721260Y-110275000D01*
X28428740Y-110275000D01*
X28141842Y-110332068D01*
X27871589Y-110444010D01*
X27628368Y-110606525D01*
X27421525Y-110813368D01*
X27305000Y-110987760D01*
X27188475Y-110813368D01*
X26981632Y-110606525D01*
X26738411Y-110444010D01*
X26468158Y-110332068D01*
X26181260Y-110275000D01*
X25888740Y-110275000D01*
X25601842Y-110332068D01*
X25331589Y-110444010D01*
X25088368Y-110606525D01*
X24881525Y-110813368D01*
X24765000Y-110987760D01*
X24648475Y-110813368D01*
X24441632Y-110606525D01*
X24198411Y-110444010D01*
X23928158Y-110332068D01*
X23641260Y-110275000D01*
X23348740Y-110275000D01*
X23061842Y-110332068D01*
X22791589Y-110444010D01*
X22548368Y-110606525D01*
X22416513Y-110738380D01*
X22394502Y-110665820D01*
X22335537Y-110555506D01*
X22256185Y-110458815D01*
X22159494Y-110379463D01*
X22049180Y-110320498D01*
X21929482Y-110284188D01*
X21805000Y-110271928D01*
X21240750Y-110275000D01*
X21082000Y-110433750D01*
X20828000Y-110433750D01*
X20669250Y-110275000D01*
X20105000Y-110271928D01*
X19980518Y-110284188D01*
X19860820Y-110320498D01*
X19750506Y-110379463D01*
X19653815Y-110458815D01*
X19574463Y-110555506D01*
X19515498Y-110665820D01*
X19479188Y-110785518D01*
X19466928Y-110910000D01*
X12725000Y-110910000D01*
X12725000Y-86213740D01*
X16930000Y-86213740D01*
X16930000Y-86506260D01*
X16987068Y-86793158D01*
X17099010Y-87063411D01*
X17261525Y-87306632D01*
X17468368Y-87513475D01*
X17711589Y-87675990D01*
X17981842Y-87787932D01*
X18268740Y-87845000D01*
X18561260Y-87845000D01*
X18848158Y-87787932D01*
X19118411Y-87675990D01*
X19361632Y-87513475D01*
X19568475Y-87306632D01*
X19685000Y-87132240D01*
X19801525Y-87306632D01*
X20008368Y-87513475D01*
X20251589Y-87675990D01*
X20521842Y-87787932D01*
X20808740Y-87845000D01*
X21101260Y-87845000D01*
X21388158Y-87787932D01*
X21658411Y-87675990D01*
X21901632Y-87513475D01*
X22108475Y-87306632D01*
X22225000Y-87132240D01*
X22341525Y-87306632D01*
X22548368Y-87513475D01*
X22791589Y-87675990D01*
X23061842Y-87787932D01*
X23348740Y-87845000D01*
X23641260Y-87845000D01*
X23861408Y-87801209D01*
X30355001Y-94294803D01*
X30355000Y-115890198D01*
X29333998Y-116911201D01*
X29305000Y-116934999D01*
X29281202Y-116963997D01*
X29281201Y-116963998D01*
X29210026Y-117050724D01*
X29139454Y-117182754D01*
X29121870Y-117240723D01*
X29095998Y-117326014D01*
X29085001Y-117437667D01*
X29081324Y-117475000D01*
X29085001Y-117512332D01*
X29085001Y-117972023D01*
X29001613Y-118016595D01*
X28867038Y-118127038D01*
X28756595Y-118261613D01*
X28674528Y-118415149D01*
X28623992Y-118581745D01*
X28606928Y-118754999D01*
X28606928Y-120005001D01*
X28623992Y-120178255D01*
X28674528Y-120344851D01*
X28756595Y-120498387D01*
X28867038Y-120632962D01*
X29001613Y-120743405D01*
X29155149Y-120825472D01*
X29321745Y-120876008D01*
X29494999Y-120893072D01*
X30195001Y-120893072D01*
X30368255Y-120876008D01*
X30534851Y-120825472D01*
X30688387Y-120743405D01*
X30822962Y-120632962D01*
X30933405Y-120498387D01*
X30935810Y-120493888D01*
X30967499Y-120532502D01*
X31155552Y-120686833D01*
X31370100Y-120801511D01*
X31602899Y-120872130D01*
X31845000Y-120895975D01*
X32087102Y-120872130D01*
X32319901Y-120801511D01*
X32534449Y-120686833D01*
X32722502Y-120532502D01*
X32845001Y-120383237D01*
X32967499Y-120532502D01*
X33155552Y-120686833D01*
X33370100Y-120801511D01*
X33602899Y-120872130D01*
X33845000Y-120895975D01*
X34087102Y-120872130D01*
X34319901Y-120801511D01*
X34534449Y-120686833D01*
X34722502Y-120532502D01*
X34876833Y-120344449D01*
X34986112Y-120140000D01*
X35522678Y-120140000D01*
X35560000Y-120143676D01*
X35597322Y-120140000D01*
X35597333Y-120140000D01*
X35708986Y-120129003D01*
X35852247Y-120085546D01*
X35984276Y-120014974D01*
X36100001Y-119920001D01*
X36123803Y-119890998D01*
X36706004Y-119308798D01*
X36735001Y-119285001D01*
X36829974Y-119169276D01*
X36900546Y-119037247D01*
X36944003Y-118893986D01*
X36955000Y-118782333D01*
X36955000Y-118782332D01*
X36958677Y-118745000D01*
X36955000Y-118707667D01*
X36955000Y-112610000D01*
X38516928Y-112610000D01*
X38529188Y-112734482D01*
X38565498Y-112854180D01*
X38624463Y-112964494D01*
X38703815Y-113061185D01*
X38800506Y-113140537D01*
X38910820Y-113199502D01*
X39030518Y-113235812D01*
X39155000Y-113248072D01*
X39719250Y-113245000D01*
X39878000Y-113086250D01*
X39878000Y-111887000D01*
X38678750Y-111887000D01*
X38520000Y-112045750D01*
X38516928Y-112610000D01*
X36955000Y-112610000D01*
X36955000Y-110910000D01*
X38516928Y-110910000D01*
X38520000Y-111474250D01*
X38678750Y-111633000D01*
X39878000Y-111633000D01*
X39878000Y-110433750D01*
X40132000Y-110433750D01*
X40132000Y-111633000D01*
X40152000Y-111633000D01*
X40152000Y-111887000D01*
X40132000Y-111887000D01*
X40132000Y-113086250D01*
X40290750Y-113245000D01*
X40855000Y-113248072D01*
X40979482Y-113235812D01*
X41099180Y-113199502D01*
X41209494Y-113140537D01*
X41306185Y-113061185D01*
X41385537Y-112964494D01*
X41444502Y-112854180D01*
X41466513Y-112781620D01*
X41598368Y-112913475D01*
X41841589Y-113075990D01*
X42111842Y-113187932D01*
X42398740Y-113245000D01*
X42691260Y-113245000D01*
X42978158Y-113187932D01*
X43248411Y-113075990D01*
X43491632Y-112913475D01*
X43698475Y-112706632D01*
X43815000Y-112532240D01*
X43931525Y-112706632D01*
X44138368Y-112913475D01*
X44381589Y-113075990D01*
X44651842Y-113187932D01*
X44938740Y-113245000D01*
X45231260Y-113245000D01*
X45518158Y-113187932D01*
X45788411Y-113075990D01*
X46031632Y-112913475D01*
X46238475Y-112706632D01*
X46355000Y-112532240D01*
X46471525Y-112706632D01*
X46678368Y-112913475D01*
X46921589Y-113075990D01*
X47191842Y-113187932D01*
X47478740Y-113245000D01*
X47771260Y-113245000D01*
X48058158Y-113187932D01*
X48328411Y-113075990D01*
X48571632Y-112913475D01*
X48778475Y-112706632D01*
X48940990Y-112463411D01*
X49052932Y-112193158D01*
X49110000Y-111906260D01*
X49110000Y-111613740D01*
X49052932Y-111326842D01*
X48940990Y-111056589D01*
X48778475Y-110813368D01*
X48571632Y-110606525D01*
X48328411Y-110444010D01*
X48058158Y-110332068D01*
X47771260Y-110275000D01*
X47478740Y-110275000D01*
X47191842Y-110332068D01*
X46921589Y-110444010D01*
X46678368Y-110606525D01*
X46471525Y-110813368D01*
X46355000Y-110987760D01*
X46238475Y-110813368D01*
X46031632Y-110606525D01*
X45788411Y-110444010D01*
X45518158Y-110332068D01*
X45231260Y-110275000D01*
X44938740Y-110275000D01*
X44651842Y-110332068D01*
X44381589Y-110444010D01*
X44138368Y-110606525D01*
X43931525Y-110813368D01*
X43815000Y-110987760D01*
X43698475Y-110813368D01*
X43491632Y-110606525D01*
X43248411Y-110444010D01*
X42978158Y-110332068D01*
X42691260Y-110275000D01*
X42398740Y-110275000D01*
X42111842Y-110332068D01*
X41841589Y-110444010D01*
X41598368Y-110606525D01*
X41466513Y-110738380D01*
X41444502Y-110665820D01*
X41385537Y-110555506D01*
X41306185Y-110458815D01*
X41209494Y-110379463D01*
X41099180Y-110320498D01*
X40979482Y-110284188D01*
X40855000Y-110271928D01*
X40290750Y-110275000D01*
X40132000Y-110433750D01*
X39878000Y-110433750D01*
X39719250Y-110275000D01*
X39155000Y-110271928D01*
X39030518Y-110284188D01*
X38910820Y-110320498D01*
X38800506Y-110379463D01*
X38703815Y-110458815D01*
X38624463Y-110555506D01*
X38565498Y-110665820D01*
X38529188Y-110785518D01*
X38516928Y-110910000D01*
X36955000Y-110910000D01*
X36955000Y-91477323D01*
X36958676Y-91440000D01*
X36955000Y-91402677D01*
X36955000Y-91402667D01*
X36944003Y-91291014D01*
X36900546Y-91147753D01*
X36873549Y-91097246D01*
X36829974Y-91015723D01*
X36758799Y-90928997D01*
X36735001Y-90899999D01*
X36706003Y-90876201D01*
X32603072Y-86773271D01*
X32603072Y-86213740D01*
X35980000Y-86213740D01*
X35980000Y-86506260D01*
X36037068Y-86793158D01*
X36149010Y-87063411D01*
X36311525Y-87306632D01*
X36518368Y-87513475D01*
X36761589Y-87675990D01*
X37031842Y-87787932D01*
X37318740Y-87845000D01*
X37611260Y-87845000D01*
X37898158Y-87787932D01*
X38168411Y-87675990D01*
X38411632Y-87513475D01*
X38618475Y-87306632D01*
X38735000Y-87132240D01*
X38851525Y-87306632D01*
X39058368Y-87513475D01*
X39301589Y-87675990D01*
X39571842Y-87787932D01*
X39858740Y-87845000D01*
X40151260Y-87845000D01*
X40438158Y-87787932D01*
X40708411Y-87675990D01*
X40951632Y-87513475D01*
X41158475Y-87306632D01*
X41275000Y-87132240D01*
X41391525Y-87306632D01*
X41598368Y-87513475D01*
X41785000Y-87638179D01*
X41785001Y-90767668D01*
X41781324Y-90805000D01*
X41785001Y-90842333D01*
X41792553Y-90919003D01*
X41795998Y-90953985D01*
X41839454Y-91097246D01*
X41910026Y-91229276D01*
X41960694Y-91291014D01*
X42005000Y-91345001D01*
X42033998Y-91368799D01*
X71756211Y-121091013D01*
X71780009Y-121120011D01*
X71809007Y-121143809D01*
X71895733Y-121214984D01*
X72027763Y-121285556D01*
X72171024Y-121329013D01*
X72282677Y-121340010D01*
X72282687Y-121340010D01*
X72320010Y-121343686D01*
X72357333Y-121340010D01*
X104617668Y-121340010D01*
X104654990Y-121343686D01*
X104692312Y-121340010D01*
X104692323Y-121340010D01*
X104803976Y-121329013D01*
X104947237Y-121285556D01*
X105079266Y-121214984D01*
X105194991Y-121120011D01*
X105218793Y-121091008D01*
X105424644Y-120885158D01*
X105504999Y-120893072D01*
X106205001Y-120893072D01*
X106378255Y-120876008D01*
X106544851Y-120825472D01*
X106698387Y-120743405D01*
X106832962Y-120632962D01*
X106943405Y-120498387D01*
X106945810Y-120493888D01*
X106977499Y-120532502D01*
X107165552Y-120686833D01*
X107380100Y-120801511D01*
X107612899Y-120872130D01*
X107855000Y-120895975D01*
X108097102Y-120872130D01*
X108329901Y-120801511D01*
X108544449Y-120686833D01*
X108732502Y-120532502D01*
X108855001Y-120383237D01*
X108977499Y-120532502D01*
X109165552Y-120686833D01*
X109380100Y-120801511D01*
X109612899Y-120872130D01*
X109855000Y-120895975D01*
X110097102Y-120872130D01*
X110329901Y-120801511D01*
X110544449Y-120686833D01*
X110732502Y-120532502D01*
X110816728Y-120429872D01*
X118415000Y-120429872D01*
X118415000Y-120870128D01*
X118500890Y-121301925D01*
X118669369Y-121708669D01*
X118913962Y-122074729D01*
X119225271Y-122386038D01*
X119591331Y-122630631D01*
X119998075Y-122799110D01*
X120429872Y-122885000D01*
X120870128Y-122885000D01*
X121301925Y-122799110D01*
X121708669Y-122630631D01*
X122074729Y-122386038D01*
X122386038Y-122074729D01*
X122630631Y-121708669D01*
X122799110Y-121301925D01*
X122885000Y-120870128D01*
X122885000Y-120429872D01*
X122799110Y-119998075D01*
X122630631Y-119591331D01*
X122386038Y-119225271D01*
X122074729Y-118913962D01*
X121708669Y-118669369D01*
X121301925Y-118500890D01*
X120870128Y-118415000D01*
X120429872Y-118415000D01*
X119998075Y-118500890D01*
X119591331Y-118669369D01*
X119225271Y-118913962D01*
X118913962Y-119225271D01*
X118669369Y-119591331D01*
X118500890Y-119998075D01*
X118415000Y-120429872D01*
X110816728Y-120429872D01*
X110886833Y-120344449D01*
X111001511Y-120129900D01*
X111072130Y-119897101D01*
X111090000Y-119715664D01*
X111090000Y-119044335D01*
X111072130Y-118862898D01*
X111001511Y-118630099D01*
X110886833Y-118415551D01*
X110732502Y-118227498D01*
X110615000Y-118131067D01*
X110615000Y-117512323D01*
X110618676Y-117475000D01*
X110615000Y-117437677D01*
X110615000Y-117437667D01*
X110604003Y-117326014D01*
X110560546Y-117182753D01*
X110489974Y-117050724D01*
X110395001Y-116934999D01*
X110366003Y-116911201D01*
X108513804Y-115059003D01*
X108490001Y-115029999D01*
X108374276Y-114935026D01*
X108242247Y-114864454D01*
X108098986Y-114820997D01*
X107987333Y-114810000D01*
X107987322Y-114810000D01*
X107950000Y-114806324D01*
X107912678Y-114810000D01*
X105730107Y-114810000D01*
X105882405Y-114657702D01*
X112216903Y-114657702D01*
X112288486Y-114901671D01*
X112543996Y-115022571D01*
X112818184Y-115091300D01*
X113100512Y-115105217D01*
X113380130Y-115063787D01*
X113646292Y-114968603D01*
X113771514Y-114901671D01*
X113843097Y-114657702D01*
X113030000Y-113844605D01*
X112216903Y-114657702D01*
X105882405Y-114657702D01*
X105928475Y-114611632D01*
X106090990Y-114368411D01*
X106202932Y-114098158D01*
X106260000Y-113811260D01*
X106260000Y-113735512D01*
X111589783Y-113735512D01*
X111631213Y-114015130D01*
X111726397Y-114281292D01*
X111793329Y-114406514D01*
X112037298Y-114478097D01*
X112850395Y-113665000D01*
X113209605Y-113665000D01*
X114022702Y-114478097D01*
X114266671Y-114406514D01*
X114387571Y-114151004D01*
X114456300Y-113876816D01*
X114470217Y-113594488D01*
X114459724Y-113523665D01*
X117310000Y-113523665D01*
X117310000Y-113806335D01*
X117365147Y-114083574D01*
X117473320Y-114344727D01*
X117630363Y-114579759D01*
X117830241Y-114779637D01*
X118065273Y-114936680D01*
X118326426Y-115044853D01*
X118603665Y-115100000D01*
X118886335Y-115100000D01*
X119163574Y-115044853D01*
X119424727Y-114936680D01*
X119659759Y-114779637D01*
X119859637Y-114579759D01*
X120016680Y-114344727D01*
X120124853Y-114083574D01*
X120180000Y-113806335D01*
X120180000Y-113523665D01*
X120124853Y-113246426D01*
X120016680Y-112985273D01*
X119859637Y-112750241D01*
X119659759Y-112550363D01*
X119424727Y-112393320D01*
X119163574Y-112285147D01*
X118886335Y-112230000D01*
X118603665Y-112230000D01*
X118326426Y-112285147D01*
X118065273Y-112393320D01*
X117830241Y-112550363D01*
X117630363Y-112750241D01*
X117473320Y-112985273D01*
X117365147Y-113246426D01*
X117310000Y-113523665D01*
X114459724Y-113523665D01*
X114428787Y-113314870D01*
X114333603Y-113048708D01*
X114266671Y-112923486D01*
X114022702Y-112851903D01*
X113209605Y-113665000D01*
X112850395Y-113665000D01*
X112037298Y-112851903D01*
X111793329Y-112923486D01*
X111672429Y-113178996D01*
X111603700Y-113453184D01*
X111589783Y-113735512D01*
X106260000Y-113735512D01*
X106260000Y-113518740D01*
X106202932Y-113231842D01*
X106090990Y-112961589D01*
X105928475Y-112718368D01*
X105882405Y-112672298D01*
X112216903Y-112672298D01*
X113030000Y-113485395D01*
X113843097Y-112672298D01*
X113771514Y-112428329D01*
X113516004Y-112307429D01*
X113241816Y-112238700D01*
X112959488Y-112224783D01*
X112679870Y-112266213D01*
X112413708Y-112361397D01*
X112288486Y-112428329D01*
X112216903Y-112672298D01*
X105882405Y-112672298D01*
X105721632Y-112511525D01*
X105547240Y-112395000D01*
X105721632Y-112278475D01*
X105928475Y-112071632D01*
X106090990Y-111828411D01*
X106202932Y-111558158D01*
X106260000Y-111271260D01*
X106260000Y-110978740D01*
X106202932Y-110691842D01*
X106090990Y-110421589D01*
X105928475Y-110178368D01*
X105721632Y-109971525D01*
X105539466Y-109849805D01*
X105656355Y-109780178D01*
X105872588Y-109585269D01*
X106046641Y-109351920D01*
X106171825Y-109089099D01*
X106216476Y-108941890D01*
X106095155Y-108712000D01*
X104902000Y-108712000D01*
X104902000Y-108732000D01*
X104648000Y-108732000D01*
X104648000Y-108712000D01*
X104628000Y-108712000D01*
X104628000Y-108458000D01*
X104648000Y-108458000D01*
X104648000Y-108438000D01*
X104902000Y-108438000D01*
X104902000Y-108458000D01*
X106095155Y-108458000D01*
X106216476Y-108228110D01*
X106171825Y-108080901D01*
X106046641Y-107818080D01*
X105872588Y-107584731D01*
X105656355Y-107389822D01*
X105539466Y-107320195D01*
X105721632Y-107198475D01*
X105928475Y-106991632D01*
X106090990Y-106748411D01*
X106202932Y-106478158D01*
X106260000Y-106191260D01*
X106260000Y-105903665D01*
X111595000Y-105903665D01*
X111595000Y-106186335D01*
X111650147Y-106463574D01*
X111758320Y-106724727D01*
X111915363Y-106959759D01*
X112115241Y-107159637D01*
X112350273Y-107316680D01*
X112611426Y-107424853D01*
X112888665Y-107480000D01*
X113171335Y-107480000D01*
X113448574Y-107424853D01*
X113709727Y-107316680D01*
X113944759Y-107159637D01*
X114144637Y-106959759D01*
X114301680Y-106724727D01*
X114409853Y-106463574D01*
X114465000Y-106186335D01*
X114465000Y-105903665D01*
X117310000Y-105903665D01*
X117310000Y-106186335D01*
X117365147Y-106463574D01*
X117473320Y-106724727D01*
X117630363Y-106959759D01*
X117830241Y-107159637D01*
X118065273Y-107316680D01*
X118326426Y-107424853D01*
X118603665Y-107480000D01*
X118886335Y-107480000D01*
X119163574Y-107424853D01*
X119424727Y-107316680D01*
X119659759Y-107159637D01*
X119859637Y-106959759D01*
X120016680Y-106724727D01*
X120124853Y-106463574D01*
X120180000Y-106186335D01*
X120180000Y-105903665D01*
X120124853Y-105626426D01*
X120016680Y-105365273D01*
X119859637Y-105130241D01*
X119659759Y-104930363D01*
X119424727Y-104773320D01*
X119163574Y-104665147D01*
X118886335Y-104610000D01*
X118603665Y-104610000D01*
X118326426Y-104665147D01*
X118065273Y-104773320D01*
X117830241Y-104930363D01*
X117630363Y-105130241D01*
X117473320Y-105365273D01*
X117365147Y-105626426D01*
X117310000Y-105903665D01*
X114465000Y-105903665D01*
X114409853Y-105626426D01*
X114301680Y-105365273D01*
X114144637Y-105130241D01*
X113944759Y-104930363D01*
X113709727Y-104773320D01*
X113448574Y-104665147D01*
X113171335Y-104610000D01*
X112888665Y-104610000D01*
X112611426Y-104665147D01*
X112350273Y-104773320D01*
X112115241Y-104930363D01*
X111915363Y-105130241D01*
X111758320Y-105365273D01*
X111650147Y-105626426D01*
X111595000Y-105903665D01*
X106260000Y-105903665D01*
X106260000Y-105898740D01*
X106202932Y-105611842D01*
X106090990Y-105341589D01*
X105928475Y-105098368D01*
X105721632Y-104891525D01*
X105547240Y-104775000D01*
X105721632Y-104658475D01*
X105928475Y-104451632D01*
X106090990Y-104208411D01*
X106202932Y-103938158D01*
X106260000Y-103651260D01*
X106260000Y-103358740D01*
X106202932Y-103071842D01*
X106090990Y-102801589D01*
X105928475Y-102558368D01*
X105796620Y-102426513D01*
X105869180Y-102404502D01*
X105979494Y-102345537D01*
X106076185Y-102266185D01*
X106155537Y-102169494D01*
X106214502Y-102059180D01*
X106250812Y-101939482D01*
X106263072Y-101815000D01*
X106263072Y-100115000D01*
X106250812Y-99990518D01*
X106214502Y-99870820D01*
X106155537Y-99760506D01*
X106076185Y-99663815D01*
X105979494Y-99584463D01*
X105869180Y-99525498D01*
X105749482Y-99489188D01*
X105625000Y-99476928D01*
X103925000Y-99476928D01*
X103800518Y-99489188D01*
X103680820Y-99525498D01*
X103570506Y-99584463D01*
X103473815Y-99663815D01*
X103394463Y-99760506D01*
X103335498Y-99870820D01*
X103299188Y-99990518D01*
X103286928Y-100115000D01*
X103286928Y-101815000D01*
X103299188Y-101939482D01*
X103335498Y-102059180D01*
X103394463Y-102169494D01*
X103473815Y-102266185D01*
X103570506Y-102345537D01*
X103680820Y-102404502D01*
X103753380Y-102426513D01*
X103621525Y-102558368D01*
X103459010Y-102801589D01*
X103347068Y-103071842D01*
X103290000Y-103358740D01*
X103290000Y-103651260D01*
X103347068Y-103938158D01*
X103459010Y-104208411D01*
X103621525Y-104451632D01*
X103828368Y-104658475D01*
X104002760Y-104775000D01*
X103828368Y-104891525D01*
X103621525Y-105098368D01*
X103459010Y-105341589D01*
X103347068Y-105611842D01*
X103290000Y-105898740D01*
X103290000Y-106191260D01*
X103347068Y-106478158D01*
X103459010Y-106748411D01*
X103621525Y-106991632D01*
X103828368Y-107198475D01*
X104010534Y-107320195D01*
X103893645Y-107389822D01*
X103677412Y-107584731D01*
X103503359Y-107818080D01*
X103378175Y-108080901D01*
X103333524Y-108228110D01*
X103454844Y-108457998D01*
X103290000Y-108457998D01*
X103290000Y-108565199D01*
X101090000Y-106365199D01*
X101090000Y-96834801D01*
X103290000Y-94634802D01*
X103290000Y-94761260D01*
X103347068Y-95048158D01*
X103459010Y-95318411D01*
X103621525Y-95561632D01*
X103828368Y-95768475D01*
X104071589Y-95930990D01*
X104341842Y-96042932D01*
X104628740Y-96100000D01*
X104921260Y-96100000D01*
X105208158Y-96042932D01*
X105478411Y-95930990D01*
X105721632Y-95768475D01*
X105928475Y-95561632D01*
X106090990Y-95318411D01*
X106202932Y-95048158D01*
X106219664Y-94964040D01*
X111638091Y-94964040D01*
X111732930Y-95228881D01*
X111877615Y-95470131D01*
X112066586Y-95678519D01*
X112292580Y-95846037D01*
X112546913Y-95966246D01*
X112680961Y-96006904D01*
X112903000Y-95884915D01*
X112903000Y-94742000D01*
X113157000Y-94742000D01*
X113157000Y-95884915D01*
X113379039Y-96006904D01*
X113513087Y-95966246D01*
X113767420Y-95846037D01*
X113993414Y-95678519D01*
X114182385Y-95470131D01*
X114327070Y-95228881D01*
X114421909Y-94964040D01*
X114300624Y-94742000D01*
X113157000Y-94742000D01*
X112903000Y-94742000D01*
X111759376Y-94742000D01*
X111638091Y-94964040D01*
X106219664Y-94964040D01*
X106260000Y-94761260D01*
X106260000Y-94468740D01*
X106219665Y-94265960D01*
X111638091Y-94265960D01*
X111759376Y-94488000D01*
X112903000Y-94488000D01*
X112903000Y-93345085D01*
X113157000Y-93345085D01*
X113157000Y-94488000D01*
X114300624Y-94488000D01*
X114308454Y-94473665D01*
X117310000Y-94473665D01*
X117310000Y-94756335D01*
X117365147Y-95033574D01*
X117473320Y-95294727D01*
X117630363Y-95529759D01*
X117830241Y-95729637D01*
X118065273Y-95886680D01*
X118326426Y-95994853D01*
X118603665Y-96050000D01*
X118886335Y-96050000D01*
X119163574Y-95994853D01*
X119424727Y-95886680D01*
X119659759Y-95729637D01*
X119859637Y-95529759D01*
X120016680Y-95294727D01*
X120124853Y-95033574D01*
X120180000Y-94756335D01*
X120180000Y-94473665D01*
X120124853Y-94196426D01*
X120016680Y-93935273D01*
X119859637Y-93700241D01*
X119659759Y-93500363D01*
X119424727Y-93343320D01*
X119163574Y-93235147D01*
X118886335Y-93180000D01*
X118603665Y-93180000D01*
X118326426Y-93235147D01*
X118065273Y-93343320D01*
X117830241Y-93500363D01*
X117630363Y-93700241D01*
X117473320Y-93935273D01*
X117365147Y-94196426D01*
X117310000Y-94473665D01*
X114308454Y-94473665D01*
X114421909Y-94265960D01*
X114327070Y-94001119D01*
X114182385Y-93759869D01*
X113993414Y-93551481D01*
X113767420Y-93383963D01*
X113513087Y-93263754D01*
X113379039Y-93223096D01*
X113157000Y-93345085D01*
X112903000Y-93345085D01*
X112680961Y-93223096D01*
X112546913Y-93263754D01*
X112292580Y-93383963D01*
X112066586Y-93551481D01*
X111877615Y-93759869D01*
X111732930Y-94001119D01*
X111638091Y-94265960D01*
X106219665Y-94265960D01*
X106202932Y-94181842D01*
X106090990Y-93911589D01*
X105928475Y-93668368D01*
X105721632Y-93461525D01*
X105547240Y-93345000D01*
X105721632Y-93228475D01*
X105928475Y-93021632D01*
X106090990Y-92778411D01*
X106202932Y-92508158D01*
X106260000Y-92221260D01*
X106260000Y-91928740D01*
X106202932Y-91641842D01*
X106090990Y-91371589D01*
X105928475Y-91128368D01*
X105721632Y-90921525D01*
X105539466Y-90799805D01*
X105656355Y-90730178D01*
X105872588Y-90535269D01*
X106046641Y-90301920D01*
X106171825Y-90039099D01*
X106216476Y-89891890D01*
X106095155Y-89662000D01*
X104902000Y-89662000D01*
X104902000Y-89682000D01*
X104648000Y-89682000D01*
X104648000Y-89662000D01*
X103454845Y-89662000D01*
X103333524Y-89891890D01*
X103378175Y-90039099D01*
X103503359Y-90301920D01*
X103677412Y-90535269D01*
X103893645Y-90730178D01*
X104010534Y-90799805D01*
X103828368Y-90921525D01*
X103621525Y-91128368D01*
X103496822Y-91315000D01*
X96199802Y-91315000D01*
X88828808Y-83944007D01*
X88828799Y-83943996D01*
X88828795Y-83943992D01*
X88805001Y-83914999D01*
X88776008Y-83891205D01*
X86485000Y-81600199D01*
X86485000Y-81065000D01*
X103286928Y-81065000D01*
X103286928Y-82765000D01*
X103299188Y-82889482D01*
X103335498Y-83009180D01*
X103394463Y-83119494D01*
X103473815Y-83216185D01*
X103570506Y-83295537D01*
X103680820Y-83354502D01*
X103753380Y-83376513D01*
X103621525Y-83508368D01*
X103459010Y-83751589D01*
X103347068Y-84021842D01*
X103290000Y-84308740D01*
X103290000Y-84601260D01*
X103347068Y-84888158D01*
X103459010Y-85158411D01*
X103621525Y-85401632D01*
X103828368Y-85608475D01*
X104002760Y-85725000D01*
X103828368Y-85841525D01*
X103621525Y-86048368D01*
X103459010Y-86291589D01*
X103347068Y-86561842D01*
X103290000Y-86848740D01*
X103290000Y-87141260D01*
X103347068Y-87428158D01*
X103459010Y-87698411D01*
X103621525Y-87941632D01*
X103828368Y-88148475D01*
X104010534Y-88270195D01*
X103893645Y-88339822D01*
X103677412Y-88534731D01*
X103503359Y-88768080D01*
X103378175Y-89030901D01*
X103333524Y-89178110D01*
X103454845Y-89408000D01*
X104648000Y-89408000D01*
X104648000Y-89388000D01*
X104902000Y-89388000D01*
X104902000Y-89408000D01*
X106095155Y-89408000D01*
X106216476Y-89178110D01*
X106171825Y-89030901D01*
X106046641Y-88768080D01*
X105872588Y-88534731D01*
X105656355Y-88339822D01*
X105539466Y-88270195D01*
X105721632Y-88148475D01*
X105928475Y-87941632D01*
X106090990Y-87698411D01*
X106202932Y-87428158D01*
X106260000Y-87141260D01*
X106260000Y-86853665D01*
X111595000Y-86853665D01*
X111595000Y-87136335D01*
X111650147Y-87413574D01*
X111758320Y-87674727D01*
X111915363Y-87909759D01*
X112115241Y-88109637D01*
X112350273Y-88266680D01*
X112611426Y-88374853D01*
X112888665Y-88430000D01*
X113171335Y-88430000D01*
X113448574Y-88374853D01*
X113709727Y-88266680D01*
X113944759Y-88109637D01*
X114144637Y-87909759D01*
X114301680Y-87674727D01*
X114409853Y-87413574D01*
X114465000Y-87136335D01*
X114465000Y-86853665D01*
X117310000Y-86853665D01*
X117310000Y-87136335D01*
X117365147Y-87413574D01*
X117473320Y-87674727D01*
X117630363Y-87909759D01*
X117830241Y-88109637D01*
X118065273Y-88266680D01*
X118326426Y-88374853D01*
X118603665Y-88430000D01*
X118886335Y-88430000D01*
X119163574Y-88374853D01*
X119424727Y-88266680D01*
X119659759Y-88109637D01*
X119859637Y-87909759D01*
X120016680Y-87674727D01*
X120124853Y-87413574D01*
X120180000Y-87136335D01*
X120180000Y-86853665D01*
X120124853Y-86576426D01*
X120016680Y-86315273D01*
X119859637Y-86080241D01*
X119659759Y-85880363D01*
X119424727Y-85723320D01*
X119163574Y-85615147D01*
X118886335Y-85560000D01*
X118603665Y-85560000D01*
X118326426Y-85615147D01*
X118065273Y-85723320D01*
X117830241Y-85880363D01*
X117630363Y-86080241D01*
X117473320Y-86315273D01*
X117365147Y-86576426D01*
X117310000Y-86853665D01*
X114465000Y-86853665D01*
X114409853Y-86576426D01*
X114301680Y-86315273D01*
X114144637Y-86080241D01*
X113944759Y-85880363D01*
X113709727Y-85723320D01*
X113448574Y-85615147D01*
X113171335Y-85560000D01*
X112888665Y-85560000D01*
X112611426Y-85615147D01*
X112350273Y-85723320D01*
X112115241Y-85880363D01*
X111915363Y-86080241D01*
X111758320Y-86315273D01*
X111650147Y-86576426D01*
X111595000Y-86853665D01*
X106260000Y-86853665D01*
X106260000Y-86848740D01*
X106202932Y-86561842D01*
X106090990Y-86291589D01*
X105928475Y-86048368D01*
X105721632Y-85841525D01*
X105547240Y-85725000D01*
X105721632Y-85608475D01*
X105928475Y-85401632D01*
X106090990Y-85158411D01*
X106202932Y-84888158D01*
X106260000Y-84601260D01*
X106260000Y-84308740D01*
X106202932Y-84021842D01*
X106090990Y-83751589D01*
X105928475Y-83508368D01*
X105796620Y-83376513D01*
X105869180Y-83354502D01*
X105979494Y-83295537D01*
X106076185Y-83216185D01*
X106155537Y-83119494D01*
X106214502Y-83009180D01*
X106250812Y-82889482D01*
X106263072Y-82765000D01*
X106263072Y-81065000D01*
X106250812Y-80940518D01*
X106214502Y-80820820D01*
X106155537Y-80710506D01*
X106076185Y-80613815D01*
X105979494Y-80534463D01*
X105869180Y-80475498D01*
X105749482Y-80439188D01*
X105625000Y-80426928D01*
X103925000Y-80426928D01*
X103800518Y-80439188D01*
X103680820Y-80475498D01*
X103570506Y-80534463D01*
X103473815Y-80613815D01*
X103394463Y-80710506D01*
X103335498Y-80820820D01*
X103299188Y-80940518D01*
X103286928Y-81065000D01*
X86485000Y-81065000D01*
X86485000Y-44129801D01*
X88735000Y-41879802D01*
X88735000Y-42051335D01*
X88790147Y-42328574D01*
X88898320Y-42589727D01*
X89055363Y-42824759D01*
X89255241Y-43024637D01*
X89487759Y-43180000D01*
X89255241Y-43335363D01*
X89055363Y-43535241D01*
X88898320Y-43770273D01*
X88790147Y-44031426D01*
X88735000Y-44308665D01*
X88735000Y-44591335D01*
X88790147Y-44868574D01*
X88898320Y-45129727D01*
X89055363Y-45364759D01*
X89255241Y-45564637D01*
X89487759Y-45720000D01*
X89255241Y-45875363D01*
X89055363Y-46075241D01*
X88898320Y-46310273D01*
X88790147Y-46571426D01*
X88735000Y-46848665D01*
X88735000Y-47131335D01*
X88790147Y-47408574D01*
X88898320Y-47669727D01*
X89055363Y-47904759D01*
X89255241Y-48104637D01*
X89487759Y-48260000D01*
X89255241Y-48415363D01*
X89055363Y-48615241D01*
X88898320Y-48850273D01*
X88790147Y-49111426D01*
X88735000Y-49388665D01*
X88735000Y-49671335D01*
X88790147Y-49948574D01*
X88898320Y-50209727D01*
X89055363Y-50444759D01*
X89255241Y-50644637D01*
X89487759Y-50800000D01*
X89255241Y-50955363D01*
X89055363Y-51155241D01*
X88898320Y-51390273D01*
X88790147Y-51651426D01*
X88735000Y-51928665D01*
X88735000Y-52211335D01*
X88790147Y-52488574D01*
X88898320Y-52749727D01*
X89055363Y-52984759D01*
X89255241Y-53184637D01*
X89487759Y-53340000D01*
X89255241Y-53495363D01*
X89055363Y-53695241D01*
X88898320Y-53930273D01*
X88790147Y-54191426D01*
X88735000Y-54468665D01*
X88735000Y-54751335D01*
X88790147Y-55028574D01*
X88898320Y-55289727D01*
X89055363Y-55524759D01*
X89255241Y-55724637D01*
X89487759Y-55880000D01*
X89255241Y-56035363D01*
X89055363Y-56235241D01*
X88898320Y-56470273D01*
X88790147Y-56731426D01*
X88735000Y-57008665D01*
X88735000Y-57291335D01*
X88790147Y-57568574D01*
X88898320Y-57829727D01*
X89055363Y-58064759D01*
X89255241Y-58264637D01*
X89487759Y-58420000D01*
X89255241Y-58575363D01*
X89055363Y-58775241D01*
X88898320Y-59010273D01*
X88790147Y-59271426D01*
X88735000Y-59548665D01*
X88735000Y-59831335D01*
X88790147Y-60108574D01*
X88898320Y-60369727D01*
X89055363Y-60604759D01*
X89255241Y-60804637D01*
X89487759Y-60960000D01*
X89255241Y-61115363D01*
X89055363Y-61315241D01*
X88898320Y-61550273D01*
X88790147Y-61811426D01*
X88735000Y-62088665D01*
X88735000Y-62371335D01*
X88790147Y-62648574D01*
X88898320Y-62909727D01*
X89055363Y-63144759D01*
X89255241Y-63344637D01*
X89487759Y-63500000D01*
X89255241Y-63655363D01*
X89055363Y-63855241D01*
X88898320Y-64090273D01*
X88790147Y-64351426D01*
X88735000Y-64628665D01*
X88735000Y-64911335D01*
X88790147Y-65188574D01*
X88898320Y-65449727D01*
X89055363Y-65684759D01*
X89255241Y-65884637D01*
X89487759Y-66040000D01*
X89255241Y-66195363D01*
X89055363Y-66395241D01*
X88898320Y-66630273D01*
X88790147Y-66891426D01*
X88735000Y-67168665D01*
X88735000Y-67451335D01*
X88790147Y-67728574D01*
X88898320Y-67989727D01*
X89055363Y-68224759D01*
X89255241Y-68424637D01*
X89490273Y-68581680D01*
X89751426Y-68689853D01*
X90028665Y-68745000D01*
X90311335Y-68745000D01*
X90588574Y-68689853D01*
X90849727Y-68581680D01*
X91084759Y-68424637D01*
X91284637Y-68224759D01*
X91441680Y-67989727D01*
X91549853Y-67728574D01*
X91605000Y-67451335D01*
X91605000Y-67168665D01*
X91549853Y-66891426D01*
X91441680Y-66630273D01*
X91284637Y-66395241D01*
X91084759Y-66195363D01*
X90852241Y-66040000D01*
X91084759Y-65884637D01*
X91284637Y-65684759D01*
X91441680Y-65449727D01*
X91549853Y-65188574D01*
X91605000Y-64911335D01*
X91605000Y-64628665D01*
X91549853Y-64351426D01*
X91441680Y-64090273D01*
X91284637Y-63855241D01*
X91084759Y-63655363D01*
X90852241Y-63500000D01*
X91084759Y-63344637D01*
X91284637Y-63144759D01*
X91441680Y-62909727D01*
X91549853Y-62648574D01*
X91605000Y-62371335D01*
X91605000Y-62088665D01*
X91549853Y-61811426D01*
X91441680Y-61550273D01*
X91284637Y-61315241D01*
X91084759Y-61115363D01*
X90852241Y-60960000D01*
X91084759Y-60804637D01*
X91284637Y-60604759D01*
X91441680Y-60369727D01*
X91549853Y-60108574D01*
X91605000Y-59831335D01*
X91605000Y-59548665D01*
X91549853Y-59271426D01*
X91441680Y-59010273D01*
X91284637Y-58775241D01*
X91144396Y-58635000D01*
X105826928Y-58635000D01*
X105839188Y-58759482D01*
X105875498Y-58879180D01*
X105934463Y-58989494D01*
X106013815Y-59086185D01*
X106110506Y-59165537D01*
X106220820Y-59224502D01*
X106293380Y-59246513D01*
X106161525Y-59378368D01*
X105999010Y-59621589D01*
X105887068Y-59891842D01*
X105830000Y-60178740D01*
X105830000Y-60471260D01*
X105887068Y-60758158D01*
X105999010Y-61028411D01*
X106161525Y-61271632D01*
X106368368Y-61478475D01*
X106611589Y-61640990D01*
X106881842Y-61752932D01*
X107168740Y-61810000D01*
X107461260Y-61810000D01*
X107748158Y-61752932D01*
X108018411Y-61640990D01*
X108261632Y-61478475D01*
X108468475Y-61271632D01*
X108630990Y-61028411D01*
X108742932Y-60758158D01*
X108800000Y-60471260D01*
X108800000Y-60178740D01*
X108742932Y-59891842D01*
X108630990Y-59621589D01*
X108468475Y-59378368D01*
X108336620Y-59246513D01*
X108409180Y-59224502D01*
X108519494Y-59165537D01*
X108616185Y-59086185D01*
X108695537Y-58989494D01*
X108754502Y-58879180D01*
X108790812Y-58759482D01*
X108803072Y-58635000D01*
X108800000Y-58070750D01*
X108641250Y-57912000D01*
X107442000Y-57912000D01*
X107442000Y-57932000D01*
X107188000Y-57932000D01*
X107188000Y-57912000D01*
X105988750Y-57912000D01*
X105830000Y-58070750D01*
X105826928Y-58635000D01*
X91144396Y-58635000D01*
X91084759Y-58575363D01*
X90852241Y-58420000D01*
X91084759Y-58264637D01*
X91284637Y-58064759D01*
X91441680Y-57829727D01*
X91549853Y-57568574D01*
X91605000Y-57291335D01*
X91605000Y-57008665D01*
X91590347Y-56935000D01*
X105826928Y-56935000D01*
X105830000Y-57499250D01*
X105988750Y-57658000D01*
X107188000Y-57658000D01*
X107188000Y-56458750D01*
X107442000Y-56458750D01*
X107442000Y-57658000D01*
X108641250Y-57658000D01*
X108800000Y-57499250D01*
X108803072Y-56935000D01*
X108790812Y-56810518D01*
X108754502Y-56690820D01*
X108695537Y-56580506D01*
X108616185Y-56483815D01*
X108519494Y-56404463D01*
X108409180Y-56345498D01*
X108289482Y-56309188D01*
X108165000Y-56296928D01*
X107600750Y-56300000D01*
X107442000Y-56458750D01*
X107188000Y-56458750D01*
X107029250Y-56300000D01*
X106465000Y-56296928D01*
X106340518Y-56309188D01*
X106220820Y-56345498D01*
X106110506Y-56404463D01*
X106013815Y-56483815D01*
X105934463Y-56580506D01*
X105875498Y-56690820D01*
X105839188Y-56810518D01*
X105826928Y-56935000D01*
X91590347Y-56935000D01*
X91549853Y-56731426D01*
X91441680Y-56470273D01*
X91284637Y-56235241D01*
X91084759Y-56035363D01*
X90852241Y-55880000D01*
X91084759Y-55724637D01*
X91284637Y-55524759D01*
X91441680Y-55289727D01*
X91549853Y-55028574D01*
X91605000Y-54751335D01*
X91605000Y-54468665D01*
X91549853Y-54191426D01*
X91441680Y-53930273D01*
X91284637Y-53695241D01*
X91084759Y-53495363D01*
X90852241Y-53340000D01*
X91084759Y-53184637D01*
X91284637Y-52984759D01*
X91441680Y-52749727D01*
X91549853Y-52488574D01*
X91605000Y-52211335D01*
X91605000Y-51928665D01*
X91549853Y-51651426D01*
X91441680Y-51390273D01*
X91284637Y-51155241D01*
X91084759Y-50955363D01*
X90852241Y-50800000D01*
X91084759Y-50644637D01*
X91284637Y-50444759D01*
X91441680Y-50209727D01*
X91549853Y-49948574D01*
X91605000Y-49671335D01*
X91605000Y-49388665D01*
X91549853Y-49111426D01*
X91441680Y-48850273D01*
X91284637Y-48615241D01*
X91084759Y-48415363D01*
X90852241Y-48260000D01*
X91084759Y-48104637D01*
X91284637Y-47904759D01*
X91441680Y-47669727D01*
X91549853Y-47408574D01*
X91605000Y-47131335D01*
X91605000Y-46848665D01*
X91549853Y-46571426D01*
X91441680Y-46310273D01*
X91284637Y-46075241D01*
X91084759Y-45875363D01*
X90852241Y-45720000D01*
X91084759Y-45564637D01*
X91284637Y-45364759D01*
X91441680Y-45129727D01*
X91549853Y-44868574D01*
X91605000Y-44591335D01*
X91605000Y-44308665D01*
X91549853Y-44031426D01*
X91441680Y-43770273D01*
X91284637Y-43535241D01*
X91084759Y-43335363D01*
X90852241Y-43180000D01*
X91084759Y-43024637D01*
X91284637Y-42824759D01*
X91441680Y-42589727D01*
X91549853Y-42328574D01*
X91605000Y-42051335D01*
X91605000Y-41768665D01*
X91549853Y-41491426D01*
X91441680Y-41230273D01*
X91284637Y-40995241D01*
X91084759Y-40795363D01*
X90852241Y-40640000D01*
X91084759Y-40484637D01*
X91284637Y-40284759D01*
X91441680Y-40049727D01*
X91549853Y-39788574D01*
X91605000Y-39511335D01*
X91605000Y-39228665D01*
X91549853Y-38951426D01*
X91441680Y-38690273D01*
X91284637Y-38455241D01*
X91084759Y-38255363D01*
X90852241Y-38100000D01*
X91084759Y-37944637D01*
X91284637Y-37744759D01*
X91441680Y-37509727D01*
X91549853Y-37248574D01*
X91605000Y-36971335D01*
X91605000Y-36688665D01*
X91549853Y-36411426D01*
X91441680Y-36150273D01*
X91284637Y-35915241D01*
X91084759Y-35715363D01*
X90849727Y-35558320D01*
X90839135Y-35553933D01*
X91025131Y-35442385D01*
X91233519Y-35253414D01*
X91401037Y-35027420D01*
X91521246Y-34773087D01*
X91561904Y-34639039D01*
X91439915Y-34417000D01*
X90297000Y-34417000D01*
X90297000Y-34437000D01*
X90043000Y-34437000D01*
X90043000Y-34417000D01*
X88900085Y-34417000D01*
X88778096Y-34639039D01*
X88818754Y-34773087D01*
X88938963Y-35027420D01*
X89106481Y-35253414D01*
X89314869Y-35442385D01*
X89500865Y-35553933D01*
X89490273Y-35558320D01*
X89255241Y-35715363D01*
X89055363Y-35915241D01*
X88898320Y-36150273D01*
X88790147Y-36411426D01*
X88735000Y-36688665D01*
X88735000Y-36971335D01*
X88790147Y-37248574D01*
X88898320Y-37509727D01*
X89055363Y-37744759D01*
X89255241Y-37944637D01*
X89487759Y-38100000D01*
X89255241Y-38255363D01*
X89055363Y-38455241D01*
X88898320Y-38690273D01*
X88790147Y-38951426D01*
X88735000Y-39228665D01*
X88735000Y-39511335D01*
X88771312Y-39693886D01*
X85214003Y-43251196D01*
X85184999Y-43274999D01*
X85135460Y-43335363D01*
X85090026Y-43390724D01*
X85019455Y-43522753D01*
X85019454Y-43522754D01*
X84975997Y-43666015D01*
X84965000Y-43777668D01*
X84965000Y-43777678D01*
X84961324Y-43815000D01*
X84965000Y-43852322D01*
X84965001Y-81877667D01*
X84961324Y-81915000D01*
X84975998Y-82063985D01*
X85019454Y-82207246D01*
X85090026Y-82339276D01*
X85161201Y-82426002D01*
X85185000Y-82455001D01*
X85213998Y-82478799D01*
X86430198Y-83695000D01*
X76514802Y-83695000D01*
X58983804Y-66164003D01*
X58960001Y-66134999D01*
X58844276Y-66040026D01*
X58712247Y-65969454D01*
X58568986Y-65925997D01*
X58457333Y-65915000D01*
X58457322Y-65915000D01*
X58420000Y-65911324D01*
X58382678Y-65915000D01*
X50173178Y-65915000D01*
X50048475Y-65728368D01*
X49841632Y-65521525D01*
X49598411Y-65359010D01*
X49328158Y-65247068D01*
X49041260Y-65190000D01*
X48748740Y-65190000D01*
X48461842Y-65247068D01*
X48191589Y-65359010D01*
X47948368Y-65521525D01*
X47741525Y-65728368D01*
X47625000Y-65902760D01*
X47508475Y-65728368D01*
X47301632Y-65521525D01*
X47058411Y-65359010D01*
X46788158Y-65247068D01*
X46501260Y-65190000D01*
X46208740Y-65190000D01*
X45921842Y-65247068D01*
X45651589Y-65359010D01*
X45408368Y-65521525D01*
X45201525Y-65728368D01*
X45085000Y-65902760D01*
X44968475Y-65728368D01*
X44761632Y-65521525D01*
X44518411Y-65359010D01*
X44248158Y-65247068D01*
X43961260Y-65190000D01*
X43668740Y-65190000D01*
X43381842Y-65247068D01*
X43111589Y-65359010D01*
X42868368Y-65521525D01*
X42736513Y-65653380D01*
X42714502Y-65580820D01*
X42655537Y-65470506D01*
X42576185Y-65373815D01*
X42479494Y-65294463D01*
X42369180Y-65235498D01*
X42249482Y-65199188D01*
X42125000Y-65186928D01*
X41560750Y-65190000D01*
X41402000Y-65348750D01*
X41402000Y-66548000D01*
X41422000Y-66548000D01*
X41422000Y-66802000D01*
X41402000Y-66802000D01*
X41402000Y-68001250D01*
X41560750Y-68160000D01*
X42125000Y-68163072D01*
X42249482Y-68150812D01*
X42369180Y-68114502D01*
X42479494Y-68055537D01*
X42576185Y-67976185D01*
X42655537Y-67879494D01*
X42714502Y-67769180D01*
X42736513Y-67696620D01*
X42868368Y-67828475D01*
X43111589Y-67990990D01*
X43381842Y-68102932D01*
X43668740Y-68160000D01*
X43961260Y-68160000D01*
X44248158Y-68102932D01*
X44518411Y-67990990D01*
X44761632Y-67828475D01*
X44968475Y-67621632D01*
X45085000Y-67447240D01*
X45201525Y-67621632D01*
X45408368Y-67828475D01*
X45651589Y-67990990D01*
X45921842Y-68102932D01*
X46208740Y-68160000D01*
X46501260Y-68160000D01*
X46788158Y-68102932D01*
X47058411Y-67990990D01*
X47301632Y-67828475D01*
X47508475Y-67621632D01*
X47625000Y-67447240D01*
X47741525Y-67621632D01*
X47948368Y-67828475D01*
X48191589Y-67990990D01*
X48461842Y-68102932D01*
X48748740Y-68160000D01*
X49041260Y-68160000D01*
X49328158Y-68102932D01*
X49598411Y-67990990D01*
X49841632Y-67828475D01*
X50048475Y-67621632D01*
X50173178Y-67435000D01*
X58105199Y-67435000D01*
X75636200Y-84966002D01*
X75659999Y-84995001D01*
X75688997Y-85018799D01*
X75775723Y-85089974D01*
X75898324Y-85155506D01*
X75907753Y-85160546D01*
X76051014Y-85204003D01*
X76162667Y-85215000D01*
X76162676Y-85215000D01*
X76199999Y-85218676D01*
X76237322Y-85215000D01*
X87950199Y-85215000D01*
X95321201Y-92586003D01*
X95344999Y-92615001D01*
X95460724Y-92709974D01*
X95592753Y-92780546D01*
X95736014Y-92824003D01*
X95847667Y-92835000D01*
X95847676Y-92835000D01*
X95884999Y-92838676D01*
X95922322Y-92835000D01*
X102940198Y-92835000D01*
X99819003Y-95956196D01*
X99789999Y-95979999D01*
X99738352Y-96042932D01*
X99695026Y-96095724D01*
X99624455Y-96227753D01*
X99624454Y-96227754D01*
X99580997Y-96371015D01*
X99570000Y-96482668D01*
X99570000Y-96482678D01*
X99566324Y-96520000D01*
X99570000Y-96557322D01*
X99570001Y-106642668D01*
X99566324Y-106680000D01*
X99580998Y-106828985D01*
X99624454Y-106972246D01*
X99695026Y-107104276D01*
X99766201Y-107191002D01*
X99790000Y-107220001D01*
X99818998Y-107243799D01*
X103333790Y-110758592D01*
X103290000Y-110978740D01*
X103290000Y-111271260D01*
X103347068Y-111558158D01*
X103459010Y-111828411D01*
X103621525Y-112071632D01*
X103828368Y-112278475D01*
X104002760Y-112395000D01*
X103828368Y-112511525D01*
X103621525Y-112718368D01*
X103459010Y-112961589D01*
X103347068Y-113231842D01*
X103290000Y-113518740D01*
X103290000Y-113811260D01*
X103347068Y-114098158D01*
X103459010Y-114368411D01*
X103621525Y-114611632D01*
X103819893Y-114810000D01*
X79689802Y-114810000D01*
X51653072Y-86773271D01*
X51653072Y-85510000D01*
X51640812Y-85385518D01*
X51604502Y-85265820D01*
X51545537Y-85155506D01*
X51466185Y-85058815D01*
X51369494Y-84979463D01*
X51259180Y-84920498D01*
X51139482Y-84884188D01*
X51015000Y-84871928D01*
X49315000Y-84871928D01*
X49190518Y-84884188D01*
X49070820Y-84920498D01*
X48960506Y-84979463D01*
X48863815Y-85058815D01*
X48784463Y-85155506D01*
X48725498Y-85265820D01*
X48703487Y-85338380D01*
X48571632Y-85206525D01*
X48328411Y-85044010D01*
X48058158Y-84932068D01*
X47771260Y-84875000D01*
X47478740Y-84875000D01*
X47191842Y-84932068D01*
X46921589Y-85044010D01*
X46678368Y-85206525D01*
X46471525Y-85413368D01*
X46355000Y-85587760D01*
X46238475Y-85413368D01*
X46031632Y-85206525D01*
X45788411Y-85044010D01*
X45518158Y-84932068D01*
X45231260Y-84875000D01*
X44938740Y-84875000D01*
X44651842Y-84932068D01*
X44381589Y-85044010D01*
X44138368Y-85206525D01*
X43931525Y-85413368D01*
X43815000Y-85587760D01*
X43698475Y-85413368D01*
X43491632Y-85206525D01*
X43248411Y-85044010D01*
X42978158Y-84932068D01*
X42691260Y-84875000D01*
X42398740Y-84875000D01*
X42111842Y-84932068D01*
X41841589Y-85044010D01*
X41598368Y-85206525D01*
X41391525Y-85413368D01*
X41275000Y-85587760D01*
X41158475Y-85413368D01*
X40951632Y-85206525D01*
X40708411Y-85044010D01*
X40438158Y-84932068D01*
X40151260Y-84875000D01*
X39858740Y-84875000D01*
X39571842Y-84932068D01*
X39301589Y-85044010D01*
X39058368Y-85206525D01*
X38851525Y-85413368D01*
X38735000Y-85587760D01*
X38618475Y-85413368D01*
X38411632Y-85206525D01*
X38168411Y-85044010D01*
X37898158Y-84932068D01*
X37611260Y-84875000D01*
X37318740Y-84875000D01*
X37031842Y-84932068D01*
X36761589Y-85044010D01*
X36518368Y-85206525D01*
X36311525Y-85413368D01*
X36149010Y-85656589D01*
X36037068Y-85926842D01*
X35980000Y-86213740D01*
X32603072Y-86213740D01*
X32603072Y-85510000D01*
X32590812Y-85385518D01*
X32554502Y-85265820D01*
X32495537Y-85155506D01*
X32416185Y-85058815D01*
X32319494Y-84979463D01*
X32209180Y-84920498D01*
X32089482Y-84884188D01*
X31965000Y-84871928D01*
X30265000Y-84871928D01*
X30140518Y-84884188D01*
X30020820Y-84920498D01*
X29910506Y-84979463D01*
X29813815Y-85058815D01*
X29734463Y-85155506D01*
X29675498Y-85265820D01*
X29653487Y-85338380D01*
X29521632Y-85206525D01*
X29278411Y-85044010D01*
X29008158Y-84932068D01*
X28721260Y-84875000D01*
X28428740Y-84875000D01*
X28141842Y-84932068D01*
X27871589Y-85044010D01*
X27628368Y-85206525D01*
X27421525Y-85413368D01*
X27305000Y-85587760D01*
X27188475Y-85413368D01*
X26981632Y-85206525D01*
X26738411Y-85044010D01*
X26468158Y-84932068D01*
X26181260Y-84875000D01*
X25888740Y-84875000D01*
X25601842Y-84932068D01*
X25331589Y-85044010D01*
X25088368Y-85206525D01*
X24881525Y-85413368D01*
X24765000Y-85587760D01*
X24648475Y-85413368D01*
X24441632Y-85206525D01*
X24198411Y-85044010D01*
X23928158Y-84932068D01*
X23641260Y-84875000D01*
X23348740Y-84875000D01*
X23061842Y-84932068D01*
X22791589Y-85044010D01*
X22548368Y-85206525D01*
X22341525Y-85413368D01*
X22225000Y-85587760D01*
X22108475Y-85413368D01*
X21901632Y-85206525D01*
X21658411Y-85044010D01*
X21388158Y-84932068D01*
X21101260Y-84875000D01*
X20808740Y-84875000D01*
X20521842Y-84932068D01*
X20251589Y-85044010D01*
X20008368Y-85206525D01*
X19801525Y-85413368D01*
X19685000Y-85587760D01*
X19568475Y-85413368D01*
X19361632Y-85206525D01*
X19118411Y-85044010D01*
X18848158Y-84932068D01*
X18561260Y-84875000D01*
X18268740Y-84875000D01*
X17981842Y-84932068D01*
X17711589Y-85044010D01*
X17468368Y-85206525D01*
X17261525Y-85413368D01*
X17099010Y-85656589D01*
X16987068Y-85926842D01*
X16930000Y-86213740D01*
X12725000Y-86213740D01*
X12725000Y-78598665D01*
X16980000Y-78598665D01*
X16980000Y-78881335D01*
X17035147Y-79158574D01*
X17143320Y-79419727D01*
X17300363Y-79654759D01*
X17500241Y-79854637D01*
X17735273Y-80011680D01*
X17996426Y-80119853D01*
X18273665Y-80175000D01*
X18556335Y-80175000D01*
X18833574Y-80119853D01*
X19094727Y-80011680D01*
X19329759Y-79854637D01*
X19529637Y-79654759D01*
X19686680Y-79419727D01*
X19794853Y-79158574D01*
X19850000Y-78881335D01*
X19850000Y-78598665D01*
X24600000Y-78598665D01*
X24600000Y-78881335D01*
X24655147Y-79158574D01*
X24763320Y-79419727D01*
X24920363Y-79654759D01*
X25120241Y-79854637D01*
X25355273Y-80011680D01*
X25616426Y-80119853D01*
X25893665Y-80175000D01*
X26176335Y-80175000D01*
X26453574Y-80119853D01*
X26714727Y-80011680D01*
X26949759Y-79854637D01*
X27149637Y-79654759D01*
X27306680Y-79419727D01*
X27414853Y-79158574D01*
X27470000Y-78881335D01*
X27470000Y-78598665D01*
X36030000Y-78598665D01*
X36030000Y-78881335D01*
X36085147Y-79158574D01*
X36193320Y-79419727D01*
X36350363Y-79654759D01*
X36550241Y-79854637D01*
X36785273Y-80011680D01*
X37046426Y-80119853D01*
X37323665Y-80175000D01*
X37606335Y-80175000D01*
X37883574Y-80119853D01*
X38144727Y-80011680D01*
X38379759Y-79854637D01*
X38579637Y-79654759D01*
X38736680Y-79419727D01*
X38844853Y-79158574D01*
X38900000Y-78881335D01*
X38900000Y-78598665D01*
X43650000Y-78598665D01*
X43650000Y-78881335D01*
X43705147Y-79158574D01*
X43813320Y-79419727D01*
X43970363Y-79654759D01*
X44170241Y-79854637D01*
X44405273Y-80011680D01*
X44666426Y-80119853D01*
X44943665Y-80175000D01*
X45226335Y-80175000D01*
X45503574Y-80119853D01*
X45764727Y-80011680D01*
X45999759Y-79854637D01*
X46199637Y-79654759D01*
X46356680Y-79419727D01*
X46464853Y-79158574D01*
X46520000Y-78881335D01*
X46520000Y-78598665D01*
X46464853Y-78321426D01*
X46356680Y-78060273D01*
X46199637Y-77825241D01*
X45999759Y-77625363D01*
X45764727Y-77468320D01*
X45503574Y-77360147D01*
X45226335Y-77305000D01*
X44943665Y-77305000D01*
X44666426Y-77360147D01*
X44405273Y-77468320D01*
X44170241Y-77625363D01*
X43970363Y-77825241D01*
X43813320Y-78060273D01*
X43705147Y-78321426D01*
X43650000Y-78598665D01*
X38900000Y-78598665D01*
X38844853Y-78321426D01*
X38736680Y-78060273D01*
X38579637Y-77825241D01*
X38379759Y-77625363D01*
X38144727Y-77468320D01*
X37883574Y-77360147D01*
X37606335Y-77305000D01*
X37323665Y-77305000D01*
X37046426Y-77360147D01*
X36785273Y-77468320D01*
X36550241Y-77625363D01*
X36350363Y-77825241D01*
X36193320Y-78060273D01*
X36085147Y-78321426D01*
X36030000Y-78598665D01*
X27470000Y-78598665D01*
X27414853Y-78321426D01*
X27306680Y-78060273D01*
X27149637Y-77825241D01*
X26949759Y-77625363D01*
X26714727Y-77468320D01*
X26453574Y-77360147D01*
X26176335Y-77305000D01*
X25893665Y-77305000D01*
X25616426Y-77360147D01*
X25355273Y-77468320D01*
X25120241Y-77625363D01*
X24920363Y-77825241D01*
X24763320Y-78060273D01*
X24655147Y-78321426D01*
X24600000Y-78598665D01*
X19850000Y-78598665D01*
X19794853Y-78321426D01*
X19686680Y-78060273D01*
X19529637Y-77825241D01*
X19329759Y-77625363D01*
X19094727Y-77468320D01*
X18833574Y-77360147D01*
X18556335Y-77305000D01*
X18273665Y-77305000D01*
X17996426Y-77360147D01*
X17735273Y-77468320D01*
X17500241Y-77625363D01*
X17300363Y-77825241D01*
X17143320Y-78060273D01*
X17035147Y-78321426D01*
X16980000Y-78598665D01*
X12725000Y-78598665D01*
X12725000Y-74153665D01*
X16980000Y-74153665D01*
X16980000Y-74436335D01*
X17035147Y-74713574D01*
X17143320Y-74974727D01*
X17300363Y-75209759D01*
X17500241Y-75409637D01*
X17735273Y-75566680D01*
X17996426Y-75674853D01*
X18273665Y-75730000D01*
X18556335Y-75730000D01*
X18833574Y-75674853D01*
X19094727Y-75566680D01*
X19329759Y-75409637D01*
X19529637Y-75209759D01*
X19686680Y-74974727D01*
X19794853Y-74713574D01*
X19850000Y-74436335D01*
X19850000Y-74153665D01*
X24600000Y-74153665D01*
X24600000Y-74436335D01*
X24655147Y-74713574D01*
X24763320Y-74974727D01*
X24920363Y-75209759D01*
X25120241Y-75409637D01*
X25355273Y-75566680D01*
X25616426Y-75674853D01*
X25893665Y-75730000D01*
X26176335Y-75730000D01*
X26453574Y-75674853D01*
X26714727Y-75566680D01*
X26949759Y-75409637D01*
X27149637Y-75209759D01*
X27306680Y-74974727D01*
X27414853Y-74713574D01*
X27470000Y-74436335D01*
X27470000Y-74153665D01*
X36030000Y-74153665D01*
X36030000Y-74436335D01*
X36085147Y-74713574D01*
X36193320Y-74974727D01*
X36350363Y-75209759D01*
X36550241Y-75409637D01*
X36785273Y-75566680D01*
X37046426Y-75674853D01*
X37323665Y-75730000D01*
X37606335Y-75730000D01*
X37883574Y-75674853D01*
X38144727Y-75566680D01*
X38379759Y-75409637D01*
X38579637Y-75209759D01*
X38736680Y-74974727D01*
X38844853Y-74713574D01*
X38900000Y-74436335D01*
X38900000Y-74153665D01*
X43650000Y-74153665D01*
X43650000Y-74436335D01*
X43705147Y-74713574D01*
X43813320Y-74974727D01*
X43970363Y-75209759D01*
X44170241Y-75409637D01*
X44405273Y-75566680D01*
X44666426Y-75674853D01*
X44943665Y-75730000D01*
X45226335Y-75730000D01*
X45503574Y-75674853D01*
X45764727Y-75566680D01*
X45999759Y-75409637D01*
X46199637Y-75209759D01*
X46356680Y-74974727D01*
X46464853Y-74713574D01*
X46520000Y-74436335D01*
X46520000Y-74153665D01*
X46464853Y-73876426D01*
X46356680Y-73615273D01*
X46199637Y-73380241D01*
X45999759Y-73180363D01*
X45764727Y-73023320D01*
X45503574Y-72915147D01*
X45226335Y-72860000D01*
X44943665Y-72860000D01*
X44666426Y-72915147D01*
X44405273Y-73023320D01*
X44170241Y-73180363D01*
X43970363Y-73380241D01*
X43813320Y-73615273D01*
X43705147Y-73876426D01*
X43650000Y-74153665D01*
X38900000Y-74153665D01*
X38844853Y-73876426D01*
X38736680Y-73615273D01*
X38579637Y-73380241D01*
X38379759Y-73180363D01*
X38144727Y-73023320D01*
X37883574Y-72915147D01*
X37606335Y-72860000D01*
X37323665Y-72860000D01*
X37046426Y-72915147D01*
X36785273Y-73023320D01*
X36550241Y-73180363D01*
X36350363Y-73380241D01*
X36193320Y-73615273D01*
X36085147Y-73876426D01*
X36030000Y-74153665D01*
X27470000Y-74153665D01*
X27414853Y-73876426D01*
X27306680Y-73615273D01*
X27149637Y-73380241D01*
X26949759Y-73180363D01*
X26714727Y-73023320D01*
X26453574Y-72915147D01*
X26176335Y-72860000D01*
X25893665Y-72860000D01*
X25616426Y-72915147D01*
X25355273Y-73023320D01*
X25120241Y-73180363D01*
X24920363Y-73380241D01*
X24763320Y-73615273D01*
X24655147Y-73876426D01*
X24600000Y-74153665D01*
X19850000Y-74153665D01*
X19794853Y-73876426D01*
X19686680Y-73615273D01*
X19529637Y-73380241D01*
X19329759Y-73180363D01*
X19094727Y-73023320D01*
X18833574Y-72915147D01*
X18556335Y-72860000D01*
X18273665Y-72860000D01*
X17996426Y-72915147D01*
X17735273Y-73023320D01*
X17500241Y-73180363D01*
X17300363Y-73380241D01*
X17143320Y-73615273D01*
X17035147Y-73876426D01*
X16980000Y-74153665D01*
X12725000Y-74153665D01*
X12725000Y-67525000D01*
X19466928Y-67525000D01*
X19479188Y-67649482D01*
X19515498Y-67769180D01*
X19574463Y-67879494D01*
X19653815Y-67976185D01*
X19750506Y-68055537D01*
X19860820Y-68114502D01*
X19980518Y-68150812D01*
X20105000Y-68163072D01*
X20669250Y-68160000D01*
X20828000Y-68001250D01*
X20828000Y-66802000D01*
X19628750Y-66802000D01*
X19470000Y-66960750D01*
X19466928Y-67525000D01*
X12725000Y-67525000D01*
X12725000Y-65825000D01*
X19466928Y-65825000D01*
X19470000Y-66389250D01*
X19628750Y-66548000D01*
X20828000Y-66548000D01*
X20828000Y-65348750D01*
X21082000Y-65348750D01*
X21082000Y-66548000D01*
X21102000Y-66548000D01*
X21102000Y-66802000D01*
X21082000Y-66802000D01*
X21082000Y-68001250D01*
X21240750Y-68160000D01*
X21805000Y-68163072D01*
X21929482Y-68150812D01*
X22049180Y-68114502D01*
X22159494Y-68055537D01*
X22256185Y-67976185D01*
X22335537Y-67879494D01*
X22394502Y-67769180D01*
X22416513Y-67696620D01*
X22548368Y-67828475D01*
X22791589Y-67990990D01*
X23061842Y-68102932D01*
X23348740Y-68160000D01*
X23641260Y-68160000D01*
X23928158Y-68102932D01*
X24198411Y-67990990D01*
X24441632Y-67828475D01*
X24648475Y-67621632D01*
X24765000Y-67447240D01*
X24881525Y-67621632D01*
X25088368Y-67828475D01*
X25331589Y-67990990D01*
X25601842Y-68102932D01*
X25888740Y-68160000D01*
X26181260Y-68160000D01*
X26468158Y-68102932D01*
X26738411Y-67990990D01*
X26981632Y-67828475D01*
X27188475Y-67621632D01*
X27305000Y-67447240D01*
X27421525Y-67621632D01*
X27628368Y-67828475D01*
X27871589Y-67990990D01*
X28141842Y-68102932D01*
X28428740Y-68160000D01*
X28721260Y-68160000D01*
X29008158Y-68102932D01*
X29278411Y-67990990D01*
X29521632Y-67828475D01*
X29728475Y-67621632D01*
X29793042Y-67525000D01*
X39786928Y-67525000D01*
X39799188Y-67649482D01*
X39835498Y-67769180D01*
X39894463Y-67879494D01*
X39973815Y-67976185D01*
X40070506Y-68055537D01*
X40180820Y-68114502D01*
X40300518Y-68150812D01*
X40425000Y-68163072D01*
X40989250Y-68160000D01*
X41148000Y-68001250D01*
X41148000Y-66802000D01*
X39948750Y-66802000D01*
X39790000Y-66960750D01*
X39786928Y-67525000D01*
X29793042Y-67525000D01*
X29890990Y-67378411D01*
X30002932Y-67108158D01*
X30060000Y-66821260D01*
X30060000Y-66528740D01*
X30002932Y-66241842D01*
X29890990Y-65971589D01*
X29793043Y-65825000D01*
X39786928Y-65825000D01*
X39790000Y-66389250D01*
X39948750Y-66548000D01*
X41148000Y-66548000D01*
X41148000Y-65348750D01*
X40989250Y-65190000D01*
X40425000Y-65186928D01*
X40300518Y-65199188D01*
X40180820Y-65235498D01*
X40070506Y-65294463D01*
X39973815Y-65373815D01*
X39894463Y-65470506D01*
X39835498Y-65580820D01*
X39799188Y-65700518D01*
X39786928Y-65825000D01*
X29793043Y-65825000D01*
X29728475Y-65728368D01*
X29521632Y-65521525D01*
X29278411Y-65359010D01*
X29008158Y-65247068D01*
X28721260Y-65190000D01*
X28428740Y-65190000D01*
X28141842Y-65247068D01*
X27871589Y-65359010D01*
X27628368Y-65521525D01*
X27421525Y-65728368D01*
X27305000Y-65902760D01*
X27188475Y-65728368D01*
X26981632Y-65521525D01*
X26738411Y-65359010D01*
X26468158Y-65247068D01*
X26181260Y-65190000D01*
X25888740Y-65190000D01*
X25601842Y-65247068D01*
X25331589Y-65359010D01*
X25088368Y-65521525D01*
X24881525Y-65728368D01*
X24765000Y-65902760D01*
X24648475Y-65728368D01*
X24441632Y-65521525D01*
X24198411Y-65359010D01*
X23928158Y-65247068D01*
X23641260Y-65190000D01*
X23348740Y-65190000D01*
X23061842Y-65247068D01*
X22791589Y-65359010D01*
X22548368Y-65521525D01*
X22416513Y-65653380D01*
X22394502Y-65580820D01*
X22335537Y-65470506D01*
X22256185Y-65373815D01*
X22159494Y-65294463D01*
X22049180Y-65235498D01*
X21929482Y-65199188D01*
X21805000Y-65186928D01*
X21240750Y-65190000D01*
X21082000Y-65348750D01*
X20828000Y-65348750D01*
X20669250Y-65190000D01*
X20105000Y-65186928D01*
X19980518Y-65199188D01*
X19860820Y-65235498D01*
X19750506Y-65294463D01*
X19653815Y-65373815D01*
X19574463Y-65470506D01*
X19515498Y-65580820D01*
X19479188Y-65700518D01*
X19466928Y-65825000D01*
X12725000Y-65825000D01*
X12725000Y-41128740D01*
X16930000Y-41128740D01*
X16930000Y-41421260D01*
X16987068Y-41708158D01*
X17099010Y-41978411D01*
X17261525Y-42221632D01*
X17468368Y-42428475D01*
X17711589Y-42590990D01*
X17981842Y-42702932D01*
X18268740Y-42760000D01*
X18561260Y-42760000D01*
X18848158Y-42702932D01*
X19118411Y-42590990D01*
X19361632Y-42428475D01*
X19568475Y-42221632D01*
X19685000Y-42047240D01*
X19801525Y-42221632D01*
X20008368Y-42428475D01*
X20251589Y-42590990D01*
X20521842Y-42702932D01*
X20808740Y-42760000D01*
X21101260Y-42760000D01*
X21388158Y-42702932D01*
X21658411Y-42590990D01*
X21901632Y-42428475D01*
X22108475Y-42221632D01*
X22225000Y-42047240D01*
X22341525Y-42221632D01*
X22548368Y-42428475D01*
X22791589Y-42590990D01*
X23061842Y-42702932D01*
X23348740Y-42760000D01*
X23641260Y-42760000D01*
X23928158Y-42702932D01*
X24198411Y-42590990D01*
X24441632Y-42428475D01*
X24648475Y-42221632D01*
X24765000Y-42047240D01*
X24881525Y-42221632D01*
X25088368Y-42428475D01*
X25331589Y-42590990D01*
X25601842Y-42702932D01*
X25888740Y-42760000D01*
X26181260Y-42760000D01*
X26468158Y-42702932D01*
X26738411Y-42590990D01*
X26981632Y-42428475D01*
X27188475Y-42221632D01*
X27305000Y-42047240D01*
X27421525Y-42221632D01*
X27628368Y-42428475D01*
X27871589Y-42590990D01*
X28141842Y-42702932D01*
X28428740Y-42760000D01*
X28721260Y-42760000D01*
X29008158Y-42702932D01*
X29278411Y-42590990D01*
X29521632Y-42428475D01*
X29653487Y-42296620D01*
X29675498Y-42369180D01*
X29734463Y-42479494D01*
X29813815Y-42576185D01*
X29910506Y-42655537D01*
X30020820Y-42714502D01*
X30140518Y-42750812D01*
X30265000Y-42763072D01*
X31965000Y-42763072D01*
X32089482Y-42750812D01*
X32209180Y-42714502D01*
X32319494Y-42655537D01*
X32416185Y-42576185D01*
X32495537Y-42479494D01*
X32554502Y-42369180D01*
X32590812Y-42249482D01*
X32603072Y-42125000D01*
X32603072Y-41128740D01*
X37250000Y-41128740D01*
X37250000Y-41421260D01*
X37307068Y-41708158D01*
X37419010Y-41978411D01*
X37581525Y-42221632D01*
X37788368Y-42428475D01*
X38031589Y-42590990D01*
X38301842Y-42702932D01*
X38588740Y-42760000D01*
X38881260Y-42760000D01*
X39168158Y-42702932D01*
X39438411Y-42590990D01*
X39681632Y-42428475D01*
X39888475Y-42221632D01*
X40005000Y-42047240D01*
X40121525Y-42221632D01*
X40328368Y-42428475D01*
X40571589Y-42590990D01*
X40841842Y-42702932D01*
X41128740Y-42760000D01*
X41421260Y-42760000D01*
X41708158Y-42702932D01*
X41978411Y-42590990D01*
X42221632Y-42428475D01*
X42428475Y-42221632D01*
X42545000Y-42047240D01*
X42661525Y-42221632D01*
X42868368Y-42428475D01*
X43111589Y-42590990D01*
X43381842Y-42702932D01*
X43668740Y-42760000D01*
X43961260Y-42760000D01*
X44248158Y-42702932D01*
X44518411Y-42590990D01*
X44761632Y-42428475D01*
X44968475Y-42221632D01*
X45085000Y-42047240D01*
X45201525Y-42221632D01*
X45408368Y-42428475D01*
X45651589Y-42590990D01*
X45921842Y-42702932D01*
X46208740Y-42760000D01*
X46501260Y-42760000D01*
X46788158Y-42702932D01*
X47058411Y-42590990D01*
X47301632Y-42428475D01*
X47508475Y-42221632D01*
X47625000Y-42047240D01*
X47741525Y-42221632D01*
X47948368Y-42428475D01*
X48191589Y-42590990D01*
X48461842Y-42702932D01*
X48748740Y-42760000D01*
X49041260Y-42760000D01*
X49328158Y-42702932D01*
X49598411Y-42590990D01*
X49841632Y-42428475D01*
X49973487Y-42296620D01*
X49995498Y-42369180D01*
X50054463Y-42479494D01*
X50133815Y-42576185D01*
X50230506Y-42655537D01*
X50340820Y-42714502D01*
X50460518Y-42750812D01*
X50585000Y-42763072D01*
X52285000Y-42763072D01*
X52409482Y-42750812D01*
X52529180Y-42714502D01*
X52639494Y-42655537D01*
X52736185Y-42576185D01*
X52815537Y-42479494D01*
X52874502Y-42369180D01*
X52910812Y-42249482D01*
X52923072Y-42125000D01*
X52923072Y-41768665D01*
X73495000Y-41768665D01*
X73495000Y-42051335D01*
X73550147Y-42328574D01*
X73658320Y-42589727D01*
X73815363Y-42824759D01*
X74015241Y-43024637D01*
X74247759Y-43180000D01*
X74015241Y-43335363D01*
X73815363Y-43535241D01*
X73658320Y-43770273D01*
X73550147Y-44031426D01*
X73495000Y-44308665D01*
X73495000Y-44591335D01*
X73550147Y-44868574D01*
X73658320Y-45129727D01*
X73815363Y-45364759D01*
X74015241Y-45564637D01*
X74247759Y-45720000D01*
X74015241Y-45875363D01*
X73815363Y-46075241D01*
X73658320Y-46310273D01*
X73550147Y-46571426D01*
X73495000Y-46848665D01*
X73495000Y-47131335D01*
X73550147Y-47408574D01*
X73658320Y-47669727D01*
X73815363Y-47904759D01*
X74015241Y-48104637D01*
X74247759Y-48260000D01*
X74015241Y-48415363D01*
X73815363Y-48615241D01*
X73658320Y-48850273D01*
X73550147Y-49111426D01*
X73495000Y-49388665D01*
X73495000Y-49671335D01*
X73550147Y-49948574D01*
X73658320Y-50209727D01*
X73815363Y-50444759D01*
X74015241Y-50644637D01*
X74247759Y-50800000D01*
X74015241Y-50955363D01*
X73815363Y-51155241D01*
X73658320Y-51390273D01*
X73550147Y-51651426D01*
X73495000Y-51928665D01*
X73495000Y-52211335D01*
X73550147Y-52488574D01*
X73658320Y-52749727D01*
X73815363Y-52984759D01*
X74015241Y-53184637D01*
X74247759Y-53340000D01*
X74015241Y-53495363D01*
X73815363Y-53695241D01*
X73658320Y-53930273D01*
X73550147Y-54191426D01*
X73495000Y-54468665D01*
X73495000Y-54751335D01*
X73550147Y-55028574D01*
X73658320Y-55289727D01*
X73815363Y-55524759D01*
X74015241Y-55724637D01*
X74247759Y-55880000D01*
X74015241Y-56035363D01*
X73815363Y-56235241D01*
X73658320Y-56470273D01*
X73550147Y-56731426D01*
X73495000Y-57008665D01*
X73495000Y-57291335D01*
X73550147Y-57568574D01*
X73658320Y-57829727D01*
X73815363Y-58064759D01*
X74015241Y-58264637D01*
X74247759Y-58420000D01*
X74015241Y-58575363D01*
X73815363Y-58775241D01*
X73658320Y-59010273D01*
X73550147Y-59271426D01*
X73495000Y-59548665D01*
X73495000Y-59831335D01*
X73550147Y-60108574D01*
X73658320Y-60369727D01*
X73815363Y-60604759D01*
X74015241Y-60804637D01*
X74247759Y-60960000D01*
X74015241Y-61115363D01*
X73815363Y-61315241D01*
X73658320Y-61550273D01*
X73550147Y-61811426D01*
X73495000Y-62088665D01*
X73495000Y-62371335D01*
X73550147Y-62648574D01*
X73658320Y-62909727D01*
X73815363Y-63144759D01*
X74015241Y-63344637D01*
X74247759Y-63500000D01*
X74015241Y-63655363D01*
X73815363Y-63855241D01*
X73658320Y-64090273D01*
X73550147Y-64351426D01*
X73495000Y-64628665D01*
X73495000Y-64911335D01*
X73550147Y-65188574D01*
X73658320Y-65449727D01*
X73815363Y-65684759D01*
X74015241Y-65884637D01*
X74247759Y-66040000D01*
X74015241Y-66195363D01*
X73815363Y-66395241D01*
X73658320Y-66630273D01*
X73550147Y-66891426D01*
X73495000Y-67168665D01*
X73495000Y-67451335D01*
X73550147Y-67728574D01*
X73658320Y-67989727D01*
X73815363Y-68224759D01*
X74015241Y-68424637D01*
X74250273Y-68581680D01*
X74511426Y-68689853D01*
X74788665Y-68745000D01*
X75071335Y-68745000D01*
X75348574Y-68689853D01*
X75609727Y-68581680D01*
X75844759Y-68424637D01*
X76044637Y-68224759D01*
X76201680Y-67989727D01*
X76309853Y-67728574D01*
X76365000Y-67451335D01*
X76365000Y-67168665D01*
X76309853Y-66891426D01*
X76201680Y-66630273D01*
X76044637Y-66395241D01*
X75844759Y-66195363D01*
X75612241Y-66040000D01*
X75844759Y-65884637D01*
X76044637Y-65684759D01*
X76201680Y-65449727D01*
X76309853Y-65188574D01*
X76365000Y-64911335D01*
X76365000Y-64628665D01*
X76309853Y-64351426D01*
X76201680Y-64090273D01*
X76044637Y-63855241D01*
X75844759Y-63655363D01*
X75612241Y-63500000D01*
X75844759Y-63344637D01*
X76044637Y-63144759D01*
X76201680Y-62909727D01*
X76309853Y-62648574D01*
X76365000Y-62371335D01*
X76365000Y-62088665D01*
X76309853Y-61811426D01*
X76201680Y-61550273D01*
X76044637Y-61315241D01*
X75844759Y-61115363D01*
X75612241Y-60960000D01*
X75844759Y-60804637D01*
X76044637Y-60604759D01*
X76201680Y-60369727D01*
X76309853Y-60108574D01*
X76365000Y-59831335D01*
X76365000Y-59548665D01*
X76309853Y-59271426D01*
X76201680Y-59010273D01*
X76044637Y-58775241D01*
X75844759Y-58575363D01*
X75612241Y-58420000D01*
X75844759Y-58264637D01*
X76044637Y-58064759D01*
X76201680Y-57829727D01*
X76309853Y-57568574D01*
X76365000Y-57291335D01*
X76365000Y-57008665D01*
X76309853Y-56731426D01*
X76201680Y-56470273D01*
X76044637Y-56235241D01*
X75844759Y-56035363D01*
X75612241Y-55880000D01*
X75844759Y-55724637D01*
X76044637Y-55524759D01*
X76201680Y-55289727D01*
X76309853Y-55028574D01*
X76365000Y-54751335D01*
X76365000Y-54468665D01*
X76309853Y-54191426D01*
X76201680Y-53930273D01*
X76044637Y-53695241D01*
X75844759Y-53495363D01*
X75612241Y-53340000D01*
X75844759Y-53184637D01*
X76044637Y-52984759D01*
X76201680Y-52749727D01*
X76309853Y-52488574D01*
X76365000Y-52211335D01*
X76365000Y-51928665D01*
X76309853Y-51651426D01*
X76201680Y-51390273D01*
X76044637Y-51155241D01*
X75844759Y-50955363D01*
X75612241Y-50800000D01*
X75844759Y-50644637D01*
X76044637Y-50444759D01*
X76201680Y-50209727D01*
X76309853Y-49948574D01*
X76365000Y-49671335D01*
X76365000Y-49388665D01*
X76309853Y-49111426D01*
X76201680Y-48850273D01*
X76044637Y-48615241D01*
X75844759Y-48415363D01*
X75612241Y-48260000D01*
X75844759Y-48104637D01*
X76044637Y-47904759D01*
X76201680Y-47669727D01*
X76309853Y-47408574D01*
X76365000Y-47131335D01*
X76365000Y-46848665D01*
X76309853Y-46571426D01*
X76201680Y-46310273D01*
X76044637Y-46075241D01*
X75844759Y-45875363D01*
X75612241Y-45720000D01*
X75844759Y-45564637D01*
X76044637Y-45364759D01*
X76201680Y-45129727D01*
X76309853Y-44868574D01*
X76365000Y-44591335D01*
X76365000Y-44308665D01*
X76309853Y-44031426D01*
X76201680Y-43770273D01*
X76044637Y-43535241D01*
X75844759Y-43335363D01*
X75612241Y-43180000D01*
X75844759Y-43024637D01*
X76044637Y-42824759D01*
X76201680Y-42589727D01*
X76309853Y-42328574D01*
X76365000Y-42051335D01*
X76365000Y-41768665D01*
X76309853Y-41491426D01*
X76201680Y-41230273D01*
X76044637Y-40995241D01*
X75844759Y-40795363D01*
X75609727Y-40638320D01*
X75599135Y-40633933D01*
X75785131Y-40522385D01*
X75993519Y-40333414D01*
X76161037Y-40107420D01*
X76281246Y-39853087D01*
X76321904Y-39719039D01*
X76199915Y-39497000D01*
X75057000Y-39497000D01*
X75057000Y-39517000D01*
X74803000Y-39517000D01*
X74803000Y-39497000D01*
X73660085Y-39497000D01*
X73538096Y-39719039D01*
X73578754Y-39853087D01*
X73698963Y-40107420D01*
X73866481Y-40333414D01*
X74074869Y-40522385D01*
X74260865Y-40633933D01*
X74250273Y-40638320D01*
X74015241Y-40795363D01*
X73815363Y-40995241D01*
X73658320Y-41230273D01*
X73550147Y-41491426D01*
X73495000Y-41768665D01*
X52923072Y-41768665D01*
X52923072Y-40425000D01*
X52910812Y-40300518D01*
X52874502Y-40180820D01*
X52815537Y-40070506D01*
X52736185Y-39973815D01*
X52639494Y-39894463D01*
X52529180Y-39835498D01*
X52409482Y-39799188D01*
X52285000Y-39786928D01*
X52195000Y-39786928D01*
X52195000Y-33334801D01*
X54579801Y-30950000D01*
X73491928Y-30950000D01*
X73491928Y-32550000D01*
X73504188Y-32674482D01*
X73540498Y-32794180D01*
X73599463Y-32904494D01*
X73678815Y-33001185D01*
X73775506Y-33080537D01*
X73885820Y-33139502D01*
X74005518Y-33175812D01*
X74013961Y-33176643D01*
X73815363Y-33375241D01*
X73658320Y-33610273D01*
X73550147Y-33871426D01*
X73495000Y-34148665D01*
X73495000Y-34431335D01*
X73550147Y-34708574D01*
X73658320Y-34969727D01*
X73815363Y-35204759D01*
X74015241Y-35404637D01*
X74247759Y-35560000D01*
X74015241Y-35715363D01*
X73815363Y-35915241D01*
X73658320Y-36150273D01*
X73550147Y-36411426D01*
X73495000Y-36688665D01*
X73495000Y-36971335D01*
X73550147Y-37248574D01*
X73658320Y-37509727D01*
X73815363Y-37744759D01*
X74015241Y-37944637D01*
X74250273Y-38101680D01*
X74260865Y-38106067D01*
X74074869Y-38217615D01*
X73866481Y-38406586D01*
X73698963Y-38632580D01*
X73578754Y-38886913D01*
X73538096Y-39020961D01*
X73660085Y-39243000D01*
X74803000Y-39243000D01*
X74803000Y-39223000D01*
X75057000Y-39223000D01*
X75057000Y-39243000D01*
X76199915Y-39243000D01*
X76321904Y-39020961D01*
X76281246Y-38886913D01*
X76161037Y-38632580D01*
X75993519Y-38406586D01*
X75785131Y-38217615D01*
X75599135Y-38106067D01*
X75609727Y-38101680D01*
X75844759Y-37944637D01*
X76044637Y-37744759D01*
X76201680Y-37509727D01*
X76309853Y-37248574D01*
X76365000Y-36971335D01*
X76365000Y-36688665D01*
X76309853Y-36411426D01*
X76201680Y-36150273D01*
X76044637Y-35915241D01*
X75844759Y-35715363D01*
X75612241Y-35560000D01*
X75844759Y-35404637D01*
X76044637Y-35204759D01*
X76201680Y-34969727D01*
X76309853Y-34708574D01*
X76365000Y-34431335D01*
X76365000Y-34148665D01*
X76309853Y-33871426D01*
X76201680Y-33610273D01*
X76044637Y-33375241D01*
X75846039Y-33176643D01*
X75854482Y-33175812D01*
X75974180Y-33139502D01*
X76084494Y-33080537D01*
X76181185Y-33001185D01*
X76260537Y-32904494D01*
X76319502Y-32794180D01*
X76355812Y-32674482D01*
X76368072Y-32550000D01*
X76368072Y-31608665D01*
X88735000Y-31608665D01*
X88735000Y-31891335D01*
X88790147Y-32168574D01*
X88898320Y-32429727D01*
X89055363Y-32664759D01*
X89255241Y-32864637D01*
X89490273Y-33021680D01*
X89500865Y-33026067D01*
X89314869Y-33137615D01*
X89106481Y-33326586D01*
X88938963Y-33552580D01*
X88818754Y-33806913D01*
X88778096Y-33940961D01*
X88900085Y-34163000D01*
X90043000Y-34163000D01*
X90043000Y-34143000D01*
X90297000Y-34143000D01*
X90297000Y-34163000D01*
X91439915Y-34163000D01*
X91561904Y-33940961D01*
X91521246Y-33806913D01*
X91401037Y-33552580D01*
X91233519Y-33326586D01*
X91025131Y-33137615D01*
X90839135Y-33026067D01*
X90849727Y-33021680D01*
X91084759Y-32864637D01*
X91284637Y-32664759D01*
X91441680Y-32429727D01*
X91549853Y-32168574D01*
X91605000Y-31891335D01*
X91605000Y-31608665D01*
X91549853Y-31331426D01*
X91441680Y-31070273D01*
X91284637Y-30835241D01*
X91084759Y-30635363D01*
X90849727Y-30478320D01*
X90588574Y-30370147D01*
X90311335Y-30315000D01*
X90028665Y-30315000D01*
X89751426Y-30370147D01*
X89490273Y-30478320D01*
X89255241Y-30635363D01*
X89055363Y-30835241D01*
X88898320Y-31070273D01*
X88790147Y-31331426D01*
X88735000Y-31608665D01*
X76368072Y-31608665D01*
X76368072Y-30950000D01*
X76355812Y-30825518D01*
X76319502Y-30705820D01*
X76260537Y-30595506D01*
X76181185Y-30498815D01*
X76084494Y-30419463D01*
X75974180Y-30360498D01*
X75854482Y-30324188D01*
X75730000Y-30311928D01*
X74130000Y-30311928D01*
X74005518Y-30324188D01*
X73885820Y-30360498D01*
X73775506Y-30419463D01*
X73678815Y-30498815D01*
X73599463Y-30595506D01*
X73540498Y-30705820D01*
X73504188Y-30825518D01*
X73491928Y-30950000D01*
X54579801Y-30950000D01*
X67329801Y-18200000D01*
X79791928Y-18200000D01*
X79791928Y-19900000D01*
X79804188Y-20024482D01*
X79840498Y-20144180D01*
X79899463Y-20254494D01*
X79978815Y-20351185D01*
X80075506Y-20430537D01*
X80185820Y-20489502D01*
X80305518Y-20525812D01*
X80430000Y-20538072D01*
X80520000Y-20538072D01*
X80520001Y-23457668D01*
X80516324Y-23495000D01*
X80530998Y-23643985D01*
X80574454Y-23787246D01*
X80645026Y-23919276D01*
X80716201Y-24006002D01*
X80740000Y-24035001D01*
X80768998Y-24058799D01*
X83891200Y-27181002D01*
X83914999Y-27210001D01*
X83943997Y-27233799D01*
X84030723Y-27304974D01*
X84162753Y-27375546D01*
X84306014Y-27419003D01*
X84417667Y-27430000D01*
X84417676Y-27430000D01*
X84454999Y-27433676D01*
X84492322Y-27430000D01*
X101285199Y-27430000D01*
X106555000Y-32699802D01*
X106555001Y-42961928D01*
X106465000Y-42961928D01*
X106340518Y-42974188D01*
X106220820Y-43010498D01*
X106110506Y-43069463D01*
X106013815Y-43148815D01*
X105934463Y-43245506D01*
X105875498Y-43355820D01*
X105839188Y-43475518D01*
X105826928Y-43600000D01*
X105826928Y-45300000D01*
X105839188Y-45424482D01*
X105875498Y-45544180D01*
X105934463Y-45654494D01*
X106013815Y-45751185D01*
X106110506Y-45830537D01*
X106220820Y-45889502D01*
X106293380Y-45911513D01*
X106161525Y-46043368D01*
X105999010Y-46286589D01*
X105887068Y-46556842D01*
X105830000Y-46843740D01*
X105830000Y-47136260D01*
X105887068Y-47423158D01*
X105999010Y-47693411D01*
X106161525Y-47936632D01*
X106368368Y-48143475D01*
X106611589Y-48305990D01*
X106881842Y-48417932D01*
X107168740Y-48475000D01*
X107461260Y-48475000D01*
X107748158Y-48417932D01*
X108018411Y-48305990D01*
X108261632Y-48143475D01*
X108468475Y-47936632D01*
X108630990Y-47693411D01*
X108742932Y-47423158D01*
X108800000Y-47136260D01*
X108800000Y-46843740D01*
X108742932Y-46556842D01*
X108630990Y-46286589D01*
X108468475Y-46043368D01*
X108336620Y-45911513D01*
X108409180Y-45889502D01*
X108519494Y-45830537D01*
X108616185Y-45751185D01*
X108695537Y-45654494D01*
X108754502Y-45544180D01*
X108790812Y-45424482D01*
X108803072Y-45300000D01*
X108803072Y-43600000D01*
X108790812Y-43475518D01*
X108754502Y-43355820D01*
X108695537Y-43245506D01*
X108616185Y-43148815D01*
X108519494Y-43069463D01*
X108409180Y-43010498D01*
X108289482Y-42974188D01*
X108165000Y-42961928D01*
X108075000Y-42961928D01*
X108075000Y-32422333D01*
X108078677Y-32385000D01*
X108064003Y-32236014D01*
X108020546Y-32092753D01*
X107949974Y-31960724D01*
X107878799Y-31873997D01*
X107855001Y-31844999D01*
X107826004Y-31821202D01*
X102163804Y-26159003D01*
X102140001Y-26129999D01*
X102024276Y-26035026D01*
X101892247Y-25964454D01*
X101748986Y-25920997D01*
X101637333Y-25910000D01*
X101637322Y-25910000D01*
X101600000Y-25906324D01*
X101562678Y-25910000D01*
X84769802Y-25910000D01*
X82040000Y-23180199D01*
X82040000Y-20538072D01*
X82130000Y-20538072D01*
X82254482Y-20525812D01*
X82374180Y-20489502D01*
X82484494Y-20430537D01*
X82581185Y-20351185D01*
X82660537Y-20254494D01*
X82719502Y-20144180D01*
X82743966Y-20063534D01*
X82819731Y-20147588D01*
X83053080Y-20321641D01*
X83315901Y-20446825D01*
X83463110Y-20491476D01*
X83693000Y-20370155D01*
X83693000Y-19177000D01*
X83947000Y-19177000D01*
X83947000Y-20370155D01*
X84176890Y-20491476D01*
X84324099Y-20446825D01*
X84586920Y-20321641D01*
X84820269Y-20147588D01*
X85015178Y-19931355D01*
X85164157Y-19681252D01*
X85261481Y-19406891D01*
X85140814Y-19177000D01*
X83947000Y-19177000D01*
X83693000Y-19177000D01*
X83673000Y-19177000D01*
X83673000Y-18923000D01*
X83693000Y-18923000D01*
X83693000Y-17729845D01*
X83947000Y-17729845D01*
X83947000Y-18923000D01*
X85140814Y-18923000D01*
X85261481Y-18693109D01*
X85164157Y-18418748D01*
X85015178Y-18168645D01*
X84820269Y-17952412D01*
X84586920Y-17778359D01*
X84324099Y-17653175D01*
X84176890Y-17608524D01*
X83947000Y-17729845D01*
X83693000Y-17729845D01*
X83463110Y-17608524D01*
X83315901Y-17653175D01*
X83053080Y-17778359D01*
X82819731Y-17952412D01*
X82743966Y-18036466D01*
X82719502Y-17955820D01*
X82660537Y-17845506D01*
X82581185Y-17748815D01*
X82484494Y-17669463D01*
X82374180Y-17610498D01*
X82254482Y-17574188D01*
X82130000Y-17561928D01*
X80430000Y-17561928D01*
X80305518Y-17574188D01*
X80185820Y-17610498D01*
X80075506Y-17669463D01*
X79978815Y-17748815D01*
X79899463Y-17845506D01*
X79840498Y-17955820D01*
X79804188Y-18075518D01*
X79791928Y-18200000D01*
X67329801Y-18200000D01*
X68894802Y-16635000D01*
X101730199Y-16635000D01*
X104620000Y-19524802D01*
X104620000Y-20020664D01*
X104637870Y-20202101D01*
X104708489Y-20434900D01*
X104823167Y-20649448D01*
X104977498Y-20837502D01*
X105165551Y-20991833D01*
X105380099Y-21106511D01*
X105612898Y-21177130D01*
X105855000Y-21200975D01*
X106097101Y-21177130D01*
X106329900Y-21106511D01*
X106544448Y-20991833D01*
X106732502Y-20837502D01*
X106855000Y-20688237D01*
X106977498Y-20837502D01*
X107165551Y-20991833D01*
X107380099Y-21106511D01*
X107612898Y-21177130D01*
X107855000Y-21200975D01*
X108097101Y-21177130D01*
X108329900Y-21106511D01*
X108544448Y-20991833D01*
X108732502Y-20837502D01*
X108764191Y-20798889D01*
X108766595Y-20803387D01*
X108877038Y-20937962D01*
X109011613Y-21048405D01*
X109165149Y-21130472D01*
X109331745Y-21181008D01*
X109504999Y-21198072D01*
X110205001Y-21198072D01*
X110378255Y-21181008D01*
X110544851Y-21130472D01*
X110698387Y-21048405D01*
X110832962Y-20937962D01*
X110943405Y-20803387D01*
X111025472Y-20649851D01*
X111076008Y-20483255D01*
X111093072Y-20310001D01*
X111093072Y-19059999D01*
X111076008Y-18886745D01*
X111058756Y-18829872D01*
X118415000Y-18829872D01*
X118415000Y-19270128D01*
X118500890Y-19701925D01*
X118669369Y-20108669D01*
X118913962Y-20474729D01*
X119225271Y-20786038D01*
X119591331Y-21030631D01*
X119998075Y-21199110D01*
X120429872Y-21285000D01*
X120870128Y-21285000D01*
X121301925Y-21199110D01*
X121708669Y-21030631D01*
X122074729Y-20786038D01*
X122386038Y-20474729D01*
X122630631Y-20108669D01*
X122799110Y-19701925D01*
X122885000Y-19270128D01*
X122885000Y-18829872D01*
X122799110Y-18398075D01*
X122630631Y-17991331D01*
X122386038Y-17625271D01*
X122074729Y-17313962D01*
X121708669Y-17069369D01*
X121301925Y-16900890D01*
X120870128Y-16815000D01*
X120429872Y-16815000D01*
X119998075Y-16900890D01*
X119591331Y-17069369D01*
X119225271Y-17313962D01*
X118913962Y-17625271D01*
X118669369Y-17991331D01*
X118500890Y-18398075D01*
X118415000Y-18829872D01*
X111058756Y-18829872D01*
X111025472Y-18720149D01*
X110943405Y-18566613D01*
X110832962Y-18432038D01*
X110698387Y-18321595D01*
X110544851Y-18239528D01*
X110378255Y-18188992D01*
X110205001Y-18171928D01*
X109504999Y-18171928D01*
X109331745Y-18188992D01*
X109165149Y-18239528D01*
X109011613Y-18321595D01*
X108877038Y-18432038D01*
X108766595Y-18566613D01*
X108764191Y-18571111D01*
X108732502Y-18532498D01*
X108544449Y-18378167D01*
X108329901Y-18263489D01*
X108097102Y-18192870D01*
X107855000Y-18169025D01*
X107612899Y-18192870D01*
X107380100Y-18263489D01*
X107165552Y-18378167D01*
X106977499Y-18532498D01*
X106855001Y-18681763D01*
X106732502Y-18532498D01*
X106544449Y-18378167D01*
X106329901Y-18263489D01*
X106097102Y-18192870D01*
X105855000Y-18169025D01*
X105612899Y-18192870D01*
X105478455Y-18233653D01*
X102608804Y-15364003D01*
X102585001Y-15334999D01*
X102469276Y-15240026D01*
X102337247Y-15169454D01*
X102193986Y-15125997D01*
X102082333Y-15115000D01*
X102082322Y-15115000D01*
X102045000Y-15111324D01*
X102007678Y-15115000D01*
X68617333Y-15115000D01*
X68580000Y-15111323D01*
X68542667Y-15115000D01*
X68431014Y-15125997D01*
X68287753Y-15169454D01*
X68155724Y-15240026D01*
X68039999Y-15334999D01*
X68016201Y-15363997D01*
X51435001Y-31945198D01*
X49458804Y-29969003D01*
X49435001Y-29939999D01*
X49319276Y-29845026D01*
X49187247Y-29774454D01*
X49043986Y-29730997D01*
X48932333Y-29720000D01*
X48932322Y-29720000D01*
X48895000Y-29716324D01*
X48857678Y-29720000D01*
X47573043Y-29720000D01*
X47469637Y-29565241D01*
X47269759Y-29365363D01*
X47034727Y-29208320D01*
X46773574Y-29100147D01*
X46496335Y-29045000D01*
X46213665Y-29045000D01*
X45936426Y-29100147D01*
X45675273Y-29208320D01*
X45440241Y-29365363D01*
X45240363Y-29565241D01*
X45083320Y-29800273D01*
X44975147Y-30061426D01*
X44920000Y-30338665D01*
X44920000Y-30621335D01*
X44975147Y-30898574D01*
X45083320Y-31159727D01*
X45240363Y-31394759D01*
X45440241Y-31594637D01*
X45675273Y-31751680D01*
X45936426Y-31859853D01*
X46213665Y-31915000D01*
X46496335Y-31915000D01*
X46773574Y-31859853D01*
X47034727Y-31751680D01*
X47269759Y-31594637D01*
X47469637Y-31394759D01*
X47573043Y-31240000D01*
X48580199Y-31240000D01*
X50675000Y-33334803D01*
X50675001Y-39786928D01*
X50585000Y-39786928D01*
X50460518Y-39799188D01*
X50340820Y-39835498D01*
X50230506Y-39894463D01*
X50133815Y-39973815D01*
X50054463Y-40070506D01*
X49995498Y-40180820D01*
X49973487Y-40253380D01*
X49841632Y-40121525D01*
X49598411Y-39959010D01*
X49328158Y-39847068D01*
X49041260Y-39790000D01*
X48748740Y-39790000D01*
X48461842Y-39847068D01*
X48191589Y-39959010D01*
X47948368Y-40121525D01*
X47741525Y-40328368D01*
X47625000Y-40502760D01*
X47508475Y-40328368D01*
X47301632Y-40121525D01*
X47058411Y-39959010D01*
X46788158Y-39847068D01*
X46501260Y-39790000D01*
X46208740Y-39790000D01*
X45921842Y-39847068D01*
X45651589Y-39959010D01*
X45408368Y-40121525D01*
X45201525Y-40328368D01*
X45085000Y-40502760D01*
X44968475Y-40328368D01*
X44761632Y-40121525D01*
X44518411Y-39959010D01*
X44248158Y-39847068D01*
X43961260Y-39790000D01*
X43668740Y-39790000D01*
X43381842Y-39847068D01*
X43111589Y-39959010D01*
X42868368Y-40121525D01*
X42661525Y-40328368D01*
X42545000Y-40502760D01*
X42428475Y-40328368D01*
X42221632Y-40121525D01*
X41978411Y-39959010D01*
X41708158Y-39847068D01*
X41421260Y-39790000D01*
X41128740Y-39790000D01*
X40841842Y-39847068D01*
X40571589Y-39959010D01*
X40328368Y-40121525D01*
X40121525Y-40328368D01*
X40005000Y-40502760D01*
X39888475Y-40328368D01*
X39681632Y-40121525D01*
X39438411Y-39959010D01*
X39168158Y-39847068D01*
X38881260Y-39790000D01*
X38588740Y-39790000D01*
X38301842Y-39847068D01*
X38031589Y-39959010D01*
X37788368Y-40121525D01*
X37581525Y-40328368D01*
X37419010Y-40571589D01*
X37307068Y-40841842D01*
X37250000Y-41128740D01*
X32603072Y-41128740D01*
X32603072Y-40425000D01*
X32590812Y-40300518D01*
X32554502Y-40180820D01*
X32495537Y-40070506D01*
X32416185Y-39973815D01*
X32319494Y-39894463D01*
X32209180Y-39835498D01*
X32089482Y-39799188D01*
X31965000Y-39786928D01*
X31875000Y-39786928D01*
X31875000Y-35597323D01*
X31878676Y-35560000D01*
X31875000Y-35522677D01*
X31875000Y-34783665D01*
X37300000Y-34783665D01*
X37300000Y-35066335D01*
X37355147Y-35343574D01*
X37463320Y-35604727D01*
X37620363Y-35839759D01*
X37820241Y-36039637D01*
X38055273Y-36196680D01*
X38316426Y-36304853D01*
X38593665Y-36360000D01*
X38876335Y-36360000D01*
X39153574Y-36304853D01*
X39414727Y-36196680D01*
X39649759Y-36039637D01*
X39849637Y-35839759D01*
X40006680Y-35604727D01*
X40114853Y-35343574D01*
X40170000Y-35066335D01*
X40170000Y-34783665D01*
X44920000Y-34783665D01*
X44920000Y-35066335D01*
X44975147Y-35343574D01*
X45083320Y-35604727D01*
X45240363Y-35839759D01*
X45440241Y-36039637D01*
X45675273Y-36196680D01*
X45936426Y-36304853D01*
X46213665Y-36360000D01*
X46496335Y-36360000D01*
X46773574Y-36304853D01*
X47034727Y-36196680D01*
X47269759Y-36039637D01*
X47469637Y-35839759D01*
X47626680Y-35604727D01*
X47734853Y-35343574D01*
X47790000Y-35066335D01*
X47790000Y-34783665D01*
X47734853Y-34506426D01*
X47626680Y-34245273D01*
X47469637Y-34010241D01*
X47269759Y-33810363D01*
X47034727Y-33653320D01*
X46773574Y-33545147D01*
X46496335Y-33490000D01*
X46213665Y-33490000D01*
X45936426Y-33545147D01*
X45675273Y-33653320D01*
X45440241Y-33810363D01*
X45240363Y-34010241D01*
X45083320Y-34245273D01*
X44975147Y-34506426D01*
X44920000Y-34783665D01*
X40170000Y-34783665D01*
X40114853Y-34506426D01*
X40006680Y-34245273D01*
X39849637Y-34010241D01*
X39649759Y-33810363D01*
X39414727Y-33653320D01*
X39153574Y-33545147D01*
X38876335Y-33490000D01*
X38593665Y-33490000D01*
X38316426Y-33545147D01*
X38055273Y-33653320D01*
X37820241Y-33810363D01*
X37620363Y-34010241D01*
X37463320Y-34245273D01*
X37355147Y-34506426D01*
X37300000Y-34783665D01*
X31875000Y-34783665D01*
X31875000Y-30338665D01*
X37300000Y-30338665D01*
X37300000Y-30621335D01*
X37355147Y-30898574D01*
X37463320Y-31159727D01*
X37620363Y-31394759D01*
X37820241Y-31594637D01*
X38055273Y-31751680D01*
X38316426Y-31859853D01*
X38593665Y-31915000D01*
X38876335Y-31915000D01*
X39153574Y-31859853D01*
X39414727Y-31751680D01*
X39649759Y-31594637D01*
X39849637Y-31394759D01*
X40006680Y-31159727D01*
X40114853Y-30898574D01*
X40170000Y-30621335D01*
X40170000Y-30338665D01*
X40114853Y-30061426D01*
X40006680Y-29800273D01*
X39849637Y-29565241D01*
X39649759Y-29365363D01*
X39414727Y-29208320D01*
X39153574Y-29100147D01*
X38876335Y-29045000D01*
X38593665Y-29045000D01*
X38316426Y-29100147D01*
X38055273Y-29208320D01*
X37820241Y-29365363D01*
X37620363Y-29565241D01*
X37463320Y-29800273D01*
X37355147Y-30061426D01*
X37300000Y-30338665D01*
X31875000Y-30338665D01*
X31875000Y-29247322D01*
X31878676Y-29209999D01*
X31875000Y-29172676D01*
X31875000Y-29172667D01*
X31864003Y-29061014D01*
X31820546Y-28917753D01*
X31749974Y-28785724D01*
X31655001Y-28669999D01*
X31626003Y-28646201D01*
X30605000Y-27625199D01*
X30605000Y-20933933D01*
X30722502Y-20837502D01*
X30845000Y-20688237D01*
X30967498Y-20837502D01*
X31155551Y-20991833D01*
X31370099Y-21106511D01*
X31602898Y-21177130D01*
X31845000Y-21200975D01*
X32087101Y-21177130D01*
X32319900Y-21106511D01*
X32534448Y-20991833D01*
X32722502Y-20837502D01*
X32754191Y-20798889D01*
X32756595Y-20803387D01*
X32867038Y-20937962D01*
X33001613Y-21048405D01*
X33155149Y-21130472D01*
X33321745Y-21181008D01*
X33494999Y-21198072D01*
X34195001Y-21198072D01*
X34368255Y-21181008D01*
X34534851Y-21130472D01*
X34688387Y-21048405D01*
X34822962Y-20937962D01*
X34933405Y-20803387D01*
X35015472Y-20649851D01*
X35066008Y-20483255D01*
X35083072Y-20310001D01*
X35083072Y-19059999D01*
X35066008Y-18886745D01*
X35015472Y-18720149D01*
X34933405Y-18566613D01*
X34822962Y-18432038D01*
X34688387Y-18321595D01*
X34534851Y-18239528D01*
X34368255Y-18188992D01*
X34195001Y-18171928D01*
X33494999Y-18171928D01*
X33321745Y-18188992D01*
X33155149Y-18239528D01*
X33001613Y-18321595D01*
X32867038Y-18432038D01*
X32756595Y-18566613D01*
X32754191Y-18571111D01*
X32722502Y-18532498D01*
X32534449Y-18378167D01*
X32319901Y-18263489D01*
X32087102Y-18192870D01*
X31845000Y-18169025D01*
X31602899Y-18192870D01*
X31370100Y-18263489D01*
X31155552Y-18378167D01*
X30967499Y-18532498D01*
X30845000Y-18681763D01*
X30722502Y-18532498D01*
X30534449Y-18378167D01*
X30319901Y-18263489D01*
X30087102Y-18192870D01*
X29845000Y-18169025D01*
X29602899Y-18192870D01*
X29370100Y-18263489D01*
X29155552Y-18378167D01*
X28967499Y-18532498D01*
X28813168Y-18720551D01*
X28698489Y-18935099D01*
X28627870Y-19167898D01*
X28610000Y-19349335D01*
X28610000Y-20020664D01*
X28627870Y-20202101D01*
X28698489Y-20434900D01*
X28813167Y-20649448D01*
X28967498Y-20837502D01*
X29085000Y-20933933D01*
X29085000Y-20992332D01*
X29085001Y-20992342D01*
X29085000Y-27902677D01*
X29081324Y-27940000D01*
X29085000Y-27977322D01*
X29085000Y-27977332D01*
X29095997Y-28088985D01*
X29139454Y-28232246D01*
X29210026Y-28364276D01*
X29249871Y-28412826D01*
X29304999Y-28480001D01*
X29334003Y-28503804D01*
X30355001Y-29524803D01*
X30355000Y-33725199D01*
X27433688Y-30803887D01*
X27470000Y-30621335D01*
X27470000Y-30338665D01*
X27414853Y-30061426D01*
X27306680Y-29800273D01*
X27149637Y-29565241D01*
X26949759Y-29365363D01*
X26714727Y-29208320D01*
X26453574Y-29100147D01*
X26176335Y-29045000D01*
X25893665Y-29045000D01*
X25616426Y-29100147D01*
X25355273Y-29208320D01*
X25120241Y-29365363D01*
X24920363Y-29565241D01*
X24763320Y-29800273D01*
X24655147Y-30061426D01*
X24600000Y-30338665D01*
X24600000Y-30621335D01*
X24655147Y-30898574D01*
X24763320Y-31159727D01*
X24920363Y-31394759D01*
X25120241Y-31594637D01*
X25355273Y-31751680D01*
X25616426Y-31859853D01*
X25893665Y-31915000D01*
X26176335Y-31915000D01*
X26358887Y-31878688D01*
X30355000Y-35874802D01*
X30355001Y-39786928D01*
X30265000Y-39786928D01*
X30140518Y-39799188D01*
X30020820Y-39835498D01*
X29910506Y-39894463D01*
X29813815Y-39973815D01*
X29734463Y-40070506D01*
X29675498Y-40180820D01*
X29653487Y-40253380D01*
X29521632Y-40121525D01*
X29278411Y-39959010D01*
X29008158Y-39847068D01*
X28721260Y-39790000D01*
X28428740Y-39790000D01*
X28141842Y-39847068D01*
X27871589Y-39959010D01*
X27628368Y-40121525D01*
X27421525Y-40328368D01*
X27305000Y-40502760D01*
X27188475Y-40328368D01*
X26981632Y-40121525D01*
X26738411Y-39959010D01*
X26468158Y-39847068D01*
X26181260Y-39790000D01*
X25888740Y-39790000D01*
X25601842Y-39847068D01*
X25331589Y-39959010D01*
X25088368Y-40121525D01*
X24881525Y-40328368D01*
X24765000Y-40502760D01*
X24648475Y-40328368D01*
X24441632Y-40121525D01*
X24198411Y-39959010D01*
X23928158Y-39847068D01*
X23641260Y-39790000D01*
X23348740Y-39790000D01*
X23061842Y-39847068D01*
X22791589Y-39959010D01*
X22548368Y-40121525D01*
X22341525Y-40328368D01*
X22225000Y-40502760D01*
X22108475Y-40328368D01*
X21901632Y-40121525D01*
X21658411Y-39959010D01*
X21388158Y-39847068D01*
X21101260Y-39790000D01*
X20808740Y-39790000D01*
X20521842Y-39847068D01*
X20251589Y-39959010D01*
X20008368Y-40121525D01*
X19801525Y-40328368D01*
X19685000Y-40502760D01*
X19568475Y-40328368D01*
X19361632Y-40121525D01*
X19118411Y-39959010D01*
X18848158Y-39847068D01*
X18561260Y-39790000D01*
X18268740Y-39790000D01*
X17981842Y-39847068D01*
X17711589Y-39959010D01*
X17468368Y-40121525D01*
X17261525Y-40328368D01*
X17099010Y-40571589D01*
X16987068Y-40841842D01*
X16930000Y-41128740D01*
X12725000Y-41128740D01*
X12725000Y-34783665D01*
X16980000Y-34783665D01*
X16980000Y-35066335D01*
X17035147Y-35343574D01*
X17143320Y-35604727D01*
X17300363Y-35839759D01*
X17500241Y-36039637D01*
X17735273Y-36196680D01*
X17996426Y-36304853D01*
X18273665Y-36360000D01*
X18556335Y-36360000D01*
X18833574Y-36304853D01*
X19094727Y-36196680D01*
X19329759Y-36039637D01*
X19529637Y-35839759D01*
X19686680Y-35604727D01*
X19794853Y-35343574D01*
X19850000Y-35066335D01*
X19850000Y-34783665D01*
X24600000Y-34783665D01*
X24600000Y-35066335D01*
X24655147Y-35343574D01*
X24763320Y-35604727D01*
X24920363Y-35839759D01*
X25120241Y-36039637D01*
X25355273Y-36196680D01*
X25616426Y-36304853D01*
X25893665Y-36360000D01*
X26176335Y-36360000D01*
X26453574Y-36304853D01*
X26714727Y-36196680D01*
X26949759Y-36039637D01*
X27149637Y-35839759D01*
X27306680Y-35604727D01*
X27414853Y-35343574D01*
X27470000Y-35066335D01*
X27470000Y-34783665D01*
X27414853Y-34506426D01*
X27306680Y-34245273D01*
X27149637Y-34010241D01*
X26949759Y-33810363D01*
X26714727Y-33653320D01*
X26453574Y-33545147D01*
X26176335Y-33490000D01*
X25893665Y-33490000D01*
X25616426Y-33545147D01*
X25355273Y-33653320D01*
X25120241Y-33810363D01*
X24920363Y-34010241D01*
X24763320Y-34245273D01*
X24655147Y-34506426D01*
X24600000Y-34783665D01*
X19850000Y-34783665D01*
X19794853Y-34506426D01*
X19686680Y-34245273D01*
X19529637Y-34010241D01*
X19329759Y-33810363D01*
X19094727Y-33653320D01*
X18833574Y-33545147D01*
X18556335Y-33490000D01*
X18273665Y-33490000D01*
X17996426Y-33545147D01*
X17735273Y-33653320D01*
X17500241Y-33810363D01*
X17300363Y-34010241D01*
X17143320Y-34245273D01*
X17035147Y-34506426D01*
X16980000Y-34783665D01*
X12725000Y-34783665D01*
X12725000Y-30338665D01*
X16980000Y-30338665D01*
X16980000Y-30621335D01*
X17035147Y-30898574D01*
X17143320Y-31159727D01*
X17300363Y-31394759D01*
X17500241Y-31594637D01*
X17735273Y-31751680D01*
X17996426Y-31859853D01*
X18273665Y-31915000D01*
X18556335Y-31915000D01*
X18833574Y-31859853D01*
X19094727Y-31751680D01*
X19329759Y-31594637D01*
X19529637Y-31394759D01*
X19686680Y-31159727D01*
X19794853Y-30898574D01*
X19850000Y-30621335D01*
X19850000Y-30338665D01*
X19794853Y-30061426D01*
X19686680Y-29800273D01*
X19529637Y-29565241D01*
X19329759Y-29365363D01*
X19094727Y-29208320D01*
X18833574Y-29100147D01*
X18556335Y-29045000D01*
X18273665Y-29045000D01*
X17996426Y-29100147D01*
X17735273Y-29208320D01*
X17500241Y-29365363D01*
X17300363Y-29565241D01*
X17143320Y-29800273D01*
X17035147Y-30061426D01*
X16980000Y-30338665D01*
X12725000Y-30338665D01*
X12725000Y-18829872D01*
X16815000Y-18829872D01*
X16815000Y-19270128D01*
X16900890Y-19701925D01*
X17069369Y-20108669D01*
X17313962Y-20474729D01*
X17625271Y-20786038D01*
X17991331Y-21030631D01*
X18398075Y-21199110D01*
X18829872Y-21285000D01*
X19270128Y-21285000D01*
X19701925Y-21199110D01*
X20108669Y-21030631D01*
X20474729Y-20786038D01*
X20786038Y-20474729D01*
X21030631Y-20108669D01*
X21199110Y-19701925D01*
X21285000Y-19270128D01*
X21285000Y-18829872D01*
X21199110Y-18398075D01*
X21030631Y-17991331D01*
X20786038Y-17625271D01*
X20474729Y-17313962D01*
X20108669Y-17069369D01*
X19701925Y-16900890D01*
X19270128Y-16815000D01*
X18829872Y-16815000D01*
X18398075Y-16900890D01*
X17991331Y-17069369D01*
X17625271Y-17313962D01*
X17313962Y-17625271D01*
X17069369Y-17991331D01*
X16900890Y-18398075D01*
X16815000Y-18829872D01*
X12725000Y-18829872D01*
X12725000Y-12750000D01*
X125680000Y-12750000D01*
X125680001Y-125705000D01*
G37*
G04 #@! TD.AperFunction*
M02*
