M48
; DRILL file {KiCad (5.1.9)-1} date 01/30/22 23:43:35
; FORMAT={-:-/ absolute / inch / decimal}
; #@! TF.CreationDate,2022-01-30T23:43:35-06:00
; #@! TF.GenerationSoftware,Kicad,Pcbnew,(5.1.9)-1
FMAT,2
INCH
T1C0.0295
T2C0.0315
T3C0.0394
T4C0.1260
%
G90
G05
T1
X1.1Y-0.825
X1.15Y-4.7
X1.1787Y-0.825
X1.2287Y-4.7
X1.2575Y-0.825
X1.3075Y-4.7
X4.175Y-0.825
X4.225Y-4.7
X4.2537Y-0.825
X4.3037Y-4.7
X4.3325Y-0.825
X4.3825Y-4.7
T2
X1.0Y-1.225
X1.0Y-1.525
X1.0Y-2.9
X1.0Y-3.2
X1.225Y-1.225
X1.225Y-1.525
X1.225Y-2.9
X1.225Y-3.2
X1.75Y-2.9
X1.75Y-3.2
X1.8Y-1.225
X1.8Y-1.525
X1.975Y-2.9
X1.975Y-3.2
X2.025Y-1.225
X2.025Y-1.525
X4.45Y-3.425
X4.45Y-3.725
X4.45Y-4.175
X4.45Y-4.475
X4.675Y-3.425
X4.675Y-3.725
X4.675Y-4.175
X4.675Y-4.475
T3
X0.725Y-1.725
X0.725Y-3.4
X0.825Y-1.725
X0.825Y-2.725
X0.825Y-3.4
X0.825Y-4.4
X0.925Y-1.725
X0.925Y-2.725
X0.925Y-3.4
X0.925Y-4.4
X1.025Y-1.725
X1.025Y-2.725
X1.025Y-3.4
X1.025Y-4.4
X1.125Y-1.725
X1.125Y-2.725
X1.125Y-3.4
X1.125Y-4.4
X1.225Y-1.725
X1.225Y-3.4
X1.475Y-3.4
X1.525Y-1.725
X1.575Y-3.4
X1.575Y-4.4
X1.625Y-1.725
X1.625Y-2.725
X1.675Y-3.4
X1.675Y-4.4
X1.725Y-1.725
X1.725Y-2.725
X1.775Y-3.4
X1.775Y-4.4
X1.825Y-1.725
X1.825Y-2.725
X1.875Y-3.4
X1.875Y-4.4
X1.925Y-1.725
X1.925Y-2.725
X1.975Y-3.4
X2.025Y-1.725
X2.425Y-1.75
X2.425Y-1.85
X2.425Y-1.95
X2.425Y-2.05
X2.425Y-2.15
X2.425Y-2.25
X2.425Y-2.35
X2.425Y-2.45
X2.425Y-2.55
X2.425Y-2.65
X2.425Y-2.75
X2.425Y-2.85
X2.425Y-2.95
X2.425Y-3.05
X2.425Y-3.15
X2.675Y-1.25
X2.775Y-1.25
X3.025Y-1.75
X3.025Y-1.85
X3.025Y-1.95
X3.025Y-2.05
X3.025Y-2.15
X3.025Y-2.25
X3.025Y-2.35
X3.025Y-2.45
X3.025Y-2.55
X3.025Y-2.65
X3.025Y-2.75
X3.025Y-2.85
X3.025Y-2.95
X3.025Y-3.05
X3.025Y-3.15
X4.125Y-3.225
X4.125Y-3.325
X4.125Y-3.425
X4.125Y-3.525
X4.125Y-3.625
X4.125Y-3.725
X4.125Y-3.975
X4.125Y-4.075
X4.125Y-4.175
X4.125Y-4.275
X4.125Y-4.375
X4.125Y-4.475
X4.225Y-1.75
X4.225Y-1.85
X4.225Y-2.275
X4.225Y-2.375
T4
X0.75Y-0.75
X0.8Y-4.75
X4.675Y-0.75
X4.75Y-4.75
T0
M30
